<svg width="450" height="512" viewBox="0 0 450 512" fill="none" xmlns="http://www.w3.org/2000/svg">
<path d="M212.66 3.35209C220.296 -1.11736 229.704 -1.11737 237.34 3.35209L434.66 118.842C442.296 123.311 447 131.571 447 140.51V371.49C447 380.429 442.296 388.689 434.66 393.158L237.34 508.648C229.704 513.117 220.296 513.117 212.66 508.648L15.3404 393.158C7.70413 388.689 3 380.429 3 371.49V140.51C3 131.571 7.70413 123.311 15.3404 118.842L212.66 3.35209Z" fill="white"/>
<path d="M214.68 6.80426C221.068 3.06525 228.932 3.06525 235.32 6.80426L432.639 122.294C439.034 126.037 443 132.974 443 140.51V371.49C443 379.026 439.034 385.963 432.639 389.706L235.32 505.196C228.932 508.935 221.068 508.935 214.68 505.196L17.3609 389.706C10.9662 385.963 7 379.026 7 371.49V140.51C7 132.974 10.9662 126.037 17.3609 122.294L214.68 6.80426Z" stroke="black" stroke-opacity="0.5" stroke-width="8"/>
<rect x="82" y="128" width="286" height="4" rx="2" fill="black" fill-opacity="0.3"/>
<rect x="82" y="380" width="286" height="4" rx="2" fill="black" fill-opacity="0.3"/>
<path d="M71.4102 243.215L74.2539 242.805L86.3672 208.188H94.543L106.574 242.805L109.418 243.215V248H95.8555V243.215L98.6172 242.723L96.8672 237.254H83.9609L82.2109 242.723L84.9727 243.215V248H71.4102V243.215ZM85.8477 231.375H94.9805L90.4961 217.348H90.332L85.8477 231.375ZM126.152 242.449C127.574 242.449 128.714 242.039 129.57 241.219C130.427 240.38 130.855 239.268 130.855 237.883H138.074L138.156 238.047C138.229 241.036 137.108 243.543 134.793 245.566C132.478 247.572 129.598 248.574 126.152 248.574C121.741 248.574 118.341 247.18 115.953 244.391C113.565 241.602 112.371 238.02 112.371 233.645V232.824C112.371 228.467 113.592 224.885 116.035 222.078C118.496 219.271 121.996 217.867 126.535 217.867C128.923 217.867 131.065 218.223 132.961 218.934C134.857 219.645 136.434 220.647 137.691 221.941L137.801 229.844H131.32L130.008 225.223C129.607 224.876 129.115 224.594 128.531 224.375C127.948 224.138 127.283 224.02 126.535 224.02C124.275 224.02 122.68 224.84 121.75 226.48C120.82 228.121 120.355 230.236 120.355 232.824V233.645C120.355 236.288 120.784 238.421 121.641 240.043C122.497 241.647 124.001 242.449 126.152 242.449ZM155.684 242.449C157.105 242.449 158.245 242.039 159.102 241.219C159.958 240.38 160.387 239.268 160.387 237.883H167.605L167.688 238.047C167.76 241.036 166.639 243.543 164.324 245.566C162.009 247.572 159.129 248.574 155.684 248.574C151.272 248.574 147.872 247.18 145.484 244.391C143.096 241.602 141.902 238.02 141.902 233.645V232.824C141.902 228.467 143.124 224.885 145.566 222.078C148.027 219.271 151.527 217.867 156.066 217.867C158.454 217.867 160.596 218.223 162.492 218.934C164.388 219.645 165.965 220.647 167.223 221.941L167.332 229.844H160.852L159.539 225.223C159.138 224.876 158.646 224.594 158.062 224.375C157.479 224.138 156.814 224.02 156.066 224.02C153.806 224.02 152.211 224.84 151.281 226.48C150.352 228.121 149.887 230.236 149.887 232.824V233.645C149.887 236.288 150.315 238.421 151.172 240.043C152.029 241.647 153.533 242.449 155.684 242.449ZM185.488 248.574C181.223 248.574 177.814 247.207 175.262 244.473C172.71 241.738 171.434 238.266 171.434 234.055V232.961C171.434 228.568 172.637 224.949 175.043 222.105C177.467 219.262 180.712 217.849 184.777 217.867C188.77 217.867 191.868 219.07 194.074 221.477C196.28 223.883 197.383 227.137 197.383 231.238V235.586H179.719L179.664 235.75C179.81 237.701 180.457 239.305 181.605 240.562C182.772 241.82 184.349 242.449 186.336 242.449C188.104 242.449 189.572 242.276 190.738 241.93C191.905 241.565 193.181 241 194.566 240.234L196.727 245.156C195.505 246.122 193.919 246.934 191.969 247.59C190.036 248.246 187.876 248.574 185.488 248.574ZM184.777 224.02C183.301 224.02 182.134 224.585 181.277 225.715C180.421 226.845 179.892 228.331 179.691 230.172L179.773 230.309H189.562V229.598C189.562 227.902 189.161 226.553 188.359 225.551C187.576 224.53 186.382 224.02 184.777 224.02ZM200.582 223.227V218.414H212.176L212.559 221.859C213.434 220.583 214.482 219.599 215.703 218.906C216.924 218.214 218.346 217.867 219.969 217.867C223.633 217.867 226.477 219.298 228.5 222.16C230.523 225.022 231.535 228.786 231.535 233.453V234.027C231.535 238.402 230.523 241.921 228.5 244.582C226.477 247.243 223.651 248.574 220.023 248.574C218.474 248.574 217.098 248.292 215.895 247.727C214.691 247.143 213.661 246.296 212.805 245.184V253.742L216.66 254.562V259.375H200.992V254.562L204.848 253.742V224.047L200.582 223.227ZM223.551 233.453C223.551 230.664 223.086 228.404 222.156 226.672C221.227 224.94 219.805 224.074 217.891 224.074C216.688 224.074 215.658 224.32 214.801 224.812C213.962 225.305 213.297 226.007 212.805 226.918V239.879C213.297 240.717 213.962 241.355 214.801 241.793C215.658 242.23 216.706 242.449 217.945 242.449C219.878 242.449 221.29 241.693 222.184 240.18C223.095 238.667 223.551 236.616 223.551 234.027V233.453ZM246.875 211.168V218.414H252.07V224.02H246.875V239.086C246.875 240.234 247.112 241.055 247.586 241.547C248.06 242.039 248.698 242.285 249.5 242.285C250.047 242.285 250.521 242.267 250.922 242.23C251.341 242.176 251.806 242.094 252.316 241.984L253 247.754C252.107 248.027 251.223 248.228 250.348 248.355C249.473 248.501 248.525 248.574 247.504 248.574C244.751 248.574 242.628 247.818 241.133 246.305C239.656 244.792 238.918 242.395 238.918 239.113V224.02H234.57V218.414H238.918V211.168H246.875ZM274.82 248C274.602 247.508 274.41 247.007 274.246 246.496C274.082 245.967 273.954 245.439 273.863 244.91C272.915 246.004 271.758 246.888 270.391 247.562C269.042 248.237 267.492 248.574 265.742 248.574C262.844 248.574 260.538 247.79 258.824 246.223C257.129 244.637 256.281 242.486 256.281 239.77C256.281 236.999 257.393 234.857 259.617 233.344C261.841 231.831 265.104 231.074 269.406 231.074H273.48V228.176C273.48 226.754 273.07 225.651 272.25 224.867C271.43 224.083 270.217 223.691 268.613 223.691C267.702 223.691 266.891 223.801 266.18 224.02C265.469 224.22 264.895 224.466 264.457 224.758L263.938 227.93H257.922L257.949 221.367C259.408 220.383 261.076 219.553 262.953 218.879C264.849 218.204 266.909 217.867 269.133 217.867C272.797 217.867 275.768 218.77 278.047 220.574C280.344 222.361 281.492 224.913 281.492 228.23V240.453C281.492 240.909 281.492 241.337 281.492 241.738C281.51 242.139 281.547 242.522 281.602 242.887L284.035 243.215V248H274.82ZM267.902 242.668C269.105 242.668 270.199 242.413 271.184 241.902C272.168 241.374 272.934 240.717 273.48 239.934V235.422H269.406C267.711 235.422 266.426 235.823 265.551 236.625C264.676 237.409 264.238 238.357 264.238 239.469C264.238 240.471 264.557 241.255 265.195 241.82C265.852 242.385 266.754 242.668 267.902 242.668ZM286.332 243.215L290.16 242.395V224.047L285.922 223.227V218.414H297.598L297.953 222.652C298.938 221.139 300.15 219.964 301.59 219.125C303.03 218.286 304.643 217.867 306.43 217.867C309.419 217.867 311.753 218.806 313.43 220.684C315.107 222.561 315.945 225.505 315.945 229.516V242.395L319.773 243.215V248H304.516V243.215L307.934 242.395V229.543C307.934 227.556 307.533 226.152 306.73 225.332C305.928 224.493 304.716 224.074 303.094 224.074C302.036 224.074 301.089 224.293 300.25 224.73C299.411 225.15 298.71 225.751 298.145 226.535V242.395L301.371 243.215V248H286.332V243.215ZM335.934 242.449C337.355 242.449 338.495 242.039 339.352 241.219C340.208 240.38 340.637 239.268 340.637 237.883H347.855L347.938 238.047C348.01 241.036 346.889 243.543 344.574 245.566C342.259 247.572 339.379 248.574 335.934 248.574C331.522 248.574 328.122 247.18 325.734 244.391C323.346 241.602 322.152 238.02 322.152 233.645V232.824C322.152 228.467 323.374 224.885 325.816 222.078C328.277 219.271 331.777 217.867 336.316 217.867C338.704 217.867 340.846 218.223 342.742 218.934C344.638 219.645 346.215 220.647 347.473 221.941L347.582 229.844H341.102L339.789 225.223C339.388 224.876 338.896 224.594 338.312 224.375C337.729 224.138 337.064 224.02 336.316 224.02C334.056 224.02 332.461 224.84 331.531 226.48C330.602 228.121 330.137 230.236 330.137 232.824V233.645C330.137 236.288 330.565 238.421 331.422 240.043C332.279 241.647 333.783 242.449 335.934 242.449ZM365.738 248.574C361.473 248.574 358.064 247.207 355.512 244.473C352.96 241.738 351.684 238.266 351.684 234.055V232.961C351.684 228.568 352.887 224.949 355.293 222.105C357.717 219.262 360.962 217.849 365.027 217.867C369.02 217.867 372.118 219.07 374.324 221.477C376.53 223.883 377.633 227.137 377.633 231.238V235.586H359.969L359.914 235.75C360.06 237.701 360.707 239.305 361.855 240.562C363.022 241.82 364.599 242.449 366.586 242.449C368.354 242.449 369.822 242.276 370.988 241.93C372.155 241.565 373.431 241 374.816 240.234L376.977 245.156C375.755 246.122 374.169 246.934 372.219 247.59C370.286 248.246 368.126 248.574 365.738 248.574ZM365.027 224.02C363.551 224.02 362.384 224.585 361.527 225.715C360.671 226.845 360.142 228.331 359.941 230.172L360.023 230.309H369.812V229.598C369.812 227.902 369.411 226.553 368.609 225.551C367.826 224.53 366.632 224.02 365.027 224.02ZM158.609 277.613H152.676L151.855 272.309C151.072 271.525 150.078 270.905 148.875 270.449C147.69 269.993 146.286 269.766 144.664 269.766C141.201 269.766 138.53 271.023 136.652 273.539C134.793 276.055 133.863 279.336 133.863 283.383V284.777C133.863 288.824 134.793 292.115 136.652 294.648C138.512 297.182 141.137 298.449 144.527 298.449C146.095 298.449 147.526 298.221 148.82 297.766C150.133 297.31 151.145 296.69 151.855 295.906L152.676 290.602H158.609V298.477C157.005 300.336 154.954 301.822 152.457 302.934C149.978 304.027 147.198 304.574 144.117 304.574C138.776 304.574 134.401 302.724 130.992 299.023C127.583 295.323 125.879 290.574 125.879 284.777V283.438C125.879 277.659 127.574 272.91 130.965 269.191C134.355 265.473 138.74 263.613 144.117 263.613C147.198 263.613 149.978 264.178 152.457 265.309C154.936 266.421 156.987 267.897 158.609 269.738V277.613ZM163.094 299.215L166.922 298.395V280.047L162.684 279.227V274.414H174.359L174.715 278.734C175.408 277.203 176.301 276.009 177.395 275.152C178.488 274.296 179.755 273.867 181.195 273.867C181.615 273.867 182.052 273.904 182.508 273.977C182.982 274.031 183.374 274.104 183.684 274.195L182.836 281.469L179.555 281.387C178.388 281.387 177.422 281.615 176.656 282.07C175.891 282.526 175.307 283.173 174.906 284.012V298.395L178.734 299.215V304H163.094V299.215ZM185.816 299.215L189.672 298.395V280.047L185.406 279.227V274.414H197.656V298.395L201.484 299.215V304H185.816V299.215ZM197.656 267.332H189.672V261.344H197.656V267.332ZM215.895 267.168V274.414H221.09V280.02H215.895V295.086C215.895 296.234 216.132 297.055 216.605 297.547C217.079 298.039 217.717 298.285 218.52 298.285C219.066 298.285 219.54 298.267 219.941 298.23C220.361 298.176 220.826 298.094 221.336 297.984L222.02 303.754C221.126 304.027 220.242 304.228 219.367 304.355C218.492 304.501 217.544 304.574 216.523 304.574C213.771 304.574 211.647 303.818 210.152 302.305C208.676 300.792 207.938 298.395 207.938 295.113V280.02H203.59V274.414H207.938V267.168H215.895ZM239.164 304.574C234.898 304.574 231.49 303.207 228.938 300.473C226.385 297.738 225.109 294.266 225.109 290.055V288.961C225.109 284.568 226.312 280.949 228.719 278.105C231.143 275.262 234.388 273.849 238.453 273.867C242.445 273.867 245.544 275.07 247.75 277.477C249.956 279.883 251.059 283.137 251.059 287.238V291.586H233.395L233.34 291.75C233.486 293.701 234.133 295.305 235.281 296.562C236.448 297.82 238.025 298.449 240.012 298.449C241.78 298.449 243.247 298.276 244.414 297.93C245.581 297.565 246.857 297 248.242 296.234L250.402 301.156C249.181 302.122 247.595 302.934 245.645 303.59C243.712 304.246 241.552 304.574 239.164 304.574ZM238.453 280.02C236.977 280.02 235.81 280.585 234.953 281.715C234.096 282.845 233.568 284.331 233.367 286.172L233.449 286.309H243.238V285.598C243.238 283.902 242.837 282.553 242.035 281.551C241.251 280.53 240.057 280.02 238.453 280.02ZM255.461 299.215L259.289 298.395V280.047L255.051 279.227V274.414H266.727L267.082 278.734C267.775 277.203 268.668 276.009 269.762 275.152C270.855 274.296 272.122 273.867 273.562 273.867C273.982 273.867 274.419 273.904 274.875 273.977C275.349 274.031 275.741 274.104 276.051 274.195L275.203 281.469L271.922 281.387C270.755 281.387 269.789 281.615 269.023 282.07C268.258 282.526 267.674 283.173 267.273 284.012V298.395L271.102 299.215V304H255.461V299.215ZM278.184 299.215L282.039 298.395V280.047L277.773 279.227V274.414H290.023V298.395L293.852 299.215V304H278.184V299.215ZM290.023 267.332H282.039V261.344H290.023V267.332ZM315.316 304C315.098 303.508 314.906 303.007 314.742 302.496C314.578 301.967 314.451 301.439 314.359 300.91C313.411 302.004 312.254 302.888 310.887 303.562C309.538 304.237 307.988 304.574 306.238 304.574C303.34 304.574 301.034 303.79 299.32 302.223C297.625 300.637 296.777 298.486 296.777 295.77C296.777 292.999 297.889 290.857 300.113 289.344C302.337 287.831 305.6 287.074 309.902 287.074H313.977V284.176C313.977 282.754 313.566 281.651 312.746 280.867C311.926 280.083 310.714 279.691 309.109 279.691C308.198 279.691 307.387 279.801 306.676 280.02C305.965 280.22 305.391 280.466 304.953 280.758L304.434 283.93H298.418L298.445 277.367C299.904 276.383 301.572 275.553 303.449 274.879C305.345 274.204 307.405 273.867 309.629 273.867C313.293 273.867 316.264 274.77 318.543 276.574C320.84 278.361 321.988 280.913 321.988 284.23V296.453C321.988 296.909 321.988 297.337 321.988 297.738C322.007 298.139 322.043 298.522 322.098 298.887L324.531 299.215V304H315.316ZM308.398 298.668C309.602 298.668 310.695 298.413 311.68 297.902C312.664 297.374 313.43 296.717 313.977 295.934V291.422H309.902C308.207 291.422 306.922 291.823 306.047 292.625C305.172 293.409 304.734 294.357 304.734 295.469C304.734 296.471 305.053 297.255 305.691 297.82C306.348 298.385 307.25 298.668 308.398 298.668Z" fill="black"/>
<path d="M145.844 97V93.7969L147.438 93.5625L154.219 74.25H160.156L166.953 93.5625L168.547 93.7969V97H160.047V93.7969L161.531 93.5156L160.844 91.0469H153.531L152.875 93.5156L154.359 93.7969V97H145.844ZM154.688 87.2031H159.672L157.453 80.3125L157.203 79.5156H157.109L156.844 80.3906L154.688 87.2031ZM169.547 97V93.7969L171.906 93.2969V77.9688L169.547 77.4688V74.2344H180.734C182.536 74.2344 184.099 74.5208 185.422 75.0938C186.745 75.6667 187.766 76.4844 188.484 77.5469C189.203 78.599 189.562 79.849 189.562 81.2969C189.562 82.6302 189.198 83.8698 188.469 85.0156C187.75 86.1615 186.76 87.0833 185.5 87.7812C184.24 88.4688 182.802 88.8073 181.188 88.7969L177.391 88.75V93.2969L179.75 93.7969V97H169.547ZM183.953 97L180.891 88.125L185.656 86.5L188.422 93.2656L190.578 93.8125V97H183.953ZM177.391 84.5469H180.797C181.859 84.5469 182.677 84.3021 183.25 83.8125C183.823 83.3125 184.109 82.5938 184.109 81.6562C184.109 80.6875 183.818 79.9115 183.234 79.3281C182.651 78.7344 181.818 78.4375 180.734 78.4375H177.391V84.5469ZM196.312 97V93.7969L198.688 93.2969V78.5H195.172L195.031 80.9531H190.891V74.25H212.031V80.9531H207.844L207.719 78.5H204.172V93.2969L206.547 93.7969V97H196.312ZM212.859 97V93.7969L215.219 93.2969V77.9688L212.859 77.4688V74.25H223.047V77.4688L220.688 77.9688V93.2969L223.047 93.7969V97H212.859ZM224.297 97V93.7969L226.656 93.2969V77.9688L224.297 77.4688V74.25H243.031V80.9531H238.891L238.781 78.4688H232.141V83.7344H239.875V87.9219H232.141V93.2969L234.5 93.7969V97H224.297ZM240.25 97V93.7969L241.844 93.5625L248.625 74.25H254.562L261.359 93.5625L262.953 93.7969V97H254.453V93.7969L255.938 93.5156L255.25 91.0469H247.938L247.281 93.5156L248.766 93.7969V97H240.25ZM249.094 87.2031H254.078L251.859 80.3125L251.609 79.5156H251.516L251.25 80.3906L249.094 87.2031ZM274.281 97.3281C272.115 97.3281 270.182 96.8906 268.484 96.0156C266.786 95.1406 265.453 93.875 264.484 92.2188C263.516 90.5521 263.031 88.5312 263.031 86.1562V85.1094C263.031 82.9219 263.474 80.9896 264.359 79.3125C265.255 77.625 266.526 76.3073 268.172 75.3594C269.828 74.401 271.792 73.9219 274.062 73.9219C275.646 73.9219 277.151 74.1354 278.578 74.5625C280.016 74.9792 281.349 75.6979 282.578 76.7188V82.5781H278.594L278.047 79.2188C277.693 78.9792 277.318 78.7708 276.922 78.5938C276.536 78.4167 276.12 78.2812 275.672 78.1875C275.234 78.0938 274.76 78.0469 274.25 78.0469C273.094 78.0469 272.083 78.3229 271.219 78.875C270.354 79.4271 269.682 80.2292 269.203 81.2812C268.734 82.3229 268.5 83.5885 268.5 85.0781V86.1562C268.5 87.5521 268.745 88.7812 269.234 89.8438C269.724 90.8958 270.406 91.7188 271.281 92.3125C272.167 92.9062 273.188 93.2031 274.344 93.2031C274.958 93.2031 275.583 93.1406 276.219 93.0156C276.854 92.8802 277.469 92.7031 278.062 92.4844L278.609 89.2656H282.609V95C281.703 95.625 280.547 96.1719 279.141 96.6406C277.734 97.099 276.115 97.3281 274.281 97.3281ZM288.594 97V93.7969L290.969 93.2969V78.5H287.453L287.312 80.9531H283.172V74.25H304.312V80.9531H300.125L300 78.5H296.453V93.2969L298.828 93.7969V97H288.594Z" fill="black" fill-opacity="0.3"/>
<path d="M182.641 438V434.797L185 434.297V418.969L182.641 418.469V415.234H193.828C195.63 415.234 197.193 415.521 198.516 416.094C199.839 416.667 200.859 417.484 201.578 418.547C202.297 419.599 202.656 420.849 202.656 422.297C202.656 423.63 202.292 424.87 201.562 426.016C200.844 427.161 199.854 428.083 198.594 428.781C197.333 429.469 195.896 429.807 194.281 429.797L190.484 429.75V434.297L192.844 434.797V438H182.641ZM197.047 438L193.984 429.125L198.75 427.5L201.516 434.266L203.672 434.812V438H197.047ZM190.484 425.547H193.891C194.953 425.547 195.771 425.302 196.344 424.812C196.917 424.312 197.203 423.594 197.203 422.656C197.203 421.688 196.911 420.911 196.328 420.328C195.745 419.734 194.911 419.438 193.828 419.438H190.484V425.547ZM216.562 438.328C214.604 438.328 212.896 438.016 211.438 437.391C209.99 436.755 208.87 435.828 208.078 434.609C207.286 433.391 206.891 431.901 206.891 430.141V418.969L204.547 418.469V415.25H214.734V418.469L212.375 418.969V430.141C212.375 431.057 212.536 431.818 212.859 432.422C213.182 433.016 213.651 433.458 214.266 433.75C214.891 434.042 215.646 434.188 216.531 434.188C217.448 434.188 218.214 434.042 218.828 433.75C219.453 433.458 219.922 433.016 220.234 432.422C220.557 431.818 220.719 431.057 220.719 430.141V418.969L218.375 418.469V415.25H228.562V418.469L226.203 418.969V430.141C226.203 431.87 225.797 433.349 224.984 434.578C224.172 435.797 223.042 436.729 221.594 437.375C220.156 438.01 218.479 438.328 216.562 438.328ZM229.484 438V434.797L231.844 434.297V418.969L229.484 418.469V415.25H231.844H237.328H240.203V418.469L237.328 418.969V433.797H242.734L242.859 430.625H247.047V438H229.484ZM248.141 438V434.797L250.5 434.297V418.969L248.141 418.469V415.25H266.312V421.812H262.172L262.047 419.469H255.984V424.141H263.25V428.344H255.984V433.766H262.344L262.469 431.312H266.562V438H248.141Z" fill="black" fill-opacity="0.3"/>
</svg>
