<svg width="450" height="512" viewBox="0 0 450 512" fill="none" xmlns="http://www.w3.org/2000/svg">
<g clip-path="url(#clip0_5_591)">
<path d="M212.66 3.35209C220.296 -1.11736 229.704 -1.11737 237.34 3.35209L434.66 118.842C442.296 123.311 447 131.571 447 140.51V371.49C447 380.429 442.296 388.689 434.66 393.158L237.34 508.648C229.704 513.117 220.296 513.117 212.66 508.648L15.3404 393.158C7.70413 388.689 3 380.429 3 371.49V140.51C3 131.571 7.70413 123.311 15.3404 118.842L212.66 3.35209Z" fill="black"/>
<path d="M214.68 6.80426C221.068 3.06525 228.932 3.06525 235.32 6.80426L432.639 122.294C439.034 126.037 443 132.974 443 140.51V371.49C443 379.026 439.034 385.963 432.639 389.706L235.32 505.196C228.932 508.935 221.068 508.935 214.68 505.196L17.3609 389.706C10.9662 385.963 7 379.026 7 371.49V140.51C7 132.974 10.9662 126.037 17.3609 122.294L214.68 6.80426Z" stroke="black" stroke-opacity="0.5" stroke-width="8"/>
<path d="M407 146C407 141.582 410.582 138 415 138C419.418 138 423 141.582 423 146V174.8H407V146Z" fill="black" fill-opacity="0.15"/>
<rect x="407" y="176.8" width="16" height="36.8" fill="white" fill-opacity="0.75"/>
<rect x="407" y="215.6" width="16" height="36.8" fill="white" fill-opacity="0.75"/>
<rect x="407" y="254.4" width="16" height="36.8" fill="white" fill-opacity="0.75"/>
<path d="M407 293.2H423V322C423 326.418 419.418 330 415 330C410.582 330 407 326.418 407 322V293.2Z" fill="white" fill-opacity="0.75"/>
<path d="M28 146C28 141.582 31.5817 138 36 138C40.4183 138 44 141.582 44 146V174.8H28V146Z" fill="black" fill-opacity="0.15"/>
<rect x="28" y="176.8" width="16" height="36.8" fill="black" fill-opacity="0.15"/>
<rect x="28" y="215.6" width="16" height="36.8" fill="white" fill-opacity="0.75"/>
<rect x="28" y="254.4" width="16" height="36.8" fill="white" fill-opacity="0.75"/>
<path d="M28 293.2H44V322C44 326.418 40.4183 330 36 330C31.5817 330 28 326.418 28 322V293.2Z" fill="white" fill-opacity="0.75"/>
<path d="M40.588 363.76L38 362.008V359.992L40.588 358.24C42.716 356.801 44 354.325 44 351.665V349H28V351.665C28 354.325 29.284 356.801 31.412 358.24L34 359.992V362.008L31.412 363.76C29.284 365.199 28 367.675 28 370.335V373H44V370.335C44 367.675 42.716 365.199 40.588 363.76Z" fill="white" fill-opacity="0.75"/>
<path fill-rule="evenodd" clip-rule="evenodd" d="M423.788 358.193L426.539 357.7L427 360.356L424.266 360.845C424.268 360.892 424.274 360.936 424.281 360.981C424.288 361.032 424.295 361.083 424.295 361.135C424.292 362.334 424.062 363.521 423.619 364.631L426.014 366.035L424.686 368.371L422.268 366.953C421.481 367.965 420.498 368.802 419.38 369.412L420.335 372.078L417.84 373L416.899 370.374C415.646 370.641 414.354 370.641 413.101 370.374L412.16 373L409.665 372.078L410.62 369.412C409.502 368.802 408.519 367.965 407.732 366.953L405.314 368.371L403.986 366.035L406.381 364.631C405.938 363.521 405.708 362.334 405.705 361.135C405.705 361.083 405.712 361.032 405.719 360.982C405.726 360.937 405.732 360.892 405.734 360.846L403 360.356L403.461 357.7L406.212 358.193C406.607 356.967 407.247 355.837 408.092 354.874L406.301 352.706L408.335 350.973L410.121 353.134C411.204 352.455 412.413 352.012 413.672 351.833V349H416.328V351.833C417.588 352.012 418.797 352.455 419.879 353.134L421.665 350.972L423.699 352.706L421.908 354.874C422.753 355.837 423.393 356.967 423.788 358.193ZM415.185 363C416.289 363 417.185 362.105 417.185 361C417.185 359.895 416.289 359 415.185 359C414.08 359 413.185 359.895 413.185 361C413.185 362.105 414.08 363 415.185 363Z" fill="white" fill-opacity="0.75"/>
<rect x="82" y="128" width="286" height="4" rx="2" fill="white" fill-opacity="0.3"/>
<rect x="82" y="380" width="286" height="4" rx="2" fill="white" fill-opacity="0.3"/>
<path d="M91.8906 243.215L94.7344 242.805L106.848 208.188H115.023L127.055 242.805L129.898 243.215V248H116.336V243.215L119.098 242.723L117.348 237.254H104.441L102.691 242.723L105.453 243.215V248H91.8906V243.215ZM106.328 231.375H115.461L110.977 217.348H110.812L106.328 231.375ZM133.234 233.453C133.234 228.786 134.246 225.022 136.27 222.16C138.311 219.298 141.164 217.867 144.828 217.867C146.487 217.867 147.945 218.241 149.203 218.988C150.461 219.717 151.536 220.766 152.43 222.133L153.004 218.414H159.949V247.125C159.949 251.026 158.719 254.134 156.258 256.449C153.815 258.783 150.452 259.949 146.168 259.949C144.673 259.949 143.087 259.74 141.41 259.32C139.733 258.919 138.184 258.363 136.762 257.652L138.238 252.047C139.514 252.594 140.79 253.022 142.066 253.332C143.342 253.66 144.691 253.824 146.113 253.824C148.064 253.824 149.522 253.232 150.488 252.047C151.454 250.862 151.938 249.212 151.938 247.098V245.156C151.062 246.268 150.033 247.116 148.848 247.699C147.663 248.283 146.305 248.574 144.773 248.574C141.146 248.574 138.311 247.243 136.27 244.582C134.246 241.902 133.234 238.384 133.234 234.027V233.453ZM141.219 234.027C141.219 236.616 141.656 238.658 142.531 240.152C143.406 241.629 144.828 242.367 146.797 242.367C148.018 242.367 149.048 242.148 149.887 241.711C150.743 241.255 151.427 240.599 151.938 239.742V226.891C151.427 225.997 150.743 225.305 149.887 224.812C149.048 224.32 148.036 224.074 146.852 224.074C144.901 224.074 143.47 224.94 142.559 226.672C141.665 228.404 141.219 230.664 141.219 233.453V234.027ZM165.227 233.453C165.227 228.786 166.238 225.022 168.262 222.16C170.303 219.298 173.156 217.867 176.82 217.867C178.479 217.867 179.938 218.241 181.195 218.988C182.453 219.717 183.529 220.766 184.422 222.133L184.996 218.414H191.941V247.125C191.941 251.026 190.711 254.134 188.25 256.449C185.807 258.783 182.444 259.949 178.16 259.949C176.665 259.949 175.079 259.74 173.402 259.32C171.725 258.919 170.176 258.363 168.754 257.652L170.23 252.047C171.507 252.594 172.783 253.022 174.059 253.332C175.335 253.66 176.684 253.824 178.105 253.824C180.056 253.824 181.514 253.232 182.48 252.047C183.447 250.862 183.93 249.212 183.93 247.098V245.156C183.055 246.268 182.025 247.116 180.84 247.699C179.655 248.283 178.297 248.574 176.766 248.574C173.138 248.574 170.303 247.243 168.262 244.582C166.238 241.902 165.227 238.384 165.227 234.027V233.453ZM173.211 234.027C173.211 236.616 173.648 238.658 174.523 240.152C175.398 241.629 176.82 242.367 178.789 242.367C180.01 242.367 181.04 242.148 181.879 241.711C182.736 241.255 183.419 240.599 183.93 239.742V226.891C183.419 225.997 182.736 225.305 181.879 224.812C181.04 224.32 180.029 224.074 178.844 224.074C176.893 224.074 175.462 224.94 174.551 226.672C173.658 228.404 173.211 230.664 173.211 233.453V234.027ZM197.328 243.215L201.156 242.395V224.047L196.918 223.227V218.414H208.594L208.949 222.734C209.642 221.203 210.535 220.009 211.629 219.152C212.723 218.296 213.99 217.867 215.43 217.867C215.849 217.867 216.286 217.904 216.742 217.977C217.216 218.031 217.608 218.104 217.918 218.195L217.07 225.469L213.789 225.387C212.622 225.387 211.656 225.615 210.891 226.07C210.125 226.526 209.542 227.173 209.141 228.012V242.395L212.969 243.215V248H197.328V243.215ZM233.914 248.574C229.648 248.574 226.24 247.207 223.688 244.473C221.135 241.738 219.859 238.266 219.859 234.055V232.961C219.859 228.568 221.062 224.949 223.469 222.105C225.893 219.262 229.138 217.849 233.203 217.867C237.195 217.867 240.294 219.07 242.5 221.477C244.706 223.883 245.809 227.137 245.809 231.238V235.586H228.145L228.09 235.75C228.236 237.701 228.883 239.305 230.031 240.562C231.198 241.82 232.775 242.449 234.762 242.449C236.53 242.449 237.997 242.276 239.164 241.93C240.331 241.565 241.607 241 242.992 240.234L245.152 245.156C243.931 246.122 242.345 246.934 240.395 247.59C238.462 248.246 236.302 248.574 233.914 248.574ZM233.203 224.02C231.727 224.02 230.56 224.585 229.703 225.715C228.846 226.845 228.318 228.331 228.117 230.172L228.199 230.309H237.988V229.598C237.988 227.902 237.587 226.553 236.785 225.551C236.001 224.53 234.807 224.02 233.203 224.02ZM250.102 233.453C250.102 228.786 251.113 225.022 253.137 222.16C255.178 219.298 258.031 217.867 261.695 217.867C263.354 217.867 264.812 218.241 266.07 218.988C267.328 219.717 268.404 220.766 269.297 222.133L269.871 218.414H276.816V247.125C276.816 251.026 275.586 254.134 273.125 256.449C270.682 258.783 267.319 259.949 263.035 259.949C261.54 259.949 259.954 259.74 258.277 259.32C256.6 258.919 255.051 258.363 253.629 257.652L255.105 252.047C256.382 252.594 257.658 253.022 258.934 253.332C260.21 253.66 261.559 253.824 262.98 253.824C264.931 253.824 266.389 253.232 267.355 252.047C268.322 250.862 268.805 249.212 268.805 247.098V245.156C267.93 246.268 266.9 247.116 265.715 247.699C264.53 248.283 263.172 248.574 261.641 248.574C258.013 248.574 255.178 247.243 253.137 244.582C251.113 241.902 250.102 238.384 250.102 234.027V233.453ZM258.086 234.027C258.086 236.616 258.523 238.658 259.398 240.152C260.273 241.629 261.695 242.367 263.664 242.367C264.885 242.367 265.915 242.148 266.754 241.711C267.611 241.255 268.294 240.599 268.805 239.742V226.891C268.294 225.997 267.611 225.305 266.754 224.812C265.915 224.32 264.904 224.074 263.719 224.074C261.768 224.074 260.337 224.94 259.426 226.672C258.533 228.404 258.086 230.664 258.086 233.453V234.027ZM300.441 248C300.223 247.508 300.031 247.007 299.867 246.496C299.703 245.967 299.576 245.439 299.484 244.91C298.536 246.004 297.379 246.888 296.012 247.562C294.663 248.237 293.113 248.574 291.363 248.574C288.465 248.574 286.159 247.79 284.445 246.223C282.75 244.637 281.902 242.486 281.902 239.77C281.902 236.999 283.014 234.857 285.238 233.344C287.462 231.831 290.725 231.074 295.027 231.074H299.102V228.176C299.102 226.754 298.691 225.651 297.871 224.867C297.051 224.083 295.839 223.691 294.234 223.691C293.323 223.691 292.512 223.801 291.801 224.02C291.09 224.22 290.516 224.466 290.078 224.758L289.559 227.93H283.543L283.57 221.367C285.029 220.383 286.697 219.553 288.574 218.879C290.47 218.204 292.53 217.867 294.754 217.867C298.418 217.867 301.389 218.77 303.668 220.574C305.965 222.361 307.113 224.913 307.113 228.23V240.453C307.113 240.909 307.113 241.337 307.113 241.738C307.132 242.139 307.168 242.522 307.223 242.887L309.656 243.215V248H300.441ZM293.523 242.668C294.727 242.668 295.82 242.413 296.805 241.902C297.789 241.374 298.555 240.717 299.102 239.934V235.422H295.027C293.332 235.422 292.047 235.823 291.172 236.625C290.297 237.409 289.859 238.357 289.859 239.469C289.859 240.471 290.178 241.255 290.816 241.82C291.473 242.385 292.375 242.668 293.523 242.668ZM321.988 211.168V218.414H327.184V224.02H321.988V239.086C321.988 240.234 322.225 241.055 322.699 241.547C323.173 242.039 323.811 242.285 324.613 242.285C325.16 242.285 325.634 242.267 326.035 242.23C326.454 242.176 326.919 242.094 327.43 241.984L328.113 247.754C327.22 248.027 326.336 248.228 325.461 248.355C324.586 248.501 323.638 248.574 322.617 248.574C319.865 248.574 317.741 247.818 316.246 246.305C314.77 244.792 314.031 242.395 314.031 239.113V224.02H309.684V218.414H314.031V211.168H321.988ZM345.258 248.574C340.992 248.574 337.583 247.207 335.031 244.473C332.479 241.738 331.203 238.266 331.203 234.055V232.961C331.203 228.568 332.406 224.949 334.812 222.105C337.237 219.262 340.482 217.849 344.547 217.867C348.539 217.867 351.638 219.07 353.844 221.477C356.049 223.883 357.152 227.137 357.152 231.238V235.586H339.488L339.434 235.75C339.579 237.701 340.227 239.305 341.375 240.562C342.542 241.82 344.118 242.449 346.105 242.449C347.874 242.449 349.341 242.276 350.508 241.93C351.674 241.565 352.951 241 354.336 240.234L356.496 245.156C355.275 246.122 353.689 246.934 351.738 247.59C349.806 248.246 347.646 248.574 345.258 248.574ZM344.547 224.02C343.07 224.02 341.904 224.585 341.047 225.715C340.19 226.845 339.661 228.331 339.461 230.172L339.543 230.309H349.332V229.598C349.332 227.902 348.931 226.553 348.129 225.551C347.345 224.53 346.151 224.02 344.547 224.02ZM162.273 277.613H156.34L155.52 272.309C154.736 271.525 153.742 270.905 152.539 270.449C151.354 269.993 149.951 269.766 148.328 269.766C144.865 269.766 142.194 271.023 140.316 273.539C138.457 276.055 137.527 279.336 137.527 283.383V284.777C137.527 288.824 138.457 292.115 140.316 294.648C142.176 297.182 144.801 298.449 148.191 298.449C149.759 298.449 151.19 298.221 152.484 297.766C153.797 297.31 154.809 296.69 155.52 295.906L156.34 290.602H162.273V298.477C160.669 300.336 158.618 301.822 156.121 302.934C153.642 304.027 150.862 304.574 147.781 304.574C142.44 304.574 138.065 302.724 134.656 299.023C131.247 295.323 129.543 290.574 129.543 284.777V283.438C129.543 277.659 131.238 272.91 134.629 269.191C138.02 265.473 142.404 263.613 147.781 263.613C150.862 263.613 153.642 264.178 156.121 265.309C158.6 266.421 160.651 267.897 162.273 269.738V277.613ZM184.996 304C184.777 303.508 184.586 303.007 184.422 302.496C184.258 301.967 184.13 301.439 184.039 300.91C183.091 302.004 181.934 302.888 180.566 303.562C179.217 304.237 177.668 304.574 175.918 304.574C173.02 304.574 170.714 303.79 169 302.223C167.305 300.637 166.457 298.486 166.457 295.77C166.457 292.999 167.569 290.857 169.793 289.344C172.017 287.831 175.28 287.074 179.582 287.074H183.656V284.176C183.656 282.754 183.246 281.651 182.426 280.867C181.605 280.083 180.393 279.691 178.789 279.691C177.878 279.691 177.066 279.801 176.355 280.02C175.645 280.22 175.07 280.466 174.633 280.758L174.113 283.93H168.098L168.125 277.367C169.583 276.383 171.251 275.553 173.129 274.879C175.025 274.204 177.085 273.867 179.309 273.867C182.973 273.867 185.944 274.77 188.223 276.574C190.52 278.361 191.668 280.913 191.668 284.23V296.453C191.668 296.909 191.668 297.337 191.668 297.738C191.686 298.139 191.723 298.522 191.777 298.887L194.211 299.215V304H184.996ZM178.078 298.668C179.281 298.668 180.375 298.413 181.359 297.902C182.344 297.374 183.109 296.717 183.656 295.934V291.422H179.582C177.887 291.422 176.602 291.823 175.727 292.625C174.852 293.409 174.414 294.357 174.414 295.469C174.414 296.471 174.733 297.255 175.371 297.82C176.027 298.385 176.93 298.668 178.078 298.668ZM196.508 299.215L200.336 298.395V280.047L196.098 279.227V274.414H207.773L208.129 278.652C209.113 277.139 210.326 275.964 211.766 275.125C213.206 274.286 214.819 273.867 216.605 273.867C219.595 273.867 221.928 274.806 223.605 276.684C225.283 278.561 226.121 281.505 226.121 285.516V298.395L229.949 299.215V304H214.691V299.215L218.109 298.395V285.543C218.109 283.556 217.708 282.152 216.906 281.332C216.104 280.493 214.892 280.074 213.27 280.074C212.212 280.074 211.264 280.293 210.426 280.73C209.587 281.15 208.885 281.751 208.32 282.535V298.395L211.547 299.215V304H196.508V299.215ZM245.043 279.227L242.254 279.746L246.164 292.98L246.684 295.77H246.848L247.422 292.98L251.277 279.773L248.434 279.227V274.414H261.859V279.227L259.289 279.637L250.566 304H242.938L234.188 279.637L231.617 279.227V274.414H245.043V279.227ZM282.832 304C282.613 303.508 282.422 303.007 282.258 302.496C282.094 301.967 281.966 301.439 281.875 300.91C280.927 302.004 279.77 302.888 278.402 303.562C277.053 304.237 275.504 304.574 273.754 304.574C270.855 304.574 268.549 303.79 266.836 302.223C265.141 300.637 264.293 298.486 264.293 295.77C264.293 292.999 265.405 290.857 267.629 289.344C269.853 287.831 273.116 287.074 277.418 287.074H281.492V284.176C281.492 282.754 281.082 281.651 280.262 280.867C279.441 280.083 278.229 279.691 276.625 279.691C275.714 279.691 274.902 279.801 274.191 280.02C273.48 280.22 272.906 280.466 272.469 280.758L271.949 283.93H265.934L265.961 277.367C267.419 276.383 269.087 275.553 270.965 274.879C272.861 274.204 274.921 273.867 277.145 273.867C280.809 273.867 283.78 274.77 286.059 276.574C288.355 278.361 289.504 280.913 289.504 284.23V296.453C289.504 296.909 289.504 297.337 289.504 297.738C289.522 298.139 289.559 298.522 289.613 298.887L292.047 299.215V304H282.832ZM275.914 298.668C277.117 298.668 278.211 298.413 279.195 297.902C280.18 297.374 280.945 296.717 281.492 295.934V291.422H277.418C275.723 291.422 274.438 291.823 273.562 292.625C272.688 293.409 272.25 294.357 272.25 295.469C272.25 296.471 272.569 297.255 273.207 297.82C273.863 298.385 274.766 298.668 275.914 298.668ZM318.926 284.586H313.566L312.719 280.895C312.172 280.457 311.479 280.092 310.641 279.801C309.82 279.509 308.909 279.363 307.906 279.363C306.503 279.363 305.391 279.682 304.57 280.32C303.75 280.94 303.34 281.724 303.34 282.672C303.34 283.565 303.732 284.312 304.516 284.914C305.299 285.497 306.867 286.017 309.219 286.473C312.883 287.202 315.599 288.277 317.367 289.699C319.135 291.103 320.02 293.044 320.02 295.523C320.02 298.185 318.871 300.363 316.574 302.059C314.296 303.736 311.288 304.574 307.551 304.574C305.272 304.574 303.176 304.246 301.262 303.59C299.366 302.915 297.68 301.958 296.203 300.719L296.121 294.074H301.699L302.793 297.93C303.267 298.331 303.914 298.632 304.734 298.832C305.555 299.014 306.411 299.105 307.305 299.105C308.927 299.105 310.158 298.814 310.996 298.23C311.853 297.647 312.281 296.854 312.281 295.852C312.281 294.977 311.853 294.22 310.996 293.582C310.139 292.944 308.562 292.379 306.266 291.887C302.784 291.176 300.15 290.128 298.363 288.742C296.595 287.339 295.711 285.434 295.711 283.027C295.711 280.548 296.732 278.415 298.773 276.629C300.815 274.824 303.723 273.922 307.496 273.922C309.793 273.922 311.962 274.232 314.004 274.852C316.064 275.471 317.677 276.264 318.844 277.23L318.926 284.586Z" fill="white"/>
<path d="M145.75 97V93.7969L148.094 93.2969V77.9688L145.75 77.4688V74.25H148.094H156.484L161.984 89.2344H162.078L167.422 74.25H178.031V77.4688L175.672 77.9688V93.2969L178.031 93.7969V97H167.844V93.7969L170.297 93.2969V90.3281L170.422 79.625L170.328 79.6094L163.891 97H159.578L153.047 79.8125L152.938 79.8281L153.312 89.5781V93.2969L155.953 93.7969V97H145.75ZM176.266 97V93.7969L177.859 93.5625L184.641 74.25H190.578L197.375 93.5625L198.969 93.7969V97H190.469V93.7969L191.953 93.5156L191.266 91.0469H183.953L183.297 93.5156L184.781 93.7969V97H176.266ZM185.109 87.2031H190.094L187.875 80.3125L187.625 79.5156H187.531L187.266 80.3906L185.109 87.2031ZM210.297 97.3281C208.13 97.3281 206.198 96.8906 204.5 96.0156C202.802 95.1406 201.469 93.875 200.5 92.2188C199.531 90.5521 199.047 88.5312 199.047 86.1562V85.1094C199.047 82.9219 199.49 80.9896 200.375 79.3125C201.271 77.625 202.542 76.3073 204.188 75.3594C205.844 74.401 207.807 73.9219 210.078 73.9219C211.661 73.9219 213.167 74.1354 214.594 74.5625C216.031 74.9792 217.365 75.6979 218.594 76.7188V82.5781H214.609L214.062 79.2188C213.708 78.9792 213.333 78.7708 212.938 78.5938C212.552 78.4167 212.135 78.2812 211.688 78.1875C211.25 78.0938 210.776 78.0469 210.266 78.0469C209.109 78.0469 208.099 78.3229 207.234 78.875C206.37 79.4271 205.698 80.2292 205.219 81.2812C204.75 82.3229 204.516 83.5885 204.516 85.0781V86.1562C204.516 87.5521 204.76 88.7812 205.25 89.8438C205.74 90.8958 206.422 91.7188 207.297 92.3125C208.182 92.9062 209.203 93.2031 210.359 93.2031C210.974 93.2031 211.599 93.1406 212.234 93.0156C212.87 92.8802 213.484 92.7031 214.078 92.4844L214.625 89.2656H218.625V95C217.719 95.625 216.562 96.1719 215.156 96.6406C213.75 97.099 212.13 97.3281 210.297 97.3281ZM220.062 97V93.7969L222.422 93.2969V77.9688L220.062 77.4688V74.25H230.266V77.4688L227.906 77.9688V83.7188H236.188V77.9688L233.828 77.4688V74.25H236.188H241.656H244.016V77.4688L241.656 77.9688V93.2969L244.016 93.7969V97H233.828V93.7969L236.188 93.2969V87.9219H227.906V93.2969L230.266 93.7969V97H220.062ZM245.281 97V93.7969L247.641 93.2969V77.9688L245.281 77.4688V74.25H255.469V77.4688L253.109 77.9688V93.2969L255.469 93.7969V97H245.281ZM256.703 97V93.7969L259.047 93.2969V77.9688L256.703 77.4688V74.25H259.047H264.625L273.75 88.8125H273.844V77.9688L270.859 77.4688V74.25H278.703H281.062V77.4688L278.703 77.9688V97H273.297L264 82.75H263.906V93.2969L266.906 93.7969V97H256.703ZM281.906 97V93.7969L284.266 93.2969V77.9688L281.906 77.4688V74.25H300.078V80.8125H295.938L295.812 78.4688H289.75V83.1406H297.016V87.3438H289.75V92.7656H296.109L296.234 90.3125H300.328V97H281.906Z" fill="white" fill-opacity="0.5"/>
</g>
<defs>
<clipPath id="clip0_5_591">
<rect width="450" height="512" fill="white"/>
</clipPath>
</defs>
</svg>
