<svg width="450" height="512" viewBox="0 0 450 512" fill="none" xmlns="http://www.w3.org/2000/svg">
<path d="M212.66 3.35209C220.296 -1.11736 229.704 -1.11737 237.34 3.35209L434.66 118.842C442.296 123.311 447 131.571 447 140.51V371.49C447 380.429 442.296 388.689 434.66 393.158L237.34 508.648C229.704 513.117 220.296 513.117 212.66 508.648L15.3404 393.158C7.70413 388.689 3 380.429 3 371.49V140.51C3 131.571 7.70413 123.311 15.3404 118.842L212.66 3.35209Z" fill="white"/>
<path d="M214.68 6.80426C221.068 3.06525 228.932 3.06525 235.32 6.80426L432.639 122.294C439.034 126.037 443 132.974 443 140.51V371.49C443 379.026 439.034 385.963 432.639 389.706L235.32 505.196C228.932 508.935 221.068 508.935 214.68 505.196L17.3609 389.706C10.9662 385.963 7 379.026 7 371.49V140.51C7 132.974 10.9662 126.037 17.3609 122.294L214.68 6.80426Z" stroke="black" stroke-opacity="0.5" stroke-width="8"/>
<rect x="82" y="128" width="286" height="4" rx="2" fill="black" fill-opacity="0.3"/>
<rect x="82" y="380" width="286" height="4" rx="2" fill="black" fill-opacity="0.3"/>
<path d="M107.887 271.215L110.73 270.805L122.844 236.188H131.02L143.051 270.805L145.895 271.215V276H132.332V271.215L135.094 270.723L133.344 265.254H120.438L118.688 270.723L121.449 271.215V276H107.887V271.215ZM122.324 259.375H131.457L126.973 245.348H126.809L122.324 259.375ZM149.23 261.453C149.23 256.786 150.242 253.022 152.266 250.16C154.307 247.298 157.16 245.867 160.824 245.867C162.483 245.867 163.941 246.241 165.199 246.988C166.457 247.717 167.533 248.766 168.426 250.133L169 246.414H175.945V275.125C175.945 279.026 174.715 282.134 172.254 284.449C169.811 286.783 166.448 287.949 162.164 287.949C160.669 287.949 159.083 287.74 157.406 287.32C155.729 286.919 154.18 286.363 152.758 285.652L154.234 280.047C155.51 280.594 156.786 281.022 158.062 281.332C159.339 281.66 160.688 281.824 162.109 281.824C164.06 281.824 165.518 281.232 166.484 280.047C167.451 278.862 167.934 277.212 167.934 275.098V273.156C167.059 274.268 166.029 275.116 164.844 275.699C163.659 276.283 162.301 276.574 160.77 276.574C157.142 276.574 154.307 275.243 152.266 272.582C150.242 269.902 149.23 266.384 149.23 262.027V261.453ZM157.215 262.027C157.215 264.616 157.652 266.658 158.527 268.152C159.402 269.629 160.824 270.367 162.793 270.367C164.014 270.367 165.044 270.148 165.883 269.711C166.74 269.255 167.423 268.599 167.934 267.742V254.891C167.423 253.997 166.74 253.305 165.883 252.812C165.044 252.32 164.033 252.074 162.848 252.074C160.897 252.074 159.466 252.94 158.555 254.672C157.661 256.404 157.215 258.664 157.215 261.453V262.027ZM181.332 271.215L185.16 270.395V252.047L180.922 251.227V246.414H192.598L192.953 250.734C193.646 249.203 194.539 248.009 195.633 247.152C196.727 246.296 197.993 245.867 199.434 245.867C199.853 245.867 200.29 245.904 200.746 245.977C201.22 246.031 201.612 246.104 201.922 246.195L201.074 253.469L197.793 253.387C196.626 253.387 195.66 253.615 194.895 254.07C194.129 254.526 193.546 255.173 193.145 256.012V270.395L196.973 271.215V276H181.332V271.215ZM217.918 276.574C213.652 276.574 210.243 275.207 207.691 272.473C205.139 269.738 203.863 266.266 203.863 262.055V260.961C203.863 256.568 205.066 252.949 207.473 250.105C209.897 247.262 213.142 245.849 217.207 245.867C221.199 245.867 224.298 247.07 226.504 249.477C228.71 251.883 229.812 255.137 229.812 259.238V263.586H212.148L212.094 263.75C212.24 265.701 212.887 267.305 214.035 268.562C215.202 269.82 216.779 270.449 218.766 270.449C220.534 270.449 222.001 270.276 223.168 269.93C224.335 269.565 225.611 269 226.996 268.234L229.156 273.156C227.935 274.122 226.349 274.934 224.398 275.59C222.466 276.246 220.306 276.574 217.918 276.574ZM217.207 252.02C215.73 252.02 214.564 252.585 213.707 253.715C212.85 254.845 212.322 256.331 212.121 258.172L212.203 258.309H221.992V257.598C221.992 255.902 221.591 254.553 220.789 253.551C220.005 252.53 218.811 252.02 217.207 252.02ZM234.105 261.453C234.105 256.786 235.117 253.022 237.141 250.16C239.182 247.298 242.035 245.867 245.699 245.867C247.358 245.867 248.816 246.241 250.074 246.988C251.332 247.717 252.408 248.766 253.301 250.133L253.875 246.414H260.82V275.125C260.82 279.026 259.59 282.134 257.129 284.449C254.686 286.783 251.323 287.949 247.039 287.949C245.544 287.949 243.958 287.74 242.281 287.32C240.604 286.919 239.055 286.363 237.633 285.652L239.109 280.047C240.385 280.594 241.661 281.022 242.938 281.332C244.214 281.66 245.562 281.824 246.984 281.824C248.935 281.824 250.393 281.232 251.359 280.047C252.326 278.862 252.809 277.212 252.809 275.098V273.156C251.934 274.268 250.904 275.116 249.719 275.699C248.534 276.283 247.176 276.574 245.645 276.574C242.017 276.574 239.182 275.243 237.141 272.582C235.117 269.902 234.105 266.384 234.105 262.027V261.453ZM242.09 262.027C242.09 264.616 242.527 266.658 243.402 268.152C244.277 269.629 245.699 270.367 247.668 270.367C248.889 270.367 249.919 270.148 250.758 269.711C251.615 269.255 252.298 268.599 252.809 267.742V254.891C252.298 253.997 251.615 253.305 250.758 252.812C249.919 252.32 248.908 252.074 247.723 252.074C245.772 252.074 244.341 252.94 243.43 254.672C242.536 256.404 242.09 258.664 242.09 261.453V262.027ZM284.445 276C284.227 275.508 284.035 275.007 283.871 274.496C283.707 273.967 283.579 273.439 283.488 272.91C282.54 274.004 281.383 274.888 280.016 275.562C278.667 276.237 277.117 276.574 275.367 276.574C272.469 276.574 270.163 275.79 268.449 274.223C266.754 272.637 265.906 270.486 265.906 267.77C265.906 264.999 267.018 262.857 269.242 261.344C271.466 259.831 274.729 259.074 279.031 259.074H283.105V256.176C283.105 254.754 282.695 253.651 281.875 252.867C281.055 252.083 279.842 251.691 278.238 251.691C277.327 251.691 276.516 251.801 275.805 252.02C275.094 252.22 274.52 252.466 274.082 252.758L273.562 255.93H267.547L267.574 249.367C269.033 248.383 270.701 247.553 272.578 246.879C274.474 246.204 276.534 245.867 278.758 245.867C282.422 245.867 285.393 246.77 287.672 248.574C289.969 250.361 291.117 252.913 291.117 256.23V268.453C291.117 268.909 291.117 269.337 291.117 269.738C291.135 270.139 291.172 270.522 291.227 270.887L293.66 271.215V276H284.445ZM277.527 270.668C278.73 270.668 279.824 270.413 280.809 269.902C281.793 269.374 282.559 268.717 283.105 267.934V263.422H279.031C277.336 263.422 276.051 263.823 275.176 264.625C274.301 265.409 273.863 266.357 273.863 267.469C273.863 268.471 274.182 269.255 274.82 269.82C275.477 270.385 276.379 270.668 277.527 270.668ZM305.992 239.168V246.414H311.188V252.02H305.992V267.086C305.992 268.234 306.229 269.055 306.703 269.547C307.177 270.039 307.815 270.285 308.617 270.285C309.164 270.285 309.638 270.267 310.039 270.23C310.458 270.176 310.923 270.094 311.434 269.984L312.117 275.754C311.224 276.027 310.34 276.228 309.465 276.355C308.59 276.501 307.642 276.574 306.621 276.574C303.868 276.574 301.745 275.818 300.25 274.305C298.773 272.792 298.035 270.395 298.035 267.113V252.02H293.688V246.414H298.035V239.168H305.992ZM329.262 276.574C324.996 276.574 321.587 275.207 319.035 272.473C316.483 269.738 315.207 266.266 315.207 262.055V260.961C315.207 256.568 316.41 252.949 318.816 250.105C321.241 247.262 324.486 245.849 328.551 245.867C332.543 245.867 335.642 247.07 337.848 249.477C340.053 251.883 341.156 255.137 341.156 259.238V263.586H323.492L323.438 263.75C323.583 265.701 324.23 267.305 325.379 268.562C326.546 269.82 328.122 270.449 330.109 270.449C331.878 270.449 333.345 270.276 334.512 269.93C335.678 269.565 336.954 269 338.34 268.234L340.5 273.156C339.279 274.122 337.693 274.934 335.742 275.59C333.81 276.246 331.65 276.574 329.262 276.574ZM328.551 252.02C327.074 252.02 325.908 252.585 325.051 253.715C324.194 254.845 323.665 256.331 323.465 258.172L323.547 258.309H333.336V257.598C333.336 255.902 332.935 254.553 332.133 253.551C331.349 252.53 330.155 252.02 328.551 252.02Z" fill="black"/>
<path d="M145.844 97V93.7969L147.438 93.5625L154.219 74.25H160.156L166.953 93.5625L168.547 93.7969V97H160.047V93.7969L161.531 93.5156L160.844 91.0469H153.531L152.875 93.5156L154.359 93.7969V97H145.844ZM154.688 87.2031H159.672L157.453 80.3125L157.203 79.5156H157.109L156.844 80.3906L154.688 87.2031ZM169.547 97V93.7969L171.906 93.2969V77.9688L169.547 77.4688V74.2344H180.734C182.536 74.2344 184.099 74.5208 185.422 75.0938C186.745 75.6667 187.766 76.4844 188.484 77.5469C189.203 78.599 189.562 79.849 189.562 81.2969C189.562 82.6302 189.198 83.8698 188.469 85.0156C187.75 86.1615 186.76 87.0833 185.5 87.7812C184.24 88.4688 182.802 88.8073 181.188 88.7969L177.391 88.75V93.2969L179.75 93.7969V97H169.547ZM183.953 97L180.891 88.125L185.656 86.5L188.422 93.2656L190.578 93.8125V97H183.953ZM177.391 84.5469H180.797C181.859 84.5469 182.677 84.3021 183.25 83.8125C183.823 83.3125 184.109 82.5938 184.109 81.6562C184.109 80.6875 183.818 79.9115 183.234 79.3281C182.651 78.7344 181.818 78.4375 180.734 78.4375H177.391V84.5469ZM196.312 97V93.7969L198.688 93.2969V78.5H195.172L195.031 80.9531H190.891V74.25H212.031V80.9531H207.844L207.719 78.5H204.172V93.2969L206.547 93.7969V97H196.312ZM212.859 97V93.7969L215.219 93.2969V77.9688L212.859 77.4688V74.25H223.047V77.4688L220.688 77.9688V93.2969L223.047 93.7969V97H212.859ZM224.297 97V93.7969L226.656 93.2969V77.9688L224.297 77.4688V74.25H243.031V80.9531H238.891L238.781 78.4688H232.141V83.7344H239.875V87.9219H232.141V93.2969L234.5 93.7969V97H224.297ZM240.25 97V93.7969L241.844 93.5625L248.625 74.25H254.562L261.359 93.5625L262.953 93.7969V97H254.453V93.7969L255.938 93.5156L255.25 91.0469H247.938L247.281 93.5156L248.766 93.7969V97H240.25ZM249.094 87.2031H254.078L251.859 80.3125L251.609 79.5156H251.516L251.25 80.3906L249.094 87.2031ZM274.281 97.3281C272.115 97.3281 270.182 96.8906 268.484 96.0156C266.786 95.1406 265.453 93.875 264.484 92.2188C263.516 90.5521 263.031 88.5312 263.031 86.1562V85.1094C263.031 82.9219 263.474 80.9896 264.359 79.3125C265.255 77.625 266.526 76.3073 268.172 75.3594C269.828 74.401 271.792 73.9219 274.062 73.9219C275.646 73.9219 277.151 74.1354 278.578 74.5625C280.016 74.9792 281.349 75.6979 282.578 76.7188V82.5781H278.594L278.047 79.2188C277.693 78.9792 277.318 78.7708 276.922 78.5938C276.536 78.4167 276.12 78.2812 275.672 78.1875C275.234 78.0938 274.76 78.0469 274.25 78.0469C273.094 78.0469 272.083 78.3229 271.219 78.875C270.354 79.4271 269.682 80.2292 269.203 81.2812C268.734 82.3229 268.5 83.5885 268.5 85.0781V86.1562C268.5 87.5521 268.745 88.7812 269.234 89.8438C269.724 90.8958 270.406 91.7188 271.281 92.3125C272.167 92.9062 273.188 93.2031 274.344 93.2031C274.958 93.2031 275.583 93.1406 276.219 93.0156C276.854 92.8802 277.469 92.7031 278.062 92.4844L278.609 89.2656H282.609V95C281.703 95.625 280.547 96.1719 279.141 96.6406C277.734 97.099 276.115 97.3281 274.281 97.3281ZM288.594 97V93.7969L290.969 93.2969V78.5H287.453L287.312 80.9531H283.172V74.25H304.312V80.9531H300.125L300 78.5H296.453V93.2969L298.828 93.7969V97H288.594Z" fill="black" fill-opacity="0.3"/>
<path d="M187.969 438V434.797L190.312 434.297V418.969L187.969 418.469V415.25H190.312H198.703L204.203 430.234H204.297L209.641 415.25H220.25V418.469L217.891 418.969V434.297L220.25 434.797V438H210.062V434.797L212.516 434.297V431.328L212.641 420.625L212.547 420.609L206.109 438H201.797L195.266 420.812L195.156 420.828L195.531 430.578V434.297L198.172 434.797V438H187.969ZM218.484 438V434.797L220.078 434.562L226.859 415.25H232.797L239.594 434.562L241.188 434.797V438H232.688V434.797L234.172 434.516L233.484 432.047H226.172L225.516 434.516L227 434.797V438H218.484ZM227.328 428.203H232.312L230.094 421.312L229.844 420.516H229.75L229.484 421.391L227.328 428.203ZM242.188 438V434.797L244.547 434.297V418.969L242.188 418.469V415.25H244.547H253.25C255.062 415.25 256.635 415.568 257.969 416.203C259.302 416.839 260.328 417.724 261.047 418.859C261.776 419.984 262.141 421.297 262.141 422.797C262.141 424.297 261.776 425.609 261.047 426.734C260.328 427.859 259.302 428.734 257.969 429.359C256.635 429.984 255.062 430.297 253.25 430.297H250.031V434.297L252.391 434.797V438H242.188ZM250.031 426.094H253.25C254.365 426.094 255.208 425.792 255.781 425.188C256.365 424.573 256.656 423.786 256.656 422.828C256.656 421.839 256.365 421.026 255.781 420.391C255.208 419.755 254.365 419.438 253.25 419.438H250.031V426.094Z" fill="black" fill-opacity="0.3"/>
</svg>
