<svg width="163" height="191" viewBox="0 0 163 191" fill="none" xmlns="http://www.w3.org/2000/svg">
<path d="M75.7602 6.52497C79.6508 4.27879 84.4476 4.29317 88.3247 6.56262L154.315 45.1898C158.146 47.4323 160.5 51.5384 160.5 55.9775V134.853C160.5 139.285 158.154 143.385 154.333 145.63L88.343 184.409C84.4566 186.693 79.6417 186.708 75.7417 184.447L8.73174 145.608C4.87452 143.372 2.5 139.251 2.5 134.793V56.0374C2.5 51.5715 4.88256 47.4448 8.75016 45.2119L75.7602 6.52497Z" fill="#C9C675" stroke="#444444" stroke-width="5"/>
<path d="M37.7671 141V139.499L38.5142 139.389L41.6929 130.336H44.4761L47.6621 139.389L48.4092 139.499V141H44.4248V139.499L45.1206 139.367L44.7983 138.209H41.3706L41.063 139.367L41.7588 139.499V141H37.7671ZM41.9126 136.408H44.249L43.209 133.178L43.0918 132.804H43.0479L42.9233 133.214L41.9126 136.408ZM48.8779 141V139.499L49.9839 139.264V132.079L48.8779 131.845V130.329H54.1221C54.9668 130.329 55.6992 130.463 56.3193 130.731C56.9395 131 57.418 131.383 57.7549 131.881C58.0918 132.375 58.2603 132.96 58.2603 133.639C58.2603 134.264 58.0894 134.845 57.7476 135.382C57.4106 135.919 56.9468 136.352 56.356 136.679C55.7651 137.001 55.0913 137.16 54.3345 137.155L52.5547 137.133V139.264L53.6606 139.499V141H48.8779ZM55.6309 141L54.1953 136.84L56.4292 136.078L57.7256 139.25L58.7363 139.506V141H55.6309ZM52.5547 135.163H54.1514C54.6494 135.163 55.0327 135.048 55.3013 134.818C55.5698 134.584 55.7041 134.247 55.7041 133.808C55.7041 133.354 55.5674 132.99 55.2939 132.716C55.0205 132.438 54.6299 132.299 54.1221 132.299H52.5547V135.163ZM64.5298 141.154C63.5142 141.154 62.6084 140.949 61.8125 140.539C61.0166 140.128 60.3916 139.535 59.9375 138.759C59.4834 137.978 59.2563 137.03 59.2563 135.917V135.426C59.2563 134.401 59.4639 133.495 59.8789 132.709C60.2988 131.918 60.8945 131.3 61.666 130.856C62.4424 130.407 63.3628 130.182 64.4272 130.182C65.1694 130.182 65.875 130.282 66.5439 130.482C67.2178 130.678 67.8428 131.015 68.4189 131.493V134.24H66.5513L66.2949 132.665C66.1289 132.553 65.9531 132.455 65.7676 132.372C65.5869 132.289 65.3916 132.226 65.1816 132.182C64.9766 132.138 64.7544 132.116 64.5151 132.116C63.9731 132.116 63.4995 132.245 63.0942 132.504C62.689 132.763 62.374 133.139 62.1494 133.632C61.9297 134.12 61.8198 134.713 61.8198 135.412V135.917C61.8198 136.571 61.9346 137.147 62.1641 137.646C62.3936 138.139 62.7134 138.524 63.1235 138.803C63.5386 139.081 64.0171 139.22 64.5591 139.22C64.8472 139.22 65.1401 139.191 65.438 139.132C65.7358 139.069 66.0239 138.986 66.3022 138.883L66.5586 137.375H68.4336V140.062C68.0088 140.355 67.4668 140.612 66.8076 140.832C66.1484 141.046 65.3892 141.154 64.5298 141.154ZM69.1074 141V139.499L70.2134 139.264V132.079L69.1074 131.845V130.336H73.8901V131.845L72.7842 132.079V134.774H76.666V132.079L75.5601 131.845V130.336H76.666H79.2295H80.3354V131.845L79.2295 132.079V139.264L80.3354 139.499V141H75.5601V139.499L76.666 139.264V136.745H72.7842V139.264L73.8901 139.499V141H69.1074ZM80.9287 141V139.499L82.0347 139.264V132.079L80.9287 131.845V130.336H85.7041V131.845L84.5981 132.079V139.264L85.7041 139.499V141H80.9287ZM88.6411 141V139.499L89.7544 139.264V132.328H88.1064L88.0405 133.478H86.0996V130.336H96.0093V133.478H94.0464L93.9878 132.328H92.3252V139.264L93.4385 139.499V141H88.6411ZM96.3975 141V139.499L97.5034 139.264V132.079L96.3975 131.845V130.336H104.916V133.412H102.975L102.916 132.313H100.074V134.503H103.48V136.474H100.074V139.015H103.055L103.114 137.865H105.033V141H96.3975ZM111.229 141.154C110.213 141.154 109.308 140.949 108.512 140.539C107.716 140.128 107.091 139.535 106.637 138.759C106.183 137.978 105.956 137.03 105.956 135.917V135.426C105.956 134.401 106.163 133.495 106.578 132.709C106.998 131.918 107.594 131.3 108.365 130.856C109.142 130.407 110.062 130.182 111.126 130.182C111.869 130.182 112.574 130.282 113.243 130.482C113.917 130.678 114.542 131.015 115.118 131.493V134.24H113.25L112.994 132.665C112.828 132.553 112.652 132.455 112.467 132.372C112.286 132.289 112.091 132.226 111.881 132.182C111.676 132.138 111.454 132.116 111.214 132.116C110.672 132.116 110.199 132.245 109.793 132.504C109.388 132.763 109.073 133.139 108.849 133.632C108.629 134.12 108.519 134.713 108.519 135.412V135.917C108.519 136.571 108.634 137.147 108.863 137.646C109.093 138.139 109.413 138.524 109.823 138.803C110.238 139.081 110.716 139.22 111.258 139.22C111.546 139.22 111.839 139.191 112.137 139.132C112.435 139.069 112.723 138.986 113.001 138.883L113.258 137.375H115.133V140.062C114.708 140.355 114.166 140.612 113.507 140.832C112.848 141.046 112.088 141.154 111.229 141.154ZM117.938 141V139.499L119.051 139.264V132.328H117.403L117.337 133.478H115.396V130.336H125.306V133.478H123.343L123.285 132.328H121.622V139.264L122.735 139.499V141H117.938Z" fill="#444444"/>
<path d="M81.4972 34C71.3998 34 63.1504 41.5664 63.1504 50.8215C63.1504 54.9681 64.8156 58.7605 67.5525 61.6958C57.1377 66.4026 50 76.2144 50 87.5767V103.332C49.994 104.781 51.2711 105.961 52.8527 105.967H59.5985V115.365C59.5925 116.814 60.8696 117.994 62.4512 118H101.835C103.426 118.006 104.716 116.822 104.71 115.365V105.967H110.147C111.729 105.961 113.006 104.781 113 103.332V87.5767C113 76.2143 105.876 66.3897 95.4642 61.6804C98.192 58.7474 99.8496 54.9603 99.8496 50.8215C99.8496 41.5664 91.5946 34 81.4972 34ZM81.4972 39.25C88.499 39.25 94.1218 44.4037 94.1218 50.8215C94.1218 54.7442 92.0111 58.1717 88.78 60.2551C88.7054 60.2914 88.6326 60.3308 88.5618 60.3731C88.1751 60.6138 87.7641 60.8102 87.3536 61.0088C87.1752 61.0942 87.0057 61.1925 86.8222 61.2704C86.4681 61.4222 86.0987 61.5391 85.7315 61.66C85.3686 61.7776 85.0016 61.8852 84.624 61.9727C84.3223 62.0441 84.0193 62.1166 83.7122 62.1675C82.9916 62.283 82.2556 62.3674 81.4972 62.3674C80.7179 62.3674 79.9654 62.2841 79.2262 62.1624C78.9872 62.1227 78.7517 62.0661 78.5158 62.0137C77.9986 61.8997 77.4953 61.7579 77.0056 61.5881C76.7883 61.5127 76.5693 61.4438 76.3567 61.3575C75.7862 61.1257 75.2393 60.8559 74.7178 60.5525C74.6196 60.495 74.5124 60.4533 74.4158 60.3936C74.4028 60.3866 74.3897 60.3796 74.3766 60.3728C71.0509 58.3015 68.8782 54.8115 68.8782 50.8215C68.8782 44.4037 74.4953 39.25 81.4972 39.25ZM72.6706 65.5308C75.2947 66.8586 78.2997 67.6174 81.4972 67.6174C84.6947 67.6174 87.7053 66.8587 90.3294 65.5308C100.188 68.8327 107.272 77.3275 107.272 87.5767V100.717H104.71V82.5574C104.711 82.4701 104.708 82.3828 104.699 82.2958C104.547 80.9532 103.308 79.9354 101.835 79.9426H62.4512C62.3599 79.9385 62.2684 79.9385 62.1771 79.9426C61.0978 80.0432 60.1731 80.6943 59.7887 81.6242C59.7543 81.7066 59.7244 81.7903 59.6992 81.8754V81.8853C59.6744 81.9664 59.6538 82.0485 59.6376 82.1314C59.6217 82.218 59.6104 82.3053 59.604 82.3929C59.6003 82.4476 59.5984 82.5023 59.5984 82.557V100.717H55.7278V87.5763C55.7278 77.3273 62.8117 68.8329 72.6706 65.5308ZM65.3263 85.1978H98.9826C98.9826 94.3818 98.9826 103.566 98.9826 112.75H65.3263V103.332V85.1978ZM67.6923 100.871C52.9005 56.184 60.2964 78.5274 67.6923 100.871V100.871ZM91.3921 105.424C60.8005 57.7016 76.0963 81.5626 91.3921 105.424V105.424Z" fill="#444444"/>
<path d="M95.3033 97.4339H91.5127V95.6207C92.0814 95.3028 92.5591 94.8195 92.8934 94.2237C93.2277 93.628 93.4058 92.9428 93.408 92.2435V91.2054C93.408 90.4712 93.1418 89.7671 92.6678 89.248C92.1939 88.7288 91.5512 88.4372 90.8809 88.4372C90.7134 88.4372 90.5527 88.5101 90.4342 88.6399C90.3157 88.7697 90.2492 88.9457 90.2492 89.1292V91.8975H89.6174V89.1292C89.6174 88.9457 89.5509 88.7697 89.4324 88.6399C89.3139 88.5101 89.1532 88.4372 88.9857 88.4372C88.3154 88.4372 87.6727 88.7288 87.1988 89.248C86.7248 89.7671 86.4586 90.4712 86.4586 91.2054V92.2435C86.4608 92.9428 86.6388 93.628 86.9732 94.2237C87.3075 94.8195 87.7852 95.3028 88.3539 95.6207V97.4339H83.2998V96.0498H84.5633C84.7309 96.0498 84.8916 95.9769 85.01 95.8471C85.1285 95.7173 85.1951 95.5413 85.1951 95.3577C85.1951 95.1742 85.1285 94.9982 85.01 94.8684C84.8916 94.7386 84.7309 94.6657 84.5633 94.6657V89.1292C84.5633 88.7621 84.4302 88.4101 84.1932 88.1505C83.9563 87.8909 83.6349 87.7451 83.2998 87.7451H82.0363C81.7011 87.7451 81.3798 87.8909 81.1428 88.1505C80.9058 88.4101 80.7727 88.7621 80.7727 89.1292V94.6657C80.6052 94.6657 80.4445 94.7386 80.326 94.8684C80.2075 94.9982 80.141 95.1742 80.141 95.3577C80.141 95.5413 80.2075 95.7173 80.326 95.8471C80.4445 95.9769 80.6052 96.0498 80.7727 96.0498H82.0363V97.4339H76.9821V92.5895H78.2457C78.4132 92.5895 78.5739 92.5166 78.6924 92.3868C78.8109 92.257 78.8774 92.081 78.8774 91.8975V89.1292C78.8774 88.9457 78.8109 88.7697 78.6924 88.6399C78.5739 88.5101 78.4132 88.4372 78.2457 88.4372H72.5598C72.4617 88.4372 72.365 88.4622 72.2773 88.5102C72.1895 88.5583 72.1132 88.628 72.0544 88.714L70.1591 91.4822C70.0948 91.5818 70.0556 91.6983 70.0456 91.8199C70.0356 91.9414 70.0552 92.0637 70.1022 92.1743C70.1502 92.2949 70.2286 92.398 70.3282 92.4715C70.4278 92.5451 70.5444 92.586 70.6645 92.5895H73.8233V97.4339H68.7692C68.6017 97.4339 68.441 97.5068 68.3225 97.6366C68.204 97.7664 68.1375 97.9424 68.1375 98.126V100.894C68.1375 101.078 68.204 101.254 68.3225 101.384C68.441 101.513 68.6017 101.586 68.7692 101.586H70.0327V107.815C70.0327 108.365 70.2324 108.893 70.5879 109.283C70.9433 109.672 71.4254 109.891 71.928 109.891H92.1445C92.6471 109.891 93.1292 109.672 93.4846 109.283C93.8401 108.893 94.0398 108.365 94.0398 107.815V101.586H95.3033C95.4708 101.586 95.6315 101.513 95.75 101.384C95.8685 101.254 95.9351 101.078 95.9351 100.894V98.126C95.9351 97.9424 95.8685 97.7664 95.75 97.6366C95.6315 97.5068 95.4708 97.4339 95.3033 97.4339ZM82.0363 89.1292H83.2998V94.6657H82.0363V89.1292ZM89.1941 94.5134C88.7649 94.3477 88.393 94.0406 88.1295 93.6342C87.8659 93.2278 87.7236 92.742 87.7221 92.2435V91.2054C87.7224 90.9627 87.7808 90.7243 87.8917 90.5141C88.0026 90.304 88.162 90.1295 88.3539 90.0081V91.8975C88.3539 92.2645 88.487 92.6166 88.724 92.8762C88.9609 93.1357 89.2823 93.2816 89.6174 93.2816H90.2492C90.5843 93.2816 90.9057 93.1357 91.1426 92.8762C91.3796 92.6166 91.5127 92.2645 91.5127 91.8975V90.0081C91.7046 90.1295 91.864 90.304 91.9749 90.5141C92.0858 90.7243 92.1442 90.9627 92.1445 91.2054V92.2435C92.143 92.742 92.0007 93.2278 91.7371 93.6342C91.4736 94.0406 91.1017 94.3477 90.6725 94.5134C90.5492 94.5606 90.4423 94.6485 90.3665 94.765C90.2907 94.8815 90.2497 95.0209 90.2492 95.164V97.4339H89.6174V95.164C89.6169 95.0209 89.5759 94.8815 89.5001 94.765C89.4243 94.6485 89.3174 94.5606 89.1941 94.5134ZM72.8757 89.8213H77.6139V91.2054H71.928L72.8757 89.8213ZM75.0869 92.5895H75.7186V97.4339H75.0869V92.5895ZM92.7762 107.815C92.7762 107.998 92.7097 108.174 92.5912 108.304C92.4727 108.434 92.312 108.507 92.1445 108.507H71.928C71.7605 108.507 71.5998 108.434 71.4813 108.304C71.3628 108.174 71.2963 107.998 71.2963 107.815V101.586H92.7762V107.815ZM94.6715 100.202H69.401V98.818H94.6715V100.202Z" fill="#444444"/>
</svg>
