<svg width="163" height="191" viewBox="0 0 163 191" fill="none" xmlns="http://www.w3.org/2000/svg">
<path d="M75.7602 6.52497C79.6508 4.27879 84.4476 4.29317 88.3247 6.56262L154.315 45.1898C158.146 47.4323 160.5 51.5384 160.5 55.9775V134.853C160.5 139.285 158.154 143.385 154.333 145.63L88.343 184.409C84.4566 186.693 79.6417 186.708 75.7417 184.447L8.73174 145.608C4.87452 143.372 2.5 139.251 2.5 134.793V56.0374C2.5 51.5715 4.88256 47.4448 8.75016 45.2119L75.7602 6.52497Z" fill="#D1D844" stroke="#444444" stroke-width="5"/>
<path d="M125.132 113.36L89.194 50.8906C87.4284 47.8281 84.2721 46 80.7252 46C77.1783 46 74.0221 47.8281 72.2564 50.8906L36.3184 113.36C34.5528 116.422 34.5684 120.063 36.3184 123.125C38.084 126.172 41.2403 128 44.7715 128H116.646C120.178 128 123.334 126.172 125.1 123.125C126.865 120.078 126.865 116.422 125.1 113.36H125.132ZM121.741 121.157C120.679 122.985 118.788 124.078 116.663 124.078H44.7883C42.6789 124.078 40.7727 122.985 39.7102 121.157C38.6477 119.328 38.6477 117.141 39.7102 115.297L75.6482 52.8281C76.7107 50.9843 78.6013 49.8906 80.7263 49.8906C82.8513 49.8906 84.7419 50.9844 85.8044 52.8281L121.742 115.297C122.805 117.125 122.788 119.328 121.741 121.157Z" fill="#444444"/>
<path d="M80.9292 97.7193C83.3198 97.7193 85.3042 95.8442 85.4292 93.4536L86.8198 68.5156C86.9135 66.9062 86.3198 65.2968 85.2104 64.125C84.101 62.9532 82.5385 62.2812 80.9135 62.2812C79.2885 62.2812 77.726 62.9531 76.6166 64.125C75.5072 65.297 74.9135 66.9062 75.0072 68.5156L76.3978 93.4536C76.5228 95.8442 78.5072 97.7193 80.8978 97.7193H80.9292ZM79.4761 66.8132C79.8667 66.407 80.3823 66.1882 80.9292 66.1882C81.476 66.1882 82.0073 66.407 82.3823 66.8132C82.7573 67.2195 82.9604 67.7507 82.9292 68.2976L81.5386 93.2357C81.523 93.5638 81.2573 93.8138 80.9292 93.8138C80.6011 93.8138 80.3354 93.5638 80.3198 93.2357L78.9292 68.2976C78.898 67.7351 79.0855 67.2038 79.4761 66.8132Z" fill="#444444"/>
<path d="M80.9291 103.079C77.6635 103.079 75.0229 105.735 75.0229 108.985C75.0229 112.235 77.6791 114.891 80.9291 114.891C84.1791 114.891 86.8354 112.235 86.8354 108.985C86.8354 105.735 84.1791 103.079 80.9291 103.079ZM80.9291 111.001C79.8197 111.001 78.9291 110.094 78.9291 109.001C78.9291 107.907 79.8354 107.001 80.9291 107.001C82.0229 107.001 82.9291 107.907 82.9291 109.001C82.9291 110.094 82.0229 111.001 80.9291 111.001Z" fill="#444444"/>
</svg>
