<svg width="450" height="512" viewBox="0 0 450 512" fill="none" xmlns="http://www.w3.org/2000/svg">
<g clip-path="url(#clip0_5_785)">
<path d="M212.66 3.35209C220.296 -1.11736 229.704 -1.11737 237.34 3.35209L434.66 118.842C442.296 123.311 447 131.571 447 140.51V371.49C447 380.429 442.296 388.689 434.66 393.158L237.34 508.648C229.704 513.117 220.296 513.117 212.66 508.648L15.3404 393.158C7.70413 388.689 3 380.429 3 371.49V140.51C3 131.571 7.70413 123.311 15.3404 118.842L212.66 3.35209Z" fill="#32ADE6"/>
<path d="M214.68 6.80426C221.068 3.06525 228.932 3.06525 235.32 6.80426L432.639 122.294C439.034 126.037 443 132.974 443 140.51V371.49C443 379.026 439.034 385.963 432.639 389.706L235.32 505.196C228.932 508.935 221.068 508.935 214.68 505.196L17.3609 389.706C10.9662 385.963 7 379.026 7 371.49V140.51C7 132.974 10.9662 126.037 17.3609 122.294L214.68 6.80426Z" stroke="black" stroke-opacity="0.5" stroke-width="8"/>
<rect x="82" y="128" width="286" height="4" rx="2" fill="white" fill-opacity="0.3"/>
<rect x="82" y="380" width="286" height="4" rx="2" fill="white" fill-opacity="0.3"/>
<path d="M187.102 236.188C191.786 236.188 195.441 237.099 198.066 238.922C200.691 240.745 202.004 243.47 202.004 247.098C202.004 248.939 201.512 250.589 200.527 252.047C199.561 253.487 198.148 254.572 196.289 255.301C198.677 255.811 200.464 256.905 201.648 258.582C202.852 260.259 203.453 262.201 203.453 264.406C203.453 268.216 202.195 271.105 199.68 273.074C197.164 275.025 193.6 276 188.988 276H169.41V271.215L173.648 270.395V241.82L169.41 241V236.188H173.648H187.102ZM181.633 258.391V269.875H188.988C191.103 269.875 192.716 269.419 193.828 268.508C194.94 267.578 195.496 266.211 195.496 264.406C195.496 262.456 195.022 260.97 194.074 259.949C193.126 258.91 191.632 258.391 189.59 258.391H181.633ZM181.633 252.867H187.375C189.508 252.867 191.148 252.43 192.297 251.555C193.445 250.68 194.02 249.404 194.02 247.727C194.02 245.885 193.436 244.527 192.27 243.652C191.121 242.777 189.398 242.34 187.102 242.34H181.633V252.867ZM224.344 236.188C229.211 236.188 233.221 237.746 236.375 240.863C239.529 243.962 241.105 247.945 241.105 252.812V259.402C241.105 264.288 239.529 268.28 236.375 271.379C233.221 274.46 229.211 276 224.344 276H206.434V271.215L210.672 270.395V241.82L206.434 241V236.188H210.672H224.344ZM218.656 242.34V269.875H223.934C226.796 269.875 229.038 268.909 230.66 266.977C232.283 265.044 233.094 262.52 233.094 259.402V252.758C233.094 249.677 232.283 247.171 230.66 245.238C229.038 243.306 226.796 242.34 223.934 242.34H218.656ZM262.953 236.188C267.82 236.188 271.831 237.746 274.984 240.863C278.138 243.962 279.715 247.945 279.715 252.812V259.402C279.715 264.288 278.138 268.28 274.984 271.379C271.831 274.46 267.82 276 262.953 276H245.043V271.215L249.281 270.395V241.82L245.043 241V236.188H249.281H262.953ZM257.266 242.34V269.875H262.543C265.405 269.875 267.647 268.909 269.27 266.977C270.892 265.044 271.703 262.52 271.703 259.402V252.758C271.703 249.677 270.892 247.171 269.27 245.238C267.647 243.306 265.405 242.34 262.543 242.34H257.266Z" fill="white"/>
<path d="M113.078 107V103.797L115.438 103.297V87.9688L113.078 87.4688V84.25H131.812V90.9531H127.672L127.562 88.4688H120.922V93.7344H128.656V97.9219H120.922V103.297L123.281 103.797V107H113.078ZM132.953 107V103.797L135.312 103.297V87.9688L132.953 87.4688V84.2344H144.141C145.943 84.2344 147.505 84.5208 148.828 85.0938C150.151 85.6667 151.172 86.4844 151.891 87.5469C152.609 88.599 152.969 89.849 152.969 91.2969C152.969 92.6302 152.604 93.8698 151.875 95.0156C151.156 96.1615 150.167 97.0833 148.906 97.7812C147.646 98.4688 146.208 98.8073 144.594 98.7969L140.797 98.75V103.297L143.156 103.797V107H132.953ZM147.359 107L144.297 98.125L149.062 96.5L151.828 103.266L153.984 103.812V107H147.359ZM140.797 94.5469H144.203C145.266 94.5469 146.083 94.3021 146.656 93.8125C147.229 93.3125 147.516 92.5938 147.516 91.6562C147.516 90.6875 147.224 89.9115 146.641 89.3281C146.057 88.7344 145.224 88.4375 144.141 88.4375H140.797V94.5469ZM154.906 107V103.797L156.5 103.562L163.281 84.25H169.219L176.016 103.562L177.609 103.797V107H169.109V103.797L170.594 103.516L169.906 101.047H162.594L161.938 103.516L163.422 103.797V107H154.906ZM163.75 97.2031H168.734L166.516 90.3125L166.266 89.5156H166.172L165.906 90.3906L163.75 97.2031ZM178.484 107V103.797L180.828 103.297V87.9688L178.484 87.4688V84.25H180.828H189.219L194.719 99.2344H194.812L200.156 84.25H210.766V87.4688L208.406 87.9688V103.297L210.766 103.797V107H200.578V103.797L203.031 103.297V100.328L203.156 89.625L203.062 89.6094L196.625 107H192.312L185.781 89.8125L185.672 89.8281L186.047 99.5781V103.297L188.688 103.797V107H178.484ZM211.703 107V103.797L214.062 103.297V87.9688L211.703 87.4688V84.25H229.875V90.8125H225.734L225.609 88.4688H219.547V93.1406H226.812V97.3438H219.547V102.766H225.906L226.031 100.312H230.125V107H211.703ZM239.547 107L234.297 87.7031L231.719 87.4688V84.25H241.984V87.4688L239.453 87.8281L241.938 98L242.297 99.4688H242.391L242.766 97.9844L247.219 84.25H251L255.688 98.625L256.016 99.6094H256.109L256.375 98.625L259.031 87.8281L256.422 87.4688V84.25H266.484V87.4688L264.062 87.7031L258.578 107H253.688L249.766 95.2344L249.281 93.6094H249.188L248.578 95.3281L244.594 107H239.547ZM278.969 107.328C277.396 107.328 275.948 107.042 274.625 106.469C273.312 105.885 272.172 105.073 271.203 104.031C270.234 102.99 269.484 101.771 268.953 100.375C268.432 98.9688 268.172 97.4427 268.172 95.7969V95.4375C268.172 93.8021 268.432 92.2865 268.953 90.8906C269.484 89.4948 270.229 88.276 271.188 87.2344C272.156 86.1927 273.297 85.3802 274.609 84.7969C275.922 84.2135 277.365 83.9219 278.938 83.9219C280.479 83.9219 281.911 84.2135 283.234 84.7969C284.557 85.3802 285.714 86.1927 286.703 87.2344C287.703 88.276 288.479 89.4948 289.031 90.8906C289.583 92.2865 289.859 93.8021 289.859 95.4375V95.7969C289.859 97.4427 289.583 98.9688 289.031 100.375C288.479 101.771 287.708 102.99 286.719 104.031C285.729 105.073 284.573 105.885 283.25 106.469C281.927 107.042 280.5 107.328 278.969 107.328ZM278.969 103.172C280.115 103.172 281.094 102.865 281.906 102.25C282.719 101.635 283.339 100.776 283.766 99.6719C284.193 98.5677 284.406 97.276 284.406 95.7969V95.4062C284.406 93.9583 284.188 92.6875 283.75 91.5938C283.323 90.4896 282.703 89.6302 281.891 89.0156C281.078 88.401 280.094 88.0938 278.938 88.0938C277.719 88.0938 276.719 88.3958 275.938 89C275.167 89.6042 274.594 90.4531 274.219 91.5469C273.844 92.6406 273.656 93.9271 273.656 95.4062V95.7969C273.656 97.276 273.844 98.5729 274.219 99.6875C274.604 100.792 275.188 101.651 275.969 102.266C276.76 102.87 277.76 103.172 278.969 103.172ZM291.359 107V103.797L293.719 103.297V87.9688L291.359 87.4688V84.2344H302.547C304.349 84.2344 305.911 84.5208 307.234 85.0938C308.557 85.6667 309.578 86.4844 310.297 87.5469C311.016 88.599 311.375 89.849 311.375 91.2969C311.375 92.6302 311.01 93.8698 310.281 95.0156C309.562 96.1615 308.573 97.0833 307.312 97.7812C306.052 98.4688 304.615 98.8073 303 98.7969L299.203 98.75V103.297L301.562 103.797V107H291.359ZM305.766 107L302.703 98.125L307.469 96.5L310.234 103.266L312.391 103.812V107H305.766ZM299.203 94.5469H302.609C303.672 94.5469 304.49 94.3021 305.062 93.8125C305.635 93.3125 305.922 92.5938 305.922 91.6562C305.922 90.6875 305.63 89.9115 305.047 89.3281C304.464 88.7344 303.63 88.4375 302.547 88.4375H299.203V94.5469ZM320 102.047L317.203 98.8438L328.547 87.6719L328.562 87.6406L325.984 87.4688V84.25H336.609V87.4688L334.469 87.9219L320 102.047ZM313.578 107V103.797L315.938 103.297V87.9688L313.578 87.4688V84.25H323.578V87.4688L321.422 87.9688V103.297L323.578 103.797V107H313.578ZM326.469 107V103.797L328.75 103.625H328.781L323.312 96.1406L327.141 92.75L335.109 103.406L337.438 103.797V107H326.469Z" fill="black" fill-opacity="0.3"/>
</g>
<defs>
<clipPath id="clip0_5_785">
<rect width="450" height="512" fill="white"/>
</clipPath>
</defs>
</svg>
