<svg width="163" height="191" viewBox="0 0 163 191" fill="none" xmlns="http://www.w3.org/2000/svg">
<path d="M75.7602 6.52497C79.6508 4.27879 84.4476 4.29317 88.3247 6.56262L154.315 45.1898C158.146 47.4323 160.5 51.5384 160.5 55.9775V134.853C160.5 139.285 158.154 143.385 154.333 145.63L88.343 184.409C84.4566 186.693 79.6417 186.708 75.7417 184.447L8.73174 145.608C4.87452 143.372 2.5 139.251 2.5 134.793V56.0374C2.5 51.5715 4.88256 47.4448 8.75016 45.2119L75.7602 6.52497Z" fill="#F5F5F5" stroke="#444444" stroke-width="5"/>
<path d="M19 96L44 110.434V81.5662L19 96ZM144 96L119 81.5662V110.434L144 96ZM41.5 98.5H121.5V93.5H41.5V98.5Z" fill="#444444"/>
</svg>
