<svg width="450" height="512" viewBox="0 0 450 512" fill="none" xmlns="http://www.w3.org/2000/svg">
<g clip-path="url(#clip0_5_627)">
<path d="M212.66 3.35209C220.296 -1.11736 229.704 -1.11737 237.34 3.35209L434.66 118.842C442.296 123.311 447 131.571 447 140.51V371.49C447 380.429 442.296 388.689 434.66 393.158L237.34 508.648C229.704 513.117 220.296 513.117 212.66 508.648L15.3404 393.158C7.70413 388.689 3 380.429 3 371.49V140.51C3 131.571 7.70413 123.311 15.3404 118.842L212.66 3.35209Z" fill="black"/>
<path d="M214.68 6.80426C221.068 3.06525 228.932 3.06525 235.32 6.80426L432.639 122.294C439.034 126.037 443 132.974 443 140.51V371.49C443 379.026 439.034 385.963 432.639 389.706L235.32 505.196C228.932 508.935 221.068 508.935 214.68 505.196L17.3609 389.706C10.9662 385.963 7 379.026 7 371.49V140.51C7 132.974 10.9662 126.037 17.3609 122.294L214.68 6.80426Z" stroke="black" stroke-opacity="0.5" stroke-width="8"/>
<path d="M407 146C407 141.582 410.582 138 415 138C419.418 138 423 141.582 423 146V174.8H407V146Z" fill="black" fill-opacity="0.15"/>
<rect x="407" y="176.8" width="16" height="36.8" fill="white" fill-opacity="0.75"/>
<rect x="407" y="215.6" width="16" height="36.8" fill="white" fill-opacity="0.75"/>
<rect x="407" y="254.4" width="16" height="36.8" fill="white" fill-opacity="0.75"/>
<path d="M407 293.2H423V322C423 326.418 419.418 330 415 330C410.582 330 407 326.418 407 322V293.2Z" fill="white" fill-opacity="0.75"/>
<path d="M28 146C28 141.582 31.5817 138 36 138C40.4183 138 44 141.582 44 146V174.8H28V146Z" fill="black" fill-opacity="0.15"/>
<rect x="28" y="176.8" width="16" height="36.8" fill="black" fill-opacity="0.15"/>
<rect x="28" y="215.6" width="16" height="36.8" fill="white" fill-opacity="0.75"/>
<rect x="28" y="254.4" width="16" height="36.8" fill="white" fill-opacity="0.75"/>
<path d="M28 293.2H44V322C44 326.418 40.4183 330 36 330C31.5817 330 28 326.418 28 322V293.2Z" fill="white" fill-opacity="0.75"/>
<path d="M40.588 363.76L38 362.008V359.992L40.588 358.24C42.716 356.801 44 354.325 44 351.665V349H28V351.665C28 354.325 29.284 356.801 31.412 358.24L34 359.992V362.008L31.412 363.76C29.284 365.199 28 367.675 28 370.335V373H44V370.335C44 367.675 42.716 365.199 40.588 363.76Z" fill="white" fill-opacity="0.75"/>
<path fill-rule="evenodd" clip-rule="evenodd" d="M423.788 358.193L426.539 357.7L427 360.356L424.266 360.845C424.268 360.892 424.274 360.936 424.281 360.981C424.288 361.032 424.295 361.083 424.295 361.135C424.292 362.334 424.062 363.521 423.619 364.631L426.014 366.035L424.686 368.371L422.268 366.953C421.481 367.965 420.498 368.802 419.38 369.412L420.335 372.078L417.84 373L416.899 370.374C415.646 370.641 414.354 370.641 413.101 370.374L412.16 373L409.665 372.078L410.62 369.412C409.502 368.802 408.519 367.965 407.732 366.953L405.314 368.371L403.986 366.035L406.381 364.631C405.938 363.521 405.708 362.334 405.705 361.135C405.705 361.083 405.712 361.032 405.719 360.982C405.726 360.937 405.732 360.892 405.734 360.846L403 360.356L403.461 357.7L406.212 358.193C406.607 356.967 407.247 355.837 408.092 354.874L406.301 352.706L408.335 350.973L410.121 353.134C411.204 352.455 412.413 352.012 413.672 351.833V349H416.328V351.833C417.588 352.012 418.797 352.455 419.879 353.134L421.665 350.972L423.699 352.706L421.908 354.874C422.753 355.837 423.393 356.967 423.788 358.193ZM415.185 363C416.289 363 417.185 362.105 417.185 361C417.185 359.895 416.289 359 415.185 359C414.08 359 413.185 359.895 413.185 361C413.185 362.105 414.08 363 415.185 363Z" fill="white" fill-opacity="0.75"/>
<rect x="82" y="128" width="286" height="4" rx="2" fill="white" fill-opacity="0.3"/>
<rect x="82" y="380" width="286" height="4" rx="2" fill="white" fill-opacity="0.3"/>
<path d="M126.836 180.188C131.521 180.188 135.176 181.099 137.801 182.922C140.426 184.745 141.738 187.47 141.738 191.098C141.738 192.939 141.246 194.589 140.262 196.047C139.296 197.487 137.883 198.572 136.023 199.301C138.411 199.811 140.198 200.905 141.383 202.582C142.586 204.259 143.188 206.201 143.188 208.406C143.188 212.216 141.93 215.105 139.414 217.074C136.898 219.025 133.335 220 128.723 220H109.145V215.215L113.383 214.395V185.82L109.145 185V180.188H113.383H126.836ZM121.367 202.391V213.875H128.723C130.837 213.875 132.451 213.419 133.562 212.508C134.674 211.578 135.23 210.211 135.23 208.406C135.23 206.456 134.757 204.97 133.809 203.949C132.861 202.91 131.366 202.391 129.324 202.391H121.367ZM121.367 196.867H127.109C129.242 196.867 130.883 196.43 132.031 195.555C133.18 194.68 133.754 193.404 133.754 191.727C133.754 189.885 133.171 188.527 132.004 187.652C130.855 186.777 129.133 186.34 126.836 186.34H121.367V196.867ZM146.359 204.934C146.359 200.522 147.59 196.913 150.051 194.105C152.53 191.28 155.948 189.867 160.305 189.867C164.68 189.867 168.098 191.271 170.559 194.078C173.038 196.885 174.277 200.504 174.277 204.934V205.508C174.277 209.956 173.038 213.583 170.559 216.391C168.098 219.18 164.698 220.574 160.359 220.574C155.966 220.574 152.53 219.18 150.051 216.391C147.59 213.583 146.359 209.956 146.359 205.508V204.934ZM154.344 205.508C154.344 208.206 154.818 210.375 155.766 212.016C156.714 213.638 158.245 214.449 160.359 214.449C162.419 214.449 163.923 213.629 164.871 211.988C165.837 210.348 166.32 208.188 166.32 205.508V204.934C166.32 202.309 165.837 200.167 164.871 198.508C163.905 196.849 162.383 196.02 160.305 196.02C158.227 196.02 156.714 196.849 155.766 198.508C154.818 200.167 154.344 202.309 154.344 204.934V205.508ZM198.449 216.254C197.501 217.639 196.326 218.706 194.922 219.453C193.536 220.201 191.951 220.574 190.164 220.574C187.047 220.574 184.604 219.581 182.836 217.594C181.068 215.589 180.184 212.48 180.184 208.27V196.047L176.93 195.227V190.414H180.184H188.168V208.324C188.168 210.475 188.523 212.025 189.234 212.973C189.964 213.902 191.039 214.367 192.461 214.367C193.719 214.367 194.803 214.167 195.715 213.766C196.645 213.346 197.401 212.754 197.984 211.988V196.047L194.484 195.227V190.414H197.984H205.969V214.395L209.551 215.215V220H198.969L198.449 216.254ZM212.258 215.215L216.086 214.395V196.047L211.848 195.227V190.414H223.523L223.879 194.652C224.863 193.139 226.076 191.964 227.516 191.125C228.956 190.286 230.569 189.867 232.355 189.867C235.345 189.867 237.678 190.806 239.355 192.684C241.033 194.561 241.871 197.505 241.871 201.516V214.395L245.699 215.215V220H230.441V215.215L233.859 214.395V201.543C233.859 199.556 233.458 198.152 232.656 197.332C231.854 196.493 230.642 196.074 229.02 196.074C227.962 196.074 227.014 196.293 226.176 196.73C225.337 197.15 224.635 197.751 224.07 198.535V214.395L227.297 215.215V220H212.258V215.215ZM267.219 216.391C266.289 217.758 265.186 218.797 263.91 219.508C262.652 220.219 261.212 220.574 259.59 220.574C255.944 220.574 253.109 219.243 251.086 216.582C249.081 213.921 248.078 210.402 248.078 206.027V205.453C248.078 200.786 249.09 197.022 251.113 194.16C253.137 191.298 255.98 189.867 259.645 189.867C261.121 189.867 262.452 190.195 263.637 190.852C264.822 191.49 265.861 192.401 266.754 193.586V182.977L262.488 182.156V177.344H266.754H274.738V214.395L278.566 215.215V220H267.82L267.219 216.391ZM256.062 206.027C256.062 208.616 256.491 210.658 257.348 212.152C258.223 213.629 259.645 214.367 261.613 214.367C262.78 214.367 263.792 214.13 264.648 213.656C265.505 213.182 266.207 212.499 266.754 211.605V199.055C266.207 198.107 265.505 197.378 264.648 196.867C263.81 196.339 262.816 196.074 261.668 196.074C259.717 196.074 258.296 196.94 257.402 198.672C256.509 200.404 256.062 202.664 256.062 205.453V206.027ZM295.273 220.574C291.008 220.574 287.599 219.207 285.047 216.473C282.495 213.738 281.219 210.266 281.219 206.055V204.961C281.219 200.568 282.422 196.949 284.828 194.105C287.253 191.262 290.497 189.849 294.562 189.867C298.555 189.867 301.654 191.07 303.859 193.477C306.065 195.883 307.168 199.137 307.168 203.238V207.586H289.504L289.449 207.75C289.595 209.701 290.242 211.305 291.391 212.562C292.557 213.82 294.134 214.449 296.121 214.449C297.889 214.449 299.357 214.276 300.523 213.93C301.69 213.565 302.966 213 304.352 212.234L306.512 217.156C305.29 218.122 303.704 218.934 301.754 219.59C299.822 220.246 297.661 220.574 295.273 220.574ZM294.562 196.02C293.086 196.02 291.919 196.585 291.062 197.715C290.206 198.845 289.677 200.331 289.477 202.172L289.559 202.309H299.348V201.598C299.348 199.902 298.947 198.553 298.145 197.551C297.361 196.53 296.167 196.02 294.562 196.02ZM330.219 216.391C329.289 217.758 328.186 218.797 326.91 219.508C325.652 220.219 324.212 220.574 322.59 220.574C318.944 220.574 316.109 219.243 314.086 216.582C312.081 213.921 311.078 210.402 311.078 206.027V205.453C311.078 200.786 312.09 197.022 314.113 194.16C316.137 191.298 318.98 189.867 322.645 189.867C324.121 189.867 325.452 190.195 326.637 190.852C327.822 191.49 328.861 192.401 329.754 193.586V182.977L325.488 182.156V177.344H329.754H337.738V214.395L341.566 215.215V220H330.82L330.219 216.391ZM319.062 206.027C319.062 208.616 319.491 210.658 320.348 212.152C321.223 213.629 322.645 214.367 324.613 214.367C325.78 214.367 326.792 214.13 327.648 213.656C328.505 213.182 329.207 212.499 329.754 211.605V199.055C329.207 198.107 328.505 197.378 327.648 196.867C326.81 196.339 325.816 196.074 324.668 196.074C322.717 196.074 321.296 196.94 320.402 198.672C319.509 200.404 319.062 202.664 319.062 205.453V206.027ZM155.41 249.613H149.477L148.656 244.309C147.872 243.525 146.879 242.905 145.676 242.449C144.491 241.993 143.087 241.766 141.465 241.766C138.001 241.766 135.331 243.023 133.453 245.539C131.594 248.055 130.664 251.336 130.664 255.383V256.777C130.664 260.824 131.594 264.115 133.453 266.648C135.312 269.182 137.938 270.449 141.328 270.449C142.896 270.449 144.327 270.221 145.621 269.766C146.934 269.31 147.945 268.69 148.656 267.906L149.477 262.602H155.41V270.477C153.806 272.336 151.755 273.822 149.258 274.934C146.779 276.027 143.999 276.574 140.918 276.574C135.577 276.574 131.202 274.724 127.793 271.023C124.384 267.323 122.68 262.574 122.68 256.777V255.438C122.68 249.659 124.375 244.91 127.766 241.191C131.156 237.473 135.54 235.613 140.918 235.613C143.999 235.613 146.779 236.178 149.258 237.309C151.737 238.421 153.788 239.897 155.41 241.738V249.613ZM159.293 260.934C159.293 256.522 160.523 252.913 162.984 250.105C165.464 247.28 168.882 245.867 173.238 245.867C177.613 245.867 181.031 247.271 183.492 250.078C185.971 252.885 187.211 256.504 187.211 260.934V261.508C187.211 265.956 185.971 269.583 183.492 272.391C181.031 275.18 177.632 276.574 173.293 276.574C168.9 276.574 165.464 275.18 162.984 272.391C160.523 269.583 159.293 265.956 159.293 261.508V260.934ZM167.277 261.508C167.277 264.206 167.751 266.375 168.699 268.016C169.647 269.638 171.178 270.449 173.293 270.449C175.353 270.449 176.857 269.629 177.805 267.988C178.771 266.348 179.254 264.188 179.254 261.508V260.934C179.254 258.309 178.771 256.167 177.805 254.508C176.839 252.849 175.316 252.02 173.238 252.02C171.16 252.02 169.647 252.849 168.699 254.508C167.751 256.167 167.277 258.309 167.277 260.934V261.508ZM190.246 271.215L194.074 270.395V252.047L189.836 251.227V246.414H201.512L201.867 250.652C202.852 249.139 204.064 247.964 205.504 247.125C206.944 246.286 208.557 245.867 210.344 245.867C213.333 245.867 215.667 246.806 217.344 248.684C219.021 250.561 219.859 253.505 219.859 257.516V270.395L223.688 271.215V276H208.43V271.215L211.848 270.395V257.543C211.848 255.556 211.447 254.152 210.645 253.332C209.842 252.493 208.63 252.074 207.008 252.074C205.951 252.074 205.003 252.293 204.164 252.73C203.326 253.15 202.624 253.751 202.059 254.535V270.395L205.285 271.215V276H190.246V271.215ZM238.016 239.168V246.414H243.211V252.02H238.016V267.086C238.016 268.234 238.253 269.055 238.727 269.547C239.201 270.039 239.839 270.285 240.641 270.285C241.188 270.285 241.661 270.267 242.062 270.23C242.482 270.176 242.947 270.094 243.457 269.984L244.141 275.754C243.247 276.027 242.363 276.228 241.488 276.355C240.613 276.501 239.665 276.574 238.645 276.574C235.892 276.574 233.768 275.818 232.273 274.305C230.797 272.792 230.059 270.395 230.059 267.113V252.02H225.711V246.414H230.059V239.168H238.016ZM261.285 276.574C257.02 276.574 253.611 275.207 251.059 272.473C248.507 269.738 247.23 266.266 247.23 262.055V260.961C247.23 256.568 248.434 252.949 250.84 250.105C253.264 247.262 256.509 245.849 260.574 245.867C264.566 245.867 267.665 247.07 269.871 249.477C272.077 251.883 273.18 255.137 273.18 259.238V263.586H255.516L255.461 263.75C255.607 265.701 256.254 267.305 257.402 268.562C258.569 269.82 260.146 270.449 262.133 270.449C263.901 270.449 265.368 270.276 266.535 269.93C267.702 269.565 268.978 269 270.363 268.234L272.523 273.156C271.302 274.122 269.716 274.934 267.766 275.59C265.833 276.246 263.673 276.574 261.285 276.574ZM260.574 252.02C259.098 252.02 257.931 252.585 257.074 253.715C256.217 254.845 255.689 256.331 255.488 258.172L255.57 258.309H265.359V257.598C265.359 255.902 264.958 254.553 264.156 253.551C263.372 252.53 262.178 252.02 260.574 252.02ZM276.133 271.215L278.895 270.777L286.934 261.043L279.168 251.691L276.406 251.227V246.414H289.723V251.035L287.016 251.363L291.5 257.051L295.902 251.363L293.141 251.035V246.414H306.512V251.227L303.832 251.691L296.23 261.043L304.242 270.777L307.031 271.215V276H293.496V271.406L296.203 271.078L291.609 265.117L286.934 271.105L289.312 271.406V276H276.133V271.215ZM321.359 239.168V246.414H326.555V252.02H321.359V267.086C321.359 268.234 321.596 269.055 322.07 269.547C322.544 270.039 323.182 270.285 323.984 270.285C324.531 270.285 325.005 270.267 325.406 270.23C325.826 270.176 326.29 270.094 326.801 269.984L327.484 275.754C326.591 276.027 325.707 276.228 324.832 276.355C323.957 276.501 323.009 276.574 321.988 276.574C319.236 276.574 317.112 275.818 315.617 274.305C314.141 272.792 313.402 270.395 313.402 267.113V252.02H309.055V246.414H313.402V239.168H321.359ZM162.273 305.613H156.34L155.52 300.309C154.736 299.525 153.742 298.905 152.539 298.449C151.354 297.993 149.951 297.766 148.328 297.766C144.865 297.766 142.194 299.023 140.316 301.539C138.457 304.055 137.527 307.336 137.527 311.383V312.777C137.527 316.824 138.457 320.115 140.316 322.648C142.176 325.182 144.801 326.449 148.191 326.449C149.759 326.449 151.19 326.221 152.484 325.766C153.797 325.31 154.809 324.69 155.52 323.906L156.34 318.602H162.273V326.477C160.669 328.336 158.618 329.822 156.121 330.934C153.642 332.027 150.862 332.574 147.781 332.574C142.44 332.574 138.065 330.724 134.656 327.023C131.247 323.323 129.543 318.574 129.543 312.777V311.438C129.543 305.659 131.238 300.91 134.629 297.191C138.02 293.473 142.404 291.613 147.781 291.613C150.862 291.613 153.642 292.178 156.121 293.309C158.6 294.421 160.651 295.897 162.273 297.738V305.613ZM184.996 332C184.777 331.508 184.586 331.007 184.422 330.496C184.258 329.967 184.13 329.439 184.039 328.91C183.091 330.004 181.934 330.888 180.566 331.562C179.217 332.237 177.668 332.574 175.918 332.574C173.02 332.574 170.714 331.79 169 330.223C167.305 328.637 166.457 326.486 166.457 323.77C166.457 320.999 167.569 318.857 169.793 317.344C172.017 315.831 175.28 315.074 179.582 315.074H183.656V312.176C183.656 310.754 183.246 309.651 182.426 308.867C181.605 308.083 180.393 307.691 178.789 307.691C177.878 307.691 177.066 307.801 176.355 308.02C175.645 308.22 175.07 308.466 174.633 308.758L174.113 311.93H168.098L168.125 305.367C169.583 304.383 171.251 303.553 173.129 302.879C175.025 302.204 177.085 301.867 179.309 301.867C182.973 301.867 185.944 302.77 188.223 304.574C190.52 306.361 191.668 308.913 191.668 312.23V324.453C191.668 324.909 191.668 325.337 191.668 325.738C191.686 326.139 191.723 326.522 191.777 326.887L194.211 327.215V332H184.996ZM178.078 326.668C179.281 326.668 180.375 326.413 181.359 325.902C182.344 325.374 183.109 324.717 183.656 323.934V319.422H179.582C177.887 319.422 176.602 319.823 175.727 320.625C174.852 321.409 174.414 322.357 174.414 323.469C174.414 324.471 174.733 325.255 175.371 325.82C176.027 326.385 176.93 326.668 178.078 326.668ZM196.508 327.215L200.336 326.395V308.047L196.098 307.227V302.414H207.773L208.129 306.652C209.113 305.139 210.326 303.964 211.766 303.125C213.206 302.286 214.819 301.867 216.605 301.867C219.595 301.867 221.928 302.806 223.605 304.684C225.283 306.561 226.121 309.505 226.121 313.516V326.395L229.949 327.215V332H214.691V327.215L218.109 326.395V313.543C218.109 311.556 217.708 310.152 216.906 309.332C216.104 308.493 214.892 308.074 213.27 308.074C212.212 308.074 211.264 308.293 210.426 308.73C209.587 309.15 208.885 309.751 208.32 310.535V326.395L211.547 327.215V332H196.508V327.215ZM245.043 307.227L242.254 307.746L246.164 320.98L246.684 323.77H246.848L247.422 320.98L251.277 307.773L248.434 307.227V302.414H261.859V307.227L259.289 307.637L250.566 332H242.938L234.188 307.637L231.617 307.227V302.414H245.043V307.227ZM282.832 332C282.613 331.508 282.422 331.007 282.258 330.496C282.094 329.967 281.966 329.439 281.875 328.91C280.927 330.004 279.77 330.888 278.402 331.562C277.053 332.237 275.504 332.574 273.754 332.574C270.855 332.574 268.549 331.79 266.836 330.223C265.141 328.637 264.293 326.486 264.293 323.77C264.293 320.999 265.405 318.857 267.629 317.344C269.853 315.831 273.116 315.074 277.418 315.074H281.492V312.176C281.492 310.754 281.082 309.651 280.262 308.867C279.441 308.083 278.229 307.691 276.625 307.691C275.714 307.691 274.902 307.801 274.191 308.02C273.48 308.22 272.906 308.466 272.469 308.758L271.949 311.93H265.934L265.961 305.367C267.419 304.383 269.087 303.553 270.965 302.879C272.861 302.204 274.921 301.867 277.145 301.867C280.809 301.867 283.78 302.77 286.059 304.574C288.355 306.361 289.504 308.913 289.504 312.23V324.453C289.504 324.909 289.504 325.337 289.504 325.738C289.522 326.139 289.559 326.522 289.613 326.887L292.047 327.215V332H282.832ZM275.914 326.668C277.117 326.668 278.211 326.413 279.195 325.902C280.18 325.374 280.945 324.717 281.492 323.934V319.422H277.418C275.723 319.422 274.438 319.823 273.562 320.625C272.688 321.409 272.25 322.357 272.25 323.469C272.25 324.471 272.569 325.255 273.207 325.82C273.863 326.385 274.766 326.668 275.914 326.668ZM318.926 312.586H313.566L312.719 308.895C312.172 308.457 311.479 308.092 310.641 307.801C309.82 307.509 308.909 307.363 307.906 307.363C306.503 307.363 305.391 307.682 304.57 308.32C303.75 308.94 303.34 309.724 303.34 310.672C303.34 311.565 303.732 312.312 304.516 312.914C305.299 313.497 306.867 314.017 309.219 314.473C312.883 315.202 315.599 316.277 317.367 317.699C319.135 319.103 320.02 321.044 320.02 323.523C320.02 326.185 318.871 328.363 316.574 330.059C314.296 331.736 311.288 332.574 307.551 332.574C305.272 332.574 303.176 332.246 301.262 331.59C299.366 330.915 297.68 329.958 296.203 328.719L296.121 322.074H301.699L302.793 325.93C303.267 326.331 303.914 326.632 304.734 326.832C305.555 327.014 306.411 327.105 307.305 327.105C308.927 327.105 310.158 326.814 310.996 326.23C311.853 325.647 312.281 324.854 312.281 323.852C312.281 322.977 311.853 322.22 310.996 321.582C310.139 320.944 308.562 320.379 306.266 319.887C302.784 319.176 300.15 318.128 298.363 316.742C296.595 315.339 295.711 313.434 295.711 311.027C295.711 308.548 296.732 306.415 298.773 304.629C300.815 302.824 303.723 301.922 307.496 301.922C309.793 301.922 311.962 302.232 314.004 302.852C316.064 303.471 317.677 304.264 318.844 305.23L318.926 312.586Z" fill="white"/>
<path d="M145.75 97V93.7969L148.094 93.2969V77.9688L145.75 77.4688V74.25H148.094H156.484L161.984 89.2344H162.078L167.422 74.25H178.031V77.4688L175.672 77.9688V93.2969L178.031 93.7969V97H167.844V93.7969L170.297 93.2969V90.3281L170.422 79.625L170.328 79.6094L163.891 97H159.578L153.047 79.8125L152.938 79.8281L153.312 89.5781V93.2969L155.953 93.7969V97H145.75ZM176.266 97V93.7969L177.859 93.5625L184.641 74.25H190.578L197.375 93.5625L198.969 93.7969V97H190.469V93.7969L191.953 93.5156L191.266 91.0469H183.953L183.297 93.5156L184.781 93.7969V97H176.266ZM185.109 87.2031H190.094L187.875 80.3125L187.625 79.5156H187.531L187.266 80.3906L185.109 87.2031ZM210.297 97.3281C208.13 97.3281 206.198 96.8906 204.5 96.0156C202.802 95.1406 201.469 93.875 200.5 92.2188C199.531 90.5521 199.047 88.5312 199.047 86.1562V85.1094C199.047 82.9219 199.49 80.9896 200.375 79.3125C201.271 77.625 202.542 76.3073 204.188 75.3594C205.844 74.401 207.807 73.9219 210.078 73.9219C211.661 73.9219 213.167 74.1354 214.594 74.5625C216.031 74.9792 217.365 75.6979 218.594 76.7188V82.5781H214.609L214.062 79.2188C213.708 78.9792 213.333 78.7708 212.938 78.5938C212.552 78.4167 212.135 78.2812 211.688 78.1875C211.25 78.0938 210.776 78.0469 210.266 78.0469C209.109 78.0469 208.099 78.3229 207.234 78.875C206.37 79.4271 205.698 80.2292 205.219 81.2812C204.75 82.3229 204.516 83.5885 204.516 85.0781V86.1562C204.516 87.5521 204.76 88.7812 205.25 89.8438C205.74 90.8958 206.422 91.7188 207.297 92.3125C208.182 92.9062 209.203 93.2031 210.359 93.2031C210.974 93.2031 211.599 93.1406 212.234 93.0156C212.87 92.8802 213.484 92.7031 214.078 92.4844L214.625 89.2656H218.625V95C217.719 95.625 216.562 96.1719 215.156 96.6406C213.75 97.099 212.13 97.3281 210.297 97.3281ZM220.062 97V93.7969L222.422 93.2969V77.9688L220.062 77.4688V74.25H230.266V77.4688L227.906 77.9688V83.7188H236.188V77.9688L233.828 77.4688V74.25H236.188H241.656H244.016V77.4688L241.656 77.9688V93.2969L244.016 93.7969V97H233.828V93.7969L236.188 93.2969V87.9219H227.906V93.2969L230.266 93.7969V97H220.062ZM245.281 97V93.7969L247.641 93.2969V77.9688L245.281 77.4688V74.25H255.469V77.4688L253.109 77.9688V93.2969L255.469 93.7969V97H245.281ZM256.703 97V93.7969L259.047 93.2969V77.9688L256.703 77.4688V74.25H259.047H264.625L273.75 88.8125H273.844V77.9688L270.859 77.4688V74.25H278.703H281.062V77.4688L278.703 77.9688V97H273.297L264 82.75H263.906V93.2969L266.906 93.7969V97H256.703ZM281.906 97V93.7969L284.266 93.2969V77.9688L281.906 77.4688V74.25H300.078V80.8125H295.938L295.812 78.4688H289.75V83.1406H297.016V87.3438H289.75V92.7656H296.109L296.234 90.3125H300.328V97H281.906Z" fill="white" fill-opacity="0.5"/>
</g>
<defs>
<clipPath id="clip0_5_627">
<rect width="450" height="512" fill="white"/>
</clipPath>
</defs>
</svg>
