<svg width="450" height="512" viewBox="0 0 450 512" fill="none" xmlns="http://www.w3.org/2000/svg">
<path d="M212.66 3.35209C220.296 -1.11736 229.704 -1.11737 237.34 3.35209L434.66 118.842C442.296 123.311 447 131.571 447 140.51V371.49C447 380.429 442.296 388.689 434.66 393.158L237.34 508.648C229.704 513.117 220.296 513.117 212.66 508.648L15.3404 393.158C7.70413 388.689 3 380.429 3 371.49V140.51C3 131.571 7.70413 123.311 15.3404 118.842L212.66 3.35209Z" fill="white"/>
<path d="M214.68 6.80426C221.068 3.06525 228.932 3.06525 235.32 6.80426L432.639 122.294C439.034 126.037 443 132.974 443 140.51V371.49C443 379.026 439.034 385.963 432.639 389.706L235.32 505.196C228.932 508.935 221.068 508.935 214.68 505.196L17.3609 389.706C10.9662 385.963 7 379.026 7 371.49V140.51C7 132.974 10.9662 126.037 17.3609 122.294L214.68 6.80426Z" stroke="black" stroke-opacity="0.5" stroke-width="8"/>
<rect x="82" y="128" width="286" height="4" rx="2" fill="black" fill-opacity="0.3"/>
<rect x="82" y="380" width="286" height="4" rx="2" fill="black" fill-opacity="0.3"/>
<path d="M126.836 208.188C131.521 208.188 135.176 209.099 137.801 210.922C140.426 212.745 141.738 215.47 141.738 219.098C141.738 220.939 141.246 222.589 140.262 224.047C139.296 225.487 137.883 226.572 136.023 227.301C138.411 227.811 140.198 228.905 141.383 230.582C142.586 232.259 143.188 234.201 143.188 236.406C143.188 240.216 141.93 243.105 139.414 245.074C136.898 247.025 133.335 248 128.723 248H109.145V243.215L113.383 242.395V213.82L109.145 213V208.188H113.383H126.836ZM121.367 230.391V241.875H128.723C130.837 241.875 132.451 241.419 133.562 240.508C134.674 239.578 135.23 238.211 135.23 236.406C135.23 234.456 134.757 232.97 133.809 231.949C132.861 230.91 131.366 230.391 129.324 230.391H121.367ZM121.367 224.867H127.109C129.242 224.867 130.883 224.43 132.031 223.555C133.18 222.68 133.754 221.404 133.754 219.727C133.754 217.885 133.171 216.527 132.004 215.652C130.855 214.777 129.133 214.34 126.836 214.34H121.367V224.867ZM146.359 232.934C146.359 228.522 147.59 224.913 150.051 222.105C152.53 219.28 155.948 217.867 160.305 217.867C164.68 217.867 168.098 219.271 170.559 222.078C173.038 224.885 174.277 228.504 174.277 232.934V233.508C174.277 237.956 173.038 241.583 170.559 244.391C168.098 247.18 164.698 248.574 160.359 248.574C155.966 248.574 152.53 247.18 150.051 244.391C147.59 241.583 146.359 237.956 146.359 233.508V232.934ZM154.344 233.508C154.344 236.206 154.818 238.375 155.766 240.016C156.714 241.638 158.245 242.449 160.359 242.449C162.419 242.449 163.923 241.629 164.871 239.988C165.837 238.348 166.32 236.188 166.32 233.508V232.934C166.32 230.309 165.837 228.167 164.871 226.508C163.905 224.849 162.383 224.02 160.305 224.02C158.227 224.02 156.714 224.849 155.766 226.508C154.818 228.167 154.344 230.309 154.344 232.934V233.508ZM198.449 244.254C197.501 245.639 196.326 246.706 194.922 247.453C193.536 248.201 191.951 248.574 190.164 248.574C187.047 248.574 184.604 247.581 182.836 245.594C181.068 243.589 180.184 240.48 180.184 236.27V224.047L176.93 223.227V218.414H180.184H188.168V236.324C188.168 238.475 188.523 240.025 189.234 240.973C189.964 241.902 191.039 242.367 192.461 242.367C193.719 242.367 194.803 242.167 195.715 241.766C196.645 241.346 197.401 240.754 197.984 239.988V224.047L194.484 223.227V218.414H197.984H205.969V242.395L209.551 243.215V248H198.969L198.449 244.254ZM212.258 243.215L216.086 242.395V224.047L211.848 223.227V218.414H223.523L223.879 222.652C224.863 221.139 226.076 219.964 227.516 219.125C228.956 218.286 230.569 217.867 232.355 217.867C235.345 217.867 237.678 218.806 239.355 220.684C241.033 222.561 241.871 225.505 241.871 229.516V242.395L245.699 243.215V248H230.441V243.215L233.859 242.395V229.543C233.859 227.556 233.458 226.152 232.656 225.332C231.854 224.493 230.642 224.074 229.02 224.074C227.962 224.074 227.014 224.293 226.176 224.73C225.337 225.15 224.635 225.751 224.07 226.535V242.395L227.297 243.215V248H212.258V243.215ZM267.219 244.391C266.289 245.758 265.186 246.797 263.91 247.508C262.652 248.219 261.212 248.574 259.59 248.574C255.944 248.574 253.109 247.243 251.086 244.582C249.081 241.921 248.078 238.402 248.078 234.027V233.453C248.078 228.786 249.09 225.022 251.113 222.16C253.137 219.298 255.98 217.867 259.645 217.867C261.121 217.867 262.452 218.195 263.637 218.852C264.822 219.49 265.861 220.401 266.754 221.586V210.977L262.488 210.156V205.344H266.754H274.738V242.395L278.566 243.215V248H267.82L267.219 244.391ZM256.062 234.027C256.062 236.616 256.491 238.658 257.348 240.152C258.223 241.629 259.645 242.367 261.613 242.367C262.78 242.367 263.792 242.13 264.648 241.656C265.505 241.182 266.207 240.499 266.754 239.605V227.055C266.207 226.107 265.505 225.378 264.648 224.867C263.81 224.339 262.816 224.074 261.668 224.074C259.717 224.074 258.296 224.94 257.402 226.672C256.509 228.404 256.062 230.664 256.062 233.453V234.027ZM295.273 248.574C291.008 248.574 287.599 247.207 285.047 244.473C282.495 241.738 281.219 238.266 281.219 234.055V232.961C281.219 228.568 282.422 224.949 284.828 222.105C287.253 219.262 290.497 217.849 294.562 217.867C298.555 217.867 301.654 219.07 303.859 221.477C306.065 223.883 307.168 227.137 307.168 231.238V235.586H289.504L289.449 235.75C289.595 237.701 290.242 239.305 291.391 240.562C292.557 241.82 294.134 242.449 296.121 242.449C297.889 242.449 299.357 242.276 300.523 241.93C301.69 241.565 302.966 241 304.352 240.234L306.512 245.156C305.29 246.122 303.704 246.934 301.754 247.59C299.822 248.246 297.661 248.574 295.273 248.574ZM294.562 224.02C293.086 224.02 291.919 224.585 291.062 225.715C290.206 226.845 289.677 228.331 289.477 230.172L289.559 230.309H299.348V229.598C299.348 227.902 298.947 226.553 298.145 225.551C297.361 224.53 296.167 224.02 294.562 224.02ZM330.219 244.391C329.289 245.758 328.186 246.797 326.91 247.508C325.652 248.219 324.212 248.574 322.59 248.574C318.944 248.574 316.109 247.243 314.086 244.582C312.081 241.921 311.078 238.402 311.078 234.027V233.453C311.078 228.786 312.09 225.022 314.113 222.16C316.137 219.298 318.98 217.867 322.645 217.867C324.121 217.867 325.452 218.195 326.637 218.852C327.822 219.49 328.861 220.401 329.754 221.586V210.977L325.488 210.156V205.344H329.754H337.738V242.395L341.566 243.215V248H330.82L330.219 244.391ZM319.062 234.027C319.062 236.616 319.491 238.658 320.348 240.152C321.223 241.629 322.645 242.367 324.613 242.367C325.78 242.367 326.792 242.13 327.648 241.656C328.505 241.182 329.207 240.499 329.754 239.605V227.055C329.207 226.107 328.505 225.378 327.648 224.867C326.81 224.339 325.816 224.074 324.668 224.074C322.717 224.074 321.296 224.94 320.402 226.672C319.509 228.404 319.062 230.664 319.062 233.453V234.027ZM155.41 277.613H149.477L148.656 272.309C147.872 271.525 146.879 270.905 145.676 270.449C144.491 269.993 143.087 269.766 141.465 269.766C138.001 269.766 135.331 271.023 133.453 273.539C131.594 276.055 130.664 279.336 130.664 283.383V284.777C130.664 288.824 131.594 292.115 133.453 294.648C135.312 297.182 137.938 298.449 141.328 298.449C142.896 298.449 144.327 298.221 145.621 297.766C146.934 297.31 147.945 296.69 148.656 295.906L149.477 290.602H155.41V298.477C153.806 300.336 151.755 301.822 149.258 302.934C146.779 304.027 143.999 304.574 140.918 304.574C135.577 304.574 131.202 302.724 127.793 299.023C124.384 295.323 122.68 290.574 122.68 284.777V283.438C122.68 277.659 124.375 272.91 127.766 269.191C131.156 265.473 135.54 263.613 140.918 263.613C143.999 263.613 146.779 264.178 149.258 265.309C151.737 266.421 153.788 267.897 155.41 269.738V277.613ZM159.293 288.934C159.293 284.522 160.523 280.913 162.984 278.105C165.464 275.28 168.882 273.867 173.238 273.867C177.613 273.867 181.031 275.271 183.492 278.078C185.971 280.885 187.211 284.504 187.211 288.934V289.508C187.211 293.956 185.971 297.583 183.492 300.391C181.031 303.18 177.632 304.574 173.293 304.574C168.9 304.574 165.464 303.18 162.984 300.391C160.523 297.583 159.293 293.956 159.293 289.508V288.934ZM167.277 289.508C167.277 292.206 167.751 294.375 168.699 296.016C169.647 297.638 171.178 298.449 173.293 298.449C175.353 298.449 176.857 297.629 177.805 295.988C178.771 294.348 179.254 292.188 179.254 289.508V288.934C179.254 286.309 178.771 284.167 177.805 282.508C176.839 280.849 175.316 280.02 173.238 280.02C171.16 280.02 169.647 280.849 168.699 282.508C167.751 284.167 167.277 286.309 167.277 288.934V289.508ZM190.246 299.215L194.074 298.395V280.047L189.836 279.227V274.414H201.512L201.867 278.652C202.852 277.139 204.064 275.964 205.504 275.125C206.944 274.286 208.557 273.867 210.344 273.867C213.333 273.867 215.667 274.806 217.344 276.684C219.021 278.561 219.859 281.505 219.859 285.516V298.395L223.688 299.215V304H208.43V299.215L211.848 298.395V285.543C211.848 283.556 211.447 282.152 210.645 281.332C209.842 280.493 208.63 280.074 207.008 280.074C205.951 280.074 205.003 280.293 204.164 280.73C203.326 281.15 202.624 281.751 202.059 282.535V298.395L205.285 299.215V304H190.246V299.215ZM238.016 267.168V274.414H243.211V280.02H238.016V295.086C238.016 296.234 238.253 297.055 238.727 297.547C239.201 298.039 239.839 298.285 240.641 298.285C241.188 298.285 241.661 298.267 242.062 298.23C242.482 298.176 242.947 298.094 243.457 297.984L244.141 303.754C243.247 304.027 242.363 304.228 241.488 304.355C240.613 304.501 239.665 304.574 238.645 304.574C235.892 304.574 233.768 303.818 232.273 302.305C230.797 300.792 230.059 298.395 230.059 295.113V280.02H225.711V274.414H230.059V267.168H238.016ZM261.285 304.574C257.02 304.574 253.611 303.207 251.059 300.473C248.507 297.738 247.23 294.266 247.23 290.055V288.961C247.23 284.568 248.434 280.949 250.84 278.105C253.264 275.262 256.509 273.849 260.574 273.867C264.566 273.867 267.665 275.07 269.871 277.477C272.077 279.883 273.18 283.137 273.18 287.238V291.586H255.516L255.461 291.75C255.607 293.701 256.254 295.305 257.402 296.562C258.569 297.82 260.146 298.449 262.133 298.449C263.901 298.449 265.368 298.276 266.535 297.93C267.702 297.565 268.978 297 270.363 296.234L272.523 301.156C271.302 302.122 269.716 302.934 267.766 303.59C265.833 304.246 263.673 304.574 261.285 304.574ZM260.574 280.02C259.098 280.02 257.931 280.585 257.074 281.715C256.217 282.845 255.689 284.331 255.488 286.172L255.57 286.309H265.359V285.598C265.359 283.902 264.958 282.553 264.156 281.551C263.372 280.53 262.178 280.02 260.574 280.02ZM276.133 299.215L278.895 298.777L286.934 289.043L279.168 279.691L276.406 279.227V274.414H289.723V279.035L287.016 279.363L291.5 285.051L295.902 279.363L293.141 279.035V274.414H306.512V279.227L303.832 279.691L296.23 289.043L304.242 298.777L307.031 299.215V304H293.496V299.406L296.203 299.078L291.609 293.117L286.934 299.105L289.312 299.406V304H276.133V299.215ZM321.359 267.168V274.414H326.555V280.02H321.359V295.086C321.359 296.234 321.596 297.055 322.07 297.547C322.544 298.039 323.182 298.285 323.984 298.285C324.531 298.285 325.005 298.267 325.406 298.23C325.826 298.176 326.29 298.094 326.801 297.984L327.484 303.754C326.591 304.027 325.707 304.228 324.832 304.355C323.957 304.501 323.009 304.574 321.988 304.574C319.236 304.574 317.112 303.818 315.617 302.305C314.141 300.792 313.402 298.395 313.402 295.113V280.02H309.055V274.414H313.402V267.168H321.359Z" fill="black"/>
<path d="M145.844 97V93.7969L147.438 93.5625L154.219 74.25H160.156L166.953 93.5625L168.547 93.7969V97H160.047V93.7969L161.531 93.5156L160.844 91.0469H153.531L152.875 93.5156L154.359 93.7969V97H145.844ZM154.688 87.2031H159.672L157.453 80.3125L157.203 79.5156H157.109L156.844 80.3906L154.688 87.2031ZM169.547 97V93.7969L171.906 93.2969V77.9688L169.547 77.4688V74.2344H180.734C182.536 74.2344 184.099 74.5208 185.422 75.0938C186.745 75.6667 187.766 76.4844 188.484 77.5469C189.203 78.599 189.562 79.849 189.562 81.2969C189.562 82.6302 189.198 83.8698 188.469 85.0156C187.75 86.1615 186.76 87.0833 185.5 87.7812C184.24 88.4688 182.802 88.8073 181.188 88.7969L177.391 88.75V93.2969L179.75 93.7969V97H169.547ZM183.953 97L180.891 88.125L185.656 86.5L188.422 93.2656L190.578 93.8125V97H183.953ZM177.391 84.5469H180.797C181.859 84.5469 182.677 84.3021 183.25 83.8125C183.823 83.3125 184.109 82.5938 184.109 81.6562C184.109 80.6875 183.818 79.9115 183.234 79.3281C182.651 78.7344 181.818 78.4375 180.734 78.4375H177.391V84.5469ZM196.312 97V93.7969L198.688 93.2969V78.5H195.172L195.031 80.9531H190.891V74.25H212.031V80.9531H207.844L207.719 78.5H204.172V93.2969L206.547 93.7969V97H196.312ZM212.859 97V93.7969L215.219 93.2969V77.9688L212.859 77.4688V74.25H223.047V77.4688L220.688 77.9688V93.2969L223.047 93.7969V97H212.859ZM224.297 97V93.7969L226.656 93.2969V77.9688L224.297 77.4688V74.25H243.031V80.9531H238.891L238.781 78.4688H232.141V83.7344H239.875V87.9219H232.141V93.2969L234.5 93.7969V97H224.297ZM240.25 97V93.7969L241.844 93.5625L248.625 74.25H254.562L261.359 93.5625L262.953 93.7969V97H254.453V93.7969L255.938 93.5156L255.25 91.0469H247.938L247.281 93.5156L248.766 93.7969V97H240.25ZM249.094 87.2031H254.078L251.859 80.3125L251.609 79.5156H251.516L251.25 80.3906L249.094 87.2031ZM274.281 97.3281C272.115 97.3281 270.182 96.8906 268.484 96.0156C266.786 95.1406 265.453 93.875 264.484 92.2188C263.516 90.5521 263.031 88.5312 263.031 86.1562V85.1094C263.031 82.9219 263.474 80.9896 264.359 79.3125C265.255 77.625 266.526 76.3073 268.172 75.3594C269.828 74.401 271.792 73.9219 274.062 73.9219C275.646 73.9219 277.151 74.1354 278.578 74.5625C280.016 74.9792 281.349 75.6979 282.578 76.7188V82.5781H278.594L278.047 79.2188C277.693 78.9792 277.318 78.7708 276.922 78.5938C276.536 78.4167 276.12 78.2812 275.672 78.1875C275.234 78.0938 274.76 78.0469 274.25 78.0469C273.094 78.0469 272.083 78.3229 271.219 78.875C270.354 79.4271 269.682 80.2292 269.203 81.2812C268.734 82.3229 268.5 83.5885 268.5 85.0781V86.1562C268.5 87.5521 268.745 88.7812 269.234 89.8438C269.724 90.8958 270.406 91.7188 271.281 92.3125C272.167 92.9062 273.188 93.2031 274.344 93.2031C274.958 93.2031 275.583 93.1406 276.219 93.0156C276.854 92.8802 277.469 92.7031 278.062 92.4844L278.609 89.2656H282.609V95C281.703 95.625 280.547 96.1719 279.141 96.6406C277.734 97.099 276.115 97.3281 274.281 97.3281ZM288.594 97V93.7969L290.969 93.2969V78.5H287.453L287.312 80.9531H283.172V74.25H304.312V80.9531H300.125L300 78.5H296.453V93.2969L298.828 93.7969V97H288.594Z" fill="black" fill-opacity="0.3"/>
<path d="M187.969 438V434.797L190.312 434.297V418.969L187.969 418.469V415.25H190.312H198.703L204.203 430.234H204.297L209.641 415.25H220.25V418.469L217.891 418.969V434.297L220.25 434.797V438H210.062V434.797L212.516 434.297V431.328L212.641 420.625L212.547 420.609L206.109 438H201.797L195.266 420.812L195.156 420.828L195.531 430.578V434.297L198.172 434.797V438H187.969ZM218.484 438V434.797L220.078 434.562L226.859 415.25H232.797L239.594 434.562L241.188 434.797V438H232.688V434.797L234.172 434.516L233.484 432.047H226.172L225.516 434.516L227 434.797V438H218.484ZM227.328 428.203H232.312L230.094 421.312L229.844 420.516H229.75L229.484 421.391L227.328 428.203ZM242.188 438V434.797L244.547 434.297V418.969L242.188 418.469V415.25H244.547H253.25C255.062 415.25 256.635 415.568 257.969 416.203C259.302 416.839 260.328 417.724 261.047 418.859C261.776 419.984 262.141 421.297 262.141 422.797C262.141 424.297 261.776 425.609 261.047 426.734C260.328 427.859 259.302 428.734 257.969 429.359C256.635 429.984 255.062 430.297 253.25 430.297H250.031V434.297L252.391 434.797V438H242.188ZM250.031 426.094H253.25C254.365 426.094 255.208 425.792 255.781 425.188C256.365 424.573 256.656 423.786 256.656 422.828C256.656 421.839 256.365 421.026 255.781 420.391C255.208 419.755 254.365 419.438 253.25 419.438H250.031V426.094Z" fill="black" fill-opacity="0.3"/>
</svg>
