<svg width="450" height="512" viewBox="0 0 450 512" fill="none" xmlns="http://www.w3.org/2000/svg">
<path d="M212.66 3.35209C220.296 -1.11736 229.704 -1.11737 237.34 3.35209L434.66 118.842C442.296 123.311 447 131.571 447 140.51V371.49C447 380.429 442.296 388.689 434.66 393.158L237.34 508.648C229.704 513.117 220.296 513.117 212.66 508.648L15.3404 393.158C7.70413 388.689 3 380.429 3 371.49V140.51C3 131.571 7.70413 123.311 15.3404 118.842L212.66 3.35209Z" fill="white"/>
<path d="M214.68 6.80426C221.068 3.06525 228.932 3.06525 235.32 6.80426L432.639 122.294C439.034 126.037 443 132.974 443 140.51V371.49C443 379.026 439.034 385.963 432.639 389.706L235.32 505.196C228.932 508.935 221.068 508.935 214.68 505.196L17.3609 389.706C10.9662 385.963 7 379.026 7 371.49V140.51C7 132.974 10.9662 126.037 17.3609 122.294L214.68 6.80426Z" stroke="black" stroke-opacity="0.5" stroke-width="8"/>
<rect x="82" y="128" width="286" height="4" rx="2" fill="black" fill-opacity="0.3"/>
<rect x="82" y="380" width="286" height="4" rx="2" fill="black" fill-opacity="0.3"/>
<path d="M123.418 208.188C128.103 208.188 131.758 209.099 134.383 210.922C137.008 212.745 138.32 215.47 138.32 219.098C138.32 220.939 137.828 222.589 136.844 224.047C135.878 225.487 134.465 226.572 132.605 227.301C134.993 227.811 136.78 228.905 137.965 230.582C139.168 232.259 139.77 234.201 139.77 236.406C139.77 240.216 138.512 243.105 135.996 245.074C133.48 247.025 129.917 248 125.305 248H105.727V243.215L109.965 242.395V213.82L105.727 213V208.188H109.965H123.418ZM117.949 230.391V241.875H125.305C127.419 241.875 129.033 241.419 130.145 240.508C131.257 239.578 131.812 238.211 131.812 236.406C131.812 234.456 131.339 232.97 130.391 231.949C129.443 230.91 127.948 230.391 125.906 230.391H117.949ZM117.949 224.867H123.691C125.824 224.867 127.465 224.43 128.613 223.555C129.762 222.68 130.336 221.404 130.336 219.727C130.336 217.885 129.753 216.527 128.586 215.652C127.438 214.777 125.715 214.34 123.418 214.34H117.949V224.867ZM163.641 244.254C162.693 245.639 161.517 246.706 160.113 247.453C158.728 248.201 157.142 248.574 155.355 248.574C152.238 248.574 149.796 247.581 148.027 245.594C146.259 243.589 145.375 240.48 145.375 236.27V224.047L142.121 223.227V218.414H145.375H153.359V236.324C153.359 238.475 153.715 240.025 154.426 240.973C155.155 241.902 156.23 242.367 157.652 242.367C158.91 242.367 159.995 242.167 160.906 241.766C161.836 241.346 162.592 240.754 163.176 239.988V224.047L159.676 223.227V218.414H163.176H171.16V242.395L174.742 243.215V248H164.16L163.641 244.254ZM202.031 228.586H196.672L195.824 224.895C195.277 224.457 194.585 224.092 193.746 223.801C192.926 223.509 192.014 223.363 191.012 223.363C189.608 223.363 188.496 223.682 187.676 224.32C186.855 224.94 186.445 225.724 186.445 226.672C186.445 227.565 186.837 228.312 187.621 228.914C188.405 229.497 189.973 230.017 192.324 230.473C195.988 231.202 198.704 232.277 200.473 233.699C202.241 235.103 203.125 237.044 203.125 239.523C203.125 242.185 201.977 244.363 199.68 246.059C197.401 247.736 194.393 248.574 190.656 248.574C188.378 248.574 186.281 248.246 184.367 247.59C182.471 246.915 180.785 245.958 179.309 244.719L179.227 238.074H184.805L185.898 241.93C186.372 242.331 187.02 242.632 187.84 242.832C188.66 243.014 189.517 243.105 190.41 243.105C192.033 243.105 193.263 242.814 194.102 242.23C194.958 241.647 195.387 240.854 195.387 239.852C195.387 238.977 194.958 238.22 194.102 237.582C193.245 236.944 191.668 236.379 189.371 235.887C185.889 235.176 183.255 234.128 181.469 232.742C179.701 231.339 178.816 229.434 178.816 227.027C178.816 224.548 179.837 222.415 181.879 220.629C183.921 218.824 186.828 217.922 190.602 217.922C192.898 217.922 195.068 218.232 197.109 218.852C199.169 219.471 200.783 220.264 201.949 221.23L202.031 228.586ZM206.461 243.215L210.316 242.395V224.047L206.051 223.227V218.414H218.301V242.395L222.129 243.215V248H206.461V243.215ZM218.301 211.332H210.316V205.344H218.301V211.332ZM224.316 243.215L228.145 242.395V224.047L223.906 223.227V218.414H235.582L235.938 222.652C236.922 221.139 238.134 219.964 239.574 219.125C241.014 218.286 242.628 217.867 244.414 217.867C247.404 217.867 249.737 218.806 251.414 220.684C253.091 222.561 253.93 225.505 253.93 229.516V242.395L257.758 243.215V248H242.5V243.215L245.918 242.395V229.543C245.918 227.556 245.517 226.152 244.715 225.332C243.913 224.493 242.701 224.074 241.078 224.074C240.021 224.074 239.073 224.293 238.234 224.73C237.396 225.15 236.694 225.751 236.129 226.535V242.395L239.355 243.215V248H224.316V243.215ZM274.191 248.574C269.926 248.574 266.517 247.207 263.965 244.473C261.413 241.738 260.137 238.266 260.137 234.055V232.961C260.137 228.568 261.34 224.949 263.746 222.105C266.171 219.262 269.415 217.849 273.48 217.867C277.473 217.867 280.572 219.07 282.777 221.477C284.983 223.883 286.086 227.137 286.086 231.238V235.586H268.422L268.367 235.75C268.513 237.701 269.16 239.305 270.309 240.562C271.475 241.82 273.052 242.449 275.039 242.449C276.807 242.449 278.275 242.276 279.441 241.93C280.608 241.565 281.884 241 283.27 240.234L285.43 245.156C284.208 246.122 282.622 246.934 280.672 247.59C278.74 248.246 276.579 248.574 274.191 248.574ZM273.48 224.02C272.004 224.02 270.837 224.585 269.98 225.715C269.124 226.845 268.595 228.331 268.395 230.172L268.477 230.309H278.266V229.598C278.266 227.902 277.865 226.553 277.062 225.551C276.279 224.53 275.085 224.02 273.48 224.02ZM314.031 228.586H308.672L307.824 224.895C307.277 224.457 306.585 224.092 305.746 223.801C304.926 223.509 304.014 223.363 303.012 223.363C301.608 223.363 300.496 223.682 299.676 224.32C298.855 224.94 298.445 225.724 298.445 226.672C298.445 227.565 298.837 228.312 299.621 228.914C300.405 229.497 301.973 230.017 304.324 230.473C307.988 231.202 310.704 232.277 312.473 233.699C314.241 235.103 315.125 237.044 315.125 239.523C315.125 242.185 313.977 244.363 311.68 246.059C309.401 247.736 306.393 248.574 302.656 248.574C300.378 248.574 298.281 248.246 296.367 247.59C294.471 246.915 292.785 245.958 291.309 244.719L291.227 238.074H296.805L297.898 241.93C298.372 242.331 299.02 242.632 299.84 242.832C300.66 243.014 301.517 243.105 302.41 243.105C304.033 243.105 305.263 242.814 306.102 242.23C306.958 241.647 307.387 240.854 307.387 239.852C307.387 238.977 306.958 238.22 306.102 237.582C305.245 236.944 303.668 236.379 301.371 235.887C297.889 235.176 295.255 234.128 293.469 232.742C291.701 231.339 290.816 229.434 290.816 227.027C290.816 224.548 291.837 222.415 293.879 220.629C295.921 218.824 298.828 217.922 302.602 217.922C304.898 217.922 307.068 218.232 309.109 218.852C311.169 219.471 312.783 220.264 313.949 221.23L314.031 228.586ZM342.852 228.586H337.492L336.645 224.895C336.098 224.457 335.405 224.092 334.566 223.801C333.746 223.509 332.835 223.363 331.832 223.363C330.428 223.363 329.316 223.682 328.496 224.32C327.676 224.94 327.266 225.724 327.266 226.672C327.266 227.565 327.658 228.312 328.441 228.914C329.225 229.497 330.793 230.017 333.145 230.473C336.809 231.202 339.525 232.277 341.293 233.699C343.061 235.103 343.945 237.044 343.945 239.523C343.945 242.185 342.797 244.363 340.5 246.059C338.221 247.736 335.214 248.574 331.477 248.574C329.198 248.574 327.102 248.246 325.188 247.59C323.292 246.915 321.605 245.958 320.129 244.719L320.047 238.074H325.625L326.719 241.93C327.193 242.331 327.84 242.632 328.66 242.832C329.48 243.014 330.337 243.105 331.23 243.105C332.853 243.105 334.083 242.814 334.922 242.23C335.779 241.647 336.207 240.854 336.207 239.852C336.207 238.977 335.779 238.22 334.922 237.582C334.065 236.944 332.488 236.379 330.191 235.887C326.71 235.176 324.076 234.128 322.289 232.742C320.521 231.339 319.637 229.434 319.637 227.027C319.637 224.548 320.658 222.415 322.699 220.629C324.741 218.824 327.648 217.922 331.422 217.922C333.719 217.922 335.888 218.232 337.93 218.852C339.99 219.471 341.603 220.264 342.77 221.23L342.852 228.586ZM183.82 264.188C188.341 264.188 191.887 265.227 194.457 267.305C197.027 269.365 198.312 272.217 198.312 275.863C198.312 277.868 197.775 279.609 196.699 281.086C195.624 282.562 194.047 283.757 191.969 284.668C194.32 285.361 196.007 286.518 197.027 288.141C198.066 289.745 198.586 291.741 198.586 294.129V296.152C198.586 297.027 198.759 297.711 199.105 298.203C199.452 298.677 200.026 298.96 200.828 299.051L201.812 299.188V304H197.684C195.077 304 193.245 303.298 192.188 301.895C191.13 300.491 190.602 298.677 190.602 296.453V294.184C190.602 292.251 190.082 290.738 189.043 289.645C188.022 288.533 186.573 287.949 184.695 287.895H178.16V298.395L182.426 299.215V304H165.938V299.215L170.176 298.395V269.82L165.938 269V264.188H170.176H183.82ZM178.16 281.742H183.684C185.908 281.742 187.576 281.268 188.688 280.32C189.799 279.372 190.355 278.005 190.355 276.219C190.355 274.432 189.799 273.01 188.688 271.953C187.594 270.878 185.971 270.34 183.82 270.34H178.16V281.742ZM225.328 300.254C224.38 301.639 223.204 302.706 221.801 303.453C220.415 304.201 218.829 304.574 217.043 304.574C213.926 304.574 211.483 303.581 209.715 301.594C207.947 299.589 207.062 296.48 207.062 292.27V280.047L203.809 279.227V274.414H207.062H215.047V292.324C215.047 294.475 215.402 296.025 216.113 296.973C216.842 297.902 217.918 298.367 219.34 298.367C220.598 298.367 221.682 298.167 222.594 297.766C223.523 297.346 224.28 296.754 224.863 295.988V280.047L221.363 279.227V274.414H224.863H232.848V298.395L236.43 299.215V304H225.848L225.328 300.254ZM238.727 266.156V261.344H250.977V298.395L254.832 299.215V304H239.137V299.215L242.992 298.395V266.977L238.727 266.156ZM271.621 304.574C267.355 304.574 263.947 303.207 261.395 300.473C258.842 297.738 257.566 294.266 257.566 290.055V288.961C257.566 284.568 258.77 280.949 261.176 278.105C263.6 275.262 266.845 273.849 270.91 273.867C274.902 273.867 278.001 275.07 280.207 277.477C282.413 279.883 283.516 283.137 283.516 287.238V291.586H265.852L265.797 291.75C265.943 293.701 266.59 295.305 267.738 296.562C268.905 297.82 270.482 298.449 272.469 298.449C274.237 298.449 275.704 298.276 276.871 297.93C278.038 297.565 279.314 297 280.699 296.234L282.859 301.156C281.638 302.122 280.052 302.934 278.102 303.59C276.169 304.246 274.009 304.574 271.621 304.574ZM270.91 280.02C269.434 280.02 268.267 280.585 267.41 281.715C266.553 282.845 266.025 284.331 265.824 286.172L265.906 286.309H275.695V285.598C275.695 283.902 275.294 282.553 274.492 281.551C273.708 280.53 272.514 280.02 270.91 280.02Z" fill="black"/>
<path d="M145.844 97V93.7969L147.438 93.5625L154.219 74.25H160.156L166.953 93.5625L168.547 93.7969V97H160.047V93.7969L161.531 93.5156L160.844 91.0469H153.531L152.875 93.5156L154.359 93.7969V97H145.844ZM154.688 87.2031H159.672L157.453 80.3125L157.203 79.5156H157.109L156.844 80.3906L154.688 87.2031ZM169.547 97V93.7969L171.906 93.2969V77.9688L169.547 77.4688V74.2344H180.734C182.536 74.2344 184.099 74.5208 185.422 75.0938C186.745 75.6667 187.766 76.4844 188.484 77.5469C189.203 78.599 189.562 79.849 189.562 81.2969C189.562 82.6302 189.198 83.8698 188.469 85.0156C187.75 86.1615 186.76 87.0833 185.5 87.7812C184.24 88.4688 182.802 88.8073 181.188 88.7969L177.391 88.75V93.2969L179.75 93.7969V97H169.547ZM183.953 97L180.891 88.125L185.656 86.5L188.422 93.2656L190.578 93.8125V97H183.953ZM177.391 84.5469H180.797C181.859 84.5469 182.677 84.3021 183.25 83.8125C183.823 83.3125 184.109 82.5938 184.109 81.6562C184.109 80.6875 183.818 79.9115 183.234 79.3281C182.651 78.7344 181.818 78.4375 180.734 78.4375H177.391V84.5469ZM196.312 97V93.7969L198.688 93.2969V78.5H195.172L195.031 80.9531H190.891V74.25H212.031V80.9531H207.844L207.719 78.5H204.172V93.2969L206.547 93.7969V97H196.312ZM212.859 97V93.7969L215.219 93.2969V77.9688L212.859 77.4688V74.25H223.047V77.4688L220.688 77.9688V93.2969L223.047 93.7969V97H212.859ZM224.297 97V93.7969L226.656 93.2969V77.9688L224.297 77.4688V74.25H243.031V80.9531H238.891L238.781 78.4688H232.141V83.7344H239.875V87.9219H232.141V93.2969L234.5 93.7969V97H224.297ZM240.25 97V93.7969L241.844 93.5625L248.625 74.25H254.562L261.359 93.5625L262.953 93.7969V97H254.453V93.7969L255.938 93.5156L255.25 91.0469H247.938L247.281 93.5156L248.766 93.7969V97H240.25ZM249.094 87.2031H254.078L251.859 80.3125L251.609 79.5156H251.516L251.25 80.3906L249.094 87.2031ZM274.281 97.3281C272.115 97.3281 270.182 96.8906 268.484 96.0156C266.786 95.1406 265.453 93.875 264.484 92.2188C263.516 90.5521 263.031 88.5312 263.031 86.1562V85.1094C263.031 82.9219 263.474 80.9896 264.359 79.3125C265.255 77.625 266.526 76.3073 268.172 75.3594C269.828 74.401 271.792 73.9219 274.062 73.9219C275.646 73.9219 277.151 74.1354 278.578 74.5625C280.016 74.9792 281.349 75.6979 282.578 76.7188V82.5781H278.594L278.047 79.2188C277.693 78.9792 277.318 78.7708 276.922 78.5938C276.536 78.4167 276.12 78.2812 275.672 78.1875C275.234 78.0938 274.76 78.0469 274.25 78.0469C273.094 78.0469 272.083 78.3229 271.219 78.875C270.354 79.4271 269.682 80.2292 269.203 81.2812C268.734 82.3229 268.5 83.5885 268.5 85.0781V86.1562C268.5 87.5521 268.745 88.7812 269.234 89.8438C269.724 90.8958 270.406 91.7188 271.281 92.3125C272.167 92.9062 273.188 93.2031 274.344 93.2031C274.958 93.2031 275.583 93.1406 276.219 93.0156C276.854 92.8802 277.469 92.7031 278.062 92.4844L278.609 89.2656H282.609V95C281.703 95.625 280.547 96.1719 279.141 96.6406C277.734 97.099 276.115 97.3281 274.281 97.3281ZM288.594 97V93.7969L290.969 93.2969V78.5H287.453L287.312 80.9531H283.172V74.25H304.312V80.9531H300.125L300 78.5H296.453V93.2969L298.828 93.7969V97H288.594Z" fill="black" fill-opacity="0.3"/>
<path d="M182.641 438V434.797L185 434.297V418.969L182.641 418.469V415.234H193.828C195.63 415.234 197.193 415.521 198.516 416.094C199.839 416.667 200.859 417.484 201.578 418.547C202.297 419.599 202.656 420.849 202.656 422.297C202.656 423.63 202.292 424.87 201.562 426.016C200.844 427.161 199.854 428.083 198.594 428.781C197.333 429.469 195.896 429.807 194.281 429.797L190.484 429.75V434.297L192.844 434.797V438H182.641ZM197.047 438L193.984 429.125L198.75 427.5L201.516 434.266L203.672 434.812V438H197.047ZM190.484 425.547H193.891C194.953 425.547 195.771 425.302 196.344 424.812C196.917 424.312 197.203 423.594 197.203 422.656C197.203 421.688 196.911 420.911 196.328 420.328C195.745 419.734 194.911 419.438 193.828 419.438H190.484V425.547ZM216.562 438.328C214.604 438.328 212.896 438.016 211.438 437.391C209.99 436.755 208.87 435.828 208.078 434.609C207.286 433.391 206.891 431.901 206.891 430.141V418.969L204.547 418.469V415.25H214.734V418.469L212.375 418.969V430.141C212.375 431.057 212.536 431.818 212.859 432.422C213.182 433.016 213.651 433.458 214.266 433.75C214.891 434.042 215.646 434.188 216.531 434.188C217.448 434.188 218.214 434.042 218.828 433.75C219.453 433.458 219.922 433.016 220.234 432.422C220.557 431.818 220.719 431.057 220.719 430.141V418.969L218.375 418.469V415.25H228.562V418.469L226.203 418.969V430.141C226.203 431.87 225.797 433.349 224.984 434.578C224.172 435.797 223.042 436.729 221.594 437.375C220.156 438.01 218.479 438.328 216.562 438.328ZM229.484 438V434.797L231.844 434.297V418.969L229.484 418.469V415.25H231.844H237.328H240.203V418.469L237.328 418.969V433.797H242.734L242.859 430.625H247.047V438H229.484ZM248.141 438V434.797L250.5 434.297V418.969L248.141 418.469V415.25H266.312V421.812H262.172L262.047 419.469H255.984V424.141H263.25V428.344H255.984V433.766H262.344L262.469 431.312H266.562V438H248.141Z" fill="black" fill-opacity="0.3"/>
</svg>
