<svg width="450" height="512" viewBox="0 0 450 512" fill="none" xmlns="http://www.w3.org/2000/svg">
<g clip-path="url(#clip0_5_451)">
<path d="M212.66 3.35209C220.296 -1.11736 229.704 -1.11737 237.34 3.35209L434.66 118.842C442.296 123.311 447 131.571 447 140.51V371.49C447 380.429 442.296 388.689 434.66 393.158L237.34 508.648C229.704 513.117 220.296 513.117 212.66 508.648L15.3404 393.158C7.70413 388.689 3 380.429 3 371.49V140.51C3 131.571 7.70413 123.311 15.3404 118.842L212.66 3.35209Z" fill="black"/>
<path d="M214.68 6.80426C221.068 3.06525 228.932 3.06525 235.32 6.80426L432.639 122.294C439.034 126.037 443 132.974 443 140.51V371.49C443 379.026 439.034 385.963 432.639 389.706L235.32 505.196C228.932 508.935 221.068 508.935 214.68 505.196L17.3609 389.706C10.9662 385.963 7 379.026 7 371.49V140.51C7 132.974 10.9662 126.037 17.3609 122.294L214.68 6.80426Z" stroke="black" stroke-opacity="0.5" stroke-width="8"/>
<path d="M407 146C407 141.582 410.582 138 415 138C419.418 138 423 141.582 423 146V174.8H407V146Z" fill="black" fill-opacity="0.15"/>
<rect x="407" y="176.8" width="16" height="36.8" fill="black" fill-opacity="0.15"/>
<rect x="407" y="215.6" width="16" height="36.8" fill="black" fill-opacity="0.15"/>
<rect x="407" y="254.4" width="16" height="36.8" fill="black" fill-opacity="0.15"/>
<path d="M407 293.2H423V322C423 326.418 419.418 330 415 330C410.582 330 407 326.418 407 322V293.2Z" fill="white" fill-opacity="0.75"/>
<path d="M28 146C28 141.582 31.5817 138 36 138C40.4183 138 44 141.582 44 146V174.8H28V146Z" fill="black" fill-opacity="0.15"/>
<rect x="28" y="176.8" width="16" height="36.8" fill="black" fill-opacity="0.15"/>
<rect x="28" y="215.6" width="16" height="36.8" fill="black" fill-opacity="0.15"/>
<rect x="28" y="254.4" width="16" height="36.8" fill="white" fill-opacity="0.75"/>
<path d="M28 293.2H44V322C44 326.418 40.4183 330 36 330C31.5817 330 28 326.418 28 322V293.2Z" fill="white" fill-opacity="0.75"/>
<path d="M40.588 363.76L38 362.008V359.992L40.588 358.24C42.716 356.801 44 354.325 44 351.665V349H28V351.665C28 354.325 29.284 356.801 31.412 358.24L34 359.992V362.008L31.412 363.76C29.284 365.199 28 367.675 28 370.335V373H44V370.335C44 367.675 42.716 365.199 40.588 363.76Z" fill="white" fill-opacity="0.75"/>
<path fill-rule="evenodd" clip-rule="evenodd" d="M423.788 358.193L426.539 357.7L427 360.356L424.266 360.845C424.268 360.892 424.274 360.936 424.281 360.981C424.288 361.032 424.295 361.083 424.295 361.135C424.292 362.334 424.062 363.521 423.619 364.631L426.014 366.035L424.686 368.371L422.268 366.953C421.481 367.965 420.498 368.802 419.38 369.412L420.335 372.078L417.84 373L416.899 370.374C415.646 370.641 414.354 370.641 413.101 370.374L412.16 373L409.665 372.078L410.62 369.412C409.502 368.802 408.519 367.965 407.732 366.953L405.314 368.371L403.986 366.035L406.381 364.631C405.938 363.521 405.708 362.334 405.705 361.135C405.705 361.083 405.712 361.032 405.719 360.982C405.726 360.937 405.732 360.892 405.734 360.846L403 360.356L403.461 357.7L406.212 358.193C406.607 356.967 407.247 355.837 408.092 354.874L406.301 352.706L408.335 350.973L410.121 353.134C411.204 352.455 412.413 352.012 413.672 351.833V349H416.328V351.833C417.588 352.012 418.797 352.455 419.879 353.134L421.665 350.972L423.699 352.706L421.908 354.874C422.753 355.837 423.393 356.967 423.788 358.193ZM415.185 363C416.289 363 417.185 362.105 417.185 361C417.185 359.895 416.289 359 415.185 359C414.08 359 413.185 359.895 413.185 361C413.185 362.105 414.08 363 415.185 363Z" fill="white" fill-opacity="0.75"/>
<rect x="82" y="128" width="286" height="4" rx="2" fill="white" fill-opacity="0.3"/>
<rect x="82" y="380" width="286" height="4" rx="2" fill="white" fill-opacity="0.3"/>
<path d="M123.418 180.188C128.103 180.188 131.758 181.099 134.383 182.922C137.008 184.745 138.32 187.47 138.32 191.098C138.32 192.939 137.828 194.589 136.844 196.047C135.878 197.487 134.465 198.572 132.605 199.301C134.993 199.811 136.78 200.905 137.965 202.582C139.168 204.259 139.77 206.201 139.77 208.406C139.77 212.216 138.512 215.105 135.996 217.074C133.48 219.025 129.917 220 125.305 220H105.727V215.215L109.965 214.395V185.82L105.727 185V180.188H109.965H123.418ZM117.949 202.391V213.875H125.305C127.419 213.875 129.033 213.419 130.145 212.508C131.257 211.578 131.812 210.211 131.812 208.406C131.812 206.456 131.339 204.97 130.391 203.949C129.443 202.91 127.948 202.391 125.906 202.391H117.949ZM117.949 196.867H123.691C125.824 196.867 127.465 196.43 128.613 195.555C129.762 194.68 130.336 193.404 130.336 191.727C130.336 189.885 129.753 188.527 128.586 187.652C127.438 186.777 125.715 186.34 123.418 186.34H117.949V196.867ZM163.641 216.254C162.693 217.639 161.517 218.706 160.113 219.453C158.728 220.201 157.142 220.574 155.355 220.574C152.238 220.574 149.796 219.581 148.027 217.594C146.259 215.589 145.375 212.48 145.375 208.27V196.047L142.121 195.227V190.414H145.375H153.359V208.324C153.359 210.475 153.715 212.025 154.426 212.973C155.155 213.902 156.23 214.367 157.652 214.367C158.91 214.367 159.995 214.167 160.906 213.766C161.836 213.346 162.592 212.754 163.176 211.988V196.047L159.676 195.227V190.414H163.176H171.16V214.395L174.742 215.215V220H164.16L163.641 216.254ZM202.031 200.586H196.672L195.824 196.895C195.277 196.457 194.585 196.092 193.746 195.801C192.926 195.509 192.014 195.363 191.012 195.363C189.608 195.363 188.496 195.682 187.676 196.32C186.855 196.94 186.445 197.724 186.445 198.672C186.445 199.565 186.837 200.312 187.621 200.914C188.405 201.497 189.973 202.017 192.324 202.473C195.988 203.202 198.704 204.277 200.473 205.699C202.241 207.103 203.125 209.044 203.125 211.523C203.125 214.185 201.977 216.363 199.68 218.059C197.401 219.736 194.393 220.574 190.656 220.574C188.378 220.574 186.281 220.246 184.367 219.59C182.471 218.915 180.785 217.958 179.309 216.719L179.227 210.074H184.805L185.898 213.93C186.372 214.331 187.02 214.632 187.84 214.832C188.66 215.014 189.517 215.105 190.41 215.105C192.033 215.105 193.263 214.814 194.102 214.23C194.958 213.647 195.387 212.854 195.387 211.852C195.387 210.977 194.958 210.22 194.102 209.582C193.245 208.944 191.668 208.379 189.371 207.887C185.889 207.176 183.255 206.128 181.469 204.742C179.701 203.339 178.816 201.434 178.816 199.027C178.816 196.548 179.837 194.415 181.879 192.629C183.921 190.824 186.828 189.922 190.602 189.922C192.898 189.922 195.068 190.232 197.109 190.852C199.169 191.471 200.783 192.264 201.949 193.23L202.031 200.586ZM206.461 215.215L210.316 214.395V196.047L206.051 195.227V190.414H218.301V214.395L222.129 215.215V220H206.461V215.215ZM218.301 183.332H210.316V177.344H218.301V183.332ZM224.316 215.215L228.145 214.395V196.047L223.906 195.227V190.414H235.582L235.938 194.652C236.922 193.139 238.134 191.964 239.574 191.125C241.014 190.286 242.628 189.867 244.414 189.867C247.404 189.867 249.737 190.806 251.414 192.684C253.091 194.561 253.93 197.505 253.93 201.516V214.395L257.758 215.215V220H242.5V215.215L245.918 214.395V201.543C245.918 199.556 245.517 198.152 244.715 197.332C243.913 196.493 242.701 196.074 241.078 196.074C240.021 196.074 239.073 196.293 238.234 196.73C237.396 197.15 236.694 197.751 236.129 198.535V214.395L239.355 215.215V220H224.316V215.215ZM274.191 220.574C269.926 220.574 266.517 219.207 263.965 216.473C261.413 213.738 260.137 210.266 260.137 206.055V204.961C260.137 200.568 261.34 196.949 263.746 194.105C266.171 191.262 269.415 189.849 273.48 189.867C277.473 189.867 280.572 191.07 282.777 193.477C284.983 195.883 286.086 199.137 286.086 203.238V207.586H268.422L268.367 207.75C268.513 209.701 269.16 211.305 270.309 212.562C271.475 213.82 273.052 214.449 275.039 214.449C276.807 214.449 278.275 214.276 279.441 213.93C280.608 213.565 281.884 213 283.27 212.234L285.43 217.156C284.208 218.122 282.622 218.934 280.672 219.59C278.74 220.246 276.579 220.574 274.191 220.574ZM273.48 196.02C272.004 196.02 270.837 196.585 269.98 197.715C269.124 198.845 268.595 200.331 268.395 202.172L268.477 202.309H278.266V201.598C278.266 199.902 277.865 198.553 277.062 197.551C276.279 196.53 275.085 196.02 273.48 196.02ZM314.031 200.586H308.672L307.824 196.895C307.277 196.457 306.585 196.092 305.746 195.801C304.926 195.509 304.014 195.363 303.012 195.363C301.608 195.363 300.496 195.682 299.676 196.32C298.855 196.94 298.445 197.724 298.445 198.672C298.445 199.565 298.837 200.312 299.621 200.914C300.405 201.497 301.973 202.017 304.324 202.473C307.988 203.202 310.704 204.277 312.473 205.699C314.241 207.103 315.125 209.044 315.125 211.523C315.125 214.185 313.977 216.363 311.68 218.059C309.401 219.736 306.393 220.574 302.656 220.574C300.378 220.574 298.281 220.246 296.367 219.59C294.471 218.915 292.785 217.958 291.309 216.719L291.227 210.074H296.805L297.898 213.93C298.372 214.331 299.02 214.632 299.84 214.832C300.66 215.014 301.517 215.105 302.41 215.105C304.033 215.105 305.263 214.814 306.102 214.23C306.958 213.647 307.387 212.854 307.387 211.852C307.387 210.977 306.958 210.22 306.102 209.582C305.245 208.944 303.668 208.379 301.371 207.887C297.889 207.176 295.255 206.128 293.469 204.742C291.701 203.339 290.816 201.434 290.816 199.027C290.816 196.548 291.837 194.415 293.879 192.629C295.921 190.824 298.828 189.922 302.602 189.922C304.898 189.922 307.068 190.232 309.109 190.852C311.169 191.471 312.783 192.264 313.949 193.23L314.031 200.586ZM342.852 200.586H337.492L336.645 196.895C336.098 196.457 335.405 196.092 334.566 195.801C333.746 195.509 332.835 195.363 331.832 195.363C330.428 195.363 329.316 195.682 328.496 196.32C327.676 196.94 327.266 197.724 327.266 198.672C327.266 199.565 327.658 200.312 328.441 200.914C329.225 201.497 330.793 202.017 333.145 202.473C336.809 203.202 339.525 204.277 341.293 205.699C343.061 207.103 343.945 209.044 343.945 211.523C343.945 214.185 342.797 216.363 340.5 218.059C338.221 219.736 335.214 220.574 331.477 220.574C329.198 220.574 327.102 220.246 325.188 219.59C323.292 218.915 321.605 217.958 320.129 216.719L320.047 210.074H325.625L326.719 213.93C327.193 214.331 327.84 214.632 328.66 214.832C329.48 215.014 330.337 215.105 331.23 215.105C332.853 215.105 334.083 214.814 334.922 214.23C335.779 213.647 336.207 212.854 336.207 211.852C336.207 210.977 335.779 210.22 334.922 209.582C334.065 208.944 332.488 208.379 330.191 207.887C326.71 207.176 324.076 206.128 322.289 204.742C320.521 203.339 319.637 201.434 319.637 199.027C319.637 196.548 320.658 194.415 322.699 192.629C324.741 190.824 327.648 189.922 331.422 189.922C333.719 189.922 335.888 190.232 337.93 190.852C339.99 191.471 341.603 192.264 342.77 193.23L342.852 200.586ZM182.426 246.551L182.262 246.523L171.598 276H166.238L155.629 246.633L155.465 246.66L156.23 264.133V270.395L160.496 271.215V276H144.008V271.215L148.246 270.395V241.82L144.008 241V236.188H148.246H158.664L168.809 265.527H168.973L179.199 236.188H193.91V241L189.645 241.82V270.395L193.91 271.215V276H177.422V271.215L181.66 270.395V264.133L182.426 246.551ZM196.973 260.934C196.973 256.522 198.203 252.913 200.664 250.105C203.143 247.28 206.561 245.867 210.918 245.867C215.293 245.867 218.711 247.271 221.172 250.078C223.651 252.885 224.891 256.504 224.891 260.934V261.508C224.891 265.956 223.651 269.583 221.172 272.391C218.711 275.18 215.311 276.574 210.973 276.574C206.579 276.574 203.143 275.18 200.664 272.391C198.203 269.583 196.973 265.956 196.973 261.508V260.934ZM204.957 261.508C204.957 264.206 205.431 266.375 206.379 268.016C207.327 269.638 208.858 270.449 210.973 270.449C213.033 270.449 214.536 269.629 215.484 267.988C216.451 266.348 216.934 264.188 216.934 261.508V260.934C216.934 258.309 216.451 256.167 215.484 254.508C214.518 252.849 212.996 252.02 210.918 252.02C208.84 252.02 207.327 252.849 206.379 254.508C205.431 256.167 204.957 258.309 204.957 260.934V261.508ZM247.613 272.391C246.684 273.758 245.581 274.797 244.305 275.508C243.047 276.219 241.607 276.574 239.984 276.574C236.339 276.574 233.504 275.243 231.48 272.582C229.475 269.921 228.473 266.402 228.473 262.027V261.453C228.473 256.786 229.484 253.022 231.508 250.16C233.531 247.298 236.375 245.867 240.039 245.867C241.516 245.867 242.846 246.195 244.031 246.852C245.216 247.49 246.255 248.401 247.148 249.586V238.977L242.883 238.156V233.344H247.148H255.133V270.395L258.961 271.215V276H248.215L247.613 272.391ZM236.457 262.027C236.457 264.616 236.885 266.658 237.742 268.152C238.617 269.629 240.039 270.367 242.008 270.367C243.174 270.367 244.186 270.13 245.043 269.656C245.9 269.182 246.602 268.499 247.148 267.605V255.055C246.602 254.107 245.9 253.378 245.043 252.867C244.204 252.339 243.211 252.074 242.062 252.074C240.112 252.074 238.69 252.94 237.797 254.672C236.904 256.404 236.457 258.664 236.457 261.453V262.027ZM275.668 276.574C271.402 276.574 267.993 275.207 265.441 272.473C262.889 269.738 261.613 266.266 261.613 262.055V260.961C261.613 256.568 262.816 252.949 265.223 250.105C267.647 247.262 270.892 245.849 274.957 245.867C278.949 245.867 282.048 247.07 284.254 249.477C286.46 251.883 287.562 255.137 287.562 259.238V263.586H269.898L269.844 263.75C269.99 265.701 270.637 267.305 271.785 268.562C272.952 269.82 274.529 270.449 276.516 270.449C278.284 270.449 279.751 270.276 280.918 269.93C282.085 269.565 283.361 269 284.746 268.234L286.906 273.156C285.685 274.122 284.099 274.934 282.148 275.59C280.216 276.246 278.056 276.574 275.668 276.574ZM274.957 252.02C273.48 252.02 272.314 252.585 271.457 253.715C270.6 254.845 270.072 256.331 269.871 258.172L269.953 258.309H279.742V257.598C279.742 255.902 279.341 254.553 278.539 253.551C277.755 252.53 276.561 252.02 274.957 252.02ZM290.516 238.156V233.344H302.766V270.395L306.621 271.215V276H290.926V271.215L294.781 270.395V238.977L290.516 238.156ZM162.273 305.613H156.34L155.52 300.309C154.736 299.525 153.742 298.905 152.539 298.449C151.354 297.993 149.951 297.766 148.328 297.766C144.865 297.766 142.194 299.023 140.316 301.539C138.457 304.055 137.527 307.336 137.527 311.383V312.777C137.527 316.824 138.457 320.115 140.316 322.648C142.176 325.182 144.801 326.449 148.191 326.449C149.759 326.449 151.19 326.221 152.484 325.766C153.797 325.31 154.809 324.69 155.52 323.906L156.34 318.602H162.273V326.477C160.669 328.336 158.618 329.822 156.121 330.934C153.642 332.027 150.862 332.574 147.781 332.574C142.44 332.574 138.065 330.724 134.656 327.023C131.247 323.323 129.543 318.574 129.543 312.777V311.438C129.543 305.659 131.238 300.91 134.629 297.191C138.02 293.473 142.404 291.613 147.781 291.613C150.862 291.613 153.642 292.178 156.121 293.309C158.6 294.421 160.651 295.897 162.273 297.738V305.613ZM184.996 332C184.777 331.508 184.586 331.007 184.422 330.496C184.258 329.967 184.13 329.439 184.039 328.91C183.091 330.004 181.934 330.888 180.566 331.562C179.217 332.237 177.668 332.574 175.918 332.574C173.02 332.574 170.714 331.79 169 330.223C167.305 328.637 166.457 326.486 166.457 323.77C166.457 320.999 167.569 318.857 169.793 317.344C172.017 315.831 175.28 315.074 179.582 315.074H183.656V312.176C183.656 310.754 183.246 309.651 182.426 308.867C181.605 308.083 180.393 307.691 178.789 307.691C177.878 307.691 177.066 307.801 176.355 308.02C175.645 308.22 175.07 308.466 174.633 308.758L174.113 311.93H168.098L168.125 305.367C169.583 304.383 171.251 303.553 173.129 302.879C175.025 302.204 177.085 301.867 179.309 301.867C182.973 301.867 185.944 302.77 188.223 304.574C190.52 306.361 191.668 308.913 191.668 312.23V324.453C191.668 324.909 191.668 325.337 191.668 325.738C191.686 326.139 191.723 326.522 191.777 326.887L194.211 327.215V332H184.996ZM178.078 326.668C179.281 326.668 180.375 326.413 181.359 325.902C182.344 325.374 183.109 324.717 183.656 323.934V319.422H179.582C177.887 319.422 176.602 319.823 175.727 320.625C174.852 321.409 174.414 322.357 174.414 323.469C174.414 324.471 174.733 325.255 175.371 325.82C176.027 326.385 176.93 326.668 178.078 326.668ZM196.508 327.215L200.336 326.395V308.047L196.098 307.227V302.414H207.773L208.129 306.652C209.113 305.139 210.326 303.964 211.766 303.125C213.206 302.286 214.819 301.867 216.605 301.867C219.595 301.867 221.928 302.806 223.605 304.684C225.283 306.561 226.121 309.505 226.121 313.516V326.395L229.949 327.215V332H214.691V327.215L218.109 326.395V313.543C218.109 311.556 217.708 310.152 216.906 309.332C216.104 308.493 214.892 308.074 213.27 308.074C212.212 308.074 211.264 308.293 210.426 308.73C209.587 309.15 208.885 309.751 208.32 310.535V326.395L211.547 327.215V332H196.508V327.215ZM245.043 307.227L242.254 307.746L246.164 320.98L246.684 323.77H246.848L247.422 320.98L251.277 307.773L248.434 307.227V302.414H261.859V307.227L259.289 307.637L250.566 332H242.938L234.188 307.637L231.617 307.227V302.414H245.043V307.227ZM282.832 332C282.613 331.508 282.422 331.007 282.258 330.496C282.094 329.967 281.966 329.439 281.875 328.91C280.927 330.004 279.77 330.888 278.402 331.562C277.053 332.237 275.504 332.574 273.754 332.574C270.855 332.574 268.549 331.79 266.836 330.223C265.141 328.637 264.293 326.486 264.293 323.77C264.293 320.999 265.405 318.857 267.629 317.344C269.853 315.831 273.116 315.074 277.418 315.074H281.492V312.176C281.492 310.754 281.082 309.651 280.262 308.867C279.441 308.083 278.229 307.691 276.625 307.691C275.714 307.691 274.902 307.801 274.191 308.02C273.48 308.22 272.906 308.466 272.469 308.758L271.949 311.93H265.934L265.961 305.367C267.419 304.383 269.087 303.553 270.965 302.879C272.861 302.204 274.921 301.867 277.145 301.867C280.809 301.867 283.78 302.77 286.059 304.574C288.355 306.361 289.504 308.913 289.504 312.23V324.453C289.504 324.909 289.504 325.337 289.504 325.738C289.522 326.139 289.559 326.522 289.613 326.887L292.047 327.215V332H282.832ZM275.914 326.668C277.117 326.668 278.211 326.413 279.195 325.902C280.18 325.374 280.945 324.717 281.492 323.934V319.422H277.418C275.723 319.422 274.438 319.823 273.562 320.625C272.688 321.409 272.25 322.357 272.25 323.469C272.25 324.471 272.569 325.255 273.207 325.82C273.863 326.385 274.766 326.668 275.914 326.668ZM318.926 312.586H313.566L312.719 308.895C312.172 308.457 311.479 308.092 310.641 307.801C309.82 307.509 308.909 307.363 307.906 307.363C306.503 307.363 305.391 307.682 304.57 308.32C303.75 308.94 303.34 309.724 303.34 310.672C303.34 311.565 303.732 312.312 304.516 312.914C305.299 313.497 306.867 314.017 309.219 314.473C312.883 315.202 315.599 316.277 317.367 317.699C319.135 319.103 320.02 321.044 320.02 323.523C320.02 326.185 318.871 328.363 316.574 330.059C314.296 331.736 311.288 332.574 307.551 332.574C305.272 332.574 303.176 332.246 301.262 331.59C299.366 330.915 297.68 329.958 296.203 328.719L296.121 322.074H301.699L302.793 325.93C303.267 326.331 303.914 326.632 304.734 326.832C305.555 327.014 306.411 327.105 307.305 327.105C308.927 327.105 310.158 326.814 310.996 326.23C311.853 325.647 312.281 324.854 312.281 323.852C312.281 322.977 311.853 322.22 310.996 321.582C310.139 320.944 308.562 320.379 306.266 319.887C302.784 319.176 300.15 318.128 298.363 316.742C296.595 315.339 295.711 313.434 295.711 311.027C295.711 308.548 296.732 306.415 298.773 304.629C300.815 302.824 303.723 301.922 307.496 301.922C309.793 301.922 311.962 302.232 314.004 302.852C316.064 303.471 317.677 304.264 318.844 305.23L318.926 312.586Z" fill="white"/>
<path d="M145.75 97V93.7969L148.094 93.2969V77.9688L145.75 77.4688V74.25H148.094H156.484L161.984 89.2344H162.078L167.422 74.25H178.031V77.4688L175.672 77.9688V93.2969L178.031 93.7969V97H167.844V93.7969L170.297 93.2969V90.3281L170.422 79.625L170.328 79.6094L163.891 97H159.578L153.047 79.8125L152.938 79.8281L153.312 89.5781V93.2969L155.953 93.7969V97H145.75ZM176.266 97V93.7969L177.859 93.5625L184.641 74.25H190.578L197.375 93.5625L198.969 93.7969V97H190.469V93.7969L191.953 93.5156L191.266 91.0469H183.953L183.297 93.5156L184.781 93.7969V97H176.266ZM185.109 87.2031H190.094L187.875 80.3125L187.625 79.5156H187.531L187.266 80.3906L185.109 87.2031ZM210.297 97.3281C208.13 97.3281 206.198 96.8906 204.5 96.0156C202.802 95.1406 201.469 93.875 200.5 92.2188C199.531 90.5521 199.047 88.5312 199.047 86.1562V85.1094C199.047 82.9219 199.49 80.9896 200.375 79.3125C201.271 77.625 202.542 76.3073 204.188 75.3594C205.844 74.401 207.807 73.9219 210.078 73.9219C211.661 73.9219 213.167 74.1354 214.594 74.5625C216.031 74.9792 217.365 75.6979 218.594 76.7188V82.5781H214.609L214.062 79.2188C213.708 78.9792 213.333 78.7708 212.938 78.5938C212.552 78.4167 212.135 78.2812 211.688 78.1875C211.25 78.0938 210.776 78.0469 210.266 78.0469C209.109 78.0469 208.099 78.3229 207.234 78.875C206.37 79.4271 205.698 80.2292 205.219 81.2812C204.75 82.3229 204.516 83.5885 204.516 85.0781V86.1562C204.516 87.5521 204.76 88.7812 205.25 89.8438C205.74 90.8958 206.422 91.7188 207.297 92.3125C208.182 92.9062 209.203 93.2031 210.359 93.2031C210.974 93.2031 211.599 93.1406 212.234 93.0156C212.87 92.8802 213.484 92.7031 214.078 92.4844L214.625 89.2656H218.625V95C217.719 95.625 216.562 96.1719 215.156 96.6406C213.75 97.099 212.13 97.3281 210.297 97.3281ZM220.062 97V93.7969L222.422 93.2969V77.9688L220.062 77.4688V74.25H230.266V77.4688L227.906 77.9688V83.7188H236.188V77.9688L233.828 77.4688V74.25H236.188H241.656H244.016V77.4688L241.656 77.9688V93.2969L244.016 93.7969V97H233.828V93.7969L236.188 93.2969V87.9219H227.906V93.2969L230.266 93.7969V97H220.062ZM245.281 97V93.7969L247.641 93.2969V77.9688L245.281 77.4688V74.25H255.469V77.4688L253.109 77.9688V93.2969L255.469 93.7969V97H245.281ZM256.703 97V93.7969L259.047 93.2969V77.9688L256.703 77.4688V74.25H259.047H264.625L273.75 88.8125H273.844V77.9688L270.859 77.4688V74.25H278.703H281.062V77.4688L278.703 77.9688V97H273.297L264 82.75H263.906V93.2969L266.906 93.7969V97H256.703ZM281.906 97V93.7969L284.266 93.2969V77.9688L281.906 77.4688V74.25H300.078V80.8125H295.938L295.812 78.4688H289.75V83.1406H297.016V87.3438H289.75V92.7656H296.109L296.234 90.3125H300.328V97H281.906Z" fill="white" fill-opacity="0.5"/>
</g>
<defs>
<clipPath id="clip0_5_451">
<rect width="450" height="512" fill="white"/>
</clipPath>
</defs>
</svg>
