<svg width="450" height="512" viewBox="0 0 450 512" fill="none" xmlns="http://www.w3.org/2000/svg">
<path d="M212.66 3.35209C220.296 -1.11736 229.704 -1.11737 237.34 3.35209L434.66 118.842C442.296 123.311 447 131.571 447 140.51V371.49C447 380.429 442.296 388.689 434.66 393.158L237.34 508.648C229.704 513.117 220.296 513.117 212.66 508.648L15.3404 393.158C7.70413 388.689 3 380.429 3 371.49V140.51C3 131.571 7.70413 123.311 15.3404 118.842L212.66 3.35209Z" fill="white"/>
<path d="M214.68 6.80426C221.068 3.06525 228.932 3.06525 235.32 6.80426L432.639 122.294C439.034 126.037 443 132.974 443 140.51V371.49C443 379.026 439.034 385.963 432.639 389.706L235.32 505.196C228.932 508.935 221.068 508.935 214.68 505.196L17.3609 389.706C10.9662 385.963 7 379.026 7 371.49V140.51C7 132.974 10.9662 126.037 17.3609 122.294L214.68 6.80426Z" stroke="black" stroke-opacity="0.5" stroke-width="8"/>
<rect x="82" y="128" width="286" height="4" rx="2" fill="black" fill-opacity="0.3"/>
<rect x="82" y="380" width="286" height="4" rx="2" fill="black" fill-opacity="0.3"/>
<path d="M153.004 221.613H147.07L146.25 216.309C145.466 215.525 144.473 214.905 143.27 214.449C142.085 213.993 140.681 213.766 139.059 213.766C135.595 213.766 132.924 215.023 131.047 217.539C129.188 220.055 128.258 223.336 128.258 227.383V228.777C128.258 232.824 129.188 236.115 131.047 238.648C132.906 241.182 135.531 242.449 138.922 242.449C140.49 242.449 141.921 242.221 143.215 241.766C144.527 241.31 145.539 240.69 146.25 239.906L147.07 234.602H153.004V242.477C151.4 244.336 149.349 245.822 146.852 246.934C144.372 248.027 141.592 248.574 138.512 248.574C133.171 248.574 128.796 246.724 125.387 243.023C121.978 239.323 120.273 234.574 120.273 228.777V227.438C120.273 221.659 121.969 216.91 125.359 213.191C128.75 209.473 133.134 207.613 138.512 207.613C141.592 207.613 144.372 208.178 146.852 209.309C149.331 210.421 151.382 211.897 153.004 213.738V221.613ZM180.73 233.18H185.242V238.484H180.73V242.395L184.969 243.215V248H168.508V243.215L172.773 242.395V238.484H156.531L156.148 234.574L172.691 208.188H180.73V233.18ZM163.613 233.18H172.773V218.824L172.609 218.77L171.953 219.918L163.613 233.18ZM234.598 221.613H228.664L227.844 216.309C227.06 215.525 226.066 214.905 224.863 214.449C223.678 213.993 222.275 213.766 220.652 213.766C217.189 213.766 214.518 215.023 212.641 217.539C210.781 220.055 209.852 223.336 209.852 227.383V228.777C209.852 232.824 210.781 236.115 212.641 238.648C214.5 241.182 217.125 242.449 220.516 242.449C222.083 242.449 223.514 242.221 224.809 241.766C226.121 241.31 227.133 240.69 227.844 239.906L228.664 234.602H234.598V242.477C232.993 244.336 230.943 245.822 228.445 246.934C225.966 248.027 223.186 248.574 220.105 248.574C214.764 248.574 210.389 246.724 206.98 243.023C203.572 239.323 201.867 234.574 201.867 228.777V227.438C201.867 221.659 203.562 216.91 206.953 213.191C210.344 209.473 214.728 207.613 220.105 207.613C223.186 207.613 225.966 208.178 228.445 209.309C230.924 210.421 232.975 211.897 234.598 213.738V221.613ZM238.48 232.934C238.48 228.522 239.711 224.913 242.172 222.105C244.651 219.28 248.069 217.867 252.426 217.867C256.801 217.867 260.219 219.271 262.68 222.078C265.159 224.885 266.398 228.504 266.398 232.934V233.508C266.398 237.956 265.159 241.583 262.68 244.391C260.219 247.18 256.819 248.574 252.48 248.574C248.087 248.574 244.651 247.18 242.172 244.391C239.711 241.583 238.48 237.956 238.48 233.508V232.934ZM246.465 233.508C246.465 236.206 246.939 238.375 247.887 240.016C248.835 241.638 250.366 242.449 252.48 242.449C254.54 242.449 256.044 241.629 256.992 239.988C257.958 238.348 258.441 236.188 258.441 233.508V232.934C258.441 230.309 257.958 228.167 256.992 226.508C256.026 224.849 254.504 224.02 252.426 224.02C250.348 224.02 248.835 224.849 247.887 226.508C246.939 228.167 246.465 230.309 246.465 232.934V233.508ZM289.121 244.391C288.191 245.758 287.089 246.797 285.812 247.508C284.555 248.219 283.115 248.574 281.492 248.574C277.846 248.574 275.012 247.243 272.988 244.582C270.983 241.921 269.98 238.402 269.98 234.027V233.453C269.98 228.786 270.992 225.022 273.016 222.16C275.039 219.298 277.883 217.867 281.547 217.867C283.023 217.867 284.354 218.195 285.539 218.852C286.724 219.49 287.763 220.401 288.656 221.586V210.977L284.391 210.156V205.344H288.656H296.641V242.395L300.469 243.215V248H289.723L289.121 244.391ZM277.965 234.027C277.965 236.616 278.393 238.658 279.25 240.152C280.125 241.629 281.547 242.367 283.516 242.367C284.682 242.367 285.694 242.13 286.551 241.656C287.408 241.182 288.109 240.499 288.656 239.605V227.055C288.109 226.107 287.408 225.378 286.551 224.867C285.712 224.339 284.719 224.074 283.57 224.074C281.62 224.074 280.198 224.94 279.305 226.672C278.411 228.404 277.965 230.664 277.965 233.453V234.027ZM317.176 248.574C312.91 248.574 309.501 247.207 306.949 244.473C304.397 241.738 303.121 238.266 303.121 234.055V232.961C303.121 228.568 304.324 224.949 306.73 222.105C309.155 219.262 312.4 217.849 316.465 217.867C320.457 217.867 323.556 219.07 325.762 221.477C327.967 223.883 329.07 227.137 329.07 231.238V235.586H311.406L311.352 235.75C311.497 237.701 312.145 239.305 313.293 240.562C314.46 241.82 316.036 242.449 318.023 242.449C319.792 242.449 321.259 242.276 322.426 241.93C323.592 241.565 324.868 241 326.254 240.234L328.414 245.156C327.193 246.122 325.607 246.934 323.656 247.59C321.724 248.246 319.564 248.574 317.176 248.574ZM316.465 224.02C314.988 224.02 313.822 224.585 312.965 225.715C312.108 226.845 311.579 228.331 311.379 230.172L311.461 230.309H321.25V229.598C321.25 227.902 320.849 226.553 320.047 225.551C319.263 224.53 318.069 224.02 316.465 224.02ZM131.758 264.188C136.625 264.188 140.635 265.746 143.789 268.863C146.943 271.962 148.52 275.945 148.52 280.812V287.402C148.52 292.288 146.943 296.28 143.789 299.379C140.635 302.46 136.625 304 131.758 304H113.848V299.215L118.086 298.395V269.82L113.848 269V264.188H118.086H131.758ZM126.07 270.34V297.875H131.348C134.21 297.875 136.452 296.909 138.074 294.977C139.697 293.044 140.508 290.52 140.508 287.402V280.758C140.508 277.677 139.697 275.171 138.074 273.238C136.452 271.306 134.21 270.34 131.348 270.34H126.07ZM152.402 299.215L156.258 298.395V280.047L151.992 279.227V274.414H164.242V298.395L168.07 299.215V304H152.402V299.215ZM164.242 267.332H156.258V261.344H164.242V267.332ZM189.535 304C189.316 303.508 189.125 303.007 188.961 302.496C188.797 301.967 188.669 301.439 188.578 300.91C187.63 302.004 186.473 302.888 185.105 303.562C183.757 304.237 182.207 304.574 180.457 304.574C177.559 304.574 175.253 303.79 173.539 302.223C171.844 300.637 170.996 298.486 170.996 295.77C170.996 292.999 172.108 290.857 174.332 289.344C176.556 287.831 179.819 287.074 184.121 287.074H188.195V284.176C188.195 282.754 187.785 281.651 186.965 280.867C186.145 280.083 184.932 279.691 183.328 279.691C182.417 279.691 181.605 279.801 180.895 280.02C180.184 280.22 179.609 280.466 179.172 280.758L178.652 283.93H172.637L172.664 277.367C174.122 276.383 175.79 275.553 177.668 274.879C179.564 274.204 181.624 273.867 183.848 273.867C187.512 273.867 190.483 274.77 192.762 276.574C195.059 278.361 196.207 280.913 196.207 284.23V296.453C196.207 296.909 196.207 297.337 196.207 297.738C196.225 298.139 196.262 298.522 196.316 298.887L198.75 299.215V304H189.535ZM182.617 298.668C183.82 298.668 184.914 298.413 185.898 297.902C186.883 297.374 187.648 296.717 188.195 295.934V291.422H184.121C182.426 291.422 181.141 291.823 180.266 292.625C179.391 293.409 178.953 294.357 178.953 295.469C178.953 296.471 179.272 297.255 179.91 297.82C180.566 298.385 181.469 298.668 182.617 298.668ZM201.977 289.453C201.977 284.786 202.988 281.022 205.012 278.16C207.053 275.298 209.906 273.867 213.57 273.867C215.229 273.867 216.688 274.241 217.945 274.988C219.203 275.717 220.279 276.766 221.172 278.133L221.746 274.414H228.691V303.125C228.691 307.026 227.461 310.134 225 312.449C222.557 314.783 219.194 315.949 214.91 315.949C213.415 315.949 211.829 315.74 210.152 315.32C208.475 314.919 206.926 314.363 205.504 313.652L206.98 308.047C208.257 308.594 209.533 309.022 210.809 309.332C212.085 309.66 213.434 309.824 214.855 309.824C216.806 309.824 218.264 309.232 219.23 308.047C220.197 306.862 220.68 305.212 220.68 303.098V301.156C219.805 302.268 218.775 303.116 217.59 303.699C216.405 304.283 215.047 304.574 213.516 304.574C209.888 304.574 207.053 303.243 205.012 300.582C202.988 297.902 201.977 294.384 201.977 290.027V289.453ZM209.961 290.027C209.961 292.616 210.398 294.658 211.273 296.152C212.148 297.629 213.57 298.367 215.539 298.367C216.76 298.367 217.79 298.148 218.629 297.711C219.486 297.255 220.169 296.599 220.68 295.742V282.891C220.169 281.997 219.486 281.305 218.629 280.812C217.79 280.32 216.779 280.074 215.594 280.074C213.643 280.074 212.212 280.94 211.301 282.672C210.408 284.404 209.961 286.664 209.961 289.453V290.027ZM234.078 299.215L237.906 298.395V280.047L233.668 279.227V274.414H245.344L245.699 278.734C246.392 277.203 247.285 276.009 248.379 275.152C249.473 274.296 250.74 273.867 252.18 273.867C252.599 273.867 253.036 273.904 253.492 273.977C253.966 274.031 254.358 274.104 254.668 274.195L253.82 281.469L250.539 281.387C249.372 281.387 248.406 281.615 247.641 282.07C246.875 282.526 246.292 283.173 245.891 284.012V298.395L249.719 299.215V304H234.078V299.215ZM275.34 304C275.121 303.508 274.93 303.007 274.766 302.496C274.602 301.967 274.474 301.439 274.383 300.91C273.435 302.004 272.277 302.888 270.91 303.562C269.561 304.237 268.012 304.574 266.262 304.574C263.363 304.574 261.057 303.79 259.344 302.223C257.648 300.637 256.801 298.486 256.801 295.77C256.801 292.999 257.913 290.857 260.137 289.344C262.361 287.831 265.624 287.074 269.926 287.074H274V284.176C274 282.754 273.59 281.651 272.77 280.867C271.949 280.083 270.737 279.691 269.133 279.691C268.221 279.691 267.41 279.801 266.699 280.02C265.988 280.22 265.414 280.466 264.977 280.758L264.457 283.93H258.441L258.469 277.367C259.927 276.383 261.595 275.553 263.473 274.879C265.368 274.204 267.428 273.867 269.652 273.867C273.316 273.867 276.288 274.77 278.566 276.574C280.863 278.361 282.012 280.913 282.012 284.23V296.453C282.012 296.909 282.012 297.337 282.012 297.738C282.03 298.139 282.066 298.522 282.121 298.887L284.555 299.215V304H275.34ZM268.422 298.668C269.625 298.668 270.719 298.413 271.703 297.902C272.688 297.374 273.453 296.717 274 295.934V291.422H269.926C268.23 291.422 266.945 291.823 266.07 292.625C265.195 293.409 264.758 294.357 264.758 295.469C264.758 296.471 265.077 297.255 265.715 297.82C266.371 298.385 267.273 298.668 268.422 298.668ZM286.359 279.227V274.414H298.035L298.363 278.324C299.311 276.902 300.496 275.809 301.918 275.043C303.358 274.259 305.017 273.867 306.895 273.867C308.79 273.867 310.413 274.286 311.762 275.125C313.111 275.964 314.132 277.23 314.824 278.926C315.736 277.34 316.921 276.1 318.379 275.207C319.837 274.314 321.551 273.867 323.52 273.867C326.436 273.867 328.733 274.879 330.41 276.902C332.105 278.908 332.953 281.97 332.953 286.09V298.395L336.809 299.215V304H321.523V299.215L324.969 298.395V286.062C324.969 283.82 324.604 282.262 323.875 281.387C323.146 280.512 322.061 280.074 320.621 280.074C319.491 280.074 318.507 280.329 317.668 280.84C316.848 281.332 316.191 282.025 315.699 282.918C315.699 283.264 315.708 283.565 315.727 283.82C315.745 284.057 315.754 284.303 315.754 284.559V298.395L318.98 299.215V304H304.57V299.215L307.797 298.395V286.062C307.797 283.875 307.432 282.335 306.703 281.441C305.974 280.53 304.88 280.074 303.422 280.074C302.346 280.074 301.398 280.284 300.578 280.703C299.776 281.104 299.111 281.678 298.582 282.426V298.395L302.027 299.215V304H286.77V299.215L290.625 298.395V280.047L286.359 279.227Z" fill="black"/>
<path d="M145.844 97V93.7969L147.438 93.5625L154.219 74.25H160.156L166.953 93.5625L168.547 93.7969V97H160.047V93.7969L161.531 93.5156L160.844 91.0469H153.531L152.875 93.5156L154.359 93.7969V97H145.844ZM154.688 87.2031H159.672L157.453 80.3125L157.203 79.5156H157.109L156.844 80.3906L154.688 87.2031ZM169.547 97V93.7969L171.906 93.2969V77.9688L169.547 77.4688V74.2344H180.734C182.536 74.2344 184.099 74.5208 185.422 75.0938C186.745 75.6667 187.766 76.4844 188.484 77.5469C189.203 78.599 189.562 79.849 189.562 81.2969C189.562 82.6302 189.198 83.8698 188.469 85.0156C187.75 86.1615 186.76 87.0833 185.5 87.7812C184.24 88.4688 182.802 88.8073 181.188 88.7969L177.391 88.75V93.2969L179.75 93.7969V97H169.547ZM183.953 97L180.891 88.125L185.656 86.5L188.422 93.2656L190.578 93.8125V97H183.953ZM177.391 84.5469H180.797C181.859 84.5469 182.677 84.3021 183.25 83.8125C183.823 83.3125 184.109 82.5938 184.109 81.6562C184.109 80.6875 183.818 79.9115 183.234 79.3281C182.651 78.7344 181.818 78.4375 180.734 78.4375H177.391V84.5469ZM196.312 97V93.7969L198.688 93.2969V78.5H195.172L195.031 80.9531H190.891V74.25H212.031V80.9531H207.844L207.719 78.5H204.172V93.2969L206.547 93.7969V97H196.312ZM212.859 97V93.7969L215.219 93.2969V77.9688L212.859 77.4688V74.25H223.047V77.4688L220.688 77.9688V93.2969L223.047 93.7969V97H212.859ZM224.297 97V93.7969L226.656 93.2969V77.9688L224.297 77.4688V74.25H243.031V80.9531H238.891L238.781 78.4688H232.141V83.7344H239.875V87.9219H232.141V93.2969L234.5 93.7969V97H224.297ZM240.25 97V93.7969L241.844 93.5625L248.625 74.25H254.562L261.359 93.5625L262.953 93.7969V97H254.453V93.7969L255.938 93.5156L255.25 91.0469H247.938L247.281 93.5156L248.766 93.7969V97H240.25ZM249.094 87.2031H254.078L251.859 80.3125L251.609 79.5156H251.516L251.25 80.3906L249.094 87.2031ZM274.281 97.3281C272.115 97.3281 270.182 96.8906 268.484 96.0156C266.786 95.1406 265.453 93.875 264.484 92.2188C263.516 90.5521 263.031 88.5312 263.031 86.1562V85.1094C263.031 82.9219 263.474 80.9896 264.359 79.3125C265.255 77.625 266.526 76.3073 268.172 75.3594C269.828 74.401 271.792 73.9219 274.062 73.9219C275.646 73.9219 277.151 74.1354 278.578 74.5625C280.016 74.9792 281.349 75.6979 282.578 76.7188V82.5781H278.594L278.047 79.2188C277.693 78.9792 277.318 78.7708 276.922 78.5938C276.536 78.4167 276.12 78.2812 275.672 78.1875C275.234 78.0938 274.76 78.0469 274.25 78.0469C273.094 78.0469 272.083 78.3229 271.219 78.875C270.354 79.4271 269.682 80.2292 269.203 81.2812C268.734 82.3229 268.5 83.5885 268.5 85.0781V86.1562C268.5 87.5521 268.745 88.7812 269.234 89.8438C269.724 90.8958 270.406 91.7188 271.281 92.3125C272.167 92.9062 273.188 93.2031 274.344 93.2031C274.958 93.2031 275.583 93.1406 276.219 93.0156C276.854 92.8802 277.469 92.7031 278.062 92.4844L278.609 89.2656H282.609V95C281.703 95.625 280.547 96.1719 279.141 96.6406C277.734 97.099 276.115 97.3281 274.281 97.3281ZM288.594 97V93.7969L290.969 93.2969V78.5H287.453L287.312 80.9531H283.172V74.25H304.312V80.9531H300.125L300 78.5H296.453V93.2969L298.828 93.7969V97H288.594Z" fill="black" fill-opacity="0.3"/>
<path d="M187.969 438V434.797L190.312 434.297V418.969L187.969 418.469V415.25H190.312H198.703L204.203 430.234H204.297L209.641 415.25H220.25V418.469L217.891 418.969V434.297L220.25 434.797V438H210.062V434.797L212.516 434.297V431.328L212.641 420.625L212.547 420.609L206.109 438H201.797L195.266 420.812L195.156 420.828L195.531 430.578V434.297L198.172 434.797V438H187.969ZM218.484 438V434.797L220.078 434.562L226.859 415.25H232.797L239.594 434.562L241.188 434.797V438H232.688V434.797L234.172 434.516L233.484 432.047H226.172L225.516 434.516L227 434.797V438H218.484ZM227.328 428.203H232.312L230.094 421.312L229.844 420.516H229.75L229.484 421.391L227.328 428.203ZM242.188 438V434.797L244.547 434.297V418.969L242.188 418.469V415.25H244.547H253.25C255.062 415.25 256.635 415.568 257.969 416.203C259.302 416.839 260.328 417.724 261.047 418.859C261.776 419.984 262.141 421.297 262.141 422.797C262.141 424.297 261.776 425.609 261.047 426.734C260.328 427.859 259.302 428.734 257.969 429.359C256.635 429.984 255.062 430.297 253.25 430.297H250.031V434.297L252.391 434.797V438H242.188ZM250.031 426.094H253.25C254.365 426.094 255.208 425.792 255.781 425.188C256.365 424.573 256.656 423.786 256.656 422.828C256.656 421.839 256.365 421.026 255.781 420.391C255.208 419.755 254.365 419.438 253.25 419.438H250.031V426.094Z" fill="black" fill-opacity="0.3"/>
</svg>
