<svg width="450" height="512" viewBox="0 0 450 512" fill="none" xmlns="http://www.w3.org/2000/svg">
<path d="M212.66 3.35209C220.296 -1.11736 229.704 -1.11737 237.34 3.35209L434.66 118.842C442.296 123.311 447 131.571 447 140.51V371.49C447 380.429 442.296 388.689 434.66 393.158L237.34 508.648C229.704 513.117 220.296 513.117 212.66 508.648L15.3404 393.158C7.70413 388.689 3 380.429 3 371.49V140.51C3 131.571 7.70413 123.311 15.3404 118.842L212.66 3.35209Z" fill="white"/>
<path d="M214.68 6.80426C221.068 3.06525 228.932 3.06525 235.32 6.80426L432.639 122.294C439.034 126.037 443 132.974 443 140.51V371.49C443 379.026 439.034 385.963 432.639 389.706L235.32 505.196C228.932 508.935 221.068 508.935 214.68 505.196L17.3609 389.706C10.9662 385.963 7 379.026 7 371.49V140.51C7 132.974 10.9662 126.037 17.3609 122.294L214.68 6.80426Z" stroke="black" stroke-opacity="0.5" stroke-width="8"/>
<rect x="82" y="128" width="286" height="4" rx="2" fill="black" fill-opacity="0.3"/>
<rect x="82" y="380" width="286" height="4" rx="2" fill="black" fill-opacity="0.3"/>
<path d="M87.5156 221.613H81.582L80.7617 216.309C79.9779 215.525 78.9844 214.905 77.7812 214.449C76.5964 213.993 75.1927 213.766 73.5703 213.766C70.1068 213.766 67.4362 215.023 65.5586 217.539C63.6992 220.055 62.7695 223.336 62.7695 227.383V228.777C62.7695 232.824 63.6992 236.115 65.5586 238.648C67.418 241.182 70.043 242.449 73.4336 242.449C75.0013 242.449 76.4323 242.221 77.7266 241.766C79.0391 241.31 80.0508 240.69 80.7617 239.906L81.582 234.602H87.5156V242.477C85.9115 244.336 83.8607 245.822 81.3633 246.934C78.8841 248.027 76.1042 248.574 73.0234 248.574C67.6823 248.574 63.3073 246.724 59.8984 243.023C56.4896 239.323 54.7852 234.574 54.7852 228.777V227.438C54.7852 221.659 56.4805 216.91 59.8711 213.191C63.2617 209.473 67.6458 207.613 73.0234 207.613C76.1042 207.613 78.8841 208.178 81.3633 209.309C83.8424 210.421 85.8932 211.897 87.5156 213.738V221.613ZM115.242 233.18H119.754V238.484H115.242V242.395L119.48 243.215V248H103.02V243.215L107.285 242.395V238.484H91.043L90.6602 234.574L107.203 208.188H115.242V233.18ZM98.125 233.18H107.285V218.824L107.121 218.77L106.465 219.918L98.125 233.18ZM169.109 221.613H163.176L162.355 216.309C161.572 215.525 160.578 214.905 159.375 214.449C158.19 213.993 156.786 213.766 155.164 213.766C151.701 213.766 149.03 215.023 147.152 217.539C145.293 220.055 144.363 223.336 144.363 227.383V228.777C144.363 232.824 145.293 236.115 147.152 238.648C149.012 241.182 151.637 242.449 155.027 242.449C156.595 242.449 158.026 242.221 159.32 241.766C160.633 241.31 161.645 240.69 162.355 239.906L163.176 234.602H169.109V242.477C167.505 244.336 165.454 245.822 162.957 246.934C160.478 248.027 157.698 248.574 154.617 248.574C149.276 248.574 144.901 246.724 141.492 243.023C138.083 239.323 136.379 234.574 136.379 228.777V227.438C136.379 221.659 138.074 216.91 141.465 213.191C144.855 209.473 149.24 207.613 154.617 207.613C157.698 207.613 160.478 208.178 162.957 209.309C165.436 210.421 167.487 211.897 169.109 213.738V221.613ZM172.992 232.934C172.992 228.522 174.223 224.913 176.684 222.105C179.163 219.28 182.581 217.867 186.938 217.867C191.312 217.867 194.73 219.271 197.191 222.078C199.671 224.885 200.91 228.504 200.91 232.934V233.508C200.91 237.956 199.671 241.583 197.191 244.391C194.73 247.18 191.331 248.574 186.992 248.574C182.599 248.574 179.163 247.18 176.684 244.391C174.223 241.583 172.992 237.956 172.992 233.508V232.934ZM180.977 233.508C180.977 236.206 181.451 238.375 182.398 240.016C183.346 241.638 184.878 242.449 186.992 242.449C189.052 242.449 190.556 241.629 191.504 239.988C192.47 238.348 192.953 236.188 192.953 233.508V232.934C192.953 230.309 192.47 228.167 191.504 226.508C190.538 224.849 189.016 224.02 186.938 224.02C184.859 224.02 183.346 224.849 182.398 226.508C181.451 228.167 180.977 230.309 180.977 232.934V233.508ZM203.945 243.215L207.773 242.395V224.047L203.535 223.227V218.414H215.211L215.566 222.652C216.551 221.139 217.763 219.964 219.203 219.125C220.643 218.286 222.257 217.867 224.043 217.867C227.033 217.867 229.366 218.806 231.043 220.684C232.72 222.561 233.559 225.505 233.559 229.516V242.395L237.387 243.215V248H222.129V243.215L225.547 242.395V229.543C225.547 227.556 225.146 226.152 224.344 225.332C223.542 224.493 222.329 224.074 220.707 224.074C219.65 224.074 218.702 224.293 217.863 224.73C217.025 225.15 216.323 225.751 215.758 226.535V242.395L218.984 243.215V248H203.945V243.215ZM251.715 211.168V218.414H256.91V224.02H251.715V239.086C251.715 240.234 251.952 241.055 252.426 241.547C252.9 242.039 253.538 242.285 254.34 242.285C254.887 242.285 255.361 242.267 255.762 242.23C256.181 242.176 256.646 242.094 257.156 241.984L257.84 247.754C256.947 248.027 256.062 248.228 255.188 248.355C254.312 248.501 253.365 248.574 252.344 248.574C249.591 248.574 247.467 247.818 245.973 246.305C244.496 244.792 243.758 242.395 243.758 239.113V224.02H239.41V218.414H243.758V211.168H251.715ZM279.66 248C279.441 247.508 279.25 247.007 279.086 246.496C278.922 245.967 278.794 245.439 278.703 244.91C277.755 246.004 276.598 246.888 275.23 247.562C273.882 248.237 272.332 248.574 270.582 248.574C267.684 248.574 265.378 247.79 263.664 246.223C261.969 244.637 261.121 242.486 261.121 239.77C261.121 236.999 262.233 234.857 264.457 233.344C266.681 231.831 269.944 231.074 274.246 231.074H278.32V228.176C278.32 226.754 277.91 225.651 277.09 224.867C276.27 224.083 275.057 223.691 273.453 223.691C272.542 223.691 271.73 223.801 271.02 224.02C270.309 224.22 269.734 224.466 269.297 224.758L268.777 227.93H262.762L262.789 221.367C264.247 220.383 265.915 219.553 267.793 218.879C269.689 218.204 271.749 217.867 273.973 217.867C277.637 217.867 280.608 218.77 282.887 220.574C285.184 222.361 286.332 224.913 286.332 228.23V240.453C286.332 240.909 286.332 241.337 286.332 241.738C286.35 242.139 286.387 242.522 286.441 242.887L288.875 243.215V248H279.66ZM272.742 242.668C273.945 242.668 275.039 242.413 276.023 241.902C277.008 241.374 277.773 240.717 278.32 239.934V235.422H274.246C272.551 235.422 271.266 235.823 270.391 236.625C269.516 237.409 269.078 238.357 269.078 239.469C269.078 240.471 269.397 241.255 270.035 241.82C270.691 242.385 271.594 242.668 272.742 242.668ZM291.363 243.215L295.219 242.395V224.047L290.953 223.227V218.414H303.203V242.395L307.031 243.215V248H291.363V243.215ZM303.203 211.332H295.219V205.344H303.203V211.332ZM309.219 243.215L313.047 242.395V224.047L308.809 223.227V218.414H320.484L320.84 222.652C321.824 221.139 323.036 219.964 324.477 219.125C325.917 218.286 327.53 217.867 329.316 217.867C332.306 217.867 334.639 218.806 336.316 220.684C337.993 222.561 338.832 225.505 338.832 229.516V242.395L342.66 243.215V248H327.402V243.215L330.82 242.395V229.543C330.82 227.556 330.419 226.152 329.617 225.332C328.815 224.493 327.603 224.074 325.98 224.074C324.923 224.074 323.975 224.293 323.137 224.73C322.298 225.15 321.596 225.751 321.031 226.535V242.395L324.258 243.215V248H309.219V243.215ZM359.094 248.574C354.828 248.574 351.419 247.207 348.867 244.473C346.315 241.738 345.039 238.266 345.039 234.055V232.961C345.039 228.568 346.242 224.949 348.648 222.105C351.073 219.262 354.318 217.849 358.383 217.867C362.375 217.867 365.474 219.07 367.68 221.477C369.885 223.883 370.988 227.137 370.988 231.238V235.586H353.324L353.27 235.75C353.415 237.701 354.062 239.305 355.211 240.562C356.378 241.82 357.954 242.449 359.941 242.449C361.71 242.449 363.177 242.276 364.344 241.93C365.51 241.565 366.786 241 368.172 240.234L370.332 245.156C369.111 246.122 367.525 246.934 365.574 247.59C363.642 248.246 361.482 248.574 359.094 248.574ZM358.383 224.02C356.906 224.02 355.74 224.585 354.883 225.715C354.026 226.845 353.497 228.331 353.297 230.172L353.379 230.309H363.168V229.598C363.168 227.902 362.767 226.553 361.965 225.551C361.181 224.53 359.987 224.02 358.383 224.02ZM375.391 243.215L379.219 242.395V224.047L374.98 223.227V218.414H386.656L387.012 222.734C387.704 221.203 388.598 220.009 389.691 219.152C390.785 218.296 392.052 217.867 393.492 217.867C393.911 217.867 394.349 217.904 394.805 217.977C395.279 218.031 395.671 218.104 395.98 218.195L395.133 225.469L391.852 225.387C390.685 225.387 389.719 225.615 388.953 226.07C388.188 226.526 387.604 227.173 387.203 228.012V242.395L391.031 243.215V248H375.391V243.215ZM131.758 264.188C136.625 264.188 140.635 265.746 143.789 268.863C146.943 271.962 148.52 275.945 148.52 280.812V287.402C148.52 292.288 146.943 296.28 143.789 299.379C140.635 302.46 136.625 304 131.758 304H113.848V299.215L118.086 298.395V269.82L113.848 269V264.188H118.086H131.758ZM126.07 270.34V297.875H131.348C134.21 297.875 136.452 296.909 138.074 294.977C139.697 293.044 140.508 290.52 140.508 287.402V280.758C140.508 277.677 139.697 275.171 138.074 273.238C136.452 271.306 134.21 270.34 131.348 270.34H126.07ZM152.402 299.215L156.258 298.395V280.047L151.992 279.227V274.414H164.242V298.395L168.07 299.215V304H152.402V299.215ZM164.242 267.332H156.258V261.344H164.242V267.332ZM189.535 304C189.316 303.508 189.125 303.007 188.961 302.496C188.797 301.967 188.669 301.439 188.578 300.91C187.63 302.004 186.473 302.888 185.105 303.562C183.757 304.237 182.207 304.574 180.457 304.574C177.559 304.574 175.253 303.79 173.539 302.223C171.844 300.637 170.996 298.486 170.996 295.77C170.996 292.999 172.108 290.857 174.332 289.344C176.556 287.831 179.819 287.074 184.121 287.074H188.195V284.176C188.195 282.754 187.785 281.651 186.965 280.867C186.145 280.083 184.932 279.691 183.328 279.691C182.417 279.691 181.605 279.801 180.895 280.02C180.184 280.22 179.609 280.466 179.172 280.758L178.652 283.93H172.637L172.664 277.367C174.122 276.383 175.79 275.553 177.668 274.879C179.564 274.204 181.624 273.867 183.848 273.867C187.512 273.867 190.483 274.77 192.762 276.574C195.059 278.361 196.207 280.913 196.207 284.23V296.453C196.207 296.909 196.207 297.337 196.207 297.738C196.225 298.139 196.262 298.522 196.316 298.887L198.75 299.215V304H189.535ZM182.617 298.668C183.82 298.668 184.914 298.413 185.898 297.902C186.883 297.374 187.648 296.717 188.195 295.934V291.422H184.121C182.426 291.422 181.141 291.823 180.266 292.625C179.391 293.409 178.953 294.357 178.953 295.469C178.953 296.471 179.272 297.255 179.91 297.82C180.566 298.385 181.469 298.668 182.617 298.668ZM201.977 289.453C201.977 284.786 202.988 281.022 205.012 278.16C207.053 275.298 209.906 273.867 213.57 273.867C215.229 273.867 216.688 274.241 217.945 274.988C219.203 275.717 220.279 276.766 221.172 278.133L221.746 274.414H228.691V303.125C228.691 307.026 227.461 310.134 225 312.449C222.557 314.783 219.194 315.949 214.91 315.949C213.415 315.949 211.829 315.74 210.152 315.32C208.475 314.919 206.926 314.363 205.504 313.652L206.98 308.047C208.257 308.594 209.533 309.022 210.809 309.332C212.085 309.66 213.434 309.824 214.855 309.824C216.806 309.824 218.264 309.232 219.23 308.047C220.197 306.862 220.68 305.212 220.68 303.098V301.156C219.805 302.268 218.775 303.116 217.59 303.699C216.405 304.283 215.047 304.574 213.516 304.574C209.888 304.574 207.053 303.243 205.012 300.582C202.988 297.902 201.977 294.384 201.977 290.027V289.453ZM209.961 290.027C209.961 292.616 210.398 294.658 211.273 296.152C212.148 297.629 213.57 298.367 215.539 298.367C216.76 298.367 217.79 298.148 218.629 297.711C219.486 297.255 220.169 296.599 220.68 295.742V282.891C220.169 281.997 219.486 281.305 218.629 280.812C217.79 280.32 216.779 280.074 215.594 280.074C213.643 280.074 212.212 280.94 211.301 282.672C210.408 284.404 209.961 286.664 209.961 289.453V290.027ZM234.078 299.215L237.906 298.395V280.047L233.668 279.227V274.414H245.344L245.699 278.734C246.392 277.203 247.285 276.009 248.379 275.152C249.473 274.296 250.74 273.867 252.18 273.867C252.599 273.867 253.036 273.904 253.492 273.977C253.966 274.031 254.358 274.104 254.668 274.195L253.82 281.469L250.539 281.387C249.372 281.387 248.406 281.615 247.641 282.07C246.875 282.526 246.292 283.173 245.891 284.012V298.395L249.719 299.215V304H234.078V299.215ZM275.34 304C275.121 303.508 274.93 303.007 274.766 302.496C274.602 301.967 274.474 301.439 274.383 300.91C273.435 302.004 272.277 302.888 270.91 303.562C269.561 304.237 268.012 304.574 266.262 304.574C263.363 304.574 261.057 303.79 259.344 302.223C257.648 300.637 256.801 298.486 256.801 295.77C256.801 292.999 257.913 290.857 260.137 289.344C262.361 287.831 265.624 287.074 269.926 287.074H274V284.176C274 282.754 273.59 281.651 272.77 280.867C271.949 280.083 270.737 279.691 269.133 279.691C268.221 279.691 267.41 279.801 266.699 280.02C265.988 280.22 265.414 280.466 264.977 280.758L264.457 283.93H258.441L258.469 277.367C259.927 276.383 261.595 275.553 263.473 274.879C265.368 274.204 267.428 273.867 269.652 273.867C273.316 273.867 276.288 274.77 278.566 276.574C280.863 278.361 282.012 280.913 282.012 284.23V296.453C282.012 296.909 282.012 297.337 282.012 297.738C282.03 298.139 282.066 298.522 282.121 298.887L284.555 299.215V304H275.34ZM268.422 298.668C269.625 298.668 270.719 298.413 271.703 297.902C272.688 297.374 273.453 296.717 274 295.934V291.422H269.926C268.23 291.422 266.945 291.823 266.07 292.625C265.195 293.409 264.758 294.357 264.758 295.469C264.758 296.471 265.077 297.255 265.715 297.82C266.371 298.385 267.273 298.668 268.422 298.668ZM286.359 279.227V274.414H298.035L298.363 278.324C299.311 276.902 300.496 275.809 301.918 275.043C303.358 274.259 305.017 273.867 306.895 273.867C308.79 273.867 310.413 274.286 311.762 275.125C313.111 275.964 314.132 277.23 314.824 278.926C315.736 277.34 316.921 276.1 318.379 275.207C319.837 274.314 321.551 273.867 323.52 273.867C326.436 273.867 328.733 274.879 330.41 276.902C332.105 278.908 332.953 281.97 332.953 286.09V298.395L336.809 299.215V304H321.523V299.215L324.969 298.395V286.062C324.969 283.82 324.604 282.262 323.875 281.387C323.146 280.512 322.061 280.074 320.621 280.074C319.491 280.074 318.507 280.329 317.668 280.84C316.848 281.332 316.191 282.025 315.699 282.918C315.699 283.264 315.708 283.565 315.727 283.82C315.745 284.057 315.754 284.303 315.754 284.559V298.395L318.98 299.215V304H304.57V299.215L307.797 298.395V286.062C307.797 283.875 307.432 282.335 306.703 281.441C305.974 280.53 304.88 280.074 303.422 280.074C302.346 280.074 301.398 280.284 300.578 280.703C299.776 281.104 299.111 281.678 298.582 282.426V298.395L302.027 299.215V304H286.77V299.215L290.625 298.395V280.047L286.359 279.227Z" fill="black"/>
<path d="M145.844 97V93.7969L147.438 93.5625L154.219 74.25H160.156L166.953 93.5625L168.547 93.7969V97H160.047V93.7969L161.531 93.5156L160.844 91.0469H153.531L152.875 93.5156L154.359 93.7969V97H145.844ZM154.688 87.2031H159.672L157.453 80.3125L157.203 79.5156H157.109L156.844 80.3906L154.688 87.2031ZM169.547 97V93.7969L171.906 93.2969V77.9688L169.547 77.4688V74.2344H180.734C182.536 74.2344 184.099 74.5208 185.422 75.0938C186.745 75.6667 187.766 76.4844 188.484 77.5469C189.203 78.599 189.562 79.849 189.562 81.2969C189.562 82.6302 189.198 83.8698 188.469 85.0156C187.75 86.1615 186.76 87.0833 185.5 87.7812C184.24 88.4688 182.802 88.8073 181.188 88.7969L177.391 88.75V93.2969L179.75 93.7969V97H169.547ZM183.953 97L180.891 88.125L185.656 86.5L188.422 93.2656L190.578 93.8125V97H183.953ZM177.391 84.5469H180.797C181.859 84.5469 182.677 84.3021 183.25 83.8125C183.823 83.3125 184.109 82.5938 184.109 81.6562C184.109 80.6875 183.818 79.9115 183.234 79.3281C182.651 78.7344 181.818 78.4375 180.734 78.4375H177.391V84.5469ZM196.312 97V93.7969L198.688 93.2969V78.5H195.172L195.031 80.9531H190.891V74.25H212.031V80.9531H207.844L207.719 78.5H204.172V93.2969L206.547 93.7969V97H196.312ZM212.859 97V93.7969L215.219 93.2969V77.9688L212.859 77.4688V74.25H223.047V77.4688L220.688 77.9688V93.2969L223.047 93.7969V97H212.859ZM224.297 97V93.7969L226.656 93.2969V77.9688L224.297 77.4688V74.25H243.031V80.9531H238.891L238.781 78.4688H232.141V83.7344H239.875V87.9219H232.141V93.2969L234.5 93.7969V97H224.297ZM240.25 97V93.7969L241.844 93.5625L248.625 74.25H254.562L261.359 93.5625L262.953 93.7969V97H254.453V93.7969L255.938 93.5156L255.25 91.0469H247.938L247.281 93.5156L248.766 93.7969V97H240.25ZM249.094 87.2031H254.078L251.859 80.3125L251.609 79.5156H251.516L251.25 80.3906L249.094 87.2031ZM274.281 97.3281C272.115 97.3281 270.182 96.8906 268.484 96.0156C266.786 95.1406 265.453 93.875 264.484 92.2188C263.516 90.5521 263.031 88.5312 263.031 86.1562V85.1094C263.031 82.9219 263.474 80.9896 264.359 79.3125C265.255 77.625 266.526 76.3073 268.172 75.3594C269.828 74.401 271.792 73.9219 274.062 73.9219C275.646 73.9219 277.151 74.1354 278.578 74.5625C280.016 74.9792 281.349 75.6979 282.578 76.7188V82.5781H278.594L278.047 79.2188C277.693 78.9792 277.318 78.7708 276.922 78.5938C276.536 78.4167 276.12 78.2812 275.672 78.1875C275.234 78.0938 274.76 78.0469 274.25 78.0469C273.094 78.0469 272.083 78.3229 271.219 78.875C270.354 79.4271 269.682 80.2292 269.203 81.2812C268.734 82.3229 268.5 83.5885 268.5 85.0781V86.1562C268.5 87.5521 268.745 88.7812 269.234 89.8438C269.724 90.8958 270.406 91.7188 271.281 92.3125C272.167 92.9062 273.188 93.2031 274.344 93.2031C274.958 93.2031 275.583 93.1406 276.219 93.0156C276.854 92.8802 277.469 92.7031 278.062 92.4844L278.609 89.2656H282.609V95C281.703 95.625 280.547 96.1719 279.141 96.6406C277.734 97.099 276.115 97.3281 274.281 97.3281ZM288.594 97V93.7969L290.969 93.2969V78.5H287.453L287.312 80.9531H283.172V74.25H304.312V80.9531H300.125L300 78.5H296.453V93.2969L298.828 93.7969V97H288.594Z" fill="black" fill-opacity="0.3"/>
<path d="M187.969 438V434.797L190.312 434.297V418.969L187.969 418.469V415.25H190.312H198.703L204.203 430.234H204.297L209.641 415.25H220.25V418.469L217.891 418.969V434.297L220.25 434.797V438H210.062V434.797L212.516 434.297V431.328L212.641 420.625L212.547 420.609L206.109 438H201.797L195.266 420.812L195.156 420.828L195.531 430.578V434.297L198.172 434.797V438H187.969ZM218.484 438V434.797L220.078 434.562L226.859 415.25H232.797L239.594 434.562L241.188 434.797V438H232.688V434.797L234.172 434.516L233.484 432.047H226.172L225.516 434.516L227 434.797V438H218.484ZM227.328 428.203H232.312L230.094 421.312L229.844 420.516H229.75L229.484 421.391L227.328 428.203ZM242.188 438V434.797L244.547 434.297V418.969L242.188 418.469V415.25H244.547H253.25C255.062 415.25 256.635 415.568 257.969 416.203C259.302 416.839 260.328 417.724 261.047 418.859C261.776 419.984 262.141 421.297 262.141 422.797C262.141 424.297 261.776 425.609 261.047 426.734C260.328 427.859 259.302 428.734 257.969 429.359C256.635 429.984 255.062 430.297 253.25 430.297H250.031V434.297L252.391 434.797V438H242.188ZM250.031 426.094H253.25C254.365 426.094 255.208 425.792 255.781 425.188C256.365 424.573 256.656 423.786 256.656 422.828C256.656 421.839 256.365 421.026 255.781 420.391C255.208 419.755 254.365 419.438 253.25 419.438H250.031V426.094Z" fill="black" fill-opacity="0.3"/>
</svg>
