<svg width="450" height="512" viewBox="0 0 450 512" fill="none" xmlns="http://www.w3.org/2000/svg">
<path d="M212.66 3.35209C220.296 -1.11736 229.704 -1.11737 237.34 3.35209L434.66 118.842C442.296 123.311 447 131.571 447 140.51V371.49C447 380.429 442.296 388.689 434.66 393.158L237.34 508.648C229.704 513.117 220.296 513.117 212.66 508.648L15.3404 393.158C7.70413 388.689 3 380.429 3 371.49V140.51C3 131.571 7.70413 123.311 15.3404 118.842L212.66 3.35209Z" fill="white"/>
<path d="M214.68 6.80426C221.068 3.06525 228.932 3.06525 235.32 6.80426L432.639 122.294C439.034 126.037 443 132.974 443 140.51V371.49C443 379.026 439.034 385.963 432.639 389.706L235.32 505.196C228.932 508.935 221.068 508.935 214.68 505.196L17.3609 389.706C10.9662 385.963 7 379.026 7 371.49V140.51C7 132.974 10.9662 126.037 17.3609 122.294L214.68 6.80426Z" stroke="black" stroke-opacity="0.5" stroke-width="8"/>
<rect x="82" y="128" width="286" height="4" rx="2" fill="black" fill-opacity="0.3"/>
<rect x="82" y="380" width="286" height="4" rx="2" fill="black" fill-opacity="0.3"/>
<path d="M225.219 193.613H219.285L218.465 188.309C217.681 187.525 216.688 186.905 215.484 186.449C214.299 185.993 212.896 185.766 211.273 185.766C207.81 185.766 205.139 187.023 203.262 189.539C201.402 192.055 200.473 195.336 200.473 199.383V200.777C200.473 204.824 201.402 208.115 203.262 210.648C205.121 213.182 207.746 214.449 211.137 214.449C212.704 214.449 214.135 214.221 215.43 213.766C216.742 213.31 217.754 212.69 218.465 211.906L219.285 206.602H225.219V214.477C223.615 216.336 221.564 217.822 219.066 218.934C216.587 220.027 213.807 220.574 210.727 220.574C205.385 220.574 201.01 218.724 197.602 215.023C194.193 211.323 192.488 206.574 192.488 200.777V199.438C192.488 193.659 194.184 188.91 197.574 185.191C200.965 181.473 205.349 179.613 210.727 179.613C213.807 179.613 216.587 180.178 219.066 181.309C221.546 182.421 223.596 183.897 225.219 185.738V193.613ZM252.945 205.18H257.457V210.484H252.945V214.395L257.184 215.215V220H240.723V215.215L244.988 214.395V210.484H228.746L228.363 206.574L244.906 180.188H252.945V205.18ZM235.828 205.18H244.988V190.824L244.824 190.77L244.168 191.918L235.828 205.18ZM90.6602 270.449C92.082 270.449 93.2214 270.039 94.0781 269.219C94.9349 268.38 95.3633 267.268 95.3633 265.883H102.582L102.664 266.047C102.737 269.036 101.616 271.543 99.3008 273.566C96.9857 275.572 94.1055 276.574 90.6602 276.574C86.2487 276.574 82.849 275.18 80.4609 272.391C78.0729 269.602 76.8789 266.02 76.8789 261.645V260.824C76.8789 256.467 78.1003 252.885 80.543 250.078C83.0039 247.271 86.5039 245.867 91.043 245.867C93.431 245.867 95.5729 246.223 97.4688 246.934C99.3646 247.645 100.941 248.647 102.199 249.941L102.309 257.844H95.8281L94.5156 253.223C94.1146 252.876 93.6224 252.594 93.0391 252.375C92.4557 252.138 91.7904 252.02 91.043 252.02C88.7826 252.02 87.1875 252.84 86.2578 254.48C85.3281 256.121 84.8633 258.236 84.8633 260.824V261.645C84.8633 264.288 85.2917 266.421 86.1484 268.043C87.0052 269.647 88.5091 270.449 90.6602 270.449ZM106.301 260.934C106.301 256.522 107.531 252.913 109.992 250.105C112.471 247.28 115.889 245.867 120.246 245.867C124.621 245.867 128.039 247.271 130.5 250.078C132.979 252.885 134.219 256.504 134.219 260.934V261.508C134.219 265.956 132.979 269.583 130.5 272.391C128.039 275.18 124.639 276.574 120.301 276.574C115.908 276.574 112.471 275.18 109.992 272.391C107.531 269.583 106.301 265.956 106.301 261.508V260.934ZM114.285 261.508C114.285 264.206 114.759 266.375 115.707 268.016C116.655 269.638 118.186 270.449 120.301 270.449C122.361 270.449 123.865 269.629 124.812 267.988C125.779 266.348 126.262 264.188 126.262 261.508V260.934C126.262 258.309 125.779 256.167 124.812 254.508C123.846 252.849 122.324 252.02 120.246 252.02C118.168 252.02 116.655 252.849 115.707 254.508C114.759 256.167 114.285 258.309 114.285 260.934V261.508ZM136.762 251.227V246.414H148.438L148.766 250.324C149.714 248.902 150.898 247.809 152.32 247.043C153.76 246.259 155.419 245.867 157.297 245.867C159.193 245.867 160.815 246.286 162.164 247.125C163.513 247.964 164.534 249.23 165.227 250.926C166.138 249.34 167.323 248.1 168.781 247.207C170.24 246.314 171.953 245.867 173.922 245.867C176.839 245.867 179.135 246.879 180.812 248.902C182.508 250.908 183.355 253.97 183.355 258.09V270.395L187.211 271.215V276H171.926V271.215L175.371 270.395V258.062C175.371 255.82 175.007 254.262 174.277 253.387C173.548 252.512 172.464 252.074 171.023 252.074C169.893 252.074 168.909 252.329 168.07 252.84C167.25 253.332 166.594 254.025 166.102 254.918C166.102 255.264 166.111 255.565 166.129 255.82C166.147 256.057 166.156 256.303 166.156 256.559V270.395L169.383 271.215V276H154.973V271.215L158.199 270.395V258.062C158.199 255.875 157.835 254.335 157.105 253.441C156.376 252.53 155.283 252.074 153.824 252.074C152.749 252.074 151.801 252.284 150.98 252.703C150.178 253.104 149.513 253.678 148.984 254.426V270.395L152.43 271.215V276H137.172V271.215L141.027 270.395V252.047L136.762 251.227ZM189.207 251.227V246.414H200.801L201.184 249.859C202.059 248.583 203.107 247.599 204.328 246.906C205.549 246.214 206.971 245.867 208.594 245.867C212.258 245.867 215.102 247.298 217.125 250.16C219.148 253.022 220.16 256.786 220.16 261.453V262.027C220.16 266.402 219.148 269.921 217.125 272.582C215.102 275.243 212.276 276.574 208.648 276.574C207.099 276.574 205.723 276.292 204.52 275.727C203.316 275.143 202.286 274.296 201.43 273.184V281.742L205.285 282.562V287.375H189.617V282.562L193.473 281.742V252.047L189.207 251.227ZM212.176 261.453C212.176 258.664 211.711 256.404 210.781 254.672C209.852 252.94 208.43 252.074 206.516 252.074C205.312 252.074 204.283 252.32 203.426 252.812C202.587 253.305 201.922 254.007 201.43 254.918V267.879C201.922 268.717 202.587 269.355 203.426 269.793C204.283 270.23 205.331 270.449 206.57 270.449C208.503 270.449 209.915 269.693 210.809 268.18C211.72 266.667 212.176 264.616 212.176 262.027V261.453ZM223.715 260.934C223.715 256.522 224.945 252.913 227.406 250.105C229.885 247.28 233.303 245.867 237.66 245.867C242.035 245.867 245.453 247.271 247.914 250.078C250.393 252.885 251.633 256.504 251.633 260.934V261.508C251.633 265.956 250.393 269.583 247.914 272.391C245.453 275.18 242.053 276.574 237.715 276.574C233.322 276.574 229.885 275.18 227.406 272.391C224.945 269.583 223.715 265.956 223.715 261.508V260.934ZM231.699 261.508C231.699 264.206 232.173 266.375 233.121 268.016C234.069 269.638 235.6 270.449 237.715 270.449C239.775 270.449 241.279 269.629 242.227 267.988C243.193 266.348 243.676 264.188 243.676 261.508V260.934C243.676 258.309 243.193 256.167 242.227 254.508C241.26 252.849 239.738 252.02 237.66 252.02C235.582 252.02 234.069 252.849 233.121 254.508C232.173 256.167 231.699 258.309 231.699 260.934V261.508ZM254.668 271.215L258.496 270.395V252.047L254.258 251.227V246.414H265.934L266.289 250.652C267.273 249.139 268.486 247.964 269.926 247.125C271.366 246.286 272.979 245.867 274.766 245.867C277.755 245.867 280.089 246.806 281.766 248.684C283.443 250.561 284.281 253.505 284.281 257.516V270.395L288.109 271.215V276H272.852V271.215L276.27 270.395V257.543C276.27 255.556 275.868 254.152 275.066 253.332C274.264 252.493 273.052 252.074 271.43 252.074C270.372 252.074 269.424 252.293 268.586 252.73C267.747 253.15 267.046 253.751 266.48 254.535V270.395L269.707 271.215V276H254.668V271.215ZM304.543 276.574C300.277 276.574 296.868 275.207 294.316 272.473C291.764 269.738 290.488 266.266 290.488 262.055V260.961C290.488 256.568 291.691 252.949 294.098 250.105C296.522 247.262 299.767 245.849 303.832 245.867C307.824 245.867 310.923 247.07 313.129 249.477C315.335 251.883 316.438 255.137 316.438 259.238V263.586H298.773L298.719 263.75C298.865 265.701 299.512 267.305 300.66 268.562C301.827 269.82 303.404 270.449 305.391 270.449C307.159 270.449 308.626 270.276 309.793 269.93C310.96 269.565 312.236 269 313.621 268.234L315.781 273.156C314.56 274.122 312.974 274.934 311.023 275.59C309.091 276.246 306.931 276.574 304.543 276.574ZM303.832 252.02C302.355 252.02 301.189 252.585 300.332 253.715C299.475 254.845 298.947 256.331 298.746 258.172L298.828 258.309H308.617V257.598C308.617 255.902 308.216 254.553 307.414 253.551C306.63 252.53 305.436 252.02 303.832 252.02ZM319.801 271.215L323.629 270.395V252.047L319.391 251.227V246.414H331.066L331.422 250.652C332.406 249.139 333.618 247.964 335.059 247.125C336.499 246.286 338.112 245.867 339.898 245.867C342.888 245.867 345.221 246.806 346.898 248.684C348.576 250.561 349.414 253.505 349.414 257.516V270.395L353.242 271.215V276H337.984V271.215L341.402 270.395V257.543C341.402 255.556 341.001 254.152 340.199 253.332C339.397 252.493 338.185 252.074 336.562 252.074C335.505 252.074 334.557 252.293 333.719 252.73C332.88 253.15 332.178 253.751 331.613 254.535V270.395L334.84 271.215V276H319.801V271.215ZM367.57 239.168V246.414H372.766V252.02H367.57V267.086C367.57 268.234 367.807 269.055 368.281 269.547C368.755 270.039 369.393 270.285 370.195 270.285C370.742 270.285 371.216 270.267 371.617 270.23C372.036 270.176 372.501 270.094 373.012 269.984L373.695 275.754C372.802 276.027 371.918 276.228 371.043 276.355C370.168 276.501 369.22 276.574 368.199 276.574C365.447 276.574 363.323 275.818 361.828 274.305C360.352 272.792 359.613 270.395 359.613 267.113V252.02H355.266V246.414H359.613V239.168H367.57ZM131.758 292.188C136.625 292.188 140.635 293.746 143.789 296.863C146.943 299.962 148.52 303.945 148.52 308.812V315.402C148.52 320.288 146.943 324.28 143.789 327.379C140.635 330.46 136.625 332 131.758 332H113.848V327.215L118.086 326.395V297.82L113.848 297V292.188H118.086H131.758ZM126.07 298.34V325.875H131.348C134.21 325.875 136.452 324.909 138.074 322.977C139.697 321.044 140.508 318.52 140.508 315.402V308.758C140.508 305.677 139.697 303.171 138.074 301.238C136.452 299.306 134.21 298.34 131.348 298.34H126.07ZM152.402 327.215L156.258 326.395V308.047L151.992 307.227V302.414H164.242V326.395L168.07 327.215V332H152.402V327.215ZM164.242 295.332H156.258V289.344H164.242V295.332ZM189.535 332C189.316 331.508 189.125 331.007 188.961 330.496C188.797 329.967 188.669 329.439 188.578 328.91C187.63 330.004 186.473 330.888 185.105 331.562C183.757 332.237 182.207 332.574 180.457 332.574C177.559 332.574 175.253 331.79 173.539 330.223C171.844 328.637 170.996 326.486 170.996 323.77C170.996 320.999 172.108 318.857 174.332 317.344C176.556 315.831 179.819 315.074 184.121 315.074H188.195V312.176C188.195 310.754 187.785 309.651 186.965 308.867C186.145 308.083 184.932 307.691 183.328 307.691C182.417 307.691 181.605 307.801 180.895 308.02C180.184 308.22 179.609 308.466 179.172 308.758L178.652 311.93H172.637L172.664 305.367C174.122 304.383 175.79 303.553 177.668 302.879C179.564 302.204 181.624 301.867 183.848 301.867C187.512 301.867 190.483 302.77 192.762 304.574C195.059 306.361 196.207 308.913 196.207 312.23V324.453C196.207 324.909 196.207 325.337 196.207 325.738C196.225 326.139 196.262 326.522 196.316 326.887L198.75 327.215V332H189.535ZM182.617 326.668C183.82 326.668 184.914 326.413 185.898 325.902C186.883 325.374 187.648 324.717 188.195 323.934V319.422H184.121C182.426 319.422 181.141 319.823 180.266 320.625C179.391 321.409 178.953 322.357 178.953 323.469C178.953 324.471 179.272 325.255 179.91 325.82C180.566 326.385 181.469 326.668 182.617 326.668ZM201.977 317.453C201.977 312.786 202.988 309.022 205.012 306.16C207.053 303.298 209.906 301.867 213.57 301.867C215.229 301.867 216.688 302.241 217.945 302.988C219.203 303.717 220.279 304.766 221.172 306.133L221.746 302.414H228.691V331.125C228.691 335.026 227.461 338.134 225 340.449C222.557 342.783 219.194 343.949 214.91 343.949C213.415 343.949 211.829 343.74 210.152 343.32C208.475 342.919 206.926 342.363 205.504 341.652L206.98 336.047C208.257 336.594 209.533 337.022 210.809 337.332C212.085 337.66 213.434 337.824 214.855 337.824C216.806 337.824 218.264 337.232 219.23 336.047C220.197 334.862 220.68 333.212 220.68 331.098V329.156C219.805 330.268 218.775 331.116 217.59 331.699C216.405 332.283 215.047 332.574 213.516 332.574C209.888 332.574 207.053 331.243 205.012 328.582C202.988 325.902 201.977 322.384 201.977 318.027V317.453ZM209.961 318.027C209.961 320.616 210.398 322.658 211.273 324.152C212.148 325.629 213.57 326.367 215.539 326.367C216.76 326.367 217.79 326.148 218.629 325.711C219.486 325.255 220.169 324.599 220.68 323.742V310.891C220.169 309.997 219.486 309.305 218.629 308.812C217.79 308.32 216.779 308.074 215.594 308.074C213.643 308.074 212.212 308.94 211.301 310.672C210.408 312.404 209.961 314.664 209.961 317.453V318.027ZM234.078 327.215L237.906 326.395V308.047L233.668 307.227V302.414H245.344L245.699 306.734C246.392 305.203 247.285 304.009 248.379 303.152C249.473 302.296 250.74 301.867 252.18 301.867C252.599 301.867 253.036 301.904 253.492 301.977C253.966 302.031 254.358 302.104 254.668 302.195L253.82 309.469L250.539 309.387C249.372 309.387 248.406 309.615 247.641 310.07C246.875 310.526 246.292 311.173 245.891 312.012V326.395L249.719 327.215V332H234.078V327.215ZM275.34 332C275.121 331.508 274.93 331.007 274.766 330.496C274.602 329.967 274.474 329.439 274.383 328.91C273.435 330.004 272.277 330.888 270.91 331.562C269.561 332.237 268.012 332.574 266.262 332.574C263.363 332.574 261.057 331.79 259.344 330.223C257.648 328.637 256.801 326.486 256.801 323.77C256.801 320.999 257.913 318.857 260.137 317.344C262.361 315.831 265.624 315.074 269.926 315.074H274V312.176C274 310.754 273.59 309.651 272.77 308.867C271.949 308.083 270.737 307.691 269.133 307.691C268.221 307.691 267.41 307.801 266.699 308.02C265.988 308.22 265.414 308.466 264.977 308.758L264.457 311.93H258.441L258.469 305.367C259.927 304.383 261.595 303.553 263.473 302.879C265.368 302.204 267.428 301.867 269.652 301.867C273.316 301.867 276.288 302.77 278.566 304.574C280.863 306.361 282.012 308.913 282.012 312.23V324.453C282.012 324.909 282.012 325.337 282.012 325.738C282.03 326.139 282.066 326.522 282.121 326.887L284.555 327.215V332H275.34ZM268.422 326.668C269.625 326.668 270.719 326.413 271.703 325.902C272.688 325.374 273.453 324.717 274 323.934V319.422H269.926C268.23 319.422 266.945 319.823 266.07 320.625C265.195 321.409 264.758 322.357 264.758 323.469C264.758 324.471 265.077 325.255 265.715 325.82C266.371 326.385 267.273 326.668 268.422 326.668ZM286.359 307.227V302.414H298.035L298.363 306.324C299.311 304.902 300.496 303.809 301.918 303.043C303.358 302.259 305.017 301.867 306.895 301.867C308.79 301.867 310.413 302.286 311.762 303.125C313.111 303.964 314.132 305.23 314.824 306.926C315.736 305.34 316.921 304.1 318.379 303.207C319.837 302.314 321.551 301.867 323.52 301.867C326.436 301.867 328.733 302.879 330.41 304.902C332.105 306.908 332.953 309.97 332.953 314.09V326.395L336.809 327.215V332H321.523V327.215L324.969 326.395V314.062C324.969 311.82 324.604 310.262 323.875 309.387C323.146 308.512 322.061 308.074 320.621 308.074C319.491 308.074 318.507 308.329 317.668 308.84C316.848 309.332 316.191 310.025 315.699 310.918C315.699 311.264 315.708 311.565 315.727 311.82C315.745 312.057 315.754 312.303 315.754 312.559V326.395L318.98 327.215V332H304.57V327.215L307.797 326.395V314.062C307.797 311.875 307.432 310.335 306.703 309.441C305.974 308.53 304.88 308.074 303.422 308.074C302.346 308.074 301.398 308.284 300.578 308.703C299.776 309.104 299.111 309.678 298.582 310.426V326.395L302.027 327.215V332H286.77V327.215L290.625 326.395V308.047L286.359 307.227Z" fill="black"/>
<path d="M145.844 97V93.7969L147.438 93.5625L154.219 74.25H160.156L166.953 93.5625L168.547 93.7969V97H160.047V93.7969L161.531 93.5156L160.844 91.0469H153.531L152.875 93.5156L154.359 93.7969V97H145.844ZM154.688 87.2031H159.672L157.453 80.3125L157.203 79.5156H157.109L156.844 80.3906L154.688 87.2031ZM169.547 97V93.7969L171.906 93.2969V77.9688L169.547 77.4688V74.2344H180.734C182.536 74.2344 184.099 74.5208 185.422 75.0938C186.745 75.6667 187.766 76.4844 188.484 77.5469C189.203 78.599 189.562 79.849 189.562 81.2969C189.562 82.6302 189.198 83.8698 188.469 85.0156C187.75 86.1615 186.76 87.0833 185.5 87.7812C184.24 88.4688 182.802 88.8073 181.188 88.7969L177.391 88.75V93.2969L179.75 93.7969V97H169.547ZM183.953 97L180.891 88.125L185.656 86.5L188.422 93.2656L190.578 93.8125V97H183.953ZM177.391 84.5469H180.797C181.859 84.5469 182.677 84.3021 183.25 83.8125C183.823 83.3125 184.109 82.5938 184.109 81.6562C184.109 80.6875 183.818 79.9115 183.234 79.3281C182.651 78.7344 181.818 78.4375 180.734 78.4375H177.391V84.5469ZM196.312 97V93.7969L198.688 93.2969V78.5H195.172L195.031 80.9531H190.891V74.25H212.031V80.9531H207.844L207.719 78.5H204.172V93.2969L206.547 93.7969V97H196.312ZM212.859 97V93.7969L215.219 93.2969V77.9688L212.859 77.4688V74.25H223.047V77.4688L220.688 77.9688V93.2969L223.047 93.7969V97H212.859ZM224.297 97V93.7969L226.656 93.2969V77.9688L224.297 77.4688V74.25H243.031V80.9531H238.891L238.781 78.4688H232.141V83.7344H239.875V87.9219H232.141V93.2969L234.5 93.7969V97H224.297ZM240.25 97V93.7969L241.844 93.5625L248.625 74.25H254.562L261.359 93.5625L262.953 93.7969V97H254.453V93.7969L255.938 93.5156L255.25 91.0469H247.938L247.281 93.5156L248.766 93.7969V97H240.25ZM249.094 87.2031H254.078L251.859 80.3125L251.609 79.5156H251.516L251.25 80.3906L249.094 87.2031ZM274.281 97.3281C272.115 97.3281 270.182 96.8906 268.484 96.0156C266.786 95.1406 265.453 93.875 264.484 92.2188C263.516 90.5521 263.031 88.5312 263.031 86.1562V85.1094C263.031 82.9219 263.474 80.9896 264.359 79.3125C265.255 77.625 266.526 76.3073 268.172 75.3594C269.828 74.401 271.792 73.9219 274.062 73.9219C275.646 73.9219 277.151 74.1354 278.578 74.5625C280.016 74.9792 281.349 75.6979 282.578 76.7188V82.5781H278.594L278.047 79.2188C277.693 78.9792 277.318 78.7708 276.922 78.5938C276.536 78.4167 276.12 78.2812 275.672 78.1875C275.234 78.0938 274.76 78.0469 274.25 78.0469C273.094 78.0469 272.083 78.3229 271.219 78.875C270.354 79.4271 269.682 80.2292 269.203 81.2812C268.734 82.3229 268.5 83.5885 268.5 85.0781V86.1562C268.5 87.5521 268.745 88.7812 269.234 89.8438C269.724 90.8958 270.406 91.7188 271.281 92.3125C272.167 92.9062 273.188 93.2031 274.344 93.2031C274.958 93.2031 275.583 93.1406 276.219 93.0156C276.854 92.8802 277.469 92.7031 278.062 92.4844L278.609 89.2656H282.609V95C281.703 95.625 280.547 96.1719 279.141 96.6406C277.734 97.099 276.115 97.3281 274.281 97.3281ZM288.594 97V93.7969L290.969 93.2969V78.5H287.453L287.312 80.9531H283.172V74.25H304.312V80.9531H300.125L300 78.5H296.453V93.2969L298.828 93.7969V97H288.594Z" fill="black" fill-opacity="0.3"/>
<path d="M187.969 438V434.797L190.312 434.297V418.969L187.969 418.469V415.25H190.312H198.703L204.203 430.234H204.297L209.641 415.25H220.25V418.469L217.891 418.969V434.297L220.25 434.797V438H210.062V434.797L212.516 434.297V431.328L212.641 420.625L212.547 420.609L206.109 438H201.797L195.266 420.812L195.156 420.828L195.531 430.578V434.297L198.172 434.797V438H187.969ZM218.484 438V434.797L220.078 434.562L226.859 415.25H232.797L239.594 434.562L241.188 434.797V438H232.688V434.797L234.172 434.516L233.484 432.047H226.172L225.516 434.516L227 434.797V438H218.484ZM227.328 428.203H232.312L230.094 421.312L229.844 420.516H229.75L229.484 421.391L227.328 428.203ZM242.188 438V434.797L244.547 434.297V418.969L242.188 418.469V415.25H244.547H253.25C255.062 415.25 256.635 415.568 257.969 416.203C259.302 416.839 260.328 417.724 261.047 418.859C261.776 419.984 262.141 421.297 262.141 422.797C262.141 424.297 261.776 425.609 261.047 426.734C260.328 427.859 259.302 428.734 257.969 429.359C256.635 429.984 255.062 430.297 253.25 430.297H250.031V434.297L252.391 434.797V438H242.188ZM250.031 426.094H253.25C254.365 426.094 255.208 425.792 255.781 425.188C256.365 424.573 256.656 423.786 256.656 422.828C256.656 421.839 256.365 421.026 255.781 420.391C255.208 419.755 254.365 419.438 253.25 419.438H250.031V426.094Z" fill="black" fill-opacity="0.3"/>
</svg>
