<svg width="450" height="512" viewBox="0 0 450 512" fill="none" xmlns="http://www.w3.org/2000/svg">
<g clip-path="url(#clip0_5_304)">
<path d="M212.66 3.35209C220.296 -1.11736 229.704 -1.11737 237.34 3.35209L434.66 118.842C442.296 123.311 447 131.571 447 140.51V371.49C447 380.429 442.296 388.689 434.66 393.158L237.34 508.648C229.704 513.117 220.296 513.117 212.66 508.648L15.3404 393.158C7.70413 388.689 3 380.429 3 371.49V140.51C3 131.571 7.70413 123.311 15.3404 118.842L212.66 3.35209Z" fill="#00C2FF"/>
<path d="M214.68 6.80426C221.068 3.06525 228.932 3.06525 235.32 6.80426L432.639 122.294C439.034 126.037 443 132.974 443 140.51V371.49C443 379.026 439.034 385.963 432.639 389.706L235.32 505.196C228.932 508.935 221.068 508.935 214.68 505.196L17.3609 389.706C10.9662 385.963 7 379.026 7 371.49V140.51C7 132.974 10.9662 126.037 17.3609 122.294L214.68 6.80426Z" stroke="black" stroke-opacity="0.5" stroke-width="8"/>
<path d="M407 146C407 141.582 410.582 138 415 138C419.418 138 423 141.582 423 146V174.8H407V146Z" fill="white" fill-opacity="0.75"/>
<rect x="407" y="176.8" width="16" height="36.8" fill="white" fill-opacity="0.75"/>
<rect x="407" y="215.6" width="16" height="36.8" fill="white" fill-opacity="0.75"/>
<rect x="407" y="254.4" width="16" height="36.8" fill="white" fill-opacity="0.75"/>
<path d="M407 293.2H423V322C423 326.418 419.418 330 415 330C410.582 330 407 326.418 407 322V293.2Z" fill="white" fill-opacity="0.75"/>
<path d="M28 146C28 141.582 31.5817 138 36 138C40.4183 138 44 141.582 44 146V174.8H28V146Z" fill="black" fill-opacity="0.15"/>
<rect x="28" y="176.8" width="16" height="36.8" fill="white" fill-opacity="0.75"/>
<rect x="28" y="215.6" width="16" height="36.8" fill="white" fill-opacity="0.75"/>
<rect x="28" y="254.4" width="16" height="36.8" fill="white" fill-opacity="0.75"/>
<path d="M28 293.2H44V322C44 326.418 40.4183 330 36 330C31.5817 330 28 326.418 28 322V293.2Z" fill="white" fill-opacity="0.75"/>
<path d="M40.588 363.76L38 362.008V359.992L40.588 358.24C42.716 356.801 44 354.325 44 351.665V349H28V351.665C28 354.325 29.284 356.801 31.412 358.24L34 359.992V362.008L31.412 363.76C29.284 365.199 28 367.675 28 370.335V373H44V370.335C44 367.675 42.716 365.199 40.588 363.76Z" fill="white" fill-opacity="0.75"/>
<path fill-rule="evenodd" clip-rule="evenodd" d="M423.788 358.193L426.539 357.7L427 360.356L424.266 360.845C424.268 360.892 424.274 360.936 424.281 360.981C424.288 361.032 424.295 361.083 424.295 361.135C424.292 362.334 424.062 363.521 423.619 364.631L426.014 366.035L424.686 368.371L422.268 366.953C421.481 367.965 420.498 368.802 419.38 369.412L420.335 372.078L417.84 373L416.899 370.374C415.646 370.641 414.354 370.641 413.101 370.374L412.16 373L409.665 372.078L410.62 369.412C409.502 368.802 408.519 367.965 407.732 366.953L405.314 368.371L403.986 366.035L406.381 364.631C405.938 363.521 405.708 362.334 405.705 361.135C405.705 361.083 405.712 361.032 405.719 360.982C405.726 360.937 405.732 360.892 405.734 360.846L403 360.356L403.461 357.7L406.212 358.193C406.607 356.967 407.247 355.837 408.092 354.874L406.301 352.706L408.335 350.973L410.121 353.134C411.204 352.455 412.413 352.012 413.672 351.833V349H416.328V351.833C417.588 352.012 418.797 352.455 419.879 353.134L421.665 350.972L423.699 352.706L421.908 354.874C422.753 355.837 423.393 356.967 423.788 358.193ZM415.185 363C416.289 363 417.185 362.105 417.185 361C417.185 359.895 416.289 359 415.185 359C414.08 359 413.185 359.895 413.185 361C413.185 362.105 414.08 363 415.185 363Z" fill="white" fill-opacity="0.75"/>
<rect x="82" y="128" width="286" height="4" rx="2" fill="white" fill-opacity="0.3"/>
<rect x="82" y="380" width="286" height="4" rx="2" fill="white" fill-opacity="0.3"/>
<path d="M93.1758 249.613H87.2422L86.4219 244.309C85.638 243.525 84.6445 242.905 83.4414 242.449C82.2565 241.993 80.8529 241.766 79.2305 241.766C75.7669 241.766 73.0964 243.023 71.2188 245.539C69.3594 248.055 68.4297 251.336 68.4297 255.383V256.777C68.4297 260.824 69.3594 264.115 71.2188 266.648C73.0781 269.182 75.7031 270.449 79.0938 270.449C80.6615 270.449 82.0924 270.221 83.3867 269.766C84.6992 269.31 85.7109 268.69 86.4219 267.906L87.2422 262.602H93.1758V270.477C91.5716 272.336 89.5208 273.822 87.0234 274.934C84.5443 276.027 81.7643 276.574 78.6836 276.574C73.3424 276.574 68.9674 274.724 65.5586 271.023C62.1497 267.323 60.4453 262.574 60.4453 256.777V255.438C60.4453 249.659 62.1406 244.91 65.5312 241.191C68.9219 237.473 73.306 235.613 78.6836 235.613C81.7643 235.613 84.5443 236.178 87.0234 237.309C89.5026 238.421 91.5534 239.897 93.1758 241.738V249.613ZM120.902 261.18H125.414V266.484H120.902V270.395L125.141 271.215V276H108.68V271.215L112.945 270.395V266.484H96.7031L96.3203 262.574L112.863 236.188H120.902V261.18ZM103.785 261.18H112.945V246.824L112.781 246.77L112.125 247.918L103.785 261.18ZM180.566 246.551L180.402 246.523L169.738 276H164.379L153.77 246.633L153.605 246.66L154.371 264.133V270.395L158.637 271.215V276H142.148V271.215L146.387 270.395V241.82L142.148 241V236.188H146.387H156.805L166.949 265.527H167.113L177.34 236.188H192.051V241L187.785 241.82V270.395L192.051 271.215V276H175.562V271.215L179.801 270.395V264.133L180.566 246.551ZM195.113 260.934C195.113 256.522 196.344 252.913 198.805 250.105C201.284 247.28 204.702 245.867 209.059 245.867C213.434 245.867 216.852 247.271 219.312 250.078C221.792 252.885 223.031 256.504 223.031 260.934V261.508C223.031 265.956 221.792 269.583 219.312 272.391C216.852 275.18 213.452 276.574 209.113 276.574C204.72 276.574 201.284 275.18 198.805 272.391C196.344 269.583 195.113 265.956 195.113 261.508V260.934ZM203.098 261.508C203.098 264.206 203.572 266.375 204.52 268.016C205.467 269.638 206.999 270.449 209.113 270.449C211.173 270.449 212.677 269.629 213.625 267.988C214.591 266.348 215.074 264.188 215.074 261.508V260.934C215.074 258.309 214.591 256.167 213.625 254.508C212.659 252.849 211.137 252.02 209.059 252.02C206.98 252.02 205.467 252.849 204.52 254.508C203.572 256.167 203.098 258.309 203.098 260.934V261.508ZM245.754 272.391C244.824 273.758 243.721 274.797 242.445 275.508C241.188 276.219 239.747 276.574 238.125 276.574C234.479 276.574 231.645 275.243 229.621 272.582C227.616 269.921 226.613 266.402 226.613 262.027V261.453C226.613 256.786 227.625 253.022 229.648 250.16C231.672 247.298 234.516 245.867 238.18 245.867C239.656 245.867 240.987 246.195 242.172 246.852C243.357 247.49 244.396 248.401 245.289 249.586V238.977L241.023 238.156V233.344H245.289H253.273V270.395L257.102 271.215V276H246.355L245.754 272.391ZM234.598 262.027C234.598 264.616 235.026 266.658 235.883 268.152C236.758 269.629 238.18 270.367 240.148 270.367C241.315 270.367 242.327 270.13 243.184 269.656C244.04 269.182 244.742 268.499 245.289 267.605V255.055C244.742 254.107 244.04 253.378 243.184 252.867C242.345 252.339 241.352 252.074 240.203 252.074C238.253 252.074 236.831 252.94 235.938 254.672C235.044 256.404 234.598 258.664 234.598 261.453V262.027ZM273.809 276.574C269.543 276.574 266.134 275.207 263.582 272.473C261.03 269.738 259.754 266.266 259.754 262.055V260.961C259.754 256.568 260.957 252.949 263.363 250.105C265.788 247.262 269.033 245.849 273.098 245.867C277.09 245.867 280.189 247.07 282.395 249.477C284.6 251.883 285.703 255.137 285.703 259.238V263.586H268.039L267.984 263.75C268.13 265.701 268.777 267.305 269.926 268.562C271.092 269.82 272.669 270.449 274.656 270.449C276.424 270.449 277.892 270.276 279.059 269.93C280.225 269.565 281.501 269 282.887 268.234L285.047 273.156C283.826 274.122 282.24 274.934 280.289 275.59C278.357 276.246 276.197 276.574 273.809 276.574ZM273.098 252.02C271.621 252.02 270.454 252.585 269.598 253.715C268.741 254.845 268.212 256.331 268.012 258.172L268.094 258.309H277.883V257.598C277.883 255.902 277.482 254.553 276.68 253.551C275.896 252.53 274.702 252.02 273.098 252.02ZM288.656 238.156V233.344H300.906V270.395L304.762 271.215V276H289.066V271.215L292.922 270.395V238.977L288.656 238.156ZM307.141 271.215L310.996 270.395V252.047L306.73 251.227V246.414H318.98V270.395L322.809 271.215V276H307.141V271.215ZM318.98 239.332H310.996V233.344H318.98V239.332ZM324.996 271.215L328.824 270.395V252.047L324.586 251.227V246.414H336.262L336.617 250.652C337.602 249.139 338.814 247.964 340.254 247.125C341.694 246.286 343.307 245.867 345.094 245.867C348.083 245.867 350.417 246.806 352.094 248.684C353.771 250.561 354.609 253.505 354.609 257.516V270.395L358.438 271.215V276H343.18V271.215L346.598 270.395V257.543C346.598 255.556 346.197 254.152 345.395 253.332C344.592 252.493 343.38 252.074 341.758 252.074C340.701 252.074 339.753 252.293 338.914 252.73C338.076 253.15 337.374 253.751 336.809 254.535V270.395L340.035 271.215V276H324.996V271.215ZM361.199 261.453C361.199 256.786 362.211 253.022 364.234 250.16C366.276 247.298 369.129 245.867 372.793 245.867C374.452 245.867 375.91 246.241 377.168 246.988C378.426 247.717 379.501 248.766 380.395 250.133L380.969 246.414H387.914V275.125C387.914 279.026 386.684 282.134 384.223 284.449C381.78 286.783 378.417 287.949 374.133 287.949C372.638 287.949 371.052 287.74 369.375 287.32C367.698 286.919 366.148 286.363 364.727 285.652L366.203 280.047C367.479 280.594 368.755 281.022 370.031 281.332C371.307 281.66 372.656 281.824 374.078 281.824C376.029 281.824 377.487 281.232 378.453 280.047C379.419 278.862 379.902 277.212 379.902 275.098V273.156C379.027 274.268 377.997 275.116 376.812 275.699C375.628 276.283 374.27 276.574 372.738 276.574C369.111 276.574 366.276 275.243 364.234 272.582C362.211 269.902 361.199 266.384 361.199 262.027V261.453ZM369.184 262.027C369.184 264.616 369.621 266.658 370.496 268.152C371.371 269.629 372.793 270.367 374.762 270.367C375.983 270.367 377.013 270.148 377.852 269.711C378.708 269.255 379.392 268.599 379.902 267.742V254.891C379.392 253.997 378.708 253.305 377.852 252.812C377.013 252.32 376.001 252.074 374.816 252.074C372.866 252.074 371.435 252.94 370.523 254.672C369.63 256.404 369.184 258.664 369.184 261.453V262.027Z" fill="white"/>
<path d="M149.688 107V103.797L152.047 103.297V87.9688L149.688 87.4688V84.25H152.047H160.75C162.562 84.25 164.135 84.5677 165.469 85.2031C166.802 85.8385 167.828 86.724 168.547 87.8594C169.276 88.9844 169.641 90.2969 169.641 91.7969C169.641 93.2969 169.276 94.6094 168.547 95.7344C167.828 96.8594 166.802 97.7344 165.469 98.3594C164.135 98.9844 162.562 99.2969 160.75 99.2969H157.531V103.297L159.891 103.797V107H149.688ZM157.531 95.0938H160.75C161.865 95.0938 162.708 94.7917 163.281 94.1875C163.865 93.5729 164.156 92.7865 164.156 91.8281C164.156 90.8385 163.865 90.026 163.281 89.3906C162.708 88.7552 161.865 88.4375 160.75 88.4375H157.531V95.0938ZM170.656 107V103.797L173.016 103.297V87.9688L170.656 87.4688V84.2344H181.844C183.646 84.2344 185.208 84.5208 186.531 85.0938C187.854 85.6667 188.875 86.4844 189.594 87.5469C190.312 88.599 190.672 89.849 190.672 91.2969C190.672 92.6302 190.307 93.8698 189.578 95.0156C188.859 96.1615 187.87 97.0833 186.609 97.7812C185.349 98.4688 183.911 98.8073 182.297 98.7969L178.5 98.75V103.297L180.859 103.797V107H170.656ZM185.062 107L182 98.125L186.766 96.5L189.531 103.266L191.688 103.812V107H185.062ZM178.5 94.5469H181.906C182.969 94.5469 183.786 94.3021 184.359 93.8125C184.932 93.3125 185.219 92.5938 185.219 91.6562C185.219 90.6875 184.927 89.9115 184.344 89.3281C183.76 88.7344 182.927 88.4375 181.844 88.4375H178.5V94.5469ZM204.016 107.328C202.443 107.328 200.995 107.042 199.672 106.469C198.359 105.885 197.219 105.073 196.25 104.031C195.281 102.99 194.531 101.771 194 100.375C193.479 98.9688 193.219 97.4427 193.219 95.7969V95.4375C193.219 93.8021 193.479 92.2865 194 90.8906C194.531 89.4948 195.276 88.276 196.234 87.2344C197.203 86.1927 198.344 85.3802 199.656 84.7969C200.969 84.2135 202.411 83.9219 203.984 83.9219C205.526 83.9219 206.958 84.2135 208.281 84.7969C209.604 85.3802 210.76 86.1927 211.75 87.2344C212.75 88.276 213.526 89.4948 214.078 90.8906C214.63 92.2865 214.906 93.8021 214.906 95.4375V95.7969C214.906 97.4427 214.63 98.9688 214.078 100.375C213.526 101.771 212.755 102.99 211.766 104.031C210.776 105.073 209.62 105.885 208.297 106.469C206.974 107.042 205.547 107.328 204.016 107.328ZM204.016 103.172C205.161 103.172 206.141 102.865 206.953 102.25C207.766 101.635 208.385 100.776 208.812 99.6719C209.24 98.5677 209.453 97.276 209.453 95.7969V95.4062C209.453 93.9583 209.234 92.6875 208.797 91.5938C208.37 90.4896 207.75 89.6302 206.938 89.0156C206.125 88.401 205.141 88.0938 203.984 88.0938C202.766 88.0938 201.766 88.3958 200.984 89C200.214 89.6042 199.641 90.4531 199.266 91.5469C198.891 92.6406 198.703 93.9271 198.703 95.4062V95.7969C198.703 97.276 198.891 98.5729 199.266 99.6875C199.651 100.792 200.234 101.651 201.016 102.266C201.807 102.87 202.807 103.172 204.016 103.172ZM227.578 107.328C225.411 107.328 223.479 106.891 221.781 106.016C220.083 105.141 218.75 103.875 217.781 102.219C216.812 100.552 216.328 98.5312 216.328 96.1562V95.1094C216.328 92.9219 216.771 90.9896 217.656 89.3125C218.552 87.625 219.823 86.3073 221.469 85.3594C223.125 84.401 225.089 83.9219 227.359 83.9219C228.943 83.9219 230.448 84.1354 231.875 84.5625C233.312 84.9792 234.646 85.6979 235.875 86.7188V92.5781H231.891L231.344 89.2188C230.99 88.9792 230.615 88.7708 230.219 88.5938C229.833 88.4167 229.417 88.2812 228.969 88.1875C228.531 88.0938 228.057 88.0469 227.547 88.0469C226.391 88.0469 225.38 88.3229 224.516 88.875C223.651 89.4271 222.979 90.2292 222.5 91.2812C222.031 92.3229 221.797 93.5885 221.797 95.0781V96.1562C221.797 97.5521 222.042 98.7812 222.531 99.8438C223.021 100.896 223.703 101.719 224.578 102.312C225.464 102.906 226.484 103.203 227.641 103.203C228.255 103.203 228.88 103.141 229.516 103.016C230.151 102.88 230.766 102.703 231.359 102.484L231.906 99.2656H235.906V105C235 105.625 233.844 106.172 232.438 106.641C231.031 107.099 229.411 107.328 227.578 107.328ZM237.344 107V103.797L239.703 103.297V87.9688L237.344 87.4688V84.25H255.516V90.8125H251.375L251.25 88.4688H245.188V93.1406H252.453V97.3438H245.188V102.766H251.547L251.672 100.312H255.766V107H237.344ZM267.766 107.328C265.911 107.328 264.266 107.151 262.828 106.797C261.391 106.443 259.958 105.776 258.531 104.797V98.8906H262.766L263.234 101.922C263.568 102.297 264.156 102.615 265 102.875C265.844 103.125 266.766 103.25 267.766 103.25C268.464 103.25 269.047 103.167 269.516 103C269.984 102.823 270.339 102.568 270.578 102.234C270.818 101.901 270.938 101.5 270.938 101.031C270.938 100.583 270.823 100.182 270.594 99.8281C270.375 99.474 270.01 99.1406 269.5 98.8281C268.99 98.5052 268.302 98.1771 267.438 97.8438C265.49 97.2188 263.891 96.5833 262.641 95.9375C261.391 95.2917 260.458 94.526 259.844 93.6406C259.24 92.7552 258.938 91.6562 258.938 90.3438C258.938 89.0833 259.297 87.9844 260.016 87.0469C260.734 86.099 261.724 85.3542 262.984 84.8125C264.245 84.2708 265.688 83.9844 267.312 83.9531C269.167 83.9115 270.807 84.099 272.234 84.5156C273.661 84.9219 274.922 85.5417 276.016 86.375V91.8594H271.953L271.312 88.8125C270.958 88.6354 270.453 88.474 269.797 88.3281C269.141 88.1823 268.443 88.1094 267.703 88.1094C267.068 88.1094 266.5 88.1927 266 88.3594C265.51 88.526 265.12 88.776 264.828 89.1094C264.547 89.4427 264.406 89.8594 264.406 90.3594C264.406 90.7656 264.526 91.1302 264.766 91.4531C265.005 91.7656 265.427 92.0833 266.031 92.4062C266.635 92.7188 267.479 93.0833 268.562 93.5C271.146 94.2604 273.104 95.2135 274.438 96.3594C275.781 97.4948 276.453 99.0417 276.453 101C276.453 102.344 276.089 103.49 275.359 104.438C274.63 105.375 273.615 106.094 272.312 106.594C271.01 107.083 269.495 107.328 267.766 107.328ZM287.641 107.328C285.786 107.328 284.141 107.151 282.703 106.797C281.266 106.443 279.833 105.776 278.406 104.797V98.8906H282.641L283.109 101.922C283.443 102.297 284.031 102.615 284.875 102.875C285.719 103.125 286.641 103.25 287.641 103.25C288.339 103.25 288.922 103.167 289.391 103C289.859 102.823 290.214 102.568 290.453 102.234C290.693 101.901 290.812 101.5 290.812 101.031C290.812 100.583 290.698 100.182 290.469 99.8281C290.25 99.474 289.885 99.1406 289.375 98.8281C288.865 98.5052 288.177 98.1771 287.312 97.8438C285.365 97.2188 283.766 96.5833 282.516 95.9375C281.266 95.2917 280.333 94.526 279.719 93.6406C279.115 92.7552 278.812 91.6562 278.812 90.3438C278.812 89.0833 279.172 87.9844 279.891 87.0469C280.609 86.099 281.599 85.3542 282.859 84.8125C284.12 84.2708 285.562 83.9844 287.188 83.9531C289.042 83.9115 290.682 84.099 292.109 84.5156C293.536 84.9219 294.797 85.5417 295.891 86.375V91.8594H291.828L291.188 88.8125C290.833 88.6354 290.328 88.474 289.672 88.3281C289.016 88.1823 288.318 88.1094 287.578 88.1094C286.943 88.1094 286.375 88.1927 285.875 88.3594C285.385 88.526 284.995 88.776 284.703 89.1094C284.422 89.4427 284.281 89.8594 284.281 90.3594C284.281 90.7656 284.401 91.1302 284.641 91.4531C284.88 91.7656 285.302 92.0833 285.906 92.4062C286.51 92.7188 287.354 93.0833 288.438 93.5C291.021 94.2604 292.979 95.2135 294.312 96.3594C295.656 97.4948 296.328 99.0417 296.328 101C296.328 102.344 295.964 103.49 295.234 104.438C294.505 105.375 293.49 106.094 292.188 106.594C290.885 107.083 289.37 107.328 287.641 107.328Z" fill="black" fill-opacity="0.3"/>
</g>
<defs>
<clipPath id="clip0_5_304">
<rect width="450" height="512" fill="white"/>
</clipPath>
</defs>
</svg>
