<svg width="450" height="512" viewBox="0 0 450 512" fill="none" xmlns="http://www.w3.org/2000/svg">
<path d="M212.66 3.35209C220.296 -1.11736 229.704 -1.11737 237.34 3.35209L434.66 118.842C442.296 123.311 447 131.571 447 140.51V371.49C447 380.429 442.296 388.689 434.66 393.158L237.34 508.648C229.704 513.117 220.296 513.117 212.66 508.648L15.3404 393.158C7.70413 388.689 3 380.429 3 371.49V140.51C3 131.571 7.70413 123.311 15.3404 118.842L212.66 3.35209Z" fill="white"/>
<path d="M214.68 6.80426C221.068 3.06525 228.932 3.06525 235.32 6.80426L432.639 122.294C439.034 126.037 443 132.974 443 140.51V371.49C443 379.026 439.034 385.963 432.639 389.706L235.32 505.196C228.932 508.935 221.068 508.935 214.68 505.196L17.3609 389.706C10.9662 385.963 7 379.026 7 371.49V140.51C7 132.974 10.9662 126.037 17.3609 122.294L214.68 6.80426Z" stroke="black" stroke-opacity="0.5" stroke-width="8"/>
<rect x="82" y="128" width="286" height="4" rx="2" fill="black" fill-opacity="0.3"/>
<rect x="82" y="380" width="286" height="4" rx="2" fill="black" fill-opacity="0.3"/>
<path d="M118.961 193.613H113.027L112.207 188.309C111.423 187.525 110.43 186.905 109.227 186.449C108.042 185.993 106.638 185.766 105.016 185.766C101.552 185.766 98.8815 187.023 97.0039 189.539C95.1445 192.055 94.2148 195.336 94.2148 199.383V200.777C94.2148 204.824 95.1445 208.115 97.0039 210.648C98.8633 213.182 101.488 214.449 104.879 214.449C106.447 214.449 107.878 214.221 109.172 213.766C110.484 213.31 111.496 212.69 112.207 211.906L113.027 206.602H118.961V214.477C117.357 216.336 115.306 217.822 112.809 218.934C110.329 220.027 107.549 220.574 104.469 220.574C99.1276 220.574 94.7526 218.724 91.3438 215.023C87.9349 211.323 86.2305 206.574 86.2305 200.777V199.438C86.2305 193.659 87.9258 188.91 91.3164 185.191C94.707 181.473 99.0911 179.613 104.469 179.613C107.549 179.613 110.329 180.178 112.809 181.309C115.288 182.421 117.339 183.897 118.961 185.738V193.613ZM146.688 205.18H151.199V210.484H146.688V214.395L150.926 215.215V220H134.465V215.215L138.73 214.395V210.484H122.488L122.105 206.574L138.648 180.188H146.688V205.18ZM129.57 205.18H138.73V190.824L138.566 190.77L137.91 191.918L129.57 205.18ZM198.176 192.902H192.188L191.148 187.434C190.456 186.996 189.444 186.613 188.113 186.285C186.783 185.957 185.37 185.793 183.875 185.793C181.688 185.793 179.992 186.258 178.789 187.188C177.604 188.099 177.012 189.284 177.012 190.742C177.012 192.091 177.632 193.203 178.871 194.078C180.129 194.935 182.289 195.846 185.352 196.812C189.745 198.034 193.072 199.647 195.332 201.652C197.611 203.658 198.75 206.292 198.75 209.555C198.75 212.964 197.401 215.652 194.703 217.621C192.005 219.59 188.451 220.574 184.039 220.574C180.885 220.574 178.033 220.073 175.48 219.07C172.947 218.068 170.832 216.682 169.137 214.914V206.602H175.316L176.164 212.262C176.966 212.918 178.051 213.465 179.418 213.902C180.803 214.322 182.344 214.531 184.039 214.531C186.227 214.531 187.885 214.085 189.016 213.191C190.164 212.298 190.738 211.104 190.738 209.609C190.738 208.078 190.191 206.848 189.098 205.918C188.022 204.988 186.126 204.113 183.41 203.293C178.689 201.926 175.116 200.303 172.691 198.426C170.267 196.548 169.055 193.978 169.055 190.715C169.055 187.488 170.422 184.854 173.156 182.812C175.891 180.753 179.327 179.695 183.465 179.641C186.527 179.641 189.316 180.105 191.832 181.035C194.348 181.965 196.462 183.204 198.176 184.754V192.902ZM232.711 195.227L229.949 195.637L219.066 224.43C218.21 226.562 217.061 228.349 215.621 229.789C214.199 231.229 212.048 231.949 209.168 231.949C208.493 231.949 207.855 231.895 207.254 231.785C206.671 231.676 205.978 231.521 205.176 231.32L206.105 225.496C206.361 225.533 206.625 225.569 206.898 225.605C207.172 225.642 207.409 225.66 207.609 225.66C208.94 225.66 209.961 225.332 210.672 224.676C211.383 224.038 211.93 223.236 212.312 222.27L213.215 220.027L203.836 195.664L201.074 195.227V190.414H215.566V195.227L212.258 195.773L216.305 207.586L216.715 209.719L216.879 209.746L221.555 195.773L218.219 195.227V190.414H232.711V195.227ZM259.371 200.586H254.012L253.164 196.895C252.617 196.457 251.924 196.092 251.086 195.801C250.266 195.509 249.354 195.363 248.352 195.363C246.948 195.363 245.836 195.682 245.016 196.32C244.195 196.94 243.785 197.724 243.785 198.672C243.785 199.565 244.177 200.312 244.961 200.914C245.745 201.497 247.312 202.017 249.664 202.473C253.328 203.202 256.044 204.277 257.812 205.699C259.581 207.103 260.465 209.044 260.465 211.523C260.465 214.185 259.316 216.363 257.02 218.059C254.741 219.736 251.733 220.574 247.996 220.574C245.717 220.574 243.621 220.246 241.707 219.59C239.811 218.915 238.125 217.958 236.648 216.719L236.566 210.074H242.145L243.238 213.93C243.712 214.331 244.359 214.632 245.18 214.832C246 215.014 246.857 215.105 247.75 215.105C249.372 215.105 250.603 214.814 251.441 214.23C252.298 213.647 252.727 212.854 252.727 211.852C252.727 210.977 252.298 210.22 251.441 209.582C250.585 208.944 249.008 208.379 246.711 207.887C243.229 207.176 240.595 206.128 238.809 204.742C237.04 203.339 236.156 201.434 236.156 199.027C236.156 196.548 237.177 194.415 239.219 192.629C241.26 190.824 244.168 189.922 247.941 189.922C250.238 189.922 252.408 190.232 254.449 190.852C256.509 191.471 258.122 192.264 259.289 193.23L259.371 200.586ZM275.832 183.168V190.414H281.027V196.02H275.832V211.086C275.832 212.234 276.069 213.055 276.543 213.547C277.017 214.039 277.655 214.285 278.457 214.285C279.004 214.285 279.478 214.267 279.879 214.23C280.298 214.176 280.763 214.094 281.273 213.984L281.957 219.754C281.064 220.027 280.18 220.228 279.305 220.355C278.43 220.501 277.482 220.574 276.461 220.574C273.708 220.574 271.585 219.818 270.09 218.305C268.613 216.792 267.875 214.395 267.875 211.113V196.02H263.527V190.414H267.875V183.168H275.832ZM299.102 220.574C294.836 220.574 291.427 219.207 288.875 216.473C286.323 213.738 285.047 210.266 285.047 206.055V204.961C285.047 200.568 286.25 196.949 288.656 194.105C291.081 191.262 294.326 189.849 298.391 189.867C302.383 189.867 305.482 191.07 307.688 193.477C309.893 195.883 310.996 199.137 310.996 203.238V207.586H293.332L293.277 207.75C293.423 209.701 294.07 211.305 295.219 212.562C296.385 213.82 297.962 214.449 299.949 214.449C301.717 214.449 303.185 214.276 304.352 213.93C305.518 213.565 306.794 213 308.18 212.234L310.34 217.156C309.118 218.122 307.533 218.934 305.582 219.59C303.65 220.246 301.49 220.574 299.102 220.574ZM298.391 196.02C296.914 196.02 295.747 196.585 294.891 197.715C294.034 198.845 293.505 200.331 293.305 202.172L293.387 202.309H303.176V201.598C303.176 199.902 302.775 198.553 301.973 197.551C301.189 196.53 299.995 196.02 298.391 196.02ZM313.867 195.227V190.414H325.543L325.871 194.324C326.819 192.902 328.004 191.809 329.426 191.043C330.866 190.259 332.525 189.867 334.402 189.867C336.298 189.867 337.921 190.286 339.27 191.125C340.618 191.964 341.639 193.23 342.332 194.926C343.243 193.34 344.428 192.1 345.887 191.207C347.345 190.314 349.059 189.867 351.027 189.867C353.944 189.867 356.241 190.879 357.918 192.902C359.613 194.908 360.461 197.97 360.461 202.09V214.395L364.316 215.215V220H349.031V215.215L352.477 214.395V202.062C352.477 199.82 352.112 198.262 351.383 197.387C350.654 196.512 349.569 196.074 348.129 196.074C346.999 196.074 346.014 196.329 345.176 196.84C344.355 197.332 343.699 198.025 343.207 198.918C343.207 199.264 343.216 199.565 343.234 199.82C343.253 200.057 343.262 200.303 343.262 200.559V214.395L346.488 215.215V220H332.078V215.215L335.305 214.395V202.062C335.305 199.875 334.94 198.335 334.211 197.441C333.482 196.53 332.388 196.074 330.93 196.074C329.854 196.074 328.906 196.284 328.086 196.703C327.284 197.104 326.618 197.678 326.09 198.426V214.395L329.535 215.215V220H314.277V215.215L318.133 214.395V196.047L313.867 195.227ZM155.41 249.613H149.477L148.656 244.309C147.872 243.525 146.879 242.905 145.676 242.449C144.491 241.993 143.087 241.766 141.465 241.766C138.001 241.766 135.331 243.023 133.453 245.539C131.594 248.055 130.664 251.336 130.664 255.383V256.777C130.664 260.824 131.594 264.115 133.453 266.648C135.312 269.182 137.938 270.449 141.328 270.449C142.896 270.449 144.327 270.221 145.621 269.766C146.934 269.31 147.945 268.69 148.656 267.906L149.477 262.602H155.41V270.477C153.806 272.336 151.755 273.822 149.258 274.934C146.779 276.027 143.999 276.574 140.918 276.574C135.577 276.574 131.202 274.724 127.793 271.023C124.384 267.323 122.68 262.574 122.68 256.777V255.438C122.68 249.659 124.375 244.91 127.766 241.191C131.156 237.473 135.54 235.613 140.918 235.613C143.999 235.613 146.779 236.178 149.258 237.309C151.737 238.421 153.788 239.897 155.41 241.738V249.613ZM159.293 260.934C159.293 256.522 160.523 252.913 162.984 250.105C165.464 247.28 168.882 245.867 173.238 245.867C177.613 245.867 181.031 247.271 183.492 250.078C185.971 252.885 187.211 256.504 187.211 260.934V261.508C187.211 265.956 185.971 269.583 183.492 272.391C181.031 275.18 177.632 276.574 173.293 276.574C168.9 276.574 165.464 275.18 162.984 272.391C160.523 269.583 159.293 265.956 159.293 261.508V260.934ZM167.277 261.508C167.277 264.206 167.751 266.375 168.699 268.016C169.647 269.638 171.178 270.449 173.293 270.449C175.353 270.449 176.857 269.629 177.805 267.988C178.771 266.348 179.254 264.188 179.254 261.508V260.934C179.254 258.309 178.771 256.167 177.805 254.508C176.839 252.849 175.316 252.02 173.238 252.02C171.16 252.02 169.647 252.849 168.699 254.508C167.751 256.167 167.277 258.309 167.277 260.934V261.508ZM190.246 271.215L194.074 270.395V252.047L189.836 251.227V246.414H201.512L201.867 250.652C202.852 249.139 204.064 247.964 205.504 247.125C206.944 246.286 208.557 245.867 210.344 245.867C213.333 245.867 215.667 246.806 217.344 248.684C219.021 250.561 219.859 253.505 219.859 257.516V270.395L223.688 271.215V276H208.43V271.215L211.848 270.395V257.543C211.848 255.556 211.447 254.152 210.645 253.332C209.842 252.493 208.63 252.074 207.008 252.074C205.951 252.074 205.003 252.293 204.164 252.73C203.326 253.15 202.624 253.751 202.059 254.535V270.395L205.285 271.215V276H190.246V271.215ZM238.016 239.168V246.414H243.211V252.02H238.016V267.086C238.016 268.234 238.253 269.055 238.727 269.547C239.201 270.039 239.839 270.285 240.641 270.285C241.188 270.285 241.661 270.267 242.062 270.23C242.482 270.176 242.947 270.094 243.457 269.984L244.141 275.754C243.247 276.027 242.363 276.228 241.488 276.355C240.613 276.501 239.665 276.574 238.645 276.574C235.892 276.574 233.768 275.818 232.273 274.305C230.797 272.792 230.059 270.395 230.059 267.113V252.02H225.711V246.414H230.059V239.168H238.016ZM261.285 276.574C257.02 276.574 253.611 275.207 251.059 272.473C248.507 269.738 247.23 266.266 247.23 262.055V260.961C247.23 256.568 248.434 252.949 250.84 250.105C253.264 247.262 256.509 245.849 260.574 245.867C264.566 245.867 267.665 247.07 269.871 249.477C272.077 251.883 273.18 255.137 273.18 259.238V263.586H255.516L255.461 263.75C255.607 265.701 256.254 267.305 257.402 268.562C258.569 269.82 260.146 270.449 262.133 270.449C263.901 270.449 265.368 270.276 266.535 269.93C267.702 269.565 268.978 269 270.363 268.234L272.523 273.156C271.302 274.122 269.716 274.934 267.766 275.59C265.833 276.246 263.673 276.574 261.285 276.574ZM260.574 252.02C259.098 252.02 257.931 252.585 257.074 253.715C256.217 254.845 255.689 256.331 255.488 258.172L255.57 258.309H265.359V257.598C265.359 255.902 264.958 254.553 264.156 253.551C263.372 252.53 262.178 252.02 260.574 252.02ZM276.133 271.215L278.895 270.777L286.934 261.043L279.168 251.691L276.406 251.227V246.414H289.723V251.035L287.016 251.363L291.5 257.051L295.902 251.363L293.141 251.035V246.414H306.512V251.227L303.832 251.691L296.23 261.043L304.242 270.777L307.031 271.215V276H293.496V271.406L296.203 271.078L291.609 265.117L286.934 271.105L289.312 271.406V276H276.133V271.215ZM321.359 239.168V246.414H326.555V252.02H321.359V267.086C321.359 268.234 321.596 269.055 322.07 269.547C322.544 270.039 323.182 270.285 323.984 270.285C324.531 270.285 325.005 270.267 325.406 270.23C325.826 270.176 326.29 270.094 326.801 269.984L327.484 275.754C326.591 276.027 325.707 276.228 324.832 276.355C323.957 276.501 323.009 276.574 321.988 276.574C319.236 276.574 317.112 275.818 315.617 274.305C314.141 272.792 313.402 270.395 313.402 267.113V252.02H309.055V246.414H313.402V239.168H321.359ZM131.758 292.188C136.625 292.188 140.635 293.746 143.789 296.863C146.943 299.962 148.52 303.945 148.52 308.812V315.402C148.52 320.288 146.943 324.28 143.789 327.379C140.635 330.46 136.625 332 131.758 332H113.848V327.215L118.086 326.395V297.82L113.848 297V292.188H118.086H131.758ZM126.07 298.34V325.875H131.348C134.21 325.875 136.452 324.909 138.074 322.977C139.697 321.044 140.508 318.52 140.508 315.402V308.758C140.508 305.677 139.697 303.171 138.074 301.238C136.452 299.306 134.21 298.34 131.348 298.34H126.07ZM152.402 327.215L156.258 326.395V308.047L151.992 307.227V302.414H164.242V326.395L168.07 327.215V332H152.402V327.215ZM164.242 295.332H156.258V289.344H164.242V295.332ZM189.535 332C189.316 331.508 189.125 331.007 188.961 330.496C188.797 329.967 188.669 329.439 188.578 328.91C187.63 330.004 186.473 330.888 185.105 331.562C183.757 332.237 182.207 332.574 180.457 332.574C177.559 332.574 175.253 331.79 173.539 330.223C171.844 328.637 170.996 326.486 170.996 323.77C170.996 320.999 172.108 318.857 174.332 317.344C176.556 315.831 179.819 315.074 184.121 315.074H188.195V312.176C188.195 310.754 187.785 309.651 186.965 308.867C186.145 308.083 184.932 307.691 183.328 307.691C182.417 307.691 181.605 307.801 180.895 308.02C180.184 308.22 179.609 308.466 179.172 308.758L178.652 311.93H172.637L172.664 305.367C174.122 304.383 175.79 303.553 177.668 302.879C179.564 302.204 181.624 301.867 183.848 301.867C187.512 301.867 190.483 302.77 192.762 304.574C195.059 306.361 196.207 308.913 196.207 312.23V324.453C196.207 324.909 196.207 325.337 196.207 325.738C196.225 326.139 196.262 326.522 196.316 326.887L198.75 327.215V332H189.535ZM182.617 326.668C183.82 326.668 184.914 326.413 185.898 325.902C186.883 325.374 187.648 324.717 188.195 323.934V319.422H184.121C182.426 319.422 181.141 319.823 180.266 320.625C179.391 321.409 178.953 322.357 178.953 323.469C178.953 324.471 179.272 325.255 179.91 325.82C180.566 326.385 181.469 326.668 182.617 326.668ZM201.977 317.453C201.977 312.786 202.988 309.022 205.012 306.16C207.053 303.298 209.906 301.867 213.57 301.867C215.229 301.867 216.688 302.241 217.945 302.988C219.203 303.717 220.279 304.766 221.172 306.133L221.746 302.414H228.691V331.125C228.691 335.026 227.461 338.134 225 340.449C222.557 342.783 219.194 343.949 214.91 343.949C213.415 343.949 211.829 343.74 210.152 343.32C208.475 342.919 206.926 342.363 205.504 341.652L206.98 336.047C208.257 336.594 209.533 337.022 210.809 337.332C212.085 337.66 213.434 337.824 214.855 337.824C216.806 337.824 218.264 337.232 219.23 336.047C220.197 334.862 220.68 333.212 220.68 331.098V329.156C219.805 330.268 218.775 331.116 217.59 331.699C216.405 332.283 215.047 332.574 213.516 332.574C209.888 332.574 207.053 331.243 205.012 328.582C202.988 325.902 201.977 322.384 201.977 318.027V317.453ZM209.961 318.027C209.961 320.616 210.398 322.658 211.273 324.152C212.148 325.629 213.57 326.367 215.539 326.367C216.76 326.367 217.79 326.148 218.629 325.711C219.486 325.255 220.169 324.599 220.68 323.742V310.891C220.169 309.997 219.486 309.305 218.629 308.812C217.79 308.32 216.779 308.074 215.594 308.074C213.643 308.074 212.212 308.94 211.301 310.672C210.408 312.404 209.961 314.664 209.961 317.453V318.027ZM234.078 327.215L237.906 326.395V308.047L233.668 307.227V302.414H245.344L245.699 306.734C246.392 305.203 247.285 304.009 248.379 303.152C249.473 302.296 250.74 301.867 252.18 301.867C252.599 301.867 253.036 301.904 253.492 301.977C253.966 302.031 254.358 302.104 254.668 302.195L253.82 309.469L250.539 309.387C249.372 309.387 248.406 309.615 247.641 310.07C246.875 310.526 246.292 311.173 245.891 312.012V326.395L249.719 327.215V332H234.078V327.215ZM275.34 332C275.121 331.508 274.93 331.007 274.766 330.496C274.602 329.967 274.474 329.439 274.383 328.91C273.435 330.004 272.277 330.888 270.91 331.562C269.561 332.237 268.012 332.574 266.262 332.574C263.363 332.574 261.057 331.79 259.344 330.223C257.648 328.637 256.801 326.486 256.801 323.77C256.801 320.999 257.913 318.857 260.137 317.344C262.361 315.831 265.624 315.074 269.926 315.074H274V312.176C274 310.754 273.59 309.651 272.77 308.867C271.949 308.083 270.737 307.691 269.133 307.691C268.221 307.691 267.41 307.801 266.699 308.02C265.988 308.22 265.414 308.466 264.977 308.758L264.457 311.93H258.441L258.469 305.367C259.927 304.383 261.595 303.553 263.473 302.879C265.368 302.204 267.428 301.867 269.652 301.867C273.316 301.867 276.288 302.77 278.566 304.574C280.863 306.361 282.012 308.913 282.012 312.23V324.453C282.012 324.909 282.012 325.337 282.012 325.738C282.03 326.139 282.066 326.522 282.121 326.887L284.555 327.215V332H275.34ZM268.422 326.668C269.625 326.668 270.719 326.413 271.703 325.902C272.688 325.374 273.453 324.717 274 323.934V319.422H269.926C268.23 319.422 266.945 319.823 266.07 320.625C265.195 321.409 264.758 322.357 264.758 323.469C264.758 324.471 265.077 325.255 265.715 325.82C266.371 326.385 267.273 326.668 268.422 326.668ZM286.359 307.227V302.414H298.035L298.363 306.324C299.311 304.902 300.496 303.809 301.918 303.043C303.358 302.259 305.017 301.867 306.895 301.867C308.79 301.867 310.413 302.286 311.762 303.125C313.111 303.964 314.132 305.23 314.824 306.926C315.736 305.34 316.921 304.1 318.379 303.207C319.837 302.314 321.551 301.867 323.52 301.867C326.436 301.867 328.733 302.879 330.41 304.902C332.105 306.908 332.953 309.97 332.953 314.09V326.395L336.809 327.215V332H321.523V327.215L324.969 326.395V314.062C324.969 311.82 324.604 310.262 323.875 309.387C323.146 308.512 322.061 308.074 320.621 308.074C319.491 308.074 318.507 308.329 317.668 308.84C316.848 309.332 316.191 310.025 315.699 310.918C315.699 311.264 315.708 311.565 315.727 311.82C315.745 312.057 315.754 312.303 315.754 312.559V326.395L318.98 327.215V332H304.57V327.215L307.797 326.395V314.062C307.797 311.875 307.432 310.335 306.703 309.441C305.974 308.53 304.88 308.074 303.422 308.074C302.346 308.074 301.398 308.284 300.578 308.703C299.776 309.104 299.111 309.678 298.582 310.426V326.395L302.027 327.215V332H286.77V327.215L290.625 326.395V308.047L286.359 307.227Z" fill="black"/>
<path d="M145.844 97V93.7969L147.438 93.5625L154.219 74.25H160.156L166.953 93.5625L168.547 93.7969V97H160.047V93.7969L161.531 93.5156L160.844 91.0469H153.531L152.875 93.5156L154.359 93.7969V97H145.844ZM154.688 87.2031H159.672L157.453 80.3125L157.203 79.5156H157.109L156.844 80.3906L154.688 87.2031ZM169.547 97V93.7969L171.906 93.2969V77.9688L169.547 77.4688V74.2344H180.734C182.536 74.2344 184.099 74.5208 185.422 75.0938C186.745 75.6667 187.766 76.4844 188.484 77.5469C189.203 78.599 189.562 79.849 189.562 81.2969C189.562 82.6302 189.198 83.8698 188.469 85.0156C187.75 86.1615 186.76 87.0833 185.5 87.7812C184.24 88.4688 182.802 88.8073 181.188 88.7969L177.391 88.75V93.2969L179.75 93.7969V97H169.547ZM183.953 97L180.891 88.125L185.656 86.5L188.422 93.2656L190.578 93.8125V97H183.953ZM177.391 84.5469H180.797C181.859 84.5469 182.677 84.3021 183.25 83.8125C183.823 83.3125 184.109 82.5938 184.109 81.6562C184.109 80.6875 183.818 79.9115 183.234 79.3281C182.651 78.7344 181.818 78.4375 180.734 78.4375H177.391V84.5469ZM196.312 97V93.7969L198.688 93.2969V78.5H195.172L195.031 80.9531H190.891V74.25H212.031V80.9531H207.844L207.719 78.5H204.172V93.2969L206.547 93.7969V97H196.312ZM212.859 97V93.7969L215.219 93.2969V77.9688L212.859 77.4688V74.25H223.047V77.4688L220.688 77.9688V93.2969L223.047 93.7969V97H212.859ZM224.297 97V93.7969L226.656 93.2969V77.9688L224.297 77.4688V74.25H243.031V80.9531H238.891L238.781 78.4688H232.141V83.7344H239.875V87.9219H232.141V93.2969L234.5 93.7969V97H224.297ZM240.25 97V93.7969L241.844 93.5625L248.625 74.25H254.562L261.359 93.5625L262.953 93.7969V97H254.453V93.7969L255.938 93.5156L255.25 91.0469H247.938L247.281 93.5156L248.766 93.7969V97H240.25ZM249.094 87.2031H254.078L251.859 80.3125L251.609 79.5156H251.516L251.25 80.3906L249.094 87.2031ZM274.281 97.3281C272.115 97.3281 270.182 96.8906 268.484 96.0156C266.786 95.1406 265.453 93.875 264.484 92.2188C263.516 90.5521 263.031 88.5312 263.031 86.1562V85.1094C263.031 82.9219 263.474 80.9896 264.359 79.3125C265.255 77.625 266.526 76.3073 268.172 75.3594C269.828 74.401 271.792 73.9219 274.062 73.9219C275.646 73.9219 277.151 74.1354 278.578 74.5625C280.016 74.9792 281.349 75.6979 282.578 76.7188V82.5781H278.594L278.047 79.2188C277.693 78.9792 277.318 78.7708 276.922 78.5938C276.536 78.4167 276.12 78.2812 275.672 78.1875C275.234 78.0938 274.76 78.0469 274.25 78.0469C273.094 78.0469 272.083 78.3229 271.219 78.875C270.354 79.4271 269.682 80.2292 269.203 81.2812C268.734 82.3229 268.5 83.5885 268.5 85.0781V86.1562C268.5 87.5521 268.745 88.7812 269.234 89.8438C269.724 90.8958 270.406 91.7188 271.281 92.3125C272.167 92.9062 273.188 93.2031 274.344 93.2031C274.958 93.2031 275.583 93.1406 276.219 93.0156C276.854 92.8802 277.469 92.7031 278.062 92.4844L278.609 89.2656H282.609V95C281.703 95.625 280.547 96.1719 279.141 96.6406C277.734 97.099 276.115 97.3281 274.281 97.3281ZM288.594 97V93.7969L290.969 93.2969V78.5H287.453L287.312 80.9531H283.172V74.25H304.312V80.9531H300.125L300 78.5H296.453V93.2969L298.828 93.7969V97H288.594Z" fill="black" fill-opacity="0.3"/>
<path d="M187.969 438V434.797L190.312 434.297V418.969L187.969 418.469V415.25H190.312H198.703L204.203 430.234H204.297L209.641 415.25H220.25V418.469L217.891 418.969V434.297L220.25 434.797V438H210.062V434.797L212.516 434.297V431.328L212.641 420.625L212.547 420.609L206.109 438H201.797L195.266 420.812L195.156 420.828L195.531 430.578V434.297L198.172 434.797V438H187.969ZM218.484 438V434.797L220.078 434.562L226.859 415.25H232.797L239.594 434.562L241.188 434.797V438H232.688V434.797L234.172 434.516L233.484 432.047H226.172L225.516 434.516L227 434.797V438H218.484ZM227.328 428.203H232.312L230.094 421.312L229.844 420.516H229.75L229.484 421.391L227.328 428.203ZM242.188 438V434.797L244.547 434.297V418.969L242.188 418.469V415.25H244.547H253.25C255.062 415.25 256.635 415.568 257.969 416.203C259.302 416.839 260.328 417.724 261.047 418.859C261.776 419.984 262.141 421.297 262.141 422.797C262.141 424.297 261.776 425.609 261.047 426.734C260.328 427.859 259.302 428.734 257.969 429.359C256.635 429.984 255.062 430.297 253.25 430.297H250.031V434.297L252.391 434.797V438H242.188ZM250.031 426.094H253.25C254.365 426.094 255.208 425.792 255.781 425.188C256.365 424.573 256.656 423.786 256.656 422.828C256.656 421.839 256.365 421.026 255.781 420.391C255.208 419.755 254.365 419.438 253.25 419.438H250.031V426.094Z" fill="black" fill-opacity="0.3"/>
</svg>
