<svg width="450" height="512" viewBox="0 0 450 512" fill="none" xmlns="http://www.w3.org/2000/svg">
<g clip-path="url(#clip0_5_400)">
<path d="M212.66 3.35209C220.296 -1.11736 229.704 -1.11737 237.34 3.35209L434.66 118.842C442.296 123.311 447 131.571 447 140.51V371.49C447 380.429 442.296 388.689 434.66 393.158L237.34 508.648C229.704 513.117 220.296 513.117 212.66 508.648L15.3404 393.158C7.70413 388.689 3 380.429 3 371.49V140.51C3 131.571 7.70413 123.311 15.3404 118.842L212.66 3.35209Z" fill="black"/>
<path d="M214.68 6.80426C221.068 3.06525 228.932 3.06525 235.32 6.80426L432.639 122.294C439.034 126.037 443 132.974 443 140.51V371.49C443 379.026 439.034 385.963 432.639 389.706L235.32 505.196C228.932 508.935 221.068 508.935 214.68 505.196L17.3609 389.706C10.9662 385.963 7 379.026 7 371.49V140.51C7 132.974 10.9662 126.037 17.3609 122.294L214.68 6.80426Z" stroke="black" stroke-opacity="0.5" stroke-width="8"/>
<path d="M407 146C407 141.582 410.582 138 415 138C419.418 138 423 141.582 423 146V174.8H407V146Z" fill="black" fill-opacity="0.15"/>
<rect x="407" y="176.8" width="16" height="36.8" fill="black" fill-opacity="0.15"/>
<rect x="407" y="215.6" width="16" height="36.8" fill="black" fill-opacity="0.15"/>
<rect x="407" y="254.4" width="16" height="36.8" fill="black" fill-opacity="0.15"/>
<path d="M407 293.2H423V322C423 326.418 419.418 330 415 330C410.582 330 407 326.418 407 322V293.2Z" fill="white" fill-opacity="0.75"/>
<path d="M28 146C28 141.582 31.5817 138 36 138C40.4183 138 44 141.582 44 146V174.8H28V146Z" fill="black" fill-opacity="0.15"/>
<rect x="28" y="176.8" width="16" height="36.8" fill="black" fill-opacity="0.15"/>
<rect x="28" y="215.6" width="16" height="36.8" fill="black" fill-opacity="0.15"/>
<rect x="28" y="254.4" width="16" height="36.8" fill="black" fill-opacity="0.15"/>
<path d="M28 293.2H44V322C44 326.418 40.4183 330 36 330C31.5817 330 28 326.418 28 322V293.2Z" fill="white" fill-opacity="0.75"/>
<path d="M40.588 363.76L38 362.008V359.992L40.588 358.24C42.716 356.801 44 354.325 44 351.665V349H28V351.665C28 354.325 29.284 356.801 31.412 358.24L34 359.992V362.008L31.412 363.76C29.284 365.199 28 367.675 28 370.335V373H44V370.335C44 367.675 42.716 365.199 40.588 363.76Z" fill="white" fill-opacity="0.75"/>
<path fill-rule="evenodd" clip-rule="evenodd" d="M423.788 358.193L426.539 357.7L427 360.356L424.266 360.845C424.268 360.892 424.274 360.936 424.281 360.981C424.288 361.032 424.295 361.083 424.295 361.135C424.292 362.334 424.062 363.521 423.619 364.631L426.014 366.035L424.686 368.371L422.268 366.953C421.481 367.965 420.498 368.802 419.38 369.412L420.335 372.078L417.84 373L416.899 370.374C415.646 370.641 414.354 370.641 413.101 370.374L412.16 373L409.665 372.078L410.62 369.412C409.502 368.802 408.519 367.965 407.732 366.953L405.314 368.371L403.986 366.035L406.381 364.631C405.938 363.521 405.708 362.334 405.705 361.135C405.705 361.083 405.712 361.032 405.719 360.982C405.726 360.937 405.732 360.892 405.734 360.846L403 360.356L403.461 357.7L406.212 358.193C406.607 356.967 407.247 355.837 408.092 354.874L406.301 352.706L408.335 350.973L410.121 353.134C411.204 352.455 412.413 352.012 413.672 351.833V349H416.328V351.833C417.588 352.012 418.797 352.455 419.879 353.134L421.665 350.972L423.699 352.706L421.908 354.874C422.753 355.837 423.393 356.967 423.788 358.193ZM415.185 363C416.289 363 417.185 362.105 417.185 361C417.185 359.895 416.289 359 415.185 359C414.08 359 413.185 359.895 413.185 361C413.185 362.105 414.08 363 415.185 363Z" fill="white" fill-opacity="0.75"/>
<rect x="82" y="128" width="286" height="4" rx="2" fill="white" fill-opacity="0.3"/>
<rect x="82" y="380" width="286" height="4" rx="2" fill="white" fill-opacity="0.3"/>
<path d="M88.7461 221.613H82.8125L81.9922 216.309C81.2083 215.525 80.2148 214.905 79.0117 214.449C77.8268 213.993 76.4232 213.766 74.8008 213.766C71.3372 213.766 68.6667 215.023 66.7891 217.539C64.9297 220.055 64 223.336 64 227.383V228.777C64 232.824 64.9297 236.115 66.7891 238.648C68.6484 241.182 71.2734 242.449 74.6641 242.449C76.2318 242.449 77.6628 242.221 78.957 241.766C80.2695 241.31 81.2812 240.69 81.9922 239.906L82.8125 234.602H88.7461V242.477C87.1419 244.336 85.0911 245.822 82.5938 246.934C80.1146 248.027 77.3346 248.574 74.2539 248.574C68.9128 248.574 64.5378 246.724 61.1289 243.023C57.7201 239.323 56.0156 234.574 56.0156 228.777V227.438C56.0156 221.659 57.7109 216.91 61.1016 213.191C64.4922 209.473 68.8763 207.613 74.2539 207.613C77.3346 207.613 80.1146 208.178 82.5938 209.309C85.0729 210.421 87.1237 211.897 88.7461 213.738V221.613ZM92.6289 232.934C92.6289 228.522 93.8594 224.913 96.3203 222.105C98.7995 219.28 102.217 217.867 106.574 217.867C110.949 217.867 114.367 219.271 116.828 222.078C119.307 224.885 120.547 228.504 120.547 232.934V233.508C120.547 237.956 119.307 241.583 116.828 244.391C114.367 247.18 110.967 248.574 106.629 248.574C102.236 248.574 98.7995 247.18 96.3203 244.391C93.8594 241.583 92.6289 237.956 92.6289 233.508V232.934ZM100.613 233.508C100.613 236.206 101.087 238.375 102.035 240.016C102.983 241.638 104.514 242.449 106.629 242.449C108.689 242.449 110.193 241.629 111.141 239.988C112.107 238.348 112.59 236.188 112.59 233.508V232.934C112.59 230.309 112.107 228.167 111.141 226.508C110.174 224.849 108.652 224.02 106.574 224.02C104.496 224.02 102.983 224.849 102.035 226.508C101.087 228.167 100.613 230.309 100.613 232.934V233.508ZM124.621 243.215L128.449 242.395V224.047L124.211 223.227V218.414H135.887L136.242 222.734C136.935 221.203 137.828 220.009 138.922 219.152C140.016 218.296 141.283 217.867 142.723 217.867C143.142 217.867 143.579 217.904 144.035 217.977C144.509 218.031 144.901 218.104 145.211 218.195L144.363 225.469L141.082 225.387C139.915 225.387 138.949 225.615 138.184 226.07C137.418 226.526 136.835 227.173 136.434 228.012V242.395L140.262 243.215V248H124.621V243.215ZM161.207 248.574C156.941 248.574 153.533 247.207 150.98 244.473C148.428 241.738 147.152 238.266 147.152 234.055V232.961C147.152 228.568 148.355 224.949 150.762 222.105C153.186 219.262 156.431 217.849 160.496 217.867C164.488 217.867 167.587 219.07 169.793 221.477C171.999 223.883 173.102 227.137 173.102 231.238V235.586H155.438L155.383 235.75C155.529 237.701 156.176 239.305 157.324 240.562C158.491 241.82 160.068 242.449 162.055 242.449C163.823 242.449 165.29 242.276 166.457 241.93C167.624 241.565 168.9 241 170.285 240.234L172.445 245.156C171.224 246.122 169.638 246.934 167.688 247.59C165.755 248.246 163.595 248.574 161.207 248.574ZM160.496 224.02C159.02 224.02 157.853 224.585 156.996 225.715C156.139 226.845 155.611 228.331 155.41 230.172L155.492 230.309H165.281V229.598C165.281 227.902 164.88 226.553 164.078 225.551C163.294 224.53 162.1 224.02 160.496 224.02ZM208.348 208.188C213.215 208.188 217.225 209.746 220.379 212.863C223.533 215.962 225.109 219.945 225.109 224.812V231.402C225.109 236.288 223.533 240.28 220.379 243.379C217.225 246.46 213.215 248 208.348 248H190.438V243.215L194.676 242.395V213.82L190.438 213V208.188H194.676H208.348ZM202.66 214.34V241.875H207.938C210.799 241.875 213.042 240.909 214.664 238.977C216.286 237.044 217.098 234.52 217.098 231.402V224.758C217.098 221.677 216.286 219.171 214.664 217.238C213.042 215.306 210.799 214.34 207.938 214.34H202.66ZM229.238 232.934C229.238 228.522 230.469 224.913 232.93 222.105C235.409 219.28 238.827 217.867 243.184 217.867C247.559 217.867 250.977 219.271 253.438 222.078C255.917 224.885 257.156 228.504 257.156 232.934V233.508C257.156 237.956 255.917 241.583 253.438 244.391C250.977 247.18 247.577 248.574 243.238 248.574C238.845 248.574 235.409 247.18 232.93 244.391C230.469 241.583 229.238 237.956 229.238 233.508V232.934ZM237.223 233.508C237.223 236.206 237.697 238.375 238.645 240.016C239.592 241.638 241.124 242.449 243.238 242.449C245.298 242.449 246.802 241.629 247.75 239.988C248.716 238.348 249.199 236.188 249.199 233.508V232.934C249.199 230.309 248.716 228.167 247.75 226.508C246.784 224.849 245.262 224.02 243.184 224.02C241.105 224.02 239.592 224.849 238.645 226.508C237.697 228.167 237.223 230.309 237.223 232.934V233.508ZM259.699 223.227V218.414H271.375L271.703 222.324C272.651 220.902 273.836 219.809 275.258 219.043C276.698 218.259 278.357 217.867 280.234 217.867C282.13 217.867 283.753 218.286 285.102 219.125C286.451 219.964 287.471 221.23 288.164 222.926C289.076 221.34 290.26 220.1 291.719 219.207C293.177 218.314 294.891 217.867 296.859 217.867C299.776 217.867 302.073 218.879 303.75 220.902C305.445 222.908 306.293 225.97 306.293 230.09V242.395L310.148 243.215V248H294.863V243.215L298.309 242.395V230.062C298.309 227.82 297.944 226.262 297.215 225.387C296.486 224.512 295.401 224.074 293.961 224.074C292.831 224.074 291.846 224.329 291.008 224.84C290.188 225.332 289.531 226.025 289.039 226.918C289.039 227.264 289.048 227.565 289.066 227.82C289.085 228.057 289.094 228.303 289.094 228.559V242.395L292.32 243.215V248H277.91V243.215L281.137 242.395V230.062C281.137 227.875 280.772 226.335 280.043 225.441C279.314 224.53 278.22 224.074 276.762 224.074C275.686 224.074 274.738 224.284 273.918 224.703C273.116 225.104 272.451 225.678 271.922 226.426V242.395L275.367 243.215V248H260.109V243.215L263.965 242.395V224.047L259.699 223.227ZM331.586 248C331.367 247.508 331.176 247.007 331.012 246.496C330.848 245.967 330.72 245.439 330.629 244.91C329.681 246.004 328.523 246.888 327.156 247.562C325.807 248.237 324.258 248.574 322.508 248.574C319.609 248.574 317.303 247.79 315.59 246.223C313.895 244.637 313.047 242.486 313.047 239.77C313.047 236.999 314.159 234.857 316.383 233.344C318.607 231.831 321.87 231.074 326.172 231.074H330.246V228.176C330.246 226.754 329.836 225.651 329.016 224.867C328.195 224.083 326.983 223.691 325.379 223.691C324.467 223.691 323.656 223.801 322.945 224.02C322.234 224.22 321.66 224.466 321.223 224.758L320.703 227.93H314.688L314.715 221.367C316.173 220.383 317.841 219.553 319.719 218.879C321.615 218.204 323.674 217.867 325.898 217.867C329.562 217.867 332.534 218.77 334.812 220.574C337.109 222.361 338.258 224.913 338.258 228.23V240.453C338.258 240.909 338.258 241.337 338.258 241.738C338.276 242.139 338.312 242.522 338.367 242.887L340.801 243.215V248H331.586ZM324.668 242.668C325.871 242.668 326.965 242.413 327.949 241.902C328.934 241.374 329.699 240.717 330.246 239.934V235.422H326.172C324.477 235.422 323.191 235.823 322.316 236.625C321.441 237.409 321.004 238.357 321.004 239.469C321.004 240.471 321.323 241.255 321.961 241.82C322.617 242.385 323.52 242.668 324.668 242.668ZM343.289 243.215L347.145 242.395V224.047L342.879 223.227V218.414H355.129V242.395L358.957 243.215V248H343.289V243.215ZM355.129 211.332H347.145V205.344H355.129V211.332ZM361.145 243.215L364.973 242.395V224.047L360.734 223.227V218.414H372.41L372.766 222.652C373.75 221.139 374.962 219.964 376.402 219.125C377.842 218.286 379.456 217.867 381.242 217.867C384.232 217.867 386.565 218.806 388.242 220.684C389.919 222.561 390.758 225.505 390.758 229.516V242.395L394.586 243.215V248H379.328V243.215L382.746 242.395V229.543C382.746 227.556 382.345 226.152 381.543 225.332C380.741 224.493 379.529 224.074 377.906 224.074C376.849 224.074 375.901 224.293 375.062 224.73C374.224 225.15 373.522 225.751 372.957 226.535V242.395L376.184 243.215V248H361.145V243.215ZM185.242 277.613H179.309L178.488 272.309C177.704 271.525 176.711 270.905 175.508 270.449C174.323 269.993 172.919 269.766 171.297 269.766C167.833 269.766 165.163 271.023 163.285 273.539C161.426 276.055 160.496 279.336 160.496 283.383V284.777C160.496 288.824 161.426 292.115 163.285 294.648C165.145 297.182 167.77 298.449 171.16 298.449C172.728 298.449 174.159 298.221 175.453 297.766C176.766 297.31 177.777 296.69 178.488 295.906L179.309 290.602H185.242V298.477C183.638 300.336 181.587 301.822 179.09 302.934C176.611 304.027 173.831 304.574 170.75 304.574C165.409 304.574 161.034 302.724 157.625 299.023C154.216 295.323 152.512 290.574 152.512 284.777V283.438C152.512 277.659 154.207 272.91 157.598 269.191C160.988 265.473 165.372 263.613 170.75 263.613C173.831 263.613 176.611 264.178 179.09 265.309C181.569 266.421 183.62 267.897 185.242 269.738V277.613ZM188.688 299.215L192.543 298.395V266.977L188.277 266.156V261.344H200.5V278.188C201.43 276.82 202.569 275.763 203.918 275.016C205.267 274.25 206.762 273.867 208.402 273.867C211.501 273.867 213.926 274.897 215.676 276.957C217.444 278.999 218.328 282.161 218.328 286.445V298.395L222.156 299.215V304H206.898V299.215L210.344 298.395V286.391C210.344 284.094 209.934 282.471 209.113 281.523C208.311 280.557 207.108 280.074 205.504 280.074C204.392 280.074 203.417 280.275 202.578 280.676C201.758 281.077 201.065 281.642 200.5 282.371V298.395L203.945 299.215V304H188.688V299.215ZM243.566 304C243.348 303.508 243.156 303.007 242.992 302.496C242.828 301.967 242.701 301.439 242.609 300.91C241.661 302.004 240.504 302.888 239.137 303.562C237.788 304.237 236.238 304.574 234.488 304.574C231.59 304.574 229.284 303.79 227.57 302.223C225.875 300.637 225.027 298.486 225.027 295.77C225.027 292.999 226.139 290.857 228.363 289.344C230.587 287.831 233.85 287.074 238.152 287.074H242.227V284.176C242.227 282.754 241.816 281.651 240.996 280.867C240.176 280.083 238.964 279.691 237.359 279.691C236.448 279.691 235.637 279.801 234.926 280.02C234.215 280.22 233.641 280.466 233.203 280.758L232.684 283.93H226.668L226.695 277.367C228.154 276.383 229.822 275.553 231.699 274.879C233.595 274.204 235.655 273.867 237.879 273.867C241.543 273.867 244.514 274.77 246.793 276.574C249.09 278.361 250.238 280.913 250.238 284.23V296.453C250.238 296.909 250.238 297.337 250.238 297.738C250.257 298.139 250.293 298.522 250.348 298.887L252.781 299.215V304H243.566ZM236.648 298.668C237.852 298.668 238.945 298.413 239.93 297.902C240.914 297.374 241.68 296.717 242.227 295.934V291.422H238.152C236.457 291.422 235.172 291.823 234.297 292.625C233.422 293.409 232.984 294.357 232.984 295.469C232.984 296.471 233.303 297.255 233.941 297.82C234.598 298.385 235.5 298.668 236.648 298.668ZM256.117 299.215L259.945 298.395V280.047L255.707 279.227V274.414H267.383L267.738 278.734C268.431 277.203 269.324 276.009 270.418 275.152C271.512 274.296 272.779 273.867 274.219 273.867C274.638 273.867 275.076 273.904 275.531 273.977C276.005 274.031 276.397 274.104 276.707 274.195L275.859 281.469L272.578 281.387C271.411 281.387 270.445 281.615 269.68 282.07C268.914 282.526 268.331 283.173 267.93 284.012V298.395L271.758 299.215V304H256.117V299.215ZM291.527 267.168V274.414H296.723V280.02H291.527V295.086C291.527 296.234 291.764 297.055 292.238 297.547C292.712 298.039 293.35 298.285 294.152 298.285C294.699 298.285 295.173 298.267 295.574 298.23C295.993 298.176 296.458 298.094 296.969 297.984L297.652 303.754C296.759 304.027 295.875 304.228 295 304.355C294.125 304.501 293.177 304.574 292.156 304.574C289.404 304.574 287.28 303.818 285.785 302.305C284.309 300.792 283.57 298.395 283.57 295.113V280.02H279.223V274.414H283.57V267.168H291.527Z" fill="white"/>
<path d="M145.75 97V93.7969L148.094 93.2969V77.9688L145.75 77.4688V74.25H148.094H156.484L161.984 89.2344H162.078L167.422 74.25H178.031V77.4688L175.672 77.9688V93.2969L178.031 93.7969V97H167.844V93.7969L170.297 93.2969V90.3281L170.422 79.625L170.328 79.6094L163.891 97H159.578L153.047 79.8125L152.938 79.8281L153.312 89.5781V93.2969L155.953 93.7969V97H145.75ZM176.266 97V93.7969L177.859 93.5625L184.641 74.25H190.578L197.375 93.5625L198.969 93.7969V97H190.469V93.7969L191.953 93.5156L191.266 91.0469H183.953L183.297 93.5156L184.781 93.7969V97H176.266ZM185.109 87.2031H190.094L187.875 80.3125L187.625 79.5156H187.531L187.266 80.3906L185.109 87.2031ZM210.297 97.3281C208.13 97.3281 206.198 96.8906 204.5 96.0156C202.802 95.1406 201.469 93.875 200.5 92.2188C199.531 90.5521 199.047 88.5312 199.047 86.1562V85.1094C199.047 82.9219 199.49 80.9896 200.375 79.3125C201.271 77.625 202.542 76.3073 204.188 75.3594C205.844 74.401 207.807 73.9219 210.078 73.9219C211.661 73.9219 213.167 74.1354 214.594 74.5625C216.031 74.9792 217.365 75.6979 218.594 76.7188V82.5781H214.609L214.062 79.2188C213.708 78.9792 213.333 78.7708 212.938 78.5938C212.552 78.4167 212.135 78.2812 211.688 78.1875C211.25 78.0938 210.776 78.0469 210.266 78.0469C209.109 78.0469 208.099 78.3229 207.234 78.875C206.37 79.4271 205.698 80.2292 205.219 81.2812C204.75 82.3229 204.516 83.5885 204.516 85.0781V86.1562C204.516 87.5521 204.76 88.7812 205.25 89.8438C205.74 90.8958 206.422 91.7188 207.297 92.3125C208.182 92.9062 209.203 93.2031 210.359 93.2031C210.974 93.2031 211.599 93.1406 212.234 93.0156C212.87 92.8802 213.484 92.7031 214.078 92.4844L214.625 89.2656H218.625V95C217.719 95.625 216.562 96.1719 215.156 96.6406C213.75 97.099 212.13 97.3281 210.297 97.3281ZM220.062 97V93.7969L222.422 93.2969V77.9688L220.062 77.4688V74.25H230.266V77.4688L227.906 77.9688V83.7188H236.188V77.9688L233.828 77.4688V74.25H236.188H241.656H244.016V77.4688L241.656 77.9688V93.2969L244.016 93.7969V97H233.828V93.7969L236.188 93.2969V87.9219H227.906V93.2969L230.266 93.7969V97H220.062ZM245.281 97V93.7969L247.641 93.2969V77.9688L245.281 77.4688V74.25H255.469V77.4688L253.109 77.9688V93.2969L255.469 93.7969V97H245.281ZM256.703 97V93.7969L259.047 93.2969V77.9688L256.703 77.4688V74.25H259.047H264.625L273.75 88.8125H273.844V77.9688L270.859 77.4688V74.25H278.703H281.062V77.4688L278.703 77.9688V97H273.297L264 82.75H263.906V93.2969L266.906 93.7969V97H256.703ZM281.906 97V93.7969L284.266 93.2969V77.9688L281.906 77.4688V74.25H300.078V80.8125H295.938L295.812 78.4688H289.75V83.1406H297.016V87.3438H289.75V92.7656H296.109L296.234 90.3125H300.328V97H281.906Z" fill="white" fill-opacity="0.5"/>
</g>
<defs>
<clipPath id="clip0_5_400">
<rect width="450" height="512" fill="white"/>
</clipPath>
</defs>
</svg>
