<svg width="450" height="512" viewBox="0 0 450 512" fill="none" xmlns="http://www.w3.org/2000/svg">
<path d="M212.66 3.35209C220.296 -1.11736 229.704 -1.11737 237.34 3.35209L434.66 118.842C442.296 123.311 447 131.571 447 140.51V371.49C447 380.429 442.296 388.689 434.66 393.158L237.34 508.648C229.704 513.117 220.296 513.117 212.66 508.648L15.3404 393.158C7.70413 388.689 3 380.429 3 371.49V140.51C3 131.571 7.70413 123.311 15.3404 118.842L212.66 3.35209Z" fill="white"/>
<path d="M214.68 6.80426C221.068 3.06525 228.932 3.06525 235.32 6.80426L432.639 122.294C439.034 126.037 443 132.974 443 140.51V371.49C443 379.026 439.034 385.963 432.639 389.706L235.32 505.196C228.932 508.935 221.068 508.935 214.68 505.196L17.3609 389.706C10.9662 385.963 7 379.026 7 371.49V140.51C7 132.974 10.9662 126.037 17.3609 122.294L214.68 6.80426Z" stroke="black" stroke-opacity="0.5" stroke-width="8"/>
<rect x="82" y="128" width="286" height="4" rx="2" fill="black" fill-opacity="0.3"/>
<rect x="82" y="380" width="286" height="4" rx="2" fill="black" fill-opacity="0.3"/>
<path d="M130.746 221.613H124.812L123.992 216.309C123.208 215.525 122.215 214.905 121.012 214.449C119.827 213.993 118.423 213.766 116.801 213.766C113.337 213.766 110.667 215.023 108.789 217.539C106.93 220.055 106 223.336 106 227.383V228.777C106 232.824 106.93 236.115 108.789 238.648C110.648 241.182 113.273 242.449 116.664 242.449C118.232 242.449 119.663 242.221 120.957 241.766C122.27 241.31 123.281 240.69 123.992 239.906L124.812 234.602H130.746V242.477C129.142 244.336 127.091 245.822 124.594 246.934C122.115 248.027 119.335 248.574 116.254 248.574C110.913 248.574 106.538 246.724 103.129 243.023C99.7201 239.323 98.0156 234.574 98.0156 228.777V227.438C98.0156 221.659 99.7109 216.91 103.102 213.191C106.492 209.473 110.876 207.613 116.254 207.613C119.335 207.613 122.115 208.178 124.594 209.309C127.073 210.421 129.124 211.897 130.746 213.738V221.613ZM155.328 244.254C154.38 245.639 153.204 246.706 151.801 247.453C150.415 248.201 148.829 248.574 147.043 248.574C143.926 248.574 141.483 247.581 139.715 245.594C137.947 243.589 137.062 240.48 137.062 236.27V224.047L133.809 223.227V218.414H137.062H145.047V236.324C145.047 238.475 145.402 240.025 146.113 240.973C146.842 241.902 147.918 242.367 149.34 242.367C150.598 242.367 151.682 242.167 152.594 241.766C153.523 241.346 154.28 240.754 154.863 239.988V224.047L151.363 223.227V218.414H154.863H162.848V242.395L166.43 243.215V248H155.848L155.328 244.254ZM193.719 228.586H188.359L187.512 224.895C186.965 224.457 186.272 224.092 185.434 223.801C184.613 223.509 183.702 223.363 182.699 223.363C181.296 223.363 180.184 223.682 179.363 224.32C178.543 224.94 178.133 225.724 178.133 226.672C178.133 227.565 178.525 228.312 179.309 228.914C180.092 229.497 181.66 230.017 184.012 230.473C187.676 231.202 190.392 232.277 192.16 233.699C193.928 235.103 194.812 237.044 194.812 239.523C194.812 242.185 193.664 244.363 191.367 246.059C189.089 247.736 186.081 248.574 182.344 248.574C180.065 248.574 177.969 248.246 176.055 247.59C174.159 246.915 172.473 245.958 170.996 244.719L170.914 238.074H176.492L177.586 241.93C178.06 242.331 178.707 242.632 179.527 242.832C180.348 243.014 181.204 243.105 182.098 243.105C183.72 243.105 184.951 242.814 185.789 242.23C186.646 241.647 187.074 240.854 187.074 239.852C187.074 238.977 186.646 238.22 185.789 237.582C184.932 236.944 183.355 236.379 181.059 235.887C177.577 235.176 174.943 234.128 173.156 232.742C171.388 231.339 170.504 229.434 170.504 227.027C170.504 224.548 171.525 222.415 173.566 220.629C175.608 218.824 178.516 217.922 182.289 217.922C184.586 217.922 186.755 218.232 188.797 218.852C190.857 219.471 192.47 220.264 193.637 221.23L193.719 228.586ZM210.18 211.168V218.414H215.375V224.02H210.18V239.086C210.18 240.234 210.417 241.055 210.891 241.547C211.365 242.039 212.003 242.285 212.805 242.285C213.352 242.285 213.826 242.267 214.227 242.23C214.646 242.176 215.111 242.094 215.621 241.984L216.305 247.754C215.411 248.027 214.527 248.228 213.652 248.355C212.777 248.501 211.829 248.574 210.809 248.574C208.056 248.574 205.932 247.818 204.438 246.305C202.961 244.792 202.223 242.395 202.223 239.113V224.02H197.875V218.414H202.223V211.168H210.18ZM218.465 232.934C218.465 228.522 219.695 224.913 222.156 222.105C224.635 219.28 228.053 217.867 232.41 217.867C236.785 217.867 240.203 219.271 242.664 222.078C245.143 224.885 246.383 228.504 246.383 232.934V233.508C246.383 237.956 245.143 241.583 242.664 244.391C240.203 247.18 236.803 248.574 232.465 248.574C228.072 248.574 224.635 247.18 222.156 244.391C219.695 241.583 218.465 237.956 218.465 233.508V232.934ZM226.449 233.508C226.449 236.206 226.923 238.375 227.871 240.016C228.819 241.638 230.35 242.449 232.465 242.449C234.525 242.449 236.029 241.629 236.977 239.988C237.943 238.348 238.426 236.188 238.426 233.508V232.934C238.426 230.309 237.943 228.167 236.977 226.508C236.01 224.849 234.488 224.02 232.41 224.02C230.332 224.02 228.819 224.849 227.871 226.508C226.923 228.167 226.449 230.309 226.449 232.934V233.508ZM248.926 223.227V218.414H260.602L260.93 222.324C261.878 220.902 263.062 219.809 264.484 219.043C265.924 218.259 267.583 217.867 269.461 217.867C271.357 217.867 272.979 218.286 274.328 219.125C275.677 219.964 276.698 221.23 277.391 222.926C278.302 221.34 279.487 220.1 280.945 219.207C282.404 218.314 284.117 217.867 286.086 217.867C289.003 217.867 291.299 218.879 292.977 220.902C294.672 222.908 295.52 225.97 295.52 230.09V242.395L299.375 243.215V248H284.09V243.215L287.535 242.395V230.062C287.535 227.82 287.171 226.262 286.441 225.387C285.712 224.512 284.628 224.074 283.188 224.074C282.057 224.074 281.073 224.329 280.234 224.84C279.414 225.332 278.758 226.025 278.266 226.918C278.266 227.264 278.275 227.565 278.293 227.82C278.311 228.057 278.32 228.303 278.32 228.559V242.395L281.547 243.215V248H267.137V243.215L270.363 242.395V230.062C270.363 227.875 269.999 226.335 269.27 225.441C268.54 224.53 267.447 224.074 265.988 224.074C264.913 224.074 263.965 224.284 263.145 224.703C262.342 225.104 261.677 225.678 261.148 226.426V242.395L264.594 243.215V248H249.336V243.215L253.191 242.395V224.047L248.926 223.227ZM315.863 248.574C311.598 248.574 308.189 247.207 305.637 244.473C303.085 241.738 301.809 238.266 301.809 234.055V232.961C301.809 228.568 303.012 224.949 305.418 222.105C307.842 219.262 311.087 217.849 315.152 217.867C319.145 217.867 322.243 219.07 324.449 221.477C326.655 223.883 327.758 227.137 327.758 231.238V235.586H310.094L310.039 235.75C310.185 237.701 310.832 239.305 311.98 240.562C313.147 241.82 314.724 242.449 316.711 242.449C318.479 242.449 319.947 242.276 321.113 241.93C322.28 241.565 323.556 241 324.941 240.234L327.102 245.156C325.88 246.122 324.294 246.934 322.344 247.59C320.411 248.246 318.251 248.574 315.863 248.574ZM315.152 224.02C313.676 224.02 312.509 224.585 311.652 225.715C310.796 226.845 310.267 228.331 310.066 230.172L310.148 230.309H319.938V229.598C319.938 227.902 319.536 226.553 318.734 225.551C317.951 224.53 316.757 224.02 315.152 224.02ZM332.16 243.215L335.988 242.395V224.047L331.75 223.227V218.414H343.426L343.781 222.734C344.474 221.203 345.367 220.009 346.461 219.152C347.555 218.296 348.822 217.867 350.262 217.867C350.681 217.867 351.118 217.904 351.574 217.977C352.048 218.031 352.44 218.104 352.75 218.195L351.902 225.469L348.621 225.387C347.454 225.387 346.488 225.615 345.723 226.07C344.957 226.526 344.374 227.173 343.973 228.012V242.395L347.801 243.215V248H332.16V243.215ZM146.66 264.188V269L142.395 269.82V292.051C142.395 295.897 141.137 298.951 138.621 301.211C136.124 303.453 132.961 304.574 129.133 304.574C124.977 304.574 121.686 303.562 119.262 301.539C116.837 299.516 115.671 296.535 115.762 292.598L115.816 292.434H123.582C123.582 294.53 124.083 296.061 125.086 297.027C126.089 297.975 127.438 298.449 129.133 298.449C130.609 298.449 131.858 297.884 132.879 296.754C133.918 295.605 134.438 294.038 134.438 292.051V269.82L130.172 269V264.188H142.395H146.66ZM149.121 288.934C149.121 284.522 150.352 280.913 152.812 278.105C155.292 275.28 158.71 273.867 163.066 273.867C167.441 273.867 170.859 275.271 173.32 278.078C175.799 280.885 177.039 284.504 177.039 288.934V289.508C177.039 293.956 175.799 297.583 173.32 300.391C170.859 303.18 167.46 304.574 163.121 304.574C158.728 304.574 155.292 303.18 152.812 300.391C150.352 297.583 149.121 293.956 149.121 289.508V288.934ZM157.105 289.508C157.105 292.206 157.579 294.375 158.527 296.016C159.475 297.638 161.007 298.449 163.121 298.449C165.181 298.449 166.685 297.629 167.633 295.988C168.599 294.348 169.082 292.188 169.082 289.508V288.934C169.082 286.309 168.599 284.167 167.633 282.508C166.667 280.849 165.145 280.02 163.066 280.02C160.988 280.02 159.475 280.849 158.527 282.508C157.579 284.167 157.105 286.309 157.105 288.934V289.508ZM201.211 300.254C200.263 301.639 199.087 302.706 197.684 303.453C196.298 304.201 194.712 304.574 192.926 304.574C189.809 304.574 187.366 303.581 185.598 301.594C183.829 299.589 182.945 296.48 182.945 292.27V280.047L179.691 279.227V274.414H182.945H190.93V292.324C190.93 294.475 191.285 296.025 191.996 296.973C192.725 297.902 193.801 298.367 195.223 298.367C196.48 298.367 197.565 298.167 198.477 297.766C199.406 297.346 200.163 296.754 200.746 295.988V280.047L197.246 279.227V274.414H200.746H208.73V298.395L212.312 299.215V304H201.73L201.211 300.254ZM216.059 299.215L219.887 298.395V280.047L215.648 279.227V274.414H227.324L227.68 278.734C228.372 277.203 229.266 276.009 230.359 275.152C231.453 274.296 232.72 273.867 234.16 273.867C234.579 273.867 235.017 273.904 235.473 273.977C235.947 274.031 236.339 274.104 236.648 274.195L235.801 281.469L232.52 281.387C231.353 281.387 230.387 281.615 229.621 282.07C228.855 282.526 228.272 283.173 227.871 284.012V298.395L231.699 299.215V304H216.059V299.215ZM238.59 299.215L242.418 298.395V280.047L238.18 279.227V274.414H249.855L250.211 278.652C251.195 277.139 252.408 275.964 253.848 275.125C255.288 274.286 256.901 273.867 258.688 273.867C261.677 273.867 264.01 274.806 265.688 276.684C267.365 278.561 268.203 281.505 268.203 285.516V298.395L272.031 299.215V304H256.773V299.215L260.191 298.395V285.543C260.191 283.556 259.79 282.152 258.988 281.332C258.186 280.493 256.974 280.074 255.352 280.074C254.294 280.074 253.346 280.293 252.508 280.73C251.669 281.15 250.967 281.751 250.402 282.535V298.395L253.629 299.215V304H238.59V299.215ZM288.465 304.574C284.199 304.574 280.79 303.207 278.238 300.473C275.686 297.738 274.41 294.266 274.41 290.055V288.961C274.41 284.568 275.613 280.949 278.02 278.105C280.444 275.262 283.689 273.849 287.754 273.867C291.746 273.867 294.845 275.07 297.051 277.477C299.257 279.883 300.359 283.137 300.359 287.238V291.586H282.695L282.641 291.75C282.786 293.701 283.434 295.305 284.582 296.562C285.749 297.82 287.326 298.449 289.312 298.449C291.081 298.449 292.548 298.276 293.715 297.93C294.882 297.565 296.158 297 297.543 296.234L299.703 301.156C298.482 302.122 296.896 302.934 294.945 303.59C293.013 304.246 290.853 304.574 288.465 304.574ZM287.754 280.02C286.277 280.02 285.111 280.585 284.254 281.715C283.397 282.845 282.868 284.331 282.668 286.172L282.75 286.309H292.539V285.598C292.539 283.902 292.138 282.553 291.336 281.551C290.552 280.53 289.358 280.02 287.754 280.02ZM334.402 279.227L331.641 279.637L320.758 308.43C319.901 310.562 318.753 312.349 317.312 313.789C315.891 315.229 313.74 315.949 310.859 315.949C310.185 315.949 309.547 315.895 308.945 315.785C308.362 315.676 307.669 315.521 306.867 315.32L307.797 309.496C308.052 309.533 308.316 309.569 308.59 309.605C308.863 309.642 309.1 309.66 309.301 309.66C310.632 309.66 311.652 309.332 312.363 308.676C313.074 308.038 313.621 307.236 314.004 306.27L314.906 304.027L305.527 279.664L302.766 279.227V274.414H317.258V279.227L313.949 279.773L317.996 291.586L318.406 293.719L318.57 293.746L323.246 279.773L319.91 279.227V274.414H334.402V279.227Z" fill="black"/>
<path d="M145.844 97V93.7969L147.438 93.5625L154.219 74.25H160.156L166.953 93.5625L168.547 93.7969V97H160.047V93.7969L161.531 93.5156L160.844 91.0469H153.531L152.875 93.5156L154.359 93.7969V97H145.844ZM154.688 87.2031H159.672L157.453 80.3125L157.203 79.5156H157.109L156.844 80.3906L154.688 87.2031ZM169.547 97V93.7969L171.906 93.2969V77.9688L169.547 77.4688V74.2344H180.734C182.536 74.2344 184.099 74.5208 185.422 75.0938C186.745 75.6667 187.766 76.4844 188.484 77.5469C189.203 78.599 189.562 79.849 189.562 81.2969C189.562 82.6302 189.198 83.8698 188.469 85.0156C187.75 86.1615 186.76 87.0833 185.5 87.7812C184.24 88.4688 182.802 88.8073 181.188 88.7969L177.391 88.75V93.2969L179.75 93.7969V97H169.547ZM183.953 97L180.891 88.125L185.656 86.5L188.422 93.2656L190.578 93.8125V97H183.953ZM177.391 84.5469H180.797C181.859 84.5469 182.677 84.3021 183.25 83.8125C183.823 83.3125 184.109 82.5938 184.109 81.6562C184.109 80.6875 183.818 79.9115 183.234 79.3281C182.651 78.7344 181.818 78.4375 180.734 78.4375H177.391V84.5469ZM196.312 97V93.7969L198.688 93.2969V78.5H195.172L195.031 80.9531H190.891V74.25H212.031V80.9531H207.844L207.719 78.5H204.172V93.2969L206.547 93.7969V97H196.312ZM212.859 97V93.7969L215.219 93.2969V77.9688L212.859 77.4688V74.25H223.047V77.4688L220.688 77.9688V93.2969L223.047 93.7969V97H212.859ZM224.297 97V93.7969L226.656 93.2969V77.9688L224.297 77.4688V74.25H243.031V80.9531H238.891L238.781 78.4688H232.141V83.7344H239.875V87.9219H232.141V93.2969L234.5 93.7969V97H224.297ZM240.25 97V93.7969L241.844 93.5625L248.625 74.25H254.562L261.359 93.5625L262.953 93.7969V97H254.453V93.7969L255.938 93.5156L255.25 91.0469H247.938L247.281 93.5156L248.766 93.7969V97H240.25ZM249.094 87.2031H254.078L251.859 80.3125L251.609 79.5156H251.516L251.25 80.3906L249.094 87.2031ZM274.281 97.3281C272.115 97.3281 270.182 96.8906 268.484 96.0156C266.786 95.1406 265.453 93.875 264.484 92.2188C263.516 90.5521 263.031 88.5312 263.031 86.1562V85.1094C263.031 82.9219 263.474 80.9896 264.359 79.3125C265.255 77.625 266.526 76.3073 268.172 75.3594C269.828 74.401 271.792 73.9219 274.062 73.9219C275.646 73.9219 277.151 74.1354 278.578 74.5625C280.016 74.9792 281.349 75.6979 282.578 76.7188V82.5781H278.594L278.047 79.2188C277.693 78.9792 277.318 78.7708 276.922 78.5938C276.536 78.4167 276.12 78.2812 275.672 78.1875C275.234 78.0938 274.76 78.0469 274.25 78.0469C273.094 78.0469 272.083 78.3229 271.219 78.875C270.354 79.4271 269.682 80.2292 269.203 81.2812C268.734 82.3229 268.5 83.5885 268.5 85.0781V86.1562C268.5 87.5521 268.745 88.7812 269.234 89.8438C269.724 90.8958 270.406 91.7188 271.281 92.3125C272.167 92.9062 273.188 93.2031 274.344 93.2031C274.958 93.2031 275.583 93.1406 276.219 93.0156C276.854 92.8802 277.469 92.7031 278.062 92.4844L278.609 89.2656H282.609V95C281.703 95.625 280.547 96.1719 279.141 96.6406C277.734 97.099 276.115 97.3281 274.281 97.3281ZM288.594 97V93.7969L290.969 93.2969V78.5H287.453L287.312 80.9531H283.172V74.25H304.312V80.9531H300.125L300 78.5H296.453V93.2969L298.828 93.7969V97H288.594Z" fill="black" fill-opacity="0.3"/>
<path d="M154.547 438.328C152.766 438.328 151.224 438.047 149.922 437.484C148.63 436.922 147.62 436.062 146.891 434.906C146.172 433.74 145.781 432.255 145.719 430.453L145.75 430.359H150.859C150.964 431.828 151.281 432.818 151.812 433.328C152.354 433.828 153.031 434.078 153.844 434.078C154.312 434.078 154.76 433.974 155.188 433.766C155.625 433.557 155.984 433.224 156.266 432.766C156.547 432.297 156.688 431.688 156.688 430.938V418.969L153.594 418.453V415.25H164.516V418.469L162.141 418.969V430.938C162.141 432.469 161.844 433.786 161.25 434.891C160.656 435.995 159.792 436.844 158.656 437.438C157.531 438.031 156.161 438.328 154.547 438.328ZM176.281 438.328C174.708 438.328 173.26 438.042 171.938 437.469C170.625 436.885 169.484 436.073 168.516 435.031C167.547 433.99 166.797 432.771 166.266 431.375C165.745 429.969 165.484 428.443 165.484 426.797V426.438C165.484 424.802 165.745 423.286 166.266 421.891C166.797 420.495 167.542 419.276 168.5 418.234C169.469 417.193 170.609 416.38 171.922 415.797C173.234 415.214 174.677 414.922 176.25 414.922C177.792 414.922 179.224 415.214 180.547 415.797C181.87 416.38 183.026 417.193 184.016 418.234C185.016 419.276 185.792 420.495 186.344 421.891C186.896 423.286 187.172 424.802 187.172 426.438V426.797C187.172 428.443 186.896 429.969 186.344 431.375C185.792 432.771 185.021 433.99 184.031 435.031C183.042 436.073 181.885 436.885 180.562 437.469C179.24 438.042 177.812 438.328 176.281 438.328ZM176.281 434.172C177.427 434.172 178.406 433.865 179.219 433.25C180.031 432.635 180.651 431.776 181.078 430.672C181.505 429.568 181.719 428.276 181.719 426.797V426.406C181.719 424.958 181.5 423.688 181.062 422.594C180.635 421.49 180.016 420.63 179.203 420.016C178.391 419.401 177.406 419.094 176.25 419.094C175.031 419.094 174.031 419.396 173.25 420C172.479 420.604 171.906 421.453 171.531 422.547C171.156 423.641 170.969 424.927 170.969 426.406V426.797C170.969 428.276 171.156 429.573 171.531 430.688C171.917 431.792 172.5 432.651 173.281 433.266C174.073 433.87 175.073 434.172 176.281 434.172ZM200.375 438.328C198.417 438.328 196.708 438.016 195.25 437.391C193.802 436.755 192.682 435.828 191.891 434.609C191.099 433.391 190.703 431.901 190.703 430.141V418.969L188.359 418.469V415.25H198.547V418.469L196.188 418.969V430.141C196.188 431.057 196.349 431.818 196.672 432.422C196.995 433.016 197.464 433.458 198.078 433.75C198.703 434.042 199.458 434.188 200.344 434.188C201.26 434.188 202.026 434.042 202.641 433.75C203.266 433.458 203.734 433.016 204.047 432.422C204.37 431.818 204.531 431.057 204.531 430.141V418.969L202.188 418.469V415.25H212.375V418.469L210.016 418.969V430.141C210.016 431.87 209.609 433.349 208.797 434.578C207.984 435.797 206.854 436.729 205.406 437.375C203.969 438.01 202.292 438.328 200.375 438.328ZM213.297 438V434.797L215.656 434.297V418.969L213.297 418.469V415.234H224.484C226.286 415.234 227.849 415.521 229.172 416.094C230.495 416.667 231.516 417.484 232.234 418.547C232.953 419.599 233.312 420.849 233.312 422.297C233.312 423.63 232.948 424.87 232.219 426.016C231.5 427.161 230.51 428.083 229.25 428.781C227.99 429.469 226.552 429.807 224.938 429.797L221.141 429.75V434.297L223.5 434.797V438H213.297ZM227.703 438L224.641 429.125L229.406 427.5L232.172 434.266L234.328 434.812V438H227.703ZM221.141 425.547H224.547C225.609 425.547 226.427 425.302 227 424.812C227.573 424.312 227.859 423.594 227.859 422.656C227.859 421.688 227.568 420.911 226.984 420.328C226.401 419.734 225.568 419.438 224.484 419.438H221.141V425.547ZM235.5 438V434.797L237.844 434.297V418.969L235.5 418.469V415.25H237.844H243.422L252.547 429.812H252.641V418.969L249.656 418.469V415.25H257.5H259.859V418.469L257.5 418.969V438H252.094L242.797 423.75H242.703V434.297L245.703 434.797V438H235.5ZM260.703 438V434.797L263.062 434.297V418.969L260.703 418.469V415.25H278.875V421.812H274.734L274.609 419.469H268.547V424.141H275.812V428.344H268.547V433.766H274.906L275.031 431.312H279.125V438H260.703ZM287.438 438V434.797L289.797 434.297V430.5L283.203 418.797L280.828 418.469V415.25H290.672V418.469L289.266 418.719L292.391 424.953L292.75 425.75H292.891L293.266 425L296.922 418.719L294.547 418.469V415.25H304.203V418.469L301.797 418.797L295.266 430.062V434.297L297.641 434.797V438H287.438Z" fill="black" fill-opacity="0.3"/>
</svg>
