<svg width="450" height="512" viewBox="0 0 450 512" fill="none" xmlns="http://www.w3.org/2000/svg">
<g clip-path="url(#clip0_5_871)">
<path d="M212.66 3.35209C220.296 -1.11736 229.704 -1.11737 237.34 3.35209L434.66 118.842C442.296 123.311 447 131.571 447 140.51V371.49C447 380.429 442.296 388.689 434.66 393.158L237.34 508.648C229.704 513.117 220.296 513.117 212.66 508.648L15.3404 393.158C7.70413 388.689 3 380.429 3 371.49V140.51C3 131.571 7.70413 123.311 15.3404 118.842L212.66 3.35209Z" fill="#32ADE6"/>
<path d="M214.68 6.80426C221.068 3.06525 228.932 3.06525 235.32 6.80426L432.639 122.294C439.034 126.037 443 132.974 443 140.51V371.49C443 379.026 439.034 385.963 432.639 389.706L235.32 505.196C228.932 508.935 221.068 508.935 214.68 505.196L17.3609 389.706C10.9662 385.963 7 379.026 7 371.49V140.51C7 132.974 10.9662 126.037 17.3609 122.294L214.68 6.80426Z" stroke="black" stroke-opacity="0.5" stroke-width="8"/>
<rect x="82" y="128" width="286" height="4" rx="2" fill="white" fill-opacity="0.3"/>
<rect x="82" y="380" width="286" height="4" rx="2" fill="white" fill-opacity="0.3"/>
<path d="M155.793 249.613H149.859L149.039 244.309C148.255 243.525 147.262 242.905 146.059 242.449C144.874 241.993 143.47 241.766 141.848 241.766C138.384 241.766 135.714 243.023 133.836 245.539C131.977 248.055 131.047 251.336 131.047 255.383V256.777C131.047 260.824 131.977 264.115 133.836 266.648C135.695 269.182 138.32 270.449 141.711 270.449C143.279 270.449 144.71 270.221 146.004 269.766C147.316 269.31 148.328 268.69 149.039 267.906L149.859 262.602H155.793V270.477C154.189 272.336 152.138 273.822 149.641 274.934C147.161 276.027 144.382 276.574 141.301 276.574C135.96 276.574 131.585 274.724 128.176 271.023C124.767 267.323 123.062 262.574 123.062 256.777V255.438C123.062 249.659 124.758 244.91 128.148 241.191C131.539 237.473 135.923 235.613 141.301 235.613C144.382 235.613 147.161 236.178 149.641 237.309C152.12 238.421 154.171 239.897 155.793 241.738V249.613ZM190.301 251.227L187.539 251.637L176.656 280.43C175.799 282.562 174.651 284.349 173.211 285.789C171.789 287.229 169.638 287.949 166.758 287.949C166.083 287.949 165.445 287.895 164.844 287.785C164.26 287.676 163.568 287.521 162.766 287.32L163.695 281.496C163.951 281.533 164.215 281.569 164.488 281.605C164.762 281.642 164.999 281.66 165.199 281.66C166.53 281.66 167.551 281.332 168.262 280.676C168.973 280.038 169.52 279.236 169.902 278.27L170.805 276.027L161.426 251.664L158.664 251.227V246.414H173.156V251.227L169.848 251.773L173.895 263.586L174.305 265.719L174.469 265.746L179.145 251.773L175.809 251.227V246.414H190.301V251.227ZM192.379 271.215L196.207 270.395V252.047L191.969 251.227V246.414H203.645L204 250.652C204.984 249.139 206.197 247.964 207.637 247.125C209.077 246.286 210.69 245.867 212.477 245.867C215.466 245.867 217.799 246.806 219.477 248.684C221.154 250.561 221.992 253.505 221.992 257.516V270.395L225.82 271.215V276H210.562V271.215L213.98 270.395V257.543C213.98 255.556 213.579 254.152 212.777 253.332C211.975 252.493 210.763 252.074 209.141 252.074C208.083 252.074 207.135 252.293 206.297 252.73C205.458 253.15 204.757 253.751 204.191 254.535V270.395L207.418 271.215V276H192.379V271.215ZM242.254 276.574C237.988 276.574 234.579 275.207 232.027 272.473C229.475 269.738 228.199 266.266 228.199 262.055V260.961C228.199 256.568 229.402 252.949 231.809 250.105C234.233 247.262 237.478 245.849 241.543 245.867C245.535 245.867 248.634 247.07 250.84 249.477C253.046 251.883 254.148 255.137 254.148 259.238V263.586H236.484L236.43 263.75C236.576 265.701 237.223 267.305 238.371 268.562C239.538 269.82 241.115 270.449 243.102 270.449C244.87 270.449 246.337 270.276 247.504 269.93C248.671 269.565 249.947 269 251.332 268.234L253.492 273.156C252.271 274.122 250.685 274.934 248.734 275.59C246.802 276.246 244.642 276.574 242.254 276.574ZM241.543 252.02C240.066 252.02 238.9 252.585 238.043 253.715C237.186 254.845 236.658 256.331 236.457 258.172L236.539 258.309H246.328V257.598C246.328 255.902 245.927 254.553 245.125 253.551C244.341 252.53 243.147 252.02 241.543 252.02ZM257.156 252.02V246.414H261.559V244.391C261.559 240.672 262.689 237.81 264.949 235.805C267.228 233.781 270.427 232.77 274.547 232.77C275.969 232.77 277.372 232.915 278.758 233.207C280.143 233.48 281.747 233.882 283.57 234.41L282.422 240.699C281.091 240.298 279.879 239.988 278.785 239.77C277.71 239.551 276.47 239.441 275.066 239.441C273.225 239.441 271.84 239.861 270.91 240.699C269.999 241.538 269.543 242.768 269.543 244.391V246.414H287.48V270.395L291.719 271.215V276H275.641V271.215L279.496 270.395V252.02H269.543V270.395L273.398 271.215V276H257.293V271.215L261.559 270.395V252.02H257.156ZM294.098 271.215L297.926 270.395V252.047L293.688 251.227V246.414H305.363L305.719 250.652C306.703 249.139 307.915 247.964 309.355 247.125C310.796 246.286 312.409 245.867 314.195 245.867C317.185 245.867 319.518 246.806 321.195 248.684C322.872 250.561 323.711 253.505 323.711 257.516V270.395L327.539 271.215V276H312.281V271.215L315.699 270.395V257.543C315.699 255.556 315.298 254.152 314.496 253.332C313.694 252.493 312.482 252.074 310.859 252.074C309.802 252.074 308.854 252.293 308.016 252.73C307.177 253.15 306.475 253.751 305.91 254.535V270.395L309.137 271.215V276H294.098V271.215Z" fill="white"/>
<path d="M113.078 107V103.797L115.438 103.297V87.9688L113.078 87.4688V84.25H131.812V90.9531H127.672L127.562 88.4688H120.922V93.7344H128.656V97.9219H120.922V103.297L123.281 103.797V107H113.078ZM132.953 107V103.797L135.312 103.297V87.9688L132.953 87.4688V84.2344H144.141C145.943 84.2344 147.505 84.5208 148.828 85.0938C150.151 85.6667 151.172 86.4844 151.891 87.5469C152.609 88.599 152.969 89.849 152.969 91.2969C152.969 92.6302 152.604 93.8698 151.875 95.0156C151.156 96.1615 150.167 97.0833 148.906 97.7812C147.646 98.4688 146.208 98.8073 144.594 98.7969L140.797 98.75V103.297L143.156 103.797V107H132.953ZM147.359 107L144.297 98.125L149.062 96.5L151.828 103.266L153.984 103.812V107H147.359ZM140.797 94.5469H144.203C145.266 94.5469 146.083 94.3021 146.656 93.8125C147.229 93.3125 147.516 92.5938 147.516 91.6562C147.516 90.6875 147.224 89.9115 146.641 89.3281C146.057 88.7344 145.224 88.4375 144.141 88.4375H140.797V94.5469ZM154.906 107V103.797L156.5 103.562L163.281 84.25H169.219L176.016 103.562L177.609 103.797V107H169.109V103.797L170.594 103.516L169.906 101.047H162.594L161.938 103.516L163.422 103.797V107H154.906ZM163.75 97.2031H168.734L166.516 90.3125L166.266 89.5156H166.172L165.906 90.3906L163.75 97.2031ZM178.484 107V103.797L180.828 103.297V87.9688L178.484 87.4688V84.25H180.828H189.219L194.719 99.2344H194.812L200.156 84.25H210.766V87.4688L208.406 87.9688V103.297L210.766 103.797V107H200.578V103.797L203.031 103.297V100.328L203.156 89.625L203.062 89.6094L196.625 107H192.312L185.781 89.8125L185.672 89.8281L186.047 99.5781V103.297L188.688 103.797V107H178.484ZM211.703 107V103.797L214.062 103.297V87.9688L211.703 87.4688V84.25H229.875V90.8125H225.734L225.609 88.4688H219.547V93.1406H226.812V97.3438H219.547V102.766H225.906L226.031 100.312H230.125V107H211.703ZM239.547 107L234.297 87.7031L231.719 87.4688V84.25H241.984V87.4688L239.453 87.8281L241.938 98L242.297 99.4688H242.391L242.766 97.9844L247.219 84.25H251L255.688 98.625L256.016 99.6094H256.109L256.375 98.625L259.031 87.8281L256.422 87.4688V84.25H266.484V87.4688L264.062 87.7031L258.578 107H253.688L249.766 95.2344L249.281 93.6094H249.188L248.578 95.3281L244.594 107H239.547ZM278.969 107.328C277.396 107.328 275.948 107.042 274.625 106.469C273.312 105.885 272.172 105.073 271.203 104.031C270.234 102.99 269.484 101.771 268.953 100.375C268.432 98.9688 268.172 97.4427 268.172 95.7969V95.4375C268.172 93.8021 268.432 92.2865 268.953 90.8906C269.484 89.4948 270.229 88.276 271.188 87.2344C272.156 86.1927 273.297 85.3802 274.609 84.7969C275.922 84.2135 277.365 83.9219 278.938 83.9219C280.479 83.9219 281.911 84.2135 283.234 84.7969C284.557 85.3802 285.714 86.1927 286.703 87.2344C287.703 88.276 288.479 89.4948 289.031 90.8906C289.583 92.2865 289.859 93.8021 289.859 95.4375V95.7969C289.859 97.4427 289.583 98.9688 289.031 100.375C288.479 101.771 287.708 102.99 286.719 104.031C285.729 105.073 284.573 105.885 283.25 106.469C281.927 107.042 280.5 107.328 278.969 107.328ZM278.969 103.172C280.115 103.172 281.094 102.865 281.906 102.25C282.719 101.635 283.339 100.776 283.766 99.6719C284.193 98.5677 284.406 97.276 284.406 95.7969V95.4062C284.406 93.9583 284.188 92.6875 283.75 91.5938C283.323 90.4896 282.703 89.6302 281.891 89.0156C281.078 88.401 280.094 88.0938 278.938 88.0938C277.719 88.0938 276.719 88.3958 275.938 89C275.167 89.6042 274.594 90.4531 274.219 91.5469C273.844 92.6406 273.656 93.9271 273.656 95.4062V95.7969C273.656 97.276 273.844 98.5729 274.219 99.6875C274.604 100.792 275.188 101.651 275.969 102.266C276.76 102.87 277.76 103.172 278.969 103.172ZM291.359 107V103.797L293.719 103.297V87.9688L291.359 87.4688V84.2344H302.547C304.349 84.2344 305.911 84.5208 307.234 85.0938C308.557 85.6667 309.578 86.4844 310.297 87.5469C311.016 88.599 311.375 89.849 311.375 91.2969C311.375 92.6302 311.01 93.8698 310.281 95.0156C309.562 96.1615 308.573 97.0833 307.312 97.7812C306.052 98.4688 304.615 98.8073 303 98.7969L299.203 98.75V103.297L301.562 103.797V107H291.359ZM305.766 107L302.703 98.125L307.469 96.5L310.234 103.266L312.391 103.812V107H305.766ZM299.203 94.5469H302.609C303.672 94.5469 304.49 94.3021 305.062 93.8125C305.635 93.3125 305.922 92.5938 305.922 91.6562C305.922 90.6875 305.63 89.9115 305.047 89.3281C304.464 88.7344 303.63 88.4375 302.547 88.4375H299.203V94.5469ZM320 102.047L317.203 98.8438L328.547 87.6719L328.562 87.6406L325.984 87.4688V84.25H336.609V87.4688L334.469 87.9219L320 102.047ZM313.578 107V103.797L315.938 103.297V87.9688L313.578 87.4688V84.25H323.578V87.4688L321.422 87.9688V103.297L323.578 103.797V107H313.578ZM326.469 107V103.797L328.75 103.625H328.781L323.312 96.1406L327.141 92.75L335.109 103.406L337.438 103.797V107H326.469Z" fill="black" fill-opacity="0.3"/>
</g>
<defs>
<clipPath id="clip0_5_871">
<rect width="450" height="512" fill="white"/>
</clipPath>
</defs>
</svg>
