<svg width="163" height="191" viewBox="0 0 163 191" fill="none" xmlns="http://www.w3.org/2000/svg">
<path d="M75.7602 6.52497C79.6508 4.27879 84.4476 4.29317 88.3247 6.56262L154.315 45.1898C158.146 47.4323 160.5 51.5384 160.5 55.9775V134.853C160.5 139.285 158.154 143.385 154.333 145.63L88.343 184.409C84.4566 186.693 79.6417 186.708 75.7417 184.447L8.73174 145.608C4.87452 143.372 2.5 139.251 2.5 134.793V56.0374C2.5 51.5715 4.88256 47.4448 8.75016 45.2119L75.7602 6.52497Z" fill="#F5F5F5" stroke="#444444" stroke-width="5"/>
<path d="M29.6667 96C29.6667 103.364 35.6362 109.333 43 109.333C50.3638 109.333 56.3333 103.364 56.3333 96C56.3333 88.6362 50.3638 82.6667 43 82.6667C35.6362 82.6667 29.6667 88.6362 29.6667 96ZM43 98.5H47.95V93.5H43V98.5ZM57.85 98.5H67.75V93.5H57.85V98.5ZM77.65 98.5H87.55V93.5H77.65V98.5ZM97.45 98.5H107.35V93.5H97.45V98.5ZM117.25 98.5H127.15V93.5H117.25V98.5ZM137.05 98.5H142V93.5H137.05V98.5ZM29.6667 96C29.6667 103.364 35.6362 109.333 43 109.333C50.3638 109.333 56.3333 103.364 56.3333 96C56.3333 88.6362 50.3638 82.6667 43 82.6667C35.6362 82.6667 29.6667 88.6362 29.6667 96ZM43 98.5H47.95V93.5H43V98.5ZM57.85 98.5H67.75V93.5H57.85V98.5ZM77.65 98.5H87.55V93.5H77.65V98.5ZM97.45 98.5H107.35V93.5H97.45V98.5ZM117.25 98.5H127.15V93.5H117.25V98.5ZM137.05 98.5H142V93.5H137.05V98.5Z" fill="#444444"/>
</svg>
