<svg width="450" height="512" viewBox="0 0 450 512" fill="none" xmlns="http://www.w3.org/2000/svg">
<g clip-path="url(#clip0_5_518)">
<path d="M212.66 3.35209C220.296 -1.11736 229.704 -1.11737 237.34 3.35209L434.66 118.842C442.296 123.311 447 131.571 447 140.51V371.49C447 380.429 442.296 388.689 434.66 393.158L237.34 508.648C229.704 513.117 220.296 513.117 212.66 508.648L15.3404 393.158C7.70413 388.689 3 380.429 3 371.49V140.51C3 131.571 7.70413 123.311 15.3404 118.842L212.66 3.35209Z" fill="black"/>
<path d="M214.68 6.80426C221.068 3.06525 228.932 3.06525 235.32 6.80426L432.639 122.294C439.034 126.037 443 132.974 443 140.51V371.49C443 379.026 439.034 385.963 432.639 389.706L235.32 505.196C228.932 508.935 221.068 508.935 214.68 505.196L17.3609 389.706C10.9662 385.963 7 379.026 7 371.49V140.51C7 132.974 10.9662 126.037 17.3609 122.294L214.68 6.80426Z" stroke="black" stroke-opacity="0.5" stroke-width="8"/>
<path d="M407 146C407 141.582 410.582 138 415 138C419.418 138 423 141.582 423 146V174.8H407V146Z" fill="black" fill-opacity="0.15"/>
<rect x="407" y="176.8" width="16" height="36.8" fill="black" fill-opacity="0.15"/>
<rect x="407" y="215.6" width="16" height="36.8" fill="white" fill-opacity="0.75"/>
<rect x="407" y="254.4" width="16" height="36.8" fill="white" fill-opacity="0.75"/>
<path d="M407 293.2H423V322C423 326.418 419.418 330 415 330C410.582 330 407 326.418 407 322V293.2Z" fill="white" fill-opacity="0.75"/>
<path d="M28 146C28 141.582 31.5817 138 36 138C40.4183 138 44 141.582 44 146V174.8H28V146Z" fill="black" fill-opacity="0.15"/>
<rect x="28" y="176.8" width="16" height="36.8" fill="black" fill-opacity="0.15"/>
<rect x="28" y="215.6" width="16" height="36.8" fill="black" fill-opacity="0.15"/>
<rect x="28" y="254.4" width="16" height="36.8" fill="white" fill-opacity="0.75"/>
<path d="M28 293.2H44V322C44 326.418 40.4183 330 36 330C31.5817 330 28 326.418 28 322V293.2Z" fill="white" fill-opacity="0.75"/>
<path d="M40.588 363.76L38 362.008V359.992L40.588 358.24C42.716 356.801 44 354.325 44 351.665V349H28V351.665C28 354.325 29.284 356.801 31.412 358.24L34 359.992V362.008L31.412 363.76C29.284 365.199 28 367.675 28 370.335V373H44V370.335C44 367.675 42.716 365.199 40.588 363.76Z" fill="white" fill-opacity="0.75"/>
<path fill-rule="evenodd" clip-rule="evenodd" d="M423.788 358.193L426.539 357.7L427 360.356L424.266 360.845C424.268 360.892 424.274 360.936 424.281 360.981C424.288 361.032 424.295 361.083 424.295 361.135C424.292 362.334 424.062 363.521 423.619 364.631L426.014 366.035L424.686 368.371L422.268 366.953C421.481 367.965 420.498 368.802 419.38 369.412L420.335 372.078L417.84 373L416.899 370.374C415.646 370.641 414.354 370.641 413.101 370.374L412.16 373L409.665 372.078L410.62 369.412C409.502 368.802 408.519 367.965 407.732 366.953L405.314 368.371L403.986 366.035L406.381 364.631C405.938 363.521 405.708 362.334 405.705 361.135C405.705 361.083 405.712 361.032 405.719 360.982C405.726 360.937 405.732 360.892 405.734 360.846L403 360.356L403.461 357.7L406.212 358.193C406.607 356.967 407.247 355.837 408.092 354.874L406.301 352.706L408.335 350.973L410.121 353.134C411.204 352.455 412.413 352.012 413.672 351.833V349H416.328V351.833C417.588 352.012 418.797 352.455 419.879 353.134L421.665 350.972L423.699 352.706L421.908 354.874C422.753 355.837 423.393 356.967 423.788 358.193ZM415.185 363C416.289 363 417.185 362.105 417.185 361C417.185 359.895 416.289 359 415.185 359C414.08 359 413.185 359.895 413.185 361C413.185 362.105 414.08 363 415.185 363Z" fill="white" fill-opacity="0.75"/>
<rect x="82" y="128" width="286" height="4" rx="2" fill="white" fill-opacity="0.3"/>
<rect x="82" y="380" width="286" height="4" rx="2" fill="white" fill-opacity="0.3"/>
<path d="M73.543 208.188C78.4102 208.188 82.4206 209.746 85.5742 212.863C88.7279 215.962 90.3047 219.945 90.3047 224.812V231.402C90.3047 236.288 88.7279 240.28 85.5742 243.379C82.4206 246.46 78.4102 248 73.543 248H55.6328V243.215L59.8711 242.395V213.82L55.6328 213V208.188H59.8711H73.543ZM67.8555 214.34V241.875H73.1328C75.9948 241.875 78.237 240.909 79.8594 238.977C81.4818 237.044 82.293 234.52 82.293 231.402V224.758C82.293 221.677 81.4818 219.171 79.8594 217.238C78.237 215.306 75.9948 214.34 73.1328 214.34H67.8555ZM113.273 248C113.055 247.508 112.863 247.007 112.699 246.496C112.535 245.967 112.408 245.439 112.316 244.91C111.368 246.004 110.211 246.888 108.844 247.562C107.495 248.237 105.945 248.574 104.195 248.574C101.297 248.574 98.9909 247.79 97.2773 246.223C95.582 244.637 94.7344 242.486 94.7344 239.77C94.7344 236.999 95.8464 234.857 98.0703 233.344C100.294 231.831 103.557 231.074 107.859 231.074H111.934V228.176C111.934 226.754 111.523 225.651 110.703 224.867C109.883 224.083 108.671 223.691 107.066 223.691C106.155 223.691 105.344 223.801 104.633 224.02C103.922 224.22 103.348 224.466 102.91 224.758L102.391 227.93H96.375L96.4023 221.367C97.8607 220.383 99.5286 219.553 101.406 218.879C103.302 218.204 105.362 217.867 107.586 217.867C111.25 217.867 114.221 218.77 116.5 220.574C118.797 222.361 119.945 224.913 119.945 228.23V240.453C119.945 240.909 119.945 241.337 119.945 241.738C119.964 242.139 120 242.522 120.055 242.887L122.488 243.215V248H113.273ZM106.355 242.668C107.559 242.668 108.652 242.413 109.637 241.902C110.621 241.374 111.387 240.717 111.934 239.934V235.422H107.859C106.164 235.422 104.879 235.823 104.004 236.625C103.129 237.409 102.691 238.357 102.691 239.469C102.691 240.471 103.01 241.255 103.648 241.82C104.305 242.385 105.207 242.668 106.355 242.668ZM134.82 211.168V218.414H140.016V224.02H134.82V239.086C134.82 240.234 135.057 241.055 135.531 241.547C136.005 242.039 136.643 242.285 137.445 242.285C137.992 242.285 138.466 242.267 138.867 242.23C139.286 242.176 139.751 242.094 140.262 241.984L140.945 247.754C140.052 248.027 139.168 248.228 138.293 248.355C137.418 248.501 136.47 248.574 135.449 248.574C132.697 248.574 130.573 247.818 129.078 246.305C127.602 244.792 126.863 242.395 126.863 239.113V224.02H122.516V218.414H126.863V211.168H134.82ZM162.766 248C162.547 247.508 162.355 247.007 162.191 246.496C162.027 245.967 161.9 245.439 161.809 244.91C160.861 246.004 159.703 246.888 158.336 247.562C156.987 248.237 155.438 248.574 153.688 248.574C150.789 248.574 148.483 247.79 146.77 246.223C145.074 244.637 144.227 242.486 144.227 239.77C144.227 236.999 145.339 234.857 147.562 233.344C149.786 231.831 153.049 231.074 157.352 231.074H161.426V228.176C161.426 226.754 161.016 225.651 160.195 224.867C159.375 224.083 158.163 223.691 156.559 223.691C155.647 223.691 154.836 223.801 154.125 224.02C153.414 224.22 152.84 224.466 152.402 224.758L151.883 227.93H145.867L145.895 221.367C147.353 220.383 149.021 219.553 150.898 218.879C152.794 218.204 154.854 217.867 157.078 217.867C160.742 217.867 163.714 218.77 165.992 220.574C168.289 222.361 169.438 224.913 169.438 228.23V240.453C169.438 240.909 169.438 241.337 169.438 241.738C169.456 242.139 169.492 242.522 169.547 242.887L171.98 243.215V248H162.766ZM155.848 242.668C157.051 242.668 158.145 242.413 159.129 241.902C160.113 241.374 160.879 240.717 161.426 239.934V235.422H157.352C155.656 235.422 154.371 235.823 153.496 236.625C152.621 237.409 152.184 238.357 152.184 239.469C152.184 240.471 152.503 241.255 153.141 241.82C153.797 242.385 154.699 242.668 155.848 242.668ZM207.199 208.188C211.757 208.188 215.348 209.363 217.973 211.715C220.616 214.048 221.938 217.111 221.938 220.902C221.938 224.712 220.616 227.775 217.973 230.09C215.348 232.405 211.757 233.562 207.199 233.562H200.473V242.395L204.738 243.215V248H188.25V243.215L192.488 242.395V213.82L188.25 213V208.188H192.488H207.199ZM200.473 227.41H207.199C209.423 227.41 211.1 226.809 212.23 225.605C213.379 224.384 213.953 222.835 213.953 220.957C213.953 219.043 213.379 217.466 212.23 216.227C211.1 214.969 209.423 214.34 207.199 214.34H200.473V227.41ZM225.301 243.215L229.129 242.395V224.047L224.891 223.227V218.414H236.566L236.922 222.734C237.615 221.203 238.508 220.009 239.602 219.152C240.695 218.296 241.962 217.867 243.402 217.867C243.822 217.867 244.259 217.904 244.715 217.977C245.189 218.031 245.581 218.104 245.891 218.195L245.043 225.469L241.762 225.387C240.595 225.387 239.629 225.615 238.863 226.07C238.098 226.526 237.514 227.173 237.113 228.012V242.395L240.941 243.215V248H225.301V243.215ZM247.723 232.934C247.723 228.522 248.953 224.913 251.414 222.105C253.893 219.28 257.311 217.867 261.668 217.867C266.043 217.867 269.461 219.271 271.922 222.078C274.401 224.885 275.641 228.504 275.641 232.934V233.508C275.641 237.956 274.401 241.583 271.922 244.391C269.461 247.18 266.061 248.574 261.723 248.574C257.329 248.574 253.893 247.18 251.414 244.391C248.953 241.583 247.723 237.956 247.723 233.508V232.934ZM255.707 233.508C255.707 236.206 256.181 238.375 257.129 240.016C258.077 241.638 259.608 242.449 261.723 242.449C263.783 242.449 265.286 241.629 266.234 239.988C267.201 238.348 267.684 236.188 267.684 233.508V232.934C267.684 230.309 267.201 228.167 266.234 226.508C265.268 224.849 263.746 224.02 261.668 224.02C259.59 224.02 258.077 224.849 257.129 226.508C256.181 228.167 255.707 230.309 255.707 232.934V233.508ZM298.363 244.391C297.434 245.758 296.331 246.797 295.055 247.508C293.797 248.219 292.357 248.574 290.734 248.574C287.089 248.574 284.254 247.243 282.23 244.582C280.225 241.921 279.223 238.402 279.223 234.027V233.453C279.223 228.786 280.234 225.022 282.258 222.16C284.281 219.298 287.125 217.867 290.789 217.867C292.266 217.867 293.596 218.195 294.781 218.852C295.966 219.49 297.005 220.401 297.898 221.586V210.977L293.633 210.156V205.344H297.898H305.883V242.395L309.711 243.215V248H298.965L298.363 244.391ZM287.207 234.027C287.207 236.616 287.635 238.658 288.492 240.152C289.367 241.629 290.789 242.367 292.758 242.367C293.924 242.367 294.936 242.13 295.793 241.656C296.65 241.182 297.352 240.499 297.898 239.605V227.055C297.352 226.107 296.65 225.378 295.793 224.867C294.954 224.339 293.961 224.074 292.812 224.074C290.862 224.074 289.44 224.94 288.547 226.672C287.654 228.404 287.207 230.664 287.207 233.453V234.027ZM332.953 244.254C332.005 245.639 330.829 246.706 329.426 247.453C328.04 248.201 326.454 248.574 324.668 248.574C321.551 248.574 319.108 247.581 317.34 245.594C315.572 243.589 314.688 240.48 314.688 236.27V224.047L311.434 223.227V218.414H314.688H322.672V236.324C322.672 238.475 323.027 240.025 323.738 240.973C324.467 241.902 325.543 242.367 326.965 242.367C328.223 242.367 329.307 242.167 330.219 241.766C331.148 241.346 331.905 240.754 332.488 239.988V224.047L328.988 223.227V218.414H332.488H340.473V242.395L344.055 243.215V248H333.473L332.953 244.254ZM361.09 242.449C362.512 242.449 363.651 242.039 364.508 241.219C365.365 240.38 365.793 239.268 365.793 237.883H373.012L373.094 238.047C373.167 241.036 372.046 243.543 369.73 245.566C367.415 247.572 364.535 248.574 361.09 248.574C356.678 248.574 353.279 247.18 350.891 244.391C348.503 241.602 347.309 238.02 347.309 233.645V232.824C347.309 228.467 348.53 224.885 350.973 222.078C353.434 219.271 356.934 217.867 361.473 217.867C363.861 217.867 366.003 218.223 367.898 218.934C369.794 219.645 371.371 220.647 372.629 221.941L372.738 229.844H366.258L364.945 225.223C364.544 224.876 364.052 224.594 363.469 224.375C362.885 224.138 362.22 224.02 361.473 224.02C359.212 224.02 357.617 224.84 356.688 226.48C355.758 228.121 355.293 230.236 355.293 232.824V233.645C355.293 236.288 355.721 238.421 356.578 240.043C357.435 241.647 358.939 242.449 361.09 242.449ZM388.516 211.168V218.414H393.711V224.02H388.516V239.086C388.516 240.234 388.753 241.055 389.227 241.547C389.701 242.039 390.339 242.285 391.141 242.285C391.688 242.285 392.161 242.267 392.562 242.23C392.982 242.176 393.447 242.094 393.957 241.984L394.641 247.754C393.747 248.027 392.863 248.228 391.988 248.355C391.113 248.501 390.165 248.574 389.145 248.574C386.392 248.574 384.268 247.818 382.773 246.305C381.297 244.792 380.559 242.395 380.559 239.113V224.02H376.211V218.414H380.559V211.168H388.516ZM162.273 277.613H156.34L155.52 272.309C154.736 271.525 153.742 270.905 152.539 270.449C151.354 269.993 149.951 269.766 148.328 269.766C144.865 269.766 142.194 271.023 140.316 273.539C138.457 276.055 137.527 279.336 137.527 283.383V284.777C137.527 288.824 138.457 292.115 140.316 294.648C142.176 297.182 144.801 298.449 148.191 298.449C149.759 298.449 151.19 298.221 152.484 297.766C153.797 297.31 154.809 296.69 155.52 295.906L156.34 290.602H162.273V298.477C160.669 300.336 158.618 301.822 156.121 302.934C153.642 304.027 150.862 304.574 147.781 304.574C142.44 304.574 138.065 302.724 134.656 299.023C131.247 295.323 129.543 290.574 129.543 284.777V283.438C129.543 277.659 131.238 272.91 134.629 269.191C138.02 265.473 142.404 263.613 147.781 263.613C150.862 263.613 153.642 264.178 156.121 265.309C158.6 266.421 160.651 267.897 162.273 269.738V277.613ZM184.996 304C184.777 303.508 184.586 303.007 184.422 302.496C184.258 301.967 184.13 301.439 184.039 300.91C183.091 302.004 181.934 302.888 180.566 303.562C179.217 304.237 177.668 304.574 175.918 304.574C173.02 304.574 170.714 303.79 169 302.223C167.305 300.637 166.457 298.486 166.457 295.77C166.457 292.999 167.569 290.857 169.793 289.344C172.017 287.831 175.28 287.074 179.582 287.074H183.656V284.176C183.656 282.754 183.246 281.651 182.426 280.867C181.605 280.083 180.393 279.691 178.789 279.691C177.878 279.691 177.066 279.801 176.355 280.02C175.645 280.22 175.07 280.466 174.633 280.758L174.113 283.93H168.098L168.125 277.367C169.583 276.383 171.251 275.553 173.129 274.879C175.025 274.204 177.085 273.867 179.309 273.867C182.973 273.867 185.944 274.77 188.223 276.574C190.52 278.361 191.668 280.913 191.668 284.23V296.453C191.668 296.909 191.668 297.337 191.668 297.738C191.686 298.139 191.723 298.522 191.777 298.887L194.211 299.215V304H184.996ZM178.078 298.668C179.281 298.668 180.375 298.413 181.359 297.902C182.344 297.374 183.109 296.717 183.656 295.934V291.422H179.582C177.887 291.422 176.602 291.823 175.727 292.625C174.852 293.409 174.414 294.357 174.414 295.469C174.414 296.471 174.733 297.255 175.371 297.82C176.027 298.385 176.93 298.668 178.078 298.668ZM196.508 299.215L200.336 298.395V280.047L196.098 279.227V274.414H207.773L208.129 278.652C209.113 277.139 210.326 275.964 211.766 275.125C213.206 274.286 214.819 273.867 216.605 273.867C219.595 273.867 221.928 274.806 223.605 276.684C225.283 278.561 226.121 281.505 226.121 285.516V298.395L229.949 299.215V304H214.691V299.215L218.109 298.395V285.543C218.109 283.556 217.708 282.152 216.906 281.332C216.104 280.493 214.892 280.074 213.27 280.074C212.212 280.074 211.264 280.293 210.426 280.73C209.587 281.15 208.885 281.751 208.32 282.535V298.395L211.547 299.215V304H196.508V299.215ZM245.043 279.227L242.254 279.746L246.164 292.98L246.684 295.77H246.848L247.422 292.98L251.277 279.773L248.434 279.227V274.414H261.859V279.227L259.289 279.637L250.566 304H242.938L234.188 279.637L231.617 279.227V274.414H245.043V279.227ZM282.832 304C282.613 303.508 282.422 303.007 282.258 302.496C282.094 301.967 281.966 301.439 281.875 300.91C280.927 302.004 279.77 302.888 278.402 303.562C277.053 304.237 275.504 304.574 273.754 304.574C270.855 304.574 268.549 303.79 266.836 302.223C265.141 300.637 264.293 298.486 264.293 295.77C264.293 292.999 265.405 290.857 267.629 289.344C269.853 287.831 273.116 287.074 277.418 287.074H281.492V284.176C281.492 282.754 281.082 281.651 280.262 280.867C279.441 280.083 278.229 279.691 276.625 279.691C275.714 279.691 274.902 279.801 274.191 280.02C273.48 280.22 272.906 280.466 272.469 280.758L271.949 283.93H265.934L265.961 277.367C267.419 276.383 269.087 275.553 270.965 274.879C272.861 274.204 274.921 273.867 277.145 273.867C280.809 273.867 283.78 274.77 286.059 276.574C288.355 278.361 289.504 280.913 289.504 284.23V296.453C289.504 296.909 289.504 297.337 289.504 297.738C289.522 298.139 289.559 298.522 289.613 298.887L292.047 299.215V304H282.832ZM275.914 298.668C277.117 298.668 278.211 298.413 279.195 297.902C280.18 297.374 280.945 296.717 281.492 295.934V291.422H277.418C275.723 291.422 274.438 291.823 273.562 292.625C272.688 293.409 272.25 294.357 272.25 295.469C272.25 296.471 272.569 297.255 273.207 297.82C273.863 298.385 274.766 298.668 275.914 298.668ZM318.926 284.586H313.566L312.719 280.895C312.172 280.457 311.479 280.092 310.641 279.801C309.82 279.509 308.909 279.363 307.906 279.363C306.503 279.363 305.391 279.682 304.57 280.32C303.75 280.94 303.34 281.724 303.34 282.672C303.34 283.565 303.732 284.312 304.516 284.914C305.299 285.497 306.867 286.017 309.219 286.473C312.883 287.202 315.599 288.277 317.367 289.699C319.135 291.103 320.02 293.044 320.02 295.523C320.02 298.185 318.871 300.363 316.574 302.059C314.296 303.736 311.288 304.574 307.551 304.574C305.272 304.574 303.176 304.246 301.262 303.59C299.366 302.915 297.68 301.958 296.203 300.719L296.121 294.074H301.699L302.793 297.93C303.267 298.331 303.914 298.632 304.734 298.832C305.555 299.014 306.411 299.105 307.305 299.105C308.927 299.105 310.158 298.814 310.996 298.23C311.853 297.647 312.281 296.854 312.281 295.852C312.281 294.977 311.853 294.22 310.996 293.582C310.139 292.944 308.562 292.379 306.266 291.887C302.784 291.176 300.15 290.128 298.363 288.742C296.595 287.339 295.711 285.434 295.711 283.027C295.711 280.548 296.732 278.415 298.773 276.629C300.815 274.824 303.723 273.922 307.496 273.922C309.793 273.922 311.962 274.232 314.004 274.852C316.064 275.471 317.677 276.264 318.844 277.23L318.926 284.586Z" fill="white"/>
<path d="M145.75 97V93.7969L148.094 93.2969V77.9688L145.75 77.4688V74.25H148.094H156.484L161.984 89.2344H162.078L167.422 74.25H178.031V77.4688L175.672 77.9688V93.2969L178.031 93.7969V97H167.844V93.7969L170.297 93.2969V90.3281L170.422 79.625L170.328 79.6094L163.891 97H159.578L153.047 79.8125L152.938 79.8281L153.312 89.5781V93.2969L155.953 93.7969V97H145.75ZM176.266 97V93.7969L177.859 93.5625L184.641 74.25H190.578L197.375 93.5625L198.969 93.7969V97H190.469V93.7969L191.953 93.5156L191.266 91.0469H183.953L183.297 93.5156L184.781 93.7969V97H176.266ZM185.109 87.2031H190.094L187.875 80.3125L187.625 79.5156H187.531L187.266 80.3906L185.109 87.2031ZM210.297 97.3281C208.13 97.3281 206.198 96.8906 204.5 96.0156C202.802 95.1406 201.469 93.875 200.5 92.2188C199.531 90.5521 199.047 88.5312 199.047 86.1562V85.1094C199.047 82.9219 199.49 80.9896 200.375 79.3125C201.271 77.625 202.542 76.3073 204.188 75.3594C205.844 74.401 207.807 73.9219 210.078 73.9219C211.661 73.9219 213.167 74.1354 214.594 74.5625C216.031 74.9792 217.365 75.6979 218.594 76.7188V82.5781H214.609L214.062 79.2188C213.708 78.9792 213.333 78.7708 212.938 78.5938C212.552 78.4167 212.135 78.2812 211.688 78.1875C211.25 78.0938 210.776 78.0469 210.266 78.0469C209.109 78.0469 208.099 78.3229 207.234 78.875C206.37 79.4271 205.698 80.2292 205.219 81.2812C204.75 82.3229 204.516 83.5885 204.516 85.0781V86.1562C204.516 87.5521 204.76 88.7812 205.25 89.8438C205.74 90.8958 206.422 91.7188 207.297 92.3125C208.182 92.9062 209.203 93.2031 210.359 93.2031C210.974 93.2031 211.599 93.1406 212.234 93.0156C212.87 92.8802 213.484 92.7031 214.078 92.4844L214.625 89.2656H218.625V95C217.719 95.625 216.562 96.1719 215.156 96.6406C213.75 97.099 212.13 97.3281 210.297 97.3281ZM220.062 97V93.7969L222.422 93.2969V77.9688L220.062 77.4688V74.25H230.266V77.4688L227.906 77.9688V83.7188H236.188V77.9688L233.828 77.4688V74.25H236.188H241.656H244.016V77.4688L241.656 77.9688V93.2969L244.016 93.7969V97H233.828V93.7969L236.188 93.2969V87.9219H227.906V93.2969L230.266 93.7969V97H220.062ZM245.281 97V93.7969L247.641 93.2969V77.9688L245.281 77.4688V74.25H255.469V77.4688L253.109 77.9688V93.2969L255.469 93.7969V97H245.281ZM256.703 97V93.7969L259.047 93.2969V77.9688L256.703 77.4688V74.25H259.047H264.625L273.75 88.8125H273.844V77.9688L270.859 77.4688V74.25H278.703H281.062V77.4688L278.703 77.9688V97H273.297L264 82.75H263.906V93.2969L266.906 93.7969V97H256.703ZM281.906 97V93.7969L284.266 93.2969V77.9688L281.906 77.4688V74.25H300.078V80.8125H295.938L295.812 78.4688H289.75V83.1406H297.016V87.3438H289.75V92.7656H296.109L296.234 90.3125H300.328V97H281.906Z" fill="white" fill-opacity="0.5"/>
</g>
<defs>
<clipPath id="clip0_5_518">
<rect width="450" height="512" fill="white"/>
</clipPath>
</defs>
</svg>
