<svg width="450" height="512" viewBox="0 0 450 512" fill="none" xmlns="http://www.w3.org/2000/svg">
<g clip-path="url(#clip0_5_817)">
<path d="M212.66 3.35209C220.296 -1.11736 229.704 -1.11737 237.34 3.35209L434.66 118.842C442.296 123.311 447 131.571 447 140.51V371.49C447 380.429 442.296 388.689 434.66 393.158L237.34 508.648C229.704 513.117 220.296 513.117 212.66 508.648L15.3404 393.158C7.70413 388.689 3 380.429 3 371.49V140.51C3 131.571 7.70413 123.311 15.3404 118.842L212.66 3.35209Z" fill="#32ADE6"/>
<path d="M214.68 6.80426C221.068 3.06525 228.932 3.06525 235.32 6.80426L432.639 122.294C439.034 126.037 443 132.974 443 140.51V371.49C443 379.026 439.034 385.963 432.639 389.706L235.32 505.196C228.932 508.935 221.068 508.935 214.68 505.196L17.3609 389.706C10.9662 385.963 7 379.026 7 371.49V140.51C7 132.974 10.9662 126.037 17.3609 122.294L214.68 6.80426Z" stroke="black" stroke-opacity="0.5" stroke-width="8"/>
<rect x="82" y="128" width="286" height="4" rx="2" fill="white" fill-opacity="0.3"/>
<rect x="82" y="380" width="286" height="4" rx="2" fill="white" fill-opacity="0.3"/>
<path d="M153.004 208.188C157.871 208.188 161.882 209.746 165.035 212.863C168.189 215.962 169.766 219.945 169.766 224.812V231.402C169.766 236.288 168.189 240.28 165.035 243.379C161.882 246.46 157.871 248 153.004 248H135.094V243.215L139.332 242.395V213.82L135.094 213V208.188H139.332H153.004ZM147.316 214.34V241.875H152.594C155.456 241.875 157.698 240.909 159.32 238.977C160.943 237.044 161.754 234.52 161.754 231.402V224.758C161.754 221.677 160.943 219.171 159.32 217.238C157.698 215.306 155.456 214.34 152.594 214.34H147.316ZM188.059 248.574C183.793 248.574 180.384 247.207 177.832 244.473C175.28 241.738 174.004 238.266 174.004 234.055V232.961C174.004 228.568 175.207 224.949 177.613 222.105C180.038 219.262 183.283 217.849 187.348 217.867C191.34 217.867 194.439 219.07 196.645 221.477C198.85 223.883 199.953 227.137 199.953 231.238V235.586H182.289L182.234 235.75C182.38 237.701 183.027 239.305 184.176 240.562C185.342 241.82 186.919 242.449 188.906 242.449C190.674 242.449 192.142 242.276 193.309 241.93C194.475 241.565 195.751 241 197.137 240.234L199.297 245.156C198.076 246.122 196.49 246.934 194.539 247.59C192.607 248.246 190.447 248.574 188.059 248.574ZM187.348 224.02C185.871 224.02 184.704 224.585 183.848 225.715C182.991 226.845 182.462 228.331 182.262 230.172L182.344 230.309H192.133V229.598C192.133 227.902 191.732 226.553 190.93 225.551C190.146 224.53 188.952 224.02 187.348 224.02ZM227.898 228.586H222.539L221.691 224.895C221.145 224.457 220.452 224.092 219.613 223.801C218.793 223.509 217.882 223.363 216.879 223.363C215.475 223.363 214.363 223.682 213.543 224.32C212.723 224.94 212.312 225.724 212.312 226.672C212.312 227.565 212.704 228.312 213.488 228.914C214.272 229.497 215.84 230.017 218.191 230.473C221.855 231.202 224.572 232.277 226.34 233.699C228.108 235.103 228.992 237.044 228.992 239.523C228.992 242.185 227.844 244.363 225.547 246.059C223.268 247.736 220.26 248.574 216.523 248.574C214.245 248.574 212.148 248.246 210.234 247.59C208.339 246.915 206.652 245.958 205.176 244.719L205.094 238.074H210.672L211.766 241.93C212.24 242.331 212.887 242.632 213.707 242.832C214.527 243.014 215.384 243.105 216.277 243.105C217.9 243.105 219.13 242.814 219.969 242.23C220.826 241.647 221.254 240.854 221.254 239.852C221.254 238.977 220.826 238.22 219.969 237.582C219.112 236.944 217.535 236.379 215.238 235.887C211.757 235.176 209.122 234.128 207.336 232.742C205.568 231.339 204.684 229.434 204.684 227.027C204.684 224.548 205.704 222.415 207.746 220.629C209.788 218.824 212.695 217.922 216.469 217.922C218.766 217.922 220.935 218.232 222.977 218.852C225.036 219.471 226.65 220.264 227.816 221.23L227.898 228.586ZM232.328 243.215L236.184 242.395V224.047L231.918 223.227V218.414H244.168V242.395L247.996 243.215V248H232.328V243.215ZM244.168 211.332H236.184V205.344H244.168V211.332ZM251.113 233.453C251.113 228.786 252.125 225.022 254.148 222.16C256.19 219.298 259.043 217.867 262.707 217.867C264.366 217.867 265.824 218.241 267.082 218.988C268.34 219.717 269.415 220.766 270.309 222.133L270.883 218.414H277.828V247.125C277.828 251.026 276.598 254.134 274.137 256.449C271.694 258.783 268.331 259.949 264.047 259.949C262.552 259.949 260.966 259.74 259.289 259.32C257.612 258.919 256.062 258.363 254.641 257.652L256.117 252.047C257.393 252.594 258.669 253.022 259.945 253.332C261.221 253.66 262.57 253.824 263.992 253.824C265.943 253.824 267.401 253.232 268.367 252.047C269.333 250.862 269.816 249.212 269.816 247.098V245.156C268.941 246.268 267.911 247.116 266.727 247.699C265.542 248.283 264.184 248.574 262.652 248.574C259.025 248.574 256.19 247.243 254.148 244.582C252.125 241.902 251.113 238.384 251.113 234.027V233.453ZM259.098 234.027C259.098 236.616 259.535 238.658 260.41 240.152C261.285 241.629 262.707 242.367 264.676 242.367C265.897 242.367 266.927 242.148 267.766 241.711C268.622 241.255 269.306 240.599 269.816 239.742V226.891C269.306 225.997 268.622 225.305 267.766 224.812C266.927 224.32 265.915 224.074 264.73 224.074C262.78 224.074 261.349 224.94 260.438 226.672C259.544 228.404 259.098 230.664 259.098 233.453V234.027ZM282.176 243.215L286.004 242.395V224.047L281.766 223.227V218.414H293.441L293.797 222.652C294.781 221.139 295.993 219.964 297.434 219.125C298.874 218.286 300.487 217.867 302.273 217.867C305.263 217.867 307.596 218.806 309.273 220.684C310.951 222.561 311.789 225.505 311.789 229.516V242.395L315.617 243.215V248H300.359V243.215L303.777 242.395V229.543C303.777 227.556 303.376 226.152 302.574 225.332C301.772 224.493 300.56 224.074 298.938 224.074C297.88 224.074 296.932 224.293 296.094 224.73C295.255 225.15 294.553 225.751 293.988 226.535V242.395L297.215 243.215V248H282.176V243.215ZM138.402 264.188V274.797H132.277L131.949 270.34H124.621V298.395L128.887 299.215V304H112.371V299.215L116.637 298.395V270.34H109.336L109.008 274.797H102.91V264.188H138.402ZM140.781 299.215L144.637 298.395V266.977L140.371 266.156V261.344H152.594V278.188C153.523 276.82 154.663 275.763 156.012 275.016C157.361 274.25 158.855 273.867 160.496 273.867C163.595 273.867 166.02 274.897 167.77 276.957C169.538 278.999 170.422 282.161 170.422 286.445V298.395L174.25 299.215V304H158.992V299.215L162.438 298.395V286.391C162.438 284.094 162.027 282.471 161.207 281.523C160.405 280.557 159.202 280.074 157.598 280.074C156.486 280.074 155.51 280.275 154.672 280.676C153.852 281.077 153.159 281.642 152.594 282.371V298.395L156.039 299.215V304H140.781V299.215ZM176.574 299.215L180.43 298.395V280.047L176.164 279.227V274.414H188.414V298.395L192.242 299.215V304H176.574V299.215ZM188.414 267.332H180.43V261.344H188.414V267.332ZM194.43 299.215L198.258 298.395V280.047L194.02 279.227V274.414H205.695L206.051 278.652C207.035 277.139 208.247 275.964 209.688 275.125C211.128 274.286 212.741 273.867 214.527 273.867C217.517 273.867 219.85 274.806 221.527 276.684C223.204 278.561 224.043 281.505 224.043 285.516V298.395L227.871 299.215V304H212.613V299.215L216.031 298.395V285.543C216.031 283.556 215.63 282.152 214.828 281.332C214.026 280.493 212.814 280.074 211.191 280.074C210.134 280.074 209.186 280.293 208.348 280.73C207.509 281.15 206.807 281.751 206.242 282.535V298.395L209.469 299.215V304H194.43V299.215ZM229.566 266.156V261.344H241.789V286.062H243.566L248.16 279.582L245.562 279.227V274.414H260.109V279.227L256.609 280.02L251.277 287.348L258.742 298.586L261.777 299.215V304H248.105V299.215L249.746 298.941L245.207 291.613H241.789V298.395L245.234 299.215V304H229.977V299.215L233.832 298.395V266.977L229.566 266.156ZM264.348 299.215L268.203 298.395V280.047L263.938 279.227V274.414H276.188V298.395L280.016 299.215V304H264.348V299.215ZM276.188 267.332H268.203V261.344H276.188V267.332ZM282.203 299.215L286.031 298.395V280.047L281.793 279.227V274.414H293.469L293.824 278.652C294.809 277.139 296.021 275.964 297.461 275.125C298.901 274.286 300.514 273.867 302.301 273.867C305.29 273.867 307.624 274.806 309.301 276.684C310.978 278.561 311.816 281.505 311.816 285.516V298.395L315.645 299.215V304H300.387V299.215L303.805 298.395V285.543C303.805 283.556 303.404 282.152 302.602 281.332C301.799 280.493 300.587 280.074 298.965 280.074C297.908 280.074 296.96 280.293 296.121 280.73C295.283 281.15 294.581 281.751 294.016 282.535V298.395L297.242 299.215V304H282.203V299.215ZM318.406 289.453C318.406 284.786 319.418 281.022 321.441 278.16C323.483 275.298 326.336 273.867 330 273.867C331.659 273.867 333.117 274.241 334.375 274.988C335.633 275.717 336.708 276.766 337.602 278.133L338.176 274.414H345.121V303.125C345.121 307.026 343.891 310.134 341.43 312.449C338.987 314.783 335.624 315.949 331.34 315.949C329.845 315.949 328.259 315.74 326.582 315.32C324.905 314.919 323.355 314.363 321.934 313.652L323.41 308.047C324.686 308.594 325.962 309.022 327.238 309.332C328.514 309.66 329.863 309.824 331.285 309.824C333.236 309.824 334.694 309.232 335.66 308.047C336.626 306.862 337.109 305.212 337.109 303.098V301.156C336.234 302.268 335.204 303.116 334.02 303.699C332.835 304.283 331.477 304.574 329.945 304.574C326.318 304.574 323.483 303.243 321.441 300.582C319.418 297.902 318.406 294.384 318.406 290.027V289.453ZM326.391 290.027C326.391 292.616 326.828 294.658 327.703 296.152C328.578 297.629 330 298.367 331.969 298.367C333.19 298.367 334.22 298.148 335.059 297.711C335.915 297.255 336.599 296.599 337.109 295.742V282.891C336.599 281.997 335.915 281.305 335.059 280.812C334.22 280.32 333.208 280.074 332.023 280.074C330.073 280.074 328.642 280.94 327.73 282.672C326.837 284.404 326.391 286.664 326.391 289.453V290.027Z" fill="white"/>
<path d="M113.078 107V103.797L115.438 103.297V87.9688L113.078 87.4688V84.25H131.812V90.9531H127.672L127.562 88.4688H120.922V93.7344H128.656V97.9219H120.922V103.297L123.281 103.797V107H113.078ZM132.953 107V103.797L135.312 103.297V87.9688L132.953 87.4688V84.2344H144.141C145.943 84.2344 147.505 84.5208 148.828 85.0938C150.151 85.6667 151.172 86.4844 151.891 87.5469C152.609 88.599 152.969 89.849 152.969 91.2969C152.969 92.6302 152.604 93.8698 151.875 95.0156C151.156 96.1615 150.167 97.0833 148.906 97.7812C147.646 98.4688 146.208 98.8073 144.594 98.7969L140.797 98.75V103.297L143.156 103.797V107H132.953ZM147.359 107L144.297 98.125L149.062 96.5L151.828 103.266L153.984 103.812V107H147.359ZM140.797 94.5469H144.203C145.266 94.5469 146.083 94.3021 146.656 93.8125C147.229 93.3125 147.516 92.5938 147.516 91.6562C147.516 90.6875 147.224 89.9115 146.641 89.3281C146.057 88.7344 145.224 88.4375 144.141 88.4375H140.797V94.5469ZM154.906 107V103.797L156.5 103.562L163.281 84.25H169.219L176.016 103.562L177.609 103.797V107H169.109V103.797L170.594 103.516L169.906 101.047H162.594L161.938 103.516L163.422 103.797V107H154.906ZM163.75 97.2031H168.734L166.516 90.3125L166.266 89.5156H166.172L165.906 90.3906L163.75 97.2031ZM178.484 107V103.797L180.828 103.297V87.9688L178.484 87.4688V84.25H180.828H189.219L194.719 99.2344H194.812L200.156 84.25H210.766V87.4688L208.406 87.9688V103.297L210.766 103.797V107H200.578V103.797L203.031 103.297V100.328L203.156 89.625L203.062 89.6094L196.625 107H192.312L185.781 89.8125L185.672 89.8281L186.047 99.5781V103.297L188.688 103.797V107H178.484ZM211.703 107V103.797L214.062 103.297V87.9688L211.703 87.4688V84.25H229.875V90.8125H225.734L225.609 88.4688H219.547V93.1406H226.812V97.3438H219.547V102.766H225.906L226.031 100.312H230.125V107H211.703ZM239.547 107L234.297 87.7031L231.719 87.4688V84.25H241.984V87.4688L239.453 87.8281L241.938 98L242.297 99.4688H242.391L242.766 97.9844L247.219 84.25H251L255.688 98.625L256.016 99.6094H256.109L256.375 98.625L259.031 87.8281L256.422 87.4688V84.25H266.484V87.4688L264.062 87.7031L258.578 107H253.688L249.766 95.2344L249.281 93.6094H249.188L248.578 95.3281L244.594 107H239.547ZM278.969 107.328C277.396 107.328 275.948 107.042 274.625 106.469C273.312 105.885 272.172 105.073 271.203 104.031C270.234 102.99 269.484 101.771 268.953 100.375C268.432 98.9688 268.172 97.4427 268.172 95.7969V95.4375C268.172 93.8021 268.432 92.2865 268.953 90.8906C269.484 89.4948 270.229 88.276 271.188 87.2344C272.156 86.1927 273.297 85.3802 274.609 84.7969C275.922 84.2135 277.365 83.9219 278.938 83.9219C280.479 83.9219 281.911 84.2135 283.234 84.7969C284.557 85.3802 285.714 86.1927 286.703 87.2344C287.703 88.276 288.479 89.4948 289.031 90.8906C289.583 92.2865 289.859 93.8021 289.859 95.4375V95.7969C289.859 97.4427 289.583 98.9688 289.031 100.375C288.479 101.771 287.708 102.99 286.719 104.031C285.729 105.073 284.573 105.885 283.25 106.469C281.927 107.042 280.5 107.328 278.969 107.328ZM278.969 103.172C280.115 103.172 281.094 102.865 281.906 102.25C282.719 101.635 283.339 100.776 283.766 99.6719C284.193 98.5677 284.406 97.276 284.406 95.7969V95.4062C284.406 93.9583 284.188 92.6875 283.75 91.5938C283.323 90.4896 282.703 89.6302 281.891 89.0156C281.078 88.401 280.094 88.0938 278.938 88.0938C277.719 88.0938 276.719 88.3958 275.938 89C275.167 89.6042 274.594 90.4531 274.219 91.5469C273.844 92.6406 273.656 93.9271 273.656 95.4062V95.7969C273.656 97.276 273.844 98.5729 274.219 99.6875C274.604 100.792 275.188 101.651 275.969 102.266C276.76 102.87 277.76 103.172 278.969 103.172ZM291.359 107V103.797L293.719 103.297V87.9688L291.359 87.4688V84.2344H302.547C304.349 84.2344 305.911 84.5208 307.234 85.0938C308.557 85.6667 309.578 86.4844 310.297 87.5469C311.016 88.599 311.375 89.849 311.375 91.2969C311.375 92.6302 311.01 93.8698 310.281 95.0156C309.562 96.1615 308.573 97.0833 307.312 97.7812C306.052 98.4688 304.615 98.8073 303 98.7969L299.203 98.75V103.297L301.562 103.797V107H291.359ZM305.766 107L302.703 98.125L307.469 96.5L310.234 103.266L312.391 103.812V107H305.766ZM299.203 94.5469H302.609C303.672 94.5469 304.49 94.3021 305.062 93.8125C305.635 93.3125 305.922 92.5938 305.922 91.6562C305.922 90.6875 305.63 89.9115 305.047 89.3281C304.464 88.7344 303.63 88.4375 302.547 88.4375H299.203V94.5469ZM320 102.047L317.203 98.8438L328.547 87.6719L328.562 87.6406L325.984 87.4688V84.25H336.609V87.4688L334.469 87.9219L320 102.047ZM313.578 107V103.797L315.938 103.297V87.9688L313.578 87.4688V84.25H323.578V87.4688L321.422 87.9688V103.297L323.578 103.797V107H313.578ZM326.469 107V103.797L328.75 103.625H328.781L323.312 96.1406L327.141 92.75L335.109 103.406L337.438 103.797V107H326.469Z" fill="black" fill-opacity="0.3"/>
</g>
<defs>
<clipPath id="clip0_5_817">
<rect width="450" height="512" fill="white"/>
</clipPath>
</defs>
</svg>
