<svg width="163" height="191" viewBox="0 0 163 191" fill="none" xmlns="http://www.w3.org/2000/svg">
<path d="M75.7602 6.52497C79.6508 4.27879 84.4476 4.29317 88.3247 6.56262L154.315 45.1898C158.146 47.4323 160.5 51.5384 160.5 55.9775V134.853C160.5 139.285 158.154 143.385 154.333 145.63L88.343 184.409C84.4566 186.693 79.6417 186.708 75.7417 184.447L8.73174 145.608C4.87452 143.372 2.5 139.251 2.5 134.793V56.0374C2.5 51.5715 4.88256 47.4448 8.75016 45.2119L75.7602 6.52497Z" fill="#C9C675" stroke="#444444" stroke-width="5"/>
<path d="M36.3242 141V139.499L37.4448 139.228V132.123L36.3242 131.845V130.336H37.4448H41.3193C42.2812 130.336 43.1333 130.561 43.8755 131.01C44.6177 131.454 45.1987 132.072 45.6187 132.863C46.0386 133.649 46.2485 134.557 46.2485 135.587V135.756C46.2485 136.786 46.0386 137.697 45.6187 138.488C45.1987 139.274 44.6177 139.889 43.8755 140.333C43.1333 140.778 42.2812 141 41.3193 141H36.3242ZM40.0156 139.052H41.1875C41.7295 139.052 42.1836 138.915 42.5498 138.642C42.916 138.368 43.1919 137.985 43.3774 137.492C43.5679 136.994 43.6631 136.415 43.6631 135.756V135.58C43.6631 134.921 43.5679 134.345 43.3774 133.852C43.1919 133.358 42.916 132.975 42.5498 132.702C42.1836 132.428 41.7295 132.292 41.1875 132.292H40.0156V139.052ZM47.0908 141V139.499L48.1968 139.264V132.079L47.0908 131.845V130.336H55.6089V133.412H53.668L53.6094 132.313H50.7676V134.503H54.1733V136.474H50.7676V139.015H53.7485L53.8071 137.865H55.7261V141H47.0908ZM60.853 141L57.5132 131.962L56.5024 131.845V130.336H61.2852V131.845L60.333 131.991L62.2446 137.982L62.3472 138.4H62.3911L62.4863 138.004L64.3394 131.991L63.1968 131.845V130.336H67.6646V131.845L66.6245 131.962L63.6362 141H60.853ZM68.0527 141V139.499L69.1587 139.264V132.079L68.0527 131.845V130.336H76.5708V133.412H74.6299L74.5713 132.313H71.7295V134.503H75.1353V136.474H71.7295V139.015H74.7104L74.769 137.865H76.688V141H68.0527ZM77.6475 141V139.499L78.7534 139.264V132.079L77.6475 131.845V130.336H78.7534H81.3242H82.6719V131.845L81.3242 132.079V139.03H83.8584L83.917 137.543H85.8799V141H77.6475ZM91.6147 141.154C90.8774 141.154 90.1987 141.02 89.5786 140.751C88.9634 140.478 88.4287 140.097 87.9746 139.608C87.5205 139.12 87.1689 138.549 86.9199 137.895C86.6758 137.235 86.5537 136.52 86.5537 135.749V135.58C86.5537 134.813 86.6758 134.103 86.9199 133.449C87.1689 132.794 87.5181 132.223 87.9673 131.735C88.4214 131.247 88.9561 130.866 89.5713 130.592C90.1865 130.319 90.8628 130.182 91.6001 130.182C92.3228 130.182 92.9941 130.319 93.6143 130.592C94.2344 130.866 94.7764 131.247 95.2402 131.735C95.709 132.223 96.0728 132.794 96.3315 133.449C96.5903 134.103 96.7197 134.813 96.7197 135.58V135.749C96.7197 136.52 96.5903 137.235 96.3315 137.895C96.0728 138.549 95.7114 139.12 95.2476 139.608C94.7837 140.097 94.2417 140.478 93.6216 140.751C93.0015 141.02 92.3325 141.154 91.6147 141.154ZM91.6147 139.206C92.1519 139.206 92.6108 139.062 92.9917 138.773C93.3726 138.485 93.6631 138.083 93.8633 137.565C94.0635 137.047 94.1636 136.442 94.1636 135.749V135.565C94.1636 134.887 94.061 134.291 93.856 133.778C93.6558 133.261 93.3652 132.858 92.9844 132.57C92.6035 132.282 92.1421 132.138 91.6001 132.138C91.0288 132.138 90.5601 132.279 90.1938 132.562C89.8325 132.846 89.564 133.244 89.3882 133.756C89.2124 134.269 89.1245 134.872 89.1245 135.565V135.749C89.1245 136.442 89.2124 137.05 89.3882 137.572C89.5688 138.09 89.8423 138.493 90.2085 138.781C90.5796 139.064 91.0483 139.206 91.6147 139.206ZM97.4229 141V139.499L98.5288 139.264V132.079L97.4229 131.845V130.336H98.5288H102.608C103.458 130.336 104.195 130.485 104.82 130.783C105.445 131.081 105.926 131.496 106.263 132.028C106.605 132.555 106.776 133.17 106.776 133.874C106.776 134.577 106.605 135.192 106.263 135.719C105.926 136.247 105.445 136.657 104.82 136.95C104.195 137.243 103.458 137.389 102.608 137.389H101.1V139.264L102.206 139.499V141H97.4229ZM101.1 135.419H102.608C103.131 135.419 103.526 135.277 103.795 134.994C104.068 134.706 104.205 134.337 104.205 133.888C104.205 133.424 104.068 133.043 103.795 132.746C103.526 132.448 103.131 132.299 102.608 132.299H101.1V135.419ZM107.252 141V139.499L108.358 139.264V132.079L107.252 131.845V130.336H115.77V133.412H113.829L113.771 132.313H110.929V134.503H114.334V136.474H110.929V139.015H113.91L113.968 137.865H115.887V141H107.252ZM116.847 141V139.499L117.953 139.264V132.079L116.847 131.845V130.329H122.091C122.936 130.329 123.668 130.463 124.288 130.731C124.908 131 125.387 131.383 125.724 131.881C126.061 132.375 126.229 132.96 126.229 133.639C126.229 134.264 126.058 134.845 125.716 135.382C125.379 135.919 124.916 136.352 124.325 136.679C123.734 137.001 123.06 137.16 122.303 137.155L120.523 137.133V139.264L121.629 139.499V141H116.847ZM123.6 141L122.164 136.84L124.398 136.078L125.694 139.25L126.705 139.506V141H123.6ZM120.523 135.163H122.12C122.618 135.163 123.001 135.048 123.27 134.818C123.539 134.584 123.673 134.247 123.673 133.808C123.673 133.354 123.536 132.99 123.263 132.716C122.989 132.438 122.599 132.299 122.091 132.299H120.523V135.163Z" fill="#444444"/>
<path d="M81.4972 34C71.3998 34 63.1504 41.5664 63.1504 50.8215C63.1504 54.9681 64.8156 58.7605 67.5525 61.6958C57.1377 66.4026 50 76.2144 50 87.5767V103.332C49.994 104.781 51.2711 105.961 52.8527 105.967H59.5985V115.365C59.5925 116.814 60.8696 117.994 62.4512 118H101.835C103.426 118.006 104.716 116.822 104.71 115.365V105.967H110.147C111.729 105.961 113.006 104.781 113 103.332V87.5767C113 76.2143 105.876 66.3897 95.4642 61.6804C98.192 58.7474 99.8496 54.9603 99.8496 50.8215C99.8496 41.5664 91.5946 34 81.4972 34ZM81.4972 39.25C88.499 39.25 94.1218 44.4037 94.1218 50.8215C94.1218 54.7442 92.0111 58.1717 88.78 60.2551C88.7054 60.2914 88.6326 60.3308 88.5618 60.3731C88.1751 60.6138 87.7641 60.8102 87.3536 61.0088C87.1752 61.0942 87.0057 61.1925 86.8222 61.2704C86.4681 61.4222 86.0987 61.5391 85.7315 61.66C85.3686 61.7776 85.0016 61.8852 84.624 61.9727C84.3223 62.0441 84.0193 62.1166 83.7122 62.1675C82.9916 62.283 82.2556 62.3674 81.4972 62.3674C80.7179 62.3674 79.9654 62.2841 79.2262 62.1624C78.9872 62.1227 78.7517 62.0661 78.5158 62.0137C77.9986 61.8997 77.4953 61.7579 77.0056 61.5881C76.7883 61.5127 76.5693 61.4438 76.3567 61.3575C75.7862 61.1257 75.2393 60.8559 74.7178 60.5525C74.6196 60.495 74.5124 60.4533 74.4158 60.3936C74.4028 60.3866 74.3897 60.3796 74.3766 60.3728C71.0509 58.3015 68.8782 54.8115 68.8782 50.8215C68.8782 44.4037 74.4953 39.25 81.4972 39.25ZM72.6706 65.5308C75.2947 66.8586 78.2997 67.6174 81.4972 67.6174C84.6947 67.6174 87.7053 66.8587 90.3294 65.5308C100.188 68.8327 107.272 77.3275 107.272 87.5767V100.717H104.71V82.5574C104.711 82.4701 104.708 82.3828 104.699 82.2958C104.547 80.9532 103.308 79.9354 101.835 79.9426H62.4512C62.3599 79.9385 62.2684 79.9385 62.1771 79.9426C61.0978 80.0432 60.1731 80.6943 59.7887 81.6242C59.7543 81.7066 59.7244 81.7903 59.6992 81.8754V81.8853C59.6744 81.9664 59.6538 82.0485 59.6376 82.1314C59.6217 82.218 59.6104 82.3053 59.604 82.3929C59.6003 82.4476 59.5984 82.5023 59.5984 82.557V100.717H55.7278V87.5763C55.7278 77.3273 62.8117 68.8329 72.6706 65.5308ZM65.3263 85.1978H98.9826C98.9826 94.3818 98.9826 103.566 98.9826 112.75H65.3263V103.332V85.1978ZM67.6923 100.871C52.9005 56.184 60.2964 78.5274 67.6923 100.871V100.871ZM91.3921 105.424C60.8005 57.7016 76.0963 81.5626 91.3921 105.424V105.424Z" fill="#444444"/>
<path d="M72.5907 105.011C72.9024 105.302 73.3245 105.465 73.7643 105.465C74.2041 105.464 74.6257 105.3 74.9366 105.008C75.2474 104.716 75.4221 104.321 75.4223 103.909C75.4224 103.496 75.2481 103.101 74.9375 102.809L71.1387 99.2417L74.9375 95.6745C75.2481 95.3825 75.4223 94.987 75.4221 94.5747C75.4219 94.1624 75.2472 93.767 74.9364 93.4753C74.6256 93.1836 74.2041 93.0194 73.7643 93.0188C73.3245 93.0182 72.9024 93.1811 72.5907 93.4719L67.6183 98.1404C67.4637 98.2848 67.3411 98.4565 67.2574 98.6454C67.1737 98.8344 67.1306 99.037 67.1306 99.2417C67.1306 99.4463 67.1737 99.6489 67.2574 99.8379C67.3411 100.027 67.4637 100.198 67.6183 100.343L72.5907 105.011Z" fill="#444444"/>
<path d="M89.1755 105.011C89.3295 105.156 89.5124 105.271 89.7138 105.349C89.9151 105.427 90.1309 105.467 90.3489 105.467C90.5669 105.467 90.7827 105.427 90.984 105.349C91.1854 105.271 91.3683 105.156 91.5223 105.011L96.4947 100.351C96.6493 100.206 96.7719 100.035 96.8556 99.8458C96.9393 99.6568 96.9824 99.4542 96.9824 99.2496C96.9824 99.045 96.9393 98.8424 96.8556 98.6534C96.7719 98.4644 96.6493 98.2928 96.4947 98.1483L91.5223 93.4799C91.2106 93.189 90.7885 93.026 90.3487 93.0266C89.9088 93.0272 89.4873 93.1914 89.1764 93.4831C88.8656 93.7748 88.6909 94.1702 88.6907 94.5826C88.6906 94.9949 88.8649 95.3905 89.1755 95.6824L92.9743 99.2496L89.1755 102.817C89.0209 102.961 88.8982 103.133 88.8145 103.322C88.7308 103.511 88.6877 103.713 88.6877 103.918C88.6877 104.123 88.7308 104.325 88.8145 104.514C88.8982 104.703 89.0209 104.867 89.1755 105.011Z" fill="#444444"/>
<path d="M79.9958 106.975C80.1272 107.006 80.262 107.022 80.3973 107.022C80.7668 107.021 81.1253 106.904 81.4159 106.69C81.7065 106.476 81.9125 106.177 82.0013 105.841L85.3189 93.402C85.4087 93.0077 85.3316 92.5962 85.1039 92.2541C84.8763 91.9121 84.5158 91.6664 84.0985 91.5687C83.6813 91.4711 83.2399 91.5292 82.8675 91.7309C82.4951 91.9325 82.2208 92.2619 82.1025 92.6495L78.7848 105.088C78.6788 105.488 78.7464 105.911 78.9728 106.264C79.1991 106.617 79.5695 106.875 79.9958 106.975Z" fill="#444444"/>
</svg>
