<svg width="163" height="191" viewBox="0 0 163 191" fill="none" xmlns="http://www.w3.org/2000/svg">
<path d="M75.7602 6.52497C79.6508 4.27879 84.4476 4.29317 88.3247 6.56262L154.315 45.1898C158.146 47.4323 160.5 51.5384 160.5 55.9775V134.853C160.5 139.285 158.154 143.385 154.333 145.63L88.343 184.409C84.4566 186.693 79.6417 186.708 75.7417 184.447L8.73174 145.608C4.87452 143.372 2.5 139.251 2.5 134.793V56.0374C2.5 51.5715 4.88256 47.4448 8.75016 45.2119L75.7602 6.52497Z" fill="#C9C675" stroke="#444444" stroke-width="5"/>
<path d="M17.6328 141V139.499L18.7534 139.228V132.123L17.6328 131.845V130.336H18.7534H22.6279C23.5898 130.336 24.4419 130.561 25.1841 131.01C25.9263 131.454 26.5073 132.072 26.9272 132.863C27.3472 133.649 27.5571 134.557 27.5571 135.587V135.756C27.5571 136.786 27.3472 137.697 26.9272 138.488C26.5073 139.274 25.9263 139.889 25.1841 140.333C24.4419 140.778 23.5898 141 22.6279 141H17.6328ZM21.3242 139.052H22.4961C23.0381 139.052 23.4922 138.915 23.8584 138.642C24.2246 138.368 24.5005 137.985 24.686 137.492C24.8765 136.994 24.9717 136.415 24.9717 135.756V135.58C24.9717 134.921 24.8765 134.345 24.686 133.852C24.5005 133.358 24.2246 132.975 23.8584 132.702C23.4922 132.428 23.0381 132.292 22.4961 132.292H21.3242V139.052ZM33.6216 141.154C32.8843 141.154 32.2056 141.02 31.5854 140.751C30.9702 140.478 30.4355 140.097 29.9814 139.608C29.5273 139.12 29.1758 138.549 28.9268 137.895C28.6826 137.235 28.5605 136.52 28.5605 135.749V135.58C28.5605 134.813 28.6826 134.103 28.9268 133.449C29.1758 132.794 29.5249 132.223 29.9741 131.735C30.4282 131.247 30.9629 130.866 31.5781 130.592C32.1934 130.319 32.8696 130.182 33.6069 130.182C34.3296 130.182 35.001 130.319 35.6211 130.592C36.2412 130.866 36.7832 131.247 37.2471 131.735C37.7158 132.223 38.0796 132.794 38.3384 133.449C38.5972 134.103 38.7266 134.813 38.7266 135.58V135.749C38.7266 136.52 38.5972 137.235 38.3384 137.895C38.0796 138.549 37.7183 139.12 37.2544 139.608C36.7905 140.097 36.2485 140.478 35.6284 140.751C35.0083 141.02 34.3394 141.154 33.6216 141.154ZM33.6216 139.206C34.1587 139.206 34.6177 139.062 34.9985 138.773C35.3794 138.485 35.6699 138.083 35.8701 137.565C36.0703 137.047 36.1704 136.442 36.1704 135.749V135.565C36.1704 134.887 36.0679 134.291 35.8628 133.778C35.6626 133.261 35.3721 132.858 34.9912 132.57C34.6104 132.282 34.1489 132.138 33.6069 132.138C33.0356 132.138 32.5669 132.279 32.2007 132.562C31.8394 132.846 31.5708 133.244 31.395 133.756C31.2192 134.269 31.1313 134.872 31.1313 135.565V135.749C31.1313 136.442 31.2192 137.05 31.395 137.572C31.5757 138.09 31.8491 138.493 32.2153 138.781C32.5864 139.064 33.0552 139.206 33.6216 139.206ZM39.3711 141V139.499L40.4697 139.264V132.079L39.3711 131.845V130.336H40.4697H44.4028L46.981 137.36H47.0249L49.5298 130.336H54.5029V131.845L53.397 132.079V139.264L54.5029 139.499V141H49.7275V139.499L50.8774 139.264V137.873L50.936 132.855L50.8921 132.848L47.8745 141H45.853L42.7915 132.943L42.7402 132.951L42.916 137.521V139.264L44.1538 139.499V141H39.3711ZM53.6753 141V139.499L54.4224 139.389L57.6011 130.336H60.3843L63.5703 139.389L64.3174 139.499V141H60.333V139.499L61.0288 139.367L60.7065 138.209H57.2788L56.9712 139.367L57.667 139.499V141H53.6753ZM57.8208 136.408H60.1572L59.1172 133.178L59 132.804H58.9561L58.8315 133.214L57.8208 136.408ZM64.7861 141V139.499L65.8921 139.264V132.079L64.7861 131.845V130.336H69.5615V131.845L68.4556 132.079V139.264L69.5615 139.499V141H64.7861ZM70.1401 141V139.499L71.2388 139.264V132.079L70.1401 131.845V130.336H71.2388H73.8535L78.1309 137.162H78.1748V132.079L76.7759 131.845V130.336H80.4526H81.5586V131.845L80.4526 132.079V141H77.9185L73.5605 134.32H73.5166V139.264L74.9229 139.499V141H70.1401ZM85.6016 141V139.499L86.7075 139.264V132.079L85.6016 131.845V130.336H94.1196V133.412H92.1787L92.1201 132.313H89.2783V134.503H92.6841V136.474H89.2783V139.015H92.2593L92.3179 137.865H94.2368V141H85.6016ZM94.9619 141V139.499L95.9067 139.308L98.7412 135.8L96.0312 132.042L95.2109 131.845V130.336H99.8179V131.845L98.7925 131.94L100.301 134.057L101.869 131.94L100.895 131.845V130.336H105.392V131.845L104.469 132.042L101.839 135.492L104.813 139.301L105.868 139.499V141H101.122V139.499L101.971 139.411L100.331 137.169L98.624 139.411L99.4663 139.499V141H94.9619ZM106.227 141V139.499L107.333 139.264V132.079L106.227 131.845V130.336H107.333H111.412C112.262 130.336 112.999 130.485 113.624 130.783C114.249 131.081 114.73 131.496 115.067 132.028C115.409 132.555 115.58 133.17 115.58 133.874C115.58 134.577 115.409 135.192 115.067 135.719C114.73 136.247 114.249 136.657 113.624 136.95C112.999 137.243 112.262 137.389 111.412 137.389H109.903V139.264L111.009 139.499V141H106.227ZM109.903 135.419H111.412C111.935 135.419 112.33 135.277 112.599 134.994C112.872 134.706 113.009 134.337 113.009 133.888C113.009 133.424 112.872 133.043 112.599 132.746C112.33 132.448 111.935 132.299 111.412 132.299H109.903V135.419ZM116.056 141V139.499L117.162 139.264V132.079L116.056 131.845V130.336H124.574V133.412H122.633L122.574 132.313H119.732V134.503H123.138V136.474H119.732V139.015H122.713L122.772 137.865H124.691V141H116.056ZM125.65 141V139.499L126.756 139.264V132.079L125.65 131.845V130.329H130.895C131.739 130.329 132.472 130.463 133.092 130.731C133.712 131 134.19 131.383 134.527 131.881C134.864 132.375 135.033 132.96 135.033 133.639C135.033 134.264 134.862 134.845 134.52 135.382C134.183 135.919 133.719 136.352 133.128 136.679C132.538 137.001 131.864 137.16 131.107 137.155L129.327 137.133V139.264L130.433 139.499V141H125.65ZM132.403 141L130.968 136.84L133.202 136.078L134.498 139.25L135.509 139.506V141H132.403ZM129.327 135.163H130.924C131.422 135.163 131.805 135.048 132.074 134.818C132.342 134.584 132.477 134.247 132.477 133.808C132.477 133.354 132.34 132.99 132.066 132.716C131.793 132.438 131.402 132.299 130.895 132.299H129.327V135.163ZM138.197 141V139.499L139.31 139.264V132.328H137.662L137.596 133.478H135.655V130.336H145.565V133.478H143.602L143.543 132.328H141.881V139.264L142.994 139.499V141H138.197Z" fill="#444444"/>
<path d="M80.5242 34C70.4182 34 62.1617 41.5664 62.1617 50.8215C62.1617 54.9681 63.8283 58.7605 66.5676 61.6958C56.1439 66.4026 49 76.2144 49 87.5767V103.332C48.994 104.781 50.2722 105.961 51.8552 105.967H58.6067V115.365C58.6007 116.814 59.8789 117.994 61.4619 118H100.88C102.471 118.006 103.763 116.822 103.757 115.365V105.967H109.199C110.782 105.961 112.06 104.781 112.054 103.332V87.5767C112.054 76.2143 104.924 66.3897 94.5032 61.6804C97.2333 58.7474 98.8923 54.9603 98.8923 50.8215C98.8923 41.5664 90.6302 34 80.5242 34ZM80.5242 39.25C87.5321 39.25 93.1596 44.4037 93.1596 50.8215C93.1596 54.7442 91.0471 58.1717 87.8132 60.2551C87.7386 60.2914 87.6657 60.3308 87.5949 60.3731C87.2078 60.6138 86.7965 60.8102 86.3857 61.0088C86.2071 61.0942 86.0374 61.1925 85.8538 61.2704C85.4994 61.4222 85.1296 61.5391 84.7621 61.66C84.3989 61.7776 84.0317 61.8852 83.6537 61.9727C83.3517 62.0441 83.0485 62.1166 82.7411 62.1675C82.0199 62.283 81.2833 62.3674 80.5242 62.3674C79.7443 62.3674 78.9911 62.2841 78.2513 62.1624C78.0121 62.1227 77.7763 62.0661 77.5403 62.0137C77.0226 61.8997 76.5188 61.7579 76.0288 61.5881C75.8113 61.5127 75.5921 61.4438 75.3793 61.3575C74.8084 61.1257 74.2609 60.8559 73.739 60.5525C73.6407 60.495 73.5335 60.4533 73.4367 60.3936C73.4237 60.3866 73.4106 60.3796 73.3975 60.3728C70.0689 58.3015 67.8944 54.8115 67.8944 50.8215C67.8944 44.4037 73.5164 39.25 80.5242 39.25ZM71.6901 65.5308C74.3164 66.8586 77.324 67.6174 80.5242 67.6174C83.7244 67.6174 86.7376 66.8587 89.364 65.5308C99.2306 68.8327 106.321 77.3275 106.321 87.5767V100.717H103.757V82.5574C103.758 82.4701 103.755 82.3828 103.746 82.2958C103.593 80.9532 102.354 79.9354 100.88 79.9426H61.4619C61.3705 79.9385 61.279 79.9385 61.1876 79.9426C60.1073 80.0432 59.1818 80.6943 58.7971 81.6242C58.7627 81.7066 58.7328 81.7903 58.7075 81.8754V81.8853C58.6827 81.9664 58.6621 82.0485 58.6459 82.1314C58.6299 82.218 58.6187 82.3053 58.6123 82.3929C58.6085 82.4476 58.6067 82.5023 58.6067 82.557V100.717H54.7327V87.5763C54.7327 77.3273 61.8227 68.8329 71.6901 65.5308ZM64.3394 85.1978H98.0246C98.0246 94.3818 98.0246 103.566 98.0246 112.75H64.3394V103.332V85.1978ZM66.7075 100.871C51.903 56.184 59.3053 78.5274 66.7075 100.871V100.871ZM90.4276 105.424C59.8097 57.7016 75.1187 81.5626 90.4276 105.424V105.424Z" fill="#515151"/>
<path d="M81.3625 92.4499L82.4097 94.293L84.5826 94.6663C84.8524 94.7121 85.0321 94.9567 84.9837 95.2122C84.966 95.3062 84.9196 95.3886 84.8547 95.453L83.327 96.9667L83.6238 99.0403C83.6601 99.298 83.469 99.5353 83.1971 99.57C83.097 99.5827 82.9994 99.5659 82.9147 99.5272L80.9244 98.6196L78.9338 99.5274C78.6866 99.6404 78.389 99.5421 78.2697 99.3077C78.2239 99.218 78.211 99.1216 78.2262 99.03L78.5218 96.9667L76.9935 95.4536C76.8044 95.2653 76.8124 94.9667 77.011 94.7879C77.0903 94.7164 77.1878 94.675 77.2888 94.6625L79.4388 94.293L80.4863 92.4499C80.6162 92.2209 80.9181 92.1351 81.1599 92.2581C81.2492 92.3033 81.3178 92.371 81.3625 92.4499ZM84.1497 107.013L82.3207 104.013L81.7859 104.89L83.6672 107.976L84.1497 107.013ZM76.407 106.305L78.4319 102.985C78.1335 102.891 77.8431 102.781 77.5618 102.655L75.2836 106.391L76.407 106.305ZM85.568 101.935L88.5358 106.803C88.6299 106.932 88.6797 107.091 88.6659 107.26C88.6339 107.65 88.2739 107.941 87.8625 107.91L85.4447 107.725L84.4072 109.796C84.3448 109.922 84.2427 110.031 84.1059 110.106C83.7494 110.301 83.2927 110.186 83.0864 109.849L80.9244 106.303L78.7621 109.849C78.5558 110.186 78.0991 110.301 77.7426 110.106C77.6059 110.031 77.5037 109.922 77.4413 109.796L76.4038 107.725L73.986 107.91C73.5746 107.941 73.2146 107.65 73.1826 107.26C73.1688 107.091 73.2186 106.932 73.3128 106.803L76.2802 101.936C74.3085 100.576 73.0272 98.3738 73.0272 95.8876C73.0272 91.7577 76.5626 88.4102 80.9244 88.4102C85.2859 88.4102 88.8216 91.7577 88.8216 95.8876C88.8216 98.3738 87.54 100.576 85.568 101.935ZM80.9244 101.522C84.2109 101.522 86.8751 98.9994 86.8751 95.8876C86.8751 92.7758 84.2109 90.2532 80.9244 90.2532C77.6376 90.2532 74.9737 92.7758 74.9737 95.8876C74.9737 98.9994 77.6376 101.522 80.9244 101.522Z" fill="#515151"/>
</svg>
