<svg width="450" height="512" viewBox="0 0 450 512" fill="none" xmlns="http://www.w3.org/2000/svg">
<g clip-path="url(#clip0_5_268)">
<path d="M212.66 3.35209C220.296 -1.11736 229.704 -1.11737 237.34 3.35209L434.66 118.842C442.296 123.311 447 131.571 447 140.51V371.49C447 380.429 442.296 388.689 434.66 393.158L237.34 508.648C229.704 513.117 220.296 513.117 212.66 508.648L15.3404 393.158C7.70413 388.689 3 380.429 3 371.49V140.51C3 131.571 7.70413 123.311 15.3404 118.842L212.66 3.35209Z" fill="#00C2FF"/>
<path d="M214.68 6.80426C221.068 3.06525 228.932 3.06525 235.32 6.80426L432.639 122.294C439.034 126.037 443 132.974 443 140.51V371.49C443 379.026 439.034 385.963 432.639 389.706L235.32 505.196C228.932 508.935 221.068 508.935 214.68 505.196L17.3609 389.706C10.9662 385.963 7 379.026 7 371.49V140.51C7 132.974 10.9662 126.037 17.3609 122.294L214.68 6.80426Z" stroke="black" stroke-opacity="0.5" stroke-width="8"/>
<path d="M407 146C407 141.582 410.582 138 415 138C419.418 138 423 141.582 423 146V174.8H407V146Z" fill="black" fill-opacity="0.15"/>
<rect x="407" y="176.8" width="16" height="36.8" fill="black" fill-opacity="0.15"/>
<rect x="407" y="215.6" width="16" height="36.8" fill="black" fill-opacity="0.15"/>
<rect x="407" y="254.4" width="16" height="36.8" fill="white" fill-opacity="0.75"/>
<path d="M407 293.2H423V322C423 326.418 419.418 330 415 330C410.582 330 407 326.418 407 322V293.2Z" fill="white" fill-opacity="0.75"/>
<path d="M28 146C28 141.582 31.5817 138 36 138C40.4183 138 44 141.582 44 146V174.8H28V146Z" fill="black" fill-opacity="0.15"/>
<rect x="28" y="176.8" width="16" height="36.8" fill="black" fill-opacity="0.15"/>
<rect x="28" y="215.6" width="16" height="36.8" fill="black" fill-opacity="0.15"/>
<rect x="28" y="254.4" width="16" height="36.8" fill="white" fill-opacity="0.75"/>
<path d="M28 293.2H44V322C44 326.418 40.4183 330 36 330C31.5817 330 28 326.418 28 322V293.2Z" fill="white" fill-opacity="0.75"/>
<path d="M40.588 363.76L38 362.008V359.992L40.588 358.24C42.716 356.801 44 354.325 44 351.665V349H28V351.665C28 354.325 29.284 356.801 31.412 358.24L34 359.992V362.008L31.412 363.76C29.284 365.199 28 367.675 28 370.335V373H44V370.335C44 367.675 42.716 365.199 40.588 363.76Z" fill="white" fill-opacity="0.75"/>
<path fill-rule="evenodd" clip-rule="evenodd" d="M423.788 358.193L426.539 357.7L427 360.356L424.266 360.845C424.268 360.892 424.274 360.936 424.281 360.981C424.288 361.032 424.295 361.083 424.295 361.135C424.292 362.334 424.062 363.521 423.619 364.631L426.014 366.035L424.686 368.371L422.268 366.953C421.481 367.965 420.498 368.802 419.38 369.412L420.335 372.078L417.84 373L416.899 370.374C415.646 370.641 414.354 370.641 413.101 370.374L412.16 373L409.665 372.078L410.62 369.412C409.502 368.802 408.519 367.965 407.732 366.953L405.314 368.371L403.986 366.035L406.381 364.631C405.938 363.521 405.708 362.334 405.705 361.135C405.705 361.083 405.712 361.032 405.719 360.982C405.726 360.937 405.732 360.892 405.734 360.846L403 360.356L403.461 357.7L406.212 358.193C406.607 356.967 407.247 355.837 408.092 354.874L406.301 352.706L408.335 350.973L410.121 353.134C411.204 352.455 412.413 352.012 413.672 351.833V349H416.328V351.833C417.588 352.012 418.797 352.455 419.879 353.134L421.665 350.972L423.699 352.706L421.908 354.874C422.753 355.837 423.393 356.967 423.788 358.193ZM415.185 363C416.289 363 417.185 362.105 417.185 361C417.185 359.895 416.289 359 415.185 359C414.08 359 413.185 359.895 413.185 361C413.185 362.105 414.08 363 415.185 363Z" fill="white" fill-opacity="0.75"/>
<rect x="82" y="128" width="286" height="4" rx="2" fill="white" fill-opacity="0.3"/>
<rect x="82" y="380" width="286" height="4" rx="2" fill="white" fill-opacity="0.3"/>
<path d="M141.191 152.188C146.059 152.188 150.069 153.746 153.223 156.863C156.376 159.962 157.953 163.945 157.953 168.812V175.402C157.953 180.288 156.376 184.28 153.223 187.379C150.069 190.46 146.059 192 141.191 192H123.281V187.215L127.52 186.395V157.82L123.281 157V152.188H127.52H141.191ZM135.504 158.34V185.875H140.781C143.643 185.875 145.885 184.909 147.508 182.977C149.13 181.044 149.941 178.52 149.941 175.402V168.758C149.941 165.677 149.13 163.171 147.508 161.238C145.885 159.306 143.643 158.34 140.781 158.34H135.504ZM162.082 176.934C162.082 172.522 163.312 168.913 165.773 166.105C168.253 163.28 171.671 161.867 176.027 161.867C180.402 161.867 183.82 163.271 186.281 166.078C188.76 168.885 190 172.504 190 176.934V177.508C190 181.956 188.76 185.583 186.281 188.391C183.82 191.18 180.421 192.574 176.082 192.574C171.689 192.574 168.253 191.18 165.773 188.391C163.312 185.583 162.082 181.956 162.082 177.508V176.934ZM170.066 177.508C170.066 180.206 170.54 182.375 171.488 184.016C172.436 185.638 173.967 186.449 176.082 186.449C178.142 186.449 179.646 185.629 180.594 183.988C181.56 182.348 182.043 180.188 182.043 177.508V176.934C182.043 174.309 181.56 172.167 180.594 170.508C179.628 168.849 178.105 168.02 176.027 168.02C173.949 168.02 172.436 168.849 171.488 170.508C170.54 172.167 170.066 174.309 170.066 176.934V177.508ZM192.543 167.227V162.414H204.219L204.547 166.324C205.495 164.902 206.68 163.809 208.102 163.043C209.542 162.259 211.201 161.867 213.078 161.867C214.974 161.867 216.596 162.286 217.945 163.125C219.294 163.964 220.315 165.23 221.008 166.926C221.919 165.34 223.104 164.1 224.562 163.207C226.021 162.314 227.734 161.867 229.703 161.867C232.62 161.867 234.917 162.879 236.594 164.902C238.289 166.908 239.137 169.97 239.137 174.09V186.395L242.992 187.215V192H227.707V187.215L231.152 186.395V174.062C231.152 171.82 230.788 170.262 230.059 169.387C229.329 168.512 228.245 168.074 226.805 168.074C225.674 168.074 224.69 168.329 223.852 168.84C223.031 169.332 222.375 170.025 221.883 170.918C221.883 171.264 221.892 171.565 221.91 171.82C221.928 172.057 221.938 172.303 221.938 172.559V186.395L225.164 187.215V192H210.754V187.215L213.98 186.395V174.062C213.98 171.875 213.616 170.335 212.887 169.441C212.158 168.53 211.064 168.074 209.605 168.074C208.53 168.074 207.582 168.284 206.762 168.703C205.96 169.104 205.294 169.678 204.766 170.426V186.395L208.211 187.215V192H192.953V187.215L196.809 186.395V168.047L192.543 167.227ZM264.43 192C264.211 191.508 264.02 191.007 263.855 190.496C263.691 189.967 263.564 189.439 263.473 188.91C262.525 190.004 261.367 190.888 260 191.562C258.651 192.237 257.102 192.574 255.352 192.574C252.453 192.574 250.147 191.79 248.434 190.223C246.738 188.637 245.891 186.486 245.891 183.77C245.891 180.999 247.003 178.857 249.227 177.344C251.451 175.831 254.714 175.074 259.016 175.074H263.09V172.176C263.09 170.754 262.68 169.651 261.859 168.867C261.039 168.083 259.827 167.691 258.223 167.691C257.311 167.691 256.5 167.801 255.789 168.02C255.078 168.22 254.504 168.466 254.066 168.758L253.547 171.93H247.531L247.559 165.367C249.017 164.383 250.685 163.553 252.562 162.879C254.458 162.204 256.518 161.867 258.742 161.867C262.406 161.867 265.378 162.77 267.656 164.574C269.953 166.361 271.102 168.913 271.102 172.23V184.453C271.102 184.909 271.102 185.337 271.102 185.738C271.12 186.139 271.156 186.522 271.211 186.887L273.645 187.215V192H264.43ZM257.512 186.668C258.715 186.668 259.809 186.413 260.793 185.902C261.777 185.374 262.543 184.717 263.09 183.934V179.422H259.016C257.32 179.422 256.035 179.823 255.16 180.625C254.285 181.409 253.848 182.357 253.848 183.469C253.848 184.471 254.167 185.255 254.805 185.82C255.461 186.385 256.363 186.668 257.512 186.668ZM276.133 187.215L279.988 186.395V168.047L275.723 167.227V162.414H287.973V186.395L291.801 187.215V192H276.133V187.215ZM287.973 155.332H279.988V149.344H287.973V155.332ZM293.988 187.215L297.816 186.395V168.047L293.578 167.227V162.414H305.254L305.609 166.652C306.594 165.139 307.806 163.964 309.246 163.125C310.686 162.286 312.299 161.867 314.086 161.867C317.076 161.867 319.409 162.806 321.086 164.684C322.763 166.561 323.602 169.505 323.602 173.516V186.395L327.43 187.215V192H312.172V187.215L315.59 186.395V173.543C315.59 171.556 315.189 170.152 314.387 169.332C313.585 168.493 312.372 168.074 310.75 168.074C309.693 168.074 308.745 168.293 307.906 168.73C307.068 169.15 306.366 169.751 305.801 170.535V186.395L309.027 187.215V192H293.988V187.215ZM148.492 218.551L148.328 218.523L137.664 248H132.305L121.695 218.633L121.531 218.66L122.297 236.133V242.395L126.562 243.215V248H110.074V243.215L114.312 242.395V213.82L110.074 213V208.188H114.312H124.73L134.875 237.527H135.039L145.266 208.188H159.977V213L155.711 213.82V242.395L159.977 243.215V248H143.488V243.215L147.727 242.395V236.133L148.492 218.551ZM177.203 248.574C172.938 248.574 169.529 247.207 166.977 244.473C164.424 241.738 163.148 238.266 163.148 234.055V232.961C163.148 228.568 164.352 224.949 166.758 222.105C169.182 219.262 172.427 217.849 176.492 217.867C180.484 217.867 183.583 219.07 185.789 221.477C187.995 223.883 189.098 227.137 189.098 231.238V235.586H171.434L171.379 235.75C171.525 237.701 172.172 239.305 173.32 240.562C174.487 241.82 176.064 242.449 178.051 242.449C179.819 242.449 181.286 242.276 182.453 241.93C183.62 241.565 184.896 241 186.281 240.234L188.441 245.156C187.22 246.122 185.634 246.934 183.684 247.59C181.751 248.246 179.591 248.574 177.203 248.574ZM176.492 224.02C175.016 224.02 173.849 224.585 172.992 225.715C172.135 226.845 171.607 228.331 171.406 230.172L171.488 230.309H181.277V229.598C181.277 227.902 180.876 226.553 180.074 225.551C179.29 224.53 178.096 224.02 176.492 224.02ZM217.043 228.586H211.684L210.836 224.895C210.289 224.457 209.596 224.092 208.758 223.801C207.938 223.509 207.026 223.363 206.023 223.363C204.62 223.363 203.508 223.682 202.688 224.32C201.867 224.94 201.457 225.724 201.457 226.672C201.457 227.565 201.849 228.312 202.633 228.914C203.417 229.497 204.984 230.017 207.336 230.473C211 231.202 213.716 232.277 215.484 233.699C217.253 235.103 218.137 237.044 218.137 239.523C218.137 242.185 216.988 244.363 214.691 246.059C212.413 247.736 209.405 248.574 205.668 248.574C203.389 248.574 201.293 248.246 199.379 247.59C197.483 246.915 195.797 245.958 194.32 244.719L194.238 238.074H199.816L200.91 241.93C201.384 242.331 202.031 242.632 202.852 242.832C203.672 243.014 204.529 243.105 205.422 243.105C207.044 243.105 208.275 242.814 209.113 242.23C209.97 241.647 210.398 240.854 210.398 239.852C210.398 238.977 209.97 238.22 209.113 237.582C208.257 236.944 206.68 236.379 204.383 235.887C200.901 235.176 198.267 234.128 196.48 232.742C194.712 231.339 193.828 229.434 193.828 227.027C193.828 224.548 194.849 222.415 196.891 220.629C198.932 218.824 201.84 217.922 205.613 217.922C207.91 217.922 210.079 218.232 212.121 218.852C214.181 219.471 215.794 220.264 216.961 221.23L217.043 228.586ZM245.863 228.586H240.504L239.656 224.895C239.109 224.457 238.417 224.092 237.578 223.801C236.758 223.509 235.846 223.363 234.844 223.363C233.44 223.363 232.328 223.682 231.508 224.32C230.688 224.94 230.277 225.724 230.277 226.672C230.277 227.565 230.669 228.312 231.453 228.914C232.237 229.497 233.805 230.017 236.156 230.473C239.82 231.202 242.536 232.277 244.305 233.699C246.073 235.103 246.957 237.044 246.957 239.523C246.957 242.185 245.809 244.363 243.512 246.059C241.233 247.736 238.225 248.574 234.488 248.574C232.21 248.574 230.113 248.246 228.199 247.59C226.303 246.915 224.617 245.958 223.141 244.719L223.059 238.074H228.637L229.73 241.93C230.204 242.331 230.852 242.632 231.672 242.832C232.492 243.014 233.349 243.105 234.242 243.105C235.865 243.105 237.095 242.814 237.934 242.23C238.79 241.647 239.219 240.854 239.219 239.852C239.219 238.977 238.79 238.22 237.934 237.582C237.077 236.944 235.5 236.379 233.203 235.887C229.721 235.176 227.087 234.128 225.301 232.742C223.533 231.339 222.648 229.434 222.648 227.027C222.648 224.548 223.669 222.415 225.711 220.629C227.753 218.824 230.66 217.922 234.434 217.922C236.73 217.922 238.9 218.232 240.941 218.852C243.001 219.471 244.615 220.264 245.781 221.23L245.863 228.586ZM269.379 248C269.16 247.508 268.969 247.007 268.805 246.496C268.641 245.967 268.513 245.439 268.422 244.91C267.474 246.004 266.316 246.888 264.949 247.562C263.6 248.237 262.051 248.574 260.301 248.574C257.402 248.574 255.096 247.79 253.383 246.223C251.688 244.637 250.84 242.486 250.84 239.77C250.84 236.999 251.952 234.857 254.176 233.344C256.4 231.831 259.663 231.074 263.965 231.074H268.039V228.176C268.039 226.754 267.629 225.651 266.809 224.867C265.988 224.083 264.776 223.691 263.172 223.691C262.26 223.691 261.449 223.801 260.738 224.02C260.027 224.22 259.453 224.466 259.016 224.758L258.496 227.93H252.48L252.508 221.367C253.966 220.383 255.634 219.553 257.512 218.879C259.408 218.204 261.467 217.867 263.691 217.867C267.355 217.867 270.327 218.77 272.605 220.574C274.902 222.361 276.051 224.913 276.051 228.23V240.453C276.051 240.909 276.051 241.337 276.051 241.738C276.069 242.139 276.105 242.522 276.16 242.887L278.594 243.215V248H269.379ZM262.461 242.668C263.664 242.668 264.758 242.413 265.742 241.902C266.727 241.374 267.492 240.717 268.039 239.934V235.422H263.965C262.27 235.422 260.984 235.823 260.109 236.625C259.234 237.409 258.797 238.357 258.797 239.469C258.797 240.471 259.116 241.255 259.754 241.82C260.41 242.385 261.312 242.668 262.461 242.668ZM281.82 233.453C281.82 228.786 282.832 225.022 284.855 222.16C286.897 219.298 289.75 217.867 293.414 217.867C295.073 217.867 296.531 218.241 297.789 218.988C299.047 219.717 300.122 220.766 301.016 222.133L301.59 218.414H308.535V247.125C308.535 251.026 307.305 254.134 304.844 256.449C302.401 258.783 299.038 259.949 294.754 259.949C293.259 259.949 291.673 259.74 289.996 259.32C288.319 258.919 286.77 258.363 285.348 257.652L286.824 252.047C288.1 252.594 289.376 253.022 290.652 253.332C291.928 253.66 293.277 253.824 294.699 253.824C296.65 253.824 298.108 253.232 299.074 252.047C300.04 250.862 300.523 249.212 300.523 247.098V245.156C299.648 246.268 298.618 247.116 297.434 247.699C296.249 248.283 294.891 248.574 293.359 248.574C289.732 248.574 286.897 247.243 284.855 244.582C282.832 241.902 281.82 238.384 281.82 234.027V233.453ZM289.805 234.027C289.805 236.616 290.242 238.658 291.117 240.152C291.992 241.629 293.414 242.367 295.383 242.367C296.604 242.367 297.634 242.148 298.473 241.711C299.329 241.255 300.013 240.599 300.523 239.742V226.891C300.013 225.997 299.329 225.305 298.473 224.812C297.634 224.32 296.622 224.074 295.438 224.074C293.487 224.074 292.056 224.94 291.145 226.672C290.251 228.404 289.805 230.664 289.805 233.453V234.027ZM327.484 248.574C323.219 248.574 319.81 247.207 317.258 244.473C314.706 241.738 313.43 238.266 313.43 234.055V232.961C313.43 228.568 314.633 224.949 317.039 222.105C319.464 219.262 322.708 217.849 326.773 217.867C330.766 217.867 333.865 219.07 336.07 221.477C338.276 223.883 339.379 227.137 339.379 231.238V235.586H321.715L321.66 235.75C321.806 237.701 322.453 239.305 323.602 240.562C324.768 241.82 326.345 242.449 328.332 242.449C330.1 242.449 331.568 242.276 332.734 241.93C333.901 241.565 335.177 241 336.562 240.234L338.723 245.156C337.501 246.122 335.915 246.934 333.965 247.59C332.033 248.246 329.872 248.574 327.484 248.574ZM326.773 224.02C325.297 224.02 324.13 224.585 323.273 225.715C322.417 226.845 321.888 228.331 321.688 230.172L321.77 230.309H331.559V229.598C331.559 227.902 331.158 226.553 330.355 225.551C329.572 224.53 328.378 224.02 326.773 224.02ZM162.41 299.215L166.648 298.395V269.82L162.41 269V264.188H194.102V275.098H187.977L187.621 270.34H174.633V281.305H188.578V287.457H174.633V298.395L178.898 299.215V304H162.41V299.215ZM196.371 266.156V261.344H208.621V298.395L212.477 299.215V304H196.781V299.215L200.637 298.395V266.977L196.371 266.156ZM214.555 288.934C214.555 284.522 215.785 280.913 218.246 278.105C220.725 275.28 224.143 273.867 228.5 273.867C232.875 273.867 236.293 275.271 238.754 278.078C241.233 280.885 242.473 284.504 242.473 288.934V289.508C242.473 293.956 241.233 297.583 238.754 300.391C236.293 303.18 232.893 304.574 228.555 304.574C224.161 304.574 220.725 303.18 218.246 300.391C215.785 297.583 214.555 293.956 214.555 289.508V288.934ZM222.539 289.508C222.539 292.206 223.013 294.375 223.961 296.016C224.909 297.638 226.44 298.449 228.555 298.449C230.615 298.449 232.118 297.629 233.066 295.988C234.033 294.348 234.516 292.188 234.516 289.508V288.934C234.516 286.309 234.033 284.167 233.066 282.508C232.1 280.849 230.578 280.02 228.5 280.02C226.422 280.02 224.909 280.849 223.961 282.508C223.013 284.167 222.539 286.309 222.539 288.934V289.508ZM288.109 279.227L285.129 279.609L278.949 304H272.277L266.781 286.391H266.617L261.121 304H254.477L248.27 279.609L245.289 279.227V274.414H258.688V279.227L255.543 279.828L258.332 293.363H258.496L264.02 274.414H269.379L274.957 293.418H275.121L277.883 279.855L274.711 279.227V274.414H288.109V279.227ZM146.605 330.551L146.441 330.523L135.777 360H130.418L119.809 330.633L119.645 330.66L120.41 348.133V354.395L124.676 355.215V360H108.188V355.215L112.426 354.395V325.82L108.188 325V320.188H112.426H122.844L132.988 349.527H133.152L143.379 320.188H158.09V325L153.824 325.82V354.395L158.09 355.215V360H141.602V355.215L145.84 354.395V348.133L146.605 330.551ZM179.992 360C179.773 359.508 179.582 359.007 179.418 358.496C179.254 357.967 179.126 357.439 179.035 356.91C178.087 358.004 176.93 358.888 175.562 359.562C174.214 360.237 172.664 360.574 170.914 360.574C168.016 360.574 165.71 359.79 163.996 358.223C162.301 356.637 161.453 354.486 161.453 351.77C161.453 348.999 162.565 346.857 164.789 345.344C167.013 343.831 170.276 343.074 174.578 343.074H178.652V340.176C178.652 338.754 178.242 337.651 177.422 336.867C176.602 336.083 175.389 335.691 173.785 335.691C172.874 335.691 172.062 335.801 171.352 336.02C170.641 336.22 170.066 336.466 169.629 336.758L169.109 339.93H163.094L163.121 333.367C164.579 332.383 166.247 331.553 168.125 330.879C170.021 330.204 172.081 329.867 174.305 329.867C177.969 329.867 180.94 330.77 183.219 332.574C185.516 334.361 186.664 336.913 186.664 340.23V352.453C186.664 352.909 186.664 353.337 186.664 353.738C186.682 354.139 186.719 354.522 186.773 354.887L189.207 355.215V360H179.992ZM173.074 354.668C174.277 354.668 175.371 354.413 176.355 353.902C177.34 353.374 178.105 352.717 178.652 351.934V347.422H174.578C172.883 347.422 171.598 347.823 170.723 348.625C169.848 349.409 169.41 350.357 169.41 351.469C169.41 352.471 169.729 353.255 170.367 353.82C171.023 354.385 171.926 354.668 173.074 354.668ZM191.34 335.227V330.414H202.934L203.316 333.859C204.191 332.583 205.24 331.599 206.461 330.906C207.682 330.214 209.104 329.867 210.727 329.867C214.391 329.867 217.234 331.298 219.258 334.16C221.281 337.022 222.293 340.786 222.293 345.453V346.027C222.293 350.402 221.281 353.921 219.258 356.582C217.234 359.243 214.409 360.574 210.781 360.574C209.232 360.574 207.855 360.292 206.652 359.727C205.449 359.143 204.419 358.296 203.562 357.184V365.742L207.418 366.562V371.375H191.75V366.562L195.605 365.742V336.047L191.34 335.227ZM214.309 345.453C214.309 342.664 213.844 340.404 212.914 338.672C211.984 336.94 210.562 336.074 208.648 336.074C207.445 336.074 206.415 336.32 205.559 336.812C204.72 337.305 204.055 338.007 203.562 338.918V351.879C204.055 352.717 204.72 353.355 205.559 353.793C206.415 354.23 207.464 354.449 208.703 354.449C210.635 354.449 212.048 353.693 212.941 352.18C213.853 350.667 214.309 348.616 214.309 346.027V345.453ZM225.246 335.227V330.414H236.84L237.223 333.859C238.098 332.583 239.146 331.599 240.367 330.906C241.589 330.214 243.01 329.867 244.633 329.867C248.297 329.867 251.141 331.298 253.164 334.16C255.188 337.022 256.199 340.786 256.199 345.453V346.027C256.199 350.402 255.188 353.921 253.164 356.582C251.141 359.243 248.315 360.574 244.688 360.574C243.138 360.574 241.762 360.292 240.559 359.727C239.355 359.143 238.326 358.296 237.469 357.184V365.742L241.324 366.562V371.375H225.656V366.562L229.512 365.742V336.047L225.246 335.227ZM248.215 345.453C248.215 342.664 247.75 340.404 246.82 338.672C245.891 336.94 244.469 336.074 242.555 336.074C241.352 336.074 240.322 336.32 239.465 336.812C238.626 337.305 237.961 338.007 237.469 338.918V351.879C237.961 352.717 238.626 353.355 239.465 353.793C240.322 354.23 241.37 354.449 242.609 354.449C244.542 354.449 245.954 353.693 246.848 352.18C247.759 350.667 248.215 348.616 248.215 346.027V345.453ZM259.508 355.215L263.363 354.395V336.047L259.098 335.227V330.414H271.348V354.395L275.176 355.215V360H259.508V355.215ZM271.348 323.332H263.363V317.344H271.348V323.332ZM277.363 355.215L281.191 354.395V336.047L276.953 335.227V330.414H288.629L288.984 334.652C289.969 333.139 291.181 331.964 292.621 331.125C294.061 330.286 295.674 329.867 297.461 329.867C300.451 329.867 302.784 330.806 304.461 332.684C306.138 334.561 306.977 337.505 306.977 341.516V354.395L310.805 355.215V360H295.547V355.215L298.965 354.395V341.543C298.965 339.556 298.564 338.152 297.762 337.332C296.96 336.493 295.747 336.074 294.125 336.074C293.068 336.074 292.12 336.293 291.281 336.73C290.443 337.15 289.741 337.751 289.176 338.535V354.395L292.402 355.215V360H277.363V355.215ZM313.566 345.453C313.566 340.786 314.578 337.022 316.602 334.16C318.643 331.298 321.496 329.867 325.16 329.867C326.819 329.867 328.277 330.241 329.535 330.988C330.793 331.717 331.868 332.766 332.762 334.133L333.336 330.414H340.281V359.125C340.281 363.026 339.051 366.134 336.59 368.449C334.147 370.783 330.784 371.949 326.5 371.949C325.005 371.949 323.419 371.74 321.742 371.32C320.065 370.919 318.516 370.363 317.094 369.652L318.57 364.047C319.846 364.594 321.122 365.022 322.398 365.332C323.674 365.66 325.023 365.824 326.445 365.824C328.396 365.824 329.854 365.232 330.82 364.047C331.786 362.862 332.27 361.212 332.27 359.098V357.156C331.395 358.268 330.365 359.116 329.18 359.699C327.995 360.283 326.637 360.574 325.105 360.574C321.478 360.574 318.643 359.243 316.602 356.582C314.578 353.902 313.566 350.384 313.566 346.027V345.453ZM321.551 346.027C321.551 348.616 321.988 350.658 322.863 352.152C323.738 353.629 325.16 354.367 327.129 354.367C328.35 354.367 329.38 354.148 330.219 353.711C331.076 353.255 331.759 352.599 332.27 351.742V338.891C331.759 337.997 331.076 337.305 330.219 336.812C329.38 336.32 328.368 336.074 327.184 336.074C325.233 336.074 323.802 336.94 322.891 338.672C321.997 340.404 321.551 342.664 321.551 345.453V346.027Z" fill="white"/>
<path d="M149.688 107V103.797L152.047 103.297V87.9688L149.688 87.4688V84.25H152.047H160.75C162.562 84.25 164.135 84.5677 165.469 85.2031C166.802 85.8385 167.828 86.724 168.547 87.8594C169.276 88.9844 169.641 90.2969 169.641 91.7969C169.641 93.2969 169.276 94.6094 168.547 95.7344C167.828 96.8594 166.802 97.7344 165.469 98.3594C164.135 98.9844 162.562 99.2969 160.75 99.2969H157.531V103.297L159.891 103.797V107H149.688ZM157.531 95.0938H160.75C161.865 95.0938 162.708 94.7917 163.281 94.1875C163.865 93.5729 164.156 92.7865 164.156 91.8281C164.156 90.8385 163.865 90.026 163.281 89.3906C162.708 88.7552 161.865 88.4375 160.75 88.4375H157.531V95.0938ZM170.656 107V103.797L173.016 103.297V87.9688L170.656 87.4688V84.2344H181.844C183.646 84.2344 185.208 84.5208 186.531 85.0938C187.854 85.6667 188.875 86.4844 189.594 87.5469C190.312 88.599 190.672 89.849 190.672 91.2969C190.672 92.6302 190.307 93.8698 189.578 95.0156C188.859 96.1615 187.87 97.0833 186.609 97.7812C185.349 98.4688 183.911 98.8073 182.297 98.7969L178.5 98.75V103.297L180.859 103.797V107H170.656ZM185.062 107L182 98.125L186.766 96.5L189.531 103.266L191.688 103.812V107H185.062ZM178.5 94.5469H181.906C182.969 94.5469 183.786 94.3021 184.359 93.8125C184.932 93.3125 185.219 92.5938 185.219 91.6562C185.219 90.6875 184.927 89.9115 184.344 89.3281C183.76 88.7344 182.927 88.4375 181.844 88.4375H178.5V94.5469ZM204.016 107.328C202.443 107.328 200.995 107.042 199.672 106.469C198.359 105.885 197.219 105.073 196.25 104.031C195.281 102.99 194.531 101.771 194 100.375C193.479 98.9688 193.219 97.4427 193.219 95.7969V95.4375C193.219 93.8021 193.479 92.2865 194 90.8906C194.531 89.4948 195.276 88.276 196.234 87.2344C197.203 86.1927 198.344 85.3802 199.656 84.7969C200.969 84.2135 202.411 83.9219 203.984 83.9219C205.526 83.9219 206.958 84.2135 208.281 84.7969C209.604 85.3802 210.76 86.1927 211.75 87.2344C212.75 88.276 213.526 89.4948 214.078 90.8906C214.63 92.2865 214.906 93.8021 214.906 95.4375V95.7969C214.906 97.4427 214.63 98.9688 214.078 100.375C213.526 101.771 212.755 102.99 211.766 104.031C210.776 105.073 209.62 105.885 208.297 106.469C206.974 107.042 205.547 107.328 204.016 107.328ZM204.016 103.172C205.161 103.172 206.141 102.865 206.953 102.25C207.766 101.635 208.385 100.776 208.812 99.6719C209.24 98.5677 209.453 97.276 209.453 95.7969V95.4062C209.453 93.9583 209.234 92.6875 208.797 91.5938C208.37 90.4896 207.75 89.6302 206.938 89.0156C206.125 88.401 205.141 88.0938 203.984 88.0938C202.766 88.0938 201.766 88.3958 200.984 89C200.214 89.6042 199.641 90.4531 199.266 91.5469C198.891 92.6406 198.703 93.9271 198.703 95.4062V95.7969C198.703 97.276 198.891 98.5729 199.266 99.6875C199.651 100.792 200.234 101.651 201.016 102.266C201.807 102.87 202.807 103.172 204.016 103.172ZM227.578 107.328C225.411 107.328 223.479 106.891 221.781 106.016C220.083 105.141 218.75 103.875 217.781 102.219C216.812 100.552 216.328 98.5312 216.328 96.1562V95.1094C216.328 92.9219 216.771 90.9896 217.656 89.3125C218.552 87.625 219.823 86.3073 221.469 85.3594C223.125 84.401 225.089 83.9219 227.359 83.9219C228.943 83.9219 230.448 84.1354 231.875 84.5625C233.312 84.9792 234.646 85.6979 235.875 86.7188V92.5781H231.891L231.344 89.2188C230.99 88.9792 230.615 88.7708 230.219 88.5938C229.833 88.4167 229.417 88.2812 228.969 88.1875C228.531 88.0938 228.057 88.0469 227.547 88.0469C226.391 88.0469 225.38 88.3229 224.516 88.875C223.651 89.4271 222.979 90.2292 222.5 91.2812C222.031 92.3229 221.797 93.5885 221.797 95.0781V96.1562C221.797 97.5521 222.042 98.7812 222.531 99.8438C223.021 100.896 223.703 101.719 224.578 102.312C225.464 102.906 226.484 103.203 227.641 103.203C228.255 103.203 228.88 103.141 229.516 103.016C230.151 102.88 230.766 102.703 231.359 102.484L231.906 99.2656H235.906V105C235 105.625 233.844 106.172 232.438 106.641C231.031 107.099 229.411 107.328 227.578 107.328ZM237.344 107V103.797L239.703 103.297V87.9688L237.344 87.4688V84.25H255.516V90.8125H251.375L251.25 88.4688H245.188V93.1406H252.453V97.3438H245.188V102.766H251.547L251.672 100.312H255.766V107H237.344ZM267.766 107.328C265.911 107.328 264.266 107.151 262.828 106.797C261.391 106.443 259.958 105.776 258.531 104.797V98.8906H262.766L263.234 101.922C263.568 102.297 264.156 102.615 265 102.875C265.844 103.125 266.766 103.25 267.766 103.25C268.464 103.25 269.047 103.167 269.516 103C269.984 102.823 270.339 102.568 270.578 102.234C270.818 101.901 270.938 101.5 270.938 101.031C270.938 100.583 270.823 100.182 270.594 99.8281C270.375 99.474 270.01 99.1406 269.5 98.8281C268.99 98.5052 268.302 98.1771 267.438 97.8438C265.49 97.2188 263.891 96.5833 262.641 95.9375C261.391 95.2917 260.458 94.526 259.844 93.6406C259.24 92.7552 258.938 91.6562 258.938 90.3438C258.938 89.0833 259.297 87.9844 260.016 87.0469C260.734 86.099 261.724 85.3542 262.984 84.8125C264.245 84.2708 265.688 83.9844 267.312 83.9531C269.167 83.9115 270.807 84.099 272.234 84.5156C273.661 84.9219 274.922 85.5417 276.016 86.375V91.8594H271.953L271.312 88.8125C270.958 88.6354 270.453 88.474 269.797 88.3281C269.141 88.1823 268.443 88.1094 267.703 88.1094C267.068 88.1094 266.5 88.1927 266 88.3594C265.51 88.526 265.12 88.776 264.828 89.1094C264.547 89.4427 264.406 89.8594 264.406 90.3594C264.406 90.7656 264.526 91.1302 264.766 91.4531C265.005 91.7656 265.427 92.0833 266.031 92.4062C266.635 92.7188 267.479 93.0833 268.562 93.5C271.146 94.2604 273.104 95.2135 274.438 96.3594C275.781 97.4948 276.453 99.0417 276.453 101C276.453 102.344 276.089 103.49 275.359 104.438C274.63 105.375 273.615 106.094 272.312 106.594C271.01 107.083 269.495 107.328 267.766 107.328ZM287.641 107.328C285.786 107.328 284.141 107.151 282.703 106.797C281.266 106.443 279.833 105.776 278.406 104.797V98.8906H282.641L283.109 101.922C283.443 102.297 284.031 102.615 284.875 102.875C285.719 103.125 286.641 103.25 287.641 103.25C288.339 103.25 288.922 103.167 289.391 103C289.859 102.823 290.214 102.568 290.453 102.234C290.693 101.901 290.812 101.5 290.812 101.031C290.812 100.583 290.698 100.182 290.469 99.8281C290.25 99.474 289.885 99.1406 289.375 98.8281C288.865 98.5052 288.177 98.1771 287.312 97.8438C285.365 97.2188 283.766 96.5833 282.516 95.9375C281.266 95.2917 280.333 94.526 279.719 93.6406C279.115 92.7552 278.812 91.6562 278.812 90.3438C278.812 89.0833 279.172 87.9844 279.891 87.0469C280.609 86.099 281.599 85.3542 282.859 84.8125C284.12 84.2708 285.562 83.9844 287.188 83.9531C289.042 83.9115 290.682 84.099 292.109 84.5156C293.536 84.9219 294.797 85.5417 295.891 86.375V91.8594H291.828L291.188 88.8125C290.833 88.6354 290.328 88.474 289.672 88.3281C289.016 88.1823 288.318 88.1094 287.578 88.1094C286.943 88.1094 286.375 88.1927 285.875 88.3594C285.385 88.526 284.995 88.776 284.703 89.1094C284.422 89.4427 284.281 89.8594 284.281 90.3594C284.281 90.7656 284.401 91.1302 284.641 91.4531C284.88 91.7656 285.302 92.0833 285.906 92.4062C286.51 92.7188 287.354 93.0833 288.438 93.5C291.021 94.2604 292.979 95.2135 294.312 96.3594C295.656 97.4948 296.328 99.0417 296.328 101C296.328 102.344 295.964 103.49 295.234 104.438C294.505 105.375 293.49 106.094 292.188 106.594C290.885 107.083 289.37 107.328 287.641 107.328Z" fill="black" fill-opacity="0.3"/>
</g>
<defs>
<clipPath id="clip0_5_268">
<rect width="450" height="512" fill="white"/>
</clipPath>
</defs>
</svg>
