<svg width="450" height="512" viewBox="0 0 450 512" fill="none" xmlns="http://www.w3.org/2000/svg">
<path d="M212.66 3.35209C220.296 -1.11736 229.704 -1.11737 237.34 3.35209L434.66 118.842C442.296 123.311 447 131.571 447 140.51V371.49C447 380.429 442.296 388.689 434.66 393.158L237.34 508.648C229.704 513.117 220.296 513.117 212.66 508.648L15.3404 393.158C7.70413 388.689 3 380.429 3 371.49V140.51C3 131.571 7.70413 123.311 15.3404 118.842L212.66 3.35209Z" fill="white"/>
<path d="M214.68 6.80426C221.068 3.06525 228.932 3.06525 235.32 6.80426L432.639 122.294C439.034 126.037 443 132.974 443 140.51V371.49C443 379.026 439.034 385.963 432.639 389.706L235.32 505.196C228.932 508.935 221.068 508.935 214.68 505.196L17.3609 389.706C10.9662 385.963 7 379.026 7 371.49V140.51C7 132.974 10.9662 126.037 17.3609 122.294L214.68 6.80426Z" stroke="black" stroke-opacity="0.5" stroke-width="8"/>
<rect x="82" y="128" width="286" height="4" rx="2" fill="black" fill-opacity="0.3"/>
<rect x="82" y="380" width="286" height="4" rx="2" fill="black" fill-opacity="0.3"/>
<path d="M141.191 208.188C146.059 208.188 150.069 209.746 153.223 212.863C156.376 215.962 157.953 219.945 157.953 224.812V231.402C157.953 236.288 156.376 240.28 153.223 243.379C150.069 246.46 146.059 248 141.191 248H123.281V243.215L127.52 242.395V213.82L123.281 213V208.188H127.52H141.191ZM135.504 214.34V241.875H140.781C143.643 241.875 145.885 240.909 147.508 238.977C149.13 237.044 149.941 234.52 149.941 231.402V224.758C149.941 221.677 149.13 219.171 147.508 217.238C145.885 215.306 143.643 214.34 140.781 214.34H135.504ZM162.082 232.934C162.082 228.522 163.312 224.913 165.773 222.105C168.253 219.28 171.671 217.867 176.027 217.867C180.402 217.867 183.82 219.271 186.281 222.078C188.76 224.885 190 228.504 190 232.934V233.508C190 237.956 188.76 241.583 186.281 244.391C183.82 247.18 180.421 248.574 176.082 248.574C171.689 248.574 168.253 247.18 165.773 244.391C163.312 241.583 162.082 237.956 162.082 233.508V232.934ZM170.066 233.508C170.066 236.206 170.54 238.375 171.488 240.016C172.436 241.638 173.967 242.449 176.082 242.449C178.142 242.449 179.646 241.629 180.594 239.988C181.56 238.348 182.043 236.188 182.043 233.508V232.934C182.043 230.309 181.56 228.167 180.594 226.508C179.628 224.849 178.105 224.02 176.027 224.02C173.949 224.02 172.436 224.849 171.488 226.508C170.54 228.167 170.066 230.309 170.066 232.934V233.508ZM192.543 223.227V218.414H204.219L204.547 222.324C205.495 220.902 206.68 219.809 208.102 219.043C209.542 218.259 211.201 217.867 213.078 217.867C214.974 217.867 216.596 218.286 217.945 219.125C219.294 219.964 220.315 221.23 221.008 222.926C221.919 221.34 223.104 220.1 224.562 219.207C226.021 218.314 227.734 217.867 229.703 217.867C232.62 217.867 234.917 218.879 236.594 220.902C238.289 222.908 239.137 225.97 239.137 230.09V242.395L242.992 243.215V248H227.707V243.215L231.152 242.395V230.062C231.152 227.82 230.788 226.262 230.059 225.387C229.329 224.512 228.245 224.074 226.805 224.074C225.674 224.074 224.69 224.329 223.852 224.84C223.031 225.332 222.375 226.025 221.883 226.918C221.883 227.264 221.892 227.565 221.91 227.82C221.928 228.057 221.938 228.303 221.938 228.559V242.395L225.164 243.215V248H210.754V243.215L213.98 242.395V230.062C213.98 227.875 213.616 226.335 212.887 225.441C212.158 224.53 211.064 224.074 209.605 224.074C208.53 224.074 207.582 224.284 206.762 224.703C205.96 225.104 205.294 225.678 204.766 226.426V242.395L208.211 243.215V248H192.953V243.215L196.809 242.395V224.047L192.543 223.227ZM264.43 248C264.211 247.508 264.02 247.007 263.855 246.496C263.691 245.967 263.564 245.439 263.473 244.91C262.525 246.004 261.367 246.888 260 247.562C258.651 248.237 257.102 248.574 255.352 248.574C252.453 248.574 250.147 247.79 248.434 246.223C246.738 244.637 245.891 242.486 245.891 239.77C245.891 236.999 247.003 234.857 249.227 233.344C251.451 231.831 254.714 231.074 259.016 231.074H263.09V228.176C263.09 226.754 262.68 225.651 261.859 224.867C261.039 224.083 259.827 223.691 258.223 223.691C257.311 223.691 256.5 223.801 255.789 224.02C255.078 224.22 254.504 224.466 254.066 224.758L253.547 227.93H247.531L247.559 221.367C249.017 220.383 250.685 219.553 252.562 218.879C254.458 218.204 256.518 217.867 258.742 217.867C262.406 217.867 265.378 218.77 267.656 220.574C269.953 222.361 271.102 224.913 271.102 228.23V240.453C271.102 240.909 271.102 241.337 271.102 241.738C271.12 242.139 271.156 242.522 271.211 242.887L273.645 243.215V248H264.43ZM257.512 242.668C258.715 242.668 259.809 242.413 260.793 241.902C261.777 241.374 262.543 240.717 263.09 239.934V235.422H259.016C257.32 235.422 256.035 235.823 255.16 236.625C254.285 237.409 253.848 238.357 253.848 239.469C253.848 240.471 254.167 241.255 254.805 241.82C255.461 242.385 256.363 242.668 257.512 242.668ZM276.133 243.215L279.988 242.395V224.047L275.723 223.227V218.414H287.973V242.395L291.801 243.215V248H276.133V243.215ZM287.973 211.332H279.988V205.344H287.973V211.332ZM293.988 243.215L297.816 242.395V224.047L293.578 223.227V218.414H305.254L305.609 222.652C306.594 221.139 307.806 219.964 309.246 219.125C310.686 218.286 312.299 217.867 314.086 217.867C317.076 217.867 319.409 218.806 321.086 220.684C322.763 222.561 323.602 225.505 323.602 229.516V242.395L327.43 243.215V248H312.172V243.215L315.59 242.395V229.543C315.59 227.556 315.189 226.152 314.387 225.332C313.585 224.493 312.372 224.074 310.75 224.074C309.693 224.074 308.745 224.293 307.906 224.73C307.068 225.15 306.366 225.751 305.801 226.535V242.395L309.027 243.215V248H293.988V243.215ZM185.461 276.902H179.473L178.434 271.434C177.741 270.996 176.729 270.613 175.398 270.285C174.068 269.957 172.655 269.793 171.16 269.793C168.973 269.793 167.277 270.258 166.074 271.188C164.889 272.099 164.297 273.284 164.297 274.742C164.297 276.091 164.917 277.203 166.156 278.078C167.414 278.935 169.574 279.846 172.637 280.812C177.03 282.034 180.357 283.647 182.617 285.652C184.896 287.658 186.035 290.292 186.035 293.555C186.035 296.964 184.686 299.652 181.988 301.621C179.29 303.59 175.736 304.574 171.324 304.574C168.171 304.574 165.318 304.073 162.766 303.07C160.232 302.068 158.117 300.682 156.422 298.914V290.602H162.602L163.449 296.262C164.251 296.918 165.336 297.465 166.703 297.902C168.089 298.322 169.629 298.531 171.324 298.531C173.512 298.531 175.171 298.085 176.301 297.191C177.449 296.298 178.023 295.104 178.023 293.609C178.023 292.078 177.477 290.848 176.383 289.918C175.307 288.988 173.411 288.113 170.695 287.293C165.974 285.926 162.401 284.303 159.977 282.426C157.552 280.548 156.34 277.978 156.34 274.715C156.34 271.488 157.707 268.854 160.441 266.812C163.176 264.753 166.612 263.695 170.75 263.641C173.812 263.641 176.602 264.105 179.117 265.035C181.633 265.965 183.747 267.204 185.461 268.754V276.902ZM201.156 267.168V274.414H206.352V280.02H201.156V295.086C201.156 296.234 201.393 297.055 201.867 297.547C202.341 298.039 202.979 298.285 203.781 298.285C204.328 298.285 204.802 298.267 205.203 298.23C205.622 298.176 206.087 298.094 206.598 297.984L207.281 303.754C206.388 304.027 205.504 304.228 204.629 304.355C203.754 304.501 202.806 304.574 201.785 304.574C199.033 304.574 196.909 303.818 195.414 302.305C193.938 300.792 193.199 298.395 193.199 295.113V280.02H188.852V274.414H193.199V267.168H201.156ZM209.441 288.934C209.441 284.522 210.672 280.913 213.133 278.105C215.612 275.28 219.03 273.867 223.387 273.867C227.762 273.867 231.18 275.271 233.641 278.078C236.12 280.885 237.359 284.504 237.359 288.934V289.508C237.359 293.956 236.12 297.583 233.641 300.391C231.18 303.18 227.78 304.574 223.441 304.574C219.048 304.574 215.612 303.18 213.133 300.391C210.672 297.583 209.441 293.956 209.441 289.508V288.934ZM217.426 289.508C217.426 292.206 217.9 294.375 218.848 296.016C219.796 297.638 221.327 298.449 223.441 298.449C225.501 298.449 227.005 297.629 227.953 295.988C228.919 294.348 229.402 292.188 229.402 289.508V288.934C229.402 286.309 228.919 284.167 227.953 282.508C226.987 280.849 225.465 280.02 223.387 280.02C221.309 280.02 219.796 280.849 218.848 282.508C217.9 284.167 217.426 286.309 217.426 288.934V289.508ZM241.434 299.215L245.262 298.395V280.047L241.023 279.227V274.414H252.699L253.055 278.734C253.747 277.203 254.641 276.009 255.734 275.152C256.828 274.296 258.095 273.867 259.535 273.867C259.954 273.867 260.392 273.904 260.848 273.977C261.322 274.031 261.714 274.104 262.023 274.195L261.176 281.469L257.895 281.387C256.728 281.387 255.762 281.615 254.996 282.07C254.23 282.526 253.647 283.173 253.246 284.012V298.395L257.074 299.215V304H241.434V299.215ZM295.52 279.227L292.758 279.637L281.875 308.43C281.018 310.562 279.87 312.349 278.43 313.789C277.008 315.229 274.857 315.949 271.977 315.949C271.302 315.949 270.664 315.895 270.062 315.785C269.479 315.676 268.786 315.521 267.984 315.32L268.914 309.496C269.169 309.533 269.434 309.569 269.707 309.605C269.98 309.642 270.217 309.66 270.418 309.66C271.749 309.66 272.77 309.332 273.48 308.676C274.191 308.038 274.738 307.236 275.121 306.27L276.023 304.027L266.645 279.664L263.883 279.227V274.414H278.375V279.227L275.066 279.773L279.113 291.586L279.523 293.719L279.688 293.746L284.363 279.773L281.027 279.227V274.414H295.52V279.227Z" fill="black"/>
<path d="M145.844 97V93.7969L147.438 93.5625L154.219 74.25H160.156L166.953 93.5625L168.547 93.7969V97H160.047V93.7969L161.531 93.5156L160.844 91.0469H153.531L152.875 93.5156L154.359 93.7969V97H145.844ZM154.688 87.2031H159.672L157.453 80.3125L157.203 79.5156H157.109L156.844 80.3906L154.688 87.2031ZM169.547 97V93.7969L171.906 93.2969V77.9688L169.547 77.4688V74.2344H180.734C182.536 74.2344 184.099 74.5208 185.422 75.0938C186.745 75.6667 187.766 76.4844 188.484 77.5469C189.203 78.599 189.562 79.849 189.562 81.2969C189.562 82.6302 189.198 83.8698 188.469 85.0156C187.75 86.1615 186.76 87.0833 185.5 87.7812C184.24 88.4688 182.802 88.8073 181.188 88.7969L177.391 88.75V93.2969L179.75 93.7969V97H169.547ZM183.953 97L180.891 88.125L185.656 86.5L188.422 93.2656L190.578 93.8125V97H183.953ZM177.391 84.5469H180.797C181.859 84.5469 182.677 84.3021 183.25 83.8125C183.823 83.3125 184.109 82.5938 184.109 81.6562C184.109 80.6875 183.818 79.9115 183.234 79.3281C182.651 78.7344 181.818 78.4375 180.734 78.4375H177.391V84.5469ZM196.312 97V93.7969L198.688 93.2969V78.5H195.172L195.031 80.9531H190.891V74.25H212.031V80.9531H207.844L207.719 78.5H204.172V93.2969L206.547 93.7969V97H196.312ZM212.859 97V93.7969L215.219 93.2969V77.9688L212.859 77.4688V74.25H223.047V77.4688L220.688 77.9688V93.2969L223.047 93.7969V97H212.859ZM224.297 97V93.7969L226.656 93.2969V77.9688L224.297 77.4688V74.25H243.031V80.9531H238.891L238.781 78.4688H232.141V83.7344H239.875V87.9219H232.141V93.2969L234.5 93.7969V97H224.297ZM240.25 97V93.7969L241.844 93.5625L248.625 74.25H254.562L261.359 93.5625L262.953 93.7969V97H254.453V93.7969L255.938 93.5156L255.25 91.0469H247.938L247.281 93.5156L248.766 93.7969V97H240.25ZM249.094 87.2031H254.078L251.859 80.3125L251.609 79.5156H251.516L251.25 80.3906L249.094 87.2031ZM274.281 97.3281C272.115 97.3281 270.182 96.8906 268.484 96.0156C266.786 95.1406 265.453 93.875 264.484 92.2188C263.516 90.5521 263.031 88.5312 263.031 86.1562V85.1094C263.031 82.9219 263.474 80.9896 264.359 79.3125C265.255 77.625 266.526 76.3073 268.172 75.3594C269.828 74.401 271.792 73.9219 274.062 73.9219C275.646 73.9219 277.151 74.1354 278.578 74.5625C280.016 74.9792 281.349 75.6979 282.578 76.7188V82.5781H278.594L278.047 79.2188C277.693 78.9792 277.318 78.7708 276.922 78.5938C276.536 78.4167 276.12 78.2812 275.672 78.1875C275.234 78.0938 274.76 78.0469 274.25 78.0469C273.094 78.0469 272.083 78.3229 271.219 78.875C270.354 79.4271 269.682 80.2292 269.203 81.2812C268.734 82.3229 268.5 83.5885 268.5 85.0781V86.1562C268.5 87.5521 268.745 88.7812 269.234 89.8438C269.724 90.8958 270.406 91.7188 271.281 92.3125C272.167 92.9062 273.188 93.2031 274.344 93.2031C274.958 93.2031 275.583 93.1406 276.219 93.0156C276.854 92.8802 277.469 92.7031 278.062 92.4844L278.609 89.2656H282.609V95C281.703 95.625 280.547 96.1719 279.141 96.6406C277.734 97.099 276.115 97.3281 274.281 97.3281ZM288.594 97V93.7969L290.969 93.2969V78.5H287.453L287.312 80.9531H283.172V74.25H304.312V80.9531H300.125L300 78.5H296.453V93.2969L298.828 93.7969V97H288.594Z" fill="black" fill-opacity="0.3"/>
<path d="M180.969 438.328C179.115 438.328 177.469 438.151 176.031 437.797C174.594 437.443 173.161 436.776 171.734 435.797V429.891H175.969L176.438 432.922C176.771 433.297 177.359 433.615 178.203 433.875C179.047 434.125 179.969 434.25 180.969 434.25C181.667 434.25 182.25 434.167 182.719 434C183.188 433.823 183.542 433.568 183.781 433.234C184.021 432.901 184.141 432.5 184.141 432.031C184.141 431.583 184.026 431.182 183.797 430.828C183.578 430.474 183.214 430.141 182.703 429.828C182.193 429.505 181.505 429.177 180.641 428.844C178.693 428.219 177.094 427.583 175.844 426.938C174.594 426.292 173.661 425.526 173.047 424.641C172.443 423.755 172.141 422.656 172.141 421.344C172.141 420.083 172.5 418.984 173.219 418.047C173.938 417.099 174.927 416.354 176.188 415.812C177.448 415.271 178.891 414.984 180.516 414.953C182.37 414.911 184.01 415.099 185.438 415.516C186.865 415.922 188.125 416.542 189.219 417.375V422.859H185.156L184.516 419.812C184.161 419.635 183.656 419.474 183 419.328C182.344 419.182 181.646 419.109 180.906 419.109C180.271 419.109 179.703 419.193 179.203 419.359C178.714 419.526 178.323 419.776 178.031 420.109C177.75 420.443 177.609 420.859 177.609 421.359C177.609 421.766 177.729 422.13 177.969 422.453C178.208 422.766 178.63 423.083 179.234 423.406C179.839 423.719 180.682 424.083 181.766 424.5C184.349 425.26 186.307 426.214 187.641 427.359C188.984 428.495 189.656 430.042 189.656 432C189.656 433.344 189.292 434.49 188.562 435.438C187.833 436.375 186.818 437.094 185.516 437.594C184.214 438.083 182.698 438.328 180.969 438.328ZM195.906 438V434.797L198.281 434.297V419.5H194.766L194.625 421.953H190.484V415.25H211.625V421.953H207.438L207.312 419.5H203.766V434.297L206.141 434.797V438H195.906ZM223.156 438.328C221.583 438.328 220.135 438.042 218.812 437.469C217.5 436.885 216.359 436.073 215.391 435.031C214.422 433.99 213.672 432.771 213.141 431.375C212.62 429.969 212.359 428.443 212.359 426.797V426.438C212.359 424.802 212.62 423.286 213.141 421.891C213.672 420.495 214.417 419.276 215.375 418.234C216.344 417.193 217.484 416.38 218.797 415.797C220.109 415.214 221.552 414.922 223.125 414.922C224.667 414.922 226.099 415.214 227.422 415.797C228.745 416.38 229.901 417.193 230.891 418.234C231.891 419.276 232.667 420.495 233.219 421.891C233.771 423.286 234.047 424.802 234.047 426.438V426.797C234.047 428.443 233.771 429.969 233.219 431.375C232.667 432.771 231.896 433.99 230.906 435.031C229.917 436.073 228.76 436.885 227.438 437.469C226.115 438.042 224.688 438.328 223.156 438.328ZM223.156 434.172C224.302 434.172 225.281 433.865 226.094 433.25C226.906 432.635 227.526 431.776 227.953 430.672C228.38 429.568 228.594 428.276 228.594 426.797V426.406C228.594 424.958 228.375 423.688 227.938 422.594C227.51 421.49 226.891 420.63 226.078 420.016C225.266 419.401 224.281 419.094 223.125 419.094C221.906 419.094 220.906 419.396 220.125 420C219.354 420.604 218.781 421.453 218.406 422.547C218.031 423.641 217.844 424.927 217.844 426.406V426.797C217.844 428.276 218.031 429.573 218.406 430.688C218.792 431.792 219.375 432.651 220.156 433.266C220.948 433.87 221.948 434.172 223.156 434.172ZM235.547 438V434.797L237.906 434.297V418.969L235.547 418.469V415.234H246.734C248.536 415.234 250.099 415.521 251.422 416.094C252.745 416.667 253.766 417.484 254.484 418.547C255.203 419.599 255.562 420.849 255.562 422.297C255.562 423.63 255.198 424.87 254.469 426.016C253.75 427.161 252.76 428.083 251.5 428.781C250.24 429.469 248.802 429.807 247.188 429.797L243.391 429.75V434.297L245.75 434.797V438H235.547ZM249.953 438L246.891 429.125L251.656 427.5L254.422 434.266L256.578 434.812V438H249.953ZM243.391 425.547H246.797C247.859 425.547 248.677 425.302 249.25 424.812C249.823 424.312 250.109 423.594 250.109 422.656C250.109 421.688 249.818 420.911 249.234 420.328C248.651 419.734 247.818 419.438 246.734 419.438H243.391V425.547ZM262.469 438V434.797L264.828 434.297V430.5L258.234 418.797L255.859 418.469V415.25H265.703V418.469L264.297 418.719L267.422 424.953L267.781 425.75H267.922L268.297 425L271.953 418.719L269.578 418.469V415.25H279.234V418.469L276.828 418.797L270.297 430.062V434.297L272.672 434.797V438H262.469Z" fill="black" fill-opacity="0.3"/>
</svg>
