<svg width="450" height="512" viewBox="0 0 450 512" fill="none" xmlns="http://www.w3.org/2000/svg">
<g clip-path="url(#clip0_5_865)">
<path d="M212.66 3.35209C220.296 -1.11736 229.704 -1.11737 237.34 3.35209L434.66 118.842C442.296 123.311 447 131.571 447 140.51V371.49C447 380.429 442.296 388.689 434.66 393.158L237.34 508.648C229.704 513.117 220.296 513.117 212.66 508.648L15.3404 393.158C7.70413 388.689 3 380.429 3 371.49V140.51C3 131.571 7.70413 123.311 15.3404 118.842L212.66 3.35209Z" fill="#32ADE6"/>
<path d="M214.68 6.80426C221.068 3.06525 228.932 3.06525 235.32 6.80426L432.639 122.294C439.034 126.037 443 132.974 443 140.51V371.49C443 379.026 439.034 385.963 432.639 389.706L235.32 505.196C228.932 508.935 221.068 508.935 214.68 505.196L17.3609 389.706C10.9662 385.963 7 379.026 7 371.49V140.51C7 132.974 10.9662 126.037 17.3609 122.294L214.68 6.80426Z" stroke="black" stroke-opacity="0.5" stroke-width="8"/>
<rect x="82" y="128" width="286" height="4" rx="2" fill="white" fill-opacity="0.3"/>
<rect x="82" y="380" width="286" height="4" rx="2" fill="white" fill-opacity="0.3"/>
<path d="M98.8086 236.188C103.676 236.188 107.686 237.746 110.84 240.863C113.993 243.962 115.57 247.945 115.57 252.812V259.402C115.57 264.288 113.993 268.28 110.84 271.379C107.686 274.46 103.676 276 98.8086 276H80.8984V271.215L85.1367 270.395V241.82L80.8984 241V236.188H85.1367H98.8086ZM93.1211 242.34V269.875H98.3984C101.26 269.875 103.503 268.909 105.125 266.977C106.747 265.044 107.559 262.52 107.559 259.402V252.758C107.559 249.677 106.747 247.171 105.125 245.238C103.503 243.306 101.26 242.34 98.3984 242.34H93.1211ZM155.902 256.395C155.902 262.228 154.234 267.049 150.898 270.859C147.562 274.669 143.197 276.574 137.801 276.574C132.423 276.574 128.076 274.669 124.758 270.859C121.458 267.049 119.809 262.228 119.809 256.395V255.793C119.809 249.996 121.458 245.184 124.758 241.355C128.057 237.527 132.396 235.613 137.773 235.613C143.169 235.613 147.535 237.527 150.871 241.355C154.225 245.184 155.902 249.996 155.902 255.793V256.395ZM147.945 255.738C147.945 251.618 147.089 248.273 145.375 245.703C143.661 243.133 141.128 241.848 137.773 241.848C134.419 241.848 131.913 243.124 130.254 245.676C128.613 248.228 127.793 251.582 127.793 255.738V256.395C127.793 260.587 128.622 263.969 130.281 266.539C131.958 269.091 134.465 270.367 137.801 270.367C141.173 270.367 143.707 269.091 145.402 266.539C147.098 263.969 147.945 260.587 147.945 256.395V255.738ZM176.984 236.188C181.505 236.188 185.051 237.227 187.621 239.305C190.191 241.365 191.477 244.217 191.477 247.863C191.477 249.868 190.939 251.609 189.863 253.086C188.788 254.562 187.211 255.757 185.133 256.668C187.484 257.361 189.171 258.518 190.191 260.141C191.23 261.745 191.75 263.741 191.75 266.129V268.152C191.75 269.027 191.923 269.711 192.27 270.203C192.616 270.677 193.19 270.96 193.992 271.051L194.977 271.188V276H190.848C188.241 276 186.409 275.298 185.352 273.895C184.294 272.491 183.766 270.677 183.766 268.453V266.184C183.766 264.251 183.246 262.738 182.207 261.645C181.186 260.533 179.737 259.949 177.859 259.895H171.324V270.395L175.59 271.215V276H159.102V271.215L163.34 270.395V241.82L159.102 241V236.188H163.34H176.984ZM171.324 253.742H176.848C179.072 253.742 180.74 253.268 181.852 252.32C182.964 251.372 183.52 250.005 183.52 248.219C183.52 246.432 182.964 245.01 181.852 243.953C180.758 242.878 179.135 242.34 176.984 242.34H171.324V253.742ZM197.191 271.215L200.035 270.805L212.148 236.188H220.324L232.355 270.805L235.199 271.215V276H221.637V271.215L224.398 270.723L222.648 265.254H209.742L207.992 270.723L210.754 271.215V276H197.191V271.215ZM211.629 259.375H220.762L216.277 245.348H216.113L211.629 259.375ZM284.199 249.613H278.266L277.445 244.309C276.661 243.525 275.668 242.905 274.465 242.449C273.28 241.993 271.876 241.766 270.254 241.766C266.79 241.766 264.12 243.023 262.242 245.539C260.383 248.055 259.453 251.336 259.453 255.383V256.777C259.453 260.824 260.383 264.115 262.242 266.648C264.102 269.182 266.727 270.449 270.117 270.449C271.685 270.449 273.116 270.221 274.41 269.766C275.723 269.31 276.734 268.69 277.445 267.906L278.266 262.602H284.199V270.477C282.595 272.336 280.544 273.822 278.047 274.934C275.568 276.027 272.788 276.574 269.707 276.574C264.366 276.574 259.991 274.724 256.582 271.023C253.173 267.323 251.469 262.574 251.469 256.777V255.438C251.469 249.659 253.164 244.91 256.555 241.191C259.945 237.473 264.329 235.613 269.707 235.613C272.788 235.613 275.568 236.178 278.047 237.309C280.526 238.421 282.577 239.897 284.199 241.738V249.613ZM288.082 260.934C288.082 256.522 289.312 252.913 291.773 250.105C294.253 247.28 297.671 245.867 302.027 245.867C306.402 245.867 309.82 247.271 312.281 250.078C314.76 252.885 316 256.504 316 260.934V261.508C316 265.956 314.76 269.583 312.281 272.391C309.82 275.18 306.421 276.574 302.082 276.574C297.689 276.574 294.253 275.18 291.773 272.391C289.312 269.583 288.082 265.956 288.082 261.508V260.934ZM296.066 261.508C296.066 264.206 296.54 266.375 297.488 268.016C298.436 269.638 299.967 270.449 302.082 270.449C304.142 270.449 305.646 269.629 306.594 267.988C307.56 266.348 308.043 264.188 308.043 261.508V260.934C308.043 258.309 307.56 256.167 306.594 254.508C305.628 252.849 304.105 252.02 302.027 252.02C299.949 252.02 298.436 252.849 297.488 254.508C296.54 256.167 296.066 258.309 296.066 260.934V261.508ZM320.074 271.215L323.902 270.395V252.047L319.664 251.227V246.414H331.34L331.695 250.734C332.388 249.203 333.281 248.009 334.375 247.152C335.469 246.296 336.736 245.867 338.176 245.867C338.595 245.867 339.033 245.904 339.488 245.977C339.962 246.031 340.354 246.104 340.664 246.195L339.816 253.469L336.535 253.387C335.368 253.387 334.402 253.615 333.637 254.07C332.871 254.526 332.288 255.173 331.887 256.012V270.395L335.715 271.215V276H320.074V271.215ZM356.66 276.574C352.395 276.574 348.986 275.207 346.434 272.473C343.882 269.738 342.605 266.266 342.605 262.055V260.961C342.605 256.568 343.809 252.949 346.215 250.105C348.639 247.262 351.884 245.849 355.949 245.867C359.941 245.867 363.04 247.07 365.246 249.477C367.452 251.883 368.555 255.137 368.555 259.238V263.586H350.891L350.836 263.75C350.982 265.701 351.629 267.305 352.777 268.562C353.944 269.82 355.521 270.449 357.508 270.449C359.276 270.449 360.743 270.276 361.91 269.93C363.077 269.565 364.353 269 365.738 268.234L367.898 273.156C366.677 274.122 365.091 274.934 363.141 275.59C361.208 276.246 359.048 276.574 356.66 276.574ZM355.949 252.02C354.473 252.02 353.306 252.585 352.449 253.715C351.592 254.845 351.064 256.331 350.863 258.172L350.945 258.309H360.734V257.598C360.734 255.902 360.333 254.553 359.531 253.551C358.747 252.53 357.553 252.02 355.949 252.02Z" fill="white"/>
<path d="M113.078 107V103.797L115.438 103.297V87.9688L113.078 87.4688V84.25H131.812V90.9531H127.672L127.562 88.4688H120.922V93.7344H128.656V97.9219H120.922V103.297L123.281 103.797V107H113.078ZM132.953 107V103.797L135.312 103.297V87.9688L132.953 87.4688V84.2344H144.141C145.943 84.2344 147.505 84.5208 148.828 85.0938C150.151 85.6667 151.172 86.4844 151.891 87.5469C152.609 88.599 152.969 89.849 152.969 91.2969C152.969 92.6302 152.604 93.8698 151.875 95.0156C151.156 96.1615 150.167 97.0833 148.906 97.7812C147.646 98.4688 146.208 98.8073 144.594 98.7969L140.797 98.75V103.297L143.156 103.797V107H132.953ZM147.359 107L144.297 98.125L149.062 96.5L151.828 103.266L153.984 103.812V107H147.359ZM140.797 94.5469H144.203C145.266 94.5469 146.083 94.3021 146.656 93.8125C147.229 93.3125 147.516 92.5938 147.516 91.6562C147.516 90.6875 147.224 89.9115 146.641 89.3281C146.057 88.7344 145.224 88.4375 144.141 88.4375H140.797V94.5469ZM154.906 107V103.797L156.5 103.562L163.281 84.25H169.219L176.016 103.562L177.609 103.797V107H169.109V103.797L170.594 103.516L169.906 101.047H162.594L161.938 103.516L163.422 103.797V107H154.906ZM163.75 97.2031H168.734L166.516 90.3125L166.266 89.5156H166.172L165.906 90.3906L163.75 97.2031ZM178.484 107V103.797L180.828 103.297V87.9688L178.484 87.4688V84.25H180.828H189.219L194.719 99.2344H194.812L200.156 84.25H210.766V87.4688L208.406 87.9688V103.297L210.766 103.797V107H200.578V103.797L203.031 103.297V100.328L203.156 89.625L203.062 89.6094L196.625 107H192.312L185.781 89.8125L185.672 89.8281L186.047 99.5781V103.297L188.688 103.797V107H178.484ZM211.703 107V103.797L214.062 103.297V87.9688L211.703 87.4688V84.25H229.875V90.8125H225.734L225.609 88.4688H219.547V93.1406H226.812V97.3438H219.547V102.766H225.906L226.031 100.312H230.125V107H211.703ZM239.547 107L234.297 87.7031L231.719 87.4688V84.25H241.984V87.4688L239.453 87.8281L241.938 98L242.297 99.4688H242.391L242.766 97.9844L247.219 84.25H251L255.688 98.625L256.016 99.6094H256.109L256.375 98.625L259.031 87.8281L256.422 87.4688V84.25H266.484V87.4688L264.062 87.7031L258.578 107H253.688L249.766 95.2344L249.281 93.6094H249.188L248.578 95.3281L244.594 107H239.547ZM278.969 107.328C277.396 107.328 275.948 107.042 274.625 106.469C273.312 105.885 272.172 105.073 271.203 104.031C270.234 102.99 269.484 101.771 268.953 100.375C268.432 98.9688 268.172 97.4427 268.172 95.7969V95.4375C268.172 93.8021 268.432 92.2865 268.953 90.8906C269.484 89.4948 270.229 88.276 271.188 87.2344C272.156 86.1927 273.297 85.3802 274.609 84.7969C275.922 84.2135 277.365 83.9219 278.938 83.9219C280.479 83.9219 281.911 84.2135 283.234 84.7969C284.557 85.3802 285.714 86.1927 286.703 87.2344C287.703 88.276 288.479 89.4948 289.031 90.8906C289.583 92.2865 289.859 93.8021 289.859 95.4375V95.7969C289.859 97.4427 289.583 98.9688 289.031 100.375C288.479 101.771 287.708 102.99 286.719 104.031C285.729 105.073 284.573 105.885 283.25 106.469C281.927 107.042 280.5 107.328 278.969 107.328ZM278.969 103.172C280.115 103.172 281.094 102.865 281.906 102.25C282.719 101.635 283.339 100.776 283.766 99.6719C284.193 98.5677 284.406 97.276 284.406 95.7969V95.4062C284.406 93.9583 284.188 92.6875 283.75 91.5938C283.323 90.4896 282.703 89.6302 281.891 89.0156C281.078 88.401 280.094 88.0938 278.938 88.0938C277.719 88.0938 276.719 88.3958 275.938 89C275.167 89.6042 274.594 90.4531 274.219 91.5469C273.844 92.6406 273.656 93.9271 273.656 95.4062V95.7969C273.656 97.276 273.844 98.5729 274.219 99.6875C274.604 100.792 275.188 101.651 275.969 102.266C276.76 102.87 277.76 103.172 278.969 103.172ZM291.359 107V103.797L293.719 103.297V87.9688L291.359 87.4688V84.2344H302.547C304.349 84.2344 305.911 84.5208 307.234 85.0938C308.557 85.6667 309.578 86.4844 310.297 87.5469C311.016 88.599 311.375 89.849 311.375 91.2969C311.375 92.6302 311.01 93.8698 310.281 95.0156C309.562 96.1615 308.573 97.0833 307.312 97.7812C306.052 98.4688 304.615 98.8073 303 98.7969L299.203 98.75V103.297L301.562 103.797V107H291.359ZM305.766 107L302.703 98.125L307.469 96.5L310.234 103.266L312.391 103.812V107H305.766ZM299.203 94.5469H302.609C303.672 94.5469 304.49 94.3021 305.062 93.8125C305.635 93.3125 305.922 92.5938 305.922 91.6562C305.922 90.6875 305.63 89.9115 305.047 89.3281C304.464 88.7344 303.63 88.4375 302.547 88.4375H299.203V94.5469ZM320 102.047L317.203 98.8438L328.547 87.6719L328.562 87.6406L325.984 87.4688V84.25H336.609V87.4688L334.469 87.9219L320 102.047ZM313.578 107V103.797L315.938 103.297V87.9688L313.578 87.4688V84.25H323.578V87.4688L321.422 87.9688V103.297L323.578 103.797V107H313.578ZM326.469 107V103.797L328.75 103.625H328.781L323.312 96.1406L327.141 92.75L335.109 103.406L337.438 103.797V107H326.469Z" fill="black" fill-opacity="0.3"/>
</g>
<defs>
<clipPath id="clip0_5_865">
<rect width="450" height="512" fill="white"/>
</clipPath>
</defs>
</svg>
