<svg width="450" height="512" viewBox="0 0 450 512" fill="none" xmlns="http://www.w3.org/2000/svg">
<g clip-path="url(#clip0_5_853)">
<path d="M212.66 3.35209C220.296 -1.11736 229.704 -1.11737 237.34 3.35209L434.66 118.842C442.296 123.311 447 131.571 447 140.51V371.49C447 380.429 442.296 388.689 434.66 393.158L237.34 508.648C229.704 513.117 220.296 513.117 212.66 508.648L15.3404 393.158C7.70413 388.689 3 380.429 3 371.49V140.51C3 131.571 7.70413 123.311 15.3404 118.842L212.66 3.35209Z" fill="#32ADE6"/>
<path d="M214.68 6.80426C221.068 3.06525 228.932 3.06525 235.32 6.80426L432.639 122.294C439.034 126.037 443 132.974 443 140.51V371.49C443 379.026 439.034 385.963 432.639 389.706L235.32 505.196C228.932 508.935 221.068 508.935 214.68 505.196L17.3609 389.706C10.9662 385.963 7 379.026 7 371.49V140.51C7 132.974 10.9662 126.037 17.3609 122.294L214.68 6.80426Z" stroke="black" stroke-opacity="0.5" stroke-width="8"/>
<rect x="82" y="128" width="286" height="4" rx="2" fill="white" fill-opacity="0.3"/>
<rect x="82" y="380" width="286" height="4" rx="2" fill="white" fill-opacity="0.3"/>
<path d="M123.254 258.5H109.773V269.875H122.625L122.98 265.117H129.051V276H97.5508V271.215L101.789 270.395V241.82L97.5508 241V236.188H101.789H128.996V247.098H122.871L122.516 242.34H109.773V252.348H123.254V258.5ZM157.652 256.586H152.293L151.445 252.895C150.898 252.457 150.206 252.092 149.367 251.801C148.547 251.509 147.635 251.363 146.633 251.363C145.229 251.363 144.117 251.682 143.297 252.32C142.477 252.94 142.066 253.724 142.066 254.672C142.066 255.565 142.458 256.312 143.242 256.914C144.026 257.497 145.594 258.017 147.945 258.473C151.609 259.202 154.326 260.277 156.094 261.699C157.862 263.103 158.746 265.044 158.746 267.523C158.746 270.185 157.598 272.363 155.301 274.059C153.022 275.736 150.014 276.574 146.277 276.574C143.999 276.574 141.902 276.246 139.988 275.59C138.092 274.915 136.406 273.958 134.93 272.719L134.848 266.074H140.426L141.52 269.93C141.993 270.331 142.641 270.632 143.461 270.832C144.281 271.014 145.138 271.105 146.031 271.105C147.654 271.105 148.884 270.814 149.723 270.23C150.579 269.647 151.008 268.854 151.008 267.852C151.008 266.977 150.579 266.22 149.723 265.582C148.866 264.944 147.289 264.379 144.992 263.887C141.51 263.176 138.876 262.128 137.09 260.742C135.322 259.339 134.438 257.434 134.438 255.027C134.438 252.548 135.458 250.415 137.5 248.629C139.542 246.824 142.449 245.922 146.223 245.922C148.52 245.922 150.689 246.232 152.73 246.852C154.79 247.471 156.404 248.264 157.57 249.23L157.652 256.586ZM174.113 239.168V246.414H179.309V252.02H174.113V267.086C174.113 268.234 174.35 269.055 174.824 269.547C175.298 270.039 175.936 270.285 176.738 270.285C177.285 270.285 177.759 270.267 178.16 270.23C178.579 270.176 179.044 270.094 179.555 269.984L180.238 275.754C179.345 276.027 178.461 276.228 177.586 276.355C176.711 276.501 175.763 276.574 174.742 276.574C171.99 276.574 169.866 275.818 168.371 274.305C166.895 272.792 166.156 270.395 166.156 267.113V252.02H161.809V246.414H166.156V239.168H174.113ZM203.918 272.254C202.97 273.639 201.794 274.706 200.391 275.453C199.005 276.201 197.419 276.574 195.633 276.574C192.516 276.574 190.073 275.581 188.305 273.594C186.536 271.589 185.652 268.48 185.652 264.27V252.047L182.398 251.227V246.414H185.652H193.637V264.324C193.637 266.475 193.992 268.025 194.703 268.973C195.432 269.902 196.508 270.367 197.93 270.367C199.188 270.367 200.272 270.167 201.184 269.766C202.113 269.346 202.87 268.754 203.453 267.988V252.047L199.953 251.227V246.414H203.453H211.438V270.395L215.02 271.215V276H204.438L203.918 272.254ZM237.004 276C236.785 275.508 236.594 275.007 236.43 274.496C236.266 273.967 236.138 273.439 236.047 272.91C235.099 274.004 233.941 274.888 232.574 275.562C231.225 276.237 229.676 276.574 227.926 276.574C225.027 276.574 222.721 275.79 221.008 274.223C219.312 272.637 218.465 270.486 218.465 267.77C218.465 264.999 219.577 262.857 221.801 261.344C224.025 259.831 227.288 259.074 231.59 259.074H235.664V256.176C235.664 254.754 235.254 253.651 234.434 252.867C233.613 252.083 232.401 251.691 230.797 251.691C229.885 251.691 229.074 251.801 228.363 252.02C227.652 252.22 227.078 252.466 226.641 252.758L226.121 255.93H220.105L220.133 249.367C221.591 248.383 223.259 247.553 225.137 246.879C227.033 246.204 229.092 245.867 231.316 245.867C234.98 245.867 237.952 246.77 240.23 248.574C242.527 250.361 243.676 252.913 243.676 256.23V268.453C243.676 268.909 243.676 269.337 243.676 269.738C243.694 270.139 243.73 270.522 243.785 270.887L246.219 271.215V276H237.004ZM230.086 270.668C231.289 270.668 232.383 270.413 233.367 269.902C234.352 269.374 235.117 268.717 235.664 267.934V263.422H231.59C229.895 263.422 228.609 263.823 227.734 264.625C226.859 265.409 226.422 266.357 226.422 267.469C226.422 268.471 226.741 269.255 227.379 269.82C228.035 270.385 228.938 270.668 230.086 270.668ZM249.555 271.215L253.383 270.395V252.047L249.145 251.227V246.414H260.82L261.176 250.734C261.868 249.203 262.762 248.009 263.855 247.152C264.949 246.296 266.216 245.867 267.656 245.867C268.076 245.867 268.513 245.904 268.969 245.977C269.443 246.031 269.835 246.104 270.145 246.195L269.297 253.469L266.016 253.387C264.849 253.387 263.883 253.615 263.117 254.07C262.352 254.526 261.768 255.173 261.367 256.012V270.395L265.195 271.215V276H249.555V271.215ZM272.277 271.215L276.133 270.395V252.047L271.867 251.227V246.414H284.117V270.395L287.945 271.215V276H272.277V271.215ZM284.117 239.332H276.133V233.344H284.117V239.332ZM290.133 271.215L293.961 270.395V252.047L289.723 251.227V246.414H301.398L301.754 250.652C302.738 249.139 303.951 247.964 305.391 247.125C306.831 246.286 308.444 245.867 310.23 245.867C313.22 245.867 315.553 246.806 317.23 248.684C318.908 250.561 319.746 253.505 319.746 257.516V270.395L323.574 271.215V276H308.316V271.215L311.734 270.395V257.543C311.734 255.556 311.333 254.152 310.531 253.332C309.729 252.493 308.517 252.074 306.895 252.074C305.837 252.074 304.889 252.293 304.051 252.73C303.212 253.15 302.51 253.751 301.945 254.535V270.395L305.172 271.215V276H290.133V271.215ZM340.008 276.574C335.742 276.574 332.333 275.207 329.781 272.473C327.229 269.738 325.953 266.266 325.953 262.055V260.961C325.953 256.568 327.156 252.949 329.562 250.105C331.987 247.262 335.232 245.849 339.297 245.867C343.289 245.867 346.388 247.07 348.594 249.477C350.799 251.883 351.902 255.137 351.902 259.238V263.586H334.238L334.184 263.75C334.329 265.701 334.977 267.305 336.125 268.562C337.292 269.82 338.868 270.449 340.855 270.449C342.624 270.449 344.091 270.276 345.258 269.93C346.424 269.565 347.701 269 349.086 268.234L351.246 273.156C350.025 274.122 348.439 274.934 346.488 275.59C344.556 276.246 342.396 276.574 340.008 276.574ZM339.297 252.02C337.82 252.02 336.654 252.585 335.797 253.715C334.94 254.845 334.411 256.331 334.211 258.172L334.293 258.309H344.082V257.598C344.082 255.902 343.681 254.553 342.879 253.551C342.095 252.53 340.901 252.02 339.297 252.02Z" fill="white"/>
<path d="M113.078 107V103.797L115.438 103.297V87.9688L113.078 87.4688V84.25H131.812V90.9531H127.672L127.562 88.4688H120.922V93.7344H128.656V97.9219H120.922V103.297L123.281 103.797V107H113.078ZM132.953 107V103.797L135.312 103.297V87.9688L132.953 87.4688V84.2344H144.141C145.943 84.2344 147.505 84.5208 148.828 85.0938C150.151 85.6667 151.172 86.4844 151.891 87.5469C152.609 88.599 152.969 89.849 152.969 91.2969C152.969 92.6302 152.604 93.8698 151.875 95.0156C151.156 96.1615 150.167 97.0833 148.906 97.7812C147.646 98.4688 146.208 98.8073 144.594 98.7969L140.797 98.75V103.297L143.156 103.797V107H132.953ZM147.359 107L144.297 98.125L149.062 96.5L151.828 103.266L153.984 103.812V107H147.359ZM140.797 94.5469H144.203C145.266 94.5469 146.083 94.3021 146.656 93.8125C147.229 93.3125 147.516 92.5938 147.516 91.6562C147.516 90.6875 147.224 89.9115 146.641 89.3281C146.057 88.7344 145.224 88.4375 144.141 88.4375H140.797V94.5469ZM154.906 107V103.797L156.5 103.562L163.281 84.25H169.219L176.016 103.562L177.609 103.797V107H169.109V103.797L170.594 103.516L169.906 101.047H162.594L161.938 103.516L163.422 103.797V107H154.906ZM163.75 97.2031H168.734L166.516 90.3125L166.266 89.5156H166.172L165.906 90.3906L163.75 97.2031ZM178.484 107V103.797L180.828 103.297V87.9688L178.484 87.4688V84.25H180.828H189.219L194.719 99.2344H194.812L200.156 84.25H210.766V87.4688L208.406 87.9688V103.297L210.766 103.797V107H200.578V103.797L203.031 103.297V100.328L203.156 89.625L203.062 89.6094L196.625 107H192.312L185.781 89.8125L185.672 89.8281L186.047 99.5781V103.297L188.688 103.797V107H178.484ZM211.703 107V103.797L214.062 103.297V87.9688L211.703 87.4688V84.25H229.875V90.8125H225.734L225.609 88.4688H219.547V93.1406H226.812V97.3438H219.547V102.766H225.906L226.031 100.312H230.125V107H211.703ZM239.547 107L234.297 87.7031L231.719 87.4688V84.25H241.984V87.4688L239.453 87.8281L241.938 98L242.297 99.4688H242.391L242.766 97.9844L247.219 84.25H251L255.688 98.625L256.016 99.6094H256.109L256.375 98.625L259.031 87.8281L256.422 87.4688V84.25H266.484V87.4688L264.062 87.7031L258.578 107H253.688L249.766 95.2344L249.281 93.6094H249.188L248.578 95.3281L244.594 107H239.547ZM278.969 107.328C277.396 107.328 275.948 107.042 274.625 106.469C273.312 105.885 272.172 105.073 271.203 104.031C270.234 102.99 269.484 101.771 268.953 100.375C268.432 98.9688 268.172 97.4427 268.172 95.7969V95.4375C268.172 93.8021 268.432 92.2865 268.953 90.8906C269.484 89.4948 270.229 88.276 271.188 87.2344C272.156 86.1927 273.297 85.3802 274.609 84.7969C275.922 84.2135 277.365 83.9219 278.938 83.9219C280.479 83.9219 281.911 84.2135 283.234 84.7969C284.557 85.3802 285.714 86.1927 286.703 87.2344C287.703 88.276 288.479 89.4948 289.031 90.8906C289.583 92.2865 289.859 93.8021 289.859 95.4375V95.7969C289.859 97.4427 289.583 98.9688 289.031 100.375C288.479 101.771 287.708 102.99 286.719 104.031C285.729 105.073 284.573 105.885 283.25 106.469C281.927 107.042 280.5 107.328 278.969 107.328ZM278.969 103.172C280.115 103.172 281.094 102.865 281.906 102.25C282.719 101.635 283.339 100.776 283.766 99.6719C284.193 98.5677 284.406 97.276 284.406 95.7969V95.4062C284.406 93.9583 284.188 92.6875 283.75 91.5938C283.323 90.4896 282.703 89.6302 281.891 89.0156C281.078 88.401 280.094 88.0938 278.938 88.0938C277.719 88.0938 276.719 88.3958 275.938 89C275.167 89.6042 274.594 90.4531 274.219 91.5469C273.844 92.6406 273.656 93.9271 273.656 95.4062V95.7969C273.656 97.276 273.844 98.5729 274.219 99.6875C274.604 100.792 275.188 101.651 275.969 102.266C276.76 102.87 277.76 103.172 278.969 103.172ZM291.359 107V103.797L293.719 103.297V87.9688L291.359 87.4688V84.2344H302.547C304.349 84.2344 305.911 84.5208 307.234 85.0938C308.557 85.6667 309.578 86.4844 310.297 87.5469C311.016 88.599 311.375 89.849 311.375 91.2969C311.375 92.6302 311.01 93.8698 310.281 95.0156C309.562 96.1615 308.573 97.0833 307.312 97.7812C306.052 98.4688 304.615 98.8073 303 98.7969L299.203 98.75V103.297L301.562 103.797V107H291.359ZM305.766 107L302.703 98.125L307.469 96.5L310.234 103.266L312.391 103.812V107H305.766ZM299.203 94.5469H302.609C303.672 94.5469 304.49 94.3021 305.062 93.8125C305.635 93.3125 305.922 92.5938 305.922 91.6562C305.922 90.6875 305.63 89.9115 305.047 89.3281C304.464 88.7344 303.63 88.4375 302.547 88.4375H299.203V94.5469ZM320 102.047L317.203 98.8438L328.547 87.6719L328.562 87.6406L325.984 87.4688V84.25H336.609V87.4688L334.469 87.9219L320 102.047ZM313.578 107V103.797L315.938 103.297V87.9688L313.578 87.4688V84.25H323.578V87.4688L321.422 87.9688V103.297L323.578 103.797V107H313.578ZM326.469 107V103.797L328.75 103.625H328.781L323.312 96.1406L327.141 92.75L335.109 103.406L337.438 103.797V107H326.469Z" fill="black" fill-opacity="0.3"/>
</g>
<defs>
<clipPath id="clip0_5_853">
<rect width="450" height="512" fill="white"/>
</clipPath>
</defs>
</svg>
