<svg width="450" height="512" viewBox="0 0 450 512" fill="none" xmlns="http://www.w3.org/2000/svg">
<g clip-path="url(#clip0_5_242)">
<path d="M212.66 3.35209C220.296 -1.11736 229.704 -1.11737 237.34 3.35209L434.66 118.842C442.296 123.311 447 131.571 447 140.51V371.49C447 380.429 442.296 388.689 434.66 393.158L237.34 508.648C229.704 513.117 220.296 513.117 212.66 508.648L15.3404 393.158C7.70413 388.689 3 380.429 3 371.49V140.51C3 131.571 7.70413 123.311 15.3404 118.842L212.66 3.35209Z" fill="#00C2FF"/>
<path d="M214.68 6.80426C221.068 3.06525 228.932 3.06525 235.32 6.80426L432.639 122.294C439.034 126.037 443 132.974 443 140.51V371.49C443 379.026 439.034 385.963 432.639 389.706L235.32 505.196C228.932 508.935 221.068 508.935 214.68 505.196L17.3609 389.706C10.9662 385.963 7 379.026 7 371.49V140.51C7 132.974 10.9662 126.037 17.3609 122.294L214.68 6.80426Z" stroke="black" stroke-opacity="0.5" stroke-width="8"/>
<path d="M407 146C407 141.582 410.582 138 415 138C419.418 138 423 141.582 423 146V174.8H407V146Z" fill="black" fill-opacity="0.15"/>
<rect x="407" y="176.8" width="16" height="36.8" fill="white" fill-opacity="0.75"/>
<rect x="407" y="215.6" width="16" height="36.8" fill="white" fill-opacity="0.75"/>
<rect x="407" y="254.4" width="16" height="36.8" fill="white" fill-opacity="0.75"/>
<path d="M407 293.2H423V322C423 326.418 419.418 330 415 330C410.582 330 407 326.418 407 322V293.2Z" fill="white" fill-opacity="0.75"/>
<path d="M28 146C28 141.582 31.5817 138 36 138C40.4183 138 44 141.582 44 146V174.8H28V146Z" fill="black" fill-opacity="0.15"/>
<rect x="28" y="176.8" width="16" height="36.8" fill="white" fill-opacity="0.75"/>
<rect x="28" y="215.6" width="16" height="36.8" fill="white" fill-opacity="0.75"/>
<rect x="28" y="254.4" width="16" height="36.8" fill="white" fill-opacity="0.75"/>
<path d="M28 293.2H44V322C44 326.418 40.4183 330 36 330C31.5817 330 28 326.418 28 322V293.2Z" fill="white" fill-opacity="0.75"/>
<path d="M40.588 363.76L38 362.008V359.992L40.588 358.24C42.716 356.801 44 354.325 44 351.665V349H28V351.665C28 354.325 29.284 356.801 31.412 358.24L34 359.992V362.008L31.412 363.76C29.284 365.199 28 367.675 28 370.335V373H44V370.335C44 367.675 42.716 365.199 40.588 363.76Z" fill="white" fill-opacity="0.75"/>
<path fill-rule="evenodd" clip-rule="evenodd" d="M423.788 358.193L426.539 357.7L427 360.356L424.266 360.845C424.268 360.892 424.274 360.936 424.281 360.981C424.288 361.032 424.295 361.083 424.295 361.135C424.292 362.334 424.062 363.521 423.619 364.631L426.014 366.035L424.686 368.371L422.268 366.953C421.481 367.965 420.498 368.802 419.38 369.412L420.335 372.078L417.84 373L416.899 370.374C415.646 370.641 414.354 370.641 413.101 370.374L412.16 373L409.665 372.078L410.62 369.412C409.502 368.802 408.519 367.965 407.732 366.953L405.314 368.371L403.986 366.035L406.381 364.631C405.938 363.521 405.708 362.334 405.705 361.135C405.705 361.083 405.712 361.032 405.719 360.982C405.726 360.937 405.732 360.892 405.734 360.846L403 360.356L403.461 357.7L406.212 358.193C406.607 356.967 407.247 355.837 408.092 354.874L406.301 352.706L408.335 350.973L410.121 353.134C411.204 352.455 412.413 352.012 413.672 351.833V349H416.328V351.833C417.588 352.012 418.797 352.455 419.879 353.134L421.665 350.972L423.699 352.706L421.908 354.874C422.753 355.837 423.393 356.967 423.788 358.193ZM415.185 363C416.289 363 417.185 362.105 417.185 361C417.185 359.895 416.289 359 415.185 359C414.08 359 413.185 359.895 413.185 361C413.185 362.105 414.08 363 415.185 363Z" fill="white" fill-opacity="0.75"/>
<rect x="82" y="128" width="286" height="4" rx="2" fill="white" fill-opacity="0.3"/>
<rect x="82" y="380" width="286" height="4" rx="2" fill="white" fill-opacity="0.3"/>
<path d="M197.301 202.5H183.82V213.875H196.672L197.027 209.117H203.098V220H171.598V215.215L175.836 214.395V185.82L171.598 185V180.188H175.836H203.043V191.098H196.918L196.562 186.34H183.82V196.348H197.301V202.5ZM221.309 185L218.273 185.547L225.328 209.418L225.82 211.605H225.984L226.449 209.473L233.531 185.547L230.523 185V180.188H245.07V185L241.734 185.438L230.004 220H221.801L210.043 185.438L206.762 185V180.188H221.309V185ZM277.746 192.902H271.758L270.719 187.434C270.026 186.996 269.014 186.613 267.684 186.285C266.353 185.957 264.94 185.793 263.445 185.793C261.258 185.793 259.562 186.258 258.359 187.188C257.174 188.099 256.582 189.284 256.582 190.742C256.582 192.091 257.202 193.203 258.441 194.078C259.699 194.935 261.859 195.846 264.922 196.812C269.315 198.034 272.642 199.647 274.902 201.652C277.181 203.658 278.32 206.292 278.32 209.555C278.32 212.964 276.971 215.652 274.273 217.621C271.576 219.59 268.021 220.574 263.609 220.574C260.456 220.574 257.603 220.073 255.051 219.07C252.517 218.068 250.402 216.682 248.707 214.914V206.602H254.887L255.734 212.262C256.536 212.918 257.621 213.465 258.988 213.902C260.374 214.322 261.914 214.531 263.609 214.531C265.797 214.531 267.456 214.085 268.586 213.191C269.734 212.298 270.309 211.104 270.309 209.609C270.309 208.078 269.762 206.848 268.668 205.918C267.592 204.988 265.697 204.113 262.98 203.293C258.259 201.926 254.686 200.303 252.262 198.426C249.837 196.548 248.625 193.978 248.625 190.715C248.625 187.488 249.992 184.854 252.727 182.812C255.461 180.753 258.897 179.695 263.035 179.641C266.098 179.641 268.887 180.105 271.402 181.035C273.918 181.965 276.033 183.204 277.746 184.754V192.902ZM138.949 248.902H132.961L131.922 243.434C131.229 242.996 130.217 242.613 128.887 242.285C127.556 241.957 126.143 241.793 124.648 241.793C122.461 241.793 120.766 242.258 119.562 243.188C118.378 244.099 117.785 245.284 117.785 246.742C117.785 248.091 118.405 249.203 119.645 250.078C120.902 250.935 123.062 251.846 126.125 252.812C130.518 254.034 133.845 255.647 136.105 257.652C138.384 259.658 139.523 262.292 139.523 265.555C139.523 268.964 138.174 271.652 135.477 273.621C132.779 275.59 129.224 276.574 124.812 276.574C121.659 276.574 118.806 276.073 116.254 275.07C113.72 274.068 111.605 272.682 109.91 270.914V262.602H116.09L116.938 268.262C117.74 268.918 118.824 269.465 120.191 269.902C121.577 270.322 123.117 270.531 124.812 270.531C127 270.531 128.659 270.085 129.789 269.191C130.938 268.298 131.512 267.104 131.512 265.609C131.512 264.078 130.965 262.848 129.871 261.918C128.796 260.988 126.9 260.113 124.184 259.293C119.462 257.926 115.889 256.303 113.465 254.426C111.04 252.548 109.828 249.978 109.828 246.715C109.828 243.488 111.195 240.854 113.93 238.812C116.664 236.753 120.1 235.695 124.238 235.641C127.301 235.641 130.09 236.105 132.605 237.035C135.121 237.965 137.236 239.204 138.949 240.754V248.902ZM142.859 260.934C142.859 256.522 144.09 252.913 146.551 250.105C149.03 247.28 152.448 245.867 156.805 245.867C161.18 245.867 164.598 247.271 167.059 250.078C169.538 252.885 170.777 256.504 170.777 260.934V261.508C170.777 265.956 169.538 269.583 167.059 272.391C164.598 275.18 161.198 276.574 156.859 276.574C152.466 276.574 149.03 275.18 146.551 272.391C144.09 269.583 142.859 265.956 142.859 261.508V260.934ZM150.844 261.508C150.844 264.206 151.318 266.375 152.266 268.016C153.214 269.638 154.745 270.449 156.859 270.449C158.919 270.449 160.423 269.629 161.371 267.988C162.337 266.348 162.82 264.188 162.82 261.508V260.934C162.82 258.309 162.337 256.167 161.371 254.508C160.405 252.849 158.883 252.02 156.805 252.02C154.727 252.02 153.214 252.849 152.266 254.508C151.318 256.167 150.844 258.309 150.844 260.934V261.508ZM174.688 271.215L178.543 270.395V252.02H174.141V246.414H178.543V243.133C178.543 239.815 179.5 237.263 181.414 235.477C183.328 233.672 186.017 232.77 189.48 232.77C190.155 232.77 190.839 232.824 191.531 232.934C192.242 233.025 193.017 233.161 193.855 233.344L193.172 239.277C192.734 239.204 192.306 239.141 191.887 239.086C191.486 239.031 191.012 239.004 190.465 239.004C189.171 239.004 188.186 239.359 187.512 240.07C186.855 240.781 186.527 241.802 186.527 243.133V246.414H192.406V252.02H186.527V270.395L190.383 271.215V276H174.688V271.215ZM206.871 239.168V246.414H212.066V252.02H206.871V267.086C206.871 268.234 207.108 269.055 207.582 269.547C208.056 270.039 208.694 270.285 209.496 270.285C210.043 270.285 210.517 270.267 210.918 270.23C211.337 270.176 211.802 270.094 212.312 269.984L212.996 275.754C212.103 276.027 211.219 276.228 210.344 276.355C209.469 276.501 208.521 276.574 207.5 276.574C204.747 276.574 202.624 275.818 201.129 274.305C199.652 272.792 198.914 270.395 198.914 267.113V252.02H194.566V246.414H198.914V239.168H206.871ZM258.141 251.227L255.16 251.609L248.98 276H242.309L236.812 258.391H236.648L231.152 276H224.508L218.301 251.609L215.32 251.227V246.414H228.719V251.227L225.574 251.828L228.363 265.363H228.527L234.051 246.414H239.41L244.988 265.418H245.152L247.914 251.855L244.742 251.227V246.414H258.141V251.227ZM279.715 276C279.496 275.508 279.305 275.007 279.141 274.496C278.977 273.967 278.849 273.439 278.758 272.91C277.81 274.004 276.652 274.888 275.285 275.562C273.936 276.237 272.387 276.574 270.637 276.574C267.738 276.574 265.432 275.79 263.719 274.223C262.023 272.637 261.176 270.486 261.176 267.77C261.176 264.999 262.288 262.857 264.512 261.344C266.736 259.831 269.999 259.074 274.301 259.074H278.375V256.176C278.375 254.754 277.965 253.651 277.145 252.867C276.324 252.083 275.112 251.691 273.508 251.691C272.596 251.691 271.785 251.801 271.074 252.02C270.363 252.22 269.789 252.466 269.352 252.758L268.832 255.93H262.816L262.844 249.367C264.302 248.383 265.97 247.553 267.848 246.879C269.743 246.204 271.803 245.867 274.027 245.867C277.691 245.867 280.663 246.77 282.941 248.574C285.238 250.361 286.387 252.913 286.387 256.23V268.453C286.387 268.909 286.387 269.337 286.387 269.738C286.405 270.139 286.441 270.522 286.496 270.887L288.93 271.215V276H279.715ZM272.797 270.668C274 270.668 275.094 270.413 276.078 269.902C277.062 269.374 277.828 268.717 278.375 267.934V263.422H274.301C272.605 263.422 271.32 263.823 270.445 264.625C269.57 265.409 269.133 266.357 269.133 267.469C269.133 268.471 269.452 269.255 270.09 269.82C270.746 270.385 271.648 270.668 272.797 270.668ZM292.266 271.215L296.094 270.395V252.047L291.855 251.227V246.414H303.531L303.887 250.734C304.579 249.203 305.473 248.009 306.566 247.152C307.66 246.296 308.927 245.867 310.367 245.867C310.786 245.867 311.224 245.904 311.68 245.977C312.154 246.031 312.546 246.104 312.855 246.195L312.008 253.469L308.727 253.387C307.56 253.387 306.594 253.615 305.828 254.07C305.062 254.526 304.479 255.173 304.078 256.012V270.395L307.906 271.215V276H292.266V271.215ZM328.852 276.574C324.586 276.574 321.177 275.207 318.625 272.473C316.073 269.738 314.797 266.266 314.797 262.055V260.961C314.797 256.568 316 252.949 318.406 250.105C320.831 247.262 324.076 245.849 328.141 245.867C332.133 245.867 335.232 247.07 337.438 249.477C339.643 251.883 340.746 255.137 340.746 259.238V263.586H323.082L323.027 263.75C323.173 265.701 323.82 267.305 324.969 268.562C326.135 269.82 327.712 270.449 329.699 270.449C331.467 270.449 332.935 270.276 334.102 269.93C335.268 269.565 336.544 269 337.93 268.234L340.09 273.156C338.868 274.122 337.283 274.934 335.332 275.59C333.4 276.246 331.24 276.574 328.852 276.574ZM328.141 252.02C326.664 252.02 325.497 252.585 324.641 253.715C323.784 254.845 323.255 256.331 323.055 258.172L323.137 258.309H332.926V257.598C332.926 255.902 332.525 254.553 331.723 253.551C330.939 252.53 329.745 252.02 328.141 252.02ZM157.27 328.391C156.34 329.758 155.237 330.797 153.961 331.508C152.703 332.219 151.263 332.574 149.641 332.574C145.995 332.574 143.16 331.243 141.137 328.582C139.132 325.921 138.129 322.402 138.129 318.027V317.453C138.129 312.786 139.141 309.022 141.164 306.16C143.188 303.298 146.031 301.867 149.695 301.867C151.172 301.867 152.503 302.195 153.688 302.852C154.872 303.49 155.911 304.401 156.805 305.586V294.977L152.539 294.156V289.344H156.805H164.789V326.395L168.617 327.215V332H157.871L157.27 328.391ZM146.113 318.027C146.113 320.616 146.542 322.658 147.398 324.152C148.273 325.629 149.695 326.367 151.664 326.367C152.831 326.367 153.842 326.13 154.699 325.656C155.556 325.182 156.258 324.499 156.805 323.605V311.055C156.258 310.107 155.556 309.378 154.699 308.867C153.861 308.339 152.867 308.074 151.719 308.074C149.768 308.074 148.346 308.94 147.453 310.672C146.56 312.404 146.113 314.664 146.113 317.453V318.027ZM185.324 332.574C181.059 332.574 177.65 331.207 175.098 328.473C172.546 325.738 171.27 322.266 171.27 318.055V316.961C171.27 312.568 172.473 308.949 174.879 306.105C177.303 303.262 180.548 301.849 184.613 301.867C188.605 301.867 191.704 303.07 193.91 305.477C196.116 307.883 197.219 311.137 197.219 315.238V319.586H179.555L179.5 319.75C179.646 321.701 180.293 323.305 181.441 324.562C182.608 325.82 184.185 326.449 186.172 326.449C187.94 326.449 189.408 326.276 190.574 325.93C191.741 325.565 193.017 325 194.402 324.234L196.562 329.156C195.341 330.122 193.755 330.934 191.805 331.59C189.872 332.246 187.712 332.574 185.324 332.574ZM184.613 308.02C183.137 308.02 181.97 308.585 181.113 309.715C180.257 310.845 179.728 312.331 179.527 314.172L179.609 314.309H189.398V313.598C189.398 311.902 188.997 310.553 188.195 309.551C187.411 308.53 186.217 308.02 184.613 308.02ZM225.164 312.586H219.805L218.957 308.895C218.41 308.457 217.717 308.092 216.879 307.801C216.059 307.509 215.147 307.363 214.145 307.363C212.741 307.363 211.629 307.682 210.809 308.32C209.988 308.94 209.578 309.724 209.578 310.672C209.578 311.565 209.97 312.312 210.754 312.914C211.538 313.497 213.105 314.017 215.457 314.473C219.121 315.202 221.837 316.277 223.605 317.699C225.374 319.103 226.258 321.044 226.258 323.523C226.258 326.185 225.109 328.363 222.812 330.059C220.534 331.736 217.526 332.574 213.789 332.574C211.51 332.574 209.414 332.246 207.5 331.59C205.604 330.915 203.918 329.958 202.441 328.719L202.359 322.074H207.938L209.031 325.93C209.505 326.331 210.152 326.632 210.973 326.832C211.793 327.014 212.65 327.105 213.543 327.105C215.165 327.105 216.396 326.814 217.234 326.23C218.091 325.647 218.52 324.854 218.52 323.852C218.52 322.977 218.091 322.22 217.234 321.582C216.378 320.944 214.801 320.379 212.504 319.887C209.022 319.176 206.388 318.128 204.602 316.742C202.833 315.339 201.949 313.434 201.949 311.027C201.949 308.548 202.97 306.415 205.012 304.629C207.053 302.824 209.961 301.922 213.734 301.922C216.031 301.922 218.201 302.232 220.242 302.852C222.302 303.471 223.915 304.264 225.082 305.23L225.164 312.586ZM229.594 327.215L233.449 326.395V308.047L229.184 307.227V302.414H241.434V326.395L245.262 327.215V332H229.594V327.215ZM241.434 295.332H233.449V289.344H241.434V295.332ZM248.379 317.453C248.379 312.786 249.391 309.022 251.414 306.16C253.456 303.298 256.309 301.867 259.973 301.867C261.632 301.867 263.09 302.241 264.348 302.988C265.605 303.717 266.681 304.766 267.574 306.133L268.148 302.414H275.094V331.125C275.094 335.026 273.863 338.134 271.402 340.449C268.96 342.783 265.596 343.949 261.312 343.949C259.818 343.949 258.232 343.74 256.555 343.32C254.878 342.919 253.328 342.363 251.906 341.652L253.383 336.047C254.659 336.594 255.935 337.022 257.211 337.332C258.487 337.66 259.836 337.824 261.258 337.824C263.208 337.824 264.667 337.232 265.633 336.047C266.599 334.862 267.082 333.212 267.082 331.098V329.156C266.207 330.268 265.177 331.116 263.992 331.699C262.807 332.283 261.449 332.574 259.918 332.574C256.29 332.574 253.456 331.243 251.414 328.582C249.391 325.902 248.379 322.384 248.379 318.027V317.453ZM256.363 318.027C256.363 320.616 256.801 322.658 257.676 324.152C258.551 325.629 259.973 326.367 261.941 326.367C263.163 326.367 264.193 326.148 265.031 325.711C265.888 325.255 266.572 324.599 267.082 323.742V310.891C266.572 309.997 265.888 309.305 265.031 308.812C264.193 308.32 263.181 308.074 261.996 308.074C260.046 308.074 258.615 308.94 257.703 310.672C256.81 312.404 256.363 314.664 256.363 317.453V318.027ZM279.441 327.215L283.27 326.395V308.047L279.031 307.227V302.414H290.707L291.062 306.652C292.047 305.139 293.259 303.964 294.699 303.125C296.139 302.286 297.753 301.867 299.539 301.867C302.529 301.867 304.862 302.806 306.539 304.684C308.216 306.561 309.055 309.505 309.055 313.516V326.395L312.883 327.215V332H297.625V327.215L301.043 326.395V313.543C301.043 311.556 300.642 310.152 299.84 309.332C299.038 308.493 297.826 308.074 296.203 308.074C295.146 308.074 294.198 308.293 293.359 308.73C292.521 309.15 291.819 309.751 291.254 310.535V326.395L294.48 327.215V332H279.441V327.215Z" fill="white"/>
<path d="M149.688 107V103.797L152.047 103.297V87.9688L149.688 87.4688V84.25H152.047H160.75C162.562 84.25 164.135 84.5677 165.469 85.2031C166.802 85.8385 167.828 86.724 168.547 87.8594C169.276 88.9844 169.641 90.2969 169.641 91.7969C169.641 93.2969 169.276 94.6094 168.547 95.7344C167.828 96.8594 166.802 97.7344 165.469 98.3594C164.135 98.9844 162.562 99.2969 160.75 99.2969H157.531V103.297L159.891 103.797V107H149.688ZM157.531 95.0938H160.75C161.865 95.0938 162.708 94.7917 163.281 94.1875C163.865 93.5729 164.156 92.7865 164.156 91.8281C164.156 90.8385 163.865 90.026 163.281 89.3906C162.708 88.7552 161.865 88.4375 160.75 88.4375H157.531V95.0938ZM170.656 107V103.797L173.016 103.297V87.9688L170.656 87.4688V84.2344H181.844C183.646 84.2344 185.208 84.5208 186.531 85.0938C187.854 85.6667 188.875 86.4844 189.594 87.5469C190.312 88.599 190.672 89.849 190.672 91.2969C190.672 92.6302 190.307 93.8698 189.578 95.0156C188.859 96.1615 187.87 97.0833 186.609 97.7812C185.349 98.4688 183.911 98.8073 182.297 98.7969L178.5 98.75V103.297L180.859 103.797V107H170.656ZM185.062 107L182 98.125L186.766 96.5L189.531 103.266L191.688 103.812V107H185.062ZM178.5 94.5469H181.906C182.969 94.5469 183.786 94.3021 184.359 93.8125C184.932 93.3125 185.219 92.5938 185.219 91.6562C185.219 90.6875 184.927 89.9115 184.344 89.3281C183.76 88.7344 182.927 88.4375 181.844 88.4375H178.5V94.5469ZM204.016 107.328C202.443 107.328 200.995 107.042 199.672 106.469C198.359 105.885 197.219 105.073 196.25 104.031C195.281 102.99 194.531 101.771 194 100.375C193.479 98.9688 193.219 97.4427 193.219 95.7969V95.4375C193.219 93.8021 193.479 92.2865 194 90.8906C194.531 89.4948 195.276 88.276 196.234 87.2344C197.203 86.1927 198.344 85.3802 199.656 84.7969C200.969 84.2135 202.411 83.9219 203.984 83.9219C205.526 83.9219 206.958 84.2135 208.281 84.7969C209.604 85.3802 210.76 86.1927 211.75 87.2344C212.75 88.276 213.526 89.4948 214.078 90.8906C214.63 92.2865 214.906 93.8021 214.906 95.4375V95.7969C214.906 97.4427 214.63 98.9688 214.078 100.375C213.526 101.771 212.755 102.99 211.766 104.031C210.776 105.073 209.62 105.885 208.297 106.469C206.974 107.042 205.547 107.328 204.016 107.328ZM204.016 103.172C205.161 103.172 206.141 102.865 206.953 102.25C207.766 101.635 208.385 100.776 208.812 99.6719C209.24 98.5677 209.453 97.276 209.453 95.7969V95.4062C209.453 93.9583 209.234 92.6875 208.797 91.5938C208.37 90.4896 207.75 89.6302 206.938 89.0156C206.125 88.401 205.141 88.0938 203.984 88.0938C202.766 88.0938 201.766 88.3958 200.984 89C200.214 89.6042 199.641 90.4531 199.266 91.5469C198.891 92.6406 198.703 93.9271 198.703 95.4062V95.7969C198.703 97.276 198.891 98.5729 199.266 99.6875C199.651 100.792 200.234 101.651 201.016 102.266C201.807 102.87 202.807 103.172 204.016 103.172ZM227.578 107.328C225.411 107.328 223.479 106.891 221.781 106.016C220.083 105.141 218.75 103.875 217.781 102.219C216.812 100.552 216.328 98.5312 216.328 96.1562V95.1094C216.328 92.9219 216.771 90.9896 217.656 89.3125C218.552 87.625 219.823 86.3073 221.469 85.3594C223.125 84.401 225.089 83.9219 227.359 83.9219C228.943 83.9219 230.448 84.1354 231.875 84.5625C233.312 84.9792 234.646 85.6979 235.875 86.7188V92.5781H231.891L231.344 89.2188C230.99 88.9792 230.615 88.7708 230.219 88.5938C229.833 88.4167 229.417 88.2812 228.969 88.1875C228.531 88.0938 228.057 88.0469 227.547 88.0469C226.391 88.0469 225.38 88.3229 224.516 88.875C223.651 89.4271 222.979 90.2292 222.5 91.2812C222.031 92.3229 221.797 93.5885 221.797 95.0781V96.1562C221.797 97.5521 222.042 98.7812 222.531 99.8438C223.021 100.896 223.703 101.719 224.578 102.312C225.464 102.906 226.484 103.203 227.641 103.203C228.255 103.203 228.88 103.141 229.516 103.016C230.151 102.88 230.766 102.703 231.359 102.484L231.906 99.2656H235.906V105C235 105.625 233.844 106.172 232.438 106.641C231.031 107.099 229.411 107.328 227.578 107.328ZM237.344 107V103.797L239.703 103.297V87.9688L237.344 87.4688V84.25H255.516V90.8125H251.375L251.25 88.4688H245.188V93.1406H252.453V97.3438H245.188V102.766H251.547L251.672 100.312H255.766V107H237.344ZM267.766 107.328C265.911 107.328 264.266 107.151 262.828 106.797C261.391 106.443 259.958 105.776 258.531 104.797V98.8906H262.766L263.234 101.922C263.568 102.297 264.156 102.615 265 102.875C265.844 103.125 266.766 103.25 267.766 103.25C268.464 103.25 269.047 103.167 269.516 103C269.984 102.823 270.339 102.568 270.578 102.234C270.818 101.901 270.938 101.5 270.938 101.031C270.938 100.583 270.823 100.182 270.594 99.8281C270.375 99.474 270.01 99.1406 269.5 98.8281C268.99 98.5052 268.302 98.1771 267.438 97.8438C265.49 97.2188 263.891 96.5833 262.641 95.9375C261.391 95.2917 260.458 94.526 259.844 93.6406C259.24 92.7552 258.938 91.6562 258.938 90.3438C258.938 89.0833 259.297 87.9844 260.016 87.0469C260.734 86.099 261.724 85.3542 262.984 84.8125C264.245 84.2708 265.688 83.9844 267.312 83.9531C269.167 83.9115 270.807 84.099 272.234 84.5156C273.661 84.9219 274.922 85.5417 276.016 86.375V91.8594H271.953L271.312 88.8125C270.958 88.6354 270.453 88.474 269.797 88.3281C269.141 88.1823 268.443 88.1094 267.703 88.1094C267.068 88.1094 266.5 88.1927 266 88.3594C265.51 88.526 265.12 88.776 264.828 89.1094C264.547 89.4427 264.406 89.8594 264.406 90.3594C264.406 90.7656 264.526 91.1302 264.766 91.4531C265.005 91.7656 265.427 92.0833 266.031 92.4062C266.635 92.7188 267.479 93.0833 268.562 93.5C271.146 94.2604 273.104 95.2135 274.438 96.3594C275.781 97.4948 276.453 99.0417 276.453 101C276.453 102.344 276.089 103.49 275.359 104.438C274.63 105.375 273.615 106.094 272.312 106.594C271.01 107.083 269.495 107.328 267.766 107.328ZM287.641 107.328C285.786 107.328 284.141 107.151 282.703 106.797C281.266 106.443 279.833 105.776 278.406 104.797V98.8906H282.641L283.109 101.922C283.443 102.297 284.031 102.615 284.875 102.875C285.719 103.125 286.641 103.25 287.641 103.25C288.339 103.25 288.922 103.167 289.391 103C289.859 102.823 290.214 102.568 290.453 102.234C290.693 101.901 290.812 101.5 290.812 101.031C290.812 100.583 290.698 100.182 290.469 99.8281C290.25 99.474 289.885 99.1406 289.375 98.8281C288.865 98.5052 288.177 98.1771 287.312 97.8438C285.365 97.2188 283.766 96.5833 282.516 95.9375C281.266 95.2917 280.333 94.526 279.719 93.6406C279.115 92.7552 278.812 91.6562 278.812 90.3438C278.812 89.0833 279.172 87.9844 279.891 87.0469C280.609 86.099 281.599 85.3542 282.859 84.8125C284.12 84.2708 285.562 83.9844 287.188 83.9531C289.042 83.9115 290.682 84.099 292.109 84.5156C293.536 84.9219 294.797 85.5417 295.891 86.375V91.8594H291.828L291.188 88.8125C290.833 88.6354 290.328 88.474 289.672 88.3281C289.016 88.1823 288.318 88.1094 287.578 88.1094C286.943 88.1094 286.375 88.1927 285.875 88.3594C285.385 88.526 284.995 88.776 284.703 89.1094C284.422 89.4427 284.281 89.8594 284.281 90.3594C284.281 90.7656 284.401 91.1302 284.641 91.4531C284.88 91.7656 285.302 92.0833 285.906 92.4062C286.51 92.7188 287.354 93.0833 288.438 93.5C291.021 94.2604 292.979 95.2135 294.312 96.3594C295.656 97.4948 296.328 99.0417 296.328 101C296.328 102.344 295.964 103.49 295.234 104.438C294.505 105.375 293.49 106.094 292.188 106.594C290.885 107.083 289.37 107.328 287.641 107.328Z" fill="black" fill-opacity="0.3"/>
</g>
<defs>
<clipPath id="clip0_5_242">
<rect width="450" height="512" fill="white"/>
</clipPath>
</defs>
</svg>
