<svg width="450" height="512" viewBox="0 0 450 512" fill="none" xmlns="http://www.w3.org/2000/svg">
<g clip-path="url(#clip0_5_371)">
<path d="M212.66 3.35209C220.296 -1.11736 229.704 -1.11737 237.34 3.35209L434.66 118.842C442.296 123.311 447 131.571 447 140.51V371.49C447 380.429 442.296 388.689 434.66 393.158L237.34 508.648C229.704 513.117 220.296 513.117 212.66 508.648L15.3404 393.158C7.70413 388.689 3 380.429 3 371.49V140.51C3 131.571 7.70413 123.311 15.3404 118.842L212.66 3.35209Z" fill="#00C2FF"/>
<path d="M214.68 6.80426C221.068 3.06525 228.932 3.06525 235.32 6.80426L432.639 122.294C439.034 126.037 443 132.974 443 140.51V371.49C443 379.026 439.034 385.963 432.639 389.706L235.32 505.196C228.932 508.935 221.068 508.935 214.68 505.196L17.3609 389.706C10.9662 385.963 7 379.026 7 371.49V140.51C7 132.974 10.9662 126.037 17.3609 122.294L214.68 6.80426Z" stroke="black" stroke-opacity="0.5" stroke-width="8"/>
<path d="M407 146C407 141.582 410.582 138 415 138C419.418 138 423 141.582 423 146V174.8H407V146Z" fill="black" fill-opacity="0.15"/>
<rect x="407" y="176.8" width="16" height="36.8" fill="white" fill-opacity="0.75"/>
<rect x="407" y="215.6" width="16" height="36.8" fill="white" fill-opacity="0.75"/>
<rect x="407" y="254.4" width="16" height="36.8" fill="white" fill-opacity="0.75"/>
<path d="M407 293.2H423V322C423 326.418 419.418 330 415 330C410.582 330 407 326.418 407 322V293.2Z" fill="white" fill-opacity="0.75"/>
<path d="M28 146C28 141.582 31.5817 138 36 138C40.4183 138 44 141.582 44 146V174.8H28V146Z" fill="black" fill-opacity="0.15"/>
<rect x="28" y="176.8" width="16" height="36.8" fill="white" fill-opacity="0.75"/>
<rect x="28" y="215.6" width="16" height="36.8" fill="white" fill-opacity="0.75"/>
<rect x="28" y="254.4" width="16" height="36.8" fill="white" fill-opacity="0.75"/>
<path d="M28 293.2H44V322C44 326.418 40.4183 330 36 330C31.5817 330 28 326.418 28 322V293.2Z" fill="white" fill-opacity="0.75"/>
<path d="M40.588 363.76L38 362.008V359.992L40.588 358.24C42.716 356.801 44 354.325 44 351.665V349H28V351.665C28 354.325 29.284 356.801 31.412 358.24L34 359.992V362.008L31.412 363.76C29.284 365.199 28 367.675 28 370.335V373H44V370.335C44 367.675 42.716 365.199 40.588 363.76Z" fill="white" fill-opacity="0.75"/>
<path fill-rule="evenodd" clip-rule="evenodd" d="M423.788 358.193L426.539 357.7L427 360.356L424.266 360.845C424.268 360.892 424.274 360.936 424.281 360.981C424.288 361.032 424.295 361.083 424.295 361.135C424.292 362.334 424.062 363.521 423.619 364.631L426.014 366.035L424.686 368.371L422.268 366.953C421.481 367.965 420.498 368.802 419.38 369.412L420.335 372.078L417.84 373L416.899 370.374C415.646 370.641 414.354 370.641 413.101 370.374L412.16 373L409.665 372.078L410.62 369.412C409.502 368.802 408.519 367.965 407.732 366.953L405.314 368.371L403.986 366.035L406.381 364.631C405.938 363.521 405.708 362.334 405.705 361.135C405.705 361.083 405.712 361.032 405.719 360.982C405.726 360.937 405.732 360.892 405.734 360.846L403 360.356L403.461 357.7L406.212 358.193C406.607 356.967 407.247 355.837 408.092 354.874L406.301 352.706L408.335 350.973L410.121 353.134C411.204 352.455 412.413 352.012 413.672 351.833V349H416.328V351.833C417.588 352.012 418.797 352.455 419.879 353.134L421.665 350.972L423.699 352.706L421.908 354.874C422.753 355.837 423.393 356.967 423.788 358.193ZM415.185 363C416.289 363 417.185 362.105 417.185 361C417.185 359.895 416.289 359 415.185 359C414.08 359 413.185 359.895 413.185 361C413.185 362.105 414.08 363 415.185 363Z" fill="white" fill-opacity="0.75"/>
<rect x="82" y="128" width="286" height="4" rx="2" fill="white" fill-opacity="0.3"/>
<rect x="82" y="380" width="286" height="4" rx="2" fill="white" fill-opacity="0.3"/>
<path d="M86.5859 230.5H73.1055V241.875H85.957L86.3125 237.117H92.3828V248H60.8828V243.215L65.1211 242.395V213.82L60.8828 213V208.188H65.1211H92.3281V219.098H86.2031L85.8477 214.34H73.1055V224.348H86.5859V230.5ZM110.594 213L107.559 213.547L114.613 237.418L115.105 239.605H115.27L115.734 237.473L122.816 213.547L119.809 213V208.188H134.355V213L131.02 213.438L119.289 248H111.086L99.3281 213.438L96.0469 213V208.188H110.594V213ZM167.031 220.902H161.043L160.004 215.434C159.311 214.996 158.299 214.613 156.969 214.285C155.638 213.957 154.225 213.793 152.73 213.793C150.543 213.793 148.848 214.258 147.645 215.188C146.46 216.099 145.867 217.284 145.867 218.742C145.867 220.091 146.487 221.203 147.727 222.078C148.984 222.935 151.145 223.846 154.207 224.812C158.6 226.034 161.927 227.647 164.188 229.652C166.466 231.658 167.605 234.292 167.605 237.555C167.605 240.964 166.257 243.652 163.559 245.621C160.861 247.59 157.306 248.574 152.895 248.574C149.741 248.574 146.888 248.073 144.336 247.07C141.802 246.068 139.688 244.682 137.992 242.914V234.602H144.172L145.02 240.262C145.822 240.918 146.906 241.465 148.273 241.902C149.659 242.322 151.199 242.531 152.895 242.531C155.082 242.531 156.741 242.085 157.871 241.191C159.02 240.298 159.594 239.104 159.594 237.609C159.594 236.078 159.047 234.848 157.953 233.918C156.878 232.988 154.982 232.113 152.266 231.293C147.544 229.926 143.971 228.303 141.547 226.426C139.122 224.548 137.91 221.978 137.91 218.715C137.91 215.488 139.277 212.854 142.012 210.812C144.746 208.753 148.182 207.695 152.32 207.641C155.383 207.641 158.172 208.105 160.688 209.035C163.203 209.965 165.318 211.204 167.031 212.754V220.902ZM203.426 208.188C207.983 208.188 211.574 209.363 214.199 211.715C216.842 214.048 218.164 217.111 218.164 220.902C218.164 224.712 216.842 227.775 214.199 230.09C211.574 232.405 207.983 233.562 203.426 233.562H196.699V242.395L200.965 243.215V248H184.477V243.215L188.715 242.395V213.82L184.477 213V208.188H188.715H203.426ZM196.699 227.41H203.426C205.65 227.41 207.327 226.809 208.457 225.605C209.605 224.384 210.18 222.835 210.18 220.957C210.18 219.043 209.605 217.466 208.457 216.227C207.327 214.969 205.65 214.34 203.426 214.34H196.699V227.41ZM221.527 243.215L225.355 242.395V224.047L221.117 223.227V218.414H232.793L233.148 222.734C233.841 221.203 234.734 220.009 235.828 219.152C236.922 218.296 238.189 217.867 239.629 217.867C240.048 217.867 240.486 217.904 240.941 217.977C241.415 218.031 241.807 218.104 242.117 218.195L241.27 225.469L237.988 225.387C236.822 225.387 235.855 225.615 235.09 226.07C234.324 226.526 233.741 227.173 233.34 228.012V242.395L237.168 243.215V248H221.527V243.215ZM243.949 232.934C243.949 228.522 245.18 224.913 247.641 222.105C250.12 219.28 253.538 217.867 257.895 217.867C262.27 217.867 265.688 219.271 268.148 222.078C270.628 224.885 271.867 228.504 271.867 232.934V233.508C271.867 237.956 270.628 241.583 268.148 244.391C265.688 247.18 262.288 248.574 257.949 248.574C253.556 248.574 250.12 247.18 247.641 244.391C245.18 241.583 243.949 237.956 243.949 233.508V232.934ZM251.934 233.508C251.934 236.206 252.408 238.375 253.355 240.016C254.303 241.638 255.835 242.449 257.949 242.449C260.009 242.449 261.513 241.629 262.461 239.988C263.427 238.348 263.91 236.188 263.91 233.508V232.934C263.91 230.309 263.427 228.167 262.461 226.508C261.495 224.849 259.973 224.02 257.895 224.02C255.816 224.02 254.303 224.849 253.355 226.508C252.408 228.167 251.934 230.309 251.934 232.934V233.508ZM289.23 242.449C290.652 242.449 291.792 242.039 292.648 241.219C293.505 240.38 293.934 239.268 293.934 237.883H301.152L301.234 238.047C301.307 241.036 300.186 243.543 297.871 245.566C295.556 247.572 292.676 248.574 289.23 248.574C284.819 248.574 281.419 247.18 279.031 244.391C276.643 241.602 275.449 238.02 275.449 233.645V232.824C275.449 228.467 276.671 224.885 279.113 222.078C281.574 219.271 285.074 217.867 289.613 217.867C292.001 217.867 294.143 218.223 296.039 218.934C297.935 219.645 299.512 220.647 300.77 221.941L300.879 229.844H294.398L293.086 225.223C292.685 224.876 292.193 224.594 291.609 224.375C291.026 224.138 290.361 224.02 289.613 224.02C287.353 224.02 285.758 224.84 284.828 226.48C283.898 228.121 283.434 230.236 283.434 232.824V233.645C283.434 236.288 283.862 238.421 284.719 240.043C285.576 241.647 287.079 242.449 289.23 242.449ZM319.035 248.574C314.77 248.574 311.361 247.207 308.809 244.473C306.257 241.738 304.98 238.266 304.98 234.055V232.961C304.98 228.568 306.184 224.949 308.59 222.105C311.014 219.262 314.259 217.849 318.324 217.867C322.316 217.867 325.415 219.07 327.621 221.477C329.827 223.883 330.93 227.137 330.93 231.238V235.586H313.266L313.211 235.75C313.357 237.701 314.004 239.305 315.152 240.562C316.319 241.82 317.896 242.449 319.883 242.449C321.651 242.449 323.118 242.276 324.285 241.93C325.452 241.565 326.728 241 328.113 240.234L330.273 245.156C329.052 246.122 327.466 246.934 325.516 247.59C323.583 248.246 321.423 248.574 319.035 248.574ZM318.324 224.02C316.848 224.02 315.681 224.585 314.824 225.715C313.967 226.845 313.439 228.331 313.238 230.172L313.32 230.309H323.109V229.598C323.109 227.902 322.708 226.553 321.906 225.551C321.122 224.53 319.928 224.02 318.324 224.02ZM358.875 228.586H353.516L352.668 224.895C352.121 224.457 351.428 224.092 350.59 223.801C349.77 223.509 348.858 223.363 347.855 223.363C346.452 223.363 345.34 223.682 344.52 224.32C343.699 224.94 343.289 225.724 343.289 226.672C343.289 227.565 343.681 228.312 344.465 228.914C345.249 229.497 346.816 230.017 349.168 230.473C352.832 231.202 355.548 232.277 357.316 233.699C359.085 235.103 359.969 237.044 359.969 239.523C359.969 242.185 358.82 244.363 356.523 246.059C354.245 247.736 351.237 248.574 347.5 248.574C345.221 248.574 343.125 248.246 341.211 247.59C339.315 246.915 337.629 245.958 336.152 244.719L336.07 238.074H341.648L342.742 241.93C343.216 242.331 343.863 242.632 344.684 242.832C345.504 243.014 346.361 243.105 347.254 243.105C348.876 243.105 350.107 242.814 350.945 242.23C351.802 241.647 352.23 240.854 352.23 239.852C352.23 238.977 351.802 238.22 350.945 237.582C350.089 236.944 348.512 236.379 346.215 235.887C342.733 235.176 340.099 234.128 338.312 232.742C336.544 231.339 335.66 229.434 335.66 227.027C335.66 224.548 336.681 222.415 338.723 220.629C340.764 218.824 343.672 217.922 347.445 217.922C349.742 217.922 351.911 218.232 353.953 218.852C356.013 219.471 357.626 220.264 358.793 221.23L358.875 228.586ZM387.695 228.586H382.336L381.488 224.895C380.941 224.457 380.249 224.092 379.41 223.801C378.59 223.509 377.678 223.363 376.676 223.363C375.272 223.363 374.16 223.682 373.34 224.32C372.52 224.94 372.109 225.724 372.109 226.672C372.109 227.565 372.501 228.312 373.285 228.914C374.069 229.497 375.637 230.017 377.988 230.473C381.652 231.202 384.368 232.277 386.137 233.699C387.905 235.103 388.789 237.044 388.789 239.523C388.789 242.185 387.641 244.363 385.344 246.059C383.065 247.736 380.057 248.574 376.32 248.574C374.042 248.574 371.945 248.246 370.031 247.59C368.135 246.915 366.449 245.958 364.973 244.719L364.891 238.074H370.469L371.562 241.93C372.036 242.331 372.684 242.632 373.504 242.832C374.324 243.014 375.181 243.105 376.074 243.105C377.697 243.105 378.927 242.814 379.766 242.23C380.622 241.647 381.051 240.854 381.051 239.852C381.051 238.977 380.622 238.22 379.766 237.582C378.909 236.944 377.332 236.379 375.035 235.887C371.553 235.176 368.919 234.128 367.133 232.742C365.365 231.339 364.48 229.434 364.48 227.027C364.48 224.548 365.501 222.415 367.543 220.629C369.585 218.824 372.492 217.922 376.266 217.922C378.562 217.922 380.732 218.232 382.773 218.852C384.833 219.471 386.447 220.264 387.613 221.23L387.695 228.586ZM139.77 274.551L139.605 274.523L128.941 304H123.582L112.973 274.633L112.809 274.66L113.574 292.133V298.395L117.84 299.215V304H101.352V299.215L105.59 298.395V269.82L101.352 269V264.188H105.59H116.008L126.152 293.527H126.316L136.543 264.188H151.254V269L146.988 269.82V298.395L151.254 299.215V304H134.766V299.215L139.004 298.395V292.133L139.77 274.551ZM154.316 288.934C154.316 284.522 155.547 280.913 158.008 278.105C160.487 275.28 163.905 273.867 168.262 273.867C172.637 273.867 176.055 275.271 178.516 278.078C180.995 280.885 182.234 284.504 182.234 288.934V289.508C182.234 293.956 180.995 297.583 178.516 300.391C176.055 303.18 172.655 304.574 168.316 304.574C163.923 304.574 160.487 303.18 158.008 300.391C155.547 297.583 154.316 293.956 154.316 289.508V288.934ZM162.301 289.508C162.301 292.206 162.775 294.375 163.723 296.016C164.671 297.638 166.202 298.449 168.316 298.449C170.376 298.449 171.88 297.629 172.828 295.988C173.794 294.348 174.277 292.188 174.277 289.508V288.934C174.277 286.309 173.794 284.167 172.828 282.508C171.862 280.849 170.34 280.02 168.262 280.02C166.184 280.02 164.671 280.849 163.723 282.508C162.775 284.167 162.301 286.309 162.301 288.934V289.508ZM204.957 300.391C204.027 301.758 202.924 302.797 201.648 303.508C200.391 304.219 198.951 304.574 197.328 304.574C193.682 304.574 190.848 303.243 188.824 300.582C186.819 297.921 185.816 294.402 185.816 290.027V289.453C185.816 284.786 186.828 281.022 188.852 278.16C190.875 275.298 193.719 273.867 197.383 273.867C198.859 273.867 200.19 274.195 201.375 274.852C202.56 275.49 203.599 276.401 204.492 277.586V266.977L200.227 266.156V261.344H204.492H212.477V298.395L216.305 299.215V304H205.559L204.957 300.391ZM193.801 290.027C193.801 292.616 194.229 294.658 195.086 296.152C195.961 297.629 197.383 298.367 199.352 298.367C200.518 298.367 201.53 298.13 202.387 297.656C203.243 297.182 203.945 296.499 204.492 295.605V283.055C203.945 282.107 203.243 281.378 202.387 280.867C201.548 280.339 200.555 280.074 199.406 280.074C197.456 280.074 196.034 280.94 195.141 282.672C194.247 284.404 193.801 286.664 193.801 289.453V290.027ZM233.012 304.574C228.746 304.574 225.337 303.207 222.785 300.473C220.233 297.738 218.957 294.266 218.957 290.055V288.961C218.957 284.568 220.16 280.949 222.566 278.105C224.991 275.262 228.236 273.849 232.301 273.867C236.293 273.867 239.392 275.07 241.598 277.477C243.803 279.883 244.906 283.137 244.906 287.238V291.586H227.242L227.188 291.75C227.333 293.701 227.98 295.305 229.129 296.562C230.296 297.82 231.872 298.449 233.859 298.449C235.628 298.449 237.095 298.276 238.262 297.93C239.428 297.565 240.704 297 242.09 296.234L244.25 301.156C243.029 302.122 241.443 302.934 239.492 303.59C237.56 304.246 235.4 304.574 233.012 304.574ZM232.301 280.02C230.824 280.02 229.658 280.585 228.801 281.715C227.944 282.845 227.415 284.331 227.215 286.172L227.297 286.309H237.086V285.598C237.086 283.902 236.685 282.553 235.883 281.551C235.099 280.53 233.905 280.02 232.301 280.02ZM247.859 266.156V261.344H260.109V298.395L263.965 299.215V304H248.27V299.215L252.125 298.395V266.977L247.859 266.156ZM266.344 299.215L270.199 298.395V280.047L265.934 279.227V274.414H278.184V298.395L282.012 299.215V304H266.344V299.215ZM278.184 267.332H270.199V261.344H278.184V267.332ZM284.199 299.215L288.027 298.395V280.047L283.789 279.227V274.414H295.465L295.82 278.652C296.805 277.139 298.017 275.964 299.457 275.125C300.897 274.286 302.51 273.867 304.297 273.867C307.286 273.867 309.62 274.806 311.297 276.684C312.974 278.561 313.812 281.505 313.812 285.516V298.395L317.641 299.215V304H302.383V299.215L305.801 298.395V285.543C305.801 283.556 305.4 282.152 304.598 281.332C303.796 280.493 302.583 280.074 300.961 280.074C299.904 280.074 298.956 280.293 298.117 280.73C297.279 281.15 296.577 281.751 296.012 282.535V298.395L299.238 299.215V304H284.199V299.215ZM320.402 289.453C320.402 284.786 321.414 281.022 323.438 278.16C325.479 275.298 328.332 273.867 331.996 273.867C333.655 273.867 335.113 274.241 336.371 274.988C337.629 275.717 338.704 276.766 339.598 278.133L340.172 274.414H347.117V303.125C347.117 307.026 345.887 310.134 343.426 312.449C340.983 314.783 337.62 315.949 333.336 315.949C331.841 315.949 330.255 315.74 328.578 315.32C326.901 314.919 325.352 314.363 323.93 313.652L325.406 308.047C326.682 308.594 327.958 309.022 329.234 309.332C330.51 309.66 331.859 309.824 333.281 309.824C335.232 309.824 336.69 309.232 337.656 308.047C338.622 306.862 339.105 305.212 339.105 303.098V301.156C338.23 302.268 337.201 303.116 336.016 303.699C334.831 304.283 333.473 304.574 331.941 304.574C328.314 304.574 325.479 303.243 323.438 300.582C321.414 297.902 320.402 294.384 320.402 290.027V289.453ZM328.387 290.027C328.387 292.616 328.824 294.658 329.699 296.152C330.574 297.629 331.996 298.367 333.965 298.367C335.186 298.367 336.216 298.148 337.055 297.711C337.911 297.255 338.595 296.599 339.105 295.742V282.891C338.595 281.997 337.911 281.305 337.055 280.812C336.216 280.32 335.204 280.074 334.02 280.074C332.069 280.074 330.638 280.94 329.727 282.672C328.833 284.404 328.387 286.664 328.387 289.453V290.027Z" fill="white"/>
<path d="M149.688 107V103.797L152.047 103.297V87.9688L149.688 87.4688V84.25H152.047H160.75C162.562 84.25 164.135 84.5677 165.469 85.2031C166.802 85.8385 167.828 86.724 168.547 87.8594C169.276 88.9844 169.641 90.2969 169.641 91.7969C169.641 93.2969 169.276 94.6094 168.547 95.7344C167.828 96.8594 166.802 97.7344 165.469 98.3594C164.135 98.9844 162.562 99.2969 160.75 99.2969H157.531V103.297L159.891 103.797V107H149.688ZM157.531 95.0938H160.75C161.865 95.0938 162.708 94.7917 163.281 94.1875C163.865 93.5729 164.156 92.7865 164.156 91.8281C164.156 90.8385 163.865 90.026 163.281 89.3906C162.708 88.7552 161.865 88.4375 160.75 88.4375H157.531V95.0938ZM170.656 107V103.797L173.016 103.297V87.9688L170.656 87.4688V84.2344H181.844C183.646 84.2344 185.208 84.5208 186.531 85.0938C187.854 85.6667 188.875 86.4844 189.594 87.5469C190.312 88.599 190.672 89.849 190.672 91.2969C190.672 92.6302 190.307 93.8698 189.578 95.0156C188.859 96.1615 187.87 97.0833 186.609 97.7812C185.349 98.4688 183.911 98.8073 182.297 98.7969L178.5 98.75V103.297L180.859 103.797V107H170.656ZM185.062 107L182 98.125L186.766 96.5L189.531 103.266L191.688 103.812V107H185.062ZM178.5 94.5469H181.906C182.969 94.5469 183.786 94.3021 184.359 93.8125C184.932 93.3125 185.219 92.5938 185.219 91.6562C185.219 90.6875 184.927 89.9115 184.344 89.3281C183.76 88.7344 182.927 88.4375 181.844 88.4375H178.5V94.5469ZM204.016 107.328C202.443 107.328 200.995 107.042 199.672 106.469C198.359 105.885 197.219 105.073 196.25 104.031C195.281 102.99 194.531 101.771 194 100.375C193.479 98.9688 193.219 97.4427 193.219 95.7969V95.4375C193.219 93.8021 193.479 92.2865 194 90.8906C194.531 89.4948 195.276 88.276 196.234 87.2344C197.203 86.1927 198.344 85.3802 199.656 84.7969C200.969 84.2135 202.411 83.9219 203.984 83.9219C205.526 83.9219 206.958 84.2135 208.281 84.7969C209.604 85.3802 210.76 86.1927 211.75 87.2344C212.75 88.276 213.526 89.4948 214.078 90.8906C214.63 92.2865 214.906 93.8021 214.906 95.4375V95.7969C214.906 97.4427 214.63 98.9688 214.078 100.375C213.526 101.771 212.755 102.99 211.766 104.031C210.776 105.073 209.62 105.885 208.297 106.469C206.974 107.042 205.547 107.328 204.016 107.328ZM204.016 103.172C205.161 103.172 206.141 102.865 206.953 102.25C207.766 101.635 208.385 100.776 208.812 99.6719C209.24 98.5677 209.453 97.276 209.453 95.7969V95.4062C209.453 93.9583 209.234 92.6875 208.797 91.5938C208.37 90.4896 207.75 89.6302 206.938 89.0156C206.125 88.401 205.141 88.0938 203.984 88.0938C202.766 88.0938 201.766 88.3958 200.984 89C200.214 89.6042 199.641 90.4531 199.266 91.5469C198.891 92.6406 198.703 93.9271 198.703 95.4062V95.7969C198.703 97.276 198.891 98.5729 199.266 99.6875C199.651 100.792 200.234 101.651 201.016 102.266C201.807 102.87 202.807 103.172 204.016 103.172ZM227.578 107.328C225.411 107.328 223.479 106.891 221.781 106.016C220.083 105.141 218.75 103.875 217.781 102.219C216.812 100.552 216.328 98.5312 216.328 96.1562V95.1094C216.328 92.9219 216.771 90.9896 217.656 89.3125C218.552 87.625 219.823 86.3073 221.469 85.3594C223.125 84.401 225.089 83.9219 227.359 83.9219C228.943 83.9219 230.448 84.1354 231.875 84.5625C233.312 84.9792 234.646 85.6979 235.875 86.7188V92.5781H231.891L231.344 89.2188C230.99 88.9792 230.615 88.7708 230.219 88.5938C229.833 88.4167 229.417 88.2812 228.969 88.1875C228.531 88.0938 228.057 88.0469 227.547 88.0469C226.391 88.0469 225.38 88.3229 224.516 88.875C223.651 89.4271 222.979 90.2292 222.5 91.2812C222.031 92.3229 221.797 93.5885 221.797 95.0781V96.1562C221.797 97.5521 222.042 98.7812 222.531 99.8438C223.021 100.896 223.703 101.719 224.578 102.312C225.464 102.906 226.484 103.203 227.641 103.203C228.255 103.203 228.88 103.141 229.516 103.016C230.151 102.88 230.766 102.703 231.359 102.484L231.906 99.2656H235.906V105C235 105.625 233.844 106.172 232.438 106.641C231.031 107.099 229.411 107.328 227.578 107.328ZM237.344 107V103.797L239.703 103.297V87.9688L237.344 87.4688V84.25H255.516V90.8125H251.375L251.25 88.4688H245.188V93.1406H252.453V97.3438H245.188V102.766H251.547L251.672 100.312H255.766V107H237.344ZM267.766 107.328C265.911 107.328 264.266 107.151 262.828 106.797C261.391 106.443 259.958 105.776 258.531 104.797V98.8906H262.766L263.234 101.922C263.568 102.297 264.156 102.615 265 102.875C265.844 103.125 266.766 103.25 267.766 103.25C268.464 103.25 269.047 103.167 269.516 103C269.984 102.823 270.339 102.568 270.578 102.234C270.818 101.901 270.938 101.5 270.938 101.031C270.938 100.583 270.823 100.182 270.594 99.8281C270.375 99.474 270.01 99.1406 269.5 98.8281C268.99 98.5052 268.302 98.1771 267.438 97.8438C265.49 97.2188 263.891 96.5833 262.641 95.9375C261.391 95.2917 260.458 94.526 259.844 93.6406C259.24 92.7552 258.938 91.6562 258.938 90.3438C258.938 89.0833 259.297 87.9844 260.016 87.0469C260.734 86.099 261.724 85.3542 262.984 84.8125C264.245 84.2708 265.688 83.9844 267.312 83.9531C269.167 83.9115 270.807 84.099 272.234 84.5156C273.661 84.9219 274.922 85.5417 276.016 86.375V91.8594H271.953L271.312 88.8125C270.958 88.6354 270.453 88.474 269.797 88.3281C269.141 88.1823 268.443 88.1094 267.703 88.1094C267.068 88.1094 266.5 88.1927 266 88.3594C265.51 88.526 265.12 88.776 264.828 89.1094C264.547 89.4427 264.406 89.8594 264.406 90.3594C264.406 90.7656 264.526 91.1302 264.766 91.4531C265.005 91.7656 265.427 92.0833 266.031 92.4062C266.635 92.7188 267.479 93.0833 268.562 93.5C271.146 94.2604 273.104 95.2135 274.438 96.3594C275.781 97.4948 276.453 99.0417 276.453 101C276.453 102.344 276.089 103.49 275.359 104.438C274.63 105.375 273.615 106.094 272.312 106.594C271.01 107.083 269.495 107.328 267.766 107.328ZM287.641 107.328C285.786 107.328 284.141 107.151 282.703 106.797C281.266 106.443 279.833 105.776 278.406 104.797V98.8906H282.641L283.109 101.922C283.443 102.297 284.031 102.615 284.875 102.875C285.719 103.125 286.641 103.25 287.641 103.25C288.339 103.25 288.922 103.167 289.391 103C289.859 102.823 290.214 102.568 290.453 102.234C290.693 101.901 290.812 101.5 290.812 101.031C290.812 100.583 290.698 100.182 290.469 99.8281C290.25 99.474 289.885 99.1406 289.375 98.8281C288.865 98.5052 288.177 98.1771 287.312 97.8438C285.365 97.2188 283.766 96.5833 282.516 95.9375C281.266 95.2917 280.333 94.526 279.719 93.6406C279.115 92.7552 278.812 91.6562 278.812 90.3438C278.812 89.0833 279.172 87.9844 279.891 87.0469C280.609 86.099 281.599 85.3542 282.859 84.8125C284.12 84.2708 285.562 83.9844 287.188 83.9531C289.042 83.9115 290.682 84.099 292.109 84.5156C293.536 84.9219 294.797 85.5417 295.891 86.375V91.8594H291.828L291.188 88.8125C290.833 88.6354 290.328 88.474 289.672 88.3281C289.016 88.1823 288.318 88.1094 287.578 88.1094C286.943 88.1094 286.375 88.1927 285.875 88.3594C285.385 88.526 284.995 88.776 284.703 89.1094C284.422 89.4427 284.281 89.8594 284.281 90.3594C284.281 90.7656 284.401 91.1302 284.641 91.4531C284.88 91.7656 285.302 92.0833 285.906 92.4062C286.51 92.7188 287.354 93.0833 288.438 93.5C291.021 94.2604 292.979 95.2135 294.312 96.3594C295.656 97.4948 296.328 99.0417 296.328 101C296.328 102.344 295.964 103.49 295.234 104.438C294.505 105.375 293.49 106.094 292.188 106.594C290.885 107.083 289.37 107.328 287.641 107.328Z" fill="black" fill-opacity="0.3"/>
</g>
<defs>
<clipPath id="clip0_5_371">
<rect width="450" height="512" fill="white"/>
</clipPath>
</defs>
</svg>
