<svg width="450" height="512" viewBox="0 0 450 512" fill="none" xmlns="http://www.w3.org/2000/svg">
<g clip-path="url(#clip0_1_252)">
<path d="M212.66 3.35209C220.296 -1.11736 229.704 -1.11737 237.34 3.35209L434.66 118.842C442.296 123.311 447 131.571 447 140.51V371.49C447 380.429 442.296 388.689 434.66 393.158L237.34 508.648C229.704 513.117 220.296 513.117 212.66 508.648L15.3404 393.158C7.70413 388.689 3 380.429 3 371.49V140.51C3 131.571 7.70413 123.311 15.3404 118.842L212.66 3.35209Z" fill="#00C2FF"/>
<path d="M214.68 6.80426C221.068 3.06525 228.932 3.06525 235.32 6.80426L432.639 122.294C439.034 126.037 443 132.974 443 140.51V371.49C443 379.026 439.034 385.963 432.639 389.706L235.32 505.196C228.932 508.935 221.068 508.935 214.68 505.196L17.3609 389.706C10.9662 385.963 7 379.026 7 371.49V140.51C7 132.974 10.9662 126.037 17.3609 122.294L214.68 6.80426Z" stroke="black" stroke-opacity="0.5" stroke-width="8"/>
<path d="M407 146C407 141.582 410.582 138 415 138C419.418 138 423 141.582 423 146V174.8H407V146Z" fill="black" fill-opacity="0.15"/>
<rect x="407" y="176.8" width="16" height="36.8" fill="black" fill-opacity="0.15"/>
<rect x="407" y="215.6" width="16" height="36.8" fill="white" fill-opacity="0.75"/>
<rect x="407" y="254.4" width="16" height="36.8" fill="white" fill-opacity="0.75"/>
<path d="M407 293.2H423V322C423 326.418 419.418 330 415 330C410.582 330 407 326.418 407 322V293.2Z" fill="white" fill-opacity="0.75"/>
<path d="M28 146C28 141.582 31.5817 138 36 138C40.4183 138 44 141.582 44 146V174.8H28V146Z" fill="black" fill-opacity="0.15"/>
<rect x="28" y="176.8" width="16" height="36.8" fill="white" fill-opacity="0.75"/>
<rect x="28" y="215.6" width="16" height="36.8" fill="white" fill-opacity="0.75"/>
<rect x="28" y="254.4" width="16" height="36.8" fill="white" fill-opacity="0.75"/>
<path d="M28 293.2H44V322C44 326.418 40.4183 330 36 330C31.5817 330 28 326.418 28 322V293.2Z" fill="white" fill-opacity="0.75"/>
<path d="M40.588 363.76L38 362.008V359.992L40.588 358.24C42.716 356.801 44 354.325 44 351.665V349H28V351.665C28 354.325 29.284 356.801 31.412 358.24L34 359.992V362.008L31.412 363.76C29.284 365.199 28 367.675 28 370.335V373H44V370.335C44 367.675 42.716 365.199 40.588 363.76Z" fill="white" fill-opacity="0.75"/>
<path fill-rule="evenodd" clip-rule="evenodd" d="M423.788 358.193L426.539 357.7L427 360.356L424.266 360.845C424.268 360.892 424.274 360.936 424.281 360.981C424.288 361.032 424.295 361.083 424.295 361.135C424.292 362.334 424.062 363.521 423.619 364.631L426.014 366.035L424.686 368.371L422.268 366.953C421.481 367.965 420.498 368.802 419.38 369.412L420.335 372.078L417.84 373L416.899 370.374C415.646 370.641 414.354 370.641 413.101 370.374L412.16 373L409.665 372.078L410.62 369.412C409.502 368.802 408.519 367.965 407.732 366.953L405.314 368.371L403.986 366.035L406.381 364.631C405.938 363.521 405.708 362.334 405.705 361.135C405.705 361.083 405.712 361.032 405.719 360.982C405.726 360.937 405.732 360.892 405.734 360.846L403 360.356L403.461 357.7L406.212 358.193C406.607 356.967 407.247 355.837 408.092 354.874L406.301 352.706L408.335 350.973L410.121 353.134C411.204 352.455 412.413 352.012 413.672 351.833V349H416.328V351.833C417.588 352.012 418.797 352.455 419.879 353.134L421.665 350.972L423.699 352.706L421.908 354.874C422.753 355.837 423.393 356.967 423.788 358.193ZM415.185 363C416.289 363 417.185 362.105 417.185 361C417.185 359.895 416.289 359 415.185 359C414.08 359 413.185 359.895 413.185 361C413.185 362.105 414.08 363 415.185 363Z" fill="white" fill-opacity="0.75"/>
<rect x="82" y="128" width="286" height="4" rx="2" fill="white" fill-opacity="0.3"/>
<rect x="82" y="380" width="286" height="4" rx="2" fill="white" fill-opacity="0.3"/>
<path d="M146.906 230.5H133.426V241.875H146.277L146.633 237.117H152.703V248H121.203V243.215L125.441 242.395V213.82L121.203 213V208.188H125.441H152.648V219.098H146.523L146.168 214.34H133.426V224.348H146.906V230.5ZM170.914 213L167.879 213.547L174.934 237.418L175.426 239.605H175.59L176.055 237.473L183.137 213.547L180.129 213V208.188H194.676V213L191.34 213.438L179.609 248H171.406L159.648 213.438L156.367 213V208.188H170.914V213ZM227.352 220.902H221.363L220.324 215.434C219.632 214.996 218.62 214.613 217.289 214.285C215.958 213.957 214.546 213.793 213.051 213.793C210.863 213.793 209.168 214.258 207.965 215.188C206.78 216.099 206.188 217.284 206.188 218.742C206.188 220.091 206.807 221.203 208.047 222.078C209.305 222.935 211.465 223.846 214.527 224.812C218.921 226.034 222.247 227.647 224.508 229.652C226.786 231.658 227.926 234.292 227.926 237.555C227.926 240.964 226.577 243.652 223.879 245.621C221.181 247.59 217.626 248.574 213.215 248.574C210.061 248.574 207.208 248.073 204.656 247.07C202.122 246.068 200.008 244.682 198.312 242.914V234.602H204.492L205.34 240.262C206.142 240.918 207.227 241.465 208.594 241.902C209.979 242.322 211.52 242.531 213.215 242.531C215.402 242.531 217.061 242.085 218.191 241.191C219.34 240.298 219.914 239.104 219.914 237.609C219.914 236.078 219.367 234.848 218.273 233.918C217.198 232.988 215.302 232.113 212.586 231.293C207.865 229.926 204.292 228.303 201.867 226.426C199.443 224.548 198.23 221.978 198.23 218.715C198.23 215.488 199.598 212.854 202.332 210.812C205.066 208.753 208.503 207.695 212.641 207.641C215.703 207.641 218.492 208.105 221.008 209.035C223.523 209.965 225.638 211.204 227.352 212.754V220.902ZM262.488 208.188C267.173 208.188 270.828 209.099 273.453 210.922C276.078 212.745 277.391 215.47 277.391 219.098C277.391 220.939 276.898 222.589 275.914 224.047C274.948 225.487 273.535 226.572 271.676 227.301C274.064 227.811 275.85 228.905 277.035 230.582C278.238 232.259 278.84 234.201 278.84 236.406C278.84 240.216 277.582 243.105 275.066 245.074C272.551 247.025 268.987 248 264.375 248H244.797V243.215L249.035 242.395V213.82L244.797 213V208.188H249.035H262.488ZM257.02 230.391V241.875H264.375C266.49 241.875 268.103 241.419 269.215 240.508C270.327 239.578 270.883 238.211 270.883 236.406C270.883 234.456 270.409 232.97 269.461 231.949C268.513 230.91 267.018 230.391 264.977 230.391H257.02ZM257.02 224.867H262.762C264.895 224.867 266.535 224.43 267.684 223.555C268.832 222.68 269.406 221.404 269.406 219.727C269.406 217.885 268.823 216.527 267.656 215.652C266.508 214.777 264.785 214.34 262.488 214.34H257.02V224.867ZM281.766 243.215L285.621 242.395V224.047L281.355 223.227V218.414H293.605V242.395L297.434 243.215V248H281.766V243.215ZM293.605 211.332H285.621V205.344H293.605V211.332ZM300.551 233.453C300.551 228.786 301.562 225.022 303.586 222.16C305.628 219.298 308.48 217.867 312.145 217.867C313.803 217.867 315.262 218.241 316.52 218.988C317.777 219.717 318.853 220.766 319.746 222.133L320.32 218.414H327.266V247.125C327.266 251.026 326.035 254.134 323.574 256.449C321.132 258.783 317.768 259.949 313.484 259.949C311.99 259.949 310.404 259.74 308.727 259.32C307.049 258.919 305.5 258.363 304.078 257.652L305.555 252.047C306.831 252.594 308.107 253.022 309.383 253.332C310.659 253.66 312.008 253.824 313.43 253.824C315.38 253.824 316.839 253.232 317.805 252.047C318.771 250.862 319.254 249.212 319.254 247.098V245.156C318.379 246.268 317.349 247.116 316.164 247.699C314.979 248.283 313.621 248.574 312.09 248.574C308.462 248.574 305.628 247.243 303.586 244.582C301.562 241.902 300.551 238.384 300.551 234.027V233.453ZM308.535 234.027C308.535 236.616 308.973 238.658 309.848 240.152C310.723 241.629 312.145 242.367 314.113 242.367C315.335 242.367 316.365 242.148 317.203 241.711C318.06 241.255 318.743 240.599 319.254 239.742V226.891C318.743 225.997 318.06 225.305 317.203 224.812C316.365 224.32 315.353 224.074 314.168 224.074C312.217 224.074 310.786 224.94 309.875 226.672C308.982 228.404 308.535 230.664 308.535 233.453V234.027ZM149.203 264.188C153.76 264.188 157.352 265.363 159.977 267.715C162.62 270.048 163.941 273.111 163.941 276.902C163.941 280.712 162.62 283.775 159.977 286.09C157.352 288.405 153.76 289.562 149.203 289.562H142.477V298.395L146.742 299.215V304H130.254V299.215L134.492 298.395V269.82L130.254 269V264.188H134.492H149.203ZM142.477 283.41H149.203C151.427 283.41 153.104 282.809 154.234 281.605C155.383 280.384 155.957 278.835 155.957 276.957C155.957 275.043 155.383 273.466 154.234 272.227C153.104 270.969 151.427 270.34 149.203 270.34H142.477V283.41ZM166.457 299.215L170.312 298.395V280.047L166.047 279.227V274.414H178.297V298.395L182.125 299.215V304H166.457V299.215ZM178.297 267.332H170.312V261.344H178.297V267.332ZM198.641 298.449C200.062 298.449 201.202 298.039 202.059 297.219C202.915 296.38 203.344 295.268 203.344 293.883H210.562L210.645 294.047C210.717 297.036 209.596 299.543 207.281 301.566C204.966 303.572 202.086 304.574 198.641 304.574C194.229 304.574 190.829 303.18 188.441 300.391C186.053 297.602 184.859 294.02 184.859 289.645V288.824C184.859 284.467 186.081 280.885 188.523 278.078C190.984 275.271 194.484 273.867 199.023 273.867C201.411 273.867 203.553 274.223 205.449 274.934C207.345 275.645 208.922 276.647 210.18 277.941L210.289 285.844H203.809L202.496 281.223C202.095 280.876 201.603 280.594 201.02 280.375C200.436 280.138 199.771 280.02 199.023 280.02C196.763 280.02 195.168 280.84 194.238 282.48C193.309 284.121 192.844 286.236 192.844 288.824V289.645C192.844 292.288 193.272 294.421 194.129 296.043C194.986 297.647 196.49 298.449 198.641 298.449ZM226.066 267.168V274.414H231.262V280.02H226.066V295.086C226.066 296.234 226.303 297.055 226.777 297.547C227.251 298.039 227.889 298.285 228.691 298.285C229.238 298.285 229.712 298.267 230.113 298.23C230.533 298.176 230.997 298.094 231.508 297.984L232.191 303.754C231.298 304.027 230.414 304.228 229.539 304.355C228.664 304.501 227.716 304.574 226.695 304.574C223.943 304.574 221.819 303.818 220.324 302.305C218.848 300.792 218.109 298.395 218.109 295.113V280.02H213.762V274.414H218.109V267.168H226.066ZM255.871 300.254C254.923 301.639 253.747 302.706 252.344 303.453C250.958 304.201 249.372 304.574 247.586 304.574C244.469 304.574 242.026 303.581 240.258 301.594C238.49 299.589 237.605 296.48 237.605 292.27V280.047L234.352 279.227V274.414H237.605H245.59V292.324C245.59 294.475 245.945 296.025 246.656 296.973C247.385 297.902 248.461 298.367 249.883 298.367C251.141 298.367 252.225 298.167 253.137 297.766C254.066 297.346 254.823 296.754 255.406 295.988V280.047L251.906 279.227V274.414H255.406H263.391V298.395L266.973 299.215V304H256.391L255.871 300.254ZM270.719 299.215L274.547 298.395V280.047L270.309 279.227V274.414H281.984L282.34 278.734C283.033 277.203 283.926 276.009 285.02 275.152C286.113 274.296 287.38 273.867 288.82 273.867C289.24 273.867 289.677 273.904 290.133 273.977C290.607 274.031 290.999 274.104 291.309 274.195L290.461 281.469L287.18 281.387C286.013 281.387 285.047 281.615 284.281 282.07C283.516 282.526 282.932 283.173 282.531 284.012V298.395L286.359 299.215V304H270.719V299.215ZM307.305 304.574C303.039 304.574 299.63 303.207 297.078 300.473C294.526 297.738 293.25 294.266 293.25 290.055V288.961C293.25 284.568 294.453 280.949 296.859 278.105C299.284 275.262 302.529 273.849 306.594 273.867C310.586 273.867 313.685 275.07 315.891 277.477C318.096 279.883 319.199 283.137 319.199 287.238V291.586H301.535L301.48 291.75C301.626 293.701 302.273 295.305 303.422 296.562C304.589 297.82 306.165 298.449 308.152 298.449C309.921 298.449 311.388 298.276 312.555 297.93C313.721 297.565 314.997 297 316.383 296.234L318.543 301.156C317.322 302.122 315.736 302.934 313.785 303.59C311.853 304.246 309.693 304.574 307.305 304.574ZM306.594 280.02C305.117 280.02 303.951 280.585 303.094 281.715C302.237 282.845 301.708 284.331 301.508 286.172L301.59 286.309H311.379V285.598C311.379 283.902 310.978 282.553 310.176 281.551C309.392 280.53 308.198 280.02 306.594 280.02Z" fill="white"/>
<path d="M149.688 107V103.797L152.047 103.297V87.9688L149.688 87.4688V84.25H152.047H160.75C162.562 84.25 164.135 84.5677 165.469 85.2031C166.802 85.8385 167.828 86.724 168.547 87.8594C169.276 88.9844 169.641 90.2969 169.641 91.7969C169.641 93.2969 169.276 94.6094 168.547 95.7344C167.828 96.8594 166.802 97.7344 165.469 98.3594C164.135 98.9844 162.562 99.2969 160.75 99.2969H157.531V103.297L159.891 103.797V107H149.688ZM157.531 95.0938H160.75C161.865 95.0938 162.708 94.7917 163.281 94.1875C163.865 93.5729 164.156 92.7865 164.156 91.8281C164.156 90.8385 163.865 90.026 163.281 89.3906C162.708 88.7552 161.865 88.4375 160.75 88.4375H157.531V95.0938ZM170.656 107V103.797L173.016 103.297V87.9688L170.656 87.4688V84.2344H181.844C183.646 84.2344 185.208 84.5208 186.531 85.0938C187.854 85.6667 188.875 86.4844 189.594 87.5469C190.312 88.599 190.672 89.849 190.672 91.2969C190.672 92.6302 190.307 93.8698 189.578 95.0156C188.859 96.1615 187.87 97.0833 186.609 97.7812C185.349 98.4688 183.911 98.8073 182.297 98.7969L178.5 98.75V103.297L180.859 103.797V107H170.656ZM185.062 107L182 98.125L186.766 96.5L189.531 103.266L191.688 103.812V107H185.062ZM178.5 94.5469H181.906C182.969 94.5469 183.786 94.3021 184.359 93.8125C184.932 93.3125 185.219 92.5938 185.219 91.6562C185.219 90.6875 184.927 89.9115 184.344 89.3281C183.76 88.7344 182.927 88.4375 181.844 88.4375H178.5V94.5469ZM204.016 107.328C202.443 107.328 200.995 107.042 199.672 106.469C198.359 105.885 197.219 105.073 196.25 104.031C195.281 102.99 194.531 101.771 194 100.375C193.479 98.9688 193.219 97.4427 193.219 95.7969V95.4375C193.219 93.8021 193.479 92.2865 194 90.8906C194.531 89.4948 195.276 88.276 196.234 87.2344C197.203 86.1927 198.344 85.3802 199.656 84.7969C200.969 84.2135 202.411 83.9219 203.984 83.9219C205.526 83.9219 206.958 84.2135 208.281 84.7969C209.604 85.3802 210.76 86.1927 211.75 87.2344C212.75 88.276 213.526 89.4948 214.078 90.8906C214.63 92.2865 214.906 93.8021 214.906 95.4375V95.7969C214.906 97.4427 214.63 98.9688 214.078 100.375C213.526 101.771 212.755 102.99 211.766 104.031C210.776 105.073 209.62 105.885 208.297 106.469C206.974 107.042 205.547 107.328 204.016 107.328ZM204.016 103.172C205.161 103.172 206.141 102.865 206.953 102.25C207.766 101.635 208.385 100.776 208.812 99.6719C209.24 98.5677 209.453 97.276 209.453 95.7969V95.4062C209.453 93.9583 209.234 92.6875 208.797 91.5938C208.37 90.4896 207.75 89.6302 206.938 89.0156C206.125 88.401 205.141 88.0938 203.984 88.0938C202.766 88.0938 201.766 88.3958 200.984 89C200.214 89.6042 199.641 90.4531 199.266 91.5469C198.891 92.6406 198.703 93.9271 198.703 95.4062V95.7969C198.703 97.276 198.891 98.5729 199.266 99.6875C199.651 100.792 200.234 101.651 201.016 102.266C201.807 102.87 202.807 103.172 204.016 103.172ZM227.578 107.328C225.411 107.328 223.479 106.891 221.781 106.016C220.083 105.141 218.75 103.875 217.781 102.219C216.812 100.552 216.328 98.5312 216.328 96.1562V95.1094C216.328 92.9219 216.771 90.9896 217.656 89.3125C218.552 87.625 219.823 86.3073 221.469 85.3594C223.125 84.401 225.089 83.9219 227.359 83.9219C228.943 83.9219 230.448 84.1354 231.875 84.5625C233.312 84.9792 234.646 85.6979 235.875 86.7188V92.5781H231.891L231.344 89.2188C230.99 88.9792 230.615 88.7708 230.219 88.5938C229.833 88.4167 229.417 88.2812 228.969 88.1875C228.531 88.0938 228.057 88.0469 227.547 88.0469C226.391 88.0469 225.38 88.3229 224.516 88.875C223.651 89.4271 222.979 90.2292 222.5 91.2812C222.031 92.3229 221.797 93.5885 221.797 95.0781V96.1562C221.797 97.5521 222.042 98.7812 222.531 99.8438C223.021 100.896 223.703 101.719 224.578 102.312C225.464 102.906 226.484 103.203 227.641 103.203C228.255 103.203 228.88 103.141 229.516 103.016C230.151 102.88 230.766 102.703 231.359 102.484L231.906 99.2656H235.906V105C235 105.625 233.844 106.172 232.438 106.641C231.031 107.099 229.411 107.328 227.578 107.328ZM237.344 107V103.797L239.703 103.297V87.9688L237.344 87.4688V84.25H255.516V90.8125H251.375L251.25 88.4688H245.188V93.1406H252.453V97.3438H245.188V102.766H251.547L251.672 100.312H255.766V107H237.344ZM267.766 107.328C265.911 107.328 264.266 107.151 262.828 106.797C261.391 106.443 259.958 105.776 258.531 104.797V98.8906H262.766L263.234 101.922C263.568 102.297 264.156 102.615 265 102.875C265.844 103.125 266.766 103.25 267.766 103.25C268.464 103.25 269.047 103.167 269.516 103C269.984 102.823 270.339 102.568 270.578 102.234C270.818 101.901 270.938 101.5 270.938 101.031C270.938 100.583 270.823 100.182 270.594 99.8281C270.375 99.474 270.01 99.1406 269.5 98.8281C268.99 98.5052 268.302 98.1771 267.438 97.8438C265.49 97.2188 263.891 96.5833 262.641 95.9375C261.391 95.2917 260.458 94.526 259.844 93.6406C259.24 92.7552 258.938 91.6562 258.938 90.3438C258.938 89.0833 259.297 87.9844 260.016 87.0469C260.734 86.099 261.724 85.3542 262.984 84.8125C264.245 84.2708 265.688 83.9844 267.312 83.9531C269.167 83.9115 270.807 84.099 272.234 84.5156C273.661 84.9219 274.922 85.5417 276.016 86.375V91.8594H271.953L271.312 88.8125C270.958 88.6354 270.453 88.474 269.797 88.3281C269.141 88.1823 268.443 88.1094 267.703 88.1094C267.068 88.1094 266.5 88.1927 266 88.3594C265.51 88.526 265.12 88.776 264.828 89.1094C264.547 89.4427 264.406 89.8594 264.406 90.3594C264.406 90.7656 264.526 91.1302 264.766 91.4531C265.005 91.7656 265.427 92.0833 266.031 92.4062C266.635 92.7188 267.479 93.0833 268.562 93.5C271.146 94.2604 273.104 95.2135 274.438 96.3594C275.781 97.4948 276.453 99.0417 276.453 101C276.453 102.344 276.089 103.49 275.359 104.438C274.63 105.375 273.615 106.094 272.312 106.594C271.01 107.083 269.495 107.328 267.766 107.328ZM287.641 107.328C285.786 107.328 284.141 107.151 282.703 106.797C281.266 106.443 279.833 105.776 278.406 104.797V98.8906H282.641L283.109 101.922C283.443 102.297 284.031 102.615 284.875 102.875C285.719 103.125 286.641 103.25 287.641 103.25C288.339 103.25 288.922 103.167 289.391 103C289.859 102.823 290.214 102.568 290.453 102.234C290.693 101.901 290.812 101.5 290.812 101.031C290.812 100.583 290.698 100.182 290.469 99.8281C290.25 99.474 289.885 99.1406 289.375 98.8281C288.865 98.5052 288.177 98.1771 287.312 97.8438C285.365 97.2188 283.766 96.5833 282.516 95.9375C281.266 95.2917 280.333 94.526 279.719 93.6406C279.115 92.7552 278.812 91.6562 278.812 90.3438C278.812 89.0833 279.172 87.9844 279.891 87.0469C280.609 86.099 281.599 85.3542 282.859 84.8125C284.12 84.2708 285.562 83.9844 287.188 83.9531C289.042 83.9115 290.682 84.099 292.109 84.5156C293.536 84.9219 294.797 85.5417 295.891 86.375V91.8594H291.828L291.188 88.8125C290.833 88.6354 290.328 88.474 289.672 88.3281C289.016 88.1823 288.318 88.1094 287.578 88.1094C286.943 88.1094 286.375 88.1927 285.875 88.3594C285.385 88.526 284.995 88.776 284.703 89.1094C284.422 89.4427 284.281 89.8594 284.281 90.3594C284.281 90.7656 284.401 91.1302 284.641 91.4531C284.88 91.7656 285.302 92.0833 285.906 92.4062C286.51 92.7188 287.354 93.0833 288.438 93.5C291.021 94.2604 292.979 95.2135 294.312 96.3594C295.656 97.4948 296.328 99.0417 296.328 101C296.328 102.344 295.964 103.49 295.234 104.438C294.505 105.375 293.49 106.094 292.188 106.594C290.885 107.083 289.37 107.328 287.641 107.328Z" fill="black" fill-opacity="0.3"/>
</g>
<defs>
<clipPath id="clip0_1_252">
<rect width="450" height="512" fill="white"/>
</clipPath>
</defs>
</svg>
