<svg width="450" height="512" viewBox="0 0 450 512" fill="none" xmlns="http://www.w3.org/2000/svg">
<path d="M212.66 3.35209C220.296 -1.11736 229.704 -1.11737 237.34 3.35209L434.66 118.842C442.296 123.311 447 131.571 447 140.51V371.49C447 380.429 442.296 388.689 434.66 393.158L237.34 508.648C229.704 513.117 220.296 513.117 212.66 508.648L15.3404 393.158C7.70413 388.689 3 380.429 3 371.49V140.51C3 131.571 7.70413 123.311 15.3404 118.842L212.66 3.35209Z" fill="white"/>
<path d="M214.68 6.80426C221.068 3.06525 228.932 3.06525 235.32 6.80426L432.639 122.294C439.034 126.037 443 132.974 443 140.51V371.49C443 379.026 439.034 385.963 432.639 389.706L235.32 505.196C228.932 508.935 221.068 508.935 214.68 505.196L17.3609 389.706C10.9662 385.963 7 379.026 7 371.49V140.51C7 132.974 10.9662 126.037 17.3609 122.294L214.68 6.80426Z" stroke="black" stroke-opacity="0.5" stroke-width="8"/>
<rect x="82" y="128" width="286" height="4" rx="2" fill="black" fill-opacity="0.3"/>
<rect x="82" y="380" width="286" height="4" rx="2" fill="black" fill-opacity="0.3"/>
<path d="M136.051 258.5H122.57V269.875H135.422L135.777 265.117H141.848V276H110.348V271.215L114.586 270.395V241.82L110.348 241V236.188H114.586H141.793V247.098H135.668L135.312 242.34H122.57V252.348H136.051V258.5ZM145.457 271.215L148.219 270.777L156.258 261.043L148.492 251.691L145.73 251.227V246.414H159.047V251.035L156.34 251.363L160.824 257.051L165.227 251.363L162.465 251.035V246.414H175.836V251.227L173.156 251.691L165.555 261.043L173.566 270.777L176.355 271.215V276H162.82V271.406L165.527 271.078L160.934 265.117L156.258 271.105L158.637 271.406V276H145.457V271.215ZM197.738 276C197.52 275.508 197.328 275.007 197.164 274.496C197 273.967 196.872 273.439 196.781 272.91C195.833 274.004 194.676 274.888 193.309 275.562C191.96 276.237 190.41 276.574 188.66 276.574C185.762 276.574 183.456 275.79 181.742 274.223C180.047 272.637 179.199 270.486 179.199 267.77C179.199 264.999 180.311 262.857 182.535 261.344C184.759 259.831 188.022 259.074 192.324 259.074H196.398V256.176C196.398 254.754 195.988 253.651 195.168 252.867C194.348 252.083 193.135 251.691 191.531 251.691C190.62 251.691 189.809 251.801 189.098 252.02C188.387 252.22 187.812 252.466 187.375 252.758L186.855 255.93H180.84L180.867 249.367C182.326 248.383 183.993 247.553 185.871 246.879C187.767 246.204 189.827 245.867 192.051 245.867C195.715 245.867 198.686 246.77 200.965 248.574C203.262 250.361 204.41 252.913 204.41 256.23V268.453C204.41 268.909 204.41 269.337 204.41 269.738C204.428 270.139 204.465 270.522 204.52 270.887L206.953 271.215V276H197.738ZM190.82 270.668C192.023 270.668 193.117 270.413 194.102 269.902C195.086 269.374 195.852 268.717 196.398 267.934V263.422H192.324C190.629 263.422 189.344 263.823 188.469 264.625C187.594 265.409 187.156 266.357 187.156 267.469C187.156 268.471 187.475 269.255 188.113 269.82C188.77 270.385 189.672 270.668 190.82 270.668ZM208.758 251.227V246.414H220.434L220.762 250.324C221.71 248.902 222.895 247.809 224.316 247.043C225.757 246.259 227.415 245.867 229.293 245.867C231.189 245.867 232.811 246.286 234.16 247.125C235.509 247.964 236.53 249.23 237.223 250.926C238.134 249.34 239.319 248.1 240.777 247.207C242.236 246.314 243.949 245.867 245.918 245.867C248.835 245.867 251.132 246.879 252.809 248.902C254.504 250.908 255.352 253.97 255.352 258.09V270.395L259.207 271.215V276H243.922V271.215L247.367 270.395V258.062C247.367 255.82 247.003 254.262 246.273 253.387C245.544 252.512 244.46 252.074 243.02 252.074C241.889 252.074 240.905 252.329 240.066 252.84C239.246 253.332 238.59 254.025 238.098 254.918C238.098 255.264 238.107 255.565 238.125 255.82C238.143 256.057 238.152 256.303 238.152 256.559V270.395L241.379 271.215V276H226.969V271.215L230.195 270.395V258.062C230.195 255.875 229.831 254.335 229.102 253.441C228.372 252.53 227.279 252.074 225.82 252.074C224.745 252.074 223.797 252.284 222.977 252.703C222.174 253.104 221.509 253.678 220.98 254.426V270.395L224.426 271.215V276H209.168V271.215L213.023 270.395V252.047L208.758 251.227ZM261.203 251.227V246.414H272.797L273.18 249.859C274.055 248.583 275.103 247.599 276.324 246.906C277.546 246.214 278.967 245.867 280.59 245.867C284.254 245.867 287.098 247.298 289.121 250.16C291.145 253.022 292.156 256.786 292.156 261.453V262.027C292.156 266.402 291.145 269.921 289.121 272.582C287.098 275.243 284.272 276.574 280.645 276.574C279.095 276.574 277.719 276.292 276.516 275.727C275.312 275.143 274.283 274.296 273.426 273.184V281.742L277.281 282.562V287.375H261.613V282.562L265.469 281.742V252.047L261.203 251.227ZM284.172 261.453C284.172 258.664 283.707 256.404 282.777 254.672C281.848 252.94 280.426 252.074 278.512 252.074C277.309 252.074 276.279 252.32 275.422 252.812C274.583 253.305 273.918 254.007 273.426 254.918V267.879C273.918 268.717 274.583 269.355 275.422 269.793C276.279 270.23 277.327 270.449 278.566 270.449C280.499 270.449 281.911 269.693 282.805 268.18C283.716 266.667 284.172 264.616 284.172 262.027V261.453ZM294.316 238.156V233.344H306.566V270.395L310.422 271.215V276H294.727V271.215L298.582 270.395V238.977L294.316 238.156ZM327.211 276.574C322.945 276.574 319.536 275.207 316.984 272.473C314.432 269.738 313.156 266.266 313.156 262.055V260.961C313.156 256.568 314.359 252.949 316.766 250.105C319.19 247.262 322.435 245.849 326.5 245.867C330.492 245.867 333.591 247.07 335.797 249.477C338.003 251.883 339.105 255.137 339.105 259.238V263.586H321.441L321.387 263.75C321.533 265.701 322.18 267.305 323.328 268.562C324.495 269.82 326.072 270.449 328.059 270.449C329.827 270.449 331.294 270.276 332.461 269.93C333.628 269.565 334.904 269 336.289 268.234L338.449 273.156C337.228 274.122 335.642 274.934 333.691 275.59C331.759 276.246 329.599 276.574 327.211 276.574ZM326.5 252.02C325.023 252.02 323.857 252.585 323 253.715C322.143 254.845 321.615 256.331 321.414 258.172L321.496 258.309H331.285V257.598C331.285 255.902 330.884 254.553 330.082 253.551C329.298 252.53 328.104 252.02 326.5 252.02Z" fill="black"/>
<path d="M145.844 97V93.7969L147.438 93.5625L154.219 74.25H160.156L166.953 93.5625L168.547 93.7969V97H160.047V93.7969L161.531 93.5156L160.844 91.0469H153.531L152.875 93.5156L154.359 93.7969V97H145.844ZM154.688 87.2031H159.672L157.453 80.3125L157.203 79.5156H157.109L156.844 80.3906L154.688 87.2031ZM169.547 97V93.7969L171.906 93.2969V77.9688L169.547 77.4688V74.2344H180.734C182.536 74.2344 184.099 74.5208 185.422 75.0938C186.745 75.6667 187.766 76.4844 188.484 77.5469C189.203 78.599 189.562 79.849 189.562 81.2969C189.562 82.6302 189.198 83.8698 188.469 85.0156C187.75 86.1615 186.76 87.0833 185.5 87.7812C184.24 88.4688 182.802 88.8073 181.188 88.7969L177.391 88.75V93.2969L179.75 93.7969V97H169.547ZM183.953 97L180.891 88.125L185.656 86.5L188.422 93.2656L190.578 93.8125V97H183.953ZM177.391 84.5469H180.797C181.859 84.5469 182.677 84.3021 183.25 83.8125C183.823 83.3125 184.109 82.5938 184.109 81.6562C184.109 80.6875 183.818 79.9115 183.234 79.3281C182.651 78.7344 181.818 78.4375 180.734 78.4375H177.391V84.5469ZM196.312 97V93.7969L198.688 93.2969V78.5H195.172L195.031 80.9531H190.891V74.25H212.031V80.9531H207.844L207.719 78.5H204.172V93.2969L206.547 93.7969V97H196.312ZM212.859 97V93.7969L215.219 93.2969V77.9688L212.859 77.4688V74.25H223.047V77.4688L220.688 77.9688V93.2969L223.047 93.7969V97H212.859ZM224.297 97V93.7969L226.656 93.2969V77.9688L224.297 77.4688V74.25H243.031V80.9531H238.891L238.781 78.4688H232.141V83.7344H239.875V87.9219H232.141V93.2969L234.5 93.7969V97H224.297ZM240.25 97V93.7969L241.844 93.5625L248.625 74.25H254.562L261.359 93.5625L262.953 93.7969V97H254.453V93.7969L255.938 93.5156L255.25 91.0469H247.938L247.281 93.5156L248.766 93.7969V97H240.25ZM249.094 87.2031H254.078L251.859 80.3125L251.609 79.5156H251.516L251.25 80.3906L249.094 87.2031ZM274.281 97.3281C272.115 97.3281 270.182 96.8906 268.484 96.0156C266.786 95.1406 265.453 93.875 264.484 92.2188C263.516 90.5521 263.031 88.5312 263.031 86.1562V85.1094C263.031 82.9219 263.474 80.9896 264.359 79.3125C265.255 77.625 266.526 76.3073 268.172 75.3594C269.828 74.401 271.792 73.9219 274.062 73.9219C275.646 73.9219 277.151 74.1354 278.578 74.5625C280.016 74.9792 281.349 75.6979 282.578 76.7188V82.5781H278.594L278.047 79.2188C277.693 78.9792 277.318 78.7708 276.922 78.5938C276.536 78.4167 276.12 78.2812 275.672 78.1875C275.234 78.0938 274.76 78.0469 274.25 78.0469C273.094 78.0469 272.083 78.3229 271.219 78.875C270.354 79.4271 269.682 80.2292 269.203 81.2812C268.734 82.3229 268.5 83.5885 268.5 85.0781V86.1562C268.5 87.5521 268.745 88.7812 269.234 89.8438C269.724 90.8958 270.406 91.7188 271.281 92.3125C272.167 92.9062 273.188 93.2031 274.344 93.2031C274.958 93.2031 275.583 93.1406 276.219 93.0156C276.854 92.8802 277.469 92.7031 278.062 92.4844L278.609 89.2656H282.609V95C281.703 95.625 280.547 96.1719 279.141 96.6406C277.734 97.099 276.115 97.3281 274.281 97.3281ZM288.594 97V93.7969L290.969 93.2969V78.5H287.453L287.312 80.9531H283.172V74.25H304.312V80.9531H300.125L300 78.5H296.453V93.2969L298.828 93.7969V97H288.594Z" fill="black" fill-opacity="0.3"/>
<path d="M180.969 438.328C179.115 438.328 177.469 438.151 176.031 437.797C174.594 437.443 173.161 436.776 171.734 435.797V429.891H175.969L176.438 432.922C176.771 433.297 177.359 433.615 178.203 433.875C179.047 434.125 179.969 434.25 180.969 434.25C181.667 434.25 182.25 434.167 182.719 434C183.188 433.823 183.542 433.568 183.781 433.234C184.021 432.901 184.141 432.5 184.141 432.031C184.141 431.583 184.026 431.182 183.797 430.828C183.578 430.474 183.214 430.141 182.703 429.828C182.193 429.505 181.505 429.177 180.641 428.844C178.693 428.219 177.094 427.583 175.844 426.938C174.594 426.292 173.661 425.526 173.047 424.641C172.443 423.755 172.141 422.656 172.141 421.344C172.141 420.083 172.5 418.984 173.219 418.047C173.938 417.099 174.927 416.354 176.188 415.812C177.448 415.271 178.891 414.984 180.516 414.953C182.37 414.911 184.01 415.099 185.438 415.516C186.865 415.922 188.125 416.542 189.219 417.375V422.859H185.156L184.516 419.812C184.161 419.635 183.656 419.474 183 419.328C182.344 419.182 181.646 419.109 180.906 419.109C180.271 419.109 179.703 419.193 179.203 419.359C178.714 419.526 178.323 419.776 178.031 420.109C177.75 420.443 177.609 420.859 177.609 421.359C177.609 421.766 177.729 422.13 177.969 422.453C178.208 422.766 178.63 423.083 179.234 423.406C179.839 423.719 180.682 424.083 181.766 424.5C184.349 425.26 186.307 426.214 187.641 427.359C188.984 428.495 189.656 430.042 189.656 432C189.656 433.344 189.292 434.49 188.562 435.438C187.833 436.375 186.818 437.094 185.516 437.594C184.214 438.083 182.698 438.328 180.969 438.328ZM195.906 438V434.797L198.281 434.297V419.5H194.766L194.625 421.953H190.484V415.25H211.625V421.953H207.438L207.312 419.5H203.766V434.297L206.141 434.797V438H195.906ZM223.156 438.328C221.583 438.328 220.135 438.042 218.812 437.469C217.5 436.885 216.359 436.073 215.391 435.031C214.422 433.99 213.672 432.771 213.141 431.375C212.62 429.969 212.359 428.443 212.359 426.797V426.438C212.359 424.802 212.62 423.286 213.141 421.891C213.672 420.495 214.417 419.276 215.375 418.234C216.344 417.193 217.484 416.38 218.797 415.797C220.109 415.214 221.552 414.922 223.125 414.922C224.667 414.922 226.099 415.214 227.422 415.797C228.745 416.38 229.901 417.193 230.891 418.234C231.891 419.276 232.667 420.495 233.219 421.891C233.771 423.286 234.047 424.802 234.047 426.438V426.797C234.047 428.443 233.771 429.969 233.219 431.375C232.667 432.771 231.896 433.99 230.906 435.031C229.917 436.073 228.76 436.885 227.438 437.469C226.115 438.042 224.688 438.328 223.156 438.328ZM223.156 434.172C224.302 434.172 225.281 433.865 226.094 433.25C226.906 432.635 227.526 431.776 227.953 430.672C228.38 429.568 228.594 428.276 228.594 426.797V426.406C228.594 424.958 228.375 423.688 227.938 422.594C227.51 421.49 226.891 420.63 226.078 420.016C225.266 419.401 224.281 419.094 223.125 419.094C221.906 419.094 220.906 419.396 220.125 420C219.354 420.604 218.781 421.453 218.406 422.547C218.031 423.641 217.844 424.927 217.844 426.406V426.797C217.844 428.276 218.031 429.573 218.406 430.688C218.792 431.792 219.375 432.651 220.156 433.266C220.948 433.87 221.948 434.172 223.156 434.172ZM235.547 438V434.797L237.906 434.297V418.969L235.547 418.469V415.234H246.734C248.536 415.234 250.099 415.521 251.422 416.094C252.745 416.667 253.766 417.484 254.484 418.547C255.203 419.599 255.562 420.849 255.562 422.297C255.562 423.63 255.198 424.87 254.469 426.016C253.75 427.161 252.76 428.083 251.5 428.781C250.24 429.469 248.802 429.807 247.188 429.797L243.391 429.75V434.297L245.75 434.797V438H235.547ZM249.953 438L246.891 429.125L251.656 427.5L254.422 434.266L256.578 434.812V438H249.953ZM243.391 425.547H246.797C247.859 425.547 248.677 425.302 249.25 424.812C249.823 424.312 250.109 423.594 250.109 422.656C250.109 421.688 249.818 420.911 249.234 420.328C248.651 419.734 247.818 419.438 246.734 419.438H243.391V425.547ZM262.469 438V434.797L264.828 434.297V430.5L258.234 418.797L255.859 418.469V415.25H265.703V418.469L264.297 418.719L267.422 424.953L267.781 425.75H267.922L268.297 425L271.953 418.719L269.578 418.469V415.25H279.234V418.469L276.828 418.797L270.297 430.062V434.297L272.672 434.797V438H262.469Z" fill="black" fill-opacity="0.3"/>
</svg>
