<svg width="450" height="512" viewBox="0 0 450 512" fill="none" xmlns="http://www.w3.org/2000/svg">
<g clip-path="url(#clip0_1_7)">
<path d="M212.66 3.35209C220.296 -1.11736 229.704 -1.11737 237.34 3.35209L434.66 118.842C442.296 123.311 447 131.571 447 140.51V371.49C447 380.429 442.296 388.689 434.66 393.158L237.34 508.648C229.704 513.117 220.296 513.117 212.66 508.648L15.3404 393.158C7.70413 388.689 3 380.429 3 371.49V140.51C3 131.571 7.70413 123.311 15.3404 118.842L212.66 3.35209Z" fill="#00C2FF"/>
<path d="M214.68 6.80426C221.068 3.06525 228.932 3.06525 235.32 6.80426L432.639 122.294C439.034 126.037 443 132.974 443 140.51V371.49C443 379.026 439.034 385.963 432.639 389.706L235.32 505.196C228.932 508.935 221.068 508.935 214.68 505.196L17.3609 389.706C10.9662 385.963 7 379.026 7 371.49V140.51C7 132.974 10.9662 126.037 17.3609 122.294L214.68 6.80426Z" stroke="black" stroke-opacity="0.5" stroke-width="8"/>
<path d="M407 146C407 141.582 410.582 138 415 138C419.418 138 423 141.582 423 146V174.8H407V146Z" fill="black" fill-opacity="0.15"/>
<rect x="407" y="176.8" width="16" height="36.8" fill="black" fill-opacity="0.15"/>
<rect x="407" y="215.6" width="16" height="36.8" fill="black" fill-opacity="0.15"/>
<rect x="407" y="254.4" width="16" height="36.8" fill="white" fill-opacity="0.75"/>
<path d="M407 293.2H423V322C423 326.418 419.418 330 415 330C410.582 330 407 326.418 407 322V293.2Z" fill="white" fill-opacity="0.75"/>
<path d="M28 146C28 141.582 31.5817 138 36 138C40.4183 138 44 141.582 44 146V174.8H28V146Z" fill="black" fill-opacity="0.15"/>
<rect x="28" y="176.8" width="16" height="36.8" fill="black" fill-opacity="0.15"/>
<rect x="28" y="215.6" width="16" height="36.8" fill="black" fill-opacity="0.15"/>
<rect x="28" y="254.4" width="16" height="36.8" fill="black" fill-opacity="0.15"/>
<path d="M28 293.2H44V322C44 326.418 40.4183 330 36 330C31.5817 330 28 326.418 28 322V293.2Z" fill="white" fill-opacity="0.75"/>
<path d="M40.588 363.76L38 362.008V359.992L40.588 358.24C42.716 356.801 44 354.325 44 351.665V349H28V351.665C28 354.325 29.284 356.801 31.412 358.24L34 359.992V362.008L31.412 363.76C29.284 365.199 28 367.675 28 370.335V373H44V370.335C44 367.675 42.716 365.199 40.588 363.76Z" fill="white" fill-opacity="0.75"/>
<path fill-rule="evenodd" clip-rule="evenodd" d="M423.788 358.193L426.539 357.7L427 360.356L424.266 360.845C424.268 360.892 424.274 360.936 424.281 360.981C424.288 361.032 424.295 361.083 424.295 361.135C424.292 362.334 424.062 363.521 423.619 364.631L426.014 366.035L424.686 368.371L422.268 366.953C421.481 367.965 420.498 368.802 419.38 369.412L420.335 372.078L417.84 373L416.899 370.374C415.646 370.641 414.354 370.641 413.101 370.374L412.16 373L409.665 372.078L410.62 369.412C409.502 368.802 408.519 367.965 407.732 366.953L405.314 368.371L403.986 366.035L406.381 364.631C405.938 363.521 405.708 362.334 405.705 361.135C405.705 361.083 405.712 361.032 405.719 360.982C405.726 360.937 405.732 360.892 405.734 360.846L403 360.356L403.461 357.7L406.212 358.193C406.607 356.967 407.247 355.837 408.092 354.874L406.301 352.706L408.335 350.973L410.121 353.134C411.204 352.455 412.413 352.012 413.672 351.833V349H416.328V351.833C417.588 352.012 418.797 352.455 419.879 353.134L421.665 350.972L423.699 352.706L421.908 354.874C422.753 355.837 423.393 356.967 423.788 358.193ZM415.185 363C416.289 363 417.185 362.105 417.185 361C417.185 359.895 416.289 359 415.185 359C414.08 359 413.185 359.895 413.185 361C413.185 362.105 414.08 363 415.185 363Z" fill="white" fill-opacity="0.75"/>
<rect x="82" y="128" width="286" height="4" rx="2" fill="white" fill-opacity="0.3"/>
<rect x="82" y="380" width="286" height="4" rx="2" fill="white" fill-opacity="0.3"/>
<path d="M136.051 230.5H122.57V241.875H135.422L135.777 237.117H141.848V248H110.348V243.215L114.586 242.395V213.82L110.348 213V208.188H114.586H141.793V219.098H135.668L135.312 214.34H122.57V224.348H136.051V230.5ZM145.457 243.215L148.219 242.777L156.258 233.043L148.492 223.691L145.73 223.227V218.414H159.047V223.035L156.34 223.363L160.824 229.051L165.227 223.363L162.465 223.035V218.414H175.836V223.227L173.156 223.691L165.555 233.043L173.566 242.777L176.355 243.215V248H162.82V243.406L165.527 243.078L160.934 237.117L156.258 243.105L158.637 243.406V248H145.457V243.215ZM197.738 248C197.52 247.508 197.328 247.007 197.164 246.496C197 245.967 196.872 245.439 196.781 244.91C195.833 246.004 194.676 246.888 193.309 247.562C191.96 248.237 190.41 248.574 188.66 248.574C185.762 248.574 183.456 247.79 181.742 246.223C180.047 244.637 179.199 242.486 179.199 239.77C179.199 236.999 180.311 234.857 182.535 233.344C184.759 231.831 188.022 231.074 192.324 231.074H196.398V228.176C196.398 226.754 195.988 225.651 195.168 224.867C194.348 224.083 193.135 223.691 191.531 223.691C190.62 223.691 189.809 223.801 189.098 224.02C188.387 224.22 187.812 224.466 187.375 224.758L186.855 227.93H180.84L180.867 221.367C182.326 220.383 183.993 219.553 185.871 218.879C187.767 218.204 189.827 217.867 192.051 217.867C195.715 217.867 198.686 218.77 200.965 220.574C203.262 222.361 204.41 224.913 204.41 228.23V240.453C204.41 240.909 204.41 241.337 204.41 241.738C204.428 242.139 204.465 242.522 204.52 242.887L206.953 243.215V248H197.738ZM190.82 242.668C192.023 242.668 193.117 242.413 194.102 241.902C195.086 241.374 195.852 240.717 196.398 239.934V235.422H192.324C190.629 235.422 189.344 235.823 188.469 236.625C187.594 237.409 187.156 238.357 187.156 239.469C187.156 240.471 187.475 241.255 188.113 241.82C188.77 242.385 189.672 242.668 190.82 242.668ZM208.758 223.227V218.414H220.434L220.762 222.324C221.71 220.902 222.895 219.809 224.316 219.043C225.757 218.259 227.415 217.867 229.293 217.867C231.189 217.867 232.811 218.286 234.16 219.125C235.509 219.964 236.53 221.23 237.223 222.926C238.134 221.34 239.319 220.1 240.777 219.207C242.236 218.314 243.949 217.867 245.918 217.867C248.835 217.867 251.132 218.879 252.809 220.902C254.504 222.908 255.352 225.97 255.352 230.09V242.395L259.207 243.215V248H243.922V243.215L247.367 242.395V230.062C247.367 227.82 247.003 226.262 246.273 225.387C245.544 224.512 244.46 224.074 243.02 224.074C241.889 224.074 240.905 224.329 240.066 224.84C239.246 225.332 238.59 226.025 238.098 226.918C238.098 227.264 238.107 227.565 238.125 227.82C238.143 228.057 238.152 228.303 238.152 228.559V242.395L241.379 243.215V248H226.969V243.215L230.195 242.395V230.062C230.195 227.875 229.831 226.335 229.102 225.441C228.372 224.53 227.279 224.074 225.82 224.074C224.745 224.074 223.797 224.284 222.977 224.703C222.174 225.104 221.509 225.678 220.98 226.426V242.395L224.426 243.215V248H209.168V243.215L213.023 242.395V224.047L208.758 223.227ZM261.203 223.227V218.414H272.797L273.18 221.859C274.055 220.583 275.103 219.599 276.324 218.906C277.546 218.214 278.967 217.867 280.59 217.867C284.254 217.867 287.098 219.298 289.121 222.16C291.145 225.022 292.156 228.786 292.156 233.453V234.027C292.156 238.402 291.145 241.921 289.121 244.582C287.098 247.243 284.272 248.574 280.645 248.574C279.095 248.574 277.719 248.292 276.516 247.727C275.312 247.143 274.283 246.296 273.426 245.184V253.742L277.281 254.562V259.375H261.613V254.562L265.469 253.742V224.047L261.203 223.227ZM284.172 233.453C284.172 230.664 283.707 228.404 282.777 226.672C281.848 224.94 280.426 224.074 278.512 224.074C277.309 224.074 276.279 224.32 275.422 224.812C274.583 225.305 273.918 226.007 273.426 226.918V239.879C273.918 240.717 274.583 241.355 275.422 241.793C276.279 242.23 277.327 242.449 278.566 242.449C280.499 242.449 281.911 241.693 282.805 240.18C283.716 238.667 284.172 236.616 284.172 234.027V233.453ZM294.316 210.156V205.344H306.566V242.395L310.422 243.215V248H294.727V243.215L298.582 242.395V210.977L294.316 210.156ZM327.211 248.574C322.945 248.574 319.536 247.207 316.984 244.473C314.432 241.738 313.156 238.266 313.156 234.055V232.961C313.156 228.568 314.359 224.949 316.766 222.105C319.19 219.262 322.435 217.849 326.5 217.867C330.492 217.867 333.591 219.07 335.797 221.477C338.003 223.883 339.105 227.137 339.105 231.238V235.586H321.441L321.387 235.75C321.533 237.701 322.18 239.305 323.328 240.562C324.495 241.82 326.072 242.449 328.059 242.449C329.827 242.449 331.294 242.276 332.461 241.93C333.628 241.565 334.904 241 336.289 240.234L338.449 245.156C337.228 246.122 335.642 246.934 333.691 247.59C331.759 248.246 329.599 248.574 327.211 248.574ZM326.5 224.02C325.023 224.02 323.857 224.585 323 225.715C322.143 226.845 321.615 228.331 321.414 230.172L321.496 230.309H331.285V229.598C331.285 227.902 330.884 226.553 330.082 225.551C329.298 224.53 328.104 224.02 326.5 224.02ZM146.605 274.551L146.441 274.523L135.777 304H130.418L119.809 274.633L119.645 274.66L120.41 292.133V298.395L124.676 299.215V304H108.188V299.215L112.426 298.395V269.82L108.188 269V264.188H112.426H122.844L132.988 293.527H133.152L143.379 264.188H158.09V269L153.824 269.82V298.395L158.09 299.215V304H141.602V299.215L145.84 298.395V292.133L146.605 274.551ZM179.992 304C179.773 303.508 179.582 303.007 179.418 302.496C179.254 301.967 179.126 301.439 179.035 300.91C178.087 302.004 176.93 302.888 175.562 303.562C174.214 304.237 172.664 304.574 170.914 304.574C168.016 304.574 165.71 303.79 163.996 302.223C162.301 300.637 161.453 298.486 161.453 295.77C161.453 292.999 162.565 290.857 164.789 289.344C167.013 287.831 170.276 287.074 174.578 287.074H178.652V284.176C178.652 282.754 178.242 281.651 177.422 280.867C176.602 280.083 175.389 279.691 173.785 279.691C172.874 279.691 172.062 279.801 171.352 280.02C170.641 280.22 170.066 280.466 169.629 280.758L169.109 283.93H163.094L163.121 277.367C164.579 276.383 166.247 275.553 168.125 274.879C170.021 274.204 172.081 273.867 174.305 273.867C177.969 273.867 180.94 274.77 183.219 276.574C185.516 278.361 186.664 280.913 186.664 284.23V296.453C186.664 296.909 186.664 297.337 186.664 297.738C186.682 298.139 186.719 298.522 186.773 298.887L189.207 299.215V304H179.992ZM173.074 298.668C174.277 298.668 175.371 298.413 176.355 297.902C177.34 297.374 178.105 296.717 178.652 295.934V291.422H174.578C172.883 291.422 171.598 291.823 170.723 292.625C169.848 293.409 169.41 294.357 169.41 295.469C169.41 296.471 169.729 297.255 170.367 297.82C171.023 298.385 171.926 298.668 173.074 298.668ZM191.34 279.227V274.414H202.934L203.316 277.859C204.191 276.583 205.24 275.599 206.461 274.906C207.682 274.214 209.104 273.867 210.727 273.867C214.391 273.867 217.234 275.298 219.258 278.16C221.281 281.022 222.293 284.786 222.293 289.453V290.027C222.293 294.402 221.281 297.921 219.258 300.582C217.234 303.243 214.409 304.574 210.781 304.574C209.232 304.574 207.855 304.292 206.652 303.727C205.449 303.143 204.419 302.296 203.562 301.184V309.742L207.418 310.562V315.375H191.75V310.562L195.605 309.742V280.047L191.34 279.227ZM214.309 289.453C214.309 286.664 213.844 284.404 212.914 282.672C211.984 280.94 210.562 280.074 208.648 280.074C207.445 280.074 206.415 280.32 205.559 280.812C204.72 281.305 204.055 282.007 203.562 282.918V295.879C204.055 296.717 204.72 297.355 205.559 297.793C206.415 298.23 207.464 298.449 208.703 298.449C210.635 298.449 212.048 297.693 212.941 296.18C213.853 294.667 214.309 292.616 214.309 290.027V289.453ZM225.246 279.227V274.414H236.84L237.223 277.859C238.098 276.583 239.146 275.599 240.367 274.906C241.589 274.214 243.01 273.867 244.633 273.867C248.297 273.867 251.141 275.298 253.164 278.16C255.188 281.022 256.199 284.786 256.199 289.453V290.027C256.199 294.402 255.188 297.921 253.164 300.582C251.141 303.243 248.315 304.574 244.688 304.574C243.138 304.574 241.762 304.292 240.559 303.727C239.355 303.143 238.326 302.296 237.469 301.184V309.742L241.324 310.562V315.375H225.656V310.562L229.512 309.742V280.047L225.246 279.227ZM248.215 289.453C248.215 286.664 247.75 284.404 246.82 282.672C245.891 280.94 244.469 280.074 242.555 280.074C241.352 280.074 240.322 280.32 239.465 280.812C238.626 281.305 237.961 282.007 237.469 282.918V295.879C237.961 296.717 238.626 297.355 239.465 297.793C240.322 298.23 241.37 298.449 242.609 298.449C244.542 298.449 245.954 297.693 246.848 296.18C247.759 294.667 248.215 292.616 248.215 290.027V289.453ZM259.508 299.215L263.363 298.395V280.047L259.098 279.227V274.414H271.348V298.395L275.176 299.215V304H259.508V299.215ZM271.348 267.332H263.363V261.344H271.348V267.332ZM277.363 299.215L281.191 298.395V280.047L276.953 279.227V274.414H288.629L288.984 278.652C289.969 277.139 291.181 275.964 292.621 275.125C294.061 274.286 295.674 273.867 297.461 273.867C300.451 273.867 302.784 274.806 304.461 276.684C306.138 278.561 306.977 281.505 306.977 285.516V298.395L310.805 299.215V304H295.547V299.215L298.965 298.395V285.543C298.965 283.556 298.564 282.152 297.762 281.332C296.96 280.493 295.747 280.074 294.125 280.074C293.068 280.074 292.12 280.293 291.281 280.73C290.443 281.15 289.741 281.751 289.176 282.535V298.395L292.402 299.215V304H277.363V299.215ZM313.566 289.453C313.566 284.786 314.578 281.022 316.602 278.16C318.643 275.298 321.496 273.867 325.16 273.867C326.819 273.867 328.277 274.241 329.535 274.988C330.793 275.717 331.868 276.766 332.762 278.133L333.336 274.414H340.281V303.125C340.281 307.026 339.051 310.134 336.59 312.449C334.147 314.783 330.784 315.949 326.5 315.949C325.005 315.949 323.419 315.74 321.742 315.32C320.065 314.919 318.516 314.363 317.094 313.652L318.57 308.047C319.846 308.594 321.122 309.022 322.398 309.332C323.674 309.66 325.023 309.824 326.445 309.824C328.396 309.824 329.854 309.232 330.82 308.047C331.786 306.862 332.27 305.212 332.27 303.098V301.156C331.395 302.268 330.365 303.116 329.18 303.699C327.995 304.283 326.637 304.574 325.105 304.574C321.478 304.574 318.643 303.243 316.602 300.582C314.578 297.902 313.566 294.384 313.566 290.027V289.453ZM321.551 290.027C321.551 292.616 321.988 294.658 322.863 296.152C323.738 297.629 325.16 298.367 327.129 298.367C328.35 298.367 329.38 298.148 330.219 297.711C331.076 297.255 331.759 296.599 332.27 295.742V282.891C331.759 281.997 331.076 281.305 330.219 280.812C329.38 280.32 328.368 280.074 327.184 280.074C325.233 280.074 323.802 280.94 322.891 282.672C321.997 284.404 321.551 286.664 321.551 289.453V290.027Z" fill="white"/>
<path d="M149.688 107V103.797L152.047 103.297V87.9688L149.688 87.4688V84.25H152.047H160.75C162.562 84.25 164.135 84.5677 165.469 85.2031C166.802 85.8385 167.828 86.724 168.547 87.8594C169.276 88.9844 169.641 90.2969 169.641 91.7969C169.641 93.2969 169.276 94.6094 168.547 95.7344C167.828 96.8594 166.802 97.7344 165.469 98.3594C164.135 98.9844 162.562 99.2969 160.75 99.2969H157.531V103.297L159.891 103.797V107H149.688ZM157.531 95.0938H160.75C161.865 95.0938 162.708 94.7917 163.281 94.1875C163.865 93.5729 164.156 92.7865 164.156 91.8281C164.156 90.8385 163.865 90.026 163.281 89.3906C162.708 88.7552 161.865 88.4375 160.75 88.4375H157.531V95.0938ZM170.656 107V103.797L173.016 103.297V87.9688L170.656 87.4688V84.2344H181.844C183.646 84.2344 185.208 84.5208 186.531 85.0938C187.854 85.6667 188.875 86.4844 189.594 87.5469C190.312 88.599 190.672 89.849 190.672 91.2969C190.672 92.6302 190.307 93.8698 189.578 95.0156C188.859 96.1615 187.87 97.0833 186.609 97.7812C185.349 98.4688 183.911 98.8073 182.297 98.7969L178.5 98.75V103.297L180.859 103.797V107H170.656ZM185.062 107L182 98.125L186.766 96.5L189.531 103.266L191.688 103.812V107H185.062ZM178.5 94.5469H181.906C182.969 94.5469 183.786 94.3021 184.359 93.8125C184.932 93.3125 185.219 92.5938 185.219 91.6562C185.219 90.6875 184.927 89.9115 184.344 89.3281C183.76 88.7344 182.927 88.4375 181.844 88.4375H178.5V94.5469ZM204.016 107.328C202.443 107.328 200.995 107.042 199.672 106.469C198.359 105.885 197.219 105.073 196.25 104.031C195.281 102.99 194.531 101.771 194 100.375C193.479 98.9688 193.219 97.4427 193.219 95.7969V95.4375C193.219 93.8021 193.479 92.2865 194 90.8906C194.531 89.4948 195.276 88.276 196.234 87.2344C197.203 86.1927 198.344 85.3802 199.656 84.7969C200.969 84.2135 202.411 83.9219 203.984 83.9219C205.526 83.9219 206.958 84.2135 208.281 84.7969C209.604 85.3802 210.76 86.1927 211.75 87.2344C212.75 88.276 213.526 89.4948 214.078 90.8906C214.63 92.2865 214.906 93.8021 214.906 95.4375V95.7969C214.906 97.4427 214.63 98.9688 214.078 100.375C213.526 101.771 212.755 102.99 211.766 104.031C210.776 105.073 209.62 105.885 208.297 106.469C206.974 107.042 205.547 107.328 204.016 107.328ZM204.016 103.172C205.161 103.172 206.141 102.865 206.953 102.25C207.766 101.635 208.385 100.776 208.812 99.6719C209.24 98.5677 209.453 97.276 209.453 95.7969V95.4062C209.453 93.9583 209.234 92.6875 208.797 91.5938C208.37 90.4896 207.75 89.6302 206.938 89.0156C206.125 88.401 205.141 88.0938 203.984 88.0938C202.766 88.0938 201.766 88.3958 200.984 89C200.214 89.6042 199.641 90.4531 199.266 91.5469C198.891 92.6406 198.703 93.9271 198.703 95.4062V95.7969C198.703 97.276 198.891 98.5729 199.266 99.6875C199.651 100.792 200.234 101.651 201.016 102.266C201.807 102.87 202.807 103.172 204.016 103.172ZM227.578 107.328C225.411 107.328 223.479 106.891 221.781 106.016C220.083 105.141 218.75 103.875 217.781 102.219C216.812 100.552 216.328 98.5312 216.328 96.1562V95.1094C216.328 92.9219 216.771 90.9896 217.656 89.3125C218.552 87.625 219.823 86.3073 221.469 85.3594C223.125 84.401 225.089 83.9219 227.359 83.9219C228.943 83.9219 230.448 84.1354 231.875 84.5625C233.312 84.9792 234.646 85.6979 235.875 86.7188V92.5781H231.891L231.344 89.2188C230.99 88.9792 230.615 88.7708 230.219 88.5938C229.833 88.4167 229.417 88.2812 228.969 88.1875C228.531 88.0938 228.057 88.0469 227.547 88.0469C226.391 88.0469 225.38 88.3229 224.516 88.875C223.651 89.4271 222.979 90.2292 222.5 91.2812C222.031 92.3229 221.797 93.5885 221.797 95.0781V96.1562C221.797 97.5521 222.042 98.7812 222.531 99.8438C223.021 100.896 223.703 101.719 224.578 102.312C225.464 102.906 226.484 103.203 227.641 103.203C228.255 103.203 228.88 103.141 229.516 103.016C230.151 102.88 230.766 102.703 231.359 102.484L231.906 99.2656H235.906V105C235 105.625 233.844 106.172 232.438 106.641C231.031 107.099 229.411 107.328 227.578 107.328ZM237.344 107V103.797L239.703 103.297V87.9688L237.344 87.4688V84.25H255.516V90.8125H251.375L251.25 88.4688H245.188V93.1406H252.453V97.3438H245.188V102.766H251.547L251.672 100.312H255.766V107H237.344ZM267.766 107.328C265.911 107.328 264.266 107.151 262.828 106.797C261.391 106.443 259.958 105.776 258.531 104.797V98.8906H262.766L263.234 101.922C263.568 102.297 264.156 102.615 265 102.875C265.844 103.125 266.766 103.25 267.766 103.25C268.464 103.25 269.047 103.167 269.516 103C269.984 102.823 270.339 102.568 270.578 102.234C270.818 101.901 270.938 101.5 270.938 101.031C270.938 100.583 270.823 100.182 270.594 99.8281C270.375 99.474 270.01 99.1406 269.5 98.8281C268.99 98.5052 268.302 98.1771 267.438 97.8438C265.49 97.2188 263.891 96.5833 262.641 95.9375C261.391 95.2917 260.458 94.526 259.844 93.6406C259.24 92.7552 258.938 91.6562 258.938 90.3438C258.938 89.0833 259.297 87.9844 260.016 87.0469C260.734 86.099 261.724 85.3542 262.984 84.8125C264.245 84.2708 265.688 83.9844 267.312 83.9531C269.167 83.9115 270.807 84.099 272.234 84.5156C273.661 84.9219 274.922 85.5417 276.016 86.375V91.8594H271.953L271.312 88.8125C270.958 88.6354 270.453 88.474 269.797 88.3281C269.141 88.1823 268.443 88.1094 267.703 88.1094C267.068 88.1094 266.5 88.1927 266 88.3594C265.51 88.526 265.12 88.776 264.828 89.1094C264.547 89.4427 264.406 89.8594 264.406 90.3594C264.406 90.7656 264.526 91.1302 264.766 91.4531C265.005 91.7656 265.427 92.0833 266.031 92.4062C266.635 92.7188 267.479 93.0833 268.562 93.5C271.146 94.2604 273.104 95.2135 274.438 96.3594C275.781 97.4948 276.453 99.0417 276.453 101C276.453 102.344 276.089 103.49 275.359 104.438C274.63 105.375 273.615 106.094 272.312 106.594C271.01 107.083 269.495 107.328 267.766 107.328ZM287.641 107.328C285.786 107.328 284.141 107.151 282.703 106.797C281.266 106.443 279.833 105.776 278.406 104.797V98.8906H282.641L283.109 101.922C283.443 102.297 284.031 102.615 284.875 102.875C285.719 103.125 286.641 103.25 287.641 103.25C288.339 103.25 288.922 103.167 289.391 103C289.859 102.823 290.214 102.568 290.453 102.234C290.693 101.901 290.812 101.5 290.812 101.031C290.812 100.583 290.698 100.182 290.469 99.8281C290.25 99.474 289.885 99.1406 289.375 98.8281C288.865 98.5052 288.177 98.1771 287.312 97.8438C285.365 97.2188 283.766 96.5833 282.516 95.9375C281.266 95.2917 280.333 94.526 279.719 93.6406C279.115 92.7552 278.812 91.6562 278.812 90.3438C278.812 89.0833 279.172 87.9844 279.891 87.0469C280.609 86.099 281.599 85.3542 282.859 84.8125C284.12 84.2708 285.562 83.9844 287.188 83.9531C289.042 83.9115 290.682 84.099 292.109 84.5156C293.536 84.9219 294.797 85.5417 295.891 86.375V91.8594H291.828L291.188 88.8125C290.833 88.6354 290.328 88.474 289.672 88.3281C289.016 88.1823 288.318 88.1094 287.578 88.1094C286.943 88.1094 286.375 88.1927 285.875 88.3594C285.385 88.526 284.995 88.776 284.703 89.1094C284.422 89.4427 284.281 89.8594 284.281 90.3594C284.281 90.7656 284.401 91.1302 284.641 91.4531C284.88 91.7656 285.302 92.0833 285.906 92.4062C286.51 92.7188 287.354 93.0833 288.438 93.5C291.021 94.2604 292.979 95.2135 294.312 96.3594C295.656 97.4948 296.328 99.0417 296.328 101C296.328 102.344 295.964 103.49 295.234 104.438C294.505 105.375 293.49 106.094 292.188 106.594C290.885 107.083 289.37 107.328 287.641 107.328Z" fill="black" fill-opacity="0.3"/>
</g>
<defs>
<clipPath id="clip0_1_7">
<rect width="450" height="512" fill="white"/>
</clipPath>
</defs>
</svg>
