<svg width="450" height="512" viewBox="0 0 450 512" fill="none" xmlns="http://www.w3.org/2000/svg">
<path d="M212.66 3.35209C220.296 -1.11736 229.704 -1.11737 237.34 3.35209L434.66 118.842C442.296 123.311 447 131.571 447 140.51V371.49C447 380.429 442.296 388.689 434.66 393.158L237.34 508.648C229.704 513.117 220.296 513.117 212.66 508.648L15.3404 393.158C7.70413 388.689 3 380.429 3 371.49V140.51C3 131.571 7.70413 123.311 15.3404 118.842L212.66 3.35209Z" fill="white"/>
<path d="M214.68 6.80426C221.068 3.06525 228.932 3.06525 235.32 6.80426L432.639 122.294C439.034 126.037 443 132.974 443 140.51V371.49C443 379.026 439.034 385.963 432.639 389.706L235.32 505.196C228.932 508.935 221.068 508.935 214.68 505.196L17.3609 389.706C10.9662 385.963 7 379.026 7 371.49V140.51C7 132.974 10.9662 126.037 17.3609 122.294L214.68 6.80426Z" stroke="black" stroke-opacity="0.5" stroke-width="8"/>
<rect x="82" y="128" width="286" height="4" rx="2" fill="black" fill-opacity="0.3"/>
<rect x="82" y="380" width="286" height="4" rx="2" fill="black" fill-opacity="0.3"/>
<path d="M136.051 230.5H122.57V241.875H135.422L135.777 237.117H141.848V248H110.348V243.215L114.586 242.395V213.82L110.348 213V208.188H114.586H141.793V219.098H135.668L135.312 214.34H122.57V224.348H136.051V230.5ZM145.457 243.215L148.219 242.777L156.258 233.043L148.492 223.691L145.73 223.227V218.414H159.047V223.035L156.34 223.363L160.824 229.051L165.227 223.363L162.465 223.035V218.414H175.836V223.227L173.156 223.691L165.555 233.043L173.566 242.777L176.355 243.215V248H162.82V243.406L165.527 243.078L160.934 237.117L156.258 243.105L158.637 243.406V248H145.457V243.215ZM197.738 248C197.52 247.508 197.328 247.007 197.164 246.496C197 245.967 196.872 245.439 196.781 244.91C195.833 246.004 194.676 246.888 193.309 247.562C191.96 248.237 190.41 248.574 188.66 248.574C185.762 248.574 183.456 247.79 181.742 246.223C180.047 244.637 179.199 242.486 179.199 239.77C179.199 236.999 180.311 234.857 182.535 233.344C184.759 231.831 188.022 231.074 192.324 231.074H196.398V228.176C196.398 226.754 195.988 225.651 195.168 224.867C194.348 224.083 193.135 223.691 191.531 223.691C190.62 223.691 189.809 223.801 189.098 224.02C188.387 224.22 187.812 224.466 187.375 224.758L186.855 227.93H180.84L180.867 221.367C182.326 220.383 183.993 219.553 185.871 218.879C187.767 218.204 189.827 217.867 192.051 217.867C195.715 217.867 198.686 218.77 200.965 220.574C203.262 222.361 204.41 224.913 204.41 228.23V240.453C204.41 240.909 204.41 241.337 204.41 241.738C204.428 242.139 204.465 242.522 204.52 242.887L206.953 243.215V248H197.738ZM190.82 242.668C192.023 242.668 193.117 242.413 194.102 241.902C195.086 241.374 195.852 240.717 196.398 239.934V235.422H192.324C190.629 235.422 189.344 235.823 188.469 236.625C187.594 237.409 187.156 238.357 187.156 239.469C187.156 240.471 187.475 241.255 188.113 241.82C188.77 242.385 189.672 242.668 190.82 242.668ZM208.758 223.227V218.414H220.434L220.762 222.324C221.71 220.902 222.895 219.809 224.316 219.043C225.757 218.259 227.415 217.867 229.293 217.867C231.189 217.867 232.811 218.286 234.16 219.125C235.509 219.964 236.53 221.23 237.223 222.926C238.134 221.34 239.319 220.1 240.777 219.207C242.236 218.314 243.949 217.867 245.918 217.867C248.835 217.867 251.132 218.879 252.809 220.902C254.504 222.908 255.352 225.97 255.352 230.09V242.395L259.207 243.215V248H243.922V243.215L247.367 242.395V230.062C247.367 227.82 247.003 226.262 246.273 225.387C245.544 224.512 244.46 224.074 243.02 224.074C241.889 224.074 240.905 224.329 240.066 224.84C239.246 225.332 238.59 226.025 238.098 226.918C238.098 227.264 238.107 227.565 238.125 227.82C238.143 228.057 238.152 228.303 238.152 228.559V242.395L241.379 243.215V248H226.969V243.215L230.195 242.395V230.062C230.195 227.875 229.831 226.335 229.102 225.441C228.372 224.53 227.279 224.074 225.82 224.074C224.745 224.074 223.797 224.284 222.977 224.703C222.174 225.104 221.509 225.678 220.98 226.426V242.395L224.426 243.215V248H209.168V243.215L213.023 242.395V224.047L208.758 223.227ZM261.203 223.227V218.414H272.797L273.18 221.859C274.055 220.583 275.103 219.599 276.324 218.906C277.546 218.214 278.967 217.867 280.59 217.867C284.254 217.867 287.098 219.298 289.121 222.16C291.145 225.022 292.156 228.786 292.156 233.453V234.027C292.156 238.402 291.145 241.921 289.121 244.582C287.098 247.243 284.272 248.574 280.645 248.574C279.095 248.574 277.719 248.292 276.516 247.727C275.312 247.143 274.283 246.296 273.426 245.184V253.742L277.281 254.562V259.375H261.613V254.562L265.469 253.742V224.047L261.203 223.227ZM284.172 233.453C284.172 230.664 283.707 228.404 282.777 226.672C281.848 224.94 280.426 224.074 278.512 224.074C277.309 224.074 276.279 224.32 275.422 224.812C274.583 225.305 273.918 226.007 273.426 226.918V239.879C273.918 240.717 274.583 241.355 275.422 241.793C276.279 242.23 277.327 242.449 278.566 242.449C280.499 242.449 281.911 241.693 282.805 240.18C283.716 238.667 284.172 236.616 284.172 234.027V233.453ZM294.316 210.156V205.344H306.566V242.395L310.422 243.215V248H294.727V243.215L298.582 242.395V210.977L294.316 210.156ZM327.211 248.574C322.945 248.574 319.536 247.207 316.984 244.473C314.432 241.738 313.156 238.266 313.156 234.055V232.961C313.156 228.568 314.359 224.949 316.766 222.105C319.19 219.262 322.435 217.849 326.5 217.867C330.492 217.867 333.591 219.07 335.797 221.477C338.003 223.883 339.105 227.137 339.105 231.238V235.586H321.441L321.387 235.75C321.533 237.701 322.18 239.305 323.328 240.562C324.495 241.82 326.072 242.449 328.059 242.449C329.827 242.449 331.294 242.276 332.461 241.93C333.628 241.565 334.904 241 336.289 240.234L338.449 245.156C337.228 246.122 335.642 246.934 333.691 247.59C331.759 248.246 329.599 248.574 327.211 248.574ZM326.5 224.02C325.023 224.02 323.857 224.585 323 225.715C322.143 226.845 321.615 228.331 321.414 230.172L321.496 230.309H331.285V229.598C331.285 227.902 330.884 226.553 330.082 225.551C329.298 224.53 328.104 224.02 326.5 224.02ZM206.215 274.551L206.051 274.523L195.387 304H190.027L179.418 274.633L179.254 274.66L180.02 292.133V298.395L184.285 299.215V304H167.797V299.215L172.035 298.395V269.82L167.797 269V264.188H172.035H182.453L192.598 293.527H192.762L202.988 264.188H217.699V269L213.434 269.82V298.395L217.699 299.215V304H201.211V299.215L205.449 298.395V292.133L206.215 274.551ZM239.602 304C239.383 303.508 239.191 303.007 239.027 302.496C238.863 301.967 238.736 301.439 238.645 300.91C237.697 302.004 236.539 302.888 235.172 303.562C233.823 304.237 232.273 304.574 230.523 304.574C227.625 304.574 225.319 303.79 223.605 302.223C221.91 300.637 221.062 298.486 221.062 295.77C221.062 292.999 222.174 290.857 224.398 289.344C226.622 287.831 229.885 287.074 234.188 287.074H238.262V284.176C238.262 282.754 237.852 281.651 237.031 280.867C236.211 280.083 234.999 279.691 233.395 279.691C232.483 279.691 231.672 279.801 230.961 280.02C230.25 280.22 229.676 280.466 229.238 280.758L228.719 283.93H222.703L222.73 277.367C224.189 276.383 225.857 275.553 227.734 274.879C229.63 274.204 231.69 273.867 233.914 273.867C237.578 273.867 240.549 274.77 242.828 276.574C245.125 278.361 246.273 280.913 246.273 284.23V296.453C246.273 296.909 246.273 297.337 246.273 297.738C246.292 298.139 246.328 298.522 246.383 298.887L248.816 299.215V304H239.602ZM232.684 298.668C233.887 298.668 234.98 298.413 235.965 297.902C236.949 297.374 237.715 296.717 238.262 295.934V291.422H234.188C232.492 291.422 231.207 291.823 230.332 292.625C229.457 293.409 229.02 294.357 229.02 295.469C229.02 296.471 229.339 297.255 229.977 297.82C230.633 298.385 231.535 298.668 232.684 298.668ZM250.949 279.227V274.414H262.543L262.926 277.859C263.801 276.583 264.849 275.599 266.07 274.906C267.292 274.214 268.714 273.867 270.336 273.867C274 273.867 276.844 275.298 278.867 278.16C280.891 281.022 281.902 284.786 281.902 289.453V290.027C281.902 294.402 280.891 297.921 278.867 300.582C276.844 303.243 274.018 304.574 270.391 304.574C268.841 304.574 267.465 304.292 266.262 303.727C265.059 303.143 264.029 302.296 263.172 301.184V309.742L267.027 310.562V315.375H251.359V310.562L255.215 309.742V280.047L250.949 279.227ZM273.918 289.453C273.918 286.664 273.453 284.404 272.523 282.672C271.594 280.94 270.172 280.074 268.258 280.074C267.055 280.074 266.025 280.32 265.168 280.812C264.329 281.305 263.664 282.007 263.172 282.918V295.879C263.664 296.717 264.329 297.355 265.168 297.793C266.025 298.23 267.073 298.449 268.312 298.449C270.245 298.449 271.658 297.693 272.551 296.18C273.462 294.667 273.918 292.616 273.918 290.027V289.453Z" fill="black"/>
<path d="M145.844 97V93.7969L147.438 93.5625L154.219 74.25H160.156L166.953 93.5625L168.547 93.7969V97H160.047V93.7969L161.531 93.5156L160.844 91.0469H153.531L152.875 93.5156L154.359 93.7969V97H145.844ZM154.688 87.2031H159.672L157.453 80.3125L157.203 79.5156H157.109L156.844 80.3906L154.688 87.2031ZM169.547 97V93.7969L171.906 93.2969V77.9688L169.547 77.4688V74.2344H180.734C182.536 74.2344 184.099 74.5208 185.422 75.0938C186.745 75.6667 187.766 76.4844 188.484 77.5469C189.203 78.599 189.562 79.849 189.562 81.2969C189.562 82.6302 189.198 83.8698 188.469 85.0156C187.75 86.1615 186.76 87.0833 185.5 87.7812C184.24 88.4688 182.802 88.8073 181.188 88.7969L177.391 88.75V93.2969L179.75 93.7969V97H169.547ZM183.953 97L180.891 88.125L185.656 86.5L188.422 93.2656L190.578 93.8125V97H183.953ZM177.391 84.5469H180.797C181.859 84.5469 182.677 84.3021 183.25 83.8125C183.823 83.3125 184.109 82.5938 184.109 81.6562C184.109 80.6875 183.818 79.9115 183.234 79.3281C182.651 78.7344 181.818 78.4375 180.734 78.4375H177.391V84.5469ZM196.312 97V93.7969L198.688 93.2969V78.5H195.172L195.031 80.9531H190.891V74.25H212.031V80.9531H207.844L207.719 78.5H204.172V93.2969L206.547 93.7969V97H196.312ZM212.859 97V93.7969L215.219 93.2969V77.9688L212.859 77.4688V74.25H223.047V77.4688L220.688 77.9688V93.2969L223.047 93.7969V97H212.859ZM224.297 97V93.7969L226.656 93.2969V77.9688L224.297 77.4688V74.25H243.031V80.9531H238.891L238.781 78.4688H232.141V83.7344H239.875V87.9219H232.141V93.2969L234.5 93.7969V97H224.297ZM240.25 97V93.7969L241.844 93.5625L248.625 74.25H254.562L261.359 93.5625L262.953 93.7969V97H254.453V93.7969L255.938 93.5156L255.25 91.0469H247.938L247.281 93.5156L248.766 93.7969V97H240.25ZM249.094 87.2031H254.078L251.859 80.3125L251.609 79.5156H251.516L251.25 80.3906L249.094 87.2031ZM274.281 97.3281C272.115 97.3281 270.182 96.8906 268.484 96.0156C266.786 95.1406 265.453 93.875 264.484 92.2188C263.516 90.5521 263.031 88.5312 263.031 86.1562V85.1094C263.031 82.9219 263.474 80.9896 264.359 79.3125C265.255 77.625 266.526 76.3073 268.172 75.3594C269.828 74.401 271.792 73.9219 274.062 73.9219C275.646 73.9219 277.151 74.1354 278.578 74.5625C280.016 74.9792 281.349 75.6979 282.578 76.7188V82.5781H278.594L278.047 79.2188C277.693 78.9792 277.318 78.7708 276.922 78.5938C276.536 78.4167 276.12 78.2812 275.672 78.1875C275.234 78.0938 274.76 78.0469 274.25 78.0469C273.094 78.0469 272.083 78.3229 271.219 78.875C270.354 79.4271 269.682 80.2292 269.203 81.2812C268.734 82.3229 268.5 83.5885 268.5 85.0781V86.1562C268.5 87.5521 268.745 88.7812 269.234 89.8438C269.724 90.8958 270.406 91.7188 271.281 92.3125C272.167 92.9062 273.188 93.2031 274.344 93.2031C274.958 93.2031 275.583 93.1406 276.219 93.0156C276.854 92.8802 277.469 92.7031 278.062 92.4844L278.609 89.2656H282.609V95C281.703 95.625 280.547 96.1719 279.141 96.6406C277.734 97.099 276.115 97.3281 274.281 97.3281ZM288.594 97V93.7969L290.969 93.2969V78.5H287.453L287.312 80.9531H283.172V74.25H304.312V80.9531H300.125L300 78.5H296.453V93.2969L298.828 93.7969V97H288.594Z" fill="black" fill-opacity="0.3"/>
<path d="M145.844 438V434.797L147.438 434.562L154.219 415.25H160.156L166.953 434.562L168.547 434.797V438H160.047V434.797L161.531 434.516L160.844 432.047H153.531L152.875 434.516L154.359 434.797V438H145.844ZM154.688 428.203H159.672L157.453 421.312L157.203 420.516H157.109L156.844 421.391L154.688 428.203ZM169.547 438V434.797L171.906 434.297V418.969L169.547 418.469V415.234H180.734C182.536 415.234 184.099 415.521 185.422 416.094C186.745 416.667 187.766 417.484 188.484 418.547C189.203 419.599 189.562 420.849 189.562 422.297C189.562 423.63 189.198 424.87 188.469 426.016C187.75 427.161 186.76 428.083 185.5 428.781C184.24 429.469 182.802 429.807 181.188 429.797L177.391 429.75V434.297L179.75 434.797V438H169.547ZM183.953 438L180.891 429.125L185.656 427.5L188.422 434.266L190.578 434.812V438H183.953ZM177.391 425.547H180.797C181.859 425.547 182.677 425.302 183.25 424.812C183.823 424.312 184.109 423.594 184.109 422.656C184.109 421.688 183.818 420.911 183.234 420.328C182.651 419.734 181.818 419.438 180.734 419.438H177.391V425.547ZM196.312 438V434.797L198.688 434.297V419.5H195.172L195.031 421.953H190.891V415.25H212.031V421.953H207.844L207.719 419.5H204.172V434.297L206.547 434.797V438H196.312ZM212.859 438V434.797L215.219 434.297V418.969L212.859 418.469V415.25H223.047V418.469L220.688 418.969V434.297L223.047 434.797V438H212.859ZM224.297 438V434.797L226.656 434.297V418.969L224.297 418.469V415.25H243.031V421.953H238.891L238.781 419.469H232.141V424.734H239.875V428.922H232.141V434.297L234.5 434.797V438H224.297ZM240.25 438V434.797L241.844 434.562L248.625 415.25H254.562L261.359 434.562L262.953 434.797V438H254.453V434.797L255.938 434.516L255.25 432.047H247.938L247.281 434.516L248.766 434.797V438H240.25ZM249.094 428.203H254.078L251.859 421.312L251.609 420.516H251.516L251.25 421.391L249.094 428.203ZM274.281 438.328C272.115 438.328 270.182 437.891 268.484 437.016C266.786 436.141 265.453 434.875 264.484 433.219C263.516 431.552 263.031 429.531 263.031 427.156V426.109C263.031 423.922 263.474 421.99 264.359 420.312C265.255 418.625 266.526 417.307 268.172 416.359C269.828 415.401 271.792 414.922 274.062 414.922C275.646 414.922 277.151 415.135 278.578 415.562C280.016 415.979 281.349 416.698 282.578 417.719V423.578H278.594L278.047 420.219C277.693 419.979 277.318 419.771 276.922 419.594C276.536 419.417 276.12 419.281 275.672 419.188C275.234 419.094 274.76 419.047 274.25 419.047C273.094 419.047 272.083 419.323 271.219 419.875C270.354 420.427 269.682 421.229 269.203 422.281C268.734 423.323 268.5 424.589 268.5 426.078V427.156C268.5 428.552 268.745 429.781 269.234 430.844C269.724 431.896 270.406 432.719 271.281 433.312C272.167 433.906 273.188 434.203 274.344 434.203C274.958 434.203 275.583 434.141 276.219 434.016C276.854 433.88 277.469 433.703 278.062 433.484L278.609 430.266H282.609V436C281.703 436.625 280.547 437.172 279.141 437.641C277.734 438.099 276.115 438.328 274.281 438.328ZM288.594 438V434.797L290.969 434.297V419.5H287.453L287.312 421.953H283.172V415.25H304.312V421.953H300.125L300 419.5H296.453V434.297L298.828 434.797V438H288.594Z" fill="black" fill-opacity="0.3"/>
</svg>
