<svg width="450" height="512" viewBox="0 0 450 512" fill="none" xmlns="http://www.w3.org/2000/svg">
<path d="M212.66 3.35209C220.296 -1.11736 229.704 -1.11737 237.34 3.35209L434.66 118.842C442.296 123.311 447 131.571 447 140.51V371.49C447 380.429 442.296 388.689 434.66 393.158L237.34 508.648C229.704 513.117 220.296 513.117 212.66 508.648L15.3404 393.158C7.70413 388.689 3 380.429 3 371.49V140.51C3 131.571 7.70413 123.311 15.3404 118.842L212.66 3.35209Z" fill="white"/>
<path d="M214.68 6.80426C221.068 3.06525 228.932 3.06525 235.32 6.80426L432.639 122.294C439.034 126.037 443 132.974 443 140.51V371.49C443 379.026 439.034 385.963 432.639 389.706L235.32 505.196C228.932 508.935 221.068 508.935 214.68 505.196L17.3609 389.706C10.9662 385.963 7 379.026 7 371.49V140.51C7 132.974 10.9662 126.037 17.3609 122.294L214.68 6.80426Z" stroke="black" stroke-opacity="0.5" stroke-width="8"/>
<rect x="82" y="128" width="286" height="4" rx="2" fill="black" fill-opacity="0.3"/>
<rect x="82" y="380" width="286" height="4" rx="2" fill="black" fill-opacity="0.3"/>
<path d="M106 230.5H92.5195V241.875H105.371L105.727 237.117H111.797V248H80.2969V243.215L84.5352 242.395V213.82L80.2969 213V208.188H84.5352H111.742V219.098H105.617L105.262 214.34H92.5195V224.348H106V230.5ZM115.406 243.215L118.168 242.777L126.207 233.043L118.441 223.691L115.68 223.227V218.414H128.996V223.035L126.289 223.363L130.773 229.051L135.176 223.363L132.414 223.035V218.414H145.785V223.227L143.105 223.691L135.504 233.043L143.516 242.777L146.305 243.215V248H132.77V243.406L135.477 243.078L130.883 237.117L126.207 243.105L128.586 243.406V248H115.406V243.215ZM162.465 248.574C158.199 248.574 154.79 247.207 152.238 244.473C149.686 241.738 148.41 238.266 148.41 234.055V232.961C148.41 228.568 149.613 224.949 152.02 222.105C154.444 219.262 157.689 217.849 161.754 217.867C165.746 217.867 168.845 219.07 171.051 221.477C173.257 223.883 174.359 227.137 174.359 231.238V235.586H156.695L156.641 235.75C156.786 237.701 157.434 239.305 158.582 240.562C159.749 241.82 161.326 242.449 163.312 242.449C165.081 242.449 166.548 242.276 167.715 241.93C168.882 241.565 170.158 241 171.543 240.234L173.703 245.156C172.482 246.122 170.896 246.934 168.945 247.59C167.013 248.246 164.853 248.574 162.465 248.574ZM161.754 224.02C160.277 224.02 159.111 224.585 158.254 225.715C157.397 226.845 156.868 228.331 156.668 230.172L156.75 230.309H166.539V229.598C166.539 227.902 166.138 226.553 165.336 225.551C164.552 224.53 163.358 224.02 161.754 224.02ZM192.051 242.449C193.473 242.449 194.612 242.039 195.469 241.219C196.326 240.38 196.754 239.268 196.754 237.883H203.973L204.055 238.047C204.128 241.036 203.007 243.543 200.691 245.566C198.376 247.572 195.496 248.574 192.051 248.574C187.639 248.574 184.24 247.18 181.852 244.391C179.464 241.602 178.27 238.02 178.27 233.645V232.824C178.27 228.467 179.491 224.885 181.934 222.078C184.395 219.271 187.895 217.867 192.434 217.867C194.822 217.867 196.964 218.223 198.859 218.934C200.755 219.645 202.332 220.647 203.59 221.941L203.699 229.844H197.219L195.906 225.223C195.505 224.876 195.013 224.594 194.43 224.375C193.846 224.138 193.181 224.02 192.434 224.02C190.173 224.02 188.578 224.84 187.648 226.48C186.719 228.121 186.254 230.236 186.254 232.824V233.645C186.254 236.288 186.682 238.421 187.539 240.043C188.396 241.647 189.9 242.449 192.051 242.449ZM228.391 244.254C227.443 245.639 226.267 246.706 224.863 247.453C223.478 248.201 221.892 248.574 220.105 248.574C216.988 248.574 214.546 247.581 212.777 245.594C211.009 243.589 210.125 240.48 210.125 236.27V224.047L206.871 223.227V218.414H210.125H218.109V236.324C218.109 238.475 218.465 240.025 219.176 240.973C219.905 241.902 220.98 242.367 222.402 242.367C223.66 242.367 224.745 242.167 225.656 241.766C226.586 241.346 227.342 240.754 227.926 239.988V224.047L224.426 223.227V218.414H227.926H235.91V242.395L239.492 243.215V248H228.91L228.391 244.254ZM254.422 211.168V218.414H259.617V224.02H254.422V239.086C254.422 240.234 254.659 241.055 255.133 241.547C255.607 242.039 256.245 242.285 257.047 242.285C257.594 242.285 258.068 242.267 258.469 242.23C258.888 242.176 259.353 242.094 259.863 241.984L260.547 247.754C259.654 248.027 258.77 248.228 257.895 248.355C257.02 248.501 256.072 248.574 255.051 248.574C252.298 248.574 250.174 247.818 248.68 246.305C247.203 244.792 246.465 242.395 246.465 239.113V224.02H242.117V218.414H246.465V211.168H254.422ZM282.367 248C282.148 247.508 281.957 247.007 281.793 246.496C281.629 245.967 281.501 245.439 281.41 244.91C280.462 246.004 279.305 246.888 277.938 247.562C276.589 248.237 275.039 248.574 273.289 248.574C270.391 248.574 268.085 247.79 266.371 246.223C264.676 244.637 263.828 242.486 263.828 239.77C263.828 236.999 264.94 234.857 267.164 233.344C269.388 231.831 272.651 231.074 276.953 231.074H281.027V228.176C281.027 226.754 280.617 225.651 279.797 224.867C278.977 224.083 277.764 223.691 276.16 223.691C275.249 223.691 274.438 223.801 273.727 224.02C273.016 224.22 272.441 224.466 272.004 224.758L271.484 227.93H265.469L265.496 221.367C266.954 220.383 268.622 219.553 270.5 218.879C272.396 218.204 274.456 217.867 276.68 217.867C280.344 217.867 283.315 218.77 285.594 220.574C287.891 222.361 289.039 224.913 289.039 228.23V240.453C289.039 240.909 289.039 241.337 289.039 241.738C289.057 242.139 289.094 242.522 289.148 242.887L291.582 243.215V248H282.367ZM275.449 242.668C276.652 242.668 277.746 242.413 278.73 241.902C279.715 241.374 280.48 240.717 281.027 239.934V235.422H276.953C275.258 235.422 273.973 235.823 273.098 236.625C272.223 237.409 271.785 238.357 271.785 239.469C271.785 240.471 272.104 241.255 272.742 241.82C273.398 242.385 274.301 242.668 275.449 242.668ZM322.043 234.027C322.043 238.439 321.059 241.966 319.09 244.609C317.121 247.253 314.277 248.574 310.559 248.574C308.827 248.574 307.323 248.219 306.047 247.508C304.771 246.779 303.695 245.73 302.82 244.363L302.246 248H295.355V210.977L291.117 210.156V205.344H303.312V221.559C304.169 220.374 305.19 219.462 306.375 218.824C307.578 218.186 308.954 217.867 310.504 217.867C314.259 217.867 317.121 219.289 319.09 222.133C321.059 224.958 322.043 228.732 322.043 233.453V234.027ZM314.086 233.453C314.086 230.573 313.658 228.294 312.801 226.617C311.962 224.922 310.522 224.074 308.48 224.074C307.241 224.074 306.193 224.339 305.336 224.867C304.479 225.378 303.805 226.116 303.312 227.082V239.578C303.805 240.49 304.479 241.182 305.336 241.656C306.211 242.13 307.277 242.367 308.535 242.367C310.595 242.367 312.035 241.647 312.855 240.207C313.676 238.749 314.086 236.689 314.086 234.027V233.453ZM324.367 210.156V205.344H336.617V242.395L340.473 243.215V248H324.777V243.215L328.633 242.395V210.977L324.367 210.156ZM357.262 248.574C352.996 248.574 349.587 247.207 347.035 244.473C344.483 241.738 343.207 238.266 343.207 234.055V232.961C343.207 228.568 344.41 224.949 346.816 222.105C349.241 219.262 352.486 217.849 356.551 217.867C360.543 217.867 363.642 219.07 365.848 221.477C368.053 223.883 369.156 227.137 369.156 231.238V235.586H351.492L351.438 235.75C351.583 237.701 352.23 239.305 353.379 240.562C354.546 241.82 356.122 242.449 358.109 242.449C359.878 242.449 361.345 242.276 362.512 241.93C363.678 241.565 364.954 241 366.34 240.234L368.5 245.156C367.279 246.122 365.693 246.934 363.742 247.59C361.81 248.246 359.65 248.574 357.262 248.574ZM356.551 224.02C355.074 224.02 353.908 224.585 353.051 225.715C352.194 226.845 351.665 228.331 351.465 230.172L351.547 230.309H361.336V229.598C361.336 227.902 360.935 226.553 360.133 225.551C359.349 224.53 358.155 224.02 356.551 224.02ZM83.8242 276.902H77.8359L76.7969 271.434C76.1042 270.996 75.0924 270.613 73.7617 270.285C72.431 269.957 71.0182 269.793 69.5234 269.793C67.3359 269.793 65.6406 270.258 64.4375 271.188C63.2526 272.099 62.6602 273.284 62.6602 274.742C62.6602 276.091 63.2799 277.203 64.5195 278.078C65.7773 278.935 67.9375 279.846 71 280.812C75.3932 282.034 78.7201 283.647 80.9805 285.652C83.2591 287.658 84.3984 290.292 84.3984 293.555C84.3984 296.964 83.0495 299.652 80.3516 301.621C77.6536 303.59 74.099 304.574 69.6875 304.574C66.5339 304.574 63.681 304.073 61.1289 303.07C58.5951 302.068 56.4805 300.682 54.7852 298.914V290.602H60.9648L61.8125 296.262C62.6146 296.918 63.6992 297.465 65.0664 297.902C66.4518 298.322 67.9922 298.531 69.6875 298.531C71.875 298.531 73.5339 298.085 74.6641 297.191C75.8125 296.298 76.3867 295.104 76.3867 293.609C76.3867 292.078 75.8398 290.848 74.7461 289.918C73.6706 288.988 71.7747 288.113 69.0586 287.293C64.3372 285.926 60.7643 284.303 58.3398 282.426C55.9154 280.548 54.7031 277.978 54.7031 274.715C54.7031 271.488 56.0703 268.854 58.8047 266.812C61.5391 264.753 64.9753 263.695 69.1133 263.641C72.1758 263.641 74.9648 264.105 77.4805 265.035C79.9961 265.965 82.1107 267.204 83.8242 268.754V276.902ZM87.1328 279.227V274.414H98.7266L99.1094 277.859C99.9844 276.583 101.033 275.599 102.254 274.906C103.475 274.214 104.897 273.867 106.52 273.867C110.184 273.867 113.027 275.298 115.051 278.16C117.074 281.022 118.086 284.786 118.086 289.453V290.027C118.086 294.402 117.074 297.921 115.051 300.582C113.027 303.243 110.202 304.574 106.574 304.574C105.025 304.574 103.648 304.292 102.445 303.727C101.242 303.143 100.212 302.296 99.3555 301.184V309.742L103.211 310.562V315.375H87.543V310.562L91.3984 309.742V280.047L87.1328 279.227ZM110.102 289.453C110.102 286.664 109.637 284.404 108.707 282.672C107.777 280.94 106.355 280.074 104.441 280.074C103.238 280.074 102.208 280.32 101.352 280.812C100.513 281.305 99.8477 282.007 99.3555 282.918V295.879C99.8477 296.717 100.513 297.355 101.352 297.793C102.208 298.23 103.257 298.449 104.496 298.449C106.428 298.449 107.841 297.693 108.734 296.18C109.646 294.667 110.102 292.616 110.102 290.027V289.453ZM135.805 304.574C131.539 304.574 128.13 303.207 125.578 300.473C123.026 297.738 121.75 294.266 121.75 290.055V288.961C121.75 284.568 122.953 280.949 125.359 278.105C127.784 275.262 131.029 273.849 135.094 273.867C139.086 273.867 142.185 275.07 144.391 277.477C146.596 279.883 147.699 283.137 147.699 287.238V291.586H130.035L129.98 291.75C130.126 293.701 130.773 295.305 131.922 296.562C133.089 297.82 134.665 298.449 136.652 298.449C138.421 298.449 139.888 298.276 141.055 297.93C142.221 297.565 143.497 297 144.883 296.234L147.043 301.156C145.822 302.122 144.236 302.934 142.285 303.59C140.353 304.246 138.193 304.574 135.805 304.574ZM135.094 280.02C133.617 280.02 132.451 280.585 131.594 281.715C130.737 282.845 130.208 284.331 130.008 286.172L130.09 286.309H139.879V285.598C139.879 283.902 139.478 282.553 138.676 281.551C137.892 280.53 136.698 280.02 135.094 280.02ZM165.391 298.449C166.812 298.449 167.952 298.039 168.809 297.219C169.665 296.38 170.094 295.268 170.094 293.883H177.312L177.395 294.047C177.467 297.036 176.346 299.543 174.031 301.566C171.716 303.572 168.836 304.574 165.391 304.574C160.979 304.574 157.579 303.18 155.191 300.391C152.803 297.602 151.609 294.02 151.609 289.645V288.824C151.609 284.467 152.831 280.885 155.273 278.078C157.734 275.271 161.234 273.867 165.773 273.867C168.161 273.867 170.303 274.223 172.199 274.934C174.095 275.645 175.672 276.647 176.93 277.941L177.039 285.844H170.559L169.246 281.223C168.845 280.876 168.353 280.594 167.77 280.375C167.186 280.138 166.521 280.02 165.773 280.02C163.513 280.02 161.918 280.84 160.988 282.48C160.059 284.121 159.594 286.236 159.594 288.824V289.645C159.594 292.288 160.022 294.421 160.879 296.043C161.736 297.647 163.24 298.449 165.391 298.449ZM180.785 299.215L184.641 298.395V280.047L180.375 279.227V274.414H192.625V298.395L196.453 299.215V304H180.785V299.215ZM192.625 267.332H184.641V261.344H192.625V267.332ZM198.285 280.02V274.414H202.688V272.391C202.688 268.672 203.818 265.81 206.078 263.805C208.357 261.781 211.556 260.77 215.676 260.77C217.098 260.77 218.501 260.915 219.887 261.207C221.272 261.48 222.876 261.882 224.699 262.41L223.551 268.699C222.22 268.298 221.008 267.988 219.914 267.77C218.839 267.551 217.599 267.441 216.195 267.441C214.354 267.441 212.969 267.861 212.039 268.699C211.128 269.538 210.672 270.768 210.672 272.391V274.414H228.609V298.395L232.848 299.215V304H216.77V299.215L220.625 298.395V280.02H210.672V298.395L214.527 299.215V304H198.422V299.215L202.688 298.395V280.02H198.285ZM249.555 298.449C250.977 298.449 252.116 298.039 252.973 297.219C253.829 296.38 254.258 295.268 254.258 293.883H261.477L261.559 294.047C261.632 297.036 260.51 299.543 258.195 301.566C255.88 303.572 253 304.574 249.555 304.574C245.143 304.574 241.743 303.18 239.355 300.391C236.967 297.602 235.773 294.02 235.773 289.645V288.824C235.773 284.467 236.995 280.885 239.438 278.078C241.898 275.271 245.398 273.867 249.938 273.867C252.326 273.867 254.467 274.223 256.363 274.934C258.259 275.645 259.836 276.647 261.094 277.941L261.203 285.844H254.723L253.41 281.223C253.009 280.876 252.517 280.594 251.934 280.375C251.35 280.138 250.685 280.02 249.938 280.02C247.677 280.02 246.082 280.84 245.152 282.48C244.223 284.121 243.758 286.236 243.758 288.824V289.645C243.758 292.288 244.186 294.421 245.043 296.043C245.9 297.647 247.404 298.449 249.555 298.449ZM284.035 304C283.816 303.508 283.625 303.007 283.461 302.496C283.297 301.967 283.169 301.439 283.078 300.91C282.13 302.004 280.973 302.888 279.605 303.562C278.257 304.237 276.707 304.574 274.957 304.574C272.059 304.574 269.753 303.79 268.039 302.223C266.344 300.637 265.496 298.486 265.496 295.77C265.496 292.999 266.608 290.857 268.832 289.344C271.056 287.831 274.319 287.074 278.621 287.074H282.695V284.176C282.695 282.754 282.285 281.651 281.465 280.867C280.645 280.083 279.432 279.691 277.828 279.691C276.917 279.691 276.105 279.801 275.395 280.02C274.684 280.22 274.109 280.466 273.672 280.758L273.152 283.93H267.137L267.164 277.367C268.622 276.383 270.29 275.553 272.168 274.879C274.064 274.204 276.124 273.867 278.348 273.867C282.012 273.867 284.983 274.77 287.262 276.574C289.559 278.361 290.707 280.913 290.707 284.23V296.453C290.707 296.909 290.707 297.337 290.707 297.738C290.725 298.139 290.762 298.522 290.816 298.887L293.25 299.215V304H284.035ZM277.117 298.668C278.32 298.668 279.414 298.413 280.398 297.902C281.383 297.374 282.148 296.717 282.695 295.934V291.422H278.621C276.926 291.422 275.641 291.823 274.766 292.625C273.891 293.409 273.453 294.357 273.453 295.469C273.453 296.471 273.772 297.255 274.41 297.82C275.066 298.385 275.969 298.668 277.117 298.668ZM305.582 267.168V274.414H310.777V280.02H305.582V295.086C305.582 296.234 305.819 297.055 306.293 297.547C306.767 298.039 307.405 298.285 308.207 298.285C308.754 298.285 309.228 298.267 309.629 298.23C310.048 298.176 310.513 298.094 311.023 297.984L311.707 303.754C310.814 304.027 309.93 304.228 309.055 304.355C308.18 304.501 307.232 304.574 306.211 304.574C303.458 304.574 301.335 303.818 299.84 302.305C298.363 300.792 297.625 298.395 297.625 295.113V280.02H293.277V274.414H297.625V267.168H305.582ZM314.441 299.215L318.297 298.395V280.047L314.031 279.227V274.414H326.281V298.395L330.109 299.215V304H314.441V299.215ZM326.281 267.332H318.297V261.344H326.281V267.332ZM332.734 288.934C332.734 284.522 333.965 280.913 336.426 278.105C338.905 275.28 342.323 273.867 346.68 273.867C351.055 273.867 354.473 275.271 356.934 278.078C359.413 280.885 360.652 284.504 360.652 288.934V289.508C360.652 293.956 359.413 297.583 356.934 300.391C354.473 303.18 351.073 304.574 346.734 304.574C342.341 304.574 338.905 303.18 336.426 300.391C333.965 297.583 332.734 293.956 332.734 289.508V288.934ZM340.719 289.508C340.719 292.206 341.193 294.375 342.141 296.016C343.089 297.638 344.62 298.449 346.734 298.449C348.794 298.449 350.298 297.629 351.246 295.988C352.212 294.348 352.695 292.188 352.695 289.508V288.934C352.695 286.309 352.212 284.167 351.246 282.508C350.28 280.849 348.758 280.02 346.68 280.02C344.602 280.02 343.089 280.849 342.141 282.508C341.193 284.167 340.719 286.309 340.719 288.934V289.508ZM363.688 299.215L367.516 298.395V280.047L363.277 279.227V274.414H374.953L375.309 278.652C376.293 277.139 377.505 275.964 378.945 275.125C380.385 274.286 381.999 273.867 383.785 273.867C386.775 273.867 389.108 274.806 390.785 276.684C392.462 278.561 393.301 281.505 393.301 285.516V298.395L397.129 299.215V304H381.871V299.215L385.289 298.395V285.543C385.289 283.556 384.888 282.152 384.086 281.332C383.284 280.493 382.072 280.074 380.449 280.074C379.392 280.074 378.444 280.293 377.605 280.73C376.767 281.15 376.065 281.751 375.5 282.535V298.395L378.727 299.215V304H363.688V299.215Z" fill="black"/>
<path d="M145.844 97V93.7969L147.438 93.5625L154.219 74.25H160.156L166.953 93.5625L168.547 93.7969V97H160.047V93.7969L161.531 93.5156L160.844 91.0469H153.531L152.875 93.5156L154.359 93.7969V97H145.844ZM154.688 87.2031H159.672L157.453 80.3125L157.203 79.5156H157.109L156.844 80.3906L154.688 87.2031ZM169.547 97V93.7969L171.906 93.2969V77.9688L169.547 77.4688V74.2344H180.734C182.536 74.2344 184.099 74.5208 185.422 75.0938C186.745 75.6667 187.766 76.4844 188.484 77.5469C189.203 78.599 189.562 79.849 189.562 81.2969C189.562 82.6302 189.198 83.8698 188.469 85.0156C187.75 86.1615 186.76 87.0833 185.5 87.7812C184.24 88.4688 182.802 88.8073 181.188 88.7969L177.391 88.75V93.2969L179.75 93.7969V97H169.547ZM183.953 97L180.891 88.125L185.656 86.5L188.422 93.2656L190.578 93.8125V97H183.953ZM177.391 84.5469H180.797C181.859 84.5469 182.677 84.3021 183.25 83.8125C183.823 83.3125 184.109 82.5938 184.109 81.6562C184.109 80.6875 183.818 79.9115 183.234 79.3281C182.651 78.7344 181.818 78.4375 180.734 78.4375H177.391V84.5469ZM196.312 97V93.7969L198.688 93.2969V78.5H195.172L195.031 80.9531H190.891V74.25H212.031V80.9531H207.844L207.719 78.5H204.172V93.2969L206.547 93.7969V97H196.312ZM212.859 97V93.7969L215.219 93.2969V77.9688L212.859 77.4688V74.25H223.047V77.4688L220.688 77.9688V93.2969L223.047 93.7969V97H212.859ZM224.297 97V93.7969L226.656 93.2969V77.9688L224.297 77.4688V74.25H243.031V80.9531H238.891L238.781 78.4688H232.141V83.7344H239.875V87.9219H232.141V93.2969L234.5 93.7969V97H224.297ZM240.25 97V93.7969L241.844 93.5625L248.625 74.25H254.562L261.359 93.5625L262.953 93.7969V97H254.453V93.7969L255.938 93.5156L255.25 91.0469H247.938L247.281 93.5156L248.766 93.7969V97H240.25ZM249.094 87.2031H254.078L251.859 80.3125L251.609 79.5156H251.516L251.25 80.3906L249.094 87.2031ZM274.281 97.3281C272.115 97.3281 270.182 96.8906 268.484 96.0156C266.786 95.1406 265.453 93.875 264.484 92.2188C263.516 90.5521 263.031 88.5312 263.031 86.1562V85.1094C263.031 82.9219 263.474 80.9896 264.359 79.3125C265.255 77.625 266.526 76.3073 268.172 75.3594C269.828 74.401 271.792 73.9219 274.062 73.9219C275.646 73.9219 277.151 74.1354 278.578 74.5625C280.016 74.9792 281.349 75.6979 282.578 76.7188V82.5781H278.594L278.047 79.2188C277.693 78.9792 277.318 78.7708 276.922 78.5938C276.536 78.4167 276.12 78.2812 275.672 78.1875C275.234 78.0938 274.76 78.0469 274.25 78.0469C273.094 78.0469 272.083 78.3229 271.219 78.875C270.354 79.4271 269.682 80.2292 269.203 81.2812C268.734 82.3229 268.5 83.5885 268.5 85.0781V86.1562C268.5 87.5521 268.745 88.7812 269.234 89.8438C269.724 90.8958 270.406 91.7188 271.281 92.3125C272.167 92.9062 273.188 93.2031 274.344 93.2031C274.958 93.2031 275.583 93.1406 276.219 93.0156C276.854 92.8802 277.469 92.7031 278.062 92.4844L278.609 89.2656H282.609V95C281.703 95.625 280.547 96.1719 279.141 96.6406C277.734 97.099 276.115 97.3281 274.281 97.3281ZM288.594 97V93.7969L290.969 93.2969V78.5H287.453L287.312 80.9531H283.172V74.25H304.312V80.9531H300.125L300 78.5H296.453V93.2969L298.828 93.7969V97H288.594Z" fill="black" fill-opacity="0.3"/>
<path d="M182.641 438V434.797L185 434.297V418.969L182.641 418.469V415.234H193.828C195.63 415.234 197.193 415.521 198.516 416.094C199.839 416.667 200.859 417.484 201.578 418.547C202.297 419.599 202.656 420.849 202.656 422.297C202.656 423.63 202.292 424.87 201.562 426.016C200.844 427.161 199.854 428.083 198.594 428.781C197.333 429.469 195.896 429.807 194.281 429.797L190.484 429.75V434.297L192.844 434.797V438H182.641ZM197.047 438L193.984 429.125L198.75 427.5L201.516 434.266L203.672 434.812V438H197.047ZM190.484 425.547H193.891C194.953 425.547 195.771 425.302 196.344 424.812C196.917 424.312 197.203 423.594 197.203 422.656C197.203 421.688 196.911 420.911 196.328 420.328C195.745 419.734 194.911 419.438 193.828 419.438H190.484V425.547ZM216.562 438.328C214.604 438.328 212.896 438.016 211.438 437.391C209.99 436.755 208.87 435.828 208.078 434.609C207.286 433.391 206.891 431.901 206.891 430.141V418.969L204.547 418.469V415.25H214.734V418.469L212.375 418.969V430.141C212.375 431.057 212.536 431.818 212.859 432.422C213.182 433.016 213.651 433.458 214.266 433.75C214.891 434.042 215.646 434.188 216.531 434.188C217.448 434.188 218.214 434.042 218.828 433.75C219.453 433.458 219.922 433.016 220.234 432.422C220.557 431.818 220.719 431.057 220.719 430.141V418.969L218.375 418.469V415.25H228.562V418.469L226.203 418.969V430.141C226.203 431.87 225.797 433.349 224.984 434.578C224.172 435.797 223.042 436.729 221.594 437.375C220.156 438.01 218.479 438.328 216.562 438.328ZM229.484 438V434.797L231.844 434.297V418.969L229.484 418.469V415.25H231.844H237.328H240.203V418.469L237.328 418.969V433.797H242.734L242.859 430.625H247.047V438H229.484ZM248.141 438V434.797L250.5 434.297V418.969L248.141 418.469V415.25H266.312V421.812H262.172L262.047 419.469H255.984V424.141H263.25V428.344H255.984V433.766H262.344L262.469 431.312H266.562V438H248.141Z" fill="black" fill-opacity="0.3"/>
</svg>
