<svg width="163" height="191" viewBox="0 0 163 191" fill="none" xmlns="http://www.w3.org/2000/svg">
<path d="M75.7602 6.52497C79.6508 4.27879 84.4476 4.29317 88.3247 6.56262L154.315 45.1898C158.146 47.4323 160.5 51.5384 160.5 55.9775V134.853C160.5 139.285 158.154 143.385 154.333 145.63L88.343 184.409C84.4566 186.693 79.6417 186.708 75.7417 184.447L8.73174 145.608C4.87452 143.372 2.5 139.251 2.5 134.793V56.0374C2.5 51.5715 4.88256 47.4448 8.75016 45.2119L75.7602 6.52497Z" fill="#C9C675" stroke="#444444" stroke-width="5"/>
<path d="M32.6987 141V139.499L33.8047 139.264V132.079L32.6987 131.845V130.336H41.4805V133.478H39.5396L39.4883 132.313H36.3755V134.782H40.001V136.745H36.3755V139.264L37.4814 139.499V141H32.6987ZM40.1768 141V139.499L40.9238 139.389L44.1025 130.336H46.8857L50.0718 139.389L50.8188 139.499V141H46.8345V139.499L47.5303 139.367L47.208 138.209H43.7803L43.4727 139.367L44.1685 139.499V141H40.1768ZM44.3223 136.408H46.6587L45.6187 133.178L45.5015 132.804H45.4575L45.333 133.214L44.3223 136.408ZM56.1289 141.154C55.1133 141.154 54.2075 140.949 53.4116 140.539C52.6157 140.128 51.9907 139.535 51.5366 138.759C51.0825 137.978 50.8555 137.03 50.8555 135.917V135.426C50.8555 134.401 51.063 133.495 51.478 132.709C51.8979 131.918 52.4937 131.3 53.2651 130.856C54.0415 130.407 54.9619 130.182 56.0264 130.182C56.7686 130.182 57.4741 130.282 58.1431 130.482C58.8169 130.678 59.4419 131.015 60.0181 131.493V134.24H58.1504L57.894 132.665C57.728 132.553 57.5522 132.455 57.3667 132.372C57.186 132.289 56.9907 132.226 56.7808 132.182C56.5757 132.138 56.3535 132.116 56.1143 132.116C55.5723 132.116 55.0986 132.245 54.6934 132.504C54.2881 132.763 53.9731 133.139 53.7485 133.632C53.5288 134.12 53.4189 134.713 53.4189 135.412V135.917C53.4189 136.571 53.5337 137.147 53.7632 137.646C53.9927 138.139 54.3125 138.524 54.7227 138.803C55.1377 139.081 55.6162 139.22 56.1582 139.22C56.4463 139.22 56.7393 139.191 57.0371 139.132C57.335 139.069 57.623 138.986 57.9014 138.883L58.1577 137.375H60.0327V140.062C59.6079 140.355 59.0659 140.612 58.4067 140.832C57.7476 141.046 56.9883 141.154 56.1289 141.154ZM60.7065 141V139.499L61.8125 139.264V132.079L60.7065 131.845V130.336H65.4819V131.845L64.376 132.079V139.264L65.4819 139.499V141H60.7065ZM66.0679 141V139.499L67.1738 139.264V132.079L66.0679 131.845V130.336H67.1738H69.7446H71.0923V131.845L69.7446 132.079V139.03H72.2788L72.3374 137.543H74.3003V141H66.0679ZM74.813 141V139.499L75.9189 139.264V132.079L74.813 131.845V130.336H79.5884V131.845L78.4824 132.079V139.264L79.5884 139.499V141H74.813ZM82.5254 141V139.499L83.6387 139.264V132.328H81.9907L81.9248 133.478H79.9839V130.336H89.8936V133.478H87.9307L87.8721 132.328H86.2095V139.264L87.3228 139.499V141H82.5254ZM89.1172 141V139.499L89.8643 139.389L93.043 130.336H95.8262L99.0122 139.389L99.7593 139.499V141H95.7749V139.499L96.4707 139.367L96.1484 138.209H92.7207L92.4131 139.367L93.1089 139.499V141H89.1172ZM93.2627 136.408H95.5991L94.5591 133.178L94.4419 132.804H94.3979L94.2734 133.214L93.2627 136.408ZM101.891 141V139.499L103.004 139.264V132.328H101.356L101.29 133.478H99.3491V130.336H109.259V133.478H107.296L107.237 132.328H105.575V139.264L106.688 139.499V141H101.891ZM114.664 141.154C113.927 141.154 113.248 141.02 112.628 140.751C112.013 140.478 111.478 140.097 111.024 139.608C110.57 139.12 110.218 138.549 109.969 137.895C109.725 137.235 109.603 136.52 109.603 135.749V135.58C109.603 134.813 109.725 134.103 109.969 133.449C110.218 132.794 110.567 132.223 111.017 131.735C111.471 131.247 112.005 130.866 112.621 130.592C113.236 130.319 113.912 130.182 114.649 130.182C115.372 130.182 116.043 130.319 116.664 130.592C117.284 130.866 117.826 131.247 118.29 131.735C118.758 132.223 119.122 132.794 119.381 133.449C119.64 134.103 119.769 134.813 119.769 135.58V135.749C119.769 136.52 119.64 137.235 119.381 137.895C119.122 138.549 118.761 139.12 118.297 139.608C117.833 140.097 117.291 140.478 116.671 140.751C116.051 141.02 115.382 141.154 114.664 141.154ZM114.664 139.206C115.201 139.206 115.66 139.062 116.041 138.773C116.422 138.485 116.712 138.083 116.913 137.565C117.113 137.047 117.213 136.442 117.213 135.749V135.565C117.213 134.887 117.11 134.291 116.905 133.778C116.705 133.261 116.415 132.858 116.034 132.57C115.653 132.282 115.191 132.138 114.649 132.138C114.078 132.138 113.609 132.279 113.243 132.562C112.882 132.846 112.613 133.244 112.438 133.756C112.262 134.269 112.174 134.872 112.174 135.565V135.749C112.174 136.442 112.262 137.05 112.438 137.572C112.618 138.09 112.892 138.493 113.258 138.781C113.629 139.064 114.098 139.206 114.664 139.206ZM120.472 141V139.499L121.578 139.264V132.079L120.472 131.845V130.329H125.716C126.561 130.329 127.293 130.463 127.914 130.731C128.534 131 129.012 131.383 129.349 131.881C129.686 132.375 129.854 132.96 129.854 133.639C129.854 134.264 129.684 134.845 129.342 135.382C129.005 135.919 128.541 136.352 127.95 136.679C127.359 137.001 126.686 137.16 125.929 137.155L124.149 137.133V139.264L125.255 139.499V141H120.472ZM127.225 141L125.79 136.84L128.023 136.078L129.32 139.25L130.331 139.506V141H127.225ZM124.149 135.163H125.746C126.244 135.163 126.627 135.048 126.896 134.818C127.164 134.584 127.298 134.247 127.298 133.808C127.298 133.354 127.162 132.99 126.888 132.716C126.615 132.438 126.224 132.299 125.716 132.299H124.149V135.163Z" fill="#444444"/>
<path d="M81.4972 34C71.3998 34 63.1504 41.5664 63.1504 50.8215C63.1504 54.9681 64.8156 58.7605 67.5525 61.6958C57.1377 66.4026 50 76.2144 50 87.5767V103.332C49.994 104.781 51.2711 105.961 52.8527 105.967H59.5985V115.365C59.5925 116.814 60.8696 117.994 62.4512 118H101.835C103.426 118.006 104.716 116.822 104.71 115.365V105.967H110.147C111.729 105.961 113.006 104.781 113 103.332V87.5767C113 76.2143 105.876 66.3897 95.4642 61.6804C98.192 58.7474 99.8496 54.9603 99.8496 50.8215C99.8496 41.5664 91.5946 34 81.4972 34ZM81.4972 39.25C88.499 39.25 94.1218 44.4037 94.1218 50.8215C94.1218 54.7442 92.0111 58.1717 88.78 60.2551C88.7054 60.2914 88.6326 60.3308 88.5618 60.3731C88.1751 60.6138 87.7641 60.8102 87.3536 61.0088C87.1752 61.0942 87.0057 61.1925 86.8222 61.2704C86.4681 61.4222 86.0987 61.5391 85.7315 61.66C85.3686 61.7776 85.0016 61.8852 84.624 61.9727C84.3223 62.0441 84.0193 62.1166 83.7122 62.1675C82.9916 62.283 82.2556 62.3674 81.4972 62.3674C80.7179 62.3674 79.9654 62.2841 79.2262 62.1624C78.9872 62.1227 78.7517 62.0661 78.5158 62.0137C77.9986 61.8997 77.4953 61.7579 77.0056 61.5881C76.7883 61.5127 76.5693 61.4438 76.3567 61.3575C75.7862 61.1257 75.2393 60.8559 74.7178 60.5525C74.6196 60.495 74.5124 60.4533 74.4158 60.3936C74.4028 60.3866 74.3897 60.3796 74.3766 60.3728C71.0509 58.3015 68.8782 54.8115 68.8782 50.8215C68.8782 44.4037 74.4953 39.25 81.4972 39.25ZM72.6706 65.5308C75.2947 66.8586 78.2997 67.6174 81.4972 67.6174C84.6947 67.6174 87.7053 66.8587 90.3294 65.5308C100.188 68.8327 107.272 77.3275 107.272 87.5767V100.717H104.71V82.5574C104.711 82.4701 104.708 82.3828 104.699 82.2958C104.547 80.9532 103.308 79.9354 101.835 79.9426H62.4512C62.3599 79.9385 62.2684 79.9385 62.1771 79.9426C61.0978 80.0432 60.1731 80.6943 59.7887 81.6242C59.7543 81.7066 59.7244 81.7903 59.6992 81.8754V81.8853C59.6744 81.9664 59.6538 82.0485 59.6376 82.1314C59.6217 82.218 59.6104 82.3053 59.604 82.3929C59.6003 82.4476 59.5984 82.5023 59.5984 82.557V100.717H55.7278V87.5763C55.7278 77.3273 62.8117 68.8329 72.6706 65.5308ZM65.3263 85.1978H98.9826C98.9826 94.3818 98.9826 103.566 98.9826 112.75H65.3263V103.332V85.1978ZM67.6923 100.871C52.9005 56.184 60.2964 78.5274 67.6923 100.871V100.871ZM91.3921 105.424C60.8005 57.7016 76.0963 81.5626 91.3921 105.424V105.424Z" fill="#444444"/>
<path d="M80.3274 91.1313L79.5383 87.2415L69.4745 89.0096L70.2635 92.8995C70.6125 94.6254 71.2177 96.2976 72.0616 97.8679L72.255 98.2215L82.3644 96.4534L82.0268 95.8239C81.229 94.341 80.657 92.7616 80.3274 91.1313ZM72.8923 97.0333C72.1899 95.6546 71.6799 94.1975 71.375 92.6979L70.7984 89.8406L78.6279 88.4685L79.2045 91.3258C79.5083 92.8224 80.0051 94.2793 80.6839 95.6648L72.8923 97.0333Z" fill="#444444"/>
<path d="M81.0023 105.354L81.3285 101.404L71.1168 100.697L70.7981 104.654C70.6566 106.407 70.7779 108.169 71.1585 109.891L71.2344 110.245L81.4765 110.952L81.3285 110.294C80.9743 108.67 80.8645 107.007 81.0023 105.354ZM80.0881 109.82L72.1789 109.265C71.8847 107.765 71.798 106.235 71.921 104.714L72.1562 101.814L80.0995 102.373L79.8643 105.273C79.7421 106.791 79.8172 108.318 80.0881 109.82Z" fill="#444444"/>
<path d="M84.5757 96.0996C84.4589 97.336 84.2331 98.5614 83.9005 99.7632L83.0887 102.688L93.3081 103.526L94.0667 100.775C94.4166 99.5195 94.6551 98.2398 94.7799 96.9483L95.0151 94.4447L84.8147 93.6243L84.5757 96.0996ZM85.7137 96.1916L85.8503 94.7453L93.7822 95.3924L93.6457 96.8387C93.5289 98.0751 93.3031 99.3004 92.9704 100.502L92.447 102.384L84.5302 101.758L85.0044 100.046C85.3527 98.7851 85.5887 97.4994 85.7099 96.2022L85.7137 96.1916Z" fill="#444444"/>
<path d="M74.1214 92.0791C74.2031 92.1161 74.2963 92.1246 74.3841 92.103C74.4719 92.0814 74.5485 92.0311 74.5999 91.9614C74.6514 91.8916 74.6742 91.8069 74.6644 91.7228C74.6545 91.6386 74.6126 91.5605 74.5463 91.5027L73.9204 91.1031L74.349 90.5126C74.3779 90.4743 74.3983 90.431 74.4091 90.3853C74.4199 90.3396 74.4209 90.2924 74.412 90.2463C74.4031 90.2002 74.3844 90.1563 74.3571 90.117C74.3298 90.0777 74.2945 90.0439 74.253 90.0174C74.2116 89.991 74.165 89.9725 74.1158 89.963C74.0667 89.9534 74.016 89.9531 73.9667 89.962C73.9174 89.9709 73.8705 89.9888 73.8287 90.0147C73.7868 90.0406 73.751 90.074 73.7231 90.113L73.2945 90.6964L72.6686 90.2969C72.585 90.242 72.4816 90.2204 72.381 90.2366C72.2803 90.2529 72.1907 90.3057 72.1319 90.3836C72.073 90.4614 72.0498 90.5578 72.0672 90.6516C72.0846 90.7455 72.1413 90.829 72.2247 90.8839L72.8506 91.2835L72.4372 91.8563C72.3818 91.9337 72.3613 92.0284 72.3803 92.1197C72.3992 92.2111 72.4561 92.2918 72.5384 92.3443C72.6207 92.3969 72.722 92.4171 72.8202 92.4006C72.9184 92.384 73.0057 92.332 73.0631 92.2559L73.4917 91.6725L74.1214 92.0791Z" fill="#444444"/>
<path d="M74.9255 94.1585L75.3541 93.5751C75.383 93.5368 75.4035 93.4935 75.4143 93.4478C75.4251 93.4021 75.426 93.3549 75.4171 93.3088C75.4082 93.2627 75.3895 93.2188 75.3622 93.1795C75.335 93.1402 75.2996 93.1064 75.2582 93.0799C75.2167 93.0535 75.1701 93.035 75.1209 93.0255C75.0718 93.0159 75.0211 93.0156 74.9718 93.0245C74.9225 93.0334 74.8756 93.0513 74.8338 93.0772C74.792 93.1031 74.7561 93.1365 74.7282 93.1755L74.2996 93.7589L73.6737 93.3594C73.5907 93.3077 73.4891 93.2887 73.3912 93.3063C73.2932 93.324 73.2066 93.377 73.1502 93.4537C73.0938 93.5305 73.0721 93.6249 73.0899 93.7164C73.1076 93.808 73.1634 93.8893 73.245 93.9428L73.8671 94.3318L73.4385 94.9153C73.3831 94.9927 73.3627 95.0873 73.3816 95.1787C73.4006 95.27 73.4574 95.3507 73.5397 95.4033C73.6221 95.4559 73.7233 95.4761 73.8215 95.4595C73.9197 95.443 74.007 95.391 74.0644 95.3149L74.5006 94.742L75.1265 95.1416C75.2096 95.1932 75.3111 95.2123 75.4091 95.1946C75.507 95.177 75.5936 95.124 75.65 95.0472C75.7064 94.9705 75.7281 94.8761 75.7103 94.7845C75.6926 94.693 75.6368 94.6116 75.5552 94.5581L74.9255 94.1585Z" fill="#444444"/>
<path d="M78.332 105.443L73.4006 105.089C73.3001 105.082 73.2006 105.112 73.1241 105.174C73.0477 105.235 73.0005 105.322 72.993 105.416C72.9854 105.51 73.0181 105.602 73.0839 105.674C73.1497 105.745 73.2432 105.789 73.3437 105.796L78.2751 106.15H78.2941C78.3947 106.153 78.4926 106.119 78.5662 106.055C78.6398 105.991 78.6832 105.902 78.6867 105.809C78.6902 105.715 78.6536 105.623 78.585 105.555C78.5163 105.486 78.4213 105.446 78.3207 105.443H78.332Z" fill="#444444"/>
<path d="M73.4689 104.392L77.6416 104.686H77.6719C77.7725 104.689 77.8704 104.655 77.944 104.591C78.0177 104.527 78.061 104.438 78.0645 104.344C78.0681 104.251 78.0315 104.159 77.9628 104.091C77.8942 104.022 77.7991 103.982 77.6985 103.978L73.5258 103.685C73.4759 103.681 73.4259 103.687 73.3784 103.702C73.3309 103.716 73.287 103.739 73.2491 103.77C73.2112 103.8 73.1802 103.837 73.1576 103.879C73.1351 103.92 73.1216 103.965 73.1179 104.012C73.1141 104.058 73.1202 104.105 73.1359 104.149C73.1515 104.194 73.1763 104.234 73.2089 104.27C73.2415 104.305 73.2812 104.334 73.3258 104.355C73.3704 104.376 73.419 104.389 73.4689 104.392Z" fill="#444444"/>
<path d="M77.8387 106.825L73.666 106.532C73.6162 106.528 73.5661 106.534 73.5187 106.548C73.4712 106.563 73.4273 106.586 73.3894 106.617C73.3515 106.647 73.3204 106.684 73.2979 106.726C73.2754 106.767 73.2619 106.812 73.2581 106.859C73.2544 106.905 73.2605 106.952 73.2761 106.996C73.2917 107.04 73.3165 107.081 73.3491 107.117C73.3817 107.152 73.4215 107.181 73.4661 107.202C73.5107 107.223 73.5593 107.236 73.6091 107.239L77.7818 107.533H77.8122C77.9128 107.536 78.0107 107.502 78.0843 107.438C78.1579 107.374 78.2013 107.285 78.2048 107.191C78.2083 107.097 78.1717 107.006 78.1031 106.938C78.0344 106.869 77.9393 106.829 77.8387 106.825Z" fill="#444444"/>
<path d="M88.1036 98.66L87.6598 99.6819C87.6298 99.7513 87.6242 99.8276 87.6438 99.9001C87.6633 99.9726 87.7069 100.037 87.7684 100.085C87.8299 100.133 87.9062 100.162 87.9861 100.167C88.0661 100.172 88.1458 100.153 88.2136 100.113L89.2037 99.5369L90.0762 100.269C90.1365 100.322 90.214 100.356 90.2967 100.364C90.3794 100.372 90.4628 100.355 90.5339 100.315C90.6051 100.275 90.6601 100.214 90.6905 100.142C90.7209 100.069 90.7249 99.9899 90.7021 99.9153L90.4555 98.8368L91.4342 98.3346C91.505 98.298 91.5614 98.2412 91.5951 98.1726C91.6288 98.104 91.6381 98.0271 91.6216 97.9532C91.605 97.8793 91.5636 97.8122 91.5032 97.7619C91.4429 97.7115 91.3669 97.6805 91.2863 97.6733L90.1482 97.5814L89.8486 96.4781C89.8293 96.4054 89.7858 96.3402 89.7242 96.2921C89.6627 96.2439 89.5863 96.2152 89.5062 96.2101C89.426 96.2049 89.3462 96.2237 89.2782 96.2636C89.2102 96.3035 89.1575 96.3625 89.1278 96.4321L88.6878 97.4753L87.5043 97.3798C87.4235 97.3733 87.3427 97.391 87.2735 97.4305C87.2044 97.4699 87.1506 97.5289 87.1201 97.5989C87.0895 97.6689 87.0838 97.7461 87.1038 97.8193C87.1238 97.8926 87.1684 97.9579 87.2311 98.0058L88.1036 98.66ZM88.9154 98.2038C88.9954 98.2093 89.0752 98.1911 89.1433 98.1517C89.2115 98.1123 89.2645 98.0538 89.2947 97.9845L89.4085 97.7193L89.4882 98.0128C89.5075 98.0838 89.55 98.1475 89.6098 98.195C89.6696 98.2425 89.7438 98.2715 89.822 98.278H89.9813L89.8448 98.3488C89.7734 98.3851 89.7165 98.4418 89.6824 98.5106C89.6482 98.5793 89.6387 98.6565 89.6551 98.7307L89.7196 99.0065L89.4996 98.8226C89.4381 98.7714 89.3604 98.7403 89.2783 98.7339C89.1962 98.7275 89.1141 98.7463 89.0444 98.7873L88.8016 98.9287L88.9116 98.6741C88.9418 98.6039 88.947 98.5265 88.9265 98.4533C88.9061 98.3801 88.8609 98.315 88.7978 98.2674L88.6764 98.1755L88.9154 98.2038Z" fill="#444444"/>
</svg>
