<svg width="450" height="512" viewBox="0 0 450 512" fill="none" xmlns="http://www.w3.org/2000/svg">
<path d="M212.66 3.35209C220.296 -1.11736 229.704 -1.11737 237.34 3.35209L434.66 118.842C442.296 123.311 447 131.571 447 140.51V371.49C447 380.429 442.296 388.689 434.66 393.158L237.34 508.648C229.704 513.117 220.296 513.117 212.66 508.648L15.3404 393.158C7.70413 388.689 3 380.429 3 371.49V140.51C3 131.571 7.70413 123.311 15.3404 118.842L212.66 3.35209Z" fill="white"/>
<path d="M214.68 6.80426C221.068 3.06525 228.932 3.06525 235.32 6.80426L432.639 122.294C439.034 126.037 443 132.974 443 140.51V371.49C443 379.026 439.034 385.963 432.639 389.706L235.32 505.196C228.932 508.935 221.068 508.935 214.68 505.196L17.3609 389.706C10.9662 385.963 7 379.026 7 371.49V140.51C7 132.974 10.9662 126.037 17.3609 122.294L214.68 6.80426Z" stroke="black" stroke-opacity="0.5" stroke-width="8"/>
<rect x="82" y="128" width="286" height="4" rx="2" fill="black" fill-opacity="0.3"/>
<rect x="82" y="380" width="286" height="4" rx="2" fill="black" fill-opacity="0.3"/>
<path d="M60.3359 271.215L64.5742 270.395V241.82L60.3359 241V236.188H92.0273V247.098H85.9023L85.5469 242.34H72.5586V253.305H86.5039V259.457H72.5586V270.395L76.8242 271.215V276H60.3359V271.215ZM108.707 276.574C104.441 276.574 101.033 275.207 98.4805 272.473C95.9284 269.738 94.6523 266.266 94.6523 262.055V260.961C94.6523 256.568 95.8555 252.949 98.2617 250.105C100.686 247.262 103.931 245.849 107.996 245.867C111.988 245.867 115.087 247.07 117.293 249.477C119.499 251.883 120.602 255.137 120.602 259.238V263.586H102.938L102.883 263.75C103.029 265.701 103.676 267.305 104.824 268.562C105.991 269.82 107.568 270.449 109.555 270.449C111.323 270.449 112.79 270.276 113.957 269.93C115.124 269.565 116.4 269 117.785 268.234L119.945 273.156C118.724 274.122 117.138 274.934 115.188 275.59C113.255 276.246 111.095 276.574 108.707 276.574ZM107.996 252.02C106.52 252.02 105.353 252.585 104.496 253.715C103.639 254.845 103.111 256.331 102.91 258.172L102.992 258.309H112.781V257.598C112.781 255.902 112.38 254.553 111.578 253.551C110.794 252.53 109.6 252.02 107.996 252.02ZM143.242 276C143.023 275.508 142.832 275.007 142.668 274.496C142.504 273.967 142.376 273.439 142.285 272.91C141.337 274.004 140.18 274.888 138.812 275.562C137.464 276.237 135.914 276.574 134.164 276.574C131.266 276.574 128.96 275.79 127.246 274.223C125.551 272.637 124.703 270.486 124.703 267.77C124.703 264.999 125.815 262.857 128.039 261.344C130.263 259.831 133.526 259.074 137.828 259.074H141.902V256.176C141.902 254.754 141.492 253.651 140.672 252.867C139.852 252.083 138.639 251.691 137.035 251.691C136.124 251.691 135.312 251.801 134.602 252.02C133.891 252.22 133.316 252.466 132.879 252.758L132.359 255.93H126.344L126.371 249.367C127.829 248.383 129.497 247.553 131.375 246.879C133.271 246.204 135.331 245.867 137.555 245.867C141.219 245.867 144.19 246.77 146.469 248.574C148.766 250.361 149.914 252.913 149.914 256.23V268.453C149.914 268.909 149.914 269.337 149.914 269.738C149.932 270.139 149.969 270.522 150.023 270.887L152.457 271.215V276H143.242ZM136.324 270.668C137.527 270.668 138.621 270.413 139.605 269.902C140.59 269.374 141.355 268.717 141.902 267.934V263.422H137.828C136.133 263.422 134.848 263.823 133.973 264.625C133.098 265.409 132.66 266.357 132.66 267.469C132.66 268.471 132.979 269.255 133.617 269.82C134.273 270.385 135.176 270.668 136.324 270.668ZM164.789 239.168V246.414H169.984V252.02H164.789V267.086C164.789 268.234 165.026 269.055 165.5 269.547C165.974 270.039 166.612 270.285 167.414 270.285C167.961 270.285 168.435 270.267 168.836 270.23C169.255 270.176 169.72 270.094 170.23 269.984L170.914 275.754C170.021 276.027 169.137 276.228 168.262 276.355C167.387 276.501 166.439 276.574 165.418 276.574C162.665 276.574 160.542 275.818 159.047 274.305C157.57 272.792 156.832 270.395 156.832 267.113V252.02H152.484V246.414H156.832V239.168H164.789ZM194.594 272.254C193.646 273.639 192.47 274.706 191.066 275.453C189.681 276.201 188.095 276.574 186.309 276.574C183.191 276.574 180.749 275.581 178.98 273.594C177.212 271.589 176.328 268.48 176.328 264.27V252.047L173.074 251.227V246.414H176.328H184.312V264.324C184.312 266.475 184.668 268.025 185.379 268.973C186.108 269.902 187.184 270.367 188.605 270.367C189.863 270.367 190.948 270.167 191.859 269.766C192.789 269.346 193.546 268.754 194.129 267.988V252.047L190.629 251.227V246.414H194.129H202.113V270.395L205.695 271.215V276H195.113L194.594 272.254ZM209.441 271.215L213.27 270.395V252.047L209.031 251.227V246.414H220.707L221.062 250.734C221.755 249.203 222.648 248.009 223.742 247.152C224.836 246.296 226.103 245.867 227.543 245.867C227.962 245.867 228.4 245.904 228.855 245.977C229.329 246.031 229.721 246.104 230.031 246.195L229.184 253.469L225.902 253.387C224.736 253.387 223.77 253.615 223.004 254.07C222.238 254.526 221.655 255.173 221.254 256.012V270.395L225.082 271.215V276H209.441V271.215ZM246.027 276.574C241.762 276.574 238.353 275.207 235.801 272.473C233.249 269.738 231.973 266.266 231.973 262.055V260.961C231.973 256.568 233.176 252.949 235.582 250.105C238.007 247.262 241.251 245.849 245.316 245.867C249.309 245.867 252.408 247.07 254.613 249.477C256.819 251.883 257.922 255.137 257.922 259.238V263.586H240.258L240.203 263.75C240.349 265.701 240.996 267.305 242.145 268.562C243.311 269.82 244.888 270.449 246.875 270.449C248.643 270.449 250.111 270.276 251.277 269.93C252.444 269.565 253.72 269 255.105 268.234L257.266 273.156C256.044 274.122 254.458 274.934 252.508 275.59C250.576 276.246 248.415 276.574 246.027 276.574ZM245.316 252.02C243.84 252.02 242.673 252.585 241.816 253.715C240.96 254.845 240.431 256.331 240.23 258.172L240.312 258.309H250.102V257.598C250.102 255.902 249.701 254.553 248.898 253.551C248.115 252.53 246.921 252.02 245.316 252.02ZM313.676 246.551L313.512 246.523L302.848 276H297.488L286.879 246.633L286.715 246.66L287.48 264.133V270.395L291.746 271.215V276H275.258V271.215L279.496 270.395V241.82L275.258 241V236.188H279.496H289.914L300.059 265.527H300.223L310.449 236.188H325.16V241L320.895 241.82V270.395L325.16 271.215V276H308.672V271.215L312.91 270.395V264.133L313.676 246.551ZM347.062 276C346.844 275.508 346.652 275.007 346.488 274.496C346.324 273.967 346.197 273.439 346.105 272.91C345.158 274.004 344 274.888 342.633 275.562C341.284 276.237 339.734 276.574 337.984 276.574C335.086 276.574 332.78 275.79 331.066 274.223C329.371 272.637 328.523 270.486 328.523 267.77C328.523 264.999 329.635 262.857 331.859 261.344C334.083 259.831 337.346 259.074 341.648 259.074H345.723V256.176C345.723 254.754 345.312 253.651 344.492 252.867C343.672 252.083 342.46 251.691 340.855 251.691C339.944 251.691 339.133 251.801 338.422 252.02C337.711 252.22 337.137 252.466 336.699 252.758L336.18 255.93H330.164L330.191 249.367C331.65 248.383 333.318 247.553 335.195 246.879C337.091 246.204 339.151 245.867 341.375 245.867C345.039 245.867 348.01 246.77 350.289 248.574C352.586 250.361 353.734 252.913 353.734 256.23V268.453C353.734 268.909 353.734 269.337 353.734 269.738C353.753 270.139 353.789 270.522 353.844 270.887L356.277 271.215V276H347.062ZM340.145 270.668C341.348 270.668 342.441 270.413 343.426 269.902C344.41 269.374 345.176 268.717 345.723 267.934V263.422H341.648C339.953 263.422 338.668 263.823 337.793 264.625C336.918 265.409 336.48 266.357 336.48 267.469C336.48 268.471 336.799 269.255 337.438 269.82C338.094 270.385 338.996 270.668 340.145 270.668ZM358.41 251.227V246.414H370.004L370.387 249.859C371.262 248.583 372.31 247.599 373.531 246.906C374.753 246.214 376.174 245.867 377.797 245.867C381.461 245.867 384.305 247.298 386.328 250.16C388.352 253.022 389.363 256.786 389.363 261.453V262.027C389.363 266.402 388.352 269.921 386.328 272.582C384.305 275.243 381.479 276.574 377.852 276.574C376.302 276.574 374.926 276.292 373.723 275.727C372.52 275.143 371.49 274.296 370.633 273.184V281.742L374.488 282.562V287.375H358.82V282.562L362.676 281.742V252.047L358.41 251.227ZM381.379 261.453C381.379 258.664 380.914 256.404 379.984 254.672C379.055 252.94 377.633 252.074 375.719 252.074C374.516 252.074 373.486 252.32 372.629 252.812C371.79 253.305 371.125 254.007 370.633 254.918V267.879C371.125 268.717 371.79 269.355 372.629 269.793C373.486 270.23 374.534 270.449 375.773 270.449C377.706 270.449 379.118 269.693 380.012 268.18C380.923 266.667 381.379 264.616 381.379 262.027V261.453Z" fill="black"/>
<path d="M145.844 97V93.7969L147.438 93.5625L154.219 74.25H160.156L166.953 93.5625L168.547 93.7969V97H160.047V93.7969L161.531 93.5156L160.844 91.0469H153.531L152.875 93.5156L154.359 93.7969V97H145.844ZM154.688 87.2031H159.672L157.453 80.3125L157.203 79.5156H157.109L156.844 80.3906L154.688 87.2031ZM169.547 97V93.7969L171.906 93.2969V77.9688L169.547 77.4688V74.2344H180.734C182.536 74.2344 184.099 74.5208 185.422 75.0938C186.745 75.6667 187.766 76.4844 188.484 77.5469C189.203 78.599 189.562 79.849 189.562 81.2969C189.562 82.6302 189.198 83.8698 188.469 85.0156C187.75 86.1615 186.76 87.0833 185.5 87.7812C184.24 88.4688 182.802 88.8073 181.188 88.7969L177.391 88.75V93.2969L179.75 93.7969V97H169.547ZM183.953 97L180.891 88.125L185.656 86.5L188.422 93.2656L190.578 93.8125V97H183.953ZM177.391 84.5469H180.797C181.859 84.5469 182.677 84.3021 183.25 83.8125C183.823 83.3125 184.109 82.5938 184.109 81.6562C184.109 80.6875 183.818 79.9115 183.234 79.3281C182.651 78.7344 181.818 78.4375 180.734 78.4375H177.391V84.5469ZM196.312 97V93.7969L198.688 93.2969V78.5H195.172L195.031 80.9531H190.891V74.25H212.031V80.9531H207.844L207.719 78.5H204.172V93.2969L206.547 93.7969V97H196.312ZM212.859 97V93.7969L215.219 93.2969V77.9688L212.859 77.4688V74.25H223.047V77.4688L220.688 77.9688V93.2969L223.047 93.7969V97H212.859ZM224.297 97V93.7969L226.656 93.2969V77.9688L224.297 77.4688V74.25H243.031V80.9531H238.891L238.781 78.4688H232.141V83.7344H239.875V87.9219H232.141V93.2969L234.5 93.7969V97H224.297ZM240.25 97V93.7969L241.844 93.5625L248.625 74.25H254.562L261.359 93.5625L262.953 93.7969V97H254.453V93.7969L255.938 93.5156L255.25 91.0469H247.938L247.281 93.5156L248.766 93.7969V97H240.25ZM249.094 87.2031H254.078L251.859 80.3125L251.609 79.5156H251.516L251.25 80.3906L249.094 87.2031ZM274.281 97.3281C272.115 97.3281 270.182 96.8906 268.484 96.0156C266.786 95.1406 265.453 93.875 264.484 92.2188C263.516 90.5521 263.031 88.5312 263.031 86.1562V85.1094C263.031 82.9219 263.474 80.9896 264.359 79.3125C265.255 77.625 266.526 76.3073 268.172 75.3594C269.828 74.401 271.792 73.9219 274.062 73.9219C275.646 73.9219 277.151 74.1354 278.578 74.5625C280.016 74.9792 281.349 75.6979 282.578 76.7188V82.5781H278.594L278.047 79.2188C277.693 78.9792 277.318 78.7708 276.922 78.5938C276.536 78.4167 276.12 78.2812 275.672 78.1875C275.234 78.0938 274.76 78.0469 274.25 78.0469C273.094 78.0469 272.083 78.3229 271.219 78.875C270.354 79.4271 269.682 80.2292 269.203 81.2812C268.734 82.3229 268.5 83.5885 268.5 85.0781V86.1562C268.5 87.5521 268.745 88.7812 269.234 89.8438C269.724 90.8958 270.406 91.7188 271.281 92.3125C272.167 92.9062 273.188 93.2031 274.344 93.2031C274.958 93.2031 275.583 93.1406 276.219 93.0156C276.854 92.8802 277.469 92.7031 278.062 92.4844L278.609 89.2656H282.609V95C281.703 95.625 280.547 96.1719 279.141 96.6406C277.734 97.099 276.115 97.3281 274.281 97.3281ZM288.594 97V93.7969L290.969 93.2969V78.5H287.453L287.312 80.9531H283.172V74.25H304.312V80.9531H300.125L300 78.5H296.453V93.2969L298.828 93.7969V97H288.594Z" fill="black" fill-opacity="0.3"/>
<path d="M187.969 438V434.797L190.312 434.297V418.969L187.969 418.469V415.25H190.312H198.703L204.203 430.234H204.297L209.641 415.25H220.25V418.469L217.891 418.969V434.297L220.25 434.797V438H210.062V434.797L212.516 434.297V431.328L212.641 420.625L212.547 420.609L206.109 438H201.797L195.266 420.812L195.156 420.828L195.531 430.578V434.297L198.172 434.797V438H187.969ZM218.484 438V434.797L220.078 434.562L226.859 415.25H232.797L239.594 434.562L241.188 434.797V438H232.688V434.797L234.172 434.516L233.484 432.047H226.172L225.516 434.516L227 434.797V438H218.484ZM227.328 428.203H232.312L230.094 421.312L229.844 420.516H229.75L229.484 421.391L227.328 428.203ZM242.188 438V434.797L244.547 434.297V418.969L242.188 418.469V415.25H244.547H253.25C255.062 415.25 256.635 415.568 257.969 416.203C259.302 416.839 260.328 417.724 261.047 418.859C261.776 419.984 262.141 421.297 262.141 422.797C262.141 424.297 261.776 425.609 261.047 426.734C260.328 427.859 259.302 428.734 257.969 429.359C256.635 429.984 255.062 430.297 253.25 430.297H250.031V434.297L252.391 434.797V438H242.188ZM250.031 426.094H253.25C254.365 426.094 255.208 425.792 255.781 425.188C256.365 424.573 256.656 423.786 256.656 422.828C256.656 421.839 256.365 421.026 255.781 420.391C255.208 419.755 254.365 419.438 253.25 419.438H250.031V426.094Z" fill="black" fill-opacity="0.3"/>
</svg>
