<svg width="163" height="191" viewBox="0 0 163 191" fill="none" xmlns="http://www.w3.org/2000/svg">
<path d="M75.7602 6.52497C79.6508 4.27879 84.4476 4.29317 88.3247 6.56262L154.315 45.1898C158.146 47.4323 160.5 51.5384 160.5 55.9775V134.853C160.5 139.285 158.154 143.385 154.333 145.63L88.343 184.409C84.4566 186.693 79.6417 186.708 75.7417 184.447L8.73174 145.608C4.87452 143.372 2.5 139.251 2.5 134.793V56.0374C2.5 51.5715 4.88256 47.4448 8.75016 45.2119L75.7602 6.52497Z" fill="#C9C675" stroke="#444444" stroke-width="5"/>
<path d="M83.4972 37C73.3998 37 65.1504 44.5664 65.1504 53.8215C65.1504 57.9681 66.8156 61.7605 69.5525 64.6958C59.1377 69.4026 52 79.2144 52 90.5767V106.332C51.994 107.781 53.2711 108.961 54.8527 108.967H61.5985V118.365C61.5925 119.814 62.8696 120.994 64.4512 121H103.835C105.426 121.006 106.716 119.822 106.71 118.365V108.967H112.147C113.729 108.961 115.006 107.781 115 106.332V90.5767C115 79.2143 107.876 69.3897 97.4642 64.6804C100.192 61.7474 101.85 57.9603 101.85 53.8215C101.85 44.5664 93.5946 37 83.4972 37ZM83.4972 42.25C90.499 42.25 96.1218 47.4037 96.1218 53.8215C96.1218 57.7442 94.0111 61.1717 90.78 63.2551C90.7054 63.2914 90.6326 63.3308 90.5618 63.3731C90.1751 63.6138 89.7641 63.8102 89.3536 64.0088C89.1752 64.0942 89.0057 64.1925 88.8222 64.2704C88.4681 64.4222 88.0987 64.5391 87.7315 64.66C87.3686 64.7776 87.0016 64.8852 86.624 64.9727C86.3223 65.0441 86.0193 65.1166 85.7122 65.1675C84.9916 65.283 84.2556 65.3674 83.4972 65.3674C82.7179 65.3674 81.9654 65.2841 81.2262 65.1624C80.9872 65.1227 80.7517 65.0661 80.5158 65.0137C79.9986 64.8997 79.4953 64.7579 79.0056 64.5881C78.7883 64.5127 78.5693 64.4438 78.3567 64.3575C77.7862 64.1257 77.2393 63.8559 76.7178 63.5525C76.6196 63.495 76.5124 63.4533 76.4158 63.3936C76.4028 63.3866 76.3897 63.3796 76.3766 63.3728C73.0509 61.3015 70.8782 57.8115 70.8782 53.8215C70.8782 47.4037 76.4953 42.25 83.4972 42.25ZM74.6706 68.5308C77.2947 69.8586 80.2997 70.6174 83.4972 70.6174C86.6947 70.6174 89.7053 69.8587 92.3294 68.5308C102.188 71.8327 109.272 80.3275 109.272 90.5767V103.717H106.71V85.5574C106.711 85.4701 106.708 85.3828 106.699 85.2958C106.547 83.9532 105.308 82.9354 103.835 82.9426H64.4512C64.3599 82.9385 64.2684 82.9385 64.1771 82.9426C63.0978 83.0432 62.1731 83.6943 61.7887 84.6242C61.7543 84.7066 61.7244 84.7903 61.6992 84.8754V84.8853C61.6744 84.9664 61.6538 85.0485 61.6376 85.1314C61.6217 85.218 61.6104 85.3053 61.604 85.3929C61.6003 85.4476 61.5984 85.5023 61.5984 85.557V103.717H57.7278V90.5763C57.7278 80.3273 64.8117 71.8329 74.6706 68.5308ZM67.3263 88.1978H100.983C100.983 97.3818 100.983 106.566 100.983 115.75H67.3263V106.332V88.1978ZM69.6923 103.871C54.9005 59.184 62.2964 81.5274 69.6923 103.871V103.871ZM93.3921 108.424C62.8005 60.7016 78.0963 84.5626 93.3921 108.424V108.424Z" fill="#444444"/>
</svg>
