<svg width="450" height="512" viewBox="0 0 450 512" fill="none" xmlns="http://www.w3.org/2000/svg">
<path d="M212.66 3.35209C220.296 -1.11736 229.704 -1.11737 237.34 3.35209L434.66 118.842C442.296 123.311 447 131.571 447 140.51V371.49C447 380.429 442.296 388.689 434.66 393.158L237.34 508.648C229.704 513.117 220.296 513.117 212.66 508.648L15.3404 393.158C7.70413 388.689 3 380.429 3 371.49V140.51C3 131.571 7.70413 123.311 15.3404 118.842L212.66 3.35209Z" fill="white"/>
<path d="M214.68 6.80426C221.068 3.06525 228.932 3.06525 235.32 6.80426L432.639 122.294C439.034 126.037 443 132.974 443 140.51V371.49C443 379.026 439.034 385.963 432.639 389.706L235.32 505.196C228.932 508.935 221.068 508.935 214.68 505.196L17.3609 389.706C10.9662 385.963 7 379.026 7 371.49V140.51C7 132.974 10.9662 126.037 17.3609 122.294L214.68 6.80426Z" stroke="black" stroke-opacity="0.5" stroke-width="8"/>
<rect x="82" y="128" width="286" height="4" rx="2" fill="black" fill-opacity="0.3"/>
<rect x="82" y="380" width="286" height="4" rx="2" fill="black" fill-opacity="0.3"/>
<path d="M153.441 243.57C152.147 244.846 150.26 246.004 147.781 247.043C145.302 248.064 142.167 248.574 138.375 248.574C132.997 248.574 128.622 246.779 125.25 243.188C121.878 239.578 120.191 234.893 120.191 229.133V227.766C120.191 221.805 121.85 216.956 125.168 213.219C128.504 209.482 132.852 207.613 138.211 207.613C141.328 207.613 144.172 208.115 146.742 209.117C149.331 210.102 151.482 211.441 153.195 213.137V221.148H147.289L146.168 215.816C145.439 215.197 144.473 214.704 143.27 214.34C142.085 213.957 140.717 213.766 139.168 213.766C135.686 213.766 132.979 215.051 131.047 217.621C129.115 220.191 128.148 223.555 128.148 227.711V229.133C128.148 233.18 129.096 236.415 130.992 238.84C132.888 241.246 135.622 242.449 139.195 242.449C140.799 242.449 142.094 242.312 143.078 242.039C144.081 241.766 144.865 241.447 145.43 241.082V234.328L139.742 233.891V228.285H153.441V243.57ZM157.215 243.215L161.07 242.395V210.977L156.805 210.156V205.344H169.027V222.188C169.957 220.82 171.096 219.763 172.445 219.016C173.794 218.25 175.289 217.867 176.93 217.867C180.029 217.867 182.453 218.897 184.203 220.957C185.971 222.999 186.855 226.161 186.855 230.445V242.395L190.684 243.215V248H175.426V243.215L178.871 242.395V230.391C178.871 228.094 178.461 226.471 177.641 225.523C176.839 224.557 175.635 224.074 174.031 224.074C172.919 224.074 171.944 224.275 171.105 224.676C170.285 225.077 169.592 225.642 169.027 226.371V242.395L172.473 243.215V248H157.215V243.215ZM207.145 248.574C202.879 248.574 199.47 247.207 196.918 244.473C194.366 241.738 193.09 238.266 193.09 234.055V232.961C193.09 228.568 194.293 224.949 196.699 222.105C199.124 219.262 202.368 217.849 206.434 217.867C210.426 217.867 213.525 219.07 215.73 221.477C217.936 223.883 219.039 227.137 219.039 231.238V235.586H201.375L201.32 235.75C201.466 237.701 202.113 239.305 203.262 240.562C204.428 241.82 206.005 242.449 207.992 242.449C209.76 242.449 211.228 242.276 212.395 241.93C213.561 241.565 214.837 241 216.223 240.234L218.383 245.156C217.161 246.122 215.576 246.934 213.625 247.59C211.693 248.246 209.533 248.574 207.145 248.574ZM206.434 224.02C204.957 224.02 203.79 224.585 202.934 225.715C202.077 226.845 201.548 228.331 201.348 230.172L201.43 230.309H211.219V229.598C211.219 227.902 210.818 226.553 210.016 225.551C209.232 224.53 208.038 224.02 206.434 224.02ZM223.441 243.215L227.27 242.395V224.047L223.031 223.227V218.414H234.707L235.062 222.734C235.755 221.203 236.648 220.009 237.742 219.152C238.836 218.296 240.103 217.867 241.543 217.867C241.962 217.867 242.4 217.904 242.855 217.977C243.329 218.031 243.721 218.104 244.031 218.195L243.184 225.469L239.902 225.387C238.736 225.387 237.77 225.615 237.004 226.07C236.238 226.526 235.655 227.173 235.254 228.012V242.395L239.082 243.215V248H223.441V243.215ZM244.195 210.156V205.344H256.418V230.062H258.195L262.789 223.582L260.191 223.227V218.414H274.738V223.227L271.238 224.02L265.906 231.348L273.371 242.586L276.406 243.215V248H262.734V243.215L264.375 242.941L259.836 235.613H256.418V242.395L259.863 243.215V248H244.605V243.215L248.461 242.395V210.977L244.195 210.156ZM278.977 243.215L282.832 242.395V224.047L278.566 223.227V218.414H290.816V242.395L294.645 243.215V248H278.977V243.215ZM290.816 211.332H282.832V205.344H290.816V211.332ZM296.832 243.215L300.66 242.395V224.047L296.422 223.227V218.414H308.098L308.453 222.652C309.438 221.139 310.65 219.964 312.09 219.125C313.53 218.286 315.143 217.867 316.93 217.867C319.919 217.867 322.253 218.806 323.93 220.684C325.607 222.561 326.445 225.505 326.445 229.516V242.395L330.273 243.215V248H315.016V243.215L318.434 242.395V229.543C318.434 227.556 318.033 226.152 317.23 225.332C316.428 224.493 315.216 224.074 313.594 224.074C312.536 224.074 311.589 224.293 310.75 224.73C309.911 225.15 309.21 225.751 308.645 226.535V242.395L311.871 243.215V248H296.832V243.215ZM140.426 276.902H134.438L133.398 271.434C132.706 270.996 131.694 270.613 130.363 270.285C129.033 269.957 127.62 269.793 126.125 269.793C123.938 269.793 122.242 270.258 121.039 271.188C119.854 272.099 119.262 273.284 119.262 274.742C119.262 276.091 119.882 277.203 121.121 278.078C122.379 278.935 124.539 279.846 127.602 280.812C131.995 282.034 135.322 283.647 137.582 285.652C139.861 287.658 141 290.292 141 293.555C141 296.964 139.651 299.652 136.953 301.621C134.255 303.59 130.701 304.574 126.289 304.574C123.135 304.574 120.283 304.073 117.73 303.07C115.197 302.068 113.082 300.682 111.387 298.914V290.602H117.566L118.414 296.262C119.216 296.918 120.301 297.465 121.668 297.902C123.053 298.322 124.594 298.531 126.289 298.531C128.477 298.531 130.135 298.085 131.266 297.191C132.414 296.298 132.988 295.104 132.988 293.609C132.988 292.078 132.441 290.848 131.348 289.918C130.272 288.988 128.376 288.113 125.66 287.293C120.939 285.926 117.366 284.303 114.941 282.426C112.517 280.548 111.305 277.978 111.305 274.715C111.305 271.488 112.672 268.854 115.406 266.812C118.141 264.753 121.577 263.695 125.715 263.641C128.777 263.641 131.566 264.105 134.082 265.035C136.598 265.965 138.712 267.204 140.426 268.754V276.902ZM158.227 298.449C159.648 298.449 160.788 298.039 161.645 297.219C162.501 296.38 162.93 295.268 162.93 293.883H170.148L170.23 294.047C170.303 297.036 169.182 299.543 166.867 301.566C164.552 303.572 161.672 304.574 158.227 304.574C153.815 304.574 150.415 303.18 148.027 300.391C145.639 297.602 144.445 294.02 144.445 289.645V288.824C144.445 284.467 145.667 280.885 148.109 278.078C150.57 275.271 154.07 273.867 158.609 273.867C160.997 273.867 163.139 274.223 165.035 274.934C166.931 275.645 168.508 276.647 169.766 277.941L169.875 285.844H163.395L162.082 281.223C161.681 280.876 161.189 280.594 160.605 280.375C160.022 280.138 159.357 280.02 158.609 280.02C156.349 280.02 154.754 280.84 153.824 282.48C152.895 284.121 152.43 286.236 152.43 288.824V289.645C152.43 292.288 152.858 294.421 153.715 296.043C154.572 297.647 156.076 298.449 158.227 298.449ZM188.031 304.574C183.766 304.574 180.357 303.207 177.805 300.473C175.253 297.738 173.977 294.266 173.977 290.055V288.961C173.977 284.568 175.18 280.949 177.586 278.105C180.01 275.262 183.255 273.849 187.32 273.867C191.312 273.867 194.411 275.07 196.617 277.477C198.823 279.883 199.926 283.137 199.926 287.238V291.586H182.262L182.207 291.75C182.353 293.701 183 295.305 184.148 296.562C185.315 297.82 186.892 298.449 188.879 298.449C190.647 298.449 192.115 298.276 193.281 297.93C194.448 297.565 195.724 297 197.109 296.234L199.27 301.156C198.048 302.122 196.462 302.934 194.512 303.59C192.579 304.246 190.419 304.574 188.031 304.574ZM187.32 280.02C185.844 280.02 184.677 280.585 183.82 281.715C182.964 282.845 182.435 284.331 182.234 286.172L182.316 286.309H192.105V285.598C192.105 283.902 191.704 282.553 190.902 281.551C190.118 280.53 188.924 280.02 187.32 280.02ZM203.289 299.215L207.117 298.395V280.047L202.879 279.227V274.414H214.555L214.91 278.652C215.895 277.139 217.107 275.964 218.547 275.125C219.987 274.286 221.6 273.867 223.387 273.867C226.376 273.867 228.71 274.806 230.387 276.684C232.064 278.561 232.902 281.505 232.902 285.516V298.395L236.73 299.215V304H221.473V299.215L224.891 298.395V285.543C224.891 283.556 224.49 282.152 223.688 281.332C222.885 280.493 221.673 280.074 220.051 280.074C218.993 280.074 218.046 280.293 217.207 280.73C216.368 281.15 215.667 281.751 215.102 282.535V298.395L218.328 299.215V304H203.289V299.215ZM258.113 304C257.895 303.508 257.703 303.007 257.539 302.496C257.375 301.967 257.247 301.439 257.156 300.91C256.208 302.004 255.051 302.888 253.684 303.562C252.335 304.237 250.785 304.574 249.035 304.574C246.137 304.574 243.831 303.79 242.117 302.223C240.422 300.637 239.574 298.486 239.574 295.77C239.574 292.999 240.686 290.857 242.91 289.344C245.134 287.831 248.397 287.074 252.699 287.074H256.773V284.176C256.773 282.754 256.363 281.651 255.543 280.867C254.723 280.083 253.51 279.691 251.906 279.691C250.995 279.691 250.184 279.801 249.473 280.02C248.762 280.22 248.188 280.466 247.75 280.758L247.23 283.93H241.215L241.242 277.367C242.701 276.383 244.368 275.553 246.246 274.879C248.142 274.204 250.202 273.867 252.426 273.867C256.09 273.867 259.061 274.77 261.34 276.574C263.637 278.361 264.785 280.913 264.785 284.23V296.453C264.785 296.909 264.785 297.337 264.785 297.738C264.803 298.139 264.84 298.522 264.895 298.887L267.328 299.215V304H258.113ZM251.195 298.668C252.398 298.668 253.492 298.413 254.477 297.902C255.461 297.374 256.227 296.717 256.773 295.934V291.422H252.699C251.004 291.422 249.719 291.823 248.844 292.625C247.969 293.409 247.531 294.357 247.531 295.469C247.531 296.471 247.85 297.255 248.488 297.82C249.145 298.385 250.047 298.668 251.195 298.668ZM270.664 299.215L274.492 298.395V280.047L270.254 279.227V274.414H281.93L282.285 278.734C282.978 277.203 283.871 276.009 284.965 275.152C286.059 274.296 287.326 273.867 288.766 273.867C289.185 273.867 289.622 273.904 290.078 273.977C290.552 274.031 290.944 274.104 291.254 274.195L290.406 281.469L287.125 281.387C285.958 281.387 284.992 281.615 284.227 282.07C283.461 282.526 282.878 283.173 282.477 284.012V298.395L286.305 299.215V304H270.664V299.215ZM293.387 299.215L297.242 298.395V280.047L292.977 279.227V274.414H305.227V298.395L309.055 299.215V304H293.387V299.215ZM305.227 267.332H297.242V261.344H305.227V267.332ZM311.68 288.934C311.68 284.522 312.91 280.913 315.371 278.105C317.85 275.28 321.268 273.867 325.625 273.867C330 273.867 333.418 275.271 335.879 278.078C338.358 280.885 339.598 284.504 339.598 288.934V289.508C339.598 293.956 338.358 297.583 335.879 300.391C333.418 303.18 330.018 304.574 325.68 304.574C321.286 304.574 317.85 303.18 315.371 300.391C312.91 297.583 311.68 293.956 311.68 289.508V288.934ZM319.664 289.508C319.664 292.206 320.138 294.375 321.086 296.016C322.034 297.638 323.565 298.449 325.68 298.449C327.74 298.449 329.243 297.629 330.191 295.988C331.158 294.348 331.641 292.188 331.641 289.508V288.934C331.641 286.309 331.158 284.167 330.191 282.508C329.225 280.849 327.703 280.02 325.625 280.02C323.547 280.02 322.034 280.849 321.086 282.508C320.138 284.167 319.664 286.309 319.664 288.934V289.508Z" fill="black"/>
<path d="M145.844 97V93.7969L147.438 93.5625L154.219 74.25H160.156L166.953 93.5625L168.547 93.7969V97H160.047V93.7969L161.531 93.5156L160.844 91.0469H153.531L152.875 93.5156L154.359 93.7969V97H145.844ZM154.688 87.2031H159.672L157.453 80.3125L157.203 79.5156H157.109L156.844 80.3906L154.688 87.2031ZM169.547 97V93.7969L171.906 93.2969V77.9688L169.547 77.4688V74.2344H180.734C182.536 74.2344 184.099 74.5208 185.422 75.0938C186.745 75.6667 187.766 76.4844 188.484 77.5469C189.203 78.599 189.562 79.849 189.562 81.2969C189.562 82.6302 189.198 83.8698 188.469 85.0156C187.75 86.1615 186.76 87.0833 185.5 87.7812C184.24 88.4688 182.802 88.8073 181.188 88.7969L177.391 88.75V93.2969L179.75 93.7969V97H169.547ZM183.953 97L180.891 88.125L185.656 86.5L188.422 93.2656L190.578 93.8125V97H183.953ZM177.391 84.5469H180.797C181.859 84.5469 182.677 84.3021 183.25 83.8125C183.823 83.3125 184.109 82.5938 184.109 81.6562C184.109 80.6875 183.818 79.9115 183.234 79.3281C182.651 78.7344 181.818 78.4375 180.734 78.4375H177.391V84.5469ZM196.312 97V93.7969L198.688 93.2969V78.5H195.172L195.031 80.9531H190.891V74.25H212.031V80.9531H207.844L207.719 78.5H204.172V93.2969L206.547 93.7969V97H196.312ZM212.859 97V93.7969L215.219 93.2969V77.9688L212.859 77.4688V74.25H223.047V77.4688L220.688 77.9688V93.2969L223.047 93.7969V97H212.859ZM224.297 97V93.7969L226.656 93.2969V77.9688L224.297 77.4688V74.25H243.031V80.9531H238.891L238.781 78.4688H232.141V83.7344H239.875V87.9219H232.141V93.2969L234.5 93.7969V97H224.297ZM240.25 97V93.7969L241.844 93.5625L248.625 74.25H254.562L261.359 93.5625L262.953 93.7969V97H254.453V93.7969L255.938 93.5156L255.25 91.0469H247.938L247.281 93.5156L248.766 93.7969V97H240.25ZM249.094 87.2031H254.078L251.859 80.3125L251.609 79.5156H251.516L251.25 80.3906L249.094 87.2031ZM274.281 97.3281C272.115 97.3281 270.182 96.8906 268.484 96.0156C266.786 95.1406 265.453 93.875 264.484 92.2188C263.516 90.5521 263.031 88.5312 263.031 86.1562V85.1094C263.031 82.9219 263.474 80.9896 264.359 79.3125C265.255 77.625 266.526 76.3073 268.172 75.3594C269.828 74.401 271.792 73.9219 274.062 73.9219C275.646 73.9219 277.151 74.1354 278.578 74.5625C280.016 74.9792 281.349 75.6979 282.578 76.7188V82.5781H278.594L278.047 79.2188C277.693 78.9792 277.318 78.7708 276.922 78.5938C276.536 78.4167 276.12 78.2812 275.672 78.1875C275.234 78.0938 274.76 78.0469 274.25 78.0469C273.094 78.0469 272.083 78.3229 271.219 78.875C270.354 79.4271 269.682 80.2292 269.203 81.2812C268.734 82.3229 268.5 83.5885 268.5 85.0781V86.1562C268.5 87.5521 268.745 88.7812 269.234 89.8438C269.724 90.8958 270.406 91.7188 271.281 92.3125C272.167 92.9062 273.188 93.2031 274.344 93.2031C274.958 93.2031 275.583 93.1406 276.219 93.0156C276.854 92.8802 277.469 92.7031 278.062 92.4844L278.609 89.2656H282.609V95C281.703 95.625 280.547 96.1719 279.141 96.6406C277.734 97.099 276.115 97.3281 274.281 97.3281ZM288.594 97V93.7969L290.969 93.2969V78.5H287.453L287.312 80.9531H283.172V74.25H304.312V80.9531H300.125L300 78.5H296.453V93.2969L298.828 93.7969V97H288.594Z" fill="black" fill-opacity="0.3"/>
<path d="M153.75 438.328C151.896 438.328 150.25 438.151 148.812 437.797C147.375 437.443 145.943 436.776 144.516 435.797V429.891H148.75L149.219 432.922C149.552 433.297 150.141 433.615 150.984 433.875C151.828 434.125 152.75 434.25 153.75 434.25C154.448 434.25 155.031 434.167 155.5 434C155.969 433.823 156.323 433.568 156.562 433.234C156.802 432.901 156.922 432.5 156.922 432.031C156.922 431.583 156.807 431.182 156.578 430.828C156.359 430.474 155.995 430.141 155.484 429.828C154.974 429.505 154.286 429.177 153.422 428.844C151.474 428.219 149.875 427.583 148.625 426.938C147.375 426.292 146.443 425.526 145.828 424.641C145.224 423.755 144.922 422.656 144.922 421.344C144.922 420.083 145.281 418.984 146 418.047C146.719 417.099 147.708 416.354 148.969 415.812C150.229 415.271 151.672 414.984 153.297 414.953C155.151 414.911 156.792 415.099 158.219 415.516C159.646 415.922 160.906 416.542 162 417.375V422.859H157.938L157.297 419.812C156.943 419.635 156.438 419.474 155.781 419.328C155.125 419.182 154.427 419.109 153.688 419.109C153.052 419.109 152.484 419.193 151.984 419.359C151.495 419.526 151.104 419.776 150.812 420.109C150.531 420.443 150.391 420.859 150.391 421.359C150.391 421.766 150.51 422.13 150.75 422.453C150.99 422.766 151.411 423.083 152.016 423.406C152.62 423.719 153.464 424.083 154.547 424.5C157.13 425.26 159.089 426.214 160.422 427.359C161.766 428.495 162.438 430.042 162.438 432C162.438 433.344 162.073 434.49 161.344 435.438C160.615 436.375 159.599 437.094 158.297 437.594C156.995 438.083 155.479 438.328 153.75 438.328ZM174.844 438.328C172.677 438.328 170.745 437.891 169.047 437.016C167.349 436.141 166.016 434.875 165.047 433.219C164.078 431.552 163.594 429.531 163.594 427.156V426.109C163.594 423.922 164.036 421.99 164.922 420.312C165.818 418.625 167.089 417.307 168.734 416.359C170.391 415.401 172.354 414.922 174.625 414.922C176.208 414.922 177.714 415.135 179.141 415.562C180.578 415.979 181.911 416.698 183.141 417.719V423.578H179.156L178.609 420.219C178.255 419.979 177.88 419.771 177.484 419.594C177.099 419.417 176.682 419.281 176.234 419.188C175.797 419.094 175.323 419.047 174.812 419.047C173.656 419.047 172.646 419.323 171.781 419.875C170.917 420.427 170.245 421.229 169.766 422.281C169.297 423.323 169.062 424.589 169.062 426.078V427.156C169.062 428.552 169.307 429.781 169.797 430.844C170.286 431.896 170.969 432.719 171.844 433.312C172.729 433.906 173.75 434.203 174.906 434.203C175.521 434.203 176.146 434.141 176.781 434.016C177.417 433.88 178.031 433.703 178.625 433.484L179.172 430.266H183.172V436C182.266 436.625 181.109 437.172 179.703 437.641C178.297 438.099 176.677 438.328 174.844 438.328ZM184.609 438V434.797L186.969 434.297V418.969L184.609 418.469V415.25H202.781V421.812H198.641L198.516 419.469H192.453V424.141H199.719V428.344H192.453V433.766H198.812L198.938 431.312H203.031V438H184.609ZM205.062 438V434.797L207.406 434.297V418.969L205.062 418.469V415.25H207.406H212.984L222.109 429.812H222.203V418.969L219.219 418.469V415.25H227.062H229.422V418.469L227.062 418.969V438H221.656L212.359 423.75H212.266V434.297L215.266 434.797V438H205.062ZM227.562 438V434.797L229.156 434.562L235.938 415.25H241.875L248.672 434.562L250.266 434.797V438H241.766V434.797L243.25 434.516L242.562 432.047H235.25L234.594 434.516L236.078 434.797V438H227.562ZM236.406 428.203H241.391L239.172 421.312L238.922 420.516H238.828L238.562 421.391L236.406 428.203ZM251.266 438V434.797L253.625 434.297V418.969L251.266 418.469V415.234H262.453C264.255 415.234 265.818 415.521 267.141 416.094C268.464 416.667 269.484 417.484 270.203 418.547C270.922 419.599 271.281 420.849 271.281 422.297C271.281 423.63 270.917 424.87 270.188 426.016C269.469 427.161 268.479 428.083 267.219 428.781C265.958 429.469 264.521 429.807 262.906 429.797L259.109 429.75V434.297L261.469 434.797V438H251.266ZM265.672 438L262.609 429.125L267.375 427.5L270.141 434.266L272.297 434.812V438H265.672ZM259.109 425.547H262.516C263.578 425.547 264.396 425.302 264.969 424.812C265.542 424.312 265.828 423.594 265.828 422.656C265.828 421.688 265.536 420.911 264.953 420.328C264.37 419.734 263.536 419.438 262.453 419.438H259.109V425.547ZM273.484 438V434.797L275.844 434.297V418.969L273.484 418.469V415.25H283.672V418.469L281.312 418.969V434.297L283.672 434.797V438H273.484ZM296.062 438.328C294.49 438.328 293.042 438.042 291.719 437.469C290.406 436.885 289.266 436.073 288.297 435.031C287.328 433.99 286.578 432.771 286.047 431.375C285.526 429.969 285.266 428.443 285.266 426.797V426.438C285.266 424.802 285.526 423.286 286.047 421.891C286.578 420.495 287.323 419.276 288.281 418.234C289.25 417.193 290.391 416.38 291.703 415.797C293.016 415.214 294.458 414.922 296.031 414.922C297.573 414.922 299.005 415.214 300.328 415.797C301.651 416.38 302.807 417.193 303.797 418.234C304.797 419.276 305.573 420.495 306.125 421.891C306.677 423.286 306.953 424.802 306.953 426.438V426.797C306.953 428.443 306.677 429.969 306.125 431.375C305.573 432.771 304.802 433.99 303.812 435.031C302.823 436.073 301.667 436.885 300.344 437.469C299.021 438.042 297.594 438.328 296.062 438.328ZM296.062 434.172C297.208 434.172 298.188 433.865 299 433.25C299.812 432.635 300.432 431.776 300.859 430.672C301.286 429.568 301.5 428.276 301.5 426.797V426.406C301.5 424.958 301.281 423.688 300.844 422.594C300.417 421.49 299.797 420.63 298.984 420.016C298.172 419.401 297.188 419.094 296.031 419.094C294.812 419.094 293.812 419.396 293.031 420C292.26 420.604 291.688 421.453 291.312 422.547C290.938 423.641 290.75 424.927 290.75 426.406V426.797C290.75 428.276 290.938 429.573 291.312 430.688C291.698 431.792 292.281 432.651 293.062 433.266C293.854 433.87 294.854 434.172 296.062 434.172Z" fill="black" fill-opacity="0.3"/>
</svg>
