<svg width="450" height="512" viewBox="0 0 450 512" fill="none" xmlns="http://www.w3.org/2000/svg">
<path d="M212.66 3.35209C220.296 -1.11736 229.704 -1.11737 237.34 3.35209L434.66 118.842C442.296 123.311 447 131.571 447 140.51V371.49C447 380.429 442.296 388.689 434.66 393.158L237.34 508.648C229.704 513.117 220.296 513.117 212.66 508.648L15.3404 393.158C7.70413 388.689 3 380.429 3 371.49V140.51C3 131.571 7.70413 123.311 15.3404 118.842L212.66 3.35209Z" fill="white"/>
<path d="M214.68 6.80426C221.068 3.06525 228.932 3.06525 235.32 6.80426L432.639 122.294C439.034 126.037 443 132.974 443 140.51V371.49C443 379.026 439.034 385.963 432.639 389.706L235.32 505.196C228.932 508.935 221.068 508.935 214.68 505.196L17.3609 389.706C10.9662 385.963 7 379.026 7 371.49V140.51C7 132.974 10.9662 126.037 17.3609 122.294L214.68 6.80426Z" stroke="black" stroke-opacity="0.5" stroke-width="8"/>
<rect x="82" y="128" width="286" height="4" rx="2" fill="black" fill-opacity="0.3"/>
<rect x="82" y="380" width="286" height="4" rx="2" fill="black" fill-opacity="0.3"/>
<path d="M67.5273 241V236.188H84.0156V241L79.75 241.82V270.395L84.0156 271.215V276H67.5273V271.215L71.793 270.395V241.82L67.5273 241ZM86.3398 251.227V246.414H98.0156L98.3438 250.324C99.2917 248.902 100.477 247.809 101.898 247.043C103.339 246.259 104.997 245.867 106.875 245.867C108.771 245.867 110.393 246.286 111.742 247.125C113.091 247.964 114.112 249.23 114.805 250.926C115.716 249.34 116.901 248.1 118.359 247.207C119.818 246.314 121.531 245.867 123.5 245.867C126.417 245.867 128.714 246.879 130.391 248.902C132.086 250.908 132.934 253.97 132.934 258.09V270.395L136.789 271.215V276H121.504V271.215L124.949 270.395V258.062C124.949 255.82 124.585 254.262 123.855 253.387C123.126 252.512 122.042 252.074 120.602 252.074C119.471 252.074 118.487 252.329 117.648 252.84C116.828 253.332 116.172 254.025 115.68 254.918C115.68 255.264 115.689 255.565 115.707 255.82C115.725 256.057 115.734 256.303 115.734 256.559V270.395L118.961 271.215V276H104.551V271.215L107.777 270.395V258.062C107.777 255.875 107.413 254.335 106.684 253.441C105.954 252.53 104.861 252.074 103.402 252.074C102.327 252.074 101.379 252.284 100.559 252.703C99.7565 253.104 99.0911 253.678 98.5625 254.426V270.395L102.008 271.215V276H86.75V271.215L90.6055 270.395V252.047L86.3398 251.227ZM138.785 251.227V246.414H150.379L150.762 249.859C151.637 248.583 152.685 247.599 153.906 246.906C155.128 246.214 156.549 245.867 158.172 245.867C161.836 245.867 164.68 247.298 166.703 250.16C168.727 253.022 169.738 256.786 169.738 261.453V262.027C169.738 266.402 168.727 269.921 166.703 272.582C164.68 275.243 161.854 276.574 158.227 276.574C156.677 276.574 155.301 276.292 154.098 275.727C152.895 275.143 151.865 274.296 151.008 273.184V281.742L154.863 282.562V287.375H139.195V282.562L143.051 281.742V252.047L138.785 251.227ZM161.754 261.453C161.754 258.664 161.289 256.404 160.359 254.672C159.43 252.94 158.008 252.074 156.094 252.074C154.891 252.074 153.861 252.32 153.004 252.812C152.165 253.305 151.5 254.007 151.008 254.918V267.879C151.5 268.717 152.165 269.355 153.004 269.793C153.861 270.23 154.909 270.449 156.148 270.449C158.081 270.449 159.493 269.693 160.387 268.18C161.298 266.667 161.754 264.616 161.754 262.027V261.453ZM192.133 276C191.914 275.508 191.723 275.007 191.559 274.496C191.395 273.967 191.267 273.439 191.176 272.91C190.228 274.004 189.07 274.888 187.703 275.562C186.354 276.237 184.805 276.574 183.055 276.574C180.156 276.574 177.85 275.79 176.137 274.223C174.441 272.637 173.594 270.486 173.594 267.77C173.594 264.999 174.706 262.857 176.93 261.344C179.154 259.831 182.417 259.074 186.719 259.074H190.793V256.176C190.793 254.754 190.383 253.651 189.562 252.867C188.742 252.083 187.53 251.691 185.926 251.691C185.014 251.691 184.203 251.801 183.492 252.02C182.781 252.22 182.207 252.466 181.77 252.758L181.25 255.93H175.234L175.262 249.367C176.72 248.383 178.388 247.553 180.266 246.879C182.161 246.204 184.221 245.867 186.445 245.867C190.109 245.867 193.081 246.77 195.359 248.574C197.656 250.361 198.805 252.913 198.805 256.23V268.453C198.805 268.909 198.805 269.337 198.805 269.738C198.823 270.139 198.859 270.522 198.914 270.887L201.348 271.215V276H192.133ZM185.215 270.668C186.418 270.668 187.512 270.413 188.496 269.902C189.48 269.374 190.246 268.717 190.793 267.934V263.422H186.719C185.023 263.422 183.738 263.823 182.863 264.625C181.988 265.409 181.551 266.357 181.551 267.469C181.551 268.471 181.87 269.255 182.508 269.82C183.164 270.385 184.066 270.668 185.215 270.668ZM217.973 270.449C219.395 270.449 220.534 270.039 221.391 269.219C222.247 268.38 222.676 267.268 222.676 265.883H229.895L229.977 266.047C230.049 269.036 228.928 271.543 226.613 273.566C224.298 275.572 221.418 276.574 217.973 276.574C213.561 276.574 210.161 275.18 207.773 272.391C205.385 269.602 204.191 266.02 204.191 261.645V260.824C204.191 256.467 205.413 252.885 207.855 250.078C210.316 247.271 213.816 245.867 218.355 245.867C220.743 245.867 222.885 246.223 224.781 246.934C226.677 247.645 228.254 248.647 229.512 249.941L229.621 257.844H223.141L221.828 253.223C221.427 252.876 220.935 252.594 220.352 252.375C219.768 252.138 219.103 252.02 218.355 252.02C216.095 252.02 214.5 252.84 213.57 254.48C212.641 256.121 212.176 258.236 212.176 260.824V261.645C212.176 264.288 212.604 266.421 213.461 268.043C214.318 269.647 215.822 270.449 217.973 270.449ZM245.398 239.168V246.414H250.594V252.02H245.398V267.086C245.398 268.234 245.635 269.055 246.109 269.547C246.583 270.039 247.221 270.285 248.023 270.285C248.57 270.285 249.044 270.267 249.445 270.23C249.865 270.176 250.329 270.094 250.84 269.984L251.523 275.754C250.63 276.027 249.746 276.228 248.871 276.355C247.996 276.501 247.048 276.574 246.027 276.574C243.275 276.574 241.151 275.818 239.656 274.305C238.18 272.792 237.441 270.395 237.441 267.113V252.02H233.094V246.414H237.441V239.168H245.398ZM306.457 246.551L306.293 246.523L295.629 276H290.27L279.66 246.633L279.496 246.66L280.262 264.133V270.395L284.527 271.215V276H268.039V271.215L272.277 270.395V241.82L268.039 241V236.188H272.277H282.695L292.84 265.527H293.004L303.23 236.188H317.941V241L313.676 241.82V270.395L317.941 271.215V276H301.453V271.215L305.691 270.395V264.133L306.457 246.551ZM339.844 276C339.625 275.508 339.434 275.007 339.27 274.496C339.105 273.967 338.978 273.439 338.887 272.91C337.939 274.004 336.781 274.888 335.414 275.562C334.065 276.237 332.516 276.574 330.766 276.574C327.867 276.574 325.561 275.79 323.848 274.223C322.152 272.637 321.305 270.486 321.305 267.77C321.305 264.999 322.417 262.857 324.641 261.344C326.865 259.831 330.128 259.074 334.43 259.074H338.504V256.176C338.504 254.754 338.094 253.651 337.273 252.867C336.453 252.083 335.241 251.691 333.637 251.691C332.725 251.691 331.914 251.801 331.203 252.02C330.492 252.22 329.918 252.466 329.48 252.758L328.961 255.93H322.945L322.973 249.367C324.431 248.383 326.099 247.553 327.977 246.879C329.872 246.204 331.932 245.867 334.156 245.867C337.82 245.867 340.792 246.77 343.07 248.574C345.367 250.361 346.516 252.913 346.516 256.23V268.453C346.516 268.909 346.516 269.337 346.516 269.738C346.534 270.139 346.57 270.522 346.625 270.887L349.059 271.215V276H339.844ZM332.926 270.668C334.129 270.668 335.223 270.413 336.207 269.902C337.191 269.374 337.957 268.717 338.504 267.934V263.422H334.43C332.734 263.422 331.449 263.823 330.574 264.625C329.699 265.409 329.262 266.357 329.262 267.469C329.262 268.471 329.581 269.255 330.219 269.82C330.875 270.385 331.777 270.668 332.926 270.668ZM351.191 251.227V246.414H362.785L363.168 249.859C364.043 248.583 365.091 247.599 366.312 246.906C367.534 246.214 368.956 245.867 370.578 245.867C374.242 245.867 377.086 247.298 379.109 250.16C381.133 253.022 382.145 256.786 382.145 261.453V262.027C382.145 266.402 381.133 269.921 379.109 272.582C377.086 275.243 374.26 276.574 370.633 276.574C369.083 276.574 367.707 276.292 366.504 275.727C365.301 275.143 364.271 274.296 363.414 273.184V281.742L367.27 282.562V287.375H351.602V282.562L355.457 281.742V252.047L351.191 251.227ZM374.16 261.453C374.16 258.664 373.695 256.404 372.766 254.672C371.836 252.94 370.414 252.074 368.5 252.074C367.297 252.074 366.267 252.32 365.41 252.812C364.572 253.305 363.906 254.007 363.414 254.918V267.879C363.906 268.717 364.572 269.355 365.41 269.793C366.267 270.23 367.315 270.449 368.555 270.449C370.487 270.449 371.9 269.693 372.793 268.18C373.704 266.667 374.16 264.616 374.16 262.027V261.453Z" fill="black"/>
<path d="M145.844 97V93.7969L147.438 93.5625L154.219 74.25H160.156L166.953 93.5625L168.547 93.7969V97H160.047V93.7969L161.531 93.5156L160.844 91.0469H153.531L152.875 93.5156L154.359 93.7969V97H145.844ZM154.688 87.2031H159.672L157.453 80.3125L157.203 79.5156H157.109L156.844 80.3906L154.688 87.2031ZM169.547 97V93.7969L171.906 93.2969V77.9688L169.547 77.4688V74.2344H180.734C182.536 74.2344 184.099 74.5208 185.422 75.0938C186.745 75.6667 187.766 76.4844 188.484 77.5469C189.203 78.599 189.562 79.849 189.562 81.2969C189.562 82.6302 189.198 83.8698 188.469 85.0156C187.75 86.1615 186.76 87.0833 185.5 87.7812C184.24 88.4688 182.802 88.8073 181.188 88.7969L177.391 88.75V93.2969L179.75 93.7969V97H169.547ZM183.953 97L180.891 88.125L185.656 86.5L188.422 93.2656L190.578 93.8125V97H183.953ZM177.391 84.5469H180.797C181.859 84.5469 182.677 84.3021 183.25 83.8125C183.823 83.3125 184.109 82.5938 184.109 81.6562C184.109 80.6875 183.818 79.9115 183.234 79.3281C182.651 78.7344 181.818 78.4375 180.734 78.4375H177.391V84.5469ZM196.312 97V93.7969L198.688 93.2969V78.5H195.172L195.031 80.9531H190.891V74.25H212.031V80.9531H207.844L207.719 78.5H204.172V93.2969L206.547 93.7969V97H196.312ZM212.859 97V93.7969L215.219 93.2969V77.9688L212.859 77.4688V74.25H223.047V77.4688L220.688 77.9688V93.2969L223.047 93.7969V97H212.859ZM224.297 97V93.7969L226.656 93.2969V77.9688L224.297 77.4688V74.25H243.031V80.9531H238.891L238.781 78.4688H232.141V83.7344H239.875V87.9219H232.141V93.2969L234.5 93.7969V97H224.297ZM240.25 97V93.7969L241.844 93.5625L248.625 74.25H254.562L261.359 93.5625L262.953 93.7969V97H254.453V93.7969L255.938 93.5156L255.25 91.0469H247.938L247.281 93.5156L248.766 93.7969V97H240.25ZM249.094 87.2031H254.078L251.859 80.3125L251.609 79.5156H251.516L251.25 80.3906L249.094 87.2031ZM274.281 97.3281C272.115 97.3281 270.182 96.8906 268.484 96.0156C266.786 95.1406 265.453 93.875 264.484 92.2188C263.516 90.5521 263.031 88.5312 263.031 86.1562V85.1094C263.031 82.9219 263.474 80.9896 264.359 79.3125C265.255 77.625 266.526 76.3073 268.172 75.3594C269.828 74.401 271.792 73.9219 274.062 73.9219C275.646 73.9219 277.151 74.1354 278.578 74.5625C280.016 74.9792 281.349 75.6979 282.578 76.7188V82.5781H278.594L278.047 79.2188C277.693 78.9792 277.318 78.7708 276.922 78.5938C276.536 78.4167 276.12 78.2812 275.672 78.1875C275.234 78.0938 274.76 78.0469 274.25 78.0469C273.094 78.0469 272.083 78.3229 271.219 78.875C270.354 79.4271 269.682 80.2292 269.203 81.2812C268.734 82.3229 268.5 83.5885 268.5 85.0781V86.1562C268.5 87.5521 268.745 88.7812 269.234 89.8438C269.724 90.8958 270.406 91.7188 271.281 92.3125C272.167 92.9062 273.188 93.2031 274.344 93.2031C274.958 93.2031 275.583 93.1406 276.219 93.0156C276.854 92.8802 277.469 92.7031 278.062 92.4844L278.609 89.2656H282.609V95C281.703 95.625 280.547 96.1719 279.141 96.6406C277.734 97.099 276.115 97.3281 274.281 97.3281ZM288.594 97V93.7969L290.969 93.2969V78.5H287.453L287.312 80.9531H283.172V74.25H304.312V80.9531H300.125L300 78.5H296.453V93.2969L298.828 93.7969V97H288.594Z" fill="black" fill-opacity="0.3"/>
<path d="M145.844 438V434.797L147.438 434.562L154.219 415.25H160.156L166.953 434.562L168.547 434.797V438H160.047V434.797L161.531 434.516L160.844 432.047H153.531L152.875 434.516L154.359 434.797V438H145.844ZM154.688 428.203H159.672L157.453 421.312L157.203 420.516H157.109L156.844 421.391L154.688 428.203ZM169.547 438V434.797L171.906 434.297V418.969L169.547 418.469V415.234H180.734C182.536 415.234 184.099 415.521 185.422 416.094C186.745 416.667 187.766 417.484 188.484 418.547C189.203 419.599 189.562 420.849 189.562 422.297C189.562 423.63 189.198 424.87 188.469 426.016C187.75 427.161 186.76 428.083 185.5 428.781C184.24 429.469 182.802 429.807 181.188 429.797L177.391 429.75V434.297L179.75 434.797V438H169.547ZM183.953 438L180.891 429.125L185.656 427.5L188.422 434.266L190.578 434.812V438H183.953ZM177.391 425.547H180.797C181.859 425.547 182.677 425.302 183.25 424.812C183.823 424.312 184.109 423.594 184.109 422.656C184.109 421.688 183.818 420.911 183.234 420.328C182.651 419.734 181.818 419.438 180.734 419.438H177.391V425.547ZM196.312 438V434.797L198.688 434.297V419.5H195.172L195.031 421.953H190.891V415.25H212.031V421.953H207.844L207.719 419.5H204.172V434.297L206.547 434.797V438H196.312ZM212.859 438V434.797L215.219 434.297V418.969L212.859 418.469V415.25H223.047V418.469L220.688 418.969V434.297L223.047 434.797V438H212.859ZM224.297 438V434.797L226.656 434.297V418.969L224.297 418.469V415.25H243.031V421.953H238.891L238.781 419.469H232.141V424.734H239.875V428.922H232.141V434.297L234.5 434.797V438H224.297ZM240.25 438V434.797L241.844 434.562L248.625 415.25H254.562L261.359 434.562L262.953 434.797V438H254.453V434.797L255.938 434.516L255.25 432.047H247.938L247.281 434.516L248.766 434.797V438H240.25ZM249.094 428.203H254.078L251.859 421.312L251.609 420.516H251.516L251.25 421.391L249.094 428.203ZM274.281 438.328C272.115 438.328 270.182 437.891 268.484 437.016C266.786 436.141 265.453 434.875 264.484 433.219C263.516 431.552 263.031 429.531 263.031 427.156V426.109C263.031 423.922 263.474 421.99 264.359 420.312C265.255 418.625 266.526 417.307 268.172 416.359C269.828 415.401 271.792 414.922 274.062 414.922C275.646 414.922 277.151 415.135 278.578 415.562C280.016 415.979 281.349 416.698 282.578 417.719V423.578H278.594L278.047 420.219C277.693 419.979 277.318 419.771 276.922 419.594C276.536 419.417 276.12 419.281 275.672 419.188C275.234 419.094 274.76 419.047 274.25 419.047C273.094 419.047 272.083 419.323 271.219 419.875C270.354 420.427 269.682 421.229 269.203 422.281C268.734 423.323 268.5 424.589 268.5 426.078V427.156C268.5 428.552 268.745 429.781 269.234 430.844C269.724 431.896 270.406 432.719 271.281 433.312C272.167 433.906 273.188 434.203 274.344 434.203C274.958 434.203 275.583 434.141 276.219 434.016C276.854 433.88 277.469 433.703 278.062 433.484L278.609 430.266H282.609V436C281.703 436.625 280.547 437.172 279.141 437.641C277.734 438.099 276.115 438.328 274.281 438.328ZM288.594 438V434.797L290.969 434.297V419.5H287.453L287.312 421.953H283.172V415.25H304.312V421.953H300.125L300 419.5H296.453V434.297L298.828 434.797V438H288.594Z" fill="black" fill-opacity="0.3"/>
</svg>
