<svg width="450" height="512" viewBox="0 0 450 512" fill="none" xmlns="http://www.w3.org/2000/svg">
<path d="M212.66 3.35209C220.296 -1.11736 229.704 -1.11737 237.34 3.35209L434.66 118.842C442.296 123.311 447 131.571 447 140.51V371.49C447 380.429 442.296 388.689 434.66 393.158L237.34 508.648C229.704 513.117 220.296 513.117 212.66 508.648L15.3404 393.158C7.70413 388.689 3 380.429 3 371.49V140.51C3 131.571 7.70413 123.311 15.3404 118.842L212.66 3.35209Z" fill="white"/>
<path d="M214.68 6.80426C221.068 3.06525 228.932 3.06525 235.32 6.80426L432.639 122.294C439.034 126.037 443 132.974 443 140.51V371.49C443 379.026 439.034 385.963 432.639 389.706L235.32 505.196C228.932 508.935 221.068 508.935 214.68 505.196L17.3609 389.706C10.9662 385.963 7 379.026 7 371.49V140.51C7 132.974 10.9662 126.037 17.3609 122.294L214.68 6.80426Z" stroke="black" stroke-opacity="0.5" stroke-width="8"/>
<rect x="82" y="128" width="286" height="4" rx="2" fill="black" fill-opacity="0.3"/>
<rect x="82" y="380" width="286" height="4" rx="2" fill="black" fill-opacity="0.3"/>
<path d="M130.527 236.188V241L126.262 241.82V264.051C126.262 267.897 125.004 270.951 122.488 273.211C119.991 275.453 116.828 276.574 113 276.574C108.844 276.574 105.553 275.562 103.129 273.539C100.704 271.516 99.5378 268.535 99.6289 264.598L99.6836 264.434H107.449C107.449 266.53 107.951 268.061 108.953 269.027C109.956 269.975 111.305 270.449 113 270.449C114.477 270.449 115.725 269.884 116.746 268.754C117.785 267.605 118.305 266.038 118.305 264.051V241.82L114.039 241V236.188H126.262H130.527ZM132.988 260.934C132.988 256.522 134.219 252.913 136.68 250.105C139.159 247.28 142.577 245.867 146.934 245.867C151.309 245.867 154.727 247.271 157.188 250.078C159.667 252.885 160.906 256.504 160.906 260.934V261.508C160.906 265.956 159.667 269.583 157.188 272.391C154.727 275.18 151.327 276.574 146.988 276.574C142.595 276.574 139.159 275.18 136.68 272.391C134.219 269.583 132.988 265.956 132.988 261.508V260.934ZM140.973 261.508C140.973 264.206 141.447 266.375 142.395 268.016C143.342 269.638 144.874 270.449 146.988 270.449C149.048 270.449 150.552 269.629 151.5 267.988C152.466 266.348 152.949 264.188 152.949 261.508V260.934C152.949 258.309 152.466 256.167 151.5 254.508C150.534 252.849 149.012 252.02 146.934 252.02C144.855 252.02 143.342 252.849 142.395 254.508C141.447 256.167 140.973 258.309 140.973 260.934V261.508ZM192.98 262.027C192.98 266.439 191.996 269.966 190.027 272.609C188.059 275.253 185.215 276.574 181.496 276.574C179.764 276.574 178.26 276.219 176.984 275.508C175.708 274.779 174.633 273.73 173.758 272.363L173.184 276H166.293V238.977L162.055 238.156V233.344H174.25V249.559C175.107 248.374 176.128 247.462 177.312 246.824C178.516 246.186 179.892 245.867 181.441 245.867C185.197 245.867 188.059 247.289 190.027 250.133C191.996 252.958 192.98 256.732 192.98 261.453V262.027ZM185.023 261.453C185.023 258.573 184.595 256.294 183.738 254.617C182.9 252.922 181.46 252.074 179.418 252.074C178.178 252.074 177.13 252.339 176.273 252.867C175.417 253.378 174.742 254.116 174.25 255.082V267.578C174.742 268.49 175.417 269.182 176.273 269.656C177.148 270.13 178.215 270.367 179.473 270.367C181.533 270.367 182.973 269.647 183.793 268.207C184.613 266.749 185.023 264.689 185.023 262.027V261.453ZM240.477 248.902H234.488L233.449 243.434C232.757 242.996 231.745 242.613 230.414 242.285C229.083 241.957 227.671 241.793 226.176 241.793C223.988 241.793 222.293 242.258 221.09 243.188C219.905 244.099 219.312 245.284 219.312 246.742C219.312 248.091 219.932 249.203 221.172 250.078C222.43 250.935 224.59 251.846 227.652 252.812C232.046 254.034 235.372 255.647 237.633 257.652C239.911 259.658 241.051 262.292 241.051 265.555C241.051 268.964 239.702 271.652 237.004 273.621C234.306 275.59 230.751 276.574 226.34 276.574C223.186 276.574 220.333 276.073 217.781 275.07C215.247 274.068 213.133 272.682 211.438 270.914V262.602H217.617L218.465 268.262C219.267 268.918 220.352 269.465 221.719 269.902C223.104 270.322 224.645 270.531 226.34 270.531C228.527 270.531 230.186 270.085 231.316 269.191C232.465 268.298 233.039 267.104 233.039 265.609C233.039 264.078 232.492 262.848 231.398 261.918C230.323 260.988 228.427 260.113 225.711 259.293C220.99 257.926 217.417 256.303 214.992 254.426C212.568 252.548 211.355 249.978 211.355 246.715C211.355 243.488 212.723 240.854 215.457 238.812C218.191 236.753 221.628 235.695 225.766 235.641C228.828 235.641 231.617 236.105 234.133 237.035C236.648 237.965 238.763 239.204 240.477 240.754V248.902ZM256.172 239.168V246.414H261.367V252.02H256.172V267.086C256.172 268.234 256.409 269.055 256.883 269.547C257.357 270.039 257.995 270.285 258.797 270.285C259.344 270.285 259.818 270.267 260.219 270.23C260.638 270.176 261.103 270.094 261.613 269.984L262.297 275.754C261.404 276.027 260.52 276.228 259.645 276.355C258.77 276.501 257.822 276.574 256.801 276.574C254.048 276.574 251.924 275.818 250.43 274.305C248.953 272.792 248.215 270.395 248.215 267.113V252.02H243.867V246.414H248.215V239.168H256.172ZM264.457 260.934C264.457 256.522 265.688 252.913 268.148 250.105C270.628 247.28 274.046 245.867 278.402 245.867C282.777 245.867 286.195 247.271 288.656 250.078C291.135 252.885 292.375 256.504 292.375 260.934V261.508C292.375 265.956 291.135 269.583 288.656 272.391C286.195 275.18 282.796 276.574 278.457 276.574C274.064 276.574 270.628 275.18 268.148 272.391C265.688 269.583 264.457 265.956 264.457 261.508V260.934ZM272.441 261.508C272.441 264.206 272.915 266.375 273.863 268.016C274.811 269.638 276.342 270.449 278.457 270.449C280.517 270.449 282.021 269.629 282.969 267.988C283.935 266.348 284.418 264.188 284.418 261.508V260.934C284.418 258.309 283.935 256.167 282.969 254.508C282.003 252.849 280.48 252.02 278.402 252.02C276.324 252.02 274.811 252.849 273.863 254.508C272.915 256.167 272.441 258.309 272.441 260.934V261.508ZM296.449 271.215L300.277 270.395V252.047L296.039 251.227V246.414H307.715L308.07 250.734C308.763 249.203 309.656 248.009 310.75 247.152C311.844 246.296 313.111 245.867 314.551 245.867C314.97 245.867 315.408 245.904 315.863 245.977C316.337 246.031 316.729 246.104 317.039 246.195L316.191 253.469L312.91 253.387C311.743 253.387 310.777 253.615 310.012 254.07C309.246 254.526 308.663 255.173 308.262 256.012V270.395L312.09 271.215V276H296.449V271.215ZM350.535 251.227L347.773 251.637L336.891 280.43C336.034 282.562 334.885 284.349 333.445 285.789C332.023 287.229 329.872 287.949 326.992 287.949C326.318 287.949 325.68 287.895 325.078 287.785C324.495 287.676 323.802 287.521 323 287.32L323.93 281.496C324.185 281.533 324.449 281.569 324.723 281.605C324.996 281.642 325.233 281.66 325.434 281.66C326.764 281.66 327.785 281.332 328.496 280.676C329.207 280.038 329.754 279.236 330.137 278.27L331.039 276.027L321.66 251.664L318.898 251.227V246.414H333.391V251.227L330.082 251.773L334.129 263.586L334.539 265.719L334.703 265.746L339.379 251.773L336.043 251.227V246.414H350.535V251.227Z" fill="black"/>
<path d="M145.844 97V93.7969L147.438 93.5625L154.219 74.25H160.156L166.953 93.5625L168.547 93.7969V97H160.047V93.7969L161.531 93.5156L160.844 91.0469H153.531L152.875 93.5156L154.359 93.7969V97H145.844ZM154.688 87.2031H159.672L157.453 80.3125L157.203 79.5156H157.109L156.844 80.3906L154.688 87.2031ZM169.547 97V93.7969L171.906 93.2969V77.9688L169.547 77.4688V74.2344H180.734C182.536 74.2344 184.099 74.5208 185.422 75.0938C186.745 75.6667 187.766 76.4844 188.484 77.5469C189.203 78.599 189.562 79.849 189.562 81.2969C189.562 82.6302 189.198 83.8698 188.469 85.0156C187.75 86.1615 186.76 87.0833 185.5 87.7812C184.24 88.4688 182.802 88.8073 181.188 88.7969L177.391 88.75V93.2969L179.75 93.7969V97H169.547ZM183.953 97L180.891 88.125L185.656 86.5L188.422 93.2656L190.578 93.8125V97H183.953ZM177.391 84.5469H180.797C181.859 84.5469 182.677 84.3021 183.25 83.8125C183.823 83.3125 184.109 82.5938 184.109 81.6562C184.109 80.6875 183.818 79.9115 183.234 79.3281C182.651 78.7344 181.818 78.4375 180.734 78.4375H177.391V84.5469ZM196.312 97V93.7969L198.688 93.2969V78.5H195.172L195.031 80.9531H190.891V74.25H212.031V80.9531H207.844L207.719 78.5H204.172V93.2969L206.547 93.7969V97H196.312ZM212.859 97V93.7969L215.219 93.2969V77.9688L212.859 77.4688V74.25H223.047V77.4688L220.688 77.9688V93.2969L223.047 93.7969V97H212.859ZM224.297 97V93.7969L226.656 93.2969V77.9688L224.297 77.4688V74.25H243.031V80.9531H238.891L238.781 78.4688H232.141V83.7344H239.875V87.9219H232.141V93.2969L234.5 93.7969V97H224.297ZM240.25 97V93.7969L241.844 93.5625L248.625 74.25H254.562L261.359 93.5625L262.953 93.7969V97H254.453V93.7969L255.938 93.5156L255.25 91.0469H247.938L247.281 93.5156L248.766 93.7969V97H240.25ZM249.094 87.2031H254.078L251.859 80.3125L251.609 79.5156H251.516L251.25 80.3906L249.094 87.2031ZM274.281 97.3281C272.115 97.3281 270.182 96.8906 268.484 96.0156C266.786 95.1406 265.453 93.875 264.484 92.2188C263.516 90.5521 263.031 88.5312 263.031 86.1562V85.1094C263.031 82.9219 263.474 80.9896 264.359 79.3125C265.255 77.625 266.526 76.3073 268.172 75.3594C269.828 74.401 271.792 73.9219 274.062 73.9219C275.646 73.9219 277.151 74.1354 278.578 74.5625C280.016 74.9792 281.349 75.6979 282.578 76.7188V82.5781H278.594L278.047 79.2188C277.693 78.9792 277.318 78.7708 276.922 78.5938C276.536 78.4167 276.12 78.2812 275.672 78.1875C275.234 78.0938 274.76 78.0469 274.25 78.0469C273.094 78.0469 272.083 78.3229 271.219 78.875C270.354 79.4271 269.682 80.2292 269.203 81.2812C268.734 82.3229 268.5 83.5885 268.5 85.0781V86.1562C268.5 87.5521 268.745 88.7812 269.234 89.8438C269.724 90.8958 270.406 91.7188 271.281 92.3125C272.167 92.9062 273.188 93.2031 274.344 93.2031C274.958 93.2031 275.583 93.1406 276.219 93.0156C276.854 92.8802 277.469 92.7031 278.062 92.4844L278.609 89.2656H282.609V95C281.703 95.625 280.547 96.1719 279.141 96.6406C277.734 97.099 276.115 97.3281 274.281 97.3281ZM288.594 97V93.7969L290.969 93.2969V78.5H287.453L287.312 80.9531H283.172V74.25H304.312V80.9531H300.125L300 78.5H296.453V93.2969L298.828 93.7969V97H288.594Z" fill="black" fill-opacity="0.3"/>
<path d="M180.969 438.328C179.115 438.328 177.469 438.151 176.031 437.797C174.594 437.443 173.161 436.776 171.734 435.797V429.891H175.969L176.438 432.922C176.771 433.297 177.359 433.615 178.203 433.875C179.047 434.125 179.969 434.25 180.969 434.25C181.667 434.25 182.25 434.167 182.719 434C183.188 433.823 183.542 433.568 183.781 433.234C184.021 432.901 184.141 432.5 184.141 432.031C184.141 431.583 184.026 431.182 183.797 430.828C183.578 430.474 183.214 430.141 182.703 429.828C182.193 429.505 181.505 429.177 180.641 428.844C178.693 428.219 177.094 427.583 175.844 426.938C174.594 426.292 173.661 425.526 173.047 424.641C172.443 423.755 172.141 422.656 172.141 421.344C172.141 420.083 172.5 418.984 173.219 418.047C173.938 417.099 174.927 416.354 176.188 415.812C177.448 415.271 178.891 414.984 180.516 414.953C182.37 414.911 184.01 415.099 185.438 415.516C186.865 415.922 188.125 416.542 189.219 417.375V422.859H185.156L184.516 419.812C184.161 419.635 183.656 419.474 183 419.328C182.344 419.182 181.646 419.109 180.906 419.109C180.271 419.109 179.703 419.193 179.203 419.359C178.714 419.526 178.323 419.776 178.031 420.109C177.75 420.443 177.609 420.859 177.609 421.359C177.609 421.766 177.729 422.13 177.969 422.453C178.208 422.766 178.63 423.083 179.234 423.406C179.839 423.719 180.682 424.083 181.766 424.5C184.349 425.26 186.307 426.214 187.641 427.359C188.984 428.495 189.656 430.042 189.656 432C189.656 433.344 189.292 434.49 188.562 435.438C187.833 436.375 186.818 437.094 185.516 437.594C184.214 438.083 182.698 438.328 180.969 438.328ZM195.906 438V434.797L198.281 434.297V419.5H194.766L194.625 421.953H190.484V415.25H211.625V421.953H207.438L207.312 419.5H203.766V434.297L206.141 434.797V438H195.906ZM223.156 438.328C221.583 438.328 220.135 438.042 218.812 437.469C217.5 436.885 216.359 436.073 215.391 435.031C214.422 433.99 213.672 432.771 213.141 431.375C212.62 429.969 212.359 428.443 212.359 426.797V426.438C212.359 424.802 212.62 423.286 213.141 421.891C213.672 420.495 214.417 419.276 215.375 418.234C216.344 417.193 217.484 416.38 218.797 415.797C220.109 415.214 221.552 414.922 223.125 414.922C224.667 414.922 226.099 415.214 227.422 415.797C228.745 416.38 229.901 417.193 230.891 418.234C231.891 419.276 232.667 420.495 233.219 421.891C233.771 423.286 234.047 424.802 234.047 426.438V426.797C234.047 428.443 233.771 429.969 233.219 431.375C232.667 432.771 231.896 433.99 230.906 435.031C229.917 436.073 228.76 436.885 227.438 437.469C226.115 438.042 224.688 438.328 223.156 438.328ZM223.156 434.172C224.302 434.172 225.281 433.865 226.094 433.25C226.906 432.635 227.526 431.776 227.953 430.672C228.38 429.568 228.594 428.276 228.594 426.797V426.406C228.594 424.958 228.375 423.688 227.938 422.594C227.51 421.49 226.891 420.63 226.078 420.016C225.266 419.401 224.281 419.094 223.125 419.094C221.906 419.094 220.906 419.396 220.125 420C219.354 420.604 218.781 421.453 218.406 422.547C218.031 423.641 217.844 424.927 217.844 426.406V426.797C217.844 428.276 218.031 429.573 218.406 430.688C218.792 431.792 219.375 432.651 220.156 433.266C220.948 433.87 221.948 434.172 223.156 434.172ZM235.547 438V434.797L237.906 434.297V418.969L235.547 418.469V415.234H246.734C248.536 415.234 250.099 415.521 251.422 416.094C252.745 416.667 253.766 417.484 254.484 418.547C255.203 419.599 255.562 420.849 255.562 422.297C255.562 423.63 255.198 424.87 254.469 426.016C253.75 427.161 252.76 428.083 251.5 428.781C250.24 429.469 248.802 429.807 247.188 429.797L243.391 429.75V434.297L245.75 434.797V438H235.547ZM249.953 438L246.891 429.125L251.656 427.5L254.422 434.266L256.578 434.812V438H249.953ZM243.391 425.547H246.797C247.859 425.547 248.677 425.302 249.25 424.812C249.823 424.312 250.109 423.594 250.109 422.656C250.109 421.688 249.818 420.911 249.234 420.328C248.651 419.734 247.818 419.438 246.734 419.438H243.391V425.547ZM262.469 438V434.797L264.828 434.297V430.5L258.234 418.797L255.859 418.469V415.25H265.703V418.469L264.297 418.719L267.422 424.953L267.781 425.75H267.922L268.297 425L271.953 418.719L269.578 418.469V415.25H279.234V418.469L276.828 418.797L270.297 430.062V434.297L272.672 434.797V438H262.469Z" fill="black" fill-opacity="0.3"/>
</svg>
