<svg width="450" height="512" viewBox="0 0 450 512" fill="none" xmlns="http://www.w3.org/2000/svg">
<g clip-path="url(#clip0_5_841)">
<path d="M212.66 3.35209C220.296 -1.11736 229.704 -1.11737 237.34 3.35209L434.66 118.842C442.296 123.311 447 131.571 447 140.51V371.49C447 380.429 442.296 388.689 434.66 393.158L237.34 508.648C229.704 513.117 220.296 513.117 212.66 508.648L15.3404 393.158C7.70413 388.689 3 380.429 3 371.49V140.51C3 131.571 7.70413 123.311 15.3404 118.842L212.66 3.35209Z" fill="#32ADE6"/>
<path d="M214.68 6.80426C221.068 3.06525 228.932 3.06525 235.32 6.80426L432.639 122.294C439.034 126.037 443 132.974 443 140.51V371.49C443 379.026 439.034 385.963 432.639 389.706L235.32 505.196C228.932 508.935 221.068 508.935 214.68 505.196L17.3609 389.706C10.9662 385.963 7 379.026 7 371.49V140.51C7 132.974 10.9662 126.037 17.3609 122.294L214.68 6.80426Z" stroke="black" stroke-opacity="0.5" stroke-width="8"/>
<rect x="82" y="128" width="286" height="4" rx="2" fill="white" fill-opacity="0.3"/>
<rect x="82" y="380" width="286" height="4" rx="2" fill="white" fill-opacity="0.3"/>
<path d="M124.02 271.215L128.258 270.395V241.82L124.02 241V236.188H140.289V241L136.242 241.82V252.457H139.715L147.371 241.328L145.02 241V236.188H160.797V241L156.477 241.738L146.688 254.809L157.68 270.531L161.672 271.215V276H145.895V271.215L148.355 270.887L140.699 259.375H136.242V270.395L140.289 271.215V276H124.02V271.215ZM183.082 276C182.863 275.508 182.672 275.007 182.508 274.496C182.344 273.967 182.216 273.439 182.125 272.91C181.177 274.004 180.02 274.888 178.652 275.562C177.303 276.237 175.754 276.574 174.004 276.574C171.105 276.574 168.799 275.79 167.086 274.223C165.391 272.637 164.543 270.486 164.543 267.77C164.543 264.999 165.655 262.857 167.879 261.344C170.103 259.831 173.366 259.074 177.668 259.074H181.742V256.176C181.742 254.754 181.332 253.651 180.512 252.867C179.691 252.083 178.479 251.691 176.875 251.691C175.964 251.691 175.152 251.801 174.441 252.02C173.73 252.22 173.156 252.466 172.719 252.758L172.199 255.93H166.184L166.211 249.367C167.669 248.383 169.337 247.553 171.215 246.879C173.111 246.204 175.171 245.867 177.395 245.867C181.059 245.867 184.03 246.77 186.309 248.574C188.605 250.361 189.754 252.913 189.754 256.23V268.453C189.754 268.909 189.754 269.337 189.754 269.738C189.772 270.139 189.809 270.522 189.863 270.887L192.297 271.215V276H183.082ZM176.164 270.668C177.367 270.668 178.461 270.413 179.445 269.902C180.43 269.374 181.195 268.717 181.742 267.934V263.422H177.668C175.973 263.422 174.688 263.823 173.812 264.625C172.938 265.409 172.5 266.357 172.5 267.469C172.5 268.471 172.819 269.255 173.457 269.82C174.113 270.385 175.016 270.668 176.164 270.668ZM194.594 271.215L198.422 270.395V252.047L194.184 251.227V246.414H205.859L206.215 250.652C207.199 249.139 208.411 247.964 209.852 247.125C211.292 246.286 212.905 245.867 214.691 245.867C217.681 245.867 220.014 246.806 221.691 248.684C223.368 250.561 224.207 253.505 224.207 257.516V270.395L228.035 271.215V276H212.777V271.215L216.195 270.395V257.543C216.195 255.556 215.794 254.152 214.992 253.332C214.19 252.493 212.978 252.074 211.355 252.074C210.298 252.074 209.35 252.293 208.512 252.73C207.673 253.15 206.971 253.751 206.406 254.535V270.395L209.633 271.215V276H194.594V271.215ZM259.18 262.027C259.18 266.439 258.195 269.966 256.227 272.609C254.258 275.253 251.414 276.574 247.695 276.574C245.964 276.574 244.46 276.219 243.184 275.508C241.908 274.779 240.832 273.73 239.957 272.363L239.383 276H232.492V238.977L228.254 238.156V233.344H240.449V249.559C241.306 248.374 242.327 247.462 243.512 246.824C244.715 246.186 246.091 245.867 247.641 245.867C251.396 245.867 254.258 247.289 256.227 250.133C258.195 252.958 259.18 256.732 259.18 261.453V262.027ZM251.223 261.453C251.223 258.573 250.794 256.294 249.938 254.617C249.099 252.922 247.659 252.074 245.617 252.074C244.378 252.074 243.329 252.339 242.473 252.867C241.616 253.378 240.941 254.116 240.449 255.082V267.578C240.941 268.49 241.616 269.182 242.473 269.656C243.348 270.13 244.414 270.367 245.672 270.367C247.732 270.367 249.172 269.647 249.992 268.207C250.812 266.749 251.223 264.689 251.223 262.027V261.453ZM281.738 276C281.52 275.508 281.328 275.007 281.164 274.496C281 273.967 280.872 273.439 280.781 272.91C279.833 274.004 278.676 274.888 277.309 275.562C275.96 276.237 274.41 276.574 272.66 276.574C269.762 276.574 267.456 275.79 265.742 274.223C264.047 272.637 263.199 270.486 263.199 267.77C263.199 264.999 264.311 262.857 266.535 261.344C268.759 259.831 272.022 259.074 276.324 259.074H280.398V256.176C280.398 254.754 279.988 253.651 279.168 252.867C278.348 252.083 277.135 251.691 275.531 251.691C274.62 251.691 273.809 251.801 273.098 252.02C272.387 252.22 271.812 252.466 271.375 252.758L270.855 255.93H264.84L264.867 249.367C266.326 248.383 267.993 247.553 269.871 246.879C271.767 246.204 273.827 245.867 276.051 245.867C279.715 245.867 282.686 246.77 284.965 248.574C287.262 250.361 288.41 252.913 288.41 256.23V268.453C288.41 268.909 288.41 269.337 288.41 269.738C288.428 270.139 288.465 270.522 288.52 270.887L290.953 271.215V276H281.738ZM274.82 270.668C276.023 270.668 277.117 270.413 278.102 269.902C279.086 269.374 279.852 268.717 280.398 267.934V263.422H276.324C274.629 263.422 273.344 263.823 272.469 264.625C271.594 265.409 271.156 266.357 271.156 267.469C271.156 268.471 271.475 269.255 272.113 269.82C272.77 270.385 273.672 270.668 274.82 270.668ZM293.25 271.215L297.078 270.395V252.047L292.84 251.227V246.414H304.516L304.871 250.652C305.855 249.139 307.068 247.964 308.508 247.125C309.948 246.286 311.561 245.867 313.348 245.867C316.337 245.867 318.671 246.806 320.348 248.684C322.025 250.561 322.863 253.505 322.863 257.516V270.395L326.691 271.215V276H311.434V271.215L314.852 270.395V257.543C314.852 255.556 314.451 254.152 313.648 253.332C312.846 252.493 311.634 252.074 310.012 252.074C308.954 252.074 308.007 252.293 307.168 252.73C306.329 253.15 305.628 253.751 305.062 254.535V270.395L308.289 271.215V276H293.25V271.215Z" fill="white"/>
<path d="M113.078 107V103.797L115.438 103.297V87.9688L113.078 87.4688V84.25H131.812V90.9531H127.672L127.562 88.4688H120.922V93.7344H128.656V97.9219H120.922V103.297L123.281 103.797V107H113.078ZM132.953 107V103.797L135.312 103.297V87.9688L132.953 87.4688V84.2344H144.141C145.943 84.2344 147.505 84.5208 148.828 85.0938C150.151 85.6667 151.172 86.4844 151.891 87.5469C152.609 88.599 152.969 89.849 152.969 91.2969C152.969 92.6302 152.604 93.8698 151.875 95.0156C151.156 96.1615 150.167 97.0833 148.906 97.7812C147.646 98.4688 146.208 98.8073 144.594 98.7969L140.797 98.75V103.297L143.156 103.797V107H132.953ZM147.359 107L144.297 98.125L149.062 96.5L151.828 103.266L153.984 103.812V107H147.359ZM140.797 94.5469H144.203C145.266 94.5469 146.083 94.3021 146.656 93.8125C147.229 93.3125 147.516 92.5938 147.516 91.6562C147.516 90.6875 147.224 89.9115 146.641 89.3281C146.057 88.7344 145.224 88.4375 144.141 88.4375H140.797V94.5469ZM154.906 107V103.797L156.5 103.562L163.281 84.25H169.219L176.016 103.562L177.609 103.797V107H169.109V103.797L170.594 103.516L169.906 101.047H162.594L161.938 103.516L163.422 103.797V107H154.906ZM163.75 97.2031H168.734L166.516 90.3125L166.266 89.5156H166.172L165.906 90.3906L163.75 97.2031ZM178.484 107V103.797L180.828 103.297V87.9688L178.484 87.4688V84.25H180.828H189.219L194.719 99.2344H194.812L200.156 84.25H210.766V87.4688L208.406 87.9688V103.297L210.766 103.797V107H200.578V103.797L203.031 103.297V100.328L203.156 89.625L203.062 89.6094L196.625 107H192.312L185.781 89.8125L185.672 89.8281L186.047 99.5781V103.297L188.688 103.797V107H178.484ZM211.703 107V103.797L214.062 103.297V87.9688L211.703 87.4688V84.25H229.875V90.8125H225.734L225.609 88.4688H219.547V93.1406H226.812V97.3438H219.547V102.766H225.906L226.031 100.312H230.125V107H211.703ZM239.547 107L234.297 87.7031L231.719 87.4688V84.25H241.984V87.4688L239.453 87.8281L241.938 98L242.297 99.4688H242.391L242.766 97.9844L247.219 84.25H251L255.688 98.625L256.016 99.6094H256.109L256.375 98.625L259.031 87.8281L256.422 87.4688V84.25H266.484V87.4688L264.062 87.7031L258.578 107H253.688L249.766 95.2344L249.281 93.6094H249.188L248.578 95.3281L244.594 107H239.547ZM278.969 107.328C277.396 107.328 275.948 107.042 274.625 106.469C273.312 105.885 272.172 105.073 271.203 104.031C270.234 102.99 269.484 101.771 268.953 100.375C268.432 98.9688 268.172 97.4427 268.172 95.7969V95.4375C268.172 93.8021 268.432 92.2865 268.953 90.8906C269.484 89.4948 270.229 88.276 271.188 87.2344C272.156 86.1927 273.297 85.3802 274.609 84.7969C275.922 84.2135 277.365 83.9219 278.938 83.9219C280.479 83.9219 281.911 84.2135 283.234 84.7969C284.557 85.3802 285.714 86.1927 286.703 87.2344C287.703 88.276 288.479 89.4948 289.031 90.8906C289.583 92.2865 289.859 93.8021 289.859 95.4375V95.7969C289.859 97.4427 289.583 98.9688 289.031 100.375C288.479 101.771 287.708 102.99 286.719 104.031C285.729 105.073 284.573 105.885 283.25 106.469C281.927 107.042 280.5 107.328 278.969 107.328ZM278.969 103.172C280.115 103.172 281.094 102.865 281.906 102.25C282.719 101.635 283.339 100.776 283.766 99.6719C284.193 98.5677 284.406 97.276 284.406 95.7969V95.4062C284.406 93.9583 284.188 92.6875 283.75 91.5938C283.323 90.4896 282.703 89.6302 281.891 89.0156C281.078 88.401 280.094 88.0938 278.938 88.0938C277.719 88.0938 276.719 88.3958 275.938 89C275.167 89.6042 274.594 90.4531 274.219 91.5469C273.844 92.6406 273.656 93.9271 273.656 95.4062V95.7969C273.656 97.276 273.844 98.5729 274.219 99.6875C274.604 100.792 275.188 101.651 275.969 102.266C276.76 102.87 277.76 103.172 278.969 103.172ZM291.359 107V103.797L293.719 103.297V87.9688L291.359 87.4688V84.2344H302.547C304.349 84.2344 305.911 84.5208 307.234 85.0938C308.557 85.6667 309.578 86.4844 310.297 87.5469C311.016 88.599 311.375 89.849 311.375 91.2969C311.375 92.6302 311.01 93.8698 310.281 95.0156C309.562 96.1615 308.573 97.0833 307.312 97.7812C306.052 98.4688 304.615 98.8073 303 98.7969L299.203 98.75V103.297L301.562 103.797V107H291.359ZM305.766 107L302.703 98.125L307.469 96.5L310.234 103.266L312.391 103.812V107H305.766ZM299.203 94.5469H302.609C303.672 94.5469 304.49 94.3021 305.062 93.8125C305.635 93.3125 305.922 92.5938 305.922 91.6562C305.922 90.6875 305.63 89.9115 305.047 89.3281C304.464 88.7344 303.63 88.4375 302.547 88.4375H299.203V94.5469ZM320 102.047L317.203 98.8438L328.547 87.6719L328.562 87.6406L325.984 87.4688V84.25H336.609V87.4688L334.469 87.9219L320 102.047ZM313.578 107V103.797L315.938 103.297V87.9688L313.578 87.4688V84.25H323.578V87.4688L321.422 87.9688V103.297L323.578 103.797V107H313.578ZM326.469 107V103.797L328.75 103.625H328.781L323.312 96.1406L327.141 92.75L335.109 103.406L337.438 103.797V107H326.469Z" fill="black" fill-opacity="0.3"/>
</g>
<defs>
<clipPath id="clip0_5_841">
<rect width="450" height="512" fill="white"/>
</clipPath>
</defs>
</svg>
