<svg width="450" height="512" viewBox="0 0 450 512" fill="none" xmlns="http://www.w3.org/2000/svg">
<g clip-path="url(#clip0_5_835)">
<path d="M212.66 3.35209C220.296 -1.11736 229.704 -1.11737 237.34 3.35209L434.66 118.842C442.296 123.311 447 131.571 447 140.51V371.49C447 380.429 442.296 388.689 434.66 393.158L237.34 508.648C229.704 513.117 220.296 513.117 212.66 508.648L15.3404 393.158C7.70413 388.689 3 380.429 3 371.49V140.51C3 131.571 7.70413 123.311 15.3404 118.842L212.66 3.35209Z" fill="#32ADE6"/>
<path d="M214.68 6.80426C221.068 3.06525 228.932 3.06525 235.32 6.80426L432.639 122.294C439.034 126.037 443 132.974 443 140.51V371.49C443 379.026 439.034 385.963 432.639 389.706L235.32 505.196C228.932 508.935 221.068 508.935 214.68 505.196L17.3609 389.706C10.9662 385.963 7 379.026 7 371.49V140.51C7 132.974 10.9662 126.037 17.3609 122.294L214.68 6.80426Z" stroke="black" stroke-opacity="0.5" stroke-width="8"/>
<rect x="82" y="128" width="286" height="4" rx="2" fill="white" fill-opacity="0.3"/>
<rect x="82" y="380" width="286" height="4" rx="2" fill="white" fill-opacity="0.3"/>
<path d="M55.3594 276V271.215L59.5977 270.395V241.82L55.3594 241V236.188H59.5977H67.582H71.8477V241L67.582 241.82V269.875H78.8203L79.2031 264.871H85.3008V276H55.3594ZM102.527 276.574C98.2617 276.574 94.8529 275.207 92.3008 272.473C89.7487 269.738 88.4727 266.266 88.4727 262.055V260.961C88.4727 256.568 89.6758 252.949 92.082 250.105C94.5065 247.262 97.7513 245.849 101.816 245.867C105.809 245.867 108.908 247.07 111.113 249.477C113.319 251.883 114.422 255.137 114.422 259.238V263.586H96.7578L96.7031 263.75C96.849 265.701 97.4961 267.305 98.6445 268.562C99.8112 269.82 101.388 270.449 103.375 270.449C105.143 270.449 106.611 270.276 107.777 269.93C108.944 269.565 110.22 269 111.605 268.234L113.766 273.156C112.544 274.122 110.958 274.934 109.008 275.59C107.076 276.246 104.915 276.574 102.527 276.574ZM101.816 252.02C100.34 252.02 99.1732 252.585 98.3164 253.715C97.4596 254.845 96.931 256.331 96.7305 258.172L96.8125 258.309H106.602V257.598C106.602 255.902 106.201 254.553 105.398 253.551C104.615 252.53 103.421 252.02 101.816 252.02ZM137.062 276C136.844 275.508 136.652 275.007 136.488 274.496C136.324 273.967 136.197 273.439 136.105 272.91C135.158 274.004 134 274.888 132.633 275.562C131.284 276.237 129.734 276.574 127.984 276.574C125.086 276.574 122.78 275.79 121.066 274.223C119.371 272.637 118.523 270.486 118.523 267.77C118.523 264.999 119.635 262.857 121.859 261.344C124.083 259.831 127.346 259.074 131.648 259.074H135.723V256.176C135.723 254.754 135.312 253.651 134.492 252.867C133.672 252.083 132.46 251.691 130.855 251.691C129.944 251.691 129.133 251.801 128.422 252.02C127.711 252.22 127.137 252.466 126.699 252.758L126.18 255.93H120.164L120.191 249.367C121.65 248.383 123.318 247.553 125.195 246.879C127.091 246.204 129.151 245.867 131.375 245.867C135.039 245.867 138.01 246.77 140.289 248.574C142.586 250.361 143.734 252.913 143.734 256.23V268.453C143.734 268.909 143.734 269.337 143.734 269.738C143.753 270.139 143.789 270.522 143.844 270.887L146.277 271.215V276H137.062ZM130.145 270.668C131.348 270.668 132.441 270.413 133.426 269.902C134.41 269.374 135.176 268.717 135.723 267.934V263.422H131.648C129.953 263.422 128.668 263.823 127.793 264.625C126.918 265.409 126.48 266.357 126.48 267.469C126.48 268.471 126.799 269.255 127.438 269.82C128.094 270.385 128.996 270.668 130.145 270.668ZM148.574 271.215L152.402 270.395V252.047L148.164 251.227V246.414H159.84L160.195 250.652C161.18 249.139 162.392 247.964 163.832 247.125C165.272 246.286 166.885 245.867 168.672 245.867C171.661 245.867 173.995 246.806 175.672 248.684C177.349 250.561 178.188 253.505 178.188 257.516V270.395L182.016 271.215V276H166.758V271.215L170.176 270.395V257.543C170.176 255.556 169.775 254.152 168.973 253.332C168.171 252.493 166.958 252.074 165.336 252.074C164.279 252.074 163.331 252.293 162.492 252.73C161.654 253.15 160.952 253.751 160.387 254.535V270.395L163.613 271.215V276H148.574V271.215ZM228.336 248.902H222.348L221.309 243.434C220.616 242.996 219.604 242.613 218.273 242.285C216.943 241.957 215.53 241.793 214.035 241.793C211.848 241.793 210.152 242.258 208.949 243.188C207.764 244.099 207.172 245.284 207.172 246.742C207.172 248.091 207.792 249.203 209.031 250.078C210.289 250.935 212.449 251.846 215.512 252.812C219.905 254.034 223.232 255.647 225.492 257.652C227.771 259.658 228.91 262.292 228.91 265.555C228.91 268.964 227.561 271.652 224.863 273.621C222.165 275.59 218.611 276.574 214.199 276.574C211.046 276.574 208.193 276.073 205.641 275.07C203.107 274.068 200.992 272.682 199.297 270.914V262.602H205.477L206.324 268.262C207.126 268.918 208.211 269.465 209.578 269.902C210.964 270.322 212.504 270.531 214.199 270.531C216.387 270.531 218.046 270.085 219.176 269.191C220.324 268.298 220.898 267.104 220.898 265.609C220.898 264.078 220.352 262.848 219.258 261.918C218.182 260.988 216.286 260.113 213.57 259.293C208.849 257.926 205.276 256.303 202.852 254.426C200.427 252.548 199.215 249.978 199.215 246.715C199.215 243.488 200.582 240.854 203.316 238.812C206.051 236.753 209.487 235.695 213.625 235.641C216.688 235.641 219.477 236.105 221.992 237.035C224.508 237.965 226.622 239.204 228.336 240.754V248.902ZM244.031 239.168V246.414H249.227V252.02H244.031V267.086C244.031 268.234 244.268 269.055 244.742 269.547C245.216 270.039 245.854 270.285 246.656 270.285C247.203 270.285 247.677 270.267 248.078 270.23C248.497 270.176 248.962 270.094 249.473 269.984L250.156 275.754C249.263 276.027 248.379 276.228 247.504 276.355C246.629 276.501 245.681 276.574 244.66 276.574C241.908 276.574 239.784 275.818 238.289 274.305C236.812 272.792 236.074 270.395 236.074 267.113V252.02H231.727V246.414H236.074V239.168H244.031ZM271.977 276C271.758 275.508 271.566 275.007 271.402 274.496C271.238 273.967 271.111 273.439 271.02 272.91C270.072 274.004 268.914 274.888 267.547 275.562C266.198 276.237 264.648 276.574 262.898 276.574C260 276.574 257.694 275.79 255.98 274.223C254.285 272.637 253.438 270.486 253.438 267.77C253.438 264.999 254.549 262.857 256.773 261.344C258.997 259.831 262.26 259.074 266.562 259.074H270.637V256.176C270.637 254.754 270.227 253.651 269.406 252.867C268.586 252.083 267.374 251.691 265.77 251.691C264.858 251.691 264.047 251.801 263.336 252.02C262.625 252.22 262.051 252.466 261.613 252.758L261.094 255.93H255.078L255.105 249.367C256.564 248.383 258.232 247.553 260.109 246.879C262.005 246.204 264.065 245.867 266.289 245.867C269.953 245.867 272.924 246.77 275.203 248.574C277.5 250.361 278.648 252.913 278.648 256.23V268.453C278.648 268.909 278.648 269.337 278.648 269.738C278.667 270.139 278.703 270.522 278.758 270.887L281.191 271.215V276H271.977ZM265.059 270.668C266.262 270.668 267.355 270.413 268.34 269.902C269.324 269.374 270.09 268.717 270.637 267.934V263.422H266.562C264.867 263.422 263.582 263.823 262.707 264.625C261.832 265.409 261.395 266.357 261.395 267.469C261.395 268.471 261.714 269.255 262.352 269.82C263.008 270.385 263.91 270.668 265.059 270.668ZM284.527 271.215L288.355 270.395V252.047L284.117 251.227V246.414H295.793L296.148 250.734C296.841 249.203 297.734 248.009 298.828 247.152C299.922 246.296 301.189 245.867 302.629 245.867C303.048 245.867 303.486 245.904 303.941 245.977C304.415 246.031 304.807 246.104 305.117 246.195L304.27 253.469L300.988 253.387C299.822 253.387 298.855 253.615 298.09 254.07C297.324 254.526 296.741 255.173 296.34 256.012V270.395L300.168 271.215V276H284.527V271.215ZM319.938 239.168V246.414H325.133V252.02H319.938V267.086C319.938 268.234 320.174 269.055 320.648 269.547C321.122 270.039 321.76 270.285 322.562 270.285C323.109 270.285 323.583 270.267 323.984 270.23C324.404 270.176 324.868 270.094 325.379 269.984L326.062 275.754C325.169 276.027 324.285 276.228 323.41 276.355C322.535 276.501 321.587 276.574 320.566 276.574C317.814 276.574 315.69 275.818 314.195 274.305C312.719 272.792 311.98 270.395 311.98 267.113V252.02H307.633V246.414H311.98V239.168H319.938ZM349.742 272.254C348.794 273.639 347.618 274.706 346.215 275.453C344.829 276.201 343.243 276.574 341.457 276.574C338.34 276.574 335.897 275.581 334.129 273.594C332.361 271.589 331.477 268.48 331.477 264.27V252.047L328.223 251.227V246.414H331.477H339.461V264.324C339.461 266.475 339.816 268.025 340.527 268.973C341.257 269.902 342.332 270.367 343.754 270.367C345.012 270.367 346.096 270.167 347.008 269.766C347.938 269.346 348.694 268.754 349.277 267.988V252.047L345.777 251.227V246.414H349.277H357.262V270.395L360.844 271.215V276H350.262L349.742 272.254ZM363.387 251.227V246.414H374.98L375.363 249.859C376.238 248.583 377.286 247.599 378.508 246.906C379.729 246.214 381.151 245.867 382.773 245.867C386.438 245.867 389.281 247.298 391.305 250.16C393.328 253.022 394.34 256.786 394.34 261.453V262.027C394.34 266.402 393.328 269.921 391.305 272.582C389.281 275.243 386.456 276.574 382.828 276.574C381.279 276.574 379.902 276.292 378.699 275.727C377.496 275.143 376.466 274.296 375.609 273.184V281.742L379.465 282.562V287.375H363.797V282.562L367.652 281.742V252.047L363.387 251.227ZM386.355 261.453C386.355 258.664 385.891 256.404 384.961 254.672C384.031 252.94 382.609 252.074 380.695 252.074C379.492 252.074 378.462 252.32 377.605 252.812C376.767 253.305 376.102 254.007 375.609 254.918V267.879C376.102 268.717 376.767 269.355 377.605 269.793C378.462 270.23 379.51 270.449 380.75 270.449C382.682 270.449 384.095 269.693 384.988 268.18C385.9 266.667 386.355 264.616 386.355 262.027V261.453Z" fill="white"/>
<path d="M113.078 107V103.797L115.438 103.297V87.9688L113.078 87.4688V84.25H131.812V90.9531H127.672L127.562 88.4688H120.922V93.7344H128.656V97.9219H120.922V103.297L123.281 103.797V107H113.078ZM132.953 107V103.797L135.312 103.297V87.9688L132.953 87.4688V84.2344H144.141C145.943 84.2344 147.505 84.5208 148.828 85.0938C150.151 85.6667 151.172 86.4844 151.891 87.5469C152.609 88.599 152.969 89.849 152.969 91.2969C152.969 92.6302 152.604 93.8698 151.875 95.0156C151.156 96.1615 150.167 97.0833 148.906 97.7812C147.646 98.4688 146.208 98.8073 144.594 98.7969L140.797 98.75V103.297L143.156 103.797V107H132.953ZM147.359 107L144.297 98.125L149.062 96.5L151.828 103.266L153.984 103.812V107H147.359ZM140.797 94.5469H144.203C145.266 94.5469 146.083 94.3021 146.656 93.8125C147.229 93.3125 147.516 92.5938 147.516 91.6562C147.516 90.6875 147.224 89.9115 146.641 89.3281C146.057 88.7344 145.224 88.4375 144.141 88.4375H140.797V94.5469ZM154.906 107V103.797L156.5 103.562L163.281 84.25H169.219L176.016 103.562L177.609 103.797V107H169.109V103.797L170.594 103.516L169.906 101.047H162.594L161.938 103.516L163.422 103.797V107H154.906ZM163.75 97.2031H168.734L166.516 90.3125L166.266 89.5156H166.172L165.906 90.3906L163.75 97.2031ZM178.484 107V103.797L180.828 103.297V87.9688L178.484 87.4688V84.25H180.828H189.219L194.719 99.2344H194.812L200.156 84.25H210.766V87.4688L208.406 87.9688V103.297L210.766 103.797V107H200.578V103.797L203.031 103.297V100.328L203.156 89.625L203.062 89.6094L196.625 107H192.312L185.781 89.8125L185.672 89.8281L186.047 99.5781V103.297L188.688 103.797V107H178.484ZM211.703 107V103.797L214.062 103.297V87.9688L211.703 87.4688V84.25H229.875V90.8125H225.734L225.609 88.4688H219.547V93.1406H226.812V97.3438H219.547V102.766H225.906L226.031 100.312H230.125V107H211.703ZM239.547 107L234.297 87.7031L231.719 87.4688V84.25H241.984V87.4688L239.453 87.8281L241.938 98L242.297 99.4688H242.391L242.766 97.9844L247.219 84.25H251L255.688 98.625L256.016 99.6094H256.109L256.375 98.625L259.031 87.8281L256.422 87.4688V84.25H266.484V87.4688L264.062 87.7031L258.578 107H253.688L249.766 95.2344L249.281 93.6094H249.188L248.578 95.3281L244.594 107H239.547ZM278.969 107.328C277.396 107.328 275.948 107.042 274.625 106.469C273.312 105.885 272.172 105.073 271.203 104.031C270.234 102.99 269.484 101.771 268.953 100.375C268.432 98.9688 268.172 97.4427 268.172 95.7969V95.4375C268.172 93.8021 268.432 92.2865 268.953 90.8906C269.484 89.4948 270.229 88.276 271.188 87.2344C272.156 86.1927 273.297 85.3802 274.609 84.7969C275.922 84.2135 277.365 83.9219 278.938 83.9219C280.479 83.9219 281.911 84.2135 283.234 84.7969C284.557 85.3802 285.714 86.1927 286.703 87.2344C287.703 88.276 288.479 89.4948 289.031 90.8906C289.583 92.2865 289.859 93.8021 289.859 95.4375V95.7969C289.859 97.4427 289.583 98.9688 289.031 100.375C288.479 101.771 287.708 102.99 286.719 104.031C285.729 105.073 284.573 105.885 283.25 106.469C281.927 107.042 280.5 107.328 278.969 107.328ZM278.969 103.172C280.115 103.172 281.094 102.865 281.906 102.25C282.719 101.635 283.339 100.776 283.766 99.6719C284.193 98.5677 284.406 97.276 284.406 95.7969V95.4062C284.406 93.9583 284.188 92.6875 283.75 91.5938C283.323 90.4896 282.703 89.6302 281.891 89.0156C281.078 88.401 280.094 88.0938 278.938 88.0938C277.719 88.0938 276.719 88.3958 275.938 89C275.167 89.6042 274.594 90.4531 274.219 91.5469C273.844 92.6406 273.656 93.9271 273.656 95.4062V95.7969C273.656 97.276 273.844 98.5729 274.219 99.6875C274.604 100.792 275.188 101.651 275.969 102.266C276.76 102.87 277.76 103.172 278.969 103.172ZM291.359 107V103.797L293.719 103.297V87.9688L291.359 87.4688V84.2344H302.547C304.349 84.2344 305.911 84.5208 307.234 85.0938C308.557 85.6667 309.578 86.4844 310.297 87.5469C311.016 88.599 311.375 89.849 311.375 91.2969C311.375 92.6302 311.01 93.8698 310.281 95.0156C309.562 96.1615 308.573 97.0833 307.312 97.7812C306.052 98.4688 304.615 98.8073 303 98.7969L299.203 98.75V103.297L301.562 103.797V107H291.359ZM305.766 107L302.703 98.125L307.469 96.5L310.234 103.266L312.391 103.812V107H305.766ZM299.203 94.5469H302.609C303.672 94.5469 304.49 94.3021 305.062 93.8125C305.635 93.3125 305.922 92.5938 305.922 91.6562C305.922 90.6875 305.63 89.9115 305.047 89.3281C304.464 88.7344 303.63 88.4375 302.547 88.4375H299.203V94.5469ZM320 102.047L317.203 98.8438L328.547 87.6719L328.562 87.6406L325.984 87.4688V84.25H336.609V87.4688L334.469 87.9219L320 102.047ZM313.578 107V103.797L315.938 103.297V87.9688L313.578 87.4688V84.25H323.578V87.4688L321.422 87.9688V103.297L323.578 103.797V107H313.578ZM326.469 107V103.797L328.75 103.625H328.781L323.312 96.1406L327.141 92.75L335.109 103.406L337.438 103.797V107H326.469Z" fill="black" fill-opacity="0.3"/>
</g>
<defs>
<clipPath id="clip0_5_835">
<rect width="450" height="512" fill="white"/>
</clipPath>
</defs>
</svg>
