<svg width="163" height="191" viewBox="0 0 163 191" fill="none" xmlns="http://www.w3.org/2000/svg">
<path d="M75.7602 6.52497C79.6508 4.27879 84.4476 4.29317 88.3247 6.56262L154.315 45.1898C158.146 47.4323 160.5 51.5384 160.5 55.9775V134.853C160.5 139.285 158.154 143.385 154.333 145.63L88.343 184.409C84.4566 186.693 79.6417 186.708 75.7417 184.447L8.73174 145.608C4.87452 143.372 2.5 139.251 2.5 134.793V56.0374C2.5 51.5715 4.88256 47.4448 8.75016 45.2119L75.7602 6.52497Z" fill="#44A7D8" stroke="#444444" stroke-width="5"/>
<path d="M102.545 51.0008C97.8195 51.0008 93.0913 52.8147 89.4907 56.4153L79.1885 66.7149C78.2561 67.6565 78.2561 69.1725 79.1885 70.111C79.6397 70.5623 80.2533 70.8179 80.894 70.8179C81.5316 70.8179 82.1452 70.5623 82.5964 70.111L92.8986 59.8083C98.2738 54.4329 106.816 54.4329 112.189 59.8083C117.564 65.1838 117.564 73.745 112.189 79.12L97.3563 93.9346C91.9811 99.31 83.4388 99.31 78.0663 93.9346V93.9316C77.6151 93.4804 77.0015 93.2247 76.3639 93.2247C75.7232 93.2247 75.1096 93.4804 74.6584 93.9316C74.2072 94.3828 73.9516 94.9964 73.9516 95.6341C73.9516 96.2748 74.2072 96.8885 74.6584 97.3397C81.8594 104.541 93.5665 104.541 100.767 97.3397L115.599 82.5066C122.8 75.3053 122.8 63.6161 115.599 56.4145C111.999 52.8138 107.271 51 102.545 51V51.0008ZM77.2873 76.2743C72.5619 76.2743 67.8337 78.0731 64.233 81.6738L49.4007 96.5068C42.1998 103.708 42.1998 115.397 49.4007 122.599C56.6017 129.8 68.3088 129.8 75.5093 122.599L85.8115 112.296V112.299C86.7439 111.361 86.7439 109.845 85.8115 108.906C85.3603 108.452 84.7467 108.199 84.106 108.199C83.4684 108.199 82.8548 108.452 82.4036 108.906L72.1014 119.209C66.7262 124.584 58.1839 124.584 52.8114 119.209C47.4362 113.833 47.4362 105.278 52.8114 99.9034L67.6221 85.0704C72.9973 79.6949 81.5519 79.6949 86.9267 85.0704H86.9297C87.3809 85.5216 87.9945 85.7773 88.6352 85.7773C89.2759 85.7773 89.8895 85.5216 90.3407 85.0704C91.2731 84.1288 91.2731 82.6158 90.3407 81.6742C86.7402 78.0735 82.012 76.2747 77.2864 76.2747L77.2873 76.2743Z" fill="#444444"/>
</svg>
