<svg width="450" height="512" viewBox="0 0 450 512" fill="none" xmlns="http://www.w3.org/2000/svg">
<g clip-path="url(#clip0_5_477)">
<path d="M212.66 3.35209C220.296 -1.11736 229.704 -1.11737 237.34 3.35209L434.66 118.842C442.296 123.311 447 131.571 447 140.51V371.49C447 380.429 442.296 388.689 434.66 393.158L237.34 508.648C229.704 513.117 220.296 513.117 212.66 508.648L15.3404 393.158C7.70413 388.689 3 380.429 3 371.49V140.51C3 131.571 7.70413 123.311 15.3404 118.842L212.66 3.35209Z" fill="black"/>
<path d="M214.68 6.80426C221.068 3.06525 228.932 3.06525 235.32 6.80426L432.639 122.294C439.034 126.037 443 132.974 443 140.51V371.49C443 379.026 439.034 385.963 432.639 389.706L235.32 505.196C228.932 508.935 221.068 508.935 214.68 505.196L17.3609 389.706C10.9662 385.963 7 379.026 7 371.49V140.51C7 132.974 10.9662 126.037 17.3609 122.294L214.68 6.80426Z" stroke="black" stroke-opacity="0.5" stroke-width="8"/>
<path d="M407 146C407 141.582 410.582 138 415 138C419.418 138 423 141.582 423 146V174.8H407V146Z" fill="black" fill-opacity="0.15"/>
<rect x="407" y="176.8" width="16" height="36.8" fill="black" fill-opacity="0.15"/>
<rect x="407" y="215.6" width="16" height="36.8" fill="white" fill-opacity="0.75"/>
<rect x="407" y="254.4" width="16" height="36.8" fill="white" fill-opacity="0.75"/>
<path d="M407 293.2H423V322C423 326.418 419.418 330 415 330C410.582 330 407 326.418 407 322V293.2Z" fill="white" fill-opacity="0.75"/>
<path d="M28 146C28 141.582 31.5817 138 36 138C40.4183 138 44 141.582 44 146V174.8H28V146Z" fill="black" fill-opacity="0.15"/>
<rect x="28" y="176.8" width="16" height="36.8" fill="black" fill-opacity="0.15"/>
<rect x="28" y="215.6" width="16" height="36.8" fill="black" fill-opacity="0.15"/>
<rect x="28" y="254.4" width="16" height="36.8" fill="white" fill-opacity="0.75"/>
<path d="M28 293.2H44V322C44 326.418 40.4183 330 36 330C31.5817 330 28 326.418 28 322V293.2Z" fill="white" fill-opacity="0.75"/>
<path d="M40.588 363.76L38 362.008V359.992L40.588 358.24C42.716 356.801 44 354.325 44 351.665V349H28V351.665C28 354.325 29.284 356.801 31.412 358.24L34 359.992V362.008L31.412 363.76C29.284 365.199 28 367.675 28 370.335V373H44V370.335C44 367.675 42.716 365.199 40.588 363.76Z" fill="white" fill-opacity="0.75"/>
<path fill-rule="evenodd" clip-rule="evenodd" d="M423.788 358.193L426.539 357.7L427 360.356L424.266 360.845C424.268 360.892 424.274 360.936 424.281 360.981C424.288 361.032 424.295 361.083 424.295 361.135C424.292 362.334 424.062 363.521 423.619 364.631L426.014 366.035L424.686 368.371L422.268 366.953C421.481 367.965 420.498 368.802 419.38 369.412L420.335 372.078L417.84 373L416.899 370.374C415.646 370.641 414.354 370.641 413.101 370.374L412.16 373L409.665 372.078L410.62 369.412C409.502 368.802 408.519 367.965 407.732 366.953L405.314 368.371L403.986 366.035L406.381 364.631C405.938 363.521 405.708 362.334 405.705 361.135C405.705 361.083 405.712 361.032 405.719 360.982C405.726 360.937 405.732 360.892 405.734 360.846L403 360.356L403.461 357.7L406.212 358.193C406.607 356.967 407.247 355.837 408.092 354.874L406.301 352.706L408.335 350.973L410.121 353.134C411.204 352.455 412.413 352.012 413.672 351.833V349H416.328V351.833C417.588 352.012 418.797 352.455 419.879 353.134L421.665 350.972L423.699 352.706L421.908 354.874C422.753 355.837 423.393 356.967 423.788 358.193ZM415.185 363C416.289 363 417.185 362.105 417.185 361C417.185 359.895 416.289 359 415.185 359C414.08 359 413.185 359.895 413.185 361C413.185 362.105 414.08 363 415.185 363Z" fill="white" fill-opacity="0.75"/>
<rect x="82" y="128" width="286" height="4" rx="2" fill="white" fill-opacity="0.3"/>
<rect x="82" y="380" width="286" height="4" rx="2" fill="white" fill-opacity="0.3"/>
<path d="M149.012 190.551L148.848 190.523L138.184 220H132.824L122.215 190.633L122.051 190.66L122.816 208.133V214.395L127.082 215.215V220H110.594V215.215L114.832 214.395V185.82L110.594 185V180.188H114.832H125.25L135.395 209.527H135.559L145.785 180.188H160.496V185L156.23 185.82V214.395L160.496 215.215V220H144.008V215.215L148.246 214.395V208.133L149.012 190.551ZM182.398 220C182.18 219.508 181.988 219.007 181.824 218.496C181.66 217.967 181.533 217.439 181.441 216.91C180.493 218.004 179.336 218.888 177.969 219.562C176.62 220.237 175.07 220.574 173.32 220.574C170.422 220.574 168.116 219.79 166.402 218.223C164.707 216.637 163.859 214.486 163.859 211.77C163.859 208.999 164.971 206.857 167.195 205.344C169.419 203.831 172.682 203.074 176.984 203.074H181.059V200.176C181.059 198.754 180.648 197.651 179.828 196.867C179.008 196.083 177.796 195.691 176.191 195.691C175.28 195.691 174.469 195.801 173.758 196.02C173.047 196.22 172.473 196.466 172.035 196.758L171.516 199.93H165.5L165.527 193.367C166.986 192.383 168.654 191.553 170.531 190.879C172.427 190.204 174.487 189.867 176.711 189.867C180.375 189.867 183.346 190.77 185.625 192.574C187.922 194.361 189.07 196.913 189.07 200.23V212.453C189.07 212.909 189.07 213.337 189.07 213.738C189.089 214.139 189.125 214.522 189.18 214.887L191.613 215.215V220H182.398ZM175.48 214.668C176.684 214.668 177.777 214.413 178.762 213.902C179.746 213.374 180.512 212.717 181.059 211.934V207.422H176.984C175.289 207.422 174.004 207.823 173.129 208.625C172.254 209.409 171.816 210.357 171.816 211.469C171.816 212.471 172.135 213.255 172.773 213.82C173.43 214.385 174.332 214.668 175.48 214.668ZM208.238 214.449C209.66 214.449 210.799 214.039 211.656 213.219C212.513 212.38 212.941 211.268 212.941 209.883H220.16L220.242 210.047C220.315 213.036 219.194 215.543 216.879 217.566C214.564 219.572 211.684 220.574 208.238 220.574C203.827 220.574 200.427 219.18 198.039 216.391C195.651 213.602 194.457 210.02 194.457 205.645V204.824C194.457 200.467 195.678 196.885 198.121 194.078C200.582 191.271 204.082 189.867 208.621 189.867C211.009 189.867 213.151 190.223 215.047 190.934C216.943 191.645 218.52 192.647 219.777 193.941L219.887 201.844H213.406L212.094 197.223C211.693 196.876 211.201 196.594 210.617 196.375C210.034 196.138 209.368 196.02 208.621 196.02C206.361 196.02 204.766 196.84 203.836 198.48C202.906 200.121 202.441 202.236 202.441 204.824V205.645C202.441 208.288 202.87 210.421 203.727 212.043C204.583 213.647 206.087 214.449 208.238 214.449ZM223.441 215.215L227.297 214.395V182.977L223.031 182.156V177.344H235.254V194.188C236.184 192.82 237.323 191.763 238.672 191.016C240.021 190.25 241.516 189.867 243.156 189.867C246.255 189.867 248.68 190.897 250.43 192.957C252.198 194.999 253.082 198.161 253.082 202.445V214.395L256.91 215.215V220H241.652V215.215L245.098 214.395V202.391C245.098 200.094 244.688 198.471 243.867 197.523C243.065 196.557 241.862 196.074 240.258 196.074C239.146 196.074 238.171 196.275 237.332 196.676C236.512 197.077 235.819 197.642 235.254 198.371V214.395L238.699 215.215V220H223.441V215.215ZM259.234 215.215L263.09 214.395V196.047L258.824 195.227V190.414H271.074V214.395L274.902 215.215V220H259.234V215.215ZM271.074 183.332H263.09V177.344H271.074V183.332ZM277.09 215.215L280.918 214.395V196.047L276.68 195.227V190.414H288.355L288.711 194.652C289.695 193.139 290.908 191.964 292.348 191.125C293.788 190.286 295.401 189.867 297.188 189.867C300.177 189.867 302.51 190.806 304.188 192.684C305.865 194.561 306.703 197.505 306.703 201.516V214.395L310.531 215.215V220H295.273V215.215L298.691 214.395V201.543C298.691 199.556 298.29 198.152 297.488 197.332C296.686 196.493 295.474 196.074 293.852 196.074C292.794 196.074 291.846 196.293 291.008 196.73C290.169 197.15 289.467 197.751 288.902 198.535V214.395L292.129 215.215V220H277.09V215.215ZM326.965 220.574C322.699 220.574 319.29 219.207 316.738 216.473C314.186 213.738 312.91 210.266 312.91 206.055V204.961C312.91 200.568 314.113 196.949 316.52 194.105C318.944 191.262 322.189 189.849 326.254 189.867C330.246 189.867 333.345 191.07 335.551 193.477C337.757 195.883 338.859 199.137 338.859 203.238V207.586H321.195L321.141 207.75C321.286 209.701 321.934 211.305 323.082 212.562C324.249 213.82 325.826 214.449 327.812 214.449C329.581 214.449 331.048 214.276 332.215 213.93C333.382 213.565 334.658 213 336.043 212.234L338.203 217.156C336.982 218.122 335.396 218.934 333.445 219.59C331.513 220.246 329.353 220.574 326.965 220.574ZM326.254 196.02C324.777 196.02 323.611 196.585 322.754 197.715C321.897 198.845 321.368 200.331 321.168 202.172L321.25 202.309H331.039V201.598C331.039 199.902 330.638 198.553 329.836 197.551C329.052 196.53 327.858 196.02 326.254 196.02ZM107.586 276V271.215L111.824 270.395V241.82L107.586 241V236.188H111.824H119.809H124.074V241L119.809 241.82V269.875H131.047L131.43 264.871H137.527V276H107.586ZM154.754 276.574C150.488 276.574 147.079 275.207 144.527 272.473C141.975 269.738 140.699 266.266 140.699 262.055V260.961C140.699 256.568 141.902 252.949 144.309 250.105C146.733 247.262 149.978 245.849 154.043 245.867C158.035 245.867 161.134 247.07 163.34 249.477C165.546 251.883 166.648 255.137 166.648 259.238V263.586H148.984L148.93 263.75C149.076 265.701 149.723 267.305 150.871 268.562C152.038 269.82 153.615 270.449 155.602 270.449C157.37 270.449 158.837 270.276 160.004 269.93C161.171 269.565 162.447 269 163.832 268.234L165.992 273.156C164.771 274.122 163.185 274.934 161.234 275.59C159.302 276.246 157.142 276.574 154.754 276.574ZM154.043 252.02C152.566 252.02 151.4 252.585 150.543 253.715C149.686 254.845 149.158 256.331 148.957 258.172L149.039 258.309H158.828V257.598C158.828 255.902 158.427 254.553 157.625 253.551C156.841 252.53 155.647 252.02 154.043 252.02ZM189.289 276C189.07 275.508 188.879 275.007 188.715 274.496C188.551 273.967 188.423 273.439 188.332 272.91C187.384 274.004 186.227 274.888 184.859 275.562C183.51 276.237 181.961 276.574 180.211 276.574C177.312 276.574 175.007 275.79 173.293 274.223C171.598 272.637 170.75 270.486 170.75 267.77C170.75 264.999 171.862 262.857 174.086 261.344C176.31 259.831 179.573 259.074 183.875 259.074H187.949V256.176C187.949 254.754 187.539 253.651 186.719 252.867C185.898 252.083 184.686 251.691 183.082 251.691C182.171 251.691 181.359 251.801 180.648 252.02C179.938 252.22 179.363 252.466 178.926 252.758L178.406 255.93H172.391L172.418 249.367C173.876 248.383 175.544 247.553 177.422 246.879C179.318 246.204 181.378 245.867 183.602 245.867C187.266 245.867 190.237 246.77 192.516 248.574C194.812 250.361 195.961 252.913 195.961 256.23V268.453C195.961 268.909 195.961 269.337 195.961 269.738C195.979 270.139 196.016 270.522 196.07 270.887L198.504 271.215V276H189.289ZM182.371 270.668C183.574 270.668 184.668 270.413 185.652 269.902C186.637 269.374 187.402 268.717 187.949 267.934V263.422H183.875C182.18 263.422 180.895 263.823 180.02 264.625C179.145 265.409 178.707 266.357 178.707 267.469C178.707 268.471 179.026 269.255 179.664 269.82C180.32 270.385 181.223 270.668 182.371 270.668ZM201.84 271.215L205.668 270.395V252.047L201.43 251.227V246.414H213.105L213.461 250.734C214.154 249.203 215.047 248.009 216.141 247.152C217.234 246.296 218.501 245.867 219.941 245.867C220.361 245.867 220.798 245.904 221.254 245.977C221.728 246.031 222.12 246.104 222.43 246.195L221.582 253.469L218.301 253.387C217.134 253.387 216.168 253.615 215.402 254.07C214.637 254.526 214.053 255.173 213.652 256.012V270.395L217.48 271.215V276H201.84V271.215ZM224.371 271.215L228.199 270.395V252.047L223.961 251.227V246.414H235.637L235.992 250.652C236.977 249.139 238.189 247.964 239.629 247.125C241.069 246.286 242.682 245.867 244.469 245.867C247.458 245.867 249.792 246.806 251.469 248.684C253.146 250.561 253.984 253.505 253.984 257.516V270.395L257.812 271.215V276H242.555V271.215L245.973 270.395V257.543C245.973 255.556 245.572 254.152 244.77 253.332C243.967 252.493 242.755 252.074 241.133 252.074C240.076 252.074 239.128 252.293 238.289 252.73C237.451 253.15 236.749 253.751 236.184 254.535V270.395L239.41 271.215V276H224.371V271.215ZM260.109 271.215L263.965 270.395V252.047L259.699 251.227V246.414H271.949V270.395L275.777 271.215V276H260.109V271.215ZM271.949 239.332H263.965V233.344H271.949V239.332ZM277.965 271.215L281.793 270.395V252.047L277.555 251.227V246.414H289.23L289.586 250.652C290.57 249.139 291.783 247.964 293.223 247.125C294.663 246.286 296.276 245.867 298.062 245.867C301.052 245.867 303.385 246.806 305.062 248.684C306.74 250.561 307.578 253.505 307.578 257.516V270.395L311.406 271.215V276H296.148V271.215L299.566 270.395V257.543C299.566 255.556 299.165 254.152 298.363 253.332C297.561 252.493 296.349 252.074 294.727 252.074C293.669 252.074 292.721 252.293 291.883 252.73C291.044 253.15 290.342 253.751 289.777 254.535V270.395L293.004 271.215V276H277.965V271.215ZM314.168 261.453C314.168 256.786 315.18 253.022 317.203 250.16C319.245 247.298 322.098 245.867 325.762 245.867C327.421 245.867 328.879 246.241 330.137 246.988C331.395 247.717 332.47 248.766 333.363 250.133L333.938 246.414H340.883V275.125C340.883 279.026 339.652 282.134 337.191 284.449C334.749 286.783 331.385 287.949 327.102 287.949C325.607 287.949 324.021 287.74 322.344 287.32C320.667 286.919 319.117 286.363 317.695 285.652L319.172 280.047C320.448 280.594 321.724 281.022 323 281.332C324.276 281.66 325.625 281.824 327.047 281.824C328.997 281.824 330.456 281.232 331.422 280.047C332.388 278.862 332.871 277.212 332.871 275.098V273.156C331.996 274.268 330.966 275.116 329.781 275.699C328.596 276.283 327.238 276.574 325.707 276.574C322.079 276.574 319.245 275.243 317.203 272.582C315.18 269.902 314.168 266.384 314.168 262.027V261.453ZM322.152 262.027C322.152 264.616 322.59 266.658 323.465 268.152C324.34 269.629 325.762 270.367 327.73 270.367C328.952 270.367 329.982 270.148 330.82 269.711C331.677 269.255 332.361 268.599 332.871 267.742V254.891C332.361 253.997 331.677 253.305 330.82 252.812C329.982 252.32 328.97 252.074 327.785 252.074C325.835 252.074 324.404 252.94 323.492 254.672C322.599 256.404 322.152 258.664 322.152 261.453V262.027ZM162.273 305.613H156.34L155.52 300.309C154.736 299.525 153.742 298.905 152.539 298.449C151.354 297.993 149.951 297.766 148.328 297.766C144.865 297.766 142.194 299.023 140.316 301.539C138.457 304.055 137.527 307.336 137.527 311.383V312.777C137.527 316.824 138.457 320.115 140.316 322.648C142.176 325.182 144.801 326.449 148.191 326.449C149.759 326.449 151.19 326.221 152.484 325.766C153.797 325.31 154.809 324.69 155.52 323.906L156.34 318.602H162.273V326.477C160.669 328.336 158.618 329.822 156.121 330.934C153.642 332.027 150.862 332.574 147.781 332.574C142.44 332.574 138.065 330.724 134.656 327.023C131.247 323.323 129.543 318.574 129.543 312.777V311.438C129.543 305.659 131.238 300.91 134.629 297.191C138.02 293.473 142.404 291.613 147.781 291.613C150.862 291.613 153.642 292.178 156.121 293.309C158.6 294.421 160.651 295.897 162.273 297.738V305.613ZM184.996 332C184.777 331.508 184.586 331.007 184.422 330.496C184.258 329.967 184.13 329.439 184.039 328.91C183.091 330.004 181.934 330.888 180.566 331.562C179.217 332.237 177.668 332.574 175.918 332.574C173.02 332.574 170.714 331.79 169 330.223C167.305 328.637 166.457 326.486 166.457 323.77C166.457 320.999 167.569 318.857 169.793 317.344C172.017 315.831 175.28 315.074 179.582 315.074H183.656V312.176C183.656 310.754 183.246 309.651 182.426 308.867C181.605 308.083 180.393 307.691 178.789 307.691C177.878 307.691 177.066 307.801 176.355 308.02C175.645 308.22 175.07 308.466 174.633 308.758L174.113 311.93H168.098L168.125 305.367C169.583 304.383 171.251 303.553 173.129 302.879C175.025 302.204 177.085 301.867 179.309 301.867C182.973 301.867 185.944 302.77 188.223 304.574C190.52 306.361 191.668 308.913 191.668 312.23V324.453C191.668 324.909 191.668 325.337 191.668 325.738C191.686 326.139 191.723 326.522 191.777 326.887L194.211 327.215V332H184.996ZM178.078 326.668C179.281 326.668 180.375 326.413 181.359 325.902C182.344 325.374 183.109 324.717 183.656 323.934V319.422H179.582C177.887 319.422 176.602 319.823 175.727 320.625C174.852 321.409 174.414 322.357 174.414 323.469C174.414 324.471 174.733 325.255 175.371 325.82C176.027 326.385 176.93 326.668 178.078 326.668ZM196.508 327.215L200.336 326.395V308.047L196.098 307.227V302.414H207.773L208.129 306.652C209.113 305.139 210.326 303.964 211.766 303.125C213.206 302.286 214.819 301.867 216.605 301.867C219.595 301.867 221.928 302.806 223.605 304.684C225.283 306.561 226.121 309.505 226.121 313.516V326.395L229.949 327.215V332H214.691V327.215L218.109 326.395V313.543C218.109 311.556 217.708 310.152 216.906 309.332C216.104 308.493 214.892 308.074 213.27 308.074C212.212 308.074 211.264 308.293 210.426 308.73C209.587 309.15 208.885 309.751 208.32 310.535V326.395L211.547 327.215V332H196.508V327.215ZM245.043 307.227L242.254 307.746L246.164 320.98L246.684 323.77H246.848L247.422 320.98L251.277 307.773L248.434 307.227V302.414H261.859V307.227L259.289 307.637L250.566 332H242.938L234.188 307.637L231.617 307.227V302.414H245.043V307.227ZM282.832 332C282.613 331.508 282.422 331.007 282.258 330.496C282.094 329.967 281.966 329.439 281.875 328.91C280.927 330.004 279.77 330.888 278.402 331.562C277.053 332.237 275.504 332.574 273.754 332.574C270.855 332.574 268.549 331.79 266.836 330.223C265.141 328.637 264.293 326.486 264.293 323.77C264.293 320.999 265.405 318.857 267.629 317.344C269.853 315.831 273.116 315.074 277.418 315.074H281.492V312.176C281.492 310.754 281.082 309.651 280.262 308.867C279.441 308.083 278.229 307.691 276.625 307.691C275.714 307.691 274.902 307.801 274.191 308.02C273.48 308.22 272.906 308.466 272.469 308.758L271.949 311.93H265.934L265.961 305.367C267.419 304.383 269.087 303.553 270.965 302.879C272.861 302.204 274.921 301.867 277.145 301.867C280.809 301.867 283.78 302.77 286.059 304.574C288.355 306.361 289.504 308.913 289.504 312.23V324.453C289.504 324.909 289.504 325.337 289.504 325.738C289.522 326.139 289.559 326.522 289.613 326.887L292.047 327.215V332H282.832ZM275.914 326.668C277.117 326.668 278.211 326.413 279.195 325.902C280.18 325.374 280.945 324.717 281.492 323.934V319.422H277.418C275.723 319.422 274.438 319.823 273.562 320.625C272.688 321.409 272.25 322.357 272.25 323.469C272.25 324.471 272.569 325.255 273.207 325.82C273.863 326.385 274.766 326.668 275.914 326.668ZM318.926 312.586H313.566L312.719 308.895C312.172 308.457 311.479 308.092 310.641 307.801C309.82 307.509 308.909 307.363 307.906 307.363C306.503 307.363 305.391 307.682 304.57 308.32C303.75 308.94 303.34 309.724 303.34 310.672C303.34 311.565 303.732 312.312 304.516 312.914C305.299 313.497 306.867 314.017 309.219 314.473C312.883 315.202 315.599 316.277 317.367 317.699C319.135 319.103 320.02 321.044 320.02 323.523C320.02 326.185 318.871 328.363 316.574 330.059C314.296 331.736 311.288 332.574 307.551 332.574C305.272 332.574 303.176 332.246 301.262 331.59C299.366 330.915 297.68 329.958 296.203 328.719L296.121 322.074H301.699L302.793 325.93C303.267 326.331 303.914 326.632 304.734 326.832C305.555 327.014 306.411 327.105 307.305 327.105C308.927 327.105 310.158 326.814 310.996 326.23C311.853 325.647 312.281 324.854 312.281 323.852C312.281 322.977 311.853 322.22 310.996 321.582C310.139 320.944 308.562 320.379 306.266 319.887C302.784 319.176 300.15 318.128 298.363 316.742C296.595 315.339 295.711 313.434 295.711 311.027C295.711 308.548 296.732 306.415 298.773 304.629C300.815 302.824 303.723 301.922 307.496 301.922C309.793 301.922 311.962 302.232 314.004 302.852C316.064 303.471 317.677 304.264 318.844 305.23L318.926 312.586Z" fill="white"/>
<path d="M145.75 97V93.7969L148.094 93.2969V77.9688L145.75 77.4688V74.25H148.094H156.484L161.984 89.2344H162.078L167.422 74.25H178.031V77.4688L175.672 77.9688V93.2969L178.031 93.7969V97H167.844V93.7969L170.297 93.2969V90.3281L170.422 79.625L170.328 79.6094L163.891 97H159.578L153.047 79.8125L152.938 79.8281L153.312 89.5781V93.2969L155.953 93.7969V97H145.75ZM176.266 97V93.7969L177.859 93.5625L184.641 74.25H190.578L197.375 93.5625L198.969 93.7969V97H190.469V93.7969L191.953 93.5156L191.266 91.0469H183.953L183.297 93.5156L184.781 93.7969V97H176.266ZM185.109 87.2031H190.094L187.875 80.3125L187.625 79.5156H187.531L187.266 80.3906L185.109 87.2031ZM210.297 97.3281C208.13 97.3281 206.198 96.8906 204.5 96.0156C202.802 95.1406 201.469 93.875 200.5 92.2188C199.531 90.5521 199.047 88.5312 199.047 86.1562V85.1094C199.047 82.9219 199.49 80.9896 200.375 79.3125C201.271 77.625 202.542 76.3073 204.188 75.3594C205.844 74.401 207.807 73.9219 210.078 73.9219C211.661 73.9219 213.167 74.1354 214.594 74.5625C216.031 74.9792 217.365 75.6979 218.594 76.7188V82.5781H214.609L214.062 79.2188C213.708 78.9792 213.333 78.7708 212.938 78.5938C212.552 78.4167 212.135 78.2812 211.688 78.1875C211.25 78.0938 210.776 78.0469 210.266 78.0469C209.109 78.0469 208.099 78.3229 207.234 78.875C206.37 79.4271 205.698 80.2292 205.219 81.2812C204.75 82.3229 204.516 83.5885 204.516 85.0781V86.1562C204.516 87.5521 204.76 88.7812 205.25 89.8438C205.74 90.8958 206.422 91.7188 207.297 92.3125C208.182 92.9062 209.203 93.2031 210.359 93.2031C210.974 93.2031 211.599 93.1406 212.234 93.0156C212.87 92.8802 213.484 92.7031 214.078 92.4844L214.625 89.2656H218.625V95C217.719 95.625 216.562 96.1719 215.156 96.6406C213.75 97.099 212.13 97.3281 210.297 97.3281ZM220.062 97V93.7969L222.422 93.2969V77.9688L220.062 77.4688V74.25H230.266V77.4688L227.906 77.9688V83.7188H236.188V77.9688L233.828 77.4688V74.25H236.188H241.656H244.016V77.4688L241.656 77.9688V93.2969L244.016 93.7969V97H233.828V93.7969L236.188 93.2969V87.9219H227.906V93.2969L230.266 93.7969V97H220.062ZM245.281 97V93.7969L247.641 93.2969V77.9688L245.281 77.4688V74.25H255.469V77.4688L253.109 77.9688V93.2969L255.469 93.7969V97H245.281ZM256.703 97V93.7969L259.047 93.2969V77.9688L256.703 77.4688V74.25H259.047H264.625L273.75 88.8125H273.844V77.9688L270.859 77.4688V74.25H278.703H281.062V77.4688L278.703 77.9688V97H273.297L264 82.75H263.906V93.2969L266.906 93.7969V97H256.703ZM281.906 97V93.7969L284.266 93.2969V77.9688L281.906 77.4688V74.25H300.078V80.8125H295.938L295.812 78.4688H289.75V83.1406H297.016V87.3438H289.75V92.7656H296.109L296.234 90.3125H300.328V97H281.906Z" fill="white" fill-opacity="0.5"/>
</g>
<defs>
<clipPath id="clip0_5_477">
<rect width="450" height="512" fill="white"/>
</clipPath>
</defs>
</svg>
