<svg width="450" height="512" viewBox="0 0 450 512" fill="none" xmlns="http://www.w3.org/2000/svg">
<path d="M212.66 3.35209C220.296 -1.11736 229.704 -1.11737 237.34 3.35209L434.66 118.842C442.296 123.311 447 131.571 447 140.51V371.49C447 380.429 442.296 388.689 434.66 393.158L237.34 508.648C229.704 513.117 220.296 513.117 212.66 508.648L15.3404 393.158C7.70413 388.689 3 380.429 3 371.49V140.51C3 131.571 7.70413 123.311 15.3404 118.842L212.66 3.35209Z" fill="white"/>
<path d="M214.68 6.80426C221.068 3.06525 228.932 3.06525 235.32 6.80426L432.639 122.294C439.034 126.037 443 132.974 443 140.51V371.49C443 379.026 439.034 385.963 432.639 389.706L235.32 505.196C228.932 508.935 221.068 508.935 214.68 505.196L17.3609 389.706C10.9662 385.963 7 379.026 7 371.49V140.51C7 132.974 10.9662 126.037 17.3609 122.294L214.68 6.80426Z" stroke="black" stroke-opacity="0.5" stroke-width="8"/>
<rect x="82" y="128" width="286" height="4" rx="2" fill="black" fill-opacity="0.3"/>
<rect x="82" y="380" width="286" height="4" rx="2" fill="black" fill-opacity="0.3"/>
<path d="M134.355 246.551L134.191 246.523L123.527 276H118.168L107.559 246.633L107.395 246.66L108.16 264.133V270.395L112.426 271.215V276H95.9375V271.215L100.176 270.395V241.82L95.9375 241V236.188H100.176H110.594L120.738 265.527H120.902L131.129 236.188H145.84V241L141.574 241.82V270.395L145.84 271.215V276H129.352V271.215L133.59 270.395V264.133L134.355 246.551ZM166.621 236.188C171.488 236.188 175.499 237.746 178.652 240.863C181.806 243.962 183.383 247.945 183.383 252.812V259.402C183.383 264.288 181.806 268.28 178.652 271.379C175.499 274.46 171.488 276 166.621 276H148.711V271.215L152.949 270.395V241.82L148.711 241V236.188H152.949H166.621ZM160.934 242.34V269.875H166.211C169.073 269.875 171.315 268.909 172.938 266.977C174.56 265.044 175.371 262.52 175.371 259.402V252.758C175.371 249.677 174.56 247.171 172.938 245.238C171.315 243.306 169.073 242.34 166.211 242.34H160.934ZM187.32 276V271.215L191.559 270.395V241.82L187.32 241V236.188H191.559H199.543H203.809V241L199.543 241.82V269.875H210.781L211.164 264.871H217.262V276H187.32ZM266.48 249.613H260.547L259.727 244.309C258.943 243.525 257.949 242.905 256.746 242.449C255.561 241.993 254.158 241.766 252.535 241.766C249.072 241.766 246.401 243.023 244.523 245.539C242.664 248.055 241.734 251.336 241.734 255.383V256.777C241.734 260.824 242.664 264.115 244.523 266.648C246.383 269.182 249.008 270.449 252.398 270.449C253.966 270.449 255.397 270.221 256.691 269.766C258.004 269.31 259.016 268.69 259.727 267.906L260.547 262.602H266.48V270.477C264.876 272.336 262.826 273.822 260.328 274.934C257.849 276.027 255.069 276.574 251.988 276.574C246.647 276.574 242.272 274.724 238.863 271.023C235.454 267.323 233.75 262.574 233.75 256.777V255.438C233.75 249.659 235.445 244.91 238.836 241.191C242.227 237.473 246.611 235.613 251.988 235.613C255.069 235.613 257.849 236.178 260.328 237.309C262.807 238.421 264.858 239.897 266.48 241.738V249.613ZM289.203 276C288.984 275.508 288.793 275.007 288.629 274.496C288.465 273.967 288.337 273.439 288.246 272.91C287.298 274.004 286.141 274.888 284.773 275.562C283.424 276.237 281.875 276.574 280.125 276.574C277.227 276.574 274.921 275.79 273.207 274.223C271.512 272.637 270.664 270.486 270.664 267.77C270.664 264.999 271.776 262.857 274 261.344C276.224 259.831 279.487 259.074 283.789 259.074H287.863V256.176C287.863 254.754 287.453 253.651 286.633 252.867C285.812 252.083 284.6 251.691 282.996 251.691C282.085 251.691 281.273 251.801 280.562 252.02C279.852 252.22 279.277 252.466 278.84 252.758L278.32 255.93H272.305L272.332 249.367C273.79 248.383 275.458 247.553 277.336 246.879C279.232 246.204 281.292 245.867 283.516 245.867C287.18 245.867 290.151 246.77 292.43 248.574C294.727 250.361 295.875 252.913 295.875 256.23V268.453C295.875 268.909 295.875 269.337 295.875 269.738C295.893 270.139 295.93 270.522 295.984 270.887L298.418 271.215V276H289.203ZM282.285 270.668C283.488 270.668 284.582 270.413 285.566 269.902C286.551 269.374 287.316 268.717 287.863 267.934V263.422H283.789C282.094 263.422 280.809 263.823 279.934 264.625C279.059 265.409 278.621 266.357 278.621 267.469C278.621 268.471 278.94 269.255 279.578 269.82C280.234 270.385 281.137 270.668 282.285 270.668ZM301.754 271.215L305.582 270.395V252.047L301.344 251.227V246.414H313.02L313.375 250.734C314.068 249.203 314.961 248.009 316.055 247.152C317.148 246.296 318.415 245.867 319.855 245.867C320.275 245.867 320.712 245.904 321.168 245.977C321.642 246.031 322.034 246.104 322.344 246.195L321.496 253.469L318.215 253.387C317.048 253.387 316.082 253.615 315.316 254.07C314.551 254.526 313.967 255.173 313.566 256.012V270.395L317.395 271.215V276H301.754V271.215ZM343.426 272.391C342.496 273.758 341.393 274.797 340.117 275.508C338.859 276.219 337.419 276.574 335.797 276.574C332.151 276.574 329.316 275.243 327.293 272.582C325.288 269.921 324.285 266.402 324.285 262.027V261.453C324.285 256.786 325.297 253.022 327.32 250.16C329.344 247.298 332.188 245.867 335.852 245.867C337.328 245.867 338.659 246.195 339.844 246.852C341.029 247.49 342.068 248.401 342.961 249.586V238.977L338.695 238.156V233.344H342.961H350.945V270.395L354.773 271.215V276H344.027L343.426 272.391ZM332.27 262.027C332.27 264.616 332.698 266.658 333.555 268.152C334.43 269.629 335.852 270.367 337.82 270.367C338.987 270.367 339.999 270.13 340.855 269.656C341.712 269.182 342.414 268.499 342.961 267.605V255.055C342.414 254.107 341.712 253.378 340.855 252.867C340.017 252.339 339.023 252.074 337.875 252.074C335.924 252.074 334.503 252.94 333.609 254.672C332.716 256.404 332.27 258.664 332.27 261.453V262.027Z" fill="black"/>
<path d="M145.844 97V93.7969L147.438 93.5625L154.219 74.25H160.156L166.953 93.5625L168.547 93.7969V97H160.047V93.7969L161.531 93.5156L160.844 91.0469H153.531L152.875 93.5156L154.359 93.7969V97H145.844ZM154.688 87.2031H159.672L157.453 80.3125L157.203 79.5156H157.109L156.844 80.3906L154.688 87.2031ZM169.547 97V93.7969L171.906 93.2969V77.9688L169.547 77.4688V74.2344H180.734C182.536 74.2344 184.099 74.5208 185.422 75.0938C186.745 75.6667 187.766 76.4844 188.484 77.5469C189.203 78.599 189.562 79.849 189.562 81.2969C189.562 82.6302 189.198 83.8698 188.469 85.0156C187.75 86.1615 186.76 87.0833 185.5 87.7812C184.24 88.4688 182.802 88.8073 181.188 88.7969L177.391 88.75V93.2969L179.75 93.7969V97H169.547ZM183.953 97L180.891 88.125L185.656 86.5L188.422 93.2656L190.578 93.8125V97H183.953ZM177.391 84.5469H180.797C181.859 84.5469 182.677 84.3021 183.25 83.8125C183.823 83.3125 184.109 82.5938 184.109 81.6562C184.109 80.6875 183.818 79.9115 183.234 79.3281C182.651 78.7344 181.818 78.4375 180.734 78.4375H177.391V84.5469ZM196.312 97V93.7969L198.688 93.2969V78.5H195.172L195.031 80.9531H190.891V74.25H212.031V80.9531H207.844L207.719 78.5H204.172V93.2969L206.547 93.7969V97H196.312ZM212.859 97V93.7969L215.219 93.2969V77.9688L212.859 77.4688V74.25H223.047V77.4688L220.688 77.9688V93.2969L223.047 93.7969V97H212.859ZM224.297 97V93.7969L226.656 93.2969V77.9688L224.297 77.4688V74.25H243.031V80.9531H238.891L238.781 78.4688H232.141V83.7344H239.875V87.9219H232.141V93.2969L234.5 93.7969V97H224.297ZM240.25 97V93.7969L241.844 93.5625L248.625 74.25H254.562L261.359 93.5625L262.953 93.7969V97H254.453V93.7969L255.938 93.5156L255.25 91.0469H247.938L247.281 93.5156L248.766 93.7969V97H240.25ZM249.094 87.2031H254.078L251.859 80.3125L251.609 79.5156H251.516L251.25 80.3906L249.094 87.2031ZM274.281 97.3281C272.115 97.3281 270.182 96.8906 268.484 96.0156C266.786 95.1406 265.453 93.875 264.484 92.2188C263.516 90.5521 263.031 88.5312 263.031 86.1562V85.1094C263.031 82.9219 263.474 80.9896 264.359 79.3125C265.255 77.625 266.526 76.3073 268.172 75.3594C269.828 74.401 271.792 73.9219 274.062 73.9219C275.646 73.9219 277.151 74.1354 278.578 74.5625C280.016 74.9792 281.349 75.6979 282.578 76.7188V82.5781H278.594L278.047 79.2188C277.693 78.9792 277.318 78.7708 276.922 78.5938C276.536 78.4167 276.12 78.2812 275.672 78.1875C275.234 78.0938 274.76 78.0469 274.25 78.0469C273.094 78.0469 272.083 78.3229 271.219 78.875C270.354 79.4271 269.682 80.2292 269.203 81.2812C268.734 82.3229 268.5 83.5885 268.5 85.0781V86.1562C268.5 87.5521 268.745 88.7812 269.234 89.8438C269.724 90.8958 270.406 91.7188 271.281 92.3125C272.167 92.9062 273.188 93.2031 274.344 93.2031C274.958 93.2031 275.583 93.1406 276.219 93.0156C276.854 92.8802 277.469 92.7031 278.062 92.4844L278.609 89.2656H282.609V95C281.703 95.625 280.547 96.1719 279.141 96.6406C277.734 97.099 276.115 97.3281 274.281 97.3281ZM288.594 97V93.7969L290.969 93.2969V78.5H287.453L287.312 80.9531H283.172V74.25H304.312V80.9531H300.125L300 78.5H296.453V93.2969L298.828 93.7969V97H288.594Z" fill="black" fill-opacity="0.3"/>
<path d="M180.969 438.328C179.115 438.328 177.469 438.151 176.031 437.797C174.594 437.443 173.161 436.776 171.734 435.797V429.891H175.969L176.438 432.922C176.771 433.297 177.359 433.615 178.203 433.875C179.047 434.125 179.969 434.25 180.969 434.25C181.667 434.25 182.25 434.167 182.719 434C183.188 433.823 183.542 433.568 183.781 433.234C184.021 432.901 184.141 432.5 184.141 432.031C184.141 431.583 184.026 431.182 183.797 430.828C183.578 430.474 183.214 430.141 182.703 429.828C182.193 429.505 181.505 429.177 180.641 428.844C178.693 428.219 177.094 427.583 175.844 426.938C174.594 426.292 173.661 425.526 173.047 424.641C172.443 423.755 172.141 422.656 172.141 421.344C172.141 420.083 172.5 418.984 173.219 418.047C173.938 417.099 174.927 416.354 176.188 415.812C177.448 415.271 178.891 414.984 180.516 414.953C182.37 414.911 184.01 415.099 185.438 415.516C186.865 415.922 188.125 416.542 189.219 417.375V422.859H185.156L184.516 419.812C184.161 419.635 183.656 419.474 183 419.328C182.344 419.182 181.646 419.109 180.906 419.109C180.271 419.109 179.703 419.193 179.203 419.359C178.714 419.526 178.323 419.776 178.031 420.109C177.75 420.443 177.609 420.859 177.609 421.359C177.609 421.766 177.729 422.13 177.969 422.453C178.208 422.766 178.63 423.083 179.234 423.406C179.839 423.719 180.682 424.083 181.766 424.5C184.349 425.26 186.307 426.214 187.641 427.359C188.984 428.495 189.656 430.042 189.656 432C189.656 433.344 189.292 434.49 188.562 435.438C187.833 436.375 186.818 437.094 185.516 437.594C184.214 438.083 182.698 438.328 180.969 438.328ZM195.906 438V434.797L198.281 434.297V419.5H194.766L194.625 421.953H190.484V415.25H211.625V421.953H207.438L207.312 419.5H203.766V434.297L206.141 434.797V438H195.906ZM223.156 438.328C221.583 438.328 220.135 438.042 218.812 437.469C217.5 436.885 216.359 436.073 215.391 435.031C214.422 433.99 213.672 432.771 213.141 431.375C212.62 429.969 212.359 428.443 212.359 426.797V426.438C212.359 424.802 212.62 423.286 213.141 421.891C213.672 420.495 214.417 419.276 215.375 418.234C216.344 417.193 217.484 416.38 218.797 415.797C220.109 415.214 221.552 414.922 223.125 414.922C224.667 414.922 226.099 415.214 227.422 415.797C228.745 416.38 229.901 417.193 230.891 418.234C231.891 419.276 232.667 420.495 233.219 421.891C233.771 423.286 234.047 424.802 234.047 426.438V426.797C234.047 428.443 233.771 429.969 233.219 431.375C232.667 432.771 231.896 433.99 230.906 435.031C229.917 436.073 228.76 436.885 227.438 437.469C226.115 438.042 224.688 438.328 223.156 438.328ZM223.156 434.172C224.302 434.172 225.281 433.865 226.094 433.25C226.906 432.635 227.526 431.776 227.953 430.672C228.38 429.568 228.594 428.276 228.594 426.797V426.406C228.594 424.958 228.375 423.688 227.938 422.594C227.51 421.49 226.891 420.63 226.078 420.016C225.266 419.401 224.281 419.094 223.125 419.094C221.906 419.094 220.906 419.396 220.125 420C219.354 420.604 218.781 421.453 218.406 422.547C218.031 423.641 217.844 424.927 217.844 426.406V426.797C217.844 428.276 218.031 429.573 218.406 430.688C218.792 431.792 219.375 432.651 220.156 433.266C220.948 433.87 221.948 434.172 223.156 434.172ZM235.547 438V434.797L237.906 434.297V418.969L235.547 418.469V415.234H246.734C248.536 415.234 250.099 415.521 251.422 416.094C252.745 416.667 253.766 417.484 254.484 418.547C255.203 419.599 255.562 420.849 255.562 422.297C255.562 423.63 255.198 424.87 254.469 426.016C253.75 427.161 252.76 428.083 251.5 428.781C250.24 429.469 248.802 429.807 247.188 429.797L243.391 429.75V434.297L245.75 434.797V438H235.547ZM249.953 438L246.891 429.125L251.656 427.5L254.422 434.266L256.578 434.812V438H249.953ZM243.391 425.547H246.797C247.859 425.547 248.677 425.302 249.25 424.812C249.823 424.312 250.109 423.594 250.109 422.656C250.109 421.688 249.818 420.911 249.234 420.328C248.651 419.734 247.818 419.438 246.734 419.438H243.391V425.547ZM262.469 438V434.797L264.828 434.297V430.5L258.234 418.797L255.859 418.469V415.25H265.703V418.469L264.297 418.719L267.422 424.953L267.781 425.75H267.922L268.297 425L271.953 418.719L269.578 418.469V415.25H279.234V418.469L276.828 418.797L270.297 430.062V434.297L272.672 434.797V438H262.469Z" fill="black" fill-opacity="0.3"/>
</svg>
