<svg width="450" height="512" viewBox="0 0 450 512" fill="none" xmlns="http://www.w3.org/2000/svg">
<g clip-path="url(#clip0_5_335)">
<path d="M212.66 3.35209C220.296 -1.11736 229.704 -1.11737 237.34 3.35209L434.66 118.842C442.296 123.311 447 131.571 447 140.51V371.49C447 380.429 442.296 388.689 434.66 393.158L237.34 508.648C229.704 513.117 220.296 513.117 212.66 508.648L15.3404 393.158C7.70413 388.689 3 380.429 3 371.49V140.51C3 131.571 7.70413 123.311 15.3404 118.842L212.66 3.35209Z" fill="#00C2FF"/>
<path d="M214.68 6.80426C221.068 3.06525 228.932 3.06525 235.32 6.80426L432.639 122.294C439.034 126.037 443 132.974 443 140.51V371.49C443 379.026 439.034 385.963 432.639 389.706L235.32 505.196C228.932 508.935 221.068 508.935 214.68 505.196L17.3609 389.706C10.9662 385.963 7 379.026 7 371.49V140.51C7 132.974 10.9662 126.037 17.3609 122.294L214.68 6.80426Z" stroke="black" stroke-opacity="0.5" stroke-width="8"/>
<path d="M407 146C407 141.582 410.582 138 415 138C419.418 138 423 141.582 423 146V174.8H407V146Z" fill="black" fill-opacity="0.15"/>
<rect x="407" y="176.8" width="16" height="36.8" fill="white" fill-opacity="0.75"/>
<rect x="407" y="215.6" width="16" height="36.8" fill="white" fill-opacity="0.75"/>
<rect x="407" y="254.4" width="16" height="36.8" fill="white" fill-opacity="0.75"/>
<path d="M407 293.2H423V322C423 326.418 419.418 330 415 330C410.582 330 407 326.418 407 322V293.2Z" fill="white" fill-opacity="0.75"/>
<path d="M28 146C28 141.582 31.5817 138 36 138C40.4183 138 44 141.582 44 146V174.8H28V146Z" fill="black" fill-opacity="0.15"/>
<rect x="28" y="176.8" width="16" height="36.8" fill="black" fill-opacity="0.15"/>
<rect x="28" y="215.6" width="16" height="36.8" fill="black" fill-opacity="0.15"/>
<rect x="28" y="254.4" width="16" height="36.8" fill="black" fill-opacity="0.15"/>
<path d="M28 293.2H44V322C44 326.418 40.4183 330 36 330C31.5817 330 28 326.418 28 322V293.2Z" fill="white" fill-opacity="0.75"/>
<path d="M40.588 363.76L38 362.008V359.992L40.588 358.24C42.716 356.801 44 354.325 44 351.665V349H28V351.665C28 354.325 29.284 356.801 31.412 358.24L34 359.992V362.008L31.412 363.76C29.284 365.199 28 367.675 28 370.335V373H44V370.335C44 367.675 42.716 365.199 40.588 363.76Z" fill="white" fill-opacity="0.75"/>
<path fill-rule="evenodd" clip-rule="evenodd" d="M423.788 358.193L426.539 357.7L427 360.356L424.266 360.845C424.268 360.892 424.274 360.936 424.281 360.981C424.288 361.032 424.295 361.083 424.295 361.135C424.292 362.334 424.062 363.521 423.619 364.631L426.014 366.035L424.686 368.371L422.268 366.953C421.481 367.965 420.498 368.802 419.38 369.412L420.335 372.078L417.84 373L416.899 370.374C415.646 370.641 414.354 370.641 413.101 370.374L412.16 373L409.665 372.078L410.62 369.412C409.502 368.802 408.519 367.965 407.732 366.953L405.314 368.371L403.986 366.035L406.381 364.631C405.938 363.521 405.708 362.334 405.705 361.135C405.705 361.083 405.712 361.032 405.719 360.982C405.726 360.937 405.732 360.892 405.734 360.846L403 360.356L403.461 357.7L406.212 358.193C406.607 356.967 407.247 355.837 408.092 354.874L406.301 352.706L408.335 350.973L410.121 353.134C411.204 352.455 412.413 352.012 413.672 351.833V349H416.328V351.833C417.588 352.012 418.797 352.455 419.879 353.134L421.665 350.972L423.699 352.706L421.908 354.874C422.753 355.837 423.393 356.967 423.788 358.193ZM415.185 363C416.289 363 417.185 362.105 417.185 361C417.185 359.895 416.289 359 415.185 359C414.08 359 413.185 359.895 413.185 361C413.185 362.105 414.08 363 415.185 363Z" fill="white" fill-opacity="0.75"/>
<rect x="82" y="128" width="286" height="4" rx="2" fill="white" fill-opacity="0.3"/>
<rect x="82" y="380" width="286" height="4" rx="2" fill="white" fill-opacity="0.3"/>
<path d="M202.852 218.551L202.688 218.523L192.023 248H186.664L176.055 218.633L175.891 218.66L176.656 236.133V242.395L180.922 243.215V248H164.434V243.215L168.672 242.395V213.82L164.434 213V208.188H168.672H179.09L189.234 237.527H189.398L199.625 208.188H214.336V213L210.07 213.82V242.395L214.336 243.215V248H197.848V243.215L202.086 242.395V236.133L202.852 218.551ZM235.117 208.188C239.984 208.188 243.995 209.746 247.148 212.863C250.302 215.962 251.879 219.945 251.879 224.812V231.402C251.879 236.288 250.302 240.28 247.148 243.379C243.995 246.46 239.984 248 235.117 248H217.207V243.215L221.445 242.395V213.82L217.207 213V208.188H221.445H235.117ZM229.43 214.34V241.875H234.707C237.569 241.875 239.811 240.909 241.434 238.977C243.056 237.044 243.867 234.52 243.867 231.402V224.758C243.867 221.677 243.056 219.171 241.434 217.238C239.811 215.306 237.569 214.34 234.707 214.34H229.43ZM255.816 248V243.215L260.055 242.395V213.82L255.816 213V208.188H260.055H268.039H272.305V213L268.039 213.82V241.875H279.277L279.66 236.871H285.758V248H255.816ZM130.828 274.551L130.664 274.523L120 304H114.641L104.031 274.633L103.867 274.66L104.633 292.133V298.395L108.898 299.215V304H92.4102V299.215L96.6484 298.395V269.82L92.4102 269V264.188H96.6484H107.066L117.211 293.527H117.375L127.602 264.188H142.312V269L138.047 269.82V298.395L142.312 299.215V304H125.824V299.215L130.062 298.395V292.133L130.828 274.551ZM145.375 288.934C145.375 284.522 146.605 280.913 149.066 278.105C151.546 275.28 154.964 273.867 159.32 273.867C163.695 273.867 167.113 275.271 169.574 278.078C172.053 280.885 173.293 284.504 173.293 288.934V289.508C173.293 293.956 172.053 297.583 169.574 300.391C167.113 303.18 163.714 304.574 159.375 304.574C154.982 304.574 151.546 303.18 149.066 300.391C146.605 297.583 145.375 293.956 145.375 289.508V288.934ZM153.359 289.508C153.359 292.206 153.833 294.375 154.781 296.016C155.729 297.638 157.26 298.449 159.375 298.449C161.435 298.449 162.939 297.629 163.887 295.988C164.853 294.348 165.336 292.188 165.336 289.508V288.934C165.336 286.309 164.853 284.167 163.887 282.508C162.921 280.849 161.398 280.02 159.32 280.02C157.242 280.02 155.729 280.849 154.781 282.508C153.833 284.167 153.359 286.309 153.359 288.934V289.508ZM196.016 300.391C195.086 301.758 193.983 302.797 192.707 303.508C191.449 304.219 190.009 304.574 188.387 304.574C184.741 304.574 181.906 303.243 179.883 300.582C177.878 297.921 176.875 294.402 176.875 290.027V289.453C176.875 284.786 177.887 281.022 179.91 278.16C181.934 275.298 184.777 273.867 188.441 273.867C189.918 273.867 191.249 274.195 192.434 274.852C193.618 275.49 194.658 276.401 195.551 277.586V266.977L191.285 266.156V261.344H195.551H203.535V298.395L207.363 299.215V304H196.617L196.016 300.391ZM184.859 290.027C184.859 292.616 185.288 294.658 186.145 296.152C187.02 297.629 188.441 298.367 190.41 298.367C191.577 298.367 192.589 298.13 193.445 297.656C194.302 297.182 195.004 296.499 195.551 295.605V283.055C195.004 282.107 194.302 281.378 193.445 280.867C192.607 280.339 191.613 280.074 190.465 280.074C188.514 280.074 187.092 280.94 186.199 282.672C185.306 284.404 184.859 286.664 184.859 289.453V290.027ZM224.07 304.574C219.805 304.574 216.396 303.207 213.844 300.473C211.292 297.738 210.016 294.266 210.016 290.055V288.961C210.016 284.568 211.219 280.949 213.625 278.105C216.049 275.262 219.294 273.849 223.359 273.867C227.352 273.867 230.451 275.07 232.656 277.477C234.862 279.883 235.965 283.137 235.965 287.238V291.586H218.301L218.246 291.75C218.392 293.701 219.039 295.305 220.188 296.562C221.354 297.82 222.931 298.449 224.918 298.449C226.686 298.449 228.154 298.276 229.32 297.93C230.487 297.565 231.763 297 233.148 296.234L235.309 301.156C234.087 302.122 232.501 302.934 230.551 303.59C228.618 304.246 226.458 304.574 224.07 304.574ZM223.359 280.02C221.883 280.02 220.716 280.585 219.859 281.715C219.003 282.845 218.474 284.331 218.273 286.172L218.355 286.309H228.145V285.598C228.145 283.902 227.743 282.553 226.941 281.551C226.158 280.53 224.964 280.02 223.359 280.02ZM238.918 266.156V261.344H251.168V298.395L255.023 299.215V304H239.328V299.215L243.184 298.395V266.977L238.918 266.156ZM256.801 266.156V261.344H269.051V298.395L272.906 299.215V304H257.211V299.215L261.066 298.395V266.977L256.801 266.156ZM275.285 299.215L279.141 298.395V280.047L274.875 279.227V274.414H287.125V298.395L290.953 299.215V304H275.285V299.215ZM287.125 267.332H279.141V261.344H287.125V267.332ZM293.141 299.215L296.969 298.395V280.047L292.73 279.227V274.414H304.406L304.762 278.652C305.746 277.139 306.958 275.964 308.398 275.125C309.839 274.286 311.452 273.867 313.238 273.867C316.228 273.867 318.561 274.806 320.238 276.684C321.915 278.561 322.754 281.505 322.754 285.516V298.395L326.582 299.215V304H311.324V299.215L314.742 298.395V285.543C314.742 283.556 314.341 282.152 313.539 281.332C312.737 280.493 311.525 280.074 309.902 280.074C308.845 280.074 307.897 280.293 307.059 280.73C306.22 281.15 305.518 281.751 304.953 282.535V298.395L308.18 299.215V304H293.141V299.215ZM329.344 289.453C329.344 284.786 330.355 281.022 332.379 278.16C334.421 275.298 337.273 273.867 340.938 273.867C342.596 273.867 344.055 274.241 345.312 274.988C346.57 275.717 347.646 276.766 348.539 278.133L349.113 274.414H356.059V303.125C356.059 307.026 354.828 310.134 352.367 312.449C349.924 314.783 346.561 315.949 342.277 315.949C340.783 315.949 339.197 315.74 337.52 315.32C335.842 314.919 334.293 314.363 332.871 313.652L334.348 308.047C335.624 308.594 336.9 309.022 338.176 309.332C339.452 309.66 340.801 309.824 342.223 309.824C344.173 309.824 345.632 309.232 346.598 308.047C347.564 306.862 348.047 305.212 348.047 303.098V301.156C347.172 302.268 346.142 303.116 344.957 303.699C343.772 304.283 342.414 304.574 340.883 304.574C337.255 304.574 334.421 303.243 332.379 300.582C330.355 297.902 329.344 294.384 329.344 290.027V289.453ZM337.328 290.027C337.328 292.616 337.766 294.658 338.641 296.152C339.516 297.629 340.938 298.367 342.906 298.367C344.128 298.367 345.158 298.148 345.996 297.711C346.853 297.255 347.536 296.599 348.047 295.742V282.891C347.536 281.997 346.853 281.305 345.996 280.812C345.158 280.32 344.146 280.074 342.961 280.074C341.01 280.074 339.579 280.94 338.668 282.672C337.775 284.404 337.328 286.664 337.328 289.453V290.027Z" fill="white"/>
<path d="M149.688 107V103.797L152.047 103.297V87.9688L149.688 87.4688V84.25H152.047H160.75C162.562 84.25 164.135 84.5677 165.469 85.2031C166.802 85.8385 167.828 86.724 168.547 87.8594C169.276 88.9844 169.641 90.2969 169.641 91.7969C169.641 93.2969 169.276 94.6094 168.547 95.7344C167.828 96.8594 166.802 97.7344 165.469 98.3594C164.135 98.9844 162.562 99.2969 160.75 99.2969H157.531V103.297L159.891 103.797V107H149.688ZM157.531 95.0938H160.75C161.865 95.0938 162.708 94.7917 163.281 94.1875C163.865 93.5729 164.156 92.7865 164.156 91.8281C164.156 90.8385 163.865 90.026 163.281 89.3906C162.708 88.7552 161.865 88.4375 160.75 88.4375H157.531V95.0938ZM170.656 107V103.797L173.016 103.297V87.9688L170.656 87.4688V84.2344H181.844C183.646 84.2344 185.208 84.5208 186.531 85.0938C187.854 85.6667 188.875 86.4844 189.594 87.5469C190.312 88.599 190.672 89.849 190.672 91.2969C190.672 92.6302 190.307 93.8698 189.578 95.0156C188.859 96.1615 187.87 97.0833 186.609 97.7812C185.349 98.4688 183.911 98.8073 182.297 98.7969L178.5 98.75V103.297L180.859 103.797V107H170.656ZM185.062 107L182 98.125L186.766 96.5L189.531 103.266L191.688 103.812V107H185.062ZM178.5 94.5469H181.906C182.969 94.5469 183.786 94.3021 184.359 93.8125C184.932 93.3125 185.219 92.5938 185.219 91.6562C185.219 90.6875 184.927 89.9115 184.344 89.3281C183.76 88.7344 182.927 88.4375 181.844 88.4375H178.5V94.5469ZM204.016 107.328C202.443 107.328 200.995 107.042 199.672 106.469C198.359 105.885 197.219 105.073 196.25 104.031C195.281 102.99 194.531 101.771 194 100.375C193.479 98.9688 193.219 97.4427 193.219 95.7969V95.4375C193.219 93.8021 193.479 92.2865 194 90.8906C194.531 89.4948 195.276 88.276 196.234 87.2344C197.203 86.1927 198.344 85.3802 199.656 84.7969C200.969 84.2135 202.411 83.9219 203.984 83.9219C205.526 83.9219 206.958 84.2135 208.281 84.7969C209.604 85.3802 210.76 86.1927 211.75 87.2344C212.75 88.276 213.526 89.4948 214.078 90.8906C214.63 92.2865 214.906 93.8021 214.906 95.4375V95.7969C214.906 97.4427 214.63 98.9688 214.078 100.375C213.526 101.771 212.755 102.99 211.766 104.031C210.776 105.073 209.62 105.885 208.297 106.469C206.974 107.042 205.547 107.328 204.016 107.328ZM204.016 103.172C205.161 103.172 206.141 102.865 206.953 102.25C207.766 101.635 208.385 100.776 208.812 99.6719C209.24 98.5677 209.453 97.276 209.453 95.7969V95.4062C209.453 93.9583 209.234 92.6875 208.797 91.5938C208.37 90.4896 207.75 89.6302 206.938 89.0156C206.125 88.401 205.141 88.0938 203.984 88.0938C202.766 88.0938 201.766 88.3958 200.984 89C200.214 89.6042 199.641 90.4531 199.266 91.5469C198.891 92.6406 198.703 93.9271 198.703 95.4062V95.7969C198.703 97.276 198.891 98.5729 199.266 99.6875C199.651 100.792 200.234 101.651 201.016 102.266C201.807 102.87 202.807 103.172 204.016 103.172ZM227.578 107.328C225.411 107.328 223.479 106.891 221.781 106.016C220.083 105.141 218.75 103.875 217.781 102.219C216.812 100.552 216.328 98.5312 216.328 96.1562V95.1094C216.328 92.9219 216.771 90.9896 217.656 89.3125C218.552 87.625 219.823 86.3073 221.469 85.3594C223.125 84.401 225.089 83.9219 227.359 83.9219C228.943 83.9219 230.448 84.1354 231.875 84.5625C233.312 84.9792 234.646 85.6979 235.875 86.7188V92.5781H231.891L231.344 89.2188C230.99 88.9792 230.615 88.7708 230.219 88.5938C229.833 88.4167 229.417 88.2812 228.969 88.1875C228.531 88.0938 228.057 88.0469 227.547 88.0469C226.391 88.0469 225.38 88.3229 224.516 88.875C223.651 89.4271 222.979 90.2292 222.5 91.2812C222.031 92.3229 221.797 93.5885 221.797 95.0781V96.1562C221.797 97.5521 222.042 98.7812 222.531 99.8438C223.021 100.896 223.703 101.719 224.578 102.312C225.464 102.906 226.484 103.203 227.641 103.203C228.255 103.203 228.88 103.141 229.516 103.016C230.151 102.88 230.766 102.703 231.359 102.484L231.906 99.2656H235.906V105C235 105.625 233.844 106.172 232.438 106.641C231.031 107.099 229.411 107.328 227.578 107.328ZM237.344 107V103.797L239.703 103.297V87.9688L237.344 87.4688V84.25H255.516V90.8125H251.375L251.25 88.4688H245.188V93.1406H252.453V97.3438H245.188V102.766H251.547L251.672 100.312H255.766V107H237.344ZM267.766 107.328C265.911 107.328 264.266 107.151 262.828 106.797C261.391 106.443 259.958 105.776 258.531 104.797V98.8906H262.766L263.234 101.922C263.568 102.297 264.156 102.615 265 102.875C265.844 103.125 266.766 103.25 267.766 103.25C268.464 103.25 269.047 103.167 269.516 103C269.984 102.823 270.339 102.568 270.578 102.234C270.818 101.901 270.938 101.5 270.938 101.031C270.938 100.583 270.823 100.182 270.594 99.8281C270.375 99.474 270.01 99.1406 269.5 98.8281C268.99 98.5052 268.302 98.1771 267.438 97.8438C265.49 97.2188 263.891 96.5833 262.641 95.9375C261.391 95.2917 260.458 94.526 259.844 93.6406C259.24 92.7552 258.938 91.6562 258.938 90.3438C258.938 89.0833 259.297 87.9844 260.016 87.0469C260.734 86.099 261.724 85.3542 262.984 84.8125C264.245 84.2708 265.688 83.9844 267.312 83.9531C269.167 83.9115 270.807 84.099 272.234 84.5156C273.661 84.9219 274.922 85.5417 276.016 86.375V91.8594H271.953L271.312 88.8125C270.958 88.6354 270.453 88.474 269.797 88.3281C269.141 88.1823 268.443 88.1094 267.703 88.1094C267.068 88.1094 266.5 88.1927 266 88.3594C265.51 88.526 265.12 88.776 264.828 89.1094C264.547 89.4427 264.406 89.8594 264.406 90.3594C264.406 90.7656 264.526 91.1302 264.766 91.4531C265.005 91.7656 265.427 92.0833 266.031 92.4062C266.635 92.7188 267.479 93.0833 268.562 93.5C271.146 94.2604 273.104 95.2135 274.438 96.3594C275.781 97.4948 276.453 99.0417 276.453 101C276.453 102.344 276.089 103.49 275.359 104.438C274.63 105.375 273.615 106.094 272.312 106.594C271.01 107.083 269.495 107.328 267.766 107.328ZM287.641 107.328C285.786 107.328 284.141 107.151 282.703 106.797C281.266 106.443 279.833 105.776 278.406 104.797V98.8906H282.641L283.109 101.922C283.443 102.297 284.031 102.615 284.875 102.875C285.719 103.125 286.641 103.25 287.641 103.25C288.339 103.25 288.922 103.167 289.391 103C289.859 102.823 290.214 102.568 290.453 102.234C290.693 101.901 290.812 101.5 290.812 101.031C290.812 100.583 290.698 100.182 290.469 99.8281C290.25 99.474 289.885 99.1406 289.375 98.8281C288.865 98.5052 288.177 98.1771 287.312 97.8438C285.365 97.2188 283.766 96.5833 282.516 95.9375C281.266 95.2917 280.333 94.526 279.719 93.6406C279.115 92.7552 278.812 91.6562 278.812 90.3438C278.812 89.0833 279.172 87.9844 279.891 87.0469C280.609 86.099 281.599 85.3542 282.859 84.8125C284.12 84.2708 285.562 83.9844 287.188 83.9531C289.042 83.9115 290.682 84.099 292.109 84.5156C293.536 84.9219 294.797 85.5417 295.891 86.375V91.8594H291.828L291.188 88.8125C290.833 88.6354 290.328 88.474 289.672 88.3281C289.016 88.1823 288.318 88.1094 287.578 88.1094C286.943 88.1094 286.375 88.1927 285.875 88.3594C285.385 88.526 284.995 88.776 284.703 89.1094C284.422 89.4427 284.281 89.8594 284.281 90.3594C284.281 90.7656 284.401 91.1302 284.641 91.4531C284.88 91.7656 285.302 92.0833 285.906 92.4062C286.51 92.7188 287.354 93.0833 288.438 93.5C291.021 94.2604 292.979 95.2135 294.312 96.3594C295.656 97.4948 296.328 99.0417 296.328 101C296.328 102.344 295.964 103.49 295.234 104.438C294.505 105.375 293.49 106.094 292.188 106.594C290.885 107.083 289.37 107.328 287.641 107.328Z" fill="black" fill-opacity="0.3"/>
</g>
<defs>
<clipPath id="clip0_5_335">
<rect width="450" height="512" fill="white"/>
</clipPath>
</defs>
</svg>
