<svg width="450" height="512" viewBox="0 0 450 512" fill="none" xmlns="http://www.w3.org/2000/svg">
<path d="M212.66 3.35209C220.296 -1.11736 229.704 -1.11737 237.34 3.35209L434.66 118.842C442.296 123.311 447 131.571 447 140.51V371.49C447 380.429 442.296 388.689 434.66 393.158L237.34 508.648C229.704 513.117 220.296 513.117 212.66 508.648L15.3404 393.158C7.70413 388.689 3 380.429 3 371.49V140.51C3 131.571 7.70413 123.311 15.3404 118.842L212.66 3.35209Z" fill="white"/>
<path d="M214.68 6.80426C221.068 3.06525 228.932 3.06525 235.32 6.80426L432.639 122.294C439.034 126.037 443 132.974 443 140.51V371.49C443 379.026 439.034 385.963 432.639 389.706L235.32 505.196C228.932 508.935 221.068 508.935 214.68 505.196L17.3609 389.706C10.9662 385.963 7 379.026 7 371.49V140.51C7 132.974 10.9662 126.037 17.3609 122.294L214.68 6.80426Z" stroke="black" stroke-opacity="0.5" stroke-width="8"/>
<rect x="82" y="128" width="286" height="4" rx="2" fill="black" fill-opacity="0.3"/>
<rect x="82" y="380" width="286" height="4" rx="2" fill="black" fill-opacity="0.3"/>
<path d="M202.852 190.551L202.688 190.523L192.023 220H186.664L176.055 190.633L175.891 190.66L176.656 208.133V214.395L180.922 215.215V220H164.434V215.215L168.672 214.395V185.82L164.434 185V180.188H168.672H179.09L189.234 209.527H189.398L199.625 180.188H214.336V185L210.07 185.82V214.395L214.336 215.215V220H197.848V215.215L202.086 214.395V208.133L202.852 190.551ZM235.117 180.188C239.984 180.188 243.995 181.746 247.148 184.863C250.302 187.962 251.879 191.945 251.879 196.812V203.402C251.879 208.288 250.302 212.28 247.148 215.379C243.995 218.46 239.984 220 235.117 220H217.207V215.215L221.445 214.395V185.82L217.207 185V180.188H221.445H235.117ZM229.43 186.34V213.875H234.707C237.569 213.875 239.811 212.909 241.434 210.977C243.056 209.044 243.867 206.52 243.867 203.402V196.758C243.867 193.677 243.056 191.171 241.434 189.238C239.811 187.306 237.569 186.34 234.707 186.34H229.43ZM255.816 220V215.215L260.055 214.395V185.82L255.816 185V180.188H260.055H268.039H272.305V185L268.039 185.82V213.875H279.277L279.66 208.871H285.758V220H255.816ZM129.352 248.902H123.363L122.324 243.434C121.632 242.996 120.62 242.613 119.289 242.285C117.958 241.957 116.546 241.793 115.051 241.793C112.863 241.793 111.168 242.258 109.965 243.188C108.78 244.099 108.188 245.284 108.188 246.742C108.188 248.091 108.807 249.203 110.047 250.078C111.305 250.935 113.465 251.846 116.527 252.812C120.921 254.034 124.247 255.647 126.508 257.652C128.786 259.658 129.926 262.292 129.926 265.555C129.926 268.964 128.577 271.652 125.879 273.621C123.181 275.59 119.626 276.574 115.215 276.574C112.061 276.574 109.208 276.073 106.656 275.07C104.122 274.068 102.008 272.682 100.312 270.914V262.602H106.492L107.34 268.262C108.142 268.918 109.227 269.465 110.594 269.902C111.979 270.322 113.52 270.531 115.215 270.531C117.402 270.531 119.061 270.085 120.191 269.191C121.34 268.298 121.914 267.104 121.914 265.609C121.914 264.078 121.367 262.848 120.273 261.918C119.198 260.988 117.302 260.113 114.586 259.293C109.865 257.926 106.292 256.303 103.867 254.426C101.443 252.548 100.23 249.978 100.23 246.715C100.23 243.488 101.598 240.854 104.332 238.812C107.066 236.753 110.503 235.695 114.641 235.641C117.703 235.641 120.492 236.105 123.008 237.035C125.523 237.965 127.638 239.204 129.352 240.754V248.902ZM147.426 276.574C143.16 276.574 139.751 275.207 137.199 272.473C134.647 269.738 133.371 266.266 133.371 262.055V260.961C133.371 256.568 134.574 252.949 136.98 250.105C139.405 247.262 142.65 245.849 146.715 245.867C150.707 245.867 153.806 247.07 156.012 249.477C158.217 251.883 159.32 255.137 159.32 259.238V263.586H141.656L141.602 263.75C141.747 265.701 142.395 267.305 143.543 268.562C144.71 269.82 146.286 270.449 148.273 270.449C150.042 270.449 151.509 270.276 152.676 269.93C153.842 269.565 155.118 269 156.504 268.234L158.664 273.156C157.443 274.122 155.857 274.934 153.906 275.59C151.974 276.246 149.814 276.574 147.426 276.574ZM146.715 252.02C145.238 252.02 144.072 252.585 143.215 253.715C142.358 254.845 141.829 256.331 141.629 258.172L141.711 258.309H151.5V257.598C151.5 255.902 151.099 254.553 150.297 253.551C149.513 252.53 148.319 252.02 146.715 252.02ZM163.23 261.453C163.23 256.786 164.242 253.022 166.266 250.16C168.289 247.298 171.133 245.867 174.797 245.867C176.401 245.867 177.823 246.223 179.062 246.934C180.302 247.645 181.368 248.656 182.262 249.969L182.891 246.414H189.809V281.742L193.664 282.562V287.375H177.969V282.562L181.824 281.742V273.266C180.949 274.359 179.919 275.189 178.734 275.754C177.568 276.301 176.237 276.574 174.742 276.574C171.096 276.574 168.262 275.243 166.238 272.582C164.233 269.921 163.23 266.402 163.23 262.027V261.453ZM171.215 262.027C171.215 264.634 171.643 266.694 172.5 268.207C173.375 269.702 174.797 270.449 176.766 270.449C177.932 270.449 178.935 270.24 179.773 269.82C180.612 269.383 181.296 268.745 181.824 267.906V254.754C181.296 253.879 180.612 253.204 179.773 252.73C178.953 252.257 177.969 252.02 176.82 252.02C174.87 252.02 173.448 252.895 172.555 254.645C171.661 256.376 171.215 258.646 171.215 261.453V262.027ZM215.375 272.254C214.427 273.639 213.251 274.706 211.848 275.453C210.462 276.201 208.876 276.574 207.09 276.574C203.973 276.574 201.53 275.581 199.762 273.594C197.993 271.589 197.109 268.48 197.109 264.27V252.047L193.855 251.227V246.414H197.109H205.094V264.324C205.094 266.475 205.449 268.025 206.16 268.973C206.889 269.902 207.965 270.367 209.387 270.367C210.645 270.367 211.729 270.167 212.641 269.766C213.57 269.346 214.327 268.754 214.91 267.988V252.047L211.41 251.227V246.414H214.91H222.895V270.395L226.477 271.215V276H215.895L215.375 272.254ZM243.785 276.574C239.52 276.574 236.111 275.207 233.559 272.473C231.007 269.738 229.73 266.266 229.73 262.055V260.961C229.73 256.568 230.934 252.949 233.34 250.105C235.764 247.262 239.009 245.849 243.074 245.867C247.066 245.867 250.165 247.07 252.371 249.477C254.577 251.883 255.68 255.137 255.68 259.238V263.586H238.016L237.961 263.75C238.107 265.701 238.754 267.305 239.902 268.562C241.069 269.82 242.646 270.449 244.633 270.449C246.401 270.449 247.868 270.276 249.035 269.93C250.202 269.565 251.478 269 252.863 268.234L255.023 273.156C253.802 274.122 252.216 274.934 250.266 275.59C248.333 276.246 246.173 276.574 243.785 276.574ZM243.074 252.02C241.598 252.02 240.431 252.585 239.574 253.715C238.717 254.845 238.189 256.331 237.988 258.172L238.07 258.309H247.859V257.598C247.859 255.902 247.458 254.553 246.656 253.551C245.872 252.53 244.678 252.02 243.074 252.02ZM259.043 271.215L262.871 270.395V252.047L258.633 251.227V246.414H270.309L270.664 250.652C271.648 249.139 272.861 247.964 274.301 247.125C275.741 246.286 277.354 245.867 279.141 245.867C282.13 245.867 284.464 246.806 286.141 248.684C287.818 250.561 288.656 253.505 288.656 257.516V270.395L292.484 271.215V276H277.227V271.215L280.645 270.395V257.543C280.645 255.556 280.243 254.152 279.441 253.332C278.639 252.493 277.427 252.074 275.805 252.074C274.747 252.074 273.799 252.293 272.961 252.73C272.122 253.15 271.421 253.751 270.855 254.535V270.395L274.082 271.215V276H259.043V271.215ZM308.645 270.449C310.066 270.449 311.206 270.039 312.062 269.219C312.919 268.38 313.348 267.268 313.348 265.883H320.566L320.648 266.047C320.721 269.036 319.6 271.543 317.285 273.566C314.97 275.572 312.09 276.574 308.645 276.574C304.233 276.574 300.833 275.18 298.445 272.391C296.057 269.602 294.863 266.02 294.863 261.645V260.824C294.863 256.467 296.085 252.885 298.527 250.078C300.988 247.271 304.488 245.867 309.027 245.867C311.415 245.867 313.557 246.223 315.453 246.934C317.349 247.645 318.926 248.647 320.184 249.941L320.293 257.844H313.812L312.5 253.223C312.099 252.876 311.607 252.594 311.023 252.375C310.44 252.138 309.775 252.02 309.027 252.02C306.767 252.02 305.172 252.84 304.242 254.48C303.312 256.121 302.848 258.236 302.848 260.824V261.645C302.848 264.288 303.276 266.421 304.133 268.043C304.99 269.647 306.493 270.449 308.645 270.449ZM338.449 276.574C334.184 276.574 330.775 275.207 328.223 272.473C325.671 269.738 324.395 266.266 324.395 262.055V260.961C324.395 256.568 325.598 252.949 328.004 250.105C330.428 247.262 333.673 245.849 337.738 245.867C341.73 245.867 344.829 247.07 347.035 249.477C349.241 251.883 350.344 255.137 350.344 259.238V263.586H332.68L332.625 263.75C332.771 265.701 333.418 267.305 334.566 268.562C335.733 269.82 337.31 270.449 339.297 270.449C341.065 270.449 342.533 270.276 343.699 269.93C344.866 269.565 346.142 269 347.527 268.234L349.688 273.156C348.466 274.122 346.88 274.934 344.93 275.59C342.997 276.246 340.837 276.574 338.449 276.574ZM337.738 252.02C336.262 252.02 335.095 252.585 334.238 253.715C333.382 254.845 332.853 256.331 332.652 258.172L332.734 258.309H342.523V257.598C342.523 255.902 342.122 254.553 341.32 253.551C340.536 252.53 339.342 252.02 337.738 252.02ZM131.758 292.188C136.625 292.188 140.635 293.746 143.789 296.863C146.943 299.962 148.52 303.945 148.52 308.812V315.402C148.52 320.288 146.943 324.28 143.789 327.379C140.635 330.46 136.625 332 131.758 332H113.848V327.215L118.086 326.395V297.82L113.848 297V292.188H118.086H131.758ZM126.07 298.34V325.875H131.348C134.21 325.875 136.452 324.909 138.074 322.977C139.697 321.044 140.508 318.52 140.508 315.402V308.758C140.508 305.677 139.697 303.171 138.074 301.238C136.452 299.306 134.21 298.34 131.348 298.34H126.07ZM152.402 327.215L156.258 326.395V308.047L151.992 307.227V302.414H164.242V326.395L168.07 327.215V332H152.402V327.215ZM164.242 295.332H156.258V289.344H164.242V295.332ZM189.535 332C189.316 331.508 189.125 331.007 188.961 330.496C188.797 329.967 188.669 329.439 188.578 328.91C187.63 330.004 186.473 330.888 185.105 331.562C183.757 332.237 182.207 332.574 180.457 332.574C177.559 332.574 175.253 331.79 173.539 330.223C171.844 328.637 170.996 326.486 170.996 323.77C170.996 320.999 172.108 318.857 174.332 317.344C176.556 315.831 179.819 315.074 184.121 315.074H188.195V312.176C188.195 310.754 187.785 309.651 186.965 308.867C186.145 308.083 184.932 307.691 183.328 307.691C182.417 307.691 181.605 307.801 180.895 308.02C180.184 308.22 179.609 308.466 179.172 308.758L178.652 311.93H172.637L172.664 305.367C174.122 304.383 175.79 303.553 177.668 302.879C179.564 302.204 181.624 301.867 183.848 301.867C187.512 301.867 190.483 302.77 192.762 304.574C195.059 306.361 196.207 308.913 196.207 312.23V324.453C196.207 324.909 196.207 325.337 196.207 325.738C196.225 326.139 196.262 326.522 196.316 326.887L198.75 327.215V332H189.535ZM182.617 326.668C183.82 326.668 184.914 326.413 185.898 325.902C186.883 325.374 187.648 324.717 188.195 323.934V319.422H184.121C182.426 319.422 181.141 319.823 180.266 320.625C179.391 321.409 178.953 322.357 178.953 323.469C178.953 324.471 179.272 325.255 179.91 325.82C180.566 326.385 181.469 326.668 182.617 326.668ZM201.977 317.453C201.977 312.786 202.988 309.022 205.012 306.16C207.053 303.298 209.906 301.867 213.57 301.867C215.229 301.867 216.688 302.241 217.945 302.988C219.203 303.717 220.279 304.766 221.172 306.133L221.746 302.414H228.691V331.125C228.691 335.026 227.461 338.134 225 340.449C222.557 342.783 219.194 343.949 214.91 343.949C213.415 343.949 211.829 343.74 210.152 343.32C208.475 342.919 206.926 342.363 205.504 341.652L206.98 336.047C208.257 336.594 209.533 337.022 210.809 337.332C212.085 337.66 213.434 337.824 214.855 337.824C216.806 337.824 218.264 337.232 219.23 336.047C220.197 334.862 220.68 333.212 220.68 331.098V329.156C219.805 330.268 218.775 331.116 217.59 331.699C216.405 332.283 215.047 332.574 213.516 332.574C209.888 332.574 207.053 331.243 205.012 328.582C202.988 325.902 201.977 322.384 201.977 318.027V317.453ZM209.961 318.027C209.961 320.616 210.398 322.658 211.273 324.152C212.148 325.629 213.57 326.367 215.539 326.367C216.76 326.367 217.79 326.148 218.629 325.711C219.486 325.255 220.169 324.599 220.68 323.742V310.891C220.169 309.997 219.486 309.305 218.629 308.812C217.79 308.32 216.779 308.074 215.594 308.074C213.643 308.074 212.212 308.94 211.301 310.672C210.408 312.404 209.961 314.664 209.961 317.453V318.027ZM234.078 327.215L237.906 326.395V308.047L233.668 307.227V302.414H245.344L245.699 306.734C246.392 305.203 247.285 304.009 248.379 303.152C249.473 302.296 250.74 301.867 252.18 301.867C252.599 301.867 253.036 301.904 253.492 301.977C253.966 302.031 254.358 302.104 254.668 302.195L253.82 309.469L250.539 309.387C249.372 309.387 248.406 309.615 247.641 310.07C246.875 310.526 246.292 311.173 245.891 312.012V326.395L249.719 327.215V332H234.078V327.215ZM275.34 332C275.121 331.508 274.93 331.007 274.766 330.496C274.602 329.967 274.474 329.439 274.383 328.91C273.435 330.004 272.277 330.888 270.91 331.562C269.561 332.237 268.012 332.574 266.262 332.574C263.363 332.574 261.057 331.79 259.344 330.223C257.648 328.637 256.801 326.486 256.801 323.77C256.801 320.999 257.913 318.857 260.137 317.344C262.361 315.831 265.624 315.074 269.926 315.074H274V312.176C274 310.754 273.59 309.651 272.77 308.867C271.949 308.083 270.737 307.691 269.133 307.691C268.221 307.691 267.41 307.801 266.699 308.02C265.988 308.22 265.414 308.466 264.977 308.758L264.457 311.93H258.441L258.469 305.367C259.927 304.383 261.595 303.553 263.473 302.879C265.368 302.204 267.428 301.867 269.652 301.867C273.316 301.867 276.288 302.77 278.566 304.574C280.863 306.361 282.012 308.913 282.012 312.23V324.453C282.012 324.909 282.012 325.337 282.012 325.738C282.03 326.139 282.066 326.522 282.121 326.887L284.555 327.215V332H275.34ZM268.422 326.668C269.625 326.668 270.719 326.413 271.703 325.902C272.688 325.374 273.453 324.717 274 323.934V319.422H269.926C268.23 319.422 266.945 319.823 266.07 320.625C265.195 321.409 264.758 322.357 264.758 323.469C264.758 324.471 265.077 325.255 265.715 325.82C266.371 326.385 267.273 326.668 268.422 326.668ZM286.359 307.227V302.414H298.035L298.363 306.324C299.311 304.902 300.496 303.809 301.918 303.043C303.358 302.259 305.017 301.867 306.895 301.867C308.79 301.867 310.413 302.286 311.762 303.125C313.111 303.964 314.132 305.23 314.824 306.926C315.736 305.34 316.921 304.1 318.379 303.207C319.837 302.314 321.551 301.867 323.52 301.867C326.436 301.867 328.733 302.879 330.41 304.902C332.105 306.908 332.953 309.97 332.953 314.09V326.395L336.809 327.215V332H321.523V327.215L324.969 326.395V314.062C324.969 311.82 324.604 310.262 323.875 309.387C323.146 308.512 322.061 308.074 320.621 308.074C319.491 308.074 318.507 308.329 317.668 308.84C316.848 309.332 316.191 310.025 315.699 310.918C315.699 311.264 315.708 311.565 315.727 311.82C315.745 312.057 315.754 312.303 315.754 312.559V326.395L318.98 327.215V332H304.57V327.215L307.797 326.395V314.062C307.797 311.875 307.432 310.335 306.703 309.441C305.974 308.53 304.88 308.074 303.422 308.074C302.346 308.074 301.398 308.284 300.578 308.703C299.776 309.104 299.111 309.678 298.582 310.426V326.395L302.027 327.215V332H286.77V327.215L290.625 326.395V308.047L286.359 307.227Z" fill="black"/>
<path d="M145.844 97V93.7969L147.438 93.5625L154.219 74.25H160.156L166.953 93.5625L168.547 93.7969V97H160.047V93.7969L161.531 93.5156L160.844 91.0469H153.531L152.875 93.5156L154.359 93.7969V97H145.844ZM154.688 87.2031H159.672L157.453 80.3125L157.203 79.5156H157.109L156.844 80.3906L154.688 87.2031ZM169.547 97V93.7969L171.906 93.2969V77.9688L169.547 77.4688V74.2344H180.734C182.536 74.2344 184.099 74.5208 185.422 75.0938C186.745 75.6667 187.766 76.4844 188.484 77.5469C189.203 78.599 189.562 79.849 189.562 81.2969C189.562 82.6302 189.198 83.8698 188.469 85.0156C187.75 86.1615 186.76 87.0833 185.5 87.7812C184.24 88.4688 182.802 88.8073 181.188 88.7969L177.391 88.75V93.2969L179.75 93.7969V97H169.547ZM183.953 97L180.891 88.125L185.656 86.5L188.422 93.2656L190.578 93.8125V97H183.953ZM177.391 84.5469H180.797C181.859 84.5469 182.677 84.3021 183.25 83.8125C183.823 83.3125 184.109 82.5938 184.109 81.6562C184.109 80.6875 183.818 79.9115 183.234 79.3281C182.651 78.7344 181.818 78.4375 180.734 78.4375H177.391V84.5469ZM196.312 97V93.7969L198.688 93.2969V78.5H195.172L195.031 80.9531H190.891V74.25H212.031V80.9531H207.844L207.719 78.5H204.172V93.2969L206.547 93.7969V97H196.312ZM212.859 97V93.7969L215.219 93.2969V77.9688L212.859 77.4688V74.25H223.047V77.4688L220.688 77.9688V93.2969L223.047 93.7969V97H212.859ZM224.297 97V93.7969L226.656 93.2969V77.9688L224.297 77.4688V74.25H243.031V80.9531H238.891L238.781 78.4688H232.141V83.7344H239.875V87.9219H232.141V93.2969L234.5 93.7969V97H224.297ZM240.25 97V93.7969L241.844 93.5625L248.625 74.25H254.562L261.359 93.5625L262.953 93.7969V97H254.453V93.7969L255.938 93.5156L255.25 91.0469H247.938L247.281 93.5156L248.766 93.7969V97H240.25ZM249.094 87.2031H254.078L251.859 80.3125L251.609 79.5156H251.516L251.25 80.3906L249.094 87.2031ZM274.281 97.3281C272.115 97.3281 270.182 96.8906 268.484 96.0156C266.786 95.1406 265.453 93.875 264.484 92.2188C263.516 90.5521 263.031 88.5312 263.031 86.1562V85.1094C263.031 82.9219 263.474 80.9896 264.359 79.3125C265.255 77.625 266.526 76.3073 268.172 75.3594C269.828 74.401 271.792 73.9219 274.062 73.9219C275.646 73.9219 277.151 74.1354 278.578 74.5625C280.016 74.9792 281.349 75.6979 282.578 76.7188V82.5781H278.594L278.047 79.2188C277.693 78.9792 277.318 78.7708 276.922 78.5938C276.536 78.4167 276.12 78.2812 275.672 78.1875C275.234 78.0938 274.76 78.0469 274.25 78.0469C273.094 78.0469 272.083 78.3229 271.219 78.875C270.354 79.4271 269.682 80.2292 269.203 81.2812C268.734 82.3229 268.5 83.5885 268.5 85.0781V86.1562C268.5 87.5521 268.745 88.7812 269.234 89.8438C269.724 90.8958 270.406 91.7188 271.281 92.3125C272.167 92.9062 273.188 93.2031 274.344 93.2031C274.958 93.2031 275.583 93.1406 276.219 93.0156C276.854 92.8802 277.469 92.7031 278.062 92.4844L278.609 89.2656H282.609V95C281.703 95.625 280.547 96.1719 279.141 96.6406C277.734 97.099 276.115 97.3281 274.281 97.3281ZM288.594 97V93.7969L290.969 93.2969V78.5H287.453L287.312 80.9531H283.172V74.25H304.312V80.9531H300.125L300 78.5H296.453V93.2969L298.828 93.7969V97H288.594Z" fill="black" fill-opacity="0.3"/>
<path d="M154.547 438.328C152.766 438.328 151.224 438.047 149.922 437.484C148.63 436.922 147.62 436.062 146.891 434.906C146.172 433.74 145.781 432.255 145.719 430.453L145.75 430.359H150.859C150.964 431.828 151.281 432.818 151.812 433.328C152.354 433.828 153.031 434.078 153.844 434.078C154.312 434.078 154.76 433.974 155.188 433.766C155.625 433.557 155.984 433.224 156.266 432.766C156.547 432.297 156.688 431.688 156.688 430.938V418.969L153.594 418.453V415.25H164.516V418.469L162.141 418.969V430.938C162.141 432.469 161.844 433.786 161.25 434.891C160.656 435.995 159.792 436.844 158.656 437.438C157.531 438.031 156.161 438.328 154.547 438.328ZM176.281 438.328C174.708 438.328 173.26 438.042 171.938 437.469C170.625 436.885 169.484 436.073 168.516 435.031C167.547 433.99 166.797 432.771 166.266 431.375C165.745 429.969 165.484 428.443 165.484 426.797V426.438C165.484 424.802 165.745 423.286 166.266 421.891C166.797 420.495 167.542 419.276 168.5 418.234C169.469 417.193 170.609 416.38 171.922 415.797C173.234 415.214 174.677 414.922 176.25 414.922C177.792 414.922 179.224 415.214 180.547 415.797C181.87 416.38 183.026 417.193 184.016 418.234C185.016 419.276 185.792 420.495 186.344 421.891C186.896 423.286 187.172 424.802 187.172 426.438V426.797C187.172 428.443 186.896 429.969 186.344 431.375C185.792 432.771 185.021 433.99 184.031 435.031C183.042 436.073 181.885 436.885 180.562 437.469C179.24 438.042 177.812 438.328 176.281 438.328ZM176.281 434.172C177.427 434.172 178.406 433.865 179.219 433.25C180.031 432.635 180.651 431.776 181.078 430.672C181.505 429.568 181.719 428.276 181.719 426.797V426.406C181.719 424.958 181.5 423.688 181.062 422.594C180.635 421.49 180.016 420.63 179.203 420.016C178.391 419.401 177.406 419.094 176.25 419.094C175.031 419.094 174.031 419.396 173.25 420C172.479 420.604 171.906 421.453 171.531 422.547C171.156 423.641 170.969 424.927 170.969 426.406V426.797C170.969 428.276 171.156 429.573 171.531 430.688C171.917 431.792 172.5 432.651 173.281 433.266C174.073 433.87 175.073 434.172 176.281 434.172ZM200.375 438.328C198.417 438.328 196.708 438.016 195.25 437.391C193.802 436.755 192.682 435.828 191.891 434.609C191.099 433.391 190.703 431.901 190.703 430.141V418.969L188.359 418.469V415.25H198.547V418.469L196.188 418.969V430.141C196.188 431.057 196.349 431.818 196.672 432.422C196.995 433.016 197.464 433.458 198.078 433.75C198.703 434.042 199.458 434.188 200.344 434.188C201.26 434.188 202.026 434.042 202.641 433.75C203.266 433.458 203.734 433.016 204.047 432.422C204.37 431.818 204.531 431.057 204.531 430.141V418.969L202.188 418.469V415.25H212.375V418.469L210.016 418.969V430.141C210.016 431.87 209.609 433.349 208.797 434.578C207.984 435.797 206.854 436.729 205.406 437.375C203.969 438.01 202.292 438.328 200.375 438.328ZM213.297 438V434.797L215.656 434.297V418.969L213.297 418.469V415.234H224.484C226.286 415.234 227.849 415.521 229.172 416.094C230.495 416.667 231.516 417.484 232.234 418.547C232.953 419.599 233.312 420.849 233.312 422.297C233.312 423.63 232.948 424.87 232.219 426.016C231.5 427.161 230.51 428.083 229.25 428.781C227.99 429.469 226.552 429.807 224.938 429.797L221.141 429.75V434.297L223.5 434.797V438H213.297ZM227.703 438L224.641 429.125L229.406 427.5L232.172 434.266L234.328 434.812V438H227.703ZM221.141 425.547H224.547C225.609 425.547 226.427 425.302 227 424.812C227.573 424.312 227.859 423.594 227.859 422.656C227.859 421.688 227.568 420.911 226.984 420.328C226.401 419.734 225.568 419.438 224.484 419.438H221.141V425.547ZM235.5 438V434.797L237.844 434.297V418.969L235.5 418.469V415.25H237.844H243.422L252.547 429.812H252.641V418.969L249.656 418.469V415.25H257.5H259.859V418.469L257.5 418.969V438H252.094L242.797 423.75H242.703V434.297L245.703 434.797V438H235.5ZM260.703 438V434.797L263.062 434.297V418.969L260.703 418.469V415.25H278.875V421.812H274.734L274.609 419.469H268.547V424.141H275.812V428.344H268.547V433.766H274.906L275.031 431.312H279.125V438H260.703ZM287.438 438V434.797L289.797 434.297V430.5L283.203 418.797L280.828 418.469V415.25H290.672V418.469L289.266 418.719L292.391 424.953L292.75 425.75H292.891L293.266 425L296.922 418.719L294.547 418.469V415.25H304.203V418.469L301.797 418.797L295.266 430.062V434.297L297.641 434.797V438H287.438Z" fill="black" fill-opacity="0.3"/>
</svg>
