<svg width="163" height="191" viewBox="0 0 163 191" fill="none" xmlns="http://www.w3.org/2000/svg">
<path d="M75.7602 6.52497C79.6508 4.27879 84.4476 4.29317 88.3247 6.56262L154.315 45.1898C158.146 47.4323 160.5 51.5384 160.5 55.9775V134.853C160.5 139.285 158.154 143.385 154.333 145.63L88.343 184.409C84.4566 186.693 79.6417 186.708 75.7417 184.447L8.73174 145.608C4.87452 143.372 2.5 139.251 2.5 134.793V56.0374C2.5 51.5715 4.88256 47.4448 8.75016 45.2119L75.7602 6.52497Z" fill="#C9C675" stroke="#444444" stroke-width="5"/>
<path d="M43.9048 141V139.499L45.0034 139.264V132.079L43.9048 131.845V130.336H45.0034H48.9365L51.5146 137.36H51.5586L54.0635 130.336H59.0366V131.845L57.9307 132.079V139.264L59.0366 139.499V141H54.2612V139.499L55.4111 139.264V137.873L55.4697 132.855L55.4258 132.848L52.4082 141H50.3867L47.3252 132.943L47.2739 132.951L47.4497 137.521V139.264L48.6875 139.499V141H43.9048ZM64.6982 141.154C63.9609 141.154 63.2822 141.02 62.6621 140.751C62.0469 140.478 61.5122 140.097 61.0581 139.608C60.604 139.12 60.2524 138.549 60.0034 137.895C59.7593 137.235 59.6372 136.52 59.6372 135.749V135.58C59.6372 134.813 59.7593 134.103 60.0034 133.449C60.2524 132.794 60.6016 132.223 61.0508 131.735C61.5049 131.247 62.0396 130.866 62.6548 130.592C63.27 130.319 63.9463 130.182 64.6836 130.182C65.4062 130.182 66.0776 130.319 66.6978 130.592C67.3179 130.866 67.8599 131.247 68.3237 131.735C68.7925 132.223 69.1562 132.794 69.415 133.449C69.6738 134.103 69.8032 134.813 69.8032 135.58V135.749C69.8032 136.52 69.6738 137.235 69.415 137.895C69.1562 138.549 68.7949 139.12 68.3311 139.608C67.8672 140.097 67.3252 140.478 66.7051 140.751C66.085 141.02 65.416 141.154 64.6982 141.154ZM64.6982 139.206C65.2354 139.206 65.6943 139.062 66.0752 138.773C66.4561 138.485 66.7466 138.083 66.9468 137.565C67.147 137.047 67.2471 136.442 67.2471 135.749V135.565C67.2471 134.887 67.1445 134.291 66.9395 133.778C66.7393 133.261 66.4487 132.858 66.0679 132.57C65.687 132.282 65.2256 132.138 64.6836 132.138C64.1123 132.138 63.6436 132.279 63.2773 132.562C62.916 132.846 62.6475 133.244 62.4717 133.756C62.2959 134.269 62.208 134.872 62.208 135.565V135.749C62.208 136.442 62.2959 137.05 62.4717 137.572C62.6523 138.09 62.9258 138.493 63.292 138.781C63.6631 139.064 64.1318 139.206 64.6982 139.206ZM70.5063 141V139.499L71.627 139.228V132.123L70.5063 131.845V130.336H71.627H75.5015C76.4634 130.336 77.3154 130.561 78.0576 131.01C78.7998 131.454 79.3809 132.072 79.8008 132.863C80.2207 133.649 80.4307 134.557 80.4307 135.587V135.756C80.4307 136.786 80.2207 137.697 79.8008 138.488C79.3809 139.274 78.7998 139.889 78.0576 140.333C77.3154 140.778 76.4634 141 75.5015 141H70.5063ZM74.1978 139.052H75.3696C75.9116 139.052 76.3657 138.915 76.7319 138.642C77.0981 138.368 77.374 137.985 77.5596 137.492C77.75 136.994 77.8452 136.415 77.8452 135.756V135.58C77.8452 134.921 77.75 134.345 77.5596 133.852C77.374 133.358 77.0981 132.975 76.7319 132.702C76.3657 132.428 75.9116 132.292 75.3696 132.292H74.1978V139.052ZM81.2729 141V139.499L82.3789 139.264V132.079L81.2729 131.845V130.336H89.791V133.412H87.8501L87.7915 132.313H84.9497V134.503H88.3555V136.474H84.9497V139.015H87.9307L87.9893 137.865H89.9082V141H81.2729ZM90.8677 141V139.499L91.9736 139.264V132.079L90.8677 131.845V130.336H91.9736H94.5444H95.8921V131.845L94.5444 132.079V139.03H97.0786L97.1372 137.543H99.1001V141H90.8677ZM99.6128 141V139.499L100.719 139.264V132.079L99.6128 131.845V130.336H108.131V133.412H106.19L106.131 132.313H103.29V134.503H106.695V136.474H103.29V139.015H106.271L106.329 137.865H108.248V141H99.6128ZM109.208 141V139.499L110.313 139.264V132.079L109.208 131.845V130.329H114.452C115.296 130.329 116.029 130.463 116.649 130.731C117.269 131 117.748 131.383 118.084 131.881C118.421 132.375 118.59 132.96 118.59 133.639C118.59 134.264 118.419 134.845 118.077 135.382C117.74 135.919 117.276 136.352 116.686 136.679C116.095 137.001 115.421 137.16 114.664 137.155L112.884 137.133V139.264L113.99 139.499V141H109.208ZM115.96 141L114.525 136.84L116.759 136.078L118.055 139.25L119.066 139.506V141H115.96ZM112.884 135.163H114.481C114.979 135.163 115.362 135.048 115.631 134.818C115.899 134.584 116.034 134.247 116.034 133.808C116.034 133.354 115.897 132.99 115.624 132.716C115.35 132.438 114.959 132.299 114.452 132.299H112.884V135.163Z" fill="#444444"/>
<path d="M81.4972 32C71.3998 32 63.1504 39.5664 63.1504 48.8215C63.1504 52.9681 64.8156 56.7605 67.5525 59.6958C57.1377 64.4026 50 74.2144 50 85.5767V101.332C49.994 102.781 51.2711 103.961 52.8527 103.967H59.5985V113.365C59.5925 114.814 60.8696 115.994 62.4512 116H101.835C103.426 116.006 104.716 114.822 104.71 113.365V103.967H110.147C111.729 103.961 113.006 102.781 113 101.332V85.5767C113 74.2143 105.876 64.3897 95.4642 59.6804C98.192 56.7474 99.8496 52.9603 99.8496 48.8215C99.8496 39.5664 91.5946 32 81.4972 32ZM81.4972 37.25C88.499 37.25 94.1218 42.4037 94.1218 48.8215C94.1218 52.7442 92.0111 56.1717 88.78 58.2551C88.7054 58.2914 88.6326 58.3308 88.5618 58.3731C88.1751 58.6138 87.7641 58.8102 87.3536 59.0088C87.1752 59.0942 87.0057 59.1925 86.8222 59.2704C86.4681 59.4222 86.0987 59.5391 85.7315 59.66C85.3686 59.7776 85.0016 59.8852 84.624 59.9727C84.3223 60.0441 84.0193 60.1166 83.7122 60.1675C82.9916 60.283 82.2556 60.3674 81.4972 60.3674C80.7179 60.3674 79.9654 60.2841 79.2262 60.1624C78.9872 60.1227 78.7517 60.0661 78.5158 60.0137C77.9986 59.8997 77.4953 59.7579 77.0056 59.5881C76.7883 59.5127 76.5693 59.4438 76.3567 59.3575C75.7862 59.1257 75.2393 58.8559 74.7178 58.5525C74.6196 58.495 74.5124 58.4533 74.4158 58.3936C74.4028 58.3866 74.3897 58.3796 74.3766 58.3728C71.0509 56.3015 68.8782 52.8115 68.8782 48.8215C68.8782 42.4037 74.4953 37.25 81.4972 37.25ZM72.6706 63.5308C75.2947 64.8586 78.2997 65.6174 81.4972 65.6174C84.6947 65.6174 87.7053 64.8587 90.3294 63.5308C100.188 66.8327 107.272 75.3275 107.272 85.5767V98.717H104.71V80.5574C104.711 80.4701 104.708 80.3828 104.699 80.2958C104.547 78.9532 103.308 77.9354 101.835 77.9426H62.4512C62.3599 77.9385 62.2684 77.9385 62.1771 77.9426C61.0978 78.0432 60.1731 78.6943 59.7887 79.6242C59.7543 79.7066 59.7244 79.7903 59.6992 79.8754V79.8853C59.6744 79.9664 59.6538 80.0485 59.6376 80.1314C59.6217 80.218 59.6104 80.3053 59.604 80.3929C59.6003 80.4476 59.5984 80.5023 59.5984 80.557V98.7167H55.7278V85.5763C55.7278 75.3273 62.8117 66.8329 72.6706 63.5308ZM65.3263 83.1978H98.9826C98.9826 92.3818 98.9826 101.566 98.9826 110.75H65.3263V101.332V83.1978ZM67.6923 98.8708C52.9005 54.184 60.2964 76.5274 67.6923 98.8708V98.8708ZM91.3921 103.424C60.8005 55.7016 76.0963 79.5626 91.3921 103.424V103.424Z" fill="#444444"/>
<path d="M72.4609 89.9707V93.0831H71.1269C70.9727 93.0832 70.8233 93.133 70.7041 93.2242C70.5848 93.3155 70.5031 93.4425 70.4729 93.5836L69.8059 96.696C69.7866 96.7863 69.7889 96.8795 69.8128 96.9688C69.8367 97.0582 69.8816 97.1415 69.9442 97.2127C70.0067 97.2839 70.0854 97.3413 70.1746 97.3807C70.2638 97.4201 70.3613 97.4405 70.4599 97.4405H72.4609V99.308C72.4615 99.8031 72.6725 100.278 73.0476 100.628C73.4227 100.978 73.9313 101.175 74.4618 101.175H79.7976C80.3281 101.175 80.8367 100.978 81.2118 100.628C81.5869 100.278 81.7979 99.8031 81.7985 99.308V98.3961L85.3353 96.1956H86.4673V96.818C86.4673 96.8998 86.4846 96.9807 86.5181 97.0563C86.5516 97.1318 86.6007 97.2004 86.6627 97.2582C86.7246 97.316 86.7981 97.3619 86.879 97.3932C86.96 97.4244 87.0467 97.4405 87.1343 97.4405H89.1352V102.652C89.0882 102.634 89.0415 102.614 88.9954 102.593L88.7665 102.486C88.2593 102.251 87.7006 102.128 87.1343 102.128C86.5679 102.128 86.0092 102.251 85.5021 102.486C85.3913 102.538 85.2981 102.617 85.233 102.716C85.1678 102.814 85.1333 102.927 85.1334 103.043V104.288H83.715C83.5664 103.754 83.2322 103.281 82.7647 102.943C82.2972 102.605 81.7228 102.421 81.1315 102.42H78.4636C77.7563 102.421 77.0781 102.683 76.5781 103.15C76.0781 103.617 75.7972 104.25 75.7972 104.91C75.7972 105.57 76.0781 106.204 76.5781 106.67C77.0781 107.137 77.7563 107.4 78.4636 107.4H81.1315C81.7228 107.4 82.2972 107.216 82.7647 106.878C83.2322 106.54 83.5664 106.067 83.715 105.533H85.1334V106.778C85.1334 106.859 85.1506 106.94 85.1841 107.016C85.2176 107.091 85.2668 107.16 85.3287 107.218C85.3906 107.276 85.4642 107.322 85.5451 107.353C85.626 107.384 85.7127 107.4 85.8003 107.4H91.8031C91.8907 107.4 91.9774 107.384 92.0583 107.353C92.1393 107.322 92.2128 107.276 92.2747 107.218C92.3367 107.16 92.3858 107.091 92.4193 107.016C92.4528 106.94 92.4701 106.859 92.4701 106.778V103.043C92.4701 102.944 92.445 102.847 92.3968 102.759C92.3486 102.671 92.2788 102.596 92.1931 102.538C92.1073 102.48 92.0081 102.442 91.9037 102.428C91.7992 102.413 91.6924 102.421 91.5922 102.452L90.7633 102.71C90.667 102.74 90.5688 102.764 90.4691 102.782V97.4405H91.8031C91.8907 97.4405 91.9774 97.4244 92.0583 97.3931C92.1392 97.3619 92.2128 97.316 92.2747 97.2582C92.3366 97.2004 92.3858 97.1318 92.4193 97.0563C92.4528 96.9807 92.4701 96.8998 92.4701 96.818V93.7056C92.4701 93.6239 92.4528 93.5429 92.4193 93.4674C92.3858 93.3919 92.3366 93.3233 92.2747 93.2655C92.2128 93.2077 92.1393 93.1618 92.0583 93.1305C91.9774 93.0992 91.8907 93.0831 91.8031 93.0831H87.1343C87.0467 93.0831 86.96 93.0992 86.879 93.1305C86.7981 93.1618 86.7246 93.2077 86.6627 93.2655C86.6007 93.3233 86.5516 93.3919 86.5181 93.4674C86.4846 93.5429 86.4673 93.6239 86.4673 93.7056V94.9506H85.3353L81.5015 92.5652C81.3919 92.497 81.2632 92.4606 81.1315 92.4606C80.9998 92.4606 80.8711 92.497 80.7616 92.5652L76.9278 94.9506H76.2091L76.4498 93.8277C76.4691 93.7374 76.4667 93.6442 76.4428 93.5549C76.4189 93.4655 76.3741 93.3822 76.3115 93.311C76.2489 93.2398 76.1702 93.1824 76.081 93.143C75.9919 93.1036 75.8944 93.0832 75.7957 93.0831H73.7948V89.9707C73.795 89.8057 73.8653 89.6475 73.9904 89.5308C74.1154 89.4141 74.2849 89.3484 74.4618 89.3482H77.2141C77.3627 89.8824 77.6969 90.3555 78.1644 90.6934C78.6319 91.0313 79.2063 91.215 79.7976 91.2157H82.4655C83.1729 91.2154 83.8512 90.953 84.3513 90.4861C84.8514 90.0191 85.1323 89.386 85.1323 88.7258C85.1323 88.0656 84.8514 87.4324 84.3513 86.9655C83.8512 86.4986 83.1729 86.2361 82.4655 86.2358H79.7976C79.2063 86.2365 78.6319 86.4202 78.1644 86.7582C77.6969 87.0961 77.3627 87.5691 77.2141 88.1033H74.4618C73.9313 88.1039 73.4227 88.3008 73.0476 88.6509C72.6725 89.001 72.4615 89.4756 72.4609 89.9707ZM81.1315 106.155H78.4636C78.1098 106.155 77.7705 106.024 77.5204 105.791C77.2702 105.557 77.1297 105.24 77.1297 104.91C77.1297 104.58 77.2702 104.263 77.5204 104.03C77.7705 103.797 78.1098 103.665 78.4636 103.665H81.1315C81.4853 103.665 81.8246 103.797 82.0748 104.03C82.3249 104.263 82.4655 104.58 82.4655 104.91C82.4655 105.24 82.3249 105.557 82.0748 105.791C81.8246 106.024 81.4853 106.155 81.1315 106.155ZM91.1361 103.906V106.155H86.4673V103.463C87.0328 103.306 87.6414 103.354 88.17 103.6L88.3988 103.706C89.2479 104.105 90.2309 104.177 91.1361 103.906ZM87.8013 94.3281H91.1361V96.1956H87.8013V94.3281ZM81.1315 93.8313L83.9309 95.5731L81.1315 97.3149L78.3321 95.5731L81.1315 93.8313ZM75.7828 96.9401L75.9423 96.1956H76.9277L80.4645 98.3961V99.308C80.4643 99.473 80.394 99.6312 80.269 99.7479C80.1439 99.8646 79.9744 99.9303 79.7976 99.9305H74.4618C74.2849 99.9303 74.1154 99.8646 73.9904 99.7479C73.8653 99.6312 73.795 99.473 73.7948 99.308V97.4405H75.1288C75.2829 97.4405 75.4324 97.3907 75.5516 97.2994C75.6708 97.2082 75.7525 97.0812 75.7828 96.9401ZM74.582 96.1956H71.2735L71.6737 94.3281H74.9822L74.582 96.1956ZM79.7976 87.4808H82.4655C82.8191 87.4811 83.1581 87.6124 83.408 87.8458C83.658 88.0792 83.7983 88.3958 83.7983 88.7258C83.7983 89.0558 83.658 89.3723 83.408 89.6057C83.1581 89.8392 82.8191 89.9705 82.4655 89.9707H79.7976C79.444 89.9705 79.1049 89.8392 78.855 89.6057C78.6051 89.3723 78.4647 89.0558 78.4647 88.7258C78.4647 88.3958 78.6051 88.0792 78.855 87.8458C79.1049 87.6124 79.444 87.4811 79.7976 87.4808Z" fill="#444444"/>
</svg>
