<svg width="450" height="512" viewBox="0 0 450 512" fill="none" xmlns="http://www.w3.org/2000/svg">
<path d="M212.66 3.35209C220.296 -1.11736 229.704 -1.11737 237.34 3.35209L434.66 118.842C442.296 123.311 447 131.571 447 140.51V371.49C447 380.429 442.296 388.689 434.66 393.158L237.34 508.648C229.704 513.117 220.296 513.117 212.66 508.648L15.3404 393.158C7.70413 388.689 3 380.429 3 371.49V140.51C3 131.571 7.70413 123.311 15.3404 118.842L212.66 3.35209Z" fill="white"/>
<path d="M214.68 6.80426C221.068 3.06525 228.932 3.06525 235.32 6.80426L432.639 122.294C439.034 126.037 443 132.974 443 140.51V371.49C443 379.026 439.034 385.963 432.639 389.706L235.32 505.196C228.932 508.935 221.068 508.935 214.68 505.196L17.3609 389.706C10.9662 385.963 7 379.026 7 371.49V140.51C7 132.974 10.9662 126.037 17.3609 122.294L214.68 6.80426Z" stroke="black" stroke-opacity="0.5" stroke-width="8"/>
<rect x="82" y="128" width="286" height="4" rx="2" fill="black" fill-opacity="0.3"/>
<rect x="82" y="380" width="286" height="4" rx="2" fill="black" fill-opacity="0.3"/>
<path d="M203.863 256.395C203.863 262.228 202.195 267.049 198.859 270.859C195.523 274.669 191.158 276.574 185.762 276.574C180.384 276.574 176.036 274.669 172.719 270.859C169.419 267.049 167.77 262.228 167.77 256.395V255.793C167.77 249.996 169.419 245.184 172.719 241.355C176.018 237.527 180.357 235.613 185.734 235.613C191.13 235.613 195.496 237.527 198.832 241.355C202.186 245.184 203.863 249.996 203.863 255.793V256.395ZM195.906 255.738C195.906 251.618 195.049 248.273 193.336 245.703C191.622 243.133 189.089 241.848 185.734 241.848C182.38 241.848 179.874 243.124 178.215 245.676C176.574 248.228 175.754 251.582 175.754 255.738V256.395C175.754 260.587 176.583 263.969 178.242 266.539C179.919 269.091 182.426 270.367 185.762 270.367C189.134 270.367 191.668 269.091 193.363 266.539C195.059 263.969 195.906 260.587 195.906 256.395V255.738ZM207.062 271.215L211.301 270.395V241.82L207.062 241V236.188H223.332V241L219.285 241.82V252.457H222.758L230.414 241.328L228.062 241V236.188H243.84V241L239.52 241.738L229.73 254.809L240.723 270.531L244.715 271.215V276H228.938V271.215L231.398 270.887L223.742 259.375H219.285V270.395L223.332 271.215V276H207.062V271.215ZM264.977 236.188C269.497 236.188 273.043 237.227 275.613 239.305C278.184 241.365 279.469 244.217 279.469 247.863C279.469 249.868 278.931 251.609 277.855 253.086C276.78 254.562 275.203 255.757 273.125 256.668C275.477 257.361 277.163 258.518 278.184 260.141C279.223 261.745 279.742 263.741 279.742 266.129V268.152C279.742 269.027 279.915 269.711 280.262 270.203C280.608 270.677 281.182 270.96 281.984 271.051L282.969 271.188V276H278.84C276.233 276 274.401 275.298 273.344 273.895C272.286 272.491 271.758 270.677 271.758 268.453V266.184C271.758 264.251 271.238 262.738 270.199 261.645C269.178 260.533 267.729 259.949 265.852 259.895H259.316V270.395L263.582 271.215V276H247.094V271.215L251.332 270.395V241.82L247.094 241V236.188H251.332H264.977ZM259.316 253.742H264.84C267.064 253.742 268.732 253.268 269.844 252.32C270.956 251.372 271.512 250.005 271.512 248.219C271.512 246.432 270.956 245.01 269.844 243.953C268.75 242.878 267.128 242.34 264.977 242.34H259.316V253.742Z" fill="black"/>
<path d="M193.781 97.3281C191.427 97.3281 189.432 96.8698 187.797 95.9531C186.172 95.0365 184.932 93.7656 184.078 92.1406C183.224 90.5052 182.797 88.6146 182.797 86.4688V85.4375C182.797 83.1771 183.219 81.1823 184.062 79.4531C184.906 77.724 186.13 76.3698 187.734 75.3906C189.339 74.4115 191.276 73.9219 193.547 73.9219C195.099 73.9219 196.656 74.1615 198.219 74.6406C199.781 75.1094 201.156 75.8542 202.344 76.875V82.2031H198.438L197.609 79.3125C197.255 78.9479 196.75 78.6458 196.094 78.4062C195.448 78.1667 194.719 78.0469 193.906 78.0469C192.656 78.0469 191.609 78.3594 190.766 78.9844C189.922 79.599 189.286 80.4583 188.859 81.5625C188.443 82.6667 188.234 83.9479 188.234 85.4062V86.4688C188.234 87.8438 188.453 89.0365 188.891 90.0469C189.339 91.0573 189.99 91.8385 190.844 92.3906C191.698 92.9427 192.75 93.2188 194 93.2188C194.656 93.2188 195.307 93.151 195.953 93.0156C196.599 92.8802 197.104 92.7292 197.469 92.5625V89.625L194.906 89.3125V85.5312H202.969V94.9688C201.74 95.7604 200.349 96.3542 198.797 96.75C197.255 97.1354 195.583 97.3281 193.781 97.3281ZM215.609 97.3281C214.036 97.3281 212.589 97.0417 211.266 96.4688C209.953 95.8854 208.812 95.0729 207.844 94.0312C206.875 92.9896 206.125 91.7708 205.594 90.375C205.073 88.9688 204.812 87.4427 204.812 85.7969V85.4375C204.812 83.8021 205.073 82.2865 205.594 80.8906C206.125 79.4948 206.87 78.276 207.828 77.2344C208.797 76.1927 209.938 75.3802 211.25 74.7969C212.562 74.2135 214.005 73.9219 215.578 73.9219C217.12 73.9219 218.552 74.2135 219.875 74.7969C221.198 75.3802 222.354 76.1927 223.344 77.2344C224.344 78.276 225.12 79.4948 225.672 80.8906C226.224 82.2865 226.5 83.8021 226.5 85.4375V85.7969C226.5 87.4427 226.224 88.9688 225.672 90.375C225.12 91.7708 224.349 92.9896 223.359 94.0312C222.37 95.0729 221.214 95.8854 219.891 96.4688C218.568 97.0417 217.141 97.3281 215.609 97.3281ZM215.609 93.1719C216.755 93.1719 217.734 92.8646 218.547 92.25C219.359 91.6354 219.979 90.776 220.406 89.6719C220.833 88.5677 221.047 87.276 221.047 85.7969V85.4062C221.047 83.9583 220.828 82.6875 220.391 81.5938C219.964 80.4896 219.344 79.6302 218.531 79.0156C217.719 78.401 216.734 78.0938 215.578 78.0938C214.359 78.0938 213.359 78.3958 212.578 79C211.807 79.6042 211.234 80.4531 210.859 81.5469C210.484 82.6406 210.297 83.9271 210.297 85.4062V85.7969C210.297 87.276 210.484 88.5729 210.859 89.6875C211.245 90.7917 211.828 91.651 212.609 92.2656C213.401 92.8698 214.401 93.1719 215.609 93.1719ZM226.891 97V93.7969L228.484 93.5625L235.266 74.25H241.203L248 93.5625L249.594 93.7969V97H241.094V93.7969L242.578 93.5156L241.891 91.0469H234.578L233.922 93.5156L235.406 93.7969V97H226.891ZM235.734 87.2031H240.719L238.5 80.3125L238.25 79.5156H238.156L237.891 80.3906L235.734 87.2031ZM250.594 97V93.7969L252.953 93.2969V77.9688L250.594 77.4688V74.25H252.953H258.438H261.312V77.4688L258.438 77.9688V92.7969H263.844L263.969 89.625H268.156V97H250.594Z" fill="black" fill-opacity="0.3"/>
<path d="M193.781 438.328C191.427 438.328 189.432 437.87 187.797 436.953C186.172 436.036 184.932 434.766 184.078 433.141C183.224 431.505 182.797 429.615 182.797 427.469V426.438C182.797 424.177 183.219 422.182 184.062 420.453C184.906 418.724 186.13 417.37 187.734 416.391C189.339 415.411 191.276 414.922 193.547 414.922C195.099 414.922 196.656 415.161 198.219 415.641C199.781 416.109 201.156 416.854 202.344 417.875V423.203H198.438L197.609 420.312C197.255 419.948 196.75 419.646 196.094 419.406C195.448 419.167 194.719 419.047 193.906 419.047C192.656 419.047 191.609 419.359 190.766 419.984C189.922 420.599 189.286 421.458 188.859 422.562C188.443 423.667 188.234 424.948 188.234 426.406V427.469C188.234 428.844 188.453 430.036 188.891 431.047C189.339 432.057 189.99 432.839 190.844 433.391C191.698 433.943 192.75 434.219 194 434.219C194.656 434.219 195.307 434.151 195.953 434.016C196.599 433.88 197.104 433.729 197.469 433.562V430.625L194.906 430.312V426.531H202.969V435.969C201.74 436.76 200.349 437.354 198.797 437.75C197.255 438.135 195.583 438.328 193.781 438.328ZM215.609 438.328C214.036 438.328 212.589 438.042 211.266 437.469C209.953 436.885 208.812 436.073 207.844 435.031C206.875 433.99 206.125 432.771 205.594 431.375C205.073 429.969 204.812 428.443 204.812 426.797V426.438C204.812 424.802 205.073 423.286 205.594 421.891C206.125 420.495 206.87 419.276 207.828 418.234C208.797 417.193 209.938 416.38 211.25 415.797C212.562 415.214 214.005 414.922 215.578 414.922C217.12 414.922 218.552 415.214 219.875 415.797C221.198 416.38 222.354 417.193 223.344 418.234C224.344 419.276 225.12 420.495 225.672 421.891C226.224 423.286 226.5 424.802 226.5 426.438V426.797C226.5 428.443 226.224 429.969 225.672 431.375C225.12 432.771 224.349 433.99 223.359 435.031C222.37 436.073 221.214 436.885 219.891 437.469C218.568 438.042 217.141 438.328 215.609 438.328ZM215.609 434.172C216.755 434.172 217.734 433.865 218.547 433.25C219.359 432.635 219.979 431.776 220.406 430.672C220.833 429.568 221.047 428.276 221.047 426.797V426.406C221.047 424.958 220.828 423.688 220.391 422.594C219.964 421.49 219.344 420.63 218.531 420.016C217.719 419.401 216.734 419.094 215.578 419.094C214.359 419.094 213.359 419.396 212.578 420C211.807 420.604 211.234 421.453 210.859 422.547C210.484 423.641 210.297 424.927 210.297 426.406V426.797C210.297 428.276 210.484 429.573 210.859 430.688C211.245 431.792 211.828 432.651 212.609 433.266C213.401 433.87 214.401 434.172 215.609 434.172ZM226.891 438V434.797L228.484 434.562L235.266 415.25H241.203L248 434.562L249.594 434.797V438H241.094V434.797L242.578 434.516L241.891 432.047H234.578L233.922 434.516L235.406 434.797V438H226.891ZM235.734 428.203H240.719L238.5 421.312L238.25 420.516H238.156L237.891 421.391L235.734 428.203ZM250.594 438V434.797L252.953 434.297V418.969L250.594 418.469V415.25H252.953H258.438H261.312V418.469L258.438 418.969V433.797H263.844L263.969 430.625H268.156V438H250.594Z" fill="black" fill-opacity="0.3"/>
</svg>
