<svg width="163" height="191" viewBox="0 0 163 191" fill="none" xmlns="http://www.w3.org/2000/svg">
<path d="M75.7602 6.52497C79.6508 4.27879 84.4476 4.29317 88.3247 6.56262L154.315 45.1898C158.146 47.4323 160.5 51.5384 160.5 55.9775V134.853C160.5 139.285 158.154 143.385 154.333 145.63L88.343 184.409C84.4566 186.693 79.6417 186.708 75.7417 184.447L8.73174 145.608C4.87452 143.372 2.5 139.251 2.5 134.793V56.0374C2.5 51.5715 4.88256 47.4448 8.75016 45.2119L75.7602 6.52497Z" fill="#C9C675" stroke="#444444" stroke-width="5"/>
<path d="M69.1221 141V139.499L70.228 139.264V132.079L69.1221 131.845V130.336H70.228H74.3076C75.1572 130.336 75.8945 130.485 76.5195 130.783C77.1445 131.081 77.6255 131.496 77.9624 132.028C78.3042 132.555 78.4751 133.17 78.4751 133.874C78.4751 134.577 78.3042 135.192 77.9624 135.719C77.6255 136.247 77.1445 136.657 76.5195 136.95C75.8945 137.243 75.1572 137.389 74.3076 137.389H72.7988V139.264L73.9048 139.499V141H69.1221ZM72.7988 135.419H74.3076C74.8301 135.419 75.2256 135.277 75.4941 134.994C75.7676 134.706 75.9043 134.337 75.9043 133.888C75.9043 133.424 75.7676 133.043 75.4941 132.746C75.2256 132.448 74.8301 132.299 74.3076 132.299H72.7988V135.419ZM78.8926 141V139.499L79.9912 139.264V132.079L78.8926 131.845V130.336H79.9912H83.9243L86.5024 137.36H86.5464L89.0513 130.336H94.0244V131.845L92.9185 132.079V139.264L94.0244 139.499V141H89.249V139.499L90.3989 139.264V137.873L90.4575 132.855L90.4136 132.848L87.396 141H85.3745L82.313 132.943L82.2617 132.951L82.4375 137.521V139.264L83.6753 139.499V141H78.8926Z" fill="#444444"/>
<path d="M81.4972 33C71.3998 33 63.1504 40.5664 63.1504 49.8215C63.1504 53.9681 64.8156 57.7605 67.5525 60.6958C57.1377 65.4026 50 75.2144 50 86.5767V102.332C49.994 103.781 51.2711 104.961 52.8527 104.967H59.5985V114.365C59.5925 115.814 60.8696 116.994 62.4512 117H101.835C103.426 117.006 104.716 115.822 104.71 114.365V104.967H110.147C111.729 104.961 113.006 103.781 113 102.332V86.5767C113 75.2143 105.876 65.3897 95.4642 60.6804C98.192 57.7474 99.8496 53.9603 99.8496 49.8215C99.8496 40.5664 91.5946 33 81.4972 33ZM81.4972 38.25C88.499 38.25 94.1218 43.4037 94.1218 49.8215C94.1218 53.7442 92.0111 57.1717 88.78 59.2551C88.7054 59.2914 88.6326 59.3308 88.5618 59.3731C88.1751 59.6138 87.7641 59.8102 87.3536 60.0088C87.1752 60.0942 87.0057 60.1925 86.8222 60.2704C86.4681 60.4222 86.0987 60.5391 85.7315 60.66C85.3686 60.7776 85.0016 60.8852 84.624 60.9727C84.3223 61.0441 84.0193 61.1166 83.7122 61.1675C82.9916 61.283 82.2556 61.3674 81.4972 61.3674C80.7179 61.3674 79.9654 61.2841 79.2262 61.1624C78.9872 61.1227 78.7517 61.0661 78.5158 61.0137C77.9986 60.8997 77.4953 60.7579 77.0056 60.5881C76.7883 60.5127 76.5693 60.4438 76.3567 60.3575C75.7862 60.1257 75.2393 59.8559 74.7178 59.5525C74.6196 59.495 74.5124 59.4533 74.4158 59.3936C74.4028 59.3866 74.3897 59.3796 74.3766 59.3728C71.0509 57.3015 68.8782 53.8115 68.8782 49.8215C68.8782 43.4037 74.4953 38.25 81.4972 38.25ZM72.6706 64.5308C75.2947 65.8586 78.2997 66.6174 81.4972 66.6174C84.6947 66.6174 87.7053 65.8587 90.3294 64.5308C100.188 67.8327 107.272 76.3275 107.272 86.5767V99.717H104.71V81.5574C104.711 81.4701 104.708 81.3828 104.699 81.2958C104.547 79.9532 103.308 78.9354 101.835 78.9426H62.4512C62.3599 78.9385 62.2684 78.9385 62.1771 78.9426C61.0978 79.0432 60.1731 79.6943 59.7887 80.6242C59.7543 80.7066 59.7244 80.7903 59.6992 80.8754V80.8853C59.6744 80.9664 59.6538 81.0485 59.6376 81.1314C59.6217 81.218 59.6104 81.3053 59.604 81.3929C59.6003 81.4476 59.5984 81.5023 59.5984 81.557V99.7167H55.7278V86.5763C55.7278 76.3273 62.8117 67.8329 72.6706 64.5308ZM65.3263 84.1978H98.9826C98.9826 93.3818 98.9826 102.566 98.9826 111.75H65.3263V102.332V84.1978ZM67.6923 99.8708C52.9005 55.184 60.2964 77.5274 67.6923 99.8708V99.8708ZM91.3921 104.424C60.8005 56.7016 76.0963 80.5626 91.3921 104.424V104.424Z" fill="#515151"/>
<path d="M88.9179 97.307L90.9237 99.1948L91.3248 98.8172L89.319 96.9294L88.9179 97.307Z" fill="#515151"/>
<path fill-rule="evenodd" clip-rule="evenodd" d="M84.9742 102.138C84.7538 102.346 84.7538 102.686 84.9742 102.893L84.9909 102.909C85.2113 103.117 85.5726 103.117 85.793 102.909L86.5452 102.201L89.704 99.2279L90.105 98.8504L89.704 98.4728L89.6872 98.4571L89.2862 98.0796L88.8851 98.4571L84.9742 102.138Z" fill="#515151"/>
<path fill-rule="evenodd" clip-rule="evenodd" d="M90.4892 99.2118L90.2887 99.0231L90.0881 99.2118L86.7288 102.374L85.7764 103.271C85.6978 103.345 85.6777 103.452 85.7115 103.545L84.6515 103.84L83.9762 103.205L84.2882 102.213C84.3895 102.249 84.5089 102.23 84.59 102.153L85.5427 101.257L89.1025 97.906L88.902 97.7173L88.8938 97.7093L88.8929 97.7087L88.693 97.5205L85.1328 100.872L84.1804 101.768C84.1716 101.777 84.1679 101.788 84.1606 101.797C84.1325 101.813 84.1098 101.838 84.0999 101.87L83.3463 104.267C83.3315 104.314 83.3451 104.365 83.382 104.399C83.4189 104.434 83.4725 104.447 83.5224 104.433L86.0691 103.724C86.0748 103.722 86.0779 103.718 86.083 103.716C86.1204 103.703 86.1559 103.684 86.1857 103.656L87.1384 102.759L90.4977 99.5971L90.6982 99.4083L90.4934 99.2153L90.4892 99.2118Z" fill="#515151"/>
<path fill-rule="evenodd" clip-rule="evenodd" d="M92.3802 97.0703L91.1768 95.9378C90.9564 95.7301 90.5951 95.7301 90.3747 95.9378L89.8937 96.3903C89.8934 96.3906 89.8931 96.3908 89.8928 96.3911L89.4926 96.7678L89.8937 97.1453L91.0971 98.2781L91.4982 98.6556L91.8992 98.2781L92.1397 98.0517L92.3805 97.825C92.6009 97.6176 92.6009 97.2777 92.3802 97.0703Z" fill="#515151"/>
<path d="M90.0807 94.9362V90.7815C90.0832 90.7647 90.0863 90.7476 90.0863 90.73C90.0863 90.5997 90.0203 90.4835 89.9176 90.4107L87.3992 88.0404L86.1274 86.843C86.1002 86.8174 86.0693 86.7974 86.0364 86.78C86.0293 86.7758 86.0217 86.7723 86.014 86.7685C85.9561 86.7416 85.8926 86.7258 85.8268 86.7258H73.772C73.2246 86.7258 72.7793 87.145 72.7793 87.6603V107.976C72.7793 108.491 73.2246 108.911 73.772 108.911H89.088C89.6354 108.911 90.0807 108.491 90.0807 107.976V101.27L89.2298 102.071V107.976C89.2298 108.049 89.1648 108.11 89.088 108.11H73.772C73.6951 108.11 73.6302 108.049 73.6302 107.976V87.66C73.6302 87.5876 73.6951 87.5265 73.772 87.5265H85.4011V90.196C85.4011 90.7113 85.8464 91.1304 86.3938 91.1304H89.2298V95.7371L90.0807 94.9362ZM86.252 90.196V88.093L86.9298 88.7308L88.6276 90.3295H86.3938C86.3166 90.3295 86.252 90.2684 86.252 90.196Z" fill="#515151"/>
<path d="M76.5609 94.7406H82.9428C83.1777 94.7406 83.3683 94.5612 83.3683 94.3402C83.3683 94.1191 83.1777 93.9397 82.9428 93.9397H76.5609C76.3258 93.9397 76.1354 94.1191 76.1354 94.3402C76.1354 94.5612 76.3258 94.7406 76.5609 94.7406Z" fill="#515151"/>
<path d="M83.3683 99.5462C83.3683 99.3252 83.1777 99.1458 82.9428 99.1458H76.5609C76.3258 99.1458 76.1354 99.3252 76.1354 99.5462C76.1354 99.7673 76.3258 99.9467 76.5609 99.9467H82.9428C83.1777 99.9467 83.3683 99.7673 83.3683 99.5462Z" fill="#515151"/>
<path d="M76.5609 103.905C76.3258 103.905 76.1354 104.084 76.1354 104.305C76.1354 104.527 76.3258 104.706 76.5609 104.706H79.7517C79.9868 104.706 80.1772 104.527 80.1772 104.305C80.1772 104.084 79.9868 103.905 79.7517 103.905H76.5609Z" fill="#515151"/>
<path d="M76.5609 91.1303H79.7517C79.9868 91.1303 80.1772 90.9509 80.1772 90.7298C80.1772 90.5088 79.9868 90.3293 79.7517 90.3293H76.5609C76.3258 90.3293 76.1354 90.5088 76.1354 90.7298C76.1354 90.9509 76.3258 91.1303 76.5609 91.1303Z" fill="#515151"/>
<path d="M76.5609 89.5565H79.7517C79.9868 89.5565 80.1772 89.3771 80.1772 89.1561C80.1772 88.935 79.9868 88.7556 79.7517 88.7556H76.5609C76.3258 88.7556 76.1354 88.935 76.1354 89.1561C76.1354 89.3771 76.3258 89.5565 76.5609 89.5565Z" fill="#515151"/>
<path d="M86.5446 95.675H76.5609C76.3258 95.675 76.1354 95.8545 76.1354 96.0755C76.1354 96.2966 76.3258 96.476 76.5609 96.476H86.5446C86.7795 96.476 86.9701 96.2966 86.9701 96.0755C86.9701 95.8545 86.7795 95.675 86.5446 95.675Z" fill="#515151"/>
<path d="M86.9701 97.8109C86.9701 97.5898 86.7795 97.4104 86.5446 97.4104H76.5609C76.3258 97.4104 76.1354 97.5898 76.1354 97.8109C76.1354 98.0319 76.3258 98.2113 76.5609 98.2113H86.5446C86.7795 98.2113 86.9701 98.0319 86.9701 97.8109Z" fill="#515151"/>
<path d="M75.5091 89.69H74.6582C74.5799 89.69 74.5164 89.6302 74.5164 89.5565V88.7556C74.5164 88.6819 74.5799 88.6221 74.6582 88.6221H75.5091C75.5873 88.6221 75.6509 88.6819 75.6509 88.7556V89.5565C75.6509 89.6302 75.5873 89.69 75.5091 89.69ZM74.8 89.423H75.3672V88.889H74.8V89.423Z" fill="#515151"/>
<path d="M75.5091 91.2637H74.6582C74.5799 91.2637 74.5164 91.2039 74.5164 91.1302V90.3293C74.5164 90.2556 74.5799 90.1958 74.6582 90.1958H75.5091C75.5873 90.1958 75.6509 90.2556 75.6509 90.3293V91.1302C75.6509 91.2039 75.5873 91.2637 75.5091 91.2637ZM74.8 90.9967H75.3672V90.4628H74.8V90.9967Z" fill="#515151"/>
<path d="M75.5091 94.8741H74.6582C74.5799 94.8741 74.5164 94.8143 74.5164 94.7406V93.9396C74.5164 93.866 74.5799 93.8062 74.6582 93.8062H75.5091C75.5873 93.8062 75.6509 93.866 75.6509 93.9396V94.7406C75.6509 94.8143 75.5873 94.8741 75.5091 94.8741ZM74.8 94.6071H75.3672V94.0731H74.8V94.6071Z" fill="#515151"/>
<path d="M75.5091 96.6094H74.6582C74.5799 96.6094 74.5164 96.5496 74.5164 96.4759V95.675C74.5164 95.6013 74.5799 95.5415 74.6582 95.5415H75.5091C75.5873 95.5415 75.6509 95.6013 75.6509 95.675V96.4759C75.6509 96.5496 75.5873 96.6094 75.5091 96.6094ZM74.8 96.3424H75.3672V95.8085H74.8V96.3424Z" fill="#515151"/>
<path d="M75.5091 98.3448H74.6582C74.5799 98.3448 74.5164 98.285 74.5164 98.2113V97.4103C74.5164 97.3367 74.5799 97.2769 74.6582 97.2769H75.5091C75.5873 97.2769 75.6509 97.3367 75.6509 97.4103V98.2113C75.6509 98.285 75.5873 98.3448 75.5091 98.3448ZM74.8 98.0778H75.3672V97.5438H74.8V98.0778Z" fill="#515151"/>
<path d="M75.5091 100.08H74.6582C74.5799 100.08 74.5164 100.02 74.5164 99.9466V99.1457C74.5164 99.072 74.5799 99.0122 74.6582 99.0122H75.5091C75.5873 99.0122 75.6509 99.072 75.6509 99.1457V99.9466C75.6509 100.02 75.5873 100.08 75.5091 100.08ZM74.8 99.8131H75.3672V99.2792H74.8V99.8131Z" fill="#515151"/>
<path d="M75.5091 104.839H74.6582C74.5799 104.839 74.5164 104.78 74.5164 104.706V103.905C74.5164 103.831 74.5799 103.771 74.6582 103.771H75.5091C75.5873 103.771 75.6509 103.831 75.6509 103.905V104.706C75.6509 104.78 75.5873 104.839 75.5091 104.839ZM74.8 104.572H75.3672V104.038H74.8V104.572Z" fill="#515151"/>
</svg>
