<svg width="450" height="512" viewBox="0 0 450 512" fill="none" xmlns="http://www.w3.org/2000/svg">
<path d="M212.66 3.35209C220.296 -1.11736 229.704 -1.11737 237.34 3.35209L434.66 118.842C442.296 123.311 447 131.571 447 140.51V371.49C447 380.429 442.296 388.689 434.66 393.158L237.34 508.648C229.704 513.117 220.296 513.117 212.66 508.648L15.3404 393.158C7.70413 388.689 3 380.429 3 371.49V140.51C3 131.571 7.70413 123.311 15.3404 118.842L212.66 3.35209Z" fill="white"/>
<path d="M214.68 6.80426C221.068 3.06525 228.932 3.06525 235.32 6.80426L432.639 122.294C439.034 126.037 443 132.974 443 140.51V371.49C443 379.026 439.034 385.963 432.639 389.706L235.32 505.196C228.932 508.935 221.068 508.935 214.68 505.196L17.3609 389.706C10.9662 385.963 7 379.026 7 371.49V140.51C7 132.974 10.9662 126.037 17.3609 122.294L214.68 6.80426Z" stroke="black" stroke-opacity="0.5" stroke-width="8"/>
<rect x="82" y="128" width="286" height="4" rx="2" fill="black" fill-opacity="0.3"/>
<rect x="82" y="380" width="286" height="4" rx="2" fill="black" fill-opacity="0.3"/>
<path d="M140.891 208.188C145.448 208.188 149.039 209.363 151.664 211.715C154.307 214.048 155.629 217.111 155.629 220.902C155.629 224.712 154.307 227.775 151.664 230.09C149.039 232.405 145.448 233.562 140.891 233.562H134.164V242.395L138.43 243.215V248H121.941V243.215L126.18 242.395V213.82L121.941 213V208.188H126.18H140.891ZM134.164 227.41H140.891C143.115 227.41 144.792 226.809 145.922 225.605C147.07 224.384 147.645 222.835 147.645 220.957C147.645 219.043 147.07 217.466 145.922 216.227C144.792 214.969 143.115 214.34 140.891 214.34H134.164V227.41ZM158.992 243.215L162.82 242.395V224.047L158.582 223.227V218.414H170.258L170.613 222.734C171.306 221.203 172.199 220.009 173.293 219.152C174.387 218.296 175.654 217.867 177.094 217.867C177.513 217.867 177.951 217.904 178.406 217.977C178.88 218.031 179.272 218.104 179.582 218.195L178.734 225.469L175.453 225.387C174.286 225.387 173.32 225.615 172.555 226.07C171.789 226.526 171.206 227.173 170.805 228.012V242.395L174.633 243.215V248H158.992V243.215ZM181.414 232.934C181.414 228.522 182.645 224.913 185.105 222.105C187.585 219.28 191.003 217.867 195.359 217.867C199.734 217.867 203.152 219.271 205.613 222.078C208.092 224.885 209.332 228.504 209.332 232.934V233.508C209.332 237.956 208.092 241.583 205.613 244.391C203.152 247.18 199.753 248.574 195.414 248.574C191.021 248.574 187.585 247.18 185.105 244.391C182.645 241.583 181.414 237.956 181.414 233.508V232.934ZM189.398 233.508C189.398 236.206 189.872 238.375 190.82 240.016C191.768 241.638 193.299 242.449 195.414 242.449C197.474 242.449 198.978 241.629 199.926 239.988C200.892 238.348 201.375 236.188 201.375 233.508V232.934C201.375 230.309 200.892 228.167 199.926 226.508C198.96 224.849 197.438 224.02 195.359 224.02C193.281 224.02 191.768 224.849 190.82 226.508C189.872 228.167 189.398 230.309 189.398 232.934V233.508ZM232.055 244.391C231.125 245.758 230.022 246.797 228.746 247.508C227.488 248.219 226.048 248.574 224.426 248.574C220.78 248.574 217.945 247.243 215.922 244.582C213.917 241.921 212.914 238.402 212.914 234.027V233.453C212.914 228.786 213.926 225.022 215.949 222.16C217.973 219.298 220.816 217.867 224.48 217.867C225.957 217.867 227.288 218.195 228.473 218.852C229.658 219.49 230.697 220.401 231.59 221.586V210.977L227.324 210.156V205.344H231.59H239.574V242.395L243.402 243.215V248H232.656L232.055 244.391ZM220.898 234.027C220.898 236.616 221.327 238.658 222.184 240.152C223.059 241.629 224.48 242.367 226.449 242.367C227.616 242.367 228.628 242.13 229.484 241.656C230.341 241.182 231.043 240.499 231.59 239.605V227.055C231.043 226.107 230.341 225.378 229.484 224.867C228.646 224.339 227.652 224.074 226.504 224.074C224.553 224.074 223.132 224.94 222.238 226.672C221.345 228.404 220.898 230.664 220.898 233.453V234.027ZM266.645 244.254C265.697 245.639 264.521 246.706 263.117 247.453C261.732 248.201 260.146 248.574 258.359 248.574C255.242 248.574 252.799 247.581 251.031 245.594C249.263 243.589 248.379 240.48 248.379 236.27V224.047L245.125 223.227V218.414H248.379H256.363V236.324C256.363 238.475 256.719 240.025 257.43 240.973C258.159 241.902 259.234 242.367 260.656 242.367C261.914 242.367 262.999 242.167 263.91 241.766C264.84 241.346 265.596 240.754 266.18 239.988V224.047L262.68 223.227V218.414H266.18H274.164V242.395L277.746 243.215V248H267.164L266.645 244.254ZM294.781 242.449C296.203 242.449 297.342 242.039 298.199 241.219C299.056 240.38 299.484 239.268 299.484 237.883H306.703L306.785 238.047C306.858 241.036 305.737 243.543 303.422 245.566C301.107 247.572 298.227 248.574 294.781 248.574C290.37 248.574 286.97 247.18 284.582 244.391C282.194 241.602 281 238.02 281 233.645V232.824C281 228.467 282.221 224.885 284.664 222.078C287.125 219.271 290.625 217.867 295.164 217.867C297.552 217.867 299.694 218.223 301.59 218.934C303.486 219.645 305.062 220.647 306.32 221.941L306.43 229.844H299.949L298.637 225.223C298.236 224.876 297.743 224.594 297.16 224.375C296.577 224.138 295.911 224.02 295.164 224.02C292.904 224.02 291.309 224.84 290.379 226.48C289.449 228.121 288.984 230.236 288.984 232.824V233.645C288.984 236.288 289.413 238.421 290.27 240.043C291.126 241.647 292.63 242.449 294.781 242.449ZM322.207 211.168V218.414H327.402V224.02H322.207V239.086C322.207 240.234 322.444 241.055 322.918 241.547C323.392 242.039 324.03 242.285 324.832 242.285C325.379 242.285 325.853 242.267 326.254 242.23C326.673 242.176 327.138 242.094 327.648 241.984L328.332 247.754C327.439 248.027 326.555 248.228 325.68 248.355C324.805 248.501 323.857 248.574 322.836 248.574C320.083 248.574 317.96 247.818 316.465 246.305C314.988 244.792 314.25 242.395 314.25 239.113V224.02H309.902V218.414H314.25V211.168H322.207ZM119.098 264.188C123.618 264.188 127.164 265.227 129.734 267.305C132.305 269.365 133.59 272.217 133.59 275.863C133.59 277.868 133.052 279.609 131.977 281.086C130.901 282.562 129.324 283.757 127.246 284.668C129.598 285.361 131.284 286.518 132.305 288.141C133.344 289.745 133.863 291.741 133.863 294.129V296.152C133.863 297.027 134.036 297.711 134.383 298.203C134.729 298.677 135.303 298.96 136.105 299.051L137.09 299.188V304H132.961C130.354 304 128.522 303.298 127.465 301.895C126.408 300.491 125.879 298.677 125.879 296.453V294.184C125.879 292.251 125.359 290.738 124.32 289.645C123.299 288.533 121.85 287.949 119.973 287.895H113.438V298.395L117.703 299.215V304H101.215V299.215L105.453 298.395V269.82L101.215 269V264.188H105.453H119.098ZM113.438 281.742H118.961C121.185 281.742 122.853 281.268 123.965 280.32C125.077 279.372 125.633 278.005 125.633 276.219C125.633 274.432 125.077 273.01 123.965 271.953C122.871 270.878 121.249 270.34 119.098 270.34H113.438V281.742ZM139.906 288.934C139.906 284.522 141.137 280.913 143.598 278.105C146.077 275.28 149.495 273.867 153.852 273.867C158.227 273.867 161.645 275.271 164.105 278.078C166.585 280.885 167.824 284.504 167.824 288.934V289.508C167.824 293.956 166.585 297.583 164.105 300.391C161.645 303.18 158.245 304.574 153.906 304.574C149.513 304.574 146.077 303.18 143.598 300.391C141.137 297.583 139.906 293.956 139.906 289.508V288.934ZM147.891 289.508C147.891 292.206 148.365 294.375 149.312 296.016C150.26 297.638 151.792 298.449 153.906 298.449C155.966 298.449 157.47 297.629 158.418 295.988C159.384 294.348 159.867 292.188 159.867 289.508V288.934C159.867 286.309 159.384 284.167 158.418 282.508C157.452 280.849 155.93 280.02 153.852 280.02C151.773 280.02 150.26 280.849 149.312 282.508C148.365 284.167 147.891 286.309 147.891 288.934V289.508ZM190.137 304C189.918 303.508 189.727 303.007 189.562 302.496C189.398 301.967 189.271 301.439 189.18 300.91C188.232 302.004 187.074 302.888 185.707 303.562C184.358 304.237 182.809 304.574 181.059 304.574C178.16 304.574 175.854 303.79 174.141 302.223C172.445 300.637 171.598 298.486 171.598 295.77C171.598 292.999 172.71 290.857 174.934 289.344C177.158 287.831 180.421 287.074 184.723 287.074H188.797V284.176C188.797 282.754 188.387 281.651 187.566 280.867C186.746 280.083 185.534 279.691 183.93 279.691C183.018 279.691 182.207 279.801 181.496 280.02C180.785 280.22 180.211 280.466 179.773 280.758L179.254 283.93H173.238L173.266 277.367C174.724 276.383 176.392 275.553 178.27 274.879C180.165 274.204 182.225 273.867 184.449 273.867C188.113 273.867 191.085 274.77 193.363 276.574C195.66 278.361 196.809 280.913 196.809 284.23V296.453C196.809 296.909 196.809 297.337 196.809 297.738C196.827 298.139 196.863 298.522 196.918 298.887L199.352 299.215V304H190.137ZM183.219 298.668C184.422 298.668 185.516 298.413 186.5 297.902C187.484 297.374 188.25 296.717 188.797 295.934V291.422H184.723C183.027 291.422 181.742 291.823 180.867 292.625C179.992 293.409 179.555 294.357 179.555 295.469C179.555 296.471 179.874 297.255 180.512 297.82C181.168 298.385 182.07 298.668 183.219 298.668ZM221.336 300.391C220.406 301.758 219.303 302.797 218.027 303.508C216.77 304.219 215.329 304.574 213.707 304.574C210.061 304.574 207.227 303.243 205.203 300.582C203.198 297.921 202.195 294.402 202.195 290.027V289.453C202.195 284.786 203.207 281.022 205.23 278.16C207.254 275.298 210.098 273.867 213.762 273.867C215.238 273.867 216.569 274.195 217.754 274.852C218.939 275.49 219.978 276.401 220.871 277.586V266.977L216.605 266.156V261.344H220.871H228.855V298.395L232.684 299.215V304H221.938L221.336 300.391ZM210.18 290.027C210.18 292.616 210.608 294.658 211.465 296.152C212.34 297.629 213.762 298.367 215.73 298.367C216.897 298.367 217.909 298.13 218.766 297.656C219.622 297.182 220.324 296.499 220.871 295.605V283.055C220.324 282.107 219.622 281.378 218.766 280.867C217.927 280.339 216.934 280.074 215.785 280.074C213.835 280.074 212.413 280.94 211.52 282.672C210.626 284.404 210.18 286.664 210.18 289.453V290.027ZM234.297 279.227V274.414H245.973L246.301 278.324C247.249 276.902 248.434 275.809 249.855 275.043C251.296 274.259 252.954 273.867 254.832 273.867C256.728 273.867 258.35 274.286 259.699 275.125C261.048 275.964 262.069 277.23 262.762 278.926C263.673 277.34 264.858 276.1 266.316 275.207C267.775 274.314 269.488 273.867 271.457 273.867C274.374 273.867 276.671 274.879 278.348 276.902C280.043 278.908 280.891 281.97 280.891 286.09V298.395L284.746 299.215V304H269.461V299.215L272.906 298.395V286.062C272.906 283.82 272.542 282.262 271.812 281.387C271.083 280.512 269.999 280.074 268.559 280.074C267.428 280.074 266.444 280.329 265.605 280.84C264.785 281.332 264.129 282.025 263.637 282.918C263.637 283.264 263.646 283.565 263.664 283.82C263.682 284.057 263.691 284.303 263.691 284.559V298.395L266.918 299.215V304H252.508V299.215L255.734 298.395V286.062C255.734 283.875 255.37 282.335 254.641 281.441C253.911 280.53 252.818 280.074 251.359 280.074C250.284 280.074 249.336 280.284 248.516 280.703C247.714 281.104 247.048 281.678 246.52 282.426V298.395L249.965 299.215V304H234.707V299.215L238.562 298.395V280.047L234.297 279.227ZM306.184 304C305.965 303.508 305.773 303.007 305.609 302.496C305.445 301.967 305.318 301.439 305.227 300.91C304.279 302.004 303.121 302.888 301.754 303.562C300.405 304.237 298.855 304.574 297.105 304.574C294.207 304.574 291.901 303.79 290.188 302.223C288.492 300.637 287.645 298.486 287.645 295.77C287.645 292.999 288.757 290.857 290.98 289.344C293.204 287.831 296.467 287.074 300.77 287.074H304.844V284.176C304.844 282.754 304.434 281.651 303.613 280.867C302.793 280.083 301.581 279.691 299.977 279.691C299.065 279.691 298.254 279.801 297.543 280.02C296.832 280.22 296.258 280.466 295.82 280.758L295.301 283.93H289.285L289.312 277.367C290.771 276.383 292.439 275.553 294.316 274.879C296.212 274.204 298.272 273.867 300.496 273.867C304.16 273.867 307.132 274.77 309.41 276.574C311.707 278.361 312.855 280.913 312.855 284.23V296.453C312.855 296.909 312.855 297.337 312.855 297.738C312.874 298.139 312.91 298.522 312.965 298.887L315.398 299.215V304H306.184ZM299.266 298.668C300.469 298.668 301.562 298.413 302.547 297.902C303.531 297.374 304.297 296.717 304.844 295.934V291.422H300.77C299.074 291.422 297.789 291.823 296.914 292.625C296.039 293.409 295.602 294.357 295.602 295.469C295.602 296.471 295.921 297.255 296.559 297.82C297.215 298.385 298.117 298.668 299.266 298.668ZM317.531 279.227V274.414H329.125L329.508 277.859C330.383 276.583 331.431 275.599 332.652 274.906C333.874 274.214 335.296 273.867 336.918 273.867C340.582 273.867 343.426 275.298 345.449 278.16C347.473 281.022 348.484 284.786 348.484 289.453V290.027C348.484 294.402 347.473 297.921 345.449 300.582C343.426 303.243 340.6 304.574 336.973 304.574C335.423 304.574 334.047 304.292 332.844 303.727C331.641 303.143 330.611 302.296 329.754 301.184V309.742L333.609 310.562V315.375H317.941V310.562L321.797 309.742V280.047L317.531 279.227ZM340.5 289.453C340.5 286.664 340.035 284.404 339.105 282.672C338.176 280.94 336.754 280.074 334.84 280.074C333.637 280.074 332.607 280.32 331.75 280.812C330.911 281.305 330.246 282.007 329.754 282.918V295.879C330.246 296.717 330.911 297.355 331.75 297.793C332.607 298.23 333.655 298.449 334.895 298.449C336.827 298.449 338.24 297.693 339.133 296.18C340.044 294.667 340.5 292.616 340.5 290.027V289.453Z" fill="black"/>
<path d="M145.844 97V93.7969L147.438 93.5625L154.219 74.25H160.156L166.953 93.5625L168.547 93.7969V97H160.047V93.7969L161.531 93.5156L160.844 91.0469H153.531L152.875 93.5156L154.359 93.7969V97H145.844ZM154.688 87.2031H159.672L157.453 80.3125L157.203 79.5156H157.109L156.844 80.3906L154.688 87.2031ZM169.547 97V93.7969L171.906 93.2969V77.9688L169.547 77.4688V74.2344H180.734C182.536 74.2344 184.099 74.5208 185.422 75.0938C186.745 75.6667 187.766 76.4844 188.484 77.5469C189.203 78.599 189.562 79.849 189.562 81.2969C189.562 82.6302 189.198 83.8698 188.469 85.0156C187.75 86.1615 186.76 87.0833 185.5 87.7812C184.24 88.4688 182.802 88.8073 181.188 88.7969L177.391 88.75V93.2969L179.75 93.7969V97H169.547ZM183.953 97L180.891 88.125L185.656 86.5L188.422 93.2656L190.578 93.8125V97H183.953ZM177.391 84.5469H180.797C181.859 84.5469 182.677 84.3021 183.25 83.8125C183.823 83.3125 184.109 82.5938 184.109 81.6562C184.109 80.6875 183.818 79.9115 183.234 79.3281C182.651 78.7344 181.818 78.4375 180.734 78.4375H177.391V84.5469ZM196.312 97V93.7969L198.688 93.2969V78.5H195.172L195.031 80.9531H190.891V74.25H212.031V80.9531H207.844L207.719 78.5H204.172V93.2969L206.547 93.7969V97H196.312ZM212.859 97V93.7969L215.219 93.2969V77.9688L212.859 77.4688V74.25H223.047V77.4688L220.688 77.9688V93.2969L223.047 93.7969V97H212.859ZM224.297 97V93.7969L226.656 93.2969V77.9688L224.297 77.4688V74.25H243.031V80.9531H238.891L238.781 78.4688H232.141V83.7344H239.875V87.9219H232.141V93.2969L234.5 93.7969V97H224.297ZM240.25 97V93.7969L241.844 93.5625L248.625 74.25H254.562L261.359 93.5625L262.953 93.7969V97H254.453V93.7969L255.938 93.5156L255.25 91.0469H247.938L247.281 93.5156L248.766 93.7969V97H240.25ZM249.094 87.2031H254.078L251.859 80.3125L251.609 79.5156H251.516L251.25 80.3906L249.094 87.2031ZM274.281 97.3281C272.115 97.3281 270.182 96.8906 268.484 96.0156C266.786 95.1406 265.453 93.875 264.484 92.2188C263.516 90.5521 263.031 88.5312 263.031 86.1562V85.1094C263.031 82.9219 263.474 80.9896 264.359 79.3125C265.255 77.625 266.526 76.3073 268.172 75.3594C269.828 74.401 271.792 73.9219 274.062 73.9219C275.646 73.9219 277.151 74.1354 278.578 74.5625C280.016 74.9792 281.349 75.6979 282.578 76.7188V82.5781H278.594L278.047 79.2188C277.693 78.9792 277.318 78.7708 276.922 78.5938C276.536 78.4167 276.12 78.2812 275.672 78.1875C275.234 78.0938 274.76 78.0469 274.25 78.0469C273.094 78.0469 272.083 78.3229 271.219 78.875C270.354 79.4271 269.682 80.2292 269.203 81.2812C268.734 82.3229 268.5 83.5885 268.5 85.0781V86.1562C268.5 87.5521 268.745 88.7812 269.234 89.8438C269.724 90.8958 270.406 91.7188 271.281 92.3125C272.167 92.9062 273.188 93.2031 274.344 93.2031C274.958 93.2031 275.583 93.1406 276.219 93.0156C276.854 92.8802 277.469 92.7031 278.062 92.4844L278.609 89.2656H282.609V95C281.703 95.625 280.547 96.1719 279.141 96.6406C277.734 97.099 276.115 97.3281 274.281 97.3281ZM288.594 97V93.7969L290.969 93.2969V78.5H287.453L287.312 80.9531H283.172V74.25H304.312V80.9531H300.125L300 78.5H296.453V93.2969L298.828 93.7969V97H288.594Z" fill="black" fill-opacity="0.3"/>
<path d="M187.969 438V434.797L190.312 434.297V418.969L187.969 418.469V415.25H190.312H198.703L204.203 430.234H204.297L209.641 415.25H220.25V418.469L217.891 418.969V434.297L220.25 434.797V438H210.062V434.797L212.516 434.297V431.328L212.641 420.625L212.547 420.609L206.109 438H201.797L195.266 420.812L195.156 420.828L195.531 430.578V434.297L198.172 434.797V438H187.969ZM218.484 438V434.797L220.078 434.562L226.859 415.25H232.797L239.594 434.562L241.188 434.797V438H232.688V434.797L234.172 434.516L233.484 432.047H226.172L225.516 434.516L227 434.797V438H218.484ZM227.328 428.203H232.312L230.094 421.312L229.844 420.516H229.75L229.484 421.391L227.328 428.203ZM242.188 438V434.797L244.547 434.297V418.969L242.188 418.469V415.25H244.547H253.25C255.062 415.25 256.635 415.568 257.969 416.203C259.302 416.839 260.328 417.724 261.047 418.859C261.776 419.984 262.141 421.297 262.141 422.797C262.141 424.297 261.776 425.609 261.047 426.734C260.328 427.859 259.302 428.734 257.969 429.359C256.635 429.984 255.062 430.297 253.25 430.297H250.031V434.297L252.391 434.797V438H242.188ZM250.031 426.094H253.25C254.365 426.094 255.208 425.792 255.781 425.188C256.365 424.573 256.656 423.786 256.656 422.828C256.656 421.839 256.365 421.026 255.781 420.391C255.208 419.755 254.365 419.438 253.25 419.438H250.031V426.094Z" fill="black" fill-opacity="0.3"/>
</svg>
