<svg width="163" height="191" viewBox="0 0 163 191" fill="none" xmlns="http://www.w3.org/2000/svg">
<path d="M75.7602 6.52497C79.6508 4.27879 84.4476 4.29317 88.3247 6.56262L154.315 45.1898C158.146 47.4323 160.5 51.5384 160.5 55.9775V134.853C160.5 139.285 158.154 143.385 154.333 145.63L88.343 184.409C84.4566 186.693 79.6417 186.708 75.7417 184.447L8.73174 145.608C4.87452 143.372 2.5 139.251 2.5 134.793V56.0374C2.5 51.5715 4.88256 47.4448 8.75016 45.2119L75.7602 6.52497Z" fill="#C9C675" stroke="#444444" stroke-width="5"/>
<path d="M80.2622 143.219L76.981 141.095C76.8247 141.11 76.6709 141.122 76.5195 141.132C76.3682 141.146 76.2217 141.154 76.0801 141.154C75.3379 141.154 74.6567 141.02 74.0366 140.751C73.4165 140.478 72.8794 140.099 72.4253 139.616C71.9761 139.127 71.627 138.556 71.3779 137.902C71.1338 137.243 71.0117 136.525 71.0117 135.749V135.58C71.0117 134.813 71.1338 134.103 71.3779 133.449C71.627 132.79 71.9761 132.216 72.4253 131.728C72.8794 131.239 73.4141 130.861 74.0293 130.592C74.6494 130.319 75.3281 130.182 76.0654 130.182C76.7881 130.182 77.4595 130.319 78.0796 130.592C78.6997 130.861 79.2417 131.239 79.7056 131.728C80.1743 132.216 80.5381 132.79 80.7969 133.449C81.0557 134.103 81.1851 134.813 81.1851 135.58V135.749C81.1851 136.652 80.9849 137.487 80.5845 138.253C80.1841 139.015 79.6934 139.638 79.1123 140.121L81.4634 141.491L80.2622 143.219ZM76.0801 139.206C76.6318 139.206 77.0957 139.062 77.4717 138.773C77.8525 138.485 78.1406 138.083 78.3359 137.565C78.5312 137.047 78.6289 136.442 78.6289 135.749V135.565C78.6289 134.887 78.5264 134.291 78.3213 133.778C78.1211 133.261 77.8306 132.858 77.4497 132.57C77.0688 132.282 76.6074 132.138 76.0654 132.138C75.4893 132.138 75.0181 132.279 74.6519 132.562C74.2856 132.846 74.0146 133.244 73.8389 133.756C73.668 134.269 73.5825 134.872 73.5825 135.565V135.749C73.5825 136.442 73.6729 137.05 73.8535 137.572C74.0342 138.09 74.3101 138.493 74.6812 138.781C75.0522 139.064 75.5186 139.206 76.0801 139.206ZM81.6465 141V139.499L82.3936 139.389L85.5723 130.336H88.3555L91.5415 139.389L92.2886 139.499V141H88.3042V139.499L89 139.367L88.6777 138.209H85.25L84.9424 139.367L85.6382 139.499V141H81.6465ZM85.792 136.408H88.1284L87.0884 133.178L86.9712 132.804H86.9272L86.8027 133.214L85.792 136.408Z" fill="#444444"/>
<path d="M81.4972 36C71.3998 36 63.1504 43.5664 63.1504 52.8215C63.1504 56.9681 64.8156 60.7605 67.5525 63.6958C57.1377 68.4026 50 78.2144 50 89.5767V105.332C49.994 106.781 51.2711 107.961 52.8527 107.967H59.5985V117.365C59.5925 118.814 60.8696 119.994 62.4512 120H101.835C103.426 120.006 104.716 118.822 104.71 117.365V107.967H110.147C111.729 107.961 113.006 106.781 113 105.332V89.5767C113 78.2143 105.876 68.3897 95.4642 63.6804C98.192 60.7474 99.8496 56.9603 99.8496 52.8215C99.8496 43.5664 91.5946 36 81.4972 36ZM81.4972 41.25C88.499 41.25 94.1218 46.4037 94.1218 52.8215C94.1218 56.7442 92.0111 60.1717 88.78 62.2551C88.7054 62.2914 88.6326 62.3308 88.5618 62.3731C88.1751 62.6138 87.7641 62.8102 87.3536 63.0088C87.1752 63.0942 87.0057 63.1925 86.8222 63.2704C86.4681 63.4222 86.0987 63.5391 85.7315 63.66C85.3686 63.7776 85.0016 63.8852 84.624 63.9727C84.3223 64.0441 84.0193 64.1166 83.7122 64.1675C82.9916 64.283 82.2556 64.3674 81.4972 64.3674C80.7179 64.3674 79.9654 64.2841 79.2262 64.1624C78.9872 64.1227 78.7517 64.0661 78.5158 64.0137C77.9986 63.8997 77.4953 63.7579 77.0056 63.5881C76.7883 63.5127 76.5693 63.4438 76.3567 63.3575C75.7862 63.1257 75.2393 62.8559 74.7178 62.5525C74.6196 62.495 74.5124 62.4533 74.4158 62.3936C74.4028 62.3866 74.3897 62.3796 74.3766 62.3728C71.0509 60.3015 68.8782 56.8115 68.8782 52.8215C68.8782 46.4037 74.4953 41.25 81.4972 41.25ZM72.6706 67.5308C75.2947 68.8586 78.2997 69.6174 81.4972 69.6174C84.6947 69.6174 87.7053 68.8587 90.3294 67.5308C100.188 70.8327 107.272 79.3275 107.272 89.5767V102.717H104.71V84.5574C104.711 84.4701 104.708 84.3828 104.699 84.2958C104.547 82.9532 103.308 81.9354 101.835 81.9426H62.4512C62.3599 81.9385 62.2684 81.9385 62.1771 81.9426C61.0978 82.0432 60.1731 82.6943 59.7887 83.6242C59.7543 83.7066 59.7244 83.7903 59.6992 83.8754V83.8853C59.6744 83.9664 59.6538 84.0485 59.6376 84.1314C59.6217 84.218 59.6104 84.3053 59.604 84.3929C59.6003 84.4476 59.5984 84.5023 59.5984 84.557V102.717H55.7278V89.5763C55.7278 79.3273 62.8117 70.8329 72.6706 67.5308ZM65.3263 87.1978H98.9826C98.9826 96.3818 98.9826 105.566 98.9826 114.75H65.3263V105.332V87.1978ZM67.6923 102.871C52.9005 58.184 60.2964 80.5274 67.6923 102.871V102.871ZM91.3921 107.424C60.8005 59.7016 76.0963 83.5626 91.3921 107.424V107.424Z" fill="#444444"/>
<path d="M80.946 90.9987C78.8628 91.1063 76.8602 91.7941 75.1915 92.9751C73.5229 94.156 72.263 95.777 71.5713 97.6331C70.8795 99.4893 70.787 101.497 71.3054 103.403C71.8238 105.309 72.9299 107.027 74.4836 108.339C76.0374 109.652 77.9692 110.501 80.0346 110.779C82.1001 111.057 84.2065 110.751 86.0874 109.899C87.9683 109.048 89.5394 107.69 90.6018 105.997C91.6642 104.304 92.1703 102.351 92.0562 100.387C91.8998 97.7536 90.6423 95.2865 88.5595 93.5265C86.4767 91.7665 83.7387 90.8575 80.946 90.9987ZM81.9957 109.058C80.2912 109.146 78.5974 108.755 77.1283 107.936C75.6592 107.116 74.4808 105.904 73.7423 104.453C73.0037 103.001 72.7381 101.376 72.979 99.7826C73.2199 98.189 73.9565 96.6986 75.0956 95.4998C76.2348 94.301 77.7254 93.4476 79.3788 93.0476C81.0323 92.6477 82.7744 92.719 84.3848 93.2527C85.9953 93.7864 87.4017 94.7585 88.4264 96.0459C89.451 97.3334 90.0477 98.8785 90.1411 100.486C90.2638 102.64 89.4751 104.753 87.9481 106.36C86.421 107.967 84.2803 108.937 81.9957 109.058Z" fill="#444444"/>
<path d="M87.7509 97.2519L85.7309 95.545C85.5414 95.385 85.2924 95.3026 85.0385 95.3158C84.7846 95.329 84.5466 95.4368 84.377 95.6155L79.5865 100.657L78.2806 99.5532C78.0911 99.3933 77.842 99.3109 77.5881 99.3241C77.3342 99.3373 77.0963 99.4451 76.9266 99.6237L75.1165 101.529C74.9468 101.707 74.8593 101.942 74.8733 102.181C74.8872 102.421 75.0014 102.645 75.1907 102.805L79.2308 106.219C79.4203 106.379 79.6693 106.462 79.9232 106.448C80.1771 106.435 80.4151 106.327 80.5847 106.149L87.8251 98.5292C87.9949 98.3506 88.0824 98.1158 88.0686 97.8764C88.0548 97.6369 87.9402 97.412 87.7509 97.2519ZM79.7965 104.268L77.1846 102.061L77.7149 101.503L79.0209 102.606C79.2103 102.766 79.4594 102.849 79.7133 102.836C79.9672 102.822 80.2052 102.715 80.3748 102.536L85.1653 97.4946L85.7571 97.9947L79.7965 104.268Z" fill="#444444"/>
</svg>
