<svg width="450" height="512" viewBox="0 0 450 512" fill="none" xmlns="http://www.w3.org/2000/svg">
<g clip-path="url(#clip0_1_412)">
<path d="M212.66 3.35209C220.296 -1.11736 229.704 -1.11737 237.34 3.35209L434.66 118.842C442.296 123.311 447 131.571 447 140.51V371.49C447 380.429 442.296 388.689 434.66 393.158L237.34 508.648C229.704 513.117 220.296 513.117 212.66 508.648L15.3404 393.158C7.70413 388.689 3 380.429 3 371.49V140.51C3 131.571 7.70413 123.311 15.3404 118.842L212.66 3.35209Z" fill="#00C2FF"/>
<path d="M214.68 6.80426C221.068 3.06525 228.932 3.06525 235.32 6.80426L432.639 122.294C439.034 126.037 443 132.974 443 140.51V371.49C443 379.026 439.034 385.963 432.639 389.706L235.32 505.196C228.932 508.935 221.068 508.935 214.68 505.196L17.3609 389.706C10.9662 385.963 7 379.026 7 371.49V140.51C7 132.974 10.9662 126.037 17.3609 122.294L214.68 6.80426Z" stroke="black" stroke-opacity="0.5" stroke-width="8"/>
<path d="M407 146C407 141.582 410.582 138 415 138C419.418 138 423 141.582 423 146V174.8H407V146Z" fill="black" fill-opacity="0.15"/>
<rect x="407" y="176.8" width="16" height="36.8" fill="black" fill-opacity="0.15"/>
<rect x="407" y="215.6" width="16" height="36.8" fill="white" fill-opacity="0.75"/>
<rect x="407" y="254.4" width="16" height="36.8" fill="white" fill-opacity="0.75"/>
<path d="M407 293.2H423V322C423 326.418 419.418 330 415 330C410.582 330 407 326.418 407 322V293.2Z" fill="white" fill-opacity="0.75"/>
<path d="M28 146C28 141.582 31.5817 138 36 138C40.4183 138 44 141.582 44 146V174.8H28V146Z" fill="black" fill-opacity="0.15"/>
<rect x="28" y="176.8" width="16" height="36.8" fill="black" fill-opacity="0.15"/>
<rect x="28" y="215.6" width="16" height="36.8" fill="white" fill-opacity="0.75"/>
<rect x="28" y="254.4" width="16" height="36.8" fill="white" fill-opacity="0.75"/>
<path d="M28 293.2H44V322C44 326.418 40.4183 330 36 330C31.5817 330 28 326.418 28 322V293.2Z" fill="white" fill-opacity="0.75"/>
<path d="M40.588 363.76L38 362.008V359.992L40.588 358.24C42.716 356.801 44 354.325 44 351.665V349H28V351.665C28 354.325 29.284 356.801 31.412 358.24L34 359.992V362.008L31.412 363.76C29.284 365.199 28 367.675 28 370.335V373H44V370.335C44 367.675 42.716 365.199 40.588 363.76Z" fill="white" fill-opacity="0.75"/>
<path fill-rule="evenodd" clip-rule="evenodd" d="M423.788 358.193L426.539 357.7L427 360.356L424.266 360.845C424.268 360.892 424.274 360.936 424.281 360.981C424.288 361.032 424.295 361.083 424.295 361.135C424.292 362.334 424.062 363.521 423.619 364.631L426.014 366.035L424.686 368.371L422.268 366.953C421.481 367.965 420.498 368.802 419.38 369.412L420.335 372.078L417.84 373L416.899 370.374C415.646 370.641 414.354 370.641 413.101 370.374L412.16 373L409.665 372.078L410.62 369.412C409.502 368.802 408.519 367.965 407.732 366.953L405.314 368.371L403.986 366.035L406.381 364.631C405.938 363.521 405.708 362.334 405.705 361.135C405.705 361.083 405.712 361.032 405.719 360.982C405.726 360.937 405.732 360.892 405.734 360.846L403 360.356L403.461 357.7L406.212 358.193C406.607 356.967 407.247 355.837 408.092 354.874L406.301 352.706L408.335 350.973L410.121 353.134C411.204 352.455 412.413 352.012 413.672 351.833V349H416.328V351.833C417.588 352.012 418.797 352.455 419.879 353.134L421.665 350.972L423.699 352.706L421.908 354.874C422.753 355.837 423.393 356.967 423.788 358.193ZM415.185 363C416.289 363 417.185 362.105 417.185 361C417.185 359.895 416.289 359 415.185 359C414.08 359 413.185 359.895 413.185 361C413.185 362.105 414.08 363 415.185 363Z" fill="white" fill-opacity="0.75"/>
<rect x="82" y="128" width="286" height="4" rx="2" fill="white" fill-opacity="0.3"/>
<rect x="82" y="380" width="286" height="4" rx="2" fill="white" fill-opacity="0.3"/>
<path d="M140.426 192.902H134.438L133.398 187.434C132.706 186.996 131.694 186.613 130.363 186.285C129.033 185.957 127.62 185.793 126.125 185.793C123.938 185.793 122.242 186.258 121.039 187.188C119.854 188.099 119.262 189.284 119.262 190.742C119.262 192.091 119.882 193.203 121.121 194.078C122.379 194.935 124.539 195.846 127.602 196.812C131.995 198.034 135.322 199.647 137.582 201.652C139.861 203.658 141 206.292 141 209.555C141 212.964 139.651 215.652 136.953 217.621C134.255 219.59 130.701 220.574 126.289 220.574C123.135 220.574 120.283 220.073 117.73 219.07C115.197 218.068 113.082 216.682 111.387 214.914V206.602H117.566L118.414 212.262C119.216 212.918 120.301 213.465 121.668 213.902C123.053 214.322 124.594 214.531 126.289 214.531C128.477 214.531 130.135 214.085 131.266 213.191C132.414 212.298 132.988 211.104 132.988 209.609C132.988 208.078 132.441 206.848 131.348 205.918C130.272 204.988 128.376 204.113 125.66 203.293C120.939 201.926 117.366 200.303 114.941 198.426C112.517 196.548 111.305 193.978 111.305 190.715C111.305 187.488 112.672 184.854 115.406 182.812C118.141 180.753 121.577 179.695 125.715 179.641C128.777 179.641 131.566 180.105 134.082 181.035C136.598 181.965 138.712 183.204 140.426 184.754V192.902ZM158.227 214.449C159.648 214.449 160.788 214.039 161.645 213.219C162.501 212.38 162.93 211.268 162.93 209.883H170.148L170.23 210.047C170.303 213.036 169.182 215.543 166.867 217.566C164.552 219.572 161.672 220.574 158.227 220.574C153.815 220.574 150.415 219.18 148.027 216.391C145.639 213.602 144.445 210.02 144.445 205.645V204.824C144.445 200.467 145.667 196.885 148.109 194.078C150.57 191.271 154.07 189.867 158.609 189.867C160.997 189.867 163.139 190.223 165.035 190.934C166.931 191.645 168.508 192.647 169.766 193.941L169.875 201.844H163.395L162.082 197.223C161.681 196.876 161.189 196.594 160.605 196.375C160.022 196.138 159.357 196.02 158.609 196.02C156.349 196.02 154.754 196.84 153.824 198.48C152.895 200.121 152.43 202.236 152.43 204.824V205.645C152.43 208.288 152.858 210.421 153.715 212.043C154.572 213.647 156.076 214.449 158.227 214.449ZM188.031 220.574C183.766 220.574 180.357 219.207 177.805 216.473C175.253 213.738 173.977 210.266 173.977 206.055V204.961C173.977 200.568 175.18 196.949 177.586 194.105C180.01 191.262 183.255 189.849 187.32 189.867C191.312 189.867 194.411 191.07 196.617 193.477C198.823 195.883 199.926 199.137 199.926 203.238V207.586H182.262L182.207 207.75C182.353 209.701 183 211.305 184.148 212.562C185.315 213.82 186.892 214.449 188.879 214.449C190.647 214.449 192.115 214.276 193.281 213.93C194.448 213.565 195.724 213 197.109 212.234L199.27 217.156C198.048 218.122 196.462 218.934 194.512 219.59C192.579 220.246 190.419 220.574 188.031 220.574ZM187.32 196.02C185.844 196.02 184.677 196.585 183.82 197.715C182.964 198.845 182.435 200.331 182.234 202.172L182.316 202.309H192.105V201.598C192.105 199.902 191.704 198.553 190.902 197.551C190.118 196.53 188.924 196.02 187.32 196.02ZM203.289 215.215L207.117 214.395V196.047L202.879 195.227V190.414H214.555L214.91 194.652C215.895 193.139 217.107 191.964 218.547 191.125C219.987 190.286 221.6 189.867 223.387 189.867C226.376 189.867 228.71 190.806 230.387 192.684C232.064 194.561 232.902 197.505 232.902 201.516V214.395L236.73 215.215V220H221.473V215.215L224.891 214.395V201.543C224.891 199.556 224.49 198.152 223.688 197.332C222.885 196.493 221.673 196.074 220.051 196.074C218.993 196.074 218.046 196.293 217.207 196.73C216.368 197.15 215.667 197.751 215.102 198.535V214.395L218.328 215.215V220H203.289V215.215ZM258.113 220C257.895 219.508 257.703 219.007 257.539 218.496C257.375 217.967 257.247 217.439 257.156 216.91C256.208 218.004 255.051 218.888 253.684 219.562C252.335 220.237 250.785 220.574 249.035 220.574C246.137 220.574 243.831 219.79 242.117 218.223C240.422 216.637 239.574 214.486 239.574 211.77C239.574 208.999 240.686 206.857 242.91 205.344C245.134 203.831 248.397 203.074 252.699 203.074H256.773V200.176C256.773 198.754 256.363 197.651 255.543 196.867C254.723 196.083 253.51 195.691 251.906 195.691C250.995 195.691 250.184 195.801 249.473 196.02C248.762 196.22 248.188 196.466 247.75 196.758L247.23 199.93H241.215L241.242 193.367C242.701 192.383 244.368 191.553 246.246 190.879C248.142 190.204 250.202 189.867 252.426 189.867C256.09 189.867 259.061 190.77 261.34 192.574C263.637 194.361 264.785 196.913 264.785 200.23V212.453C264.785 212.909 264.785 213.337 264.785 213.738C264.803 214.139 264.84 214.522 264.895 214.887L267.328 215.215V220H258.113ZM251.195 214.668C252.398 214.668 253.492 214.413 254.477 213.902C255.461 213.374 256.227 212.717 256.773 211.934V207.422H252.699C251.004 207.422 249.719 207.823 248.844 208.625C247.969 209.409 247.531 210.357 247.531 211.469C247.531 212.471 247.85 213.255 248.488 213.82C249.145 214.385 250.047 214.668 251.195 214.668ZM270.664 215.215L274.492 214.395V196.047L270.254 195.227V190.414H281.93L282.285 194.734C282.978 193.203 283.871 192.009 284.965 191.152C286.059 190.296 287.326 189.867 288.766 189.867C289.185 189.867 289.622 189.904 290.078 189.977C290.552 190.031 290.944 190.104 291.254 190.195L290.406 197.469L287.125 197.387C285.958 197.387 284.992 197.615 284.227 198.07C283.461 198.526 282.878 199.173 282.477 200.012V214.395L286.305 215.215V220H270.664V215.215ZM293.387 215.215L297.242 214.395V196.047L292.977 195.227V190.414H305.227V214.395L309.055 215.215V220H293.387V215.215ZM305.227 183.332H297.242V177.344H305.227V183.332ZM311.68 204.934C311.68 200.522 312.91 196.913 315.371 194.105C317.85 191.28 321.268 189.867 325.625 189.867C330 189.867 333.418 191.271 335.879 194.078C338.358 196.885 339.598 200.504 339.598 204.934V205.508C339.598 209.956 338.358 213.583 335.879 216.391C333.418 219.18 330.018 220.574 325.68 220.574C321.286 220.574 317.85 219.18 315.371 216.391C312.91 213.583 311.68 209.956 311.68 205.508V204.934ZM319.664 205.508C319.664 208.206 320.138 210.375 321.086 212.016C322.034 213.638 323.565 214.449 325.68 214.449C327.74 214.449 329.243 213.629 330.191 211.988C331.158 210.348 331.641 208.188 331.641 205.508V204.934C331.641 202.309 331.158 200.167 330.191 198.508C329.225 196.849 327.703 196.02 325.625 196.02C323.547 196.02 322.034 196.849 321.086 198.508C320.138 200.167 319.664 202.309 319.664 204.934V205.508ZM177.531 241L174.25 241.41L166.184 276H158.773L151.473 249.723H151.309L144.008 276H136.598L128.477 241.41L125.223 241V236.188H139.879V241L136.242 241.629L140.809 263.449L140.973 263.477L148.438 236.188H154.316L161.836 263.477L162 263.449L166.539 241.629L162.902 241V236.188H177.531V241ZM180.074 271.215L183.902 270.395V252.047L179.664 251.227V246.414H191.34L191.695 250.734C192.388 249.203 193.281 248.009 194.375 247.152C195.469 246.296 196.736 245.867 198.176 245.867C198.595 245.867 199.033 245.904 199.488 245.977C199.962 246.031 200.354 246.104 200.664 246.195L199.816 253.469L196.535 253.387C195.368 253.387 194.402 253.615 193.637 254.07C192.871 254.526 192.288 255.173 191.887 256.012V270.395L195.715 271.215V276H180.074V271.215ZM202.797 271.215L206.652 270.395V252.047L202.387 251.227V246.414H214.637V270.395L218.465 271.215V276H202.797V271.215ZM214.637 239.332H206.652V233.344H214.637V239.332ZM232.875 239.168V246.414H238.07V252.02H232.875V267.086C232.875 268.234 233.112 269.055 233.586 269.547C234.06 270.039 234.698 270.285 235.5 270.285C236.047 270.285 236.521 270.267 236.922 270.23C237.341 270.176 237.806 270.094 238.316 269.984L239 275.754C238.107 276.027 237.223 276.228 236.348 276.355C235.473 276.501 234.525 276.574 233.504 276.574C230.751 276.574 228.628 275.818 227.133 274.305C225.656 272.792 224.918 270.395 224.918 267.113V252.02H220.57V246.414H224.918V239.168H232.875ZM241.734 271.215L245.59 270.395V252.047L241.324 251.227V246.414H253.574V270.395L257.402 271.215V276H241.734V271.215ZM253.574 239.332H245.59V233.344H253.574V239.332ZM259.59 271.215L263.418 270.395V252.047L259.18 251.227V246.414H270.855L271.211 250.652C272.195 249.139 273.408 247.964 274.848 247.125C276.288 246.286 277.901 245.867 279.688 245.867C282.677 245.867 285.01 246.806 286.688 248.684C288.365 250.561 289.203 253.505 289.203 257.516V270.395L293.031 271.215V276H277.773V271.215L281.191 270.395V257.543C281.191 255.556 280.79 254.152 279.988 253.332C279.186 252.493 277.974 252.074 276.352 252.074C275.294 252.074 274.346 252.293 273.508 252.73C272.669 253.15 271.967 253.751 271.402 254.535V270.395L274.629 271.215V276H259.59V271.215ZM295.793 261.453C295.793 256.786 296.805 253.022 298.828 250.16C300.87 247.298 303.723 245.867 307.387 245.867C309.046 245.867 310.504 246.241 311.762 246.988C313.02 247.717 314.095 248.766 314.988 250.133L315.562 246.414H322.508V275.125C322.508 279.026 321.277 282.134 318.816 284.449C316.374 286.783 313.01 287.949 308.727 287.949C307.232 287.949 305.646 287.74 303.969 287.32C302.292 286.919 300.742 286.363 299.32 285.652L300.797 280.047C302.073 280.594 303.349 281.022 304.625 281.332C305.901 281.66 307.25 281.824 308.672 281.824C310.622 281.824 312.081 281.232 313.047 280.047C314.013 278.862 314.496 277.212 314.496 275.098V273.156C313.621 274.268 312.591 275.116 311.406 275.699C310.221 276.283 308.863 276.574 307.332 276.574C303.704 276.574 300.87 275.243 298.828 272.582C296.805 269.902 295.793 266.384 295.793 262.027V261.453ZM303.777 262.027C303.777 264.616 304.215 266.658 305.09 268.152C305.965 269.629 307.387 270.367 309.355 270.367C310.577 270.367 311.607 270.148 312.445 269.711C313.302 269.255 313.986 268.599 314.496 267.742V254.891C313.986 253.997 313.302 253.305 312.445 252.812C311.607 252.32 310.595 252.074 309.41 252.074C307.46 252.074 306.029 252.94 305.117 254.672C304.224 256.404 303.777 258.664 303.777 261.453V262.027ZM142.969 297L139.688 297.41L131.621 332H124.211L116.91 305.723H116.746L109.445 332H102.035L93.9141 297.41L90.6602 297V292.188H105.316V297L101.68 297.629L106.246 319.449L106.41 319.477L113.875 292.188H119.754L127.273 319.477L127.438 319.449L131.977 297.629L128.34 297V292.188H142.969V297ZM144.637 316.934C144.637 312.522 145.867 308.913 148.328 306.105C150.807 303.28 154.225 301.867 158.582 301.867C162.957 301.867 166.375 303.271 168.836 306.078C171.315 308.885 172.555 312.504 172.555 316.934V317.508C172.555 321.956 171.315 325.583 168.836 328.391C166.375 331.18 162.975 332.574 158.637 332.574C154.243 332.574 150.807 331.18 148.328 328.391C145.867 325.583 144.637 321.956 144.637 317.508V316.934ZM152.621 317.508C152.621 320.206 153.095 322.375 154.043 324.016C154.991 325.638 156.522 326.449 158.637 326.449C160.697 326.449 162.201 325.629 163.148 323.988C164.115 322.348 164.598 320.188 164.598 317.508V316.934C164.598 314.309 164.115 312.167 163.148 310.508C162.182 308.849 160.66 308.02 158.582 308.02C156.504 308.02 154.991 308.849 154.043 310.508C153.095 312.167 152.621 314.309 152.621 316.934V317.508ZM176.629 327.215L180.457 326.395V308.047L176.219 307.227V302.414H187.895L188.25 306.734C188.943 305.203 189.836 304.009 190.93 303.152C192.023 302.296 193.29 301.867 194.73 301.867C195.15 301.867 195.587 301.904 196.043 301.977C196.517 302.031 196.909 302.104 197.219 302.195L196.371 309.469L193.09 309.387C191.923 309.387 190.957 309.615 190.191 310.07C189.426 310.526 188.842 311.173 188.441 312.012V326.395L192.27 327.215V332H176.629V327.215ZM197.383 294.156V289.344H209.605V314.062H211.383L215.977 307.582L213.379 307.227V302.414H227.926V307.227L224.426 308.02L219.094 315.348L226.559 326.586L229.594 327.215V332H215.922V327.215L217.562 326.941L213.023 319.613H209.605V326.395L213.051 327.215V332H197.793V327.215L201.648 326.395V294.977L197.383 294.156ZM256.555 312.586H251.195L250.348 308.895C249.801 308.457 249.108 308.092 248.27 307.801C247.449 307.509 246.538 307.363 245.535 307.363C244.132 307.363 243.02 307.682 242.199 308.32C241.379 308.94 240.969 309.724 240.969 310.672C240.969 311.565 241.361 312.312 242.145 312.914C242.928 313.497 244.496 314.017 246.848 314.473C250.512 315.202 253.228 316.277 254.996 317.699C256.764 319.103 257.648 321.044 257.648 323.523C257.648 326.185 256.5 328.363 254.203 330.059C251.924 331.736 248.917 332.574 245.18 332.574C242.901 332.574 240.805 332.246 238.891 331.59C236.995 330.915 235.309 329.958 233.832 328.719L233.75 322.074H239.328L240.422 325.93C240.896 326.331 241.543 326.632 242.363 326.832C243.184 327.014 244.04 327.105 244.934 327.105C246.556 327.105 247.786 326.814 248.625 326.23C249.482 325.647 249.91 324.854 249.91 323.852C249.91 322.977 249.482 322.22 248.625 321.582C247.768 320.944 246.191 320.379 243.895 319.887C240.413 319.176 237.779 318.128 235.992 316.742C234.224 315.339 233.34 313.434 233.34 311.027C233.34 308.548 234.361 306.415 236.402 304.629C238.444 302.824 241.352 301.922 245.125 301.922C247.422 301.922 249.591 302.232 251.633 302.852C253.693 303.471 255.306 304.264 256.473 305.23L256.555 312.586ZM260.793 327.215L264.648 326.395V294.977L260.383 294.156V289.344H272.605V306.188C273.535 304.82 274.674 303.763 276.023 303.016C277.372 302.25 278.867 301.867 280.508 301.867C283.607 301.867 286.031 302.897 287.781 304.957C289.549 306.999 290.434 310.161 290.434 314.445V326.395L294.262 327.215V332H279.004V327.215L282.449 326.395V314.391C282.449 312.094 282.039 310.471 281.219 309.523C280.417 308.557 279.214 308.074 277.609 308.074C276.497 308.074 275.522 308.275 274.684 308.676C273.863 309.077 273.171 309.642 272.605 310.371V326.395L276.051 327.215V332H260.793V327.215ZM296.559 316.934C296.559 312.522 297.789 308.913 300.25 306.105C302.729 303.28 306.147 301.867 310.504 301.867C314.879 301.867 318.297 303.271 320.758 306.078C323.237 308.885 324.477 312.504 324.477 316.934V317.508C324.477 321.956 323.237 325.583 320.758 328.391C318.297 331.18 314.897 332.574 310.559 332.574C306.165 332.574 302.729 331.18 300.25 328.391C297.789 325.583 296.559 321.956 296.559 317.508V316.934ZM304.543 317.508C304.543 320.206 305.017 322.375 305.965 324.016C306.913 325.638 308.444 326.449 310.559 326.449C312.618 326.449 314.122 325.629 315.07 323.988C316.036 322.348 316.52 320.188 316.52 317.508V316.934C316.52 314.309 316.036 312.167 315.07 310.508C314.104 308.849 312.582 308.02 310.504 308.02C308.426 308.02 306.913 308.849 305.965 310.508C305.017 312.167 304.543 314.309 304.543 316.934V317.508ZM327.348 307.227V302.414H338.941L339.324 305.859C340.199 304.583 341.247 303.599 342.469 302.906C343.69 302.214 345.112 301.867 346.734 301.867C350.398 301.867 353.242 303.298 355.266 306.16C357.289 309.022 358.301 312.786 358.301 317.453V318.027C358.301 322.402 357.289 325.921 355.266 328.582C353.242 331.243 350.417 332.574 346.789 332.574C345.24 332.574 343.863 332.292 342.66 331.727C341.457 331.143 340.427 330.296 339.57 329.184V337.742L343.426 338.562V343.375H327.758V338.562L331.613 337.742V308.047L327.348 307.227ZM350.316 317.453C350.316 314.664 349.852 312.404 348.922 310.672C347.992 308.94 346.57 308.074 344.656 308.074C343.453 308.074 342.423 308.32 341.566 308.812C340.728 309.305 340.062 310.007 339.57 310.918V323.879C340.062 324.717 340.728 325.355 341.566 325.793C342.423 326.23 343.471 326.449 344.711 326.449C346.643 326.449 348.056 325.693 348.949 324.18C349.861 322.667 350.316 320.616 350.316 318.027V317.453Z" fill="white"/>
<path d="M149.688 107V103.797L152.047 103.297V87.9688L149.688 87.4688V84.25H152.047H160.75C162.562 84.25 164.135 84.5677 165.469 85.2031C166.802 85.8385 167.828 86.724 168.547 87.8594C169.276 88.9844 169.641 90.2969 169.641 91.7969C169.641 93.2969 169.276 94.6094 168.547 95.7344C167.828 96.8594 166.802 97.7344 165.469 98.3594C164.135 98.9844 162.562 99.2969 160.75 99.2969H157.531V103.297L159.891 103.797V107H149.688ZM157.531 95.0938H160.75C161.865 95.0938 162.708 94.7917 163.281 94.1875C163.865 93.5729 164.156 92.7865 164.156 91.8281C164.156 90.8385 163.865 90.026 163.281 89.3906C162.708 88.7552 161.865 88.4375 160.75 88.4375H157.531V95.0938ZM170.656 107V103.797L173.016 103.297V87.9688L170.656 87.4688V84.2344H181.844C183.646 84.2344 185.208 84.5208 186.531 85.0938C187.854 85.6667 188.875 86.4844 189.594 87.5469C190.312 88.599 190.672 89.849 190.672 91.2969C190.672 92.6302 190.307 93.8698 189.578 95.0156C188.859 96.1615 187.87 97.0833 186.609 97.7812C185.349 98.4688 183.911 98.8073 182.297 98.7969L178.5 98.75V103.297L180.859 103.797V107H170.656ZM185.062 107L182 98.125L186.766 96.5L189.531 103.266L191.688 103.812V107H185.062ZM178.5 94.5469H181.906C182.969 94.5469 183.786 94.3021 184.359 93.8125C184.932 93.3125 185.219 92.5938 185.219 91.6562C185.219 90.6875 184.927 89.9115 184.344 89.3281C183.76 88.7344 182.927 88.4375 181.844 88.4375H178.5V94.5469ZM204.016 107.328C202.443 107.328 200.995 107.042 199.672 106.469C198.359 105.885 197.219 105.073 196.25 104.031C195.281 102.99 194.531 101.771 194 100.375C193.479 98.9688 193.219 97.4427 193.219 95.7969V95.4375C193.219 93.8021 193.479 92.2865 194 90.8906C194.531 89.4948 195.276 88.276 196.234 87.2344C197.203 86.1927 198.344 85.3802 199.656 84.7969C200.969 84.2135 202.411 83.9219 203.984 83.9219C205.526 83.9219 206.958 84.2135 208.281 84.7969C209.604 85.3802 210.76 86.1927 211.75 87.2344C212.75 88.276 213.526 89.4948 214.078 90.8906C214.63 92.2865 214.906 93.8021 214.906 95.4375V95.7969C214.906 97.4427 214.63 98.9688 214.078 100.375C213.526 101.771 212.755 102.99 211.766 104.031C210.776 105.073 209.62 105.885 208.297 106.469C206.974 107.042 205.547 107.328 204.016 107.328ZM204.016 103.172C205.161 103.172 206.141 102.865 206.953 102.25C207.766 101.635 208.385 100.776 208.812 99.6719C209.24 98.5677 209.453 97.276 209.453 95.7969V95.4062C209.453 93.9583 209.234 92.6875 208.797 91.5938C208.37 90.4896 207.75 89.6302 206.938 89.0156C206.125 88.401 205.141 88.0938 203.984 88.0938C202.766 88.0938 201.766 88.3958 200.984 89C200.214 89.6042 199.641 90.4531 199.266 91.5469C198.891 92.6406 198.703 93.9271 198.703 95.4062V95.7969C198.703 97.276 198.891 98.5729 199.266 99.6875C199.651 100.792 200.234 101.651 201.016 102.266C201.807 102.87 202.807 103.172 204.016 103.172ZM227.578 107.328C225.411 107.328 223.479 106.891 221.781 106.016C220.083 105.141 218.75 103.875 217.781 102.219C216.812 100.552 216.328 98.5312 216.328 96.1562V95.1094C216.328 92.9219 216.771 90.9896 217.656 89.3125C218.552 87.625 219.823 86.3073 221.469 85.3594C223.125 84.401 225.089 83.9219 227.359 83.9219C228.943 83.9219 230.448 84.1354 231.875 84.5625C233.312 84.9792 234.646 85.6979 235.875 86.7188V92.5781H231.891L231.344 89.2188C230.99 88.9792 230.615 88.7708 230.219 88.5938C229.833 88.4167 229.417 88.2812 228.969 88.1875C228.531 88.0938 228.057 88.0469 227.547 88.0469C226.391 88.0469 225.38 88.3229 224.516 88.875C223.651 89.4271 222.979 90.2292 222.5 91.2812C222.031 92.3229 221.797 93.5885 221.797 95.0781V96.1562C221.797 97.5521 222.042 98.7812 222.531 99.8438C223.021 100.896 223.703 101.719 224.578 102.312C225.464 102.906 226.484 103.203 227.641 103.203C228.255 103.203 228.88 103.141 229.516 103.016C230.151 102.88 230.766 102.703 231.359 102.484L231.906 99.2656H235.906V105C235 105.625 233.844 106.172 232.438 106.641C231.031 107.099 229.411 107.328 227.578 107.328ZM237.344 107V103.797L239.703 103.297V87.9688L237.344 87.4688V84.25H255.516V90.8125H251.375L251.25 88.4688H245.188V93.1406H252.453V97.3438H245.188V102.766H251.547L251.672 100.312H255.766V107H237.344ZM267.766 107.328C265.911 107.328 264.266 107.151 262.828 106.797C261.391 106.443 259.958 105.776 258.531 104.797V98.8906H262.766L263.234 101.922C263.568 102.297 264.156 102.615 265 102.875C265.844 103.125 266.766 103.25 267.766 103.25C268.464 103.25 269.047 103.167 269.516 103C269.984 102.823 270.339 102.568 270.578 102.234C270.818 101.901 270.938 101.5 270.938 101.031C270.938 100.583 270.823 100.182 270.594 99.8281C270.375 99.474 270.01 99.1406 269.5 98.8281C268.99 98.5052 268.302 98.1771 267.438 97.8438C265.49 97.2188 263.891 96.5833 262.641 95.9375C261.391 95.2917 260.458 94.526 259.844 93.6406C259.24 92.7552 258.938 91.6562 258.938 90.3438C258.938 89.0833 259.297 87.9844 260.016 87.0469C260.734 86.099 261.724 85.3542 262.984 84.8125C264.245 84.2708 265.688 83.9844 267.312 83.9531C269.167 83.9115 270.807 84.099 272.234 84.5156C273.661 84.9219 274.922 85.5417 276.016 86.375V91.8594H271.953L271.312 88.8125C270.958 88.6354 270.453 88.474 269.797 88.3281C269.141 88.1823 268.443 88.1094 267.703 88.1094C267.068 88.1094 266.5 88.1927 266 88.3594C265.51 88.526 265.12 88.776 264.828 89.1094C264.547 89.4427 264.406 89.8594 264.406 90.3594C264.406 90.7656 264.526 91.1302 264.766 91.4531C265.005 91.7656 265.427 92.0833 266.031 92.4062C266.635 92.7188 267.479 93.0833 268.562 93.5C271.146 94.2604 273.104 95.2135 274.438 96.3594C275.781 97.4948 276.453 99.0417 276.453 101C276.453 102.344 276.089 103.49 275.359 104.438C274.63 105.375 273.615 106.094 272.312 106.594C271.01 107.083 269.495 107.328 267.766 107.328ZM287.641 107.328C285.786 107.328 284.141 107.151 282.703 106.797C281.266 106.443 279.833 105.776 278.406 104.797V98.8906H282.641L283.109 101.922C283.443 102.297 284.031 102.615 284.875 102.875C285.719 103.125 286.641 103.25 287.641 103.25C288.339 103.25 288.922 103.167 289.391 103C289.859 102.823 290.214 102.568 290.453 102.234C290.693 101.901 290.812 101.5 290.812 101.031C290.812 100.583 290.698 100.182 290.469 99.8281C290.25 99.474 289.885 99.1406 289.375 98.8281C288.865 98.5052 288.177 98.1771 287.312 97.8438C285.365 97.2188 283.766 96.5833 282.516 95.9375C281.266 95.2917 280.333 94.526 279.719 93.6406C279.115 92.7552 278.812 91.6562 278.812 90.3438C278.812 89.0833 279.172 87.9844 279.891 87.0469C280.609 86.099 281.599 85.3542 282.859 84.8125C284.12 84.2708 285.562 83.9844 287.188 83.9531C289.042 83.9115 290.682 84.099 292.109 84.5156C293.536 84.9219 294.797 85.5417 295.891 86.375V91.8594H291.828L291.188 88.8125C290.833 88.6354 290.328 88.474 289.672 88.3281C289.016 88.1823 288.318 88.1094 287.578 88.1094C286.943 88.1094 286.375 88.1927 285.875 88.3594C285.385 88.526 284.995 88.776 284.703 89.1094C284.422 89.4427 284.281 89.8594 284.281 90.3594C284.281 90.7656 284.401 91.1302 284.641 91.4531C284.88 91.7656 285.302 92.0833 285.906 92.4062C286.51 92.7188 287.354 93.0833 288.438 93.5C291.021 94.2604 292.979 95.2135 294.312 96.3594C295.656 97.4948 296.328 99.0417 296.328 101C296.328 102.344 295.964 103.49 295.234 104.438C294.505 105.375 293.49 106.094 292.188 106.594C290.885 107.083 289.37 107.328 287.641 107.328Z" fill="black" fill-opacity="0.3"/>
</g>
<defs>
<clipPath id="clip0_1_412">
<rect width="450" height="512" fill="white"/>
</clipPath>
</defs>
</svg>
