<svg width="450" height="512" viewBox="0 0 450 512" fill="none" xmlns="http://www.w3.org/2000/svg">
<g clip-path="url(#clip0_1_298)">
<path d="M212.66 3.35209C220.296 -1.11736 229.704 -1.11737 237.34 3.35209L434.66 118.842C442.296 123.311 447 131.571 447 140.51V371.49C447 380.429 442.296 388.689 434.66 393.158L237.34 508.648C229.704 513.117 220.296 513.117 212.66 508.648L15.3404 393.158C7.70413 388.689 3 380.429 3 371.49V140.51C3 131.571 7.70413 123.311 15.3404 118.842L212.66 3.35209Z" fill="#00C2FF"/>
<path d="M214.68 6.80426C221.068 3.06525 228.932 3.06525 235.32 6.80426L432.639 122.294C439.034 126.037 443 132.974 443 140.51V371.49C443 379.026 439.034 385.963 432.639 389.706L235.32 505.196C228.932 508.935 221.068 508.935 214.68 505.196L17.3609 389.706C10.9662 385.963 7 379.026 7 371.49V140.51C7 132.974 10.9662 126.037 17.3609 122.294L214.68 6.80426Z" stroke="black" stroke-opacity="0.5" stroke-width="8"/>
<path d="M407 146C407 141.582 410.582 138 415 138C419.418 138 423 141.582 423 146V174.8H407V146Z" fill="black" fill-opacity="0.15"/>
<rect x="407" y="176.8" width="16" height="36.8" fill="black" fill-opacity="0.15"/>
<rect x="407" y="215.6" width="16" height="36.8" fill="white" fill-opacity="0.75"/>
<rect x="407" y="254.4" width="16" height="36.8" fill="white" fill-opacity="0.75"/>
<path d="M407 293.2H423V322C423 326.418 419.418 330 415 330C410.582 330 407 326.418 407 322V293.2Z" fill="white" fill-opacity="0.75"/>
<path d="M28 146C28 141.582 31.5817 138 36 138C40.4183 138 44 141.582 44 146V174.8H28V146Z" fill="black" fill-opacity="0.15"/>
<rect x="28" y="176.8" width="16" height="36.8" fill="black" fill-opacity="0.15"/>
<rect x="28" y="215.6" width="16" height="36.8" fill="white" fill-opacity="0.75"/>
<rect x="28" y="254.4" width="16" height="36.8" fill="white" fill-opacity="0.75"/>
<path d="M28 293.2H44V322C44 326.418 40.4183 330 36 330C31.5817 330 28 326.418 28 322V293.2Z" fill="white" fill-opacity="0.75"/>
<path d="M40.588 363.76L38 362.008V359.992L40.588 358.24C42.716 356.801 44 354.325 44 351.665V349H28V351.665C28 354.325 29.284 356.801 31.412 358.24L34 359.992V362.008L31.412 363.76C29.284 365.199 28 367.675 28 370.335V373H44V370.335C44 367.675 42.716 365.199 40.588 363.76Z" fill="white" fill-opacity="0.75"/>
<path fill-rule="evenodd" clip-rule="evenodd" d="M423.788 358.193L426.539 357.7L427 360.356L424.266 360.845C424.268 360.892 424.274 360.936 424.281 360.981C424.288 361.032 424.295 361.083 424.295 361.135C424.292 362.334 424.062 363.521 423.619 364.631L426.014 366.035L424.686 368.371L422.268 366.953C421.481 367.965 420.498 368.802 419.38 369.412L420.335 372.078L417.84 373L416.899 370.374C415.646 370.641 414.354 370.641 413.101 370.374L412.16 373L409.665 372.078L410.62 369.412C409.502 368.802 408.519 367.965 407.732 366.953L405.314 368.371L403.986 366.035L406.381 364.631C405.938 363.521 405.708 362.334 405.705 361.135C405.705 361.083 405.712 361.032 405.719 360.982C405.726 360.937 405.732 360.892 405.734 360.846L403 360.356L403.461 357.7L406.212 358.193C406.607 356.967 407.247 355.837 408.092 354.874L406.301 352.706L408.335 350.973L410.121 353.134C411.204 352.455 412.413 352.012 413.672 351.833V349H416.328V351.833C417.588 352.012 418.797 352.455 419.879 353.134L421.665 350.972L423.699 352.706L421.908 354.874C422.753 355.837 423.393 356.967 423.788 358.193ZM415.185 363C416.289 363 417.185 362.105 417.185 361C417.185 359.895 416.289 359 415.185 359C414.08 359 413.185 359.895 413.185 361C413.185 362.105 414.08 363 415.185 363Z" fill="white" fill-opacity="0.75"/>
<rect x="82" y="128" width="286" height="4" rx="2" fill="white" fill-opacity="0.3"/>
<rect x="82" y="380" width="286" height="4" rx="2" fill="white" fill-opacity="0.3"/>
<path d="M140.426 220.902H134.438L133.398 215.434C132.706 214.996 131.694 214.613 130.363 214.285C129.033 213.957 127.62 213.793 126.125 213.793C123.938 213.793 122.242 214.258 121.039 215.188C119.854 216.099 119.262 217.284 119.262 218.742C119.262 220.091 119.882 221.203 121.121 222.078C122.379 222.935 124.539 223.846 127.602 224.812C131.995 226.034 135.322 227.647 137.582 229.652C139.861 231.658 141 234.292 141 237.555C141 240.964 139.651 243.652 136.953 245.621C134.255 247.59 130.701 248.574 126.289 248.574C123.135 248.574 120.283 248.073 117.73 247.07C115.197 246.068 113.082 244.682 111.387 242.914V234.602H117.566L118.414 240.262C119.216 240.918 120.301 241.465 121.668 241.902C123.053 242.322 124.594 242.531 126.289 242.531C128.477 242.531 130.135 242.085 131.266 241.191C132.414 240.298 132.988 239.104 132.988 237.609C132.988 236.078 132.441 234.848 131.348 233.918C130.272 232.988 128.376 232.113 125.66 231.293C120.939 229.926 117.366 228.303 114.941 226.426C112.517 224.548 111.305 221.978 111.305 218.715C111.305 215.488 112.672 212.854 115.406 210.812C118.141 208.753 121.577 207.695 125.715 207.641C128.777 207.641 131.566 208.105 134.082 209.035C136.598 209.965 138.712 211.204 140.426 212.754V220.902ZM158.227 242.449C159.648 242.449 160.788 242.039 161.645 241.219C162.501 240.38 162.93 239.268 162.93 237.883H170.148L170.23 238.047C170.303 241.036 169.182 243.543 166.867 245.566C164.552 247.572 161.672 248.574 158.227 248.574C153.815 248.574 150.415 247.18 148.027 244.391C145.639 241.602 144.445 238.02 144.445 233.645V232.824C144.445 228.467 145.667 224.885 148.109 222.078C150.57 219.271 154.07 217.867 158.609 217.867C160.997 217.867 163.139 218.223 165.035 218.934C166.931 219.645 168.508 220.647 169.766 221.941L169.875 229.844H163.395L162.082 225.223C161.681 224.876 161.189 224.594 160.605 224.375C160.022 224.138 159.357 224.02 158.609 224.02C156.349 224.02 154.754 224.84 153.824 226.48C152.895 228.121 152.43 230.236 152.43 232.824V233.645C152.43 236.288 152.858 238.421 153.715 240.043C154.572 241.647 156.076 242.449 158.227 242.449ZM188.031 248.574C183.766 248.574 180.357 247.207 177.805 244.473C175.253 241.738 173.977 238.266 173.977 234.055V232.961C173.977 228.568 175.18 224.949 177.586 222.105C180.01 219.262 183.255 217.849 187.32 217.867C191.312 217.867 194.411 219.07 196.617 221.477C198.823 223.883 199.926 227.137 199.926 231.238V235.586H182.262L182.207 235.75C182.353 237.701 183 239.305 184.148 240.562C185.315 241.82 186.892 242.449 188.879 242.449C190.647 242.449 192.115 242.276 193.281 241.93C194.448 241.565 195.724 241 197.109 240.234L199.27 245.156C198.048 246.122 196.462 246.934 194.512 247.59C192.579 248.246 190.419 248.574 188.031 248.574ZM187.32 224.02C185.844 224.02 184.677 224.585 183.82 225.715C182.964 226.845 182.435 228.331 182.234 230.172L182.316 230.309H192.105V229.598C192.105 227.902 191.704 226.553 190.902 225.551C190.118 224.53 188.924 224.02 187.32 224.02ZM203.289 243.215L207.117 242.395V224.047L202.879 223.227V218.414H214.555L214.91 222.652C215.895 221.139 217.107 219.964 218.547 219.125C219.987 218.286 221.6 217.867 223.387 217.867C226.376 217.867 228.71 218.806 230.387 220.684C232.064 222.561 232.902 225.505 232.902 229.516V242.395L236.73 243.215V248H221.473V243.215L224.891 242.395V229.543C224.891 227.556 224.49 226.152 223.688 225.332C222.885 224.493 221.673 224.074 220.051 224.074C218.993 224.074 218.046 224.293 217.207 224.73C216.368 225.15 215.667 225.751 215.102 226.535V242.395L218.328 243.215V248H203.289V243.215ZM258.113 248C257.895 247.508 257.703 247.007 257.539 246.496C257.375 245.967 257.247 245.439 257.156 244.91C256.208 246.004 255.051 246.888 253.684 247.562C252.335 248.237 250.785 248.574 249.035 248.574C246.137 248.574 243.831 247.79 242.117 246.223C240.422 244.637 239.574 242.486 239.574 239.77C239.574 236.999 240.686 234.857 242.91 233.344C245.134 231.831 248.397 231.074 252.699 231.074H256.773V228.176C256.773 226.754 256.363 225.651 255.543 224.867C254.723 224.083 253.51 223.691 251.906 223.691C250.995 223.691 250.184 223.801 249.473 224.02C248.762 224.22 248.188 224.466 247.75 224.758L247.23 227.93H241.215L241.242 221.367C242.701 220.383 244.368 219.553 246.246 218.879C248.142 218.204 250.202 217.867 252.426 217.867C256.09 217.867 259.061 218.77 261.34 220.574C263.637 222.361 264.785 224.913 264.785 228.23V240.453C264.785 240.909 264.785 241.337 264.785 241.738C264.803 242.139 264.84 242.522 264.895 242.887L267.328 243.215V248H258.113ZM251.195 242.668C252.398 242.668 253.492 242.413 254.477 241.902C255.461 241.374 256.227 240.717 256.773 239.934V235.422H252.699C251.004 235.422 249.719 235.823 248.844 236.625C247.969 237.409 247.531 238.357 247.531 239.469C247.531 240.471 247.85 241.255 248.488 241.82C249.145 242.385 250.047 242.668 251.195 242.668ZM270.664 243.215L274.492 242.395V224.047L270.254 223.227V218.414H281.93L282.285 222.734C282.978 221.203 283.871 220.009 284.965 219.152C286.059 218.296 287.326 217.867 288.766 217.867C289.185 217.867 289.622 217.904 290.078 217.977C290.552 218.031 290.944 218.104 291.254 218.195L290.406 225.469L287.125 225.387C285.958 225.387 284.992 225.615 284.227 226.07C283.461 226.526 282.878 227.173 282.477 228.012V242.395L286.305 243.215V248H270.664V243.215ZM293.387 243.215L297.242 242.395V224.047L292.977 223.227V218.414H305.227V242.395L309.055 243.215V248H293.387V243.215ZM305.227 211.332H297.242V205.344H305.227V211.332ZM311.68 232.934C311.68 228.522 312.91 224.913 315.371 222.105C317.85 219.28 321.268 217.867 325.625 217.867C330 217.867 333.418 219.271 335.879 222.078C338.358 224.885 339.598 228.504 339.598 232.934V233.508C339.598 237.956 338.358 241.583 335.879 244.391C333.418 247.18 330.018 248.574 325.68 248.574C321.286 248.574 317.85 247.18 315.371 244.391C312.91 241.583 311.68 237.956 311.68 233.508V232.934ZM319.664 233.508C319.664 236.206 320.138 238.375 321.086 240.016C322.034 241.638 323.565 242.449 325.68 242.449C327.74 242.449 329.243 241.629 330.191 239.988C331.158 238.348 331.641 236.188 331.641 233.508V232.934C331.641 230.309 331.158 228.167 330.191 226.508C329.225 224.849 327.703 224.02 325.625 224.02C323.547 224.02 322.034 224.849 321.086 226.508C320.138 228.167 319.664 230.309 319.664 232.934V233.508ZM158.09 277.613H152.156L151.336 272.309C150.552 271.525 149.559 270.905 148.355 270.449C147.171 269.993 145.767 269.766 144.145 269.766C140.681 269.766 138.01 271.023 136.133 273.539C134.273 276.055 133.344 279.336 133.344 283.383V284.777C133.344 288.824 134.273 292.115 136.133 294.648C137.992 297.182 140.617 298.449 144.008 298.449C145.576 298.449 147.007 298.221 148.301 297.766C149.613 297.31 150.625 296.69 151.336 295.906L152.156 290.602H158.09V298.477C156.486 300.336 154.435 301.822 151.938 302.934C149.458 304.027 146.678 304.574 143.598 304.574C138.257 304.574 133.882 302.724 130.473 299.023C127.064 295.323 125.359 290.574 125.359 284.777V283.438C125.359 277.659 127.055 272.91 130.445 269.191C133.836 265.473 138.22 263.613 143.598 263.613C146.678 263.613 149.458 264.178 151.938 265.309C154.417 266.421 156.467 267.897 158.09 269.738V277.613ZM180.812 304C180.594 303.508 180.402 303.007 180.238 302.496C180.074 301.967 179.947 301.439 179.855 300.91C178.908 302.004 177.75 302.888 176.383 303.562C175.034 304.237 173.484 304.574 171.734 304.574C168.836 304.574 166.53 303.79 164.816 302.223C163.121 300.637 162.273 298.486 162.273 295.77C162.273 292.999 163.385 290.857 165.609 289.344C167.833 287.831 171.096 287.074 175.398 287.074H179.473V284.176C179.473 282.754 179.062 281.651 178.242 280.867C177.422 280.083 176.21 279.691 174.605 279.691C173.694 279.691 172.883 279.801 172.172 280.02C171.461 280.22 170.887 280.466 170.449 280.758L169.93 283.93H163.914L163.941 277.367C165.4 276.383 167.068 275.553 168.945 274.879C170.841 274.204 172.901 273.867 175.125 273.867C178.789 273.867 181.76 274.77 184.039 276.574C186.336 278.361 187.484 280.913 187.484 284.23V296.453C187.484 296.909 187.484 297.337 187.484 297.738C187.503 298.139 187.539 298.522 187.594 298.887L190.027 299.215V304H180.812ZM173.895 298.668C175.098 298.668 176.191 298.413 177.176 297.902C178.16 297.374 178.926 296.717 179.473 295.934V291.422H175.398C173.703 291.422 172.418 291.823 171.543 292.625C170.668 293.409 170.23 294.357 170.23 295.469C170.23 296.471 170.549 297.255 171.188 297.82C171.844 298.385 172.746 298.668 173.895 298.668ZM216.906 284.586H211.547L210.699 280.895C210.152 280.457 209.46 280.092 208.621 279.801C207.801 279.509 206.889 279.363 205.887 279.363C204.483 279.363 203.371 279.682 202.551 280.32C201.73 280.94 201.32 281.724 201.32 282.672C201.32 283.565 201.712 284.312 202.496 284.914C203.28 285.497 204.848 286.017 207.199 286.473C210.863 287.202 213.579 288.277 215.348 289.699C217.116 291.103 218 293.044 218 295.523C218 298.185 216.852 300.363 214.555 302.059C212.276 303.736 209.268 304.574 205.531 304.574C203.253 304.574 201.156 304.246 199.242 303.59C197.346 302.915 195.66 301.958 194.184 300.719L194.102 294.074H199.68L200.773 297.93C201.247 298.331 201.895 298.632 202.715 298.832C203.535 299.014 204.392 299.105 205.285 299.105C206.908 299.105 208.138 298.814 208.977 298.23C209.833 297.647 210.262 296.854 210.262 295.852C210.262 294.977 209.833 294.22 208.977 293.582C208.12 292.944 206.543 292.379 204.246 291.887C200.764 291.176 198.13 290.128 196.344 288.742C194.576 287.339 193.691 285.434 193.691 283.027C193.691 280.548 194.712 278.415 196.754 276.629C198.796 274.824 201.703 273.922 205.477 273.922C207.773 273.922 209.943 274.232 211.984 274.852C214.044 275.471 215.658 276.264 216.824 277.23L216.906 284.586ZM233.367 267.168V274.414H238.562V280.02H233.367V295.086C233.367 296.234 233.604 297.055 234.078 297.547C234.552 298.039 235.19 298.285 235.992 298.285C236.539 298.285 237.013 298.267 237.414 298.23C237.833 298.176 238.298 298.094 238.809 297.984L239.492 303.754C238.599 304.027 237.715 304.228 236.84 304.355C235.965 304.501 235.017 304.574 233.996 304.574C231.243 304.574 229.12 303.818 227.625 302.305C226.148 300.792 225.41 298.395 225.41 295.113V280.02H221.062V274.414H225.41V267.168H233.367ZM242.227 299.215L246.082 298.395V280.047L241.816 279.227V274.414H254.066V298.395L257.895 299.215V304H242.227V299.215ZM254.066 267.332H246.082V261.344H254.066V267.332ZM260.082 299.215L263.91 298.395V280.047L259.672 279.227V274.414H271.348L271.703 278.652C272.688 277.139 273.9 275.964 275.34 275.125C276.78 274.286 278.393 273.867 280.18 273.867C283.169 273.867 285.503 274.806 287.18 276.684C288.857 278.561 289.695 281.505 289.695 285.516V298.395L293.523 299.215V304H278.266V299.215L281.684 298.395V285.543C281.684 283.556 281.283 282.152 280.48 281.332C279.678 280.493 278.466 280.074 276.844 280.074C275.786 280.074 274.839 280.293 274 280.73C273.161 281.15 272.46 281.751 271.895 282.535V298.395L275.121 299.215V304H260.082V299.215ZM296.285 289.453C296.285 284.786 297.297 281.022 299.32 278.16C301.362 275.298 304.215 273.867 307.879 273.867C309.538 273.867 310.996 274.241 312.254 274.988C313.512 275.717 314.587 276.766 315.48 278.133L316.055 274.414H323V303.125C323 307.026 321.77 310.134 319.309 312.449C316.866 314.783 313.503 315.949 309.219 315.949C307.724 315.949 306.138 315.74 304.461 315.32C302.784 314.919 301.234 314.363 299.812 313.652L301.289 308.047C302.565 308.594 303.841 309.022 305.117 309.332C306.393 309.66 307.742 309.824 309.164 309.824C311.115 309.824 312.573 309.232 313.539 308.047C314.505 306.862 314.988 305.212 314.988 303.098V301.156C314.113 302.268 313.083 303.116 311.898 303.699C310.714 304.283 309.355 304.574 307.824 304.574C304.197 304.574 301.362 303.243 299.32 300.582C297.297 297.902 296.285 294.384 296.285 290.027V289.453ZM304.27 290.027C304.27 292.616 304.707 294.658 305.582 296.152C306.457 297.629 307.879 298.367 309.848 298.367C311.069 298.367 312.099 298.148 312.938 297.711C313.794 297.255 314.478 296.599 314.988 295.742V282.891C314.478 281.997 313.794 281.305 312.938 280.812C312.099 280.32 311.087 280.074 309.902 280.074C307.952 280.074 306.521 280.94 305.609 282.672C304.716 284.404 304.27 286.664 304.27 289.453V290.027Z" fill="white"/>
<path d="M149.688 107V103.797L152.047 103.297V87.9688L149.688 87.4688V84.25H152.047H160.75C162.562 84.25 164.135 84.5677 165.469 85.2031C166.802 85.8385 167.828 86.724 168.547 87.8594C169.276 88.9844 169.641 90.2969 169.641 91.7969C169.641 93.2969 169.276 94.6094 168.547 95.7344C167.828 96.8594 166.802 97.7344 165.469 98.3594C164.135 98.9844 162.562 99.2969 160.75 99.2969H157.531V103.297L159.891 103.797V107H149.688ZM157.531 95.0938H160.75C161.865 95.0938 162.708 94.7917 163.281 94.1875C163.865 93.5729 164.156 92.7865 164.156 91.8281C164.156 90.8385 163.865 90.026 163.281 89.3906C162.708 88.7552 161.865 88.4375 160.75 88.4375H157.531V95.0938ZM170.656 107V103.797L173.016 103.297V87.9688L170.656 87.4688V84.2344H181.844C183.646 84.2344 185.208 84.5208 186.531 85.0938C187.854 85.6667 188.875 86.4844 189.594 87.5469C190.312 88.599 190.672 89.849 190.672 91.2969C190.672 92.6302 190.307 93.8698 189.578 95.0156C188.859 96.1615 187.87 97.0833 186.609 97.7812C185.349 98.4688 183.911 98.8073 182.297 98.7969L178.5 98.75V103.297L180.859 103.797V107H170.656ZM185.062 107L182 98.125L186.766 96.5L189.531 103.266L191.688 103.812V107H185.062ZM178.5 94.5469H181.906C182.969 94.5469 183.786 94.3021 184.359 93.8125C184.932 93.3125 185.219 92.5938 185.219 91.6562C185.219 90.6875 184.927 89.9115 184.344 89.3281C183.76 88.7344 182.927 88.4375 181.844 88.4375H178.5V94.5469ZM204.016 107.328C202.443 107.328 200.995 107.042 199.672 106.469C198.359 105.885 197.219 105.073 196.25 104.031C195.281 102.99 194.531 101.771 194 100.375C193.479 98.9688 193.219 97.4427 193.219 95.7969V95.4375C193.219 93.8021 193.479 92.2865 194 90.8906C194.531 89.4948 195.276 88.276 196.234 87.2344C197.203 86.1927 198.344 85.3802 199.656 84.7969C200.969 84.2135 202.411 83.9219 203.984 83.9219C205.526 83.9219 206.958 84.2135 208.281 84.7969C209.604 85.3802 210.76 86.1927 211.75 87.2344C212.75 88.276 213.526 89.4948 214.078 90.8906C214.63 92.2865 214.906 93.8021 214.906 95.4375V95.7969C214.906 97.4427 214.63 98.9688 214.078 100.375C213.526 101.771 212.755 102.99 211.766 104.031C210.776 105.073 209.62 105.885 208.297 106.469C206.974 107.042 205.547 107.328 204.016 107.328ZM204.016 103.172C205.161 103.172 206.141 102.865 206.953 102.25C207.766 101.635 208.385 100.776 208.812 99.6719C209.24 98.5677 209.453 97.276 209.453 95.7969V95.4062C209.453 93.9583 209.234 92.6875 208.797 91.5938C208.37 90.4896 207.75 89.6302 206.938 89.0156C206.125 88.401 205.141 88.0938 203.984 88.0938C202.766 88.0938 201.766 88.3958 200.984 89C200.214 89.6042 199.641 90.4531 199.266 91.5469C198.891 92.6406 198.703 93.9271 198.703 95.4062V95.7969C198.703 97.276 198.891 98.5729 199.266 99.6875C199.651 100.792 200.234 101.651 201.016 102.266C201.807 102.87 202.807 103.172 204.016 103.172ZM227.578 107.328C225.411 107.328 223.479 106.891 221.781 106.016C220.083 105.141 218.75 103.875 217.781 102.219C216.812 100.552 216.328 98.5312 216.328 96.1562V95.1094C216.328 92.9219 216.771 90.9896 217.656 89.3125C218.552 87.625 219.823 86.3073 221.469 85.3594C223.125 84.401 225.089 83.9219 227.359 83.9219C228.943 83.9219 230.448 84.1354 231.875 84.5625C233.312 84.9792 234.646 85.6979 235.875 86.7188V92.5781H231.891L231.344 89.2188C230.99 88.9792 230.615 88.7708 230.219 88.5938C229.833 88.4167 229.417 88.2812 228.969 88.1875C228.531 88.0938 228.057 88.0469 227.547 88.0469C226.391 88.0469 225.38 88.3229 224.516 88.875C223.651 89.4271 222.979 90.2292 222.5 91.2812C222.031 92.3229 221.797 93.5885 221.797 95.0781V96.1562C221.797 97.5521 222.042 98.7812 222.531 99.8438C223.021 100.896 223.703 101.719 224.578 102.312C225.464 102.906 226.484 103.203 227.641 103.203C228.255 103.203 228.88 103.141 229.516 103.016C230.151 102.88 230.766 102.703 231.359 102.484L231.906 99.2656H235.906V105C235 105.625 233.844 106.172 232.438 106.641C231.031 107.099 229.411 107.328 227.578 107.328ZM237.344 107V103.797L239.703 103.297V87.9688L237.344 87.4688V84.25H255.516V90.8125H251.375L251.25 88.4688H245.188V93.1406H252.453V97.3438H245.188V102.766H251.547L251.672 100.312H255.766V107H237.344ZM267.766 107.328C265.911 107.328 264.266 107.151 262.828 106.797C261.391 106.443 259.958 105.776 258.531 104.797V98.8906H262.766L263.234 101.922C263.568 102.297 264.156 102.615 265 102.875C265.844 103.125 266.766 103.25 267.766 103.25C268.464 103.25 269.047 103.167 269.516 103C269.984 102.823 270.339 102.568 270.578 102.234C270.818 101.901 270.938 101.5 270.938 101.031C270.938 100.583 270.823 100.182 270.594 99.8281C270.375 99.474 270.01 99.1406 269.5 98.8281C268.99 98.5052 268.302 98.1771 267.438 97.8438C265.49 97.2188 263.891 96.5833 262.641 95.9375C261.391 95.2917 260.458 94.526 259.844 93.6406C259.24 92.7552 258.938 91.6562 258.938 90.3438C258.938 89.0833 259.297 87.9844 260.016 87.0469C260.734 86.099 261.724 85.3542 262.984 84.8125C264.245 84.2708 265.688 83.9844 267.312 83.9531C269.167 83.9115 270.807 84.099 272.234 84.5156C273.661 84.9219 274.922 85.5417 276.016 86.375V91.8594H271.953L271.312 88.8125C270.958 88.6354 270.453 88.474 269.797 88.3281C269.141 88.1823 268.443 88.1094 267.703 88.1094C267.068 88.1094 266.5 88.1927 266 88.3594C265.51 88.526 265.12 88.776 264.828 89.1094C264.547 89.4427 264.406 89.8594 264.406 90.3594C264.406 90.7656 264.526 91.1302 264.766 91.4531C265.005 91.7656 265.427 92.0833 266.031 92.4062C266.635 92.7188 267.479 93.0833 268.562 93.5C271.146 94.2604 273.104 95.2135 274.438 96.3594C275.781 97.4948 276.453 99.0417 276.453 101C276.453 102.344 276.089 103.49 275.359 104.438C274.63 105.375 273.615 106.094 272.312 106.594C271.01 107.083 269.495 107.328 267.766 107.328ZM287.641 107.328C285.786 107.328 284.141 107.151 282.703 106.797C281.266 106.443 279.833 105.776 278.406 104.797V98.8906H282.641L283.109 101.922C283.443 102.297 284.031 102.615 284.875 102.875C285.719 103.125 286.641 103.25 287.641 103.25C288.339 103.25 288.922 103.167 289.391 103C289.859 102.823 290.214 102.568 290.453 102.234C290.693 101.901 290.812 101.5 290.812 101.031C290.812 100.583 290.698 100.182 290.469 99.8281C290.25 99.474 289.885 99.1406 289.375 98.8281C288.865 98.5052 288.177 98.1771 287.312 97.8438C285.365 97.2188 283.766 96.5833 282.516 95.9375C281.266 95.2917 280.333 94.526 279.719 93.6406C279.115 92.7552 278.812 91.6562 278.812 90.3438C278.812 89.0833 279.172 87.9844 279.891 87.0469C280.609 86.099 281.599 85.3542 282.859 84.8125C284.12 84.2708 285.562 83.9844 287.188 83.9531C289.042 83.9115 290.682 84.099 292.109 84.5156C293.536 84.9219 294.797 85.5417 295.891 86.375V91.8594H291.828L291.188 88.8125C290.833 88.6354 290.328 88.474 289.672 88.3281C289.016 88.1823 288.318 88.1094 287.578 88.1094C286.943 88.1094 286.375 88.1927 285.875 88.3594C285.385 88.526 284.995 88.776 284.703 89.1094C284.422 89.4427 284.281 89.8594 284.281 90.3594C284.281 90.7656 284.401 91.1302 284.641 91.4531C284.88 91.7656 285.302 92.0833 285.906 92.4062C286.51 92.7188 287.354 93.0833 288.438 93.5C291.021 94.2604 292.979 95.2135 294.312 96.3594C295.656 97.4948 296.328 99.0417 296.328 101C296.328 102.344 295.964 103.49 295.234 104.438C294.505 105.375 293.49 106.094 292.188 106.594C290.885 107.083 289.37 107.328 287.641 107.328Z" fill="black" fill-opacity="0.3"/>
</g>
<defs>
<clipPath id="clip0_1_298">
<rect width="450" height="512" fill="white"/>
</clipPath>
</defs>
</svg>
