<svg width="450" height="512" viewBox="0 0 450 512" fill="none" xmlns="http://www.w3.org/2000/svg">
<g clip-path="url(#clip0_5_829)">
<path d="M212.66 3.35209C220.296 -1.11736 229.704 -1.11737 237.34 3.35209L434.66 118.842C442.296 123.311 447 131.571 447 140.51V371.49C447 380.429 442.296 388.689 434.66 393.158L237.34 508.648C229.704 513.117 220.296 513.117 212.66 508.648L15.3404 393.158C7.70413 388.689 3 380.429 3 371.49V140.51C3 131.571 7.70413 123.311 15.3404 118.842L212.66 3.35209Z" fill="#32ADE6"/>
<path d="M214.68 6.80426C221.068 3.06525 228.932 3.06525 235.32 6.80426L432.639 122.294C439.034 126.037 443 132.974 443 140.51V371.49C443 379.026 439.034 385.963 432.639 389.706L235.32 505.196C228.932 508.935 221.068 508.935 214.68 505.196L17.3609 389.706C10.9662 385.963 7 379.026 7 371.49V140.51C7 132.974 10.9662 126.037 17.3609 122.294L214.68 6.80426Z" stroke="black" stroke-opacity="0.5" stroke-width="8"/>
<rect x="82" y="128" width="286" height="4" rx="2" fill="white" fill-opacity="0.3"/>
<rect x="82" y="380" width="286" height="4" rx="2" fill="white" fill-opacity="0.3"/>
<path d="M169.711 248.902H163.723L162.684 243.434C161.991 242.996 160.979 242.613 159.648 242.285C158.318 241.957 156.905 241.793 155.41 241.793C153.223 241.793 151.527 242.258 150.324 243.188C149.139 244.099 148.547 245.284 148.547 246.742C148.547 248.091 149.167 249.203 150.406 250.078C151.664 250.935 153.824 251.846 156.887 252.812C161.28 254.034 164.607 255.647 166.867 257.652C169.146 259.658 170.285 262.292 170.285 265.555C170.285 268.964 168.936 271.652 166.238 273.621C163.54 275.59 159.986 276.574 155.574 276.574C152.421 276.574 149.568 276.073 147.016 275.07C144.482 274.068 142.367 272.682 140.672 270.914V262.602H146.852L147.699 268.262C148.501 268.918 149.586 269.465 150.953 269.902C152.339 270.322 153.879 270.531 155.574 270.531C157.762 270.531 159.421 270.085 160.551 269.191C161.699 268.298 162.273 267.104 162.273 265.609C162.273 264.078 161.727 262.848 160.633 261.918C159.557 260.988 157.661 260.113 154.945 259.293C150.224 257.926 146.651 256.303 144.227 254.426C141.802 252.548 140.59 249.978 140.59 246.715C140.59 243.488 141.957 240.854 144.691 238.812C147.426 236.753 150.862 235.695 155 235.641C158.062 235.641 160.852 236.105 163.367 237.035C165.883 237.965 167.997 239.204 169.711 240.754V248.902ZM187.512 270.449C188.934 270.449 190.073 270.039 190.93 269.219C191.786 268.38 192.215 267.268 192.215 265.883H199.434L199.516 266.047C199.589 269.036 198.467 271.543 196.152 273.566C193.837 275.572 190.957 276.574 187.512 276.574C183.1 276.574 179.701 275.18 177.312 272.391C174.924 269.602 173.73 266.02 173.73 261.645V260.824C173.73 256.467 174.952 252.885 177.395 250.078C179.855 247.271 183.355 245.867 187.895 245.867C190.283 245.867 192.424 246.223 194.32 246.934C196.216 247.645 197.793 248.647 199.051 249.941L199.16 257.844H192.68L191.367 253.223C190.966 252.876 190.474 252.594 189.891 252.375C189.307 252.138 188.642 252.02 187.895 252.02C185.634 252.02 184.039 252.84 183.109 254.48C182.18 256.121 181.715 258.236 181.715 260.824V261.645C181.715 264.288 182.143 266.421 183 268.043C183.857 269.647 185.361 270.449 187.512 270.449ZM203.754 271.215L207.582 270.395V252.047L203.344 251.227V246.414H215.02L215.375 250.734C216.068 249.203 216.961 248.009 218.055 247.152C219.148 246.296 220.415 245.867 221.855 245.867C222.275 245.867 222.712 245.904 223.168 245.977C223.642 246.031 224.034 246.104 224.344 246.195L223.496 253.469L220.215 253.387C219.048 253.387 218.082 253.615 217.316 254.07C216.551 254.526 215.967 255.173 215.566 256.012V270.395L219.395 271.215V276H203.754V271.215ZM247.422 272.254C246.474 273.639 245.298 274.706 243.895 275.453C242.509 276.201 240.923 276.574 239.137 276.574C236.02 276.574 233.577 275.581 231.809 273.594C230.04 271.589 229.156 268.48 229.156 264.27V252.047L225.902 251.227V246.414H229.156H237.141V264.324C237.141 266.475 237.496 268.025 238.207 268.973C238.936 269.902 240.012 270.367 241.434 270.367C242.691 270.367 243.776 270.167 244.688 269.766C245.617 269.346 246.374 268.754 246.957 267.988V252.047L243.457 251.227V246.414H246.957H254.941V270.395L258.523 271.215V276H247.941L247.422 272.254ZM260.738 251.227V246.414H272.414L272.742 250.324C273.69 248.902 274.875 247.809 276.297 247.043C277.737 246.259 279.396 245.867 281.273 245.867C283.169 245.867 284.792 246.286 286.141 247.125C287.49 247.964 288.51 249.23 289.203 250.926C290.115 249.34 291.299 248.1 292.758 247.207C294.216 246.314 295.93 245.867 297.898 245.867C300.815 245.867 303.112 246.879 304.789 248.902C306.484 250.908 307.332 253.97 307.332 258.09V270.395L311.188 271.215V276H295.902V271.215L299.348 270.395V258.062C299.348 255.82 298.983 254.262 298.254 253.387C297.525 252.512 296.44 252.074 295 252.074C293.87 252.074 292.885 252.329 292.047 252.84C291.227 253.332 290.57 254.025 290.078 254.918C290.078 255.264 290.087 255.565 290.105 255.82C290.124 256.057 290.133 256.303 290.133 256.559V270.395L293.359 271.215V276H278.949V271.215L282.176 270.395V258.062C282.176 255.875 281.811 254.335 281.082 253.441C280.353 252.53 279.259 252.074 277.801 252.074C276.725 252.074 275.777 252.284 274.957 252.703C274.155 253.104 273.49 253.678 272.961 254.426V270.395L276.406 271.215V276H261.148V271.215L265.004 270.395V252.047L260.738 251.227Z" fill="white"/>
<path d="M113.078 107V103.797L115.438 103.297V87.9688L113.078 87.4688V84.25H131.812V90.9531H127.672L127.562 88.4688H120.922V93.7344H128.656V97.9219H120.922V103.297L123.281 103.797V107H113.078ZM132.953 107V103.797L135.312 103.297V87.9688L132.953 87.4688V84.2344H144.141C145.943 84.2344 147.505 84.5208 148.828 85.0938C150.151 85.6667 151.172 86.4844 151.891 87.5469C152.609 88.599 152.969 89.849 152.969 91.2969C152.969 92.6302 152.604 93.8698 151.875 95.0156C151.156 96.1615 150.167 97.0833 148.906 97.7812C147.646 98.4688 146.208 98.8073 144.594 98.7969L140.797 98.75V103.297L143.156 103.797V107H132.953ZM147.359 107L144.297 98.125L149.062 96.5L151.828 103.266L153.984 103.812V107H147.359ZM140.797 94.5469H144.203C145.266 94.5469 146.083 94.3021 146.656 93.8125C147.229 93.3125 147.516 92.5938 147.516 91.6562C147.516 90.6875 147.224 89.9115 146.641 89.3281C146.057 88.7344 145.224 88.4375 144.141 88.4375H140.797V94.5469ZM154.906 107V103.797L156.5 103.562L163.281 84.25H169.219L176.016 103.562L177.609 103.797V107H169.109V103.797L170.594 103.516L169.906 101.047H162.594L161.938 103.516L163.422 103.797V107H154.906ZM163.75 97.2031H168.734L166.516 90.3125L166.266 89.5156H166.172L165.906 90.3906L163.75 97.2031ZM178.484 107V103.797L180.828 103.297V87.9688L178.484 87.4688V84.25H180.828H189.219L194.719 99.2344H194.812L200.156 84.25H210.766V87.4688L208.406 87.9688V103.297L210.766 103.797V107H200.578V103.797L203.031 103.297V100.328L203.156 89.625L203.062 89.6094L196.625 107H192.312L185.781 89.8125L185.672 89.8281L186.047 99.5781V103.297L188.688 103.797V107H178.484ZM211.703 107V103.797L214.062 103.297V87.9688L211.703 87.4688V84.25H229.875V90.8125H225.734L225.609 88.4688H219.547V93.1406H226.812V97.3438H219.547V102.766H225.906L226.031 100.312H230.125V107H211.703ZM239.547 107L234.297 87.7031L231.719 87.4688V84.25H241.984V87.4688L239.453 87.8281L241.938 98L242.297 99.4688H242.391L242.766 97.9844L247.219 84.25H251L255.688 98.625L256.016 99.6094H256.109L256.375 98.625L259.031 87.8281L256.422 87.4688V84.25H266.484V87.4688L264.062 87.7031L258.578 107H253.688L249.766 95.2344L249.281 93.6094H249.188L248.578 95.3281L244.594 107H239.547ZM278.969 107.328C277.396 107.328 275.948 107.042 274.625 106.469C273.312 105.885 272.172 105.073 271.203 104.031C270.234 102.99 269.484 101.771 268.953 100.375C268.432 98.9688 268.172 97.4427 268.172 95.7969V95.4375C268.172 93.8021 268.432 92.2865 268.953 90.8906C269.484 89.4948 270.229 88.276 271.188 87.2344C272.156 86.1927 273.297 85.3802 274.609 84.7969C275.922 84.2135 277.365 83.9219 278.938 83.9219C280.479 83.9219 281.911 84.2135 283.234 84.7969C284.557 85.3802 285.714 86.1927 286.703 87.2344C287.703 88.276 288.479 89.4948 289.031 90.8906C289.583 92.2865 289.859 93.8021 289.859 95.4375V95.7969C289.859 97.4427 289.583 98.9688 289.031 100.375C288.479 101.771 287.708 102.99 286.719 104.031C285.729 105.073 284.573 105.885 283.25 106.469C281.927 107.042 280.5 107.328 278.969 107.328ZM278.969 103.172C280.115 103.172 281.094 102.865 281.906 102.25C282.719 101.635 283.339 100.776 283.766 99.6719C284.193 98.5677 284.406 97.276 284.406 95.7969V95.4062C284.406 93.9583 284.188 92.6875 283.75 91.5938C283.323 90.4896 282.703 89.6302 281.891 89.0156C281.078 88.401 280.094 88.0938 278.938 88.0938C277.719 88.0938 276.719 88.3958 275.938 89C275.167 89.6042 274.594 90.4531 274.219 91.5469C273.844 92.6406 273.656 93.9271 273.656 95.4062V95.7969C273.656 97.276 273.844 98.5729 274.219 99.6875C274.604 100.792 275.188 101.651 275.969 102.266C276.76 102.87 277.76 103.172 278.969 103.172ZM291.359 107V103.797L293.719 103.297V87.9688L291.359 87.4688V84.2344H302.547C304.349 84.2344 305.911 84.5208 307.234 85.0938C308.557 85.6667 309.578 86.4844 310.297 87.5469C311.016 88.599 311.375 89.849 311.375 91.2969C311.375 92.6302 311.01 93.8698 310.281 95.0156C309.562 96.1615 308.573 97.0833 307.312 97.7812C306.052 98.4688 304.615 98.8073 303 98.7969L299.203 98.75V103.297L301.562 103.797V107H291.359ZM305.766 107L302.703 98.125L307.469 96.5L310.234 103.266L312.391 103.812V107H305.766ZM299.203 94.5469H302.609C303.672 94.5469 304.49 94.3021 305.062 93.8125C305.635 93.3125 305.922 92.5938 305.922 91.6562C305.922 90.6875 305.63 89.9115 305.047 89.3281C304.464 88.7344 303.63 88.4375 302.547 88.4375H299.203V94.5469ZM320 102.047L317.203 98.8438L328.547 87.6719L328.562 87.6406L325.984 87.4688V84.25H336.609V87.4688L334.469 87.9219L320 102.047ZM313.578 107V103.797L315.938 103.297V87.9688L313.578 87.4688V84.25H323.578V87.4688L321.422 87.9688V103.297L323.578 103.797V107H313.578ZM326.469 107V103.797L328.75 103.625H328.781L323.312 96.1406L327.141 92.75L335.109 103.406L337.438 103.797V107H326.469Z" fill="black" fill-opacity="0.3"/>
</g>
<defs>
<clipPath id="clip0_5_829">
<rect width="450" height="512" fill="white"/>
</clipPath>
</defs>
</svg>
