<svg width="450" height="512" viewBox="0 0 450 512" fill="none" xmlns="http://www.w3.org/2000/svg">
<path d="M212.66 3.35209C220.296 -1.11736 229.704 -1.11737 237.34 3.35209L434.66 118.842C442.296 123.311 447 131.571 447 140.51V371.49C447 380.429 442.296 388.689 434.66 393.158L237.34 508.648C229.704 513.117 220.296 513.117 212.66 508.648L15.3404 393.158C7.70413 388.689 3 380.429 3 371.49V140.51C3 131.571 7.70413 123.311 15.3404 118.842L212.66 3.35209Z" fill="white"/>
<path d="M214.68 6.80426C221.068 3.06525 228.932 3.06525 235.32 6.80426L432.639 122.294C439.034 126.037 443 132.974 443 140.51V371.49C443 379.026 439.034 385.963 432.639 389.706L235.32 505.196C228.932 508.935 221.068 508.935 214.68 505.196L17.3609 389.706C10.9662 385.963 7 379.026 7 371.49V140.51C7 132.974 10.9662 126.037 17.3609 122.294L214.68 6.80426Z" stroke="black" stroke-opacity="0.5" stroke-width="8"/>
<rect x="82" y="128" width="286" height="4" rx="2" fill="black" fill-opacity="0.3"/>
<rect x="82" y="380" width="286" height="4" rx="2" fill="black" fill-opacity="0.3"/>
<path d="M158.145 220.902H152.156L151.117 215.434C150.424 214.996 149.413 214.613 148.082 214.285C146.751 213.957 145.339 213.793 143.844 213.793C141.656 213.793 139.961 214.258 138.758 215.188C137.573 216.099 136.98 217.284 136.98 218.742C136.98 220.091 137.6 221.203 138.84 222.078C140.098 222.935 142.258 223.846 145.32 224.812C149.714 226.034 153.04 227.647 155.301 229.652C157.579 231.658 158.719 234.292 158.719 237.555C158.719 240.964 157.37 243.652 154.672 245.621C151.974 247.59 148.419 248.574 144.008 248.574C140.854 248.574 138.001 248.073 135.449 247.07C132.915 246.068 130.801 244.682 129.105 242.914V234.602H135.285L136.133 240.262C136.935 240.918 138.02 241.465 139.387 241.902C140.772 242.322 142.312 242.531 144.008 242.531C146.195 242.531 147.854 242.085 148.984 241.191C150.133 240.298 150.707 239.104 150.707 237.609C150.707 236.078 150.16 234.848 149.066 233.918C147.991 232.988 146.095 232.113 143.379 231.293C138.658 229.926 135.085 228.303 132.66 226.426C130.236 224.548 129.023 221.978 129.023 218.715C129.023 215.488 130.391 212.854 133.125 210.812C135.859 208.753 139.296 207.695 143.434 207.641C146.496 207.641 149.285 208.105 151.801 209.035C154.316 209.965 156.431 211.204 158.145 212.754V220.902ZM176.219 248.574C171.953 248.574 168.544 247.207 165.992 244.473C163.44 241.738 162.164 238.266 162.164 234.055V232.961C162.164 228.568 163.367 224.949 165.773 222.105C168.198 219.262 171.443 217.849 175.508 217.867C179.5 217.867 182.599 219.07 184.805 221.477C187.01 223.883 188.113 227.137 188.113 231.238V235.586H170.449L170.395 235.75C170.54 237.701 171.188 239.305 172.336 240.562C173.503 241.82 175.079 242.449 177.066 242.449C178.835 242.449 180.302 242.276 181.469 241.93C182.635 241.565 183.911 241 185.297 240.234L187.457 245.156C186.236 246.122 184.65 246.934 182.699 247.59C180.767 248.246 178.607 248.574 176.219 248.574ZM175.508 224.02C174.031 224.02 172.865 224.585 172.008 225.715C171.151 226.845 170.622 228.331 170.422 230.172L170.504 230.309H180.293V229.598C180.293 227.902 179.892 226.553 179.09 225.551C178.306 224.53 177.112 224.02 175.508 224.02ZM192.516 243.215L196.344 242.395V224.047L192.105 223.227V218.414H203.781L204.137 222.734C204.829 221.203 205.723 220.009 206.816 219.152C207.91 218.296 209.177 217.867 210.617 217.867C211.036 217.867 211.474 217.904 211.93 217.977C212.404 218.031 212.796 218.104 213.105 218.195L212.258 225.469L208.977 225.387C207.81 225.387 206.844 225.615 206.078 226.07C205.312 226.526 204.729 227.173 204.328 228.012V242.395L208.156 243.215V248H192.516V243.215ZM228.527 223.227L225.738 223.746L229.648 236.98L230.168 239.77H230.332L230.906 236.98L234.762 223.773L231.918 223.227V218.414H245.344V223.227L242.773 223.637L234.051 248H226.422L217.672 223.637L215.102 223.227V218.414H228.527V223.227ZM247.668 243.215L251.523 242.395V224.047L247.258 223.227V218.414H259.508V242.395L263.336 243.215V248H247.668V243.215ZM259.508 211.332H251.523V205.344H259.508V211.332ZM279.852 242.449C281.273 242.449 282.413 242.039 283.27 241.219C284.126 240.38 284.555 239.268 284.555 237.883H291.773L291.855 238.047C291.928 241.036 290.807 243.543 288.492 245.566C286.177 247.572 283.297 248.574 279.852 248.574C275.44 248.574 272.04 247.18 269.652 244.391C267.264 241.602 266.07 238.02 266.07 233.645V232.824C266.07 228.467 267.292 224.885 269.734 222.078C272.195 219.271 275.695 217.867 280.234 217.867C282.622 217.867 284.764 218.223 286.66 218.934C288.556 219.645 290.133 220.647 291.391 221.941L291.5 229.844H285.02L283.707 225.223C283.306 224.876 282.814 224.594 282.23 224.375C281.647 224.138 280.982 224.02 280.234 224.02C277.974 224.02 276.379 224.84 275.449 226.48C274.52 228.121 274.055 230.236 274.055 232.824V233.645C274.055 236.288 274.483 238.421 275.34 240.043C276.197 241.647 277.701 242.449 279.852 242.449ZM309.656 248.574C305.391 248.574 301.982 247.207 299.43 244.473C296.878 241.738 295.602 238.266 295.602 234.055V232.961C295.602 228.568 296.805 224.949 299.211 222.105C301.635 219.262 304.88 217.849 308.945 217.867C312.938 217.867 316.036 219.07 318.242 221.477C320.448 223.883 321.551 227.137 321.551 231.238V235.586H303.887L303.832 235.75C303.978 237.701 304.625 239.305 305.773 240.562C306.94 241.82 308.517 242.449 310.504 242.449C312.272 242.449 313.74 242.276 314.906 241.93C316.073 241.565 317.349 241 318.734 240.234L320.895 245.156C319.673 246.122 318.087 246.934 316.137 247.59C314.204 248.246 312.044 248.574 309.656 248.574ZM308.945 224.02C307.469 224.02 306.302 224.585 305.445 225.715C304.589 226.845 304.06 228.331 303.859 230.172L303.941 230.309H313.73V229.598C313.73 227.902 313.329 226.553 312.527 225.551C311.743 224.53 310.549 224.02 308.945 224.02ZM118.387 264.188C123.072 264.188 126.727 265.099 129.352 266.922C131.977 268.745 133.289 271.47 133.289 275.098C133.289 276.939 132.797 278.589 131.812 280.047C130.846 281.487 129.434 282.572 127.574 283.301C129.962 283.811 131.749 284.905 132.934 286.582C134.137 288.259 134.738 290.201 134.738 292.406C134.738 296.216 133.48 299.105 130.965 301.074C128.449 303.025 124.885 304 120.273 304H100.695V299.215L104.934 298.395V269.82L100.695 269V264.188H104.934H118.387ZM112.918 286.391V297.875H120.273C122.388 297.875 124.001 297.419 125.113 296.508C126.225 295.578 126.781 294.211 126.781 292.406C126.781 290.456 126.307 288.97 125.359 287.949C124.411 286.91 122.917 286.391 120.875 286.391H112.918ZM112.918 280.867H118.66C120.793 280.867 122.434 280.43 123.582 279.555C124.73 278.68 125.305 277.404 125.305 275.727C125.305 273.885 124.721 272.527 123.555 271.652C122.406 270.777 120.684 270.34 118.387 270.34H112.918V280.867ZM137.062 266.156V261.344H149.312V298.395L153.168 299.215V304H137.473V299.215L141.328 298.395V266.977L137.062 266.156ZM176.492 300.254C175.544 301.639 174.368 302.706 172.965 303.453C171.579 304.201 169.993 304.574 168.207 304.574C165.09 304.574 162.647 303.581 160.879 301.594C159.111 299.589 158.227 296.48 158.227 292.27V280.047L154.973 279.227V274.414H158.227H166.211V292.324C166.211 294.475 166.566 296.025 167.277 296.973C168.007 297.902 169.082 298.367 170.504 298.367C171.762 298.367 172.846 298.167 173.758 297.766C174.688 297.346 175.444 296.754 176.027 295.988V280.047L172.527 279.227V274.414H176.027H184.012V298.395L187.594 299.215V304H177.012L176.492 300.254ZM204.902 304.574C200.637 304.574 197.228 303.207 194.676 300.473C192.124 297.738 190.848 294.266 190.848 290.055V288.961C190.848 284.568 192.051 280.949 194.457 278.105C196.882 275.262 200.126 273.849 204.191 273.867C208.184 273.867 211.283 275.07 213.488 277.477C215.694 279.883 216.797 283.137 216.797 287.238V291.586H199.133L199.078 291.75C199.224 293.701 199.871 295.305 201.02 296.562C202.186 297.82 203.763 298.449 205.75 298.449C207.518 298.449 208.986 298.276 210.152 297.93C211.319 297.565 212.595 297 213.98 296.234L216.141 301.156C214.919 302.122 213.333 302.934 211.383 303.59C209.451 304.246 207.29 304.574 204.902 304.574ZM204.191 280.02C202.715 280.02 201.548 280.585 200.691 281.715C199.835 282.845 199.306 284.331 199.105 286.172L199.188 286.309H208.977V285.598C208.977 283.902 208.576 282.553 207.773 281.551C206.99 280.53 205.796 280.02 204.191 280.02ZM219.996 279.227V274.414H231.59L231.973 277.859C232.848 276.583 233.896 275.599 235.117 274.906C236.339 274.214 237.76 273.867 239.383 273.867C243.047 273.867 245.891 275.298 247.914 278.16C249.938 281.022 250.949 284.786 250.949 289.453V290.027C250.949 294.402 249.938 297.921 247.914 300.582C245.891 303.243 243.065 304.574 239.438 304.574C237.888 304.574 236.512 304.292 235.309 303.727C234.105 303.143 233.076 302.296 232.219 301.184V309.742L236.074 310.562V315.375H220.406V310.562L224.262 309.742V280.047L219.996 279.227ZM242.965 289.453C242.965 286.664 242.5 284.404 241.57 282.672C240.641 280.94 239.219 280.074 237.305 280.074C236.102 280.074 235.072 280.32 234.215 280.812C233.376 281.305 232.711 282.007 232.219 282.918V295.879C232.711 296.717 233.376 297.355 234.215 297.793C235.072 298.23 236.12 298.449 237.359 298.449C239.292 298.449 240.704 297.693 241.598 296.18C242.509 294.667 242.965 292.616 242.965 290.027V289.453ZM255.105 299.215L258.934 298.395V280.047L254.695 279.227V274.414H266.371L266.727 278.734C267.419 277.203 268.312 276.009 269.406 275.152C270.5 274.296 271.767 273.867 273.207 273.867C273.626 273.867 274.064 273.904 274.52 273.977C274.993 274.031 275.385 274.104 275.695 274.195L274.848 281.469L271.566 281.387C270.4 281.387 269.434 281.615 268.668 282.07C267.902 282.526 267.319 283.173 266.918 284.012V298.395L270.746 299.215V304H255.105V299.215ZM277.828 299.215L281.684 298.395V280.047L277.418 279.227V274.414H289.668V298.395L293.496 299.215V304H277.828V299.215ZM289.668 267.332H281.684V261.344H289.668V267.332ZM295.684 299.215L299.512 298.395V280.047L295.273 279.227V274.414H306.949L307.305 278.652C308.289 277.139 309.501 275.964 310.941 275.125C312.382 274.286 313.995 273.867 315.781 273.867C318.771 273.867 321.104 274.806 322.781 276.684C324.458 278.561 325.297 281.505 325.297 285.516V298.395L329.125 299.215V304H313.867V299.215L317.285 298.395V285.543C317.285 283.556 316.884 282.152 316.082 281.332C315.28 280.493 314.068 280.074 312.445 280.074C311.388 280.074 310.44 280.293 309.602 280.73C308.763 281.15 308.061 281.751 307.496 282.535V298.395L310.723 299.215V304H295.684V299.215ZM343.453 267.168V274.414H348.648V280.02H343.453V295.086C343.453 296.234 343.69 297.055 344.164 297.547C344.638 298.039 345.276 298.285 346.078 298.285C346.625 298.285 347.099 298.267 347.5 298.23C347.919 298.176 348.384 298.094 348.895 297.984L349.578 303.754C348.685 304.027 347.801 304.228 346.926 304.355C346.051 304.501 345.103 304.574 344.082 304.574C341.329 304.574 339.206 303.818 337.711 302.305C336.234 300.792 335.496 298.395 335.496 295.113V280.02H331.148V274.414H335.496V267.168H343.453Z" fill="black"/>
<path d="M145.844 97V93.7969L147.438 93.5625L154.219 74.25H160.156L166.953 93.5625L168.547 93.7969V97H160.047V93.7969L161.531 93.5156L160.844 91.0469H153.531L152.875 93.5156L154.359 93.7969V97H145.844ZM154.688 87.2031H159.672L157.453 80.3125L157.203 79.5156H157.109L156.844 80.3906L154.688 87.2031ZM169.547 97V93.7969L171.906 93.2969V77.9688L169.547 77.4688V74.2344H180.734C182.536 74.2344 184.099 74.5208 185.422 75.0938C186.745 75.6667 187.766 76.4844 188.484 77.5469C189.203 78.599 189.562 79.849 189.562 81.2969C189.562 82.6302 189.198 83.8698 188.469 85.0156C187.75 86.1615 186.76 87.0833 185.5 87.7812C184.24 88.4688 182.802 88.8073 181.188 88.7969L177.391 88.75V93.2969L179.75 93.7969V97H169.547ZM183.953 97L180.891 88.125L185.656 86.5L188.422 93.2656L190.578 93.8125V97H183.953ZM177.391 84.5469H180.797C181.859 84.5469 182.677 84.3021 183.25 83.8125C183.823 83.3125 184.109 82.5938 184.109 81.6562C184.109 80.6875 183.818 79.9115 183.234 79.3281C182.651 78.7344 181.818 78.4375 180.734 78.4375H177.391V84.5469ZM196.312 97V93.7969L198.688 93.2969V78.5H195.172L195.031 80.9531H190.891V74.25H212.031V80.9531H207.844L207.719 78.5H204.172V93.2969L206.547 93.7969V97H196.312ZM212.859 97V93.7969L215.219 93.2969V77.9688L212.859 77.4688V74.25H223.047V77.4688L220.688 77.9688V93.2969L223.047 93.7969V97H212.859ZM224.297 97V93.7969L226.656 93.2969V77.9688L224.297 77.4688V74.25H243.031V80.9531H238.891L238.781 78.4688H232.141V83.7344H239.875V87.9219H232.141V93.2969L234.5 93.7969V97H224.297ZM240.25 97V93.7969L241.844 93.5625L248.625 74.25H254.562L261.359 93.5625L262.953 93.7969V97H254.453V93.7969L255.938 93.5156L255.25 91.0469H247.938L247.281 93.5156L248.766 93.7969V97H240.25ZM249.094 87.2031H254.078L251.859 80.3125L251.609 79.5156H251.516L251.25 80.3906L249.094 87.2031ZM274.281 97.3281C272.115 97.3281 270.182 96.8906 268.484 96.0156C266.786 95.1406 265.453 93.875 264.484 92.2188C263.516 90.5521 263.031 88.5312 263.031 86.1562V85.1094C263.031 82.9219 263.474 80.9896 264.359 79.3125C265.255 77.625 266.526 76.3073 268.172 75.3594C269.828 74.401 271.792 73.9219 274.062 73.9219C275.646 73.9219 277.151 74.1354 278.578 74.5625C280.016 74.9792 281.349 75.6979 282.578 76.7188V82.5781H278.594L278.047 79.2188C277.693 78.9792 277.318 78.7708 276.922 78.5938C276.536 78.4167 276.12 78.2812 275.672 78.1875C275.234 78.0938 274.76 78.0469 274.25 78.0469C273.094 78.0469 272.083 78.3229 271.219 78.875C270.354 79.4271 269.682 80.2292 269.203 81.2812C268.734 82.3229 268.5 83.5885 268.5 85.0781V86.1562C268.5 87.5521 268.745 88.7812 269.234 89.8438C269.724 90.8958 270.406 91.7188 271.281 92.3125C272.167 92.9062 273.188 93.2031 274.344 93.2031C274.958 93.2031 275.583 93.1406 276.219 93.0156C276.854 92.8802 277.469 92.7031 278.062 92.4844L278.609 89.2656H282.609V95C281.703 95.625 280.547 96.1719 279.141 96.6406C277.734 97.099 276.115 97.3281 274.281 97.3281ZM288.594 97V93.7969L290.969 93.2969V78.5H287.453L287.312 80.9531H283.172V74.25H304.312V80.9531H300.125L300 78.5H296.453V93.2969L298.828 93.7969V97H288.594Z" fill="black" fill-opacity="0.3"/>
<path d="M154.547 438.328C152.766 438.328 151.224 438.047 149.922 437.484C148.63 436.922 147.62 436.062 146.891 434.906C146.172 433.74 145.781 432.255 145.719 430.453L145.75 430.359H150.859C150.964 431.828 151.281 432.818 151.812 433.328C152.354 433.828 153.031 434.078 153.844 434.078C154.312 434.078 154.76 433.974 155.188 433.766C155.625 433.557 155.984 433.224 156.266 432.766C156.547 432.297 156.688 431.688 156.688 430.938V418.969L153.594 418.453V415.25H164.516V418.469L162.141 418.969V430.938C162.141 432.469 161.844 433.786 161.25 434.891C160.656 435.995 159.792 436.844 158.656 437.438C157.531 438.031 156.161 438.328 154.547 438.328ZM176.281 438.328C174.708 438.328 173.26 438.042 171.938 437.469C170.625 436.885 169.484 436.073 168.516 435.031C167.547 433.99 166.797 432.771 166.266 431.375C165.745 429.969 165.484 428.443 165.484 426.797V426.438C165.484 424.802 165.745 423.286 166.266 421.891C166.797 420.495 167.542 419.276 168.5 418.234C169.469 417.193 170.609 416.38 171.922 415.797C173.234 415.214 174.677 414.922 176.25 414.922C177.792 414.922 179.224 415.214 180.547 415.797C181.87 416.38 183.026 417.193 184.016 418.234C185.016 419.276 185.792 420.495 186.344 421.891C186.896 423.286 187.172 424.802 187.172 426.438V426.797C187.172 428.443 186.896 429.969 186.344 431.375C185.792 432.771 185.021 433.99 184.031 435.031C183.042 436.073 181.885 436.885 180.562 437.469C179.24 438.042 177.812 438.328 176.281 438.328ZM176.281 434.172C177.427 434.172 178.406 433.865 179.219 433.25C180.031 432.635 180.651 431.776 181.078 430.672C181.505 429.568 181.719 428.276 181.719 426.797V426.406C181.719 424.958 181.5 423.688 181.062 422.594C180.635 421.49 180.016 420.63 179.203 420.016C178.391 419.401 177.406 419.094 176.25 419.094C175.031 419.094 174.031 419.396 173.25 420C172.479 420.604 171.906 421.453 171.531 422.547C171.156 423.641 170.969 424.927 170.969 426.406V426.797C170.969 428.276 171.156 429.573 171.531 430.688C171.917 431.792 172.5 432.651 173.281 433.266C174.073 433.87 175.073 434.172 176.281 434.172ZM200.375 438.328C198.417 438.328 196.708 438.016 195.25 437.391C193.802 436.755 192.682 435.828 191.891 434.609C191.099 433.391 190.703 431.901 190.703 430.141V418.969L188.359 418.469V415.25H198.547V418.469L196.188 418.969V430.141C196.188 431.057 196.349 431.818 196.672 432.422C196.995 433.016 197.464 433.458 198.078 433.75C198.703 434.042 199.458 434.188 200.344 434.188C201.26 434.188 202.026 434.042 202.641 433.75C203.266 433.458 203.734 433.016 204.047 432.422C204.37 431.818 204.531 431.057 204.531 430.141V418.969L202.188 418.469V415.25H212.375V418.469L210.016 418.969V430.141C210.016 431.87 209.609 433.349 208.797 434.578C207.984 435.797 206.854 436.729 205.406 437.375C203.969 438.01 202.292 438.328 200.375 438.328ZM213.297 438V434.797L215.656 434.297V418.969L213.297 418.469V415.234H224.484C226.286 415.234 227.849 415.521 229.172 416.094C230.495 416.667 231.516 417.484 232.234 418.547C232.953 419.599 233.312 420.849 233.312 422.297C233.312 423.63 232.948 424.87 232.219 426.016C231.5 427.161 230.51 428.083 229.25 428.781C227.99 429.469 226.552 429.807 224.938 429.797L221.141 429.75V434.297L223.5 434.797V438H213.297ZM227.703 438L224.641 429.125L229.406 427.5L232.172 434.266L234.328 434.812V438H227.703ZM221.141 425.547H224.547C225.609 425.547 226.427 425.302 227 424.812C227.573 424.312 227.859 423.594 227.859 422.656C227.859 421.688 227.568 420.911 226.984 420.328C226.401 419.734 225.568 419.438 224.484 419.438H221.141V425.547ZM235.5 438V434.797L237.844 434.297V418.969L235.5 418.469V415.25H237.844H243.422L252.547 429.812H252.641V418.969L249.656 418.469V415.25H257.5H259.859V418.469L257.5 418.969V438H252.094L242.797 423.75H242.703V434.297L245.703 434.797V438H235.5ZM260.703 438V434.797L263.062 434.297V418.969L260.703 418.469V415.25H278.875V421.812H274.734L274.609 419.469H268.547V424.141H275.812V428.344H268.547V433.766H274.906L275.031 431.312H279.125V438H260.703ZM287.438 438V434.797L289.797 434.297V430.5L283.203 418.797L280.828 418.469V415.25H290.672V418.469L289.266 418.719L292.391 424.953L292.75 425.75H292.891L293.266 425L296.922 418.719L294.547 418.469V415.25H304.203V418.469L301.797 418.797L295.266 430.062V434.297L297.641 434.797V438H287.438Z" fill="black" fill-opacity="0.3"/>
</svg>
