<svg width="163" height="191" viewBox="0 0 163 191" fill="none" xmlns="http://www.w3.org/2000/svg">
<path d="M75.7602 6.52497C79.6508 4.27879 84.4476 4.29317 88.3247 6.56262L154.315 45.1898C158.146 47.4323 160.5 51.5384 160.5 55.9775V134.853C160.5 139.285 158.154 143.385 154.333 145.63L88.343 184.409C84.4566 186.693 79.6417 186.708 75.7417 184.447L8.73174 145.608C4.87452 143.372 2.5 139.251 2.5 134.793V56.0374C2.5 51.5715 4.88256 47.4448 8.75016 45.2119L75.7602 6.52497Z" fill="#A74440" stroke="#444444" stroke-width="5"/>
<path d="M100.057 74.8845C99.5034 74.8845 98.968 74.9543 98.4537 75.0902V68.9763C98.4537 64.5781 95.1875 61.003 91.1696 61.003C90.4817 61.003 89.8185 61.1078 89.1908 61.3019C88.8255 57.2103 85.6622 54 81.8286 54C78.3 54 75.3424 56.7173 74.6083 60.3391C73.9381 60.114 73.2253 59.9936 72.4876 59.9936C68.4696 59.9936 65.2035 63.5689 65.2035 67.967V95.354C65.2035 97.9122 64.9588 99.4727 64.7319 100.311C64.5617 100.16 64.3595 99.9618 64.1184 99.6978L60.2529 95.4666C58.1712 93.1879 55.3767 92.0156 52.3765 92.1632C49.7984 92.2913 47.3159 93.3976 45.7342 95.1328C43.4788 97.6017 43.4185 100.979 45.5817 103.347L58.4334 117.415C60.2811 119.437 61.6428 121.836 63.0791 124.371C66.6147 130.601 70.6186 137.666 82.4419 137.988C82.6759 137.996 82.9064 138 83.1405 138C89.5913 138 95.4392 135.535 99.6662 131.02C104.464 125.9 107 118.257 107 108.921V82.4822C107 78.2936 103.886 74.8853 100.06 74.8853L100.057 74.8845ZM101.66 108.925C101.66 116.758 99.7339 122.787 95.9358 126.839C92.5916 130.411 87.8466 132.293 82.5694 132.15C73.6291 131.905 70.9733 127.22 67.6106 121.288C66.0751 118.582 64.4863 115.783 62.2025 113.28L49.4462 99.3163C49.7441 98.963 50.4888 98.3807 51.7194 98.1129C52.5705 97.9266 54.7373 97.7015 56.4679 99.592L60.3334 103.823C62.6172 106.323 64.7912 107.131 66.7948 106.222C69.3446 105.065 70.5327 101.611 70.5327 95.3455V67.9585C70.5327 66.7861 71.4051 65.8273 72.476 65.8273C73.547 65.8273 74.4229 66.7823 74.4229 67.9585V90.5119C74.4229 92.1267 75.618 93.4349 77.0933 93.4349C78.5686 93.4349 79.7637 92.1267 79.7637 90.5119V62.0923C79.7637 60.8501 80.6857 59.8369 81.8241 59.8369C82.9589 59.8369 83.8844 60.8462 83.8844 62.0923V90.8994C83.8844 92.5143 85.0795 93.8225 86.5548 93.8225C88.0301 93.8225 89.2252 92.5143 89.2252 90.8994V68.9711C89.2252 67.7988 90.0976 66.8439 91.1686 66.8439C92.2396 66.8439 93.1154 67.7988 93.1154 68.9711V95.2163C93.1154 96.8312 94.3106 98.1394 95.7858 98.1394C97.2611 98.1394 98.4562 96.8312 98.4562 95.2163V82.4803C98.4562 81.5292 99.1903 80.7257 100.059 80.7257C100.928 80.7257 101.662 81.5292 101.662 82.4803V108.919L101.66 108.925Z" fill="black"/>
</svg>
