<svg width="450" height="512" viewBox="0 0 450 512" fill="none" xmlns="http://www.w3.org/2000/svg">
<g clip-path="url(#clip0_5_811)">
<path d="M212.66 3.35209C220.296 -1.11736 229.704 -1.11737 237.34 3.35209L434.66 118.842C442.296 123.311 447 131.571 447 140.51V371.49C447 380.429 442.296 388.689 434.66 393.158L237.34 508.648C229.704 513.117 220.296 513.117 212.66 508.648L15.3404 393.158C7.70413 388.689 3 380.429 3 371.49V140.51C3 131.571 7.70413 123.311 15.3404 118.842L212.66 3.35209Z" fill="#32ADE6"/>
<path d="M214.68 6.80426C221.068 3.06525 228.932 3.06525 235.32 6.80426L432.639 122.294C439.034 126.037 443 132.974 443 140.51V371.49C443 379.026 439.034 385.963 432.639 389.706L235.32 505.196C228.932 508.935 221.068 508.935 214.68 505.196L17.3609 389.706C10.9662 385.963 7 379.026 7 371.49V140.51C7 132.974 10.9662 126.037 17.3609 122.294L214.68 6.80426Z" stroke="black" stroke-opacity="0.5" stroke-width="8"/>
<rect x="82" y="128" width="286" height="4" rx="2" fill="white" fill-opacity="0.3"/>
<rect x="82" y="380" width="286" height="4" rx="2" fill="white" fill-opacity="0.3"/>
<path d="M187.594 208.188V218.797H181.469L181.141 214.34H173.812V242.395L178.078 243.215V248H161.562V243.215L165.828 242.395V214.34H158.527L158.199 218.797H152.102V208.188H187.594ZM202.113 248.574C197.848 248.574 194.439 247.207 191.887 244.473C189.335 241.738 188.059 238.266 188.059 234.055V232.961C188.059 228.568 189.262 224.949 191.668 222.105C194.092 219.262 197.337 217.849 201.402 217.867C205.395 217.867 208.493 219.07 210.699 221.477C212.905 223.883 214.008 227.137 214.008 231.238V235.586H196.344L196.289 235.75C196.435 237.701 197.082 239.305 198.23 240.562C199.397 241.82 200.974 242.449 202.961 242.449C204.729 242.449 206.197 242.276 207.363 241.93C208.53 241.565 209.806 241 211.191 240.234L213.352 245.156C212.13 246.122 210.544 246.934 208.594 247.59C206.661 248.246 204.501 248.574 202.113 248.574ZM201.402 224.02C199.926 224.02 198.759 224.585 197.902 225.715C197.046 226.845 196.517 228.331 196.316 230.172L196.398 230.309H206.188V229.598C206.188 227.902 205.786 226.553 204.984 225.551C204.201 224.53 203.007 224.02 201.402 224.02ZM236.648 248C236.43 247.508 236.238 247.007 236.074 246.496C235.91 245.967 235.783 245.439 235.691 244.91C234.743 246.004 233.586 246.888 232.219 247.562C230.87 248.237 229.32 248.574 227.57 248.574C224.672 248.574 222.366 247.79 220.652 246.223C218.957 244.637 218.109 242.486 218.109 239.77C218.109 236.999 219.221 234.857 221.445 233.344C223.669 231.831 226.932 231.074 231.234 231.074H235.309V228.176C235.309 226.754 234.898 225.651 234.078 224.867C233.258 224.083 232.046 223.691 230.441 223.691C229.53 223.691 228.719 223.801 228.008 224.02C227.297 224.22 226.723 224.466 226.285 224.758L225.766 227.93H219.75L219.777 221.367C221.236 220.383 222.904 219.553 224.781 218.879C226.677 218.204 228.737 217.867 230.961 217.867C234.625 217.867 237.596 218.77 239.875 220.574C242.172 222.361 243.32 224.913 243.32 228.23V240.453C243.32 240.909 243.32 241.337 243.32 241.738C243.339 242.139 243.375 242.522 243.43 242.887L245.863 243.215V248H236.648ZM229.73 242.668C230.934 242.668 232.027 242.413 233.012 241.902C233.996 241.374 234.762 240.717 235.309 239.934V235.422H231.234C229.539 235.422 228.254 235.823 227.379 236.625C226.504 237.409 226.066 238.357 226.066 239.469C226.066 240.471 226.385 241.255 227.023 241.82C227.68 242.385 228.582 242.668 229.73 242.668ZM247.668 223.227V218.414H259.344L259.672 222.324C260.62 220.902 261.805 219.809 263.227 219.043C264.667 218.259 266.326 217.867 268.203 217.867C270.099 217.867 271.721 218.286 273.07 219.125C274.419 219.964 275.44 221.23 276.133 222.926C277.044 221.34 278.229 220.1 279.688 219.207C281.146 218.314 282.859 217.867 284.828 217.867C287.745 217.867 290.042 218.879 291.719 220.902C293.414 222.908 294.262 225.97 294.262 230.09V242.395L298.117 243.215V248H282.832V243.215L286.277 242.395V230.062C286.277 227.82 285.913 226.262 285.184 225.387C284.454 224.512 283.37 224.074 281.93 224.074C280.799 224.074 279.815 224.329 278.977 224.84C278.156 225.332 277.5 226.025 277.008 226.918C277.008 227.264 277.017 227.565 277.035 227.82C277.053 228.057 277.062 228.303 277.062 228.559V242.395L280.289 243.215V248H265.879V243.215L269.105 242.395V230.062C269.105 227.875 268.741 226.335 268.012 225.441C267.283 224.53 266.189 224.074 264.73 224.074C263.655 224.074 262.707 224.284 261.887 224.703C261.085 225.104 260.419 225.678 259.891 226.426V242.395L263.336 243.215V248H248.078V243.215L251.934 242.395V224.047L247.668 223.227ZM117.047 264.188V274.797H110.922L110.594 270.34H103.266V298.395L107.531 299.215V304H91.0156V299.215L95.2812 298.395V270.34H87.9805L87.6523 274.797H81.5547V264.188H117.047ZM117.676 288.934C117.676 284.522 118.906 280.913 121.367 278.105C123.846 275.28 127.264 273.867 131.621 273.867C135.996 273.867 139.414 275.271 141.875 278.078C144.354 280.885 145.594 284.504 145.594 288.934V289.508C145.594 293.956 144.354 297.583 141.875 300.391C139.414 303.18 136.014 304.574 131.676 304.574C127.283 304.574 123.846 303.18 121.367 300.391C118.906 297.583 117.676 293.956 117.676 289.508V288.934ZM125.66 289.508C125.66 292.206 126.134 294.375 127.082 296.016C128.03 297.638 129.561 298.449 131.676 298.449C133.736 298.449 135.24 297.629 136.188 295.988C137.154 294.348 137.637 292.188 137.637 289.508V288.934C137.637 286.309 137.154 284.167 136.188 282.508C135.221 280.849 133.699 280.02 131.621 280.02C129.543 280.02 128.03 280.849 127.082 282.508C126.134 284.167 125.66 286.309 125.66 288.934V289.508ZM148.465 279.227V274.414H160.059L160.441 277.859C161.316 276.583 162.365 275.599 163.586 274.906C164.807 274.214 166.229 273.867 167.852 273.867C171.516 273.867 174.359 275.298 176.383 278.16C178.406 281.022 179.418 284.786 179.418 289.453V290.027C179.418 294.402 178.406 297.921 176.383 300.582C174.359 303.243 171.534 304.574 167.906 304.574C166.357 304.574 164.98 304.292 163.777 303.727C162.574 303.143 161.544 302.296 160.688 301.184V309.742L164.543 310.562V315.375H148.875V310.562L152.73 309.742V280.047L148.465 279.227ZM171.434 289.453C171.434 286.664 170.969 284.404 170.039 282.672C169.109 280.94 167.688 280.074 165.773 280.074C164.57 280.074 163.54 280.32 162.684 280.812C161.845 281.305 161.18 282.007 160.688 282.918V295.879C161.18 296.717 161.845 297.355 162.684 297.793C163.54 298.23 164.589 298.449 165.828 298.449C167.76 298.449 169.173 297.693 170.066 296.18C170.978 294.667 171.434 292.616 171.434 290.027V289.453ZM182.973 288.934C182.973 284.522 184.203 280.913 186.664 278.105C189.143 275.28 192.561 273.867 196.918 273.867C201.293 273.867 204.711 275.271 207.172 278.078C209.651 280.885 210.891 284.504 210.891 288.934V289.508C210.891 293.956 209.651 297.583 207.172 300.391C204.711 303.18 201.311 304.574 196.973 304.574C192.579 304.574 189.143 303.18 186.664 300.391C184.203 297.583 182.973 293.956 182.973 289.508V288.934ZM190.957 289.508C190.957 292.206 191.431 294.375 192.379 296.016C193.327 297.638 194.858 298.449 196.973 298.449C199.033 298.449 200.536 297.629 201.484 295.988C202.451 294.348 202.934 292.188 202.934 289.508V288.934C202.934 286.309 202.451 284.167 201.484 282.508C200.518 280.849 198.996 280.02 196.918 280.02C194.84 280.02 193.327 280.849 192.379 282.508C191.431 284.167 190.957 286.309 190.957 288.934V289.508ZM212.969 266.156V261.344H225.219V298.395L229.074 299.215V304H213.379V299.215L217.234 298.395V266.977L212.969 266.156ZM231.152 288.934C231.152 284.522 232.383 280.913 234.844 278.105C237.323 275.28 240.741 273.867 245.098 273.867C249.473 273.867 252.891 275.271 255.352 278.078C257.831 280.885 259.07 284.504 259.07 288.934V289.508C259.07 293.956 257.831 297.583 255.352 300.391C252.891 303.18 249.491 304.574 245.152 304.574C240.759 304.574 237.323 303.18 234.844 300.391C232.383 297.583 231.152 293.956 231.152 289.508V288.934ZM239.137 289.508C239.137 292.206 239.611 294.375 240.559 296.016C241.507 297.638 243.038 298.449 245.152 298.449C247.212 298.449 248.716 297.629 249.664 295.988C250.63 294.348 251.113 292.188 251.113 289.508V288.934C251.113 286.309 250.63 284.167 249.664 282.508C248.698 280.849 247.176 280.02 245.098 280.02C243.02 280.02 241.507 280.849 240.559 282.508C239.611 284.167 239.137 286.309 239.137 288.934V289.508ZM263.035 289.453C263.035 284.786 264.047 281.022 266.07 278.16C268.112 275.298 270.965 273.867 274.629 273.867C276.288 273.867 277.746 274.241 279.004 274.988C280.262 275.717 281.337 276.766 282.23 278.133L282.805 274.414H289.75V303.125C289.75 307.026 288.52 310.134 286.059 312.449C283.616 314.783 280.253 315.949 275.969 315.949C274.474 315.949 272.888 315.74 271.211 315.32C269.534 314.919 267.984 314.363 266.562 313.652L268.039 308.047C269.315 308.594 270.591 309.022 271.867 309.332C273.143 309.66 274.492 309.824 275.914 309.824C277.865 309.824 279.323 309.232 280.289 308.047C281.255 306.862 281.738 305.212 281.738 303.098V301.156C280.863 302.268 279.833 303.116 278.648 303.699C277.464 304.283 276.105 304.574 274.574 304.574C270.947 304.574 268.112 303.243 266.07 300.582C264.047 297.902 263.035 294.384 263.035 290.027V289.453ZM271.02 290.027C271.02 292.616 271.457 294.658 272.332 296.152C273.207 297.629 274.629 298.367 276.598 298.367C277.819 298.367 278.849 298.148 279.688 297.711C280.544 297.255 281.228 296.599 281.738 295.742V282.891C281.228 281.997 280.544 281.305 279.688 280.812C278.849 280.32 277.837 280.074 276.652 280.074C274.702 280.074 273.271 280.94 272.359 282.672C271.466 284.404 271.02 286.664 271.02 289.453V290.027ZM294.289 299.215L298.145 298.395V280.047L293.879 279.227V274.414H306.129V298.395L309.957 299.215V304H294.289V299.215ZM306.129 267.332H298.145V261.344H306.129V267.332ZM326.746 304.574C322.48 304.574 319.072 303.207 316.52 300.473C313.967 297.738 312.691 294.266 312.691 290.055V288.961C312.691 284.568 313.895 280.949 316.301 278.105C318.725 275.262 321.97 273.849 326.035 273.867C330.027 273.867 333.126 275.07 335.332 277.477C337.538 279.883 338.641 283.137 338.641 287.238V291.586H320.977L320.922 291.75C321.068 293.701 321.715 295.305 322.863 296.562C324.03 297.82 325.607 298.449 327.594 298.449C329.362 298.449 330.829 298.276 331.996 297.93C333.163 297.565 334.439 297 335.824 296.234L337.984 301.156C336.763 302.122 335.177 302.934 333.227 303.59C331.294 304.246 329.134 304.574 326.746 304.574ZM326.035 280.02C324.559 280.02 323.392 280.585 322.535 281.715C321.678 282.845 321.15 284.331 320.949 286.172L321.031 286.309H330.82V285.598C330.82 283.902 330.419 282.553 329.617 281.551C328.833 280.53 327.639 280.02 326.035 280.02ZM366.586 284.586H361.227L360.379 280.895C359.832 280.457 359.139 280.092 358.301 279.801C357.48 279.509 356.569 279.363 355.566 279.363C354.163 279.363 353.051 279.682 352.23 280.32C351.41 280.94 351 281.724 351 282.672C351 283.565 351.392 284.312 352.176 284.914C352.96 285.497 354.527 286.017 356.879 286.473C360.543 287.202 363.259 288.277 365.027 289.699C366.796 291.103 367.68 293.044 367.68 295.523C367.68 298.185 366.531 300.363 364.234 302.059C361.956 303.736 358.948 304.574 355.211 304.574C352.932 304.574 350.836 304.246 348.922 303.59C347.026 302.915 345.34 301.958 343.863 300.719L343.781 294.074H349.359L350.453 297.93C350.927 298.331 351.574 298.632 352.395 298.832C353.215 299.014 354.072 299.105 354.965 299.105C356.587 299.105 357.818 298.814 358.656 298.23C359.513 297.647 359.941 296.854 359.941 295.852C359.941 294.977 359.513 294.22 358.656 293.582C357.799 292.944 356.223 292.379 353.926 291.887C350.444 291.176 347.81 290.128 346.023 288.742C344.255 287.339 343.371 285.434 343.371 283.027C343.371 280.548 344.392 278.415 346.434 276.629C348.475 274.824 351.383 273.922 355.156 273.922C357.453 273.922 359.622 274.232 361.664 274.852C363.724 275.471 365.337 276.264 366.504 277.23L366.586 284.586Z" fill="white"/>
<path d="M113.078 107V103.797L115.438 103.297V87.9688L113.078 87.4688V84.25H131.812V90.9531H127.672L127.562 88.4688H120.922V93.7344H128.656V97.9219H120.922V103.297L123.281 103.797V107H113.078ZM132.953 107V103.797L135.312 103.297V87.9688L132.953 87.4688V84.2344H144.141C145.943 84.2344 147.505 84.5208 148.828 85.0938C150.151 85.6667 151.172 86.4844 151.891 87.5469C152.609 88.599 152.969 89.849 152.969 91.2969C152.969 92.6302 152.604 93.8698 151.875 95.0156C151.156 96.1615 150.167 97.0833 148.906 97.7812C147.646 98.4688 146.208 98.8073 144.594 98.7969L140.797 98.75V103.297L143.156 103.797V107H132.953ZM147.359 107L144.297 98.125L149.062 96.5L151.828 103.266L153.984 103.812V107H147.359ZM140.797 94.5469H144.203C145.266 94.5469 146.083 94.3021 146.656 93.8125C147.229 93.3125 147.516 92.5938 147.516 91.6562C147.516 90.6875 147.224 89.9115 146.641 89.3281C146.057 88.7344 145.224 88.4375 144.141 88.4375H140.797V94.5469ZM154.906 107V103.797L156.5 103.562L163.281 84.25H169.219L176.016 103.562L177.609 103.797V107H169.109V103.797L170.594 103.516L169.906 101.047H162.594L161.938 103.516L163.422 103.797V107H154.906ZM163.75 97.2031H168.734L166.516 90.3125L166.266 89.5156H166.172L165.906 90.3906L163.75 97.2031ZM178.484 107V103.797L180.828 103.297V87.9688L178.484 87.4688V84.25H180.828H189.219L194.719 99.2344H194.812L200.156 84.25H210.766V87.4688L208.406 87.9688V103.297L210.766 103.797V107H200.578V103.797L203.031 103.297V100.328L203.156 89.625L203.062 89.6094L196.625 107H192.312L185.781 89.8125L185.672 89.8281L186.047 99.5781V103.297L188.688 103.797V107H178.484ZM211.703 107V103.797L214.062 103.297V87.9688L211.703 87.4688V84.25H229.875V90.8125H225.734L225.609 88.4688H219.547V93.1406H226.812V97.3438H219.547V102.766H225.906L226.031 100.312H230.125V107H211.703ZM239.547 107L234.297 87.7031L231.719 87.4688V84.25H241.984V87.4688L239.453 87.8281L241.938 98L242.297 99.4688H242.391L242.766 97.9844L247.219 84.25H251L255.688 98.625L256.016 99.6094H256.109L256.375 98.625L259.031 87.8281L256.422 87.4688V84.25H266.484V87.4688L264.062 87.7031L258.578 107H253.688L249.766 95.2344L249.281 93.6094H249.188L248.578 95.3281L244.594 107H239.547ZM278.969 107.328C277.396 107.328 275.948 107.042 274.625 106.469C273.312 105.885 272.172 105.073 271.203 104.031C270.234 102.99 269.484 101.771 268.953 100.375C268.432 98.9688 268.172 97.4427 268.172 95.7969V95.4375C268.172 93.8021 268.432 92.2865 268.953 90.8906C269.484 89.4948 270.229 88.276 271.188 87.2344C272.156 86.1927 273.297 85.3802 274.609 84.7969C275.922 84.2135 277.365 83.9219 278.938 83.9219C280.479 83.9219 281.911 84.2135 283.234 84.7969C284.557 85.3802 285.714 86.1927 286.703 87.2344C287.703 88.276 288.479 89.4948 289.031 90.8906C289.583 92.2865 289.859 93.8021 289.859 95.4375V95.7969C289.859 97.4427 289.583 98.9688 289.031 100.375C288.479 101.771 287.708 102.99 286.719 104.031C285.729 105.073 284.573 105.885 283.25 106.469C281.927 107.042 280.5 107.328 278.969 107.328ZM278.969 103.172C280.115 103.172 281.094 102.865 281.906 102.25C282.719 101.635 283.339 100.776 283.766 99.6719C284.193 98.5677 284.406 97.276 284.406 95.7969V95.4062C284.406 93.9583 284.188 92.6875 283.75 91.5938C283.323 90.4896 282.703 89.6302 281.891 89.0156C281.078 88.401 280.094 88.0938 278.938 88.0938C277.719 88.0938 276.719 88.3958 275.938 89C275.167 89.6042 274.594 90.4531 274.219 91.5469C273.844 92.6406 273.656 93.9271 273.656 95.4062V95.7969C273.656 97.276 273.844 98.5729 274.219 99.6875C274.604 100.792 275.188 101.651 275.969 102.266C276.76 102.87 277.76 103.172 278.969 103.172ZM291.359 107V103.797L293.719 103.297V87.9688L291.359 87.4688V84.2344H302.547C304.349 84.2344 305.911 84.5208 307.234 85.0938C308.557 85.6667 309.578 86.4844 310.297 87.5469C311.016 88.599 311.375 89.849 311.375 91.2969C311.375 92.6302 311.01 93.8698 310.281 95.0156C309.562 96.1615 308.573 97.0833 307.312 97.7812C306.052 98.4688 304.615 98.8073 303 98.7969L299.203 98.75V103.297L301.562 103.797V107H291.359ZM305.766 107L302.703 98.125L307.469 96.5L310.234 103.266L312.391 103.812V107H305.766ZM299.203 94.5469H302.609C303.672 94.5469 304.49 94.3021 305.062 93.8125C305.635 93.3125 305.922 92.5938 305.922 91.6562C305.922 90.6875 305.63 89.9115 305.047 89.3281C304.464 88.7344 303.63 88.4375 302.547 88.4375H299.203V94.5469ZM320 102.047L317.203 98.8438L328.547 87.6719L328.562 87.6406L325.984 87.4688V84.25H336.609V87.4688L334.469 87.9219L320 102.047ZM313.578 107V103.797L315.938 103.297V87.9688L313.578 87.4688V84.25H323.578V87.4688L321.422 87.9688V103.297L323.578 103.797V107H313.578ZM326.469 107V103.797L328.75 103.625H328.781L323.312 96.1406L327.141 92.75L335.109 103.406L337.438 103.797V107H326.469Z" fill="black" fill-opacity="0.3"/>
</g>
<defs>
<clipPath id="clip0_5_811">
<rect width="450" height="512" fill="white"/>
</clipPath>
</defs>
</svg>
