<svg width="450" height="512" viewBox="0 0 450 512" fill="none" xmlns="http://www.w3.org/2000/svg">
<g clip-path="url(#clip0_1_443)">
<path d="M212.66 3.35209C220.296 -1.11736 229.704 -1.11737 237.34 3.35209L434.66 118.842C442.296 123.311 447 131.571 447 140.51V371.49C447 380.429 442.296 388.689 434.66 393.158L237.34 508.648C229.704 513.117 220.296 513.117 212.66 508.648L15.3404 393.158C7.70413 388.689 3 380.429 3 371.49V140.51C3 131.571 7.70413 123.311 15.3404 118.842L212.66 3.35209Z" fill="#00C2FF"/>
<path d="M214.68 6.80426C221.068 3.06525 228.932 3.06525 235.32 6.80426L432.639 122.294C439.034 126.037 443 132.974 443 140.51V371.49C443 379.026 439.034 385.963 432.639 389.706L235.32 505.196C228.932 508.935 221.068 508.935 214.68 505.196L17.3609 389.706C10.9662 385.963 7 379.026 7 371.49V140.51C7 132.974 10.9662 126.037 17.3609 122.294L214.68 6.80426Z" stroke="black" stroke-opacity="0.5" stroke-width="8"/>
<path d="M407 146C407 141.582 410.582 138 415 138C419.418 138 423 141.582 423 146V174.8H407V146Z" fill="black" fill-opacity="0.15"/>
<rect x="407" y="176.8" width="16" height="36.8" fill="black" fill-opacity="0.15"/>
<rect x="407" y="215.6" width="16" height="36.8" fill="white" fill-opacity="0.75"/>
<rect x="407" y="254.4" width="16" height="36.8" fill="white" fill-opacity="0.75"/>
<path d="M407 293.2H423V322C423 326.418 419.418 330 415 330C410.582 330 407 326.418 407 322V293.2Z" fill="white" fill-opacity="0.75"/>
<path d="M28 146C28 141.582 31.5817 138 36 138C40.4183 138 44 141.582 44 146V174.8H28V146Z" fill="black" fill-opacity="0.15"/>
<rect x="28" y="176.8" width="16" height="36.8" fill="black" fill-opacity="0.15"/>
<rect x="28" y="215.6" width="16" height="36.8" fill="white" fill-opacity="0.75"/>
<rect x="28" y="254.4" width="16" height="36.8" fill="white" fill-opacity="0.75"/>
<path d="M28 293.2H44V322C44 326.418 40.4183 330 36 330C31.5817 330 28 326.418 28 322V293.2Z" fill="white" fill-opacity="0.75"/>
<path d="M40.588 363.76L38 362.008V359.992L40.588 358.24C42.716 356.801 44 354.325 44 351.665V349H28V351.665C28 354.325 29.284 356.801 31.412 358.24L34 359.992V362.008L31.412 363.76C29.284 365.199 28 367.675 28 370.335V373H44V370.335C44 367.675 42.716 365.199 40.588 363.76Z" fill="white" fill-opacity="0.75"/>
<path fill-rule="evenodd" clip-rule="evenodd" d="M423.788 358.193L426.539 357.7L427 360.356L424.266 360.845C424.268 360.892 424.274 360.936 424.281 360.981C424.288 361.032 424.295 361.083 424.295 361.135C424.292 362.334 424.062 363.521 423.619 364.631L426.014 366.035L424.686 368.371L422.268 366.953C421.481 367.965 420.498 368.802 419.38 369.412L420.335 372.078L417.84 373L416.899 370.374C415.646 370.641 414.354 370.641 413.101 370.374L412.16 373L409.665 372.078L410.62 369.412C409.502 368.802 408.519 367.965 407.732 366.953L405.314 368.371L403.986 366.035L406.381 364.631C405.938 363.521 405.708 362.334 405.705 361.135C405.705 361.083 405.712 361.032 405.719 360.982C405.726 360.937 405.732 360.892 405.734 360.846L403 360.356L403.461 357.7L406.212 358.193C406.607 356.967 407.247 355.837 408.092 354.874L406.301 352.706L408.335 350.973L410.121 353.134C411.204 352.455 412.413 352.012 413.672 351.833V349H416.328V351.833C417.588 352.012 418.797 352.455 419.879 353.134L421.665 350.972L423.699 352.706L421.908 354.874C422.753 355.837 423.393 356.967 423.788 358.193ZM415.185 363C416.289 363 417.185 362.105 417.185 361C417.185 359.895 416.289 359 415.185 359C414.08 359 413.185 359.895 413.185 361C413.185 362.105 414.08 363 415.185 363Z" fill="white" fill-opacity="0.75"/>
<rect x="82" y="128" width="286" height="4" rx="2" fill="white" fill-opacity="0.3"/>
<rect x="82" y="380" width="286" height="4" rx="2" fill="white" fill-opacity="0.3"/>
<path d="M102.09 208.188V213L97.8242 213.82V234.602C97.8242 237.227 98.526 239.195 99.9297 240.508C101.352 241.802 103.293 242.449 105.754 242.449C108.251 242.449 110.211 241.802 111.633 240.508C113.055 239.214 113.766 237.245 113.766 234.602V213.82L109.527 213V208.188H126.016V213L121.75 213.82V234.602C121.75 239.068 120.273 242.513 117.32 244.938C114.385 247.362 110.53 248.574 105.754 248.574C100.996 248.574 97.1497 247.362 94.2148 244.938C91.2982 242.513 89.8398 239.068 89.8398 234.602V213.82L85.6016 213V208.188H89.8398H97.8242H102.09ZM152.73 228.586H147.371L146.523 224.895C145.977 224.457 145.284 224.092 144.445 223.801C143.625 223.509 142.714 223.363 141.711 223.363C140.307 223.363 139.195 223.682 138.375 224.32C137.555 224.94 137.145 225.724 137.145 226.672C137.145 227.565 137.536 228.312 138.32 228.914C139.104 229.497 140.672 230.017 143.023 230.473C146.688 231.202 149.404 232.277 151.172 233.699C152.94 235.103 153.824 237.044 153.824 239.523C153.824 242.185 152.676 244.363 150.379 246.059C148.1 247.736 145.092 248.574 141.355 248.574C139.077 248.574 136.98 248.246 135.066 247.59C133.171 246.915 131.484 245.958 130.008 244.719L129.926 238.074H135.504L136.598 241.93C137.072 242.331 137.719 242.632 138.539 242.832C139.359 243.014 140.216 243.105 141.109 243.105C142.732 243.105 143.962 242.814 144.801 242.23C145.658 241.647 146.086 240.854 146.086 239.852C146.086 238.977 145.658 238.22 144.801 237.582C143.944 236.944 142.367 236.379 140.07 235.887C136.589 235.176 133.954 234.128 132.168 232.742C130.4 231.339 129.516 229.434 129.516 227.027C129.516 224.548 130.536 222.415 132.578 220.629C134.62 218.824 137.527 217.922 141.301 217.922C143.598 217.922 145.767 218.232 147.809 218.852C149.868 219.471 151.482 220.264 152.648 221.23L152.73 228.586ZM171.57 248.574C167.305 248.574 163.896 247.207 161.344 244.473C158.792 241.738 157.516 238.266 157.516 234.055V232.961C157.516 228.568 158.719 224.949 161.125 222.105C163.549 219.262 166.794 217.849 170.859 217.867C174.852 217.867 177.951 219.07 180.156 221.477C182.362 223.883 183.465 227.137 183.465 231.238V235.586H165.801L165.746 235.75C165.892 237.701 166.539 239.305 167.688 240.562C168.854 241.82 170.431 242.449 172.418 242.449C174.186 242.449 175.654 242.276 176.82 241.93C177.987 241.565 179.263 241 180.648 240.234L182.809 245.156C181.587 246.122 180.001 246.934 178.051 247.59C176.118 248.246 173.958 248.574 171.57 248.574ZM170.859 224.02C169.383 224.02 168.216 224.585 167.359 225.715C166.503 226.845 165.974 228.331 165.773 230.172L165.855 230.309H175.645V229.598C175.645 227.902 175.243 226.553 174.441 225.551C173.658 224.53 172.464 224.02 170.859 224.02ZM187.867 243.215L191.695 242.395V224.047L187.457 223.227V218.414H199.133L199.488 222.734C200.181 221.203 201.074 220.009 202.168 219.152C203.262 218.296 204.529 217.867 205.969 217.867C206.388 217.867 206.826 217.904 207.281 217.977C207.755 218.031 208.147 218.104 208.457 218.195L207.609 225.469L204.328 225.387C203.161 225.387 202.195 225.615 201.43 226.07C200.664 226.526 200.081 227.173 199.68 228.012V242.395L203.508 243.215V248H187.867V243.215ZM254.613 220.902H248.625L247.586 215.434C246.893 214.996 245.882 214.613 244.551 214.285C243.22 213.957 241.807 213.793 240.312 213.793C238.125 213.793 236.43 214.258 235.227 215.188C234.042 216.099 233.449 217.284 233.449 218.742C233.449 220.091 234.069 221.203 235.309 222.078C236.566 222.935 238.727 223.846 241.789 224.812C246.182 226.034 249.509 227.647 251.77 229.652C254.048 231.658 255.188 234.292 255.188 237.555C255.188 240.964 253.839 243.652 251.141 245.621C248.443 247.59 244.888 248.574 240.477 248.574C237.323 248.574 234.47 248.073 231.918 247.07C229.384 246.068 227.27 244.682 225.574 242.914V234.602H231.754L232.602 240.262C233.404 240.918 234.488 241.465 235.855 241.902C237.241 242.322 238.781 242.531 240.477 242.531C242.664 242.531 244.323 242.085 245.453 241.191C246.602 240.298 247.176 239.104 247.176 237.609C247.176 236.078 246.629 234.848 245.535 233.918C244.46 232.988 242.564 232.113 239.848 231.293C235.126 229.926 231.553 228.303 229.129 226.426C226.704 224.548 225.492 221.978 225.492 218.715C225.492 215.488 226.859 212.854 229.594 210.812C232.328 208.753 235.764 207.695 239.902 207.641C242.965 207.641 245.754 208.105 248.27 209.035C250.785 209.965 252.9 211.204 254.613 212.754V220.902ZM270.309 211.168V218.414H275.504V224.02H270.309V239.086C270.309 240.234 270.546 241.055 271.02 241.547C271.493 242.039 272.132 242.285 272.934 242.285C273.48 242.285 273.954 242.267 274.355 242.23C274.775 242.176 275.24 242.094 275.75 241.984L276.434 247.754C275.54 248.027 274.656 248.228 273.781 248.355C272.906 248.501 271.958 248.574 270.938 248.574C268.185 248.574 266.061 247.818 264.566 246.305C263.09 244.792 262.352 242.395 262.352 239.113V224.02H258.004V218.414H262.352V211.168H270.309ZM278.594 232.934C278.594 228.522 279.824 224.913 282.285 222.105C284.764 219.28 288.182 217.867 292.539 217.867C296.914 217.867 300.332 219.271 302.793 222.078C305.272 224.885 306.512 228.504 306.512 232.934V233.508C306.512 237.956 305.272 241.583 302.793 244.391C300.332 247.18 296.932 248.574 292.594 248.574C288.201 248.574 284.764 247.18 282.285 244.391C279.824 241.583 278.594 237.956 278.594 233.508V232.934ZM286.578 233.508C286.578 236.206 287.052 238.375 288 240.016C288.948 241.638 290.479 242.449 292.594 242.449C294.654 242.449 296.158 241.629 297.105 239.988C298.072 238.348 298.555 236.188 298.555 233.508V232.934C298.555 230.309 298.072 228.167 297.105 226.508C296.139 224.849 294.617 224.02 292.539 224.02C290.461 224.02 288.948 224.849 288 226.508C287.052 228.167 286.578 230.309 286.578 232.934V233.508ZM310.586 243.215L314.414 242.395V224.047L310.176 223.227V218.414H321.852L322.207 222.734C322.9 221.203 323.793 220.009 324.887 219.152C325.98 218.296 327.247 217.867 328.688 217.867C329.107 217.867 329.544 217.904 330 217.977C330.474 218.031 330.866 218.104 331.176 218.195L330.328 225.469L327.047 225.387C325.88 225.387 324.914 225.615 324.148 226.07C323.383 226.526 322.799 227.173 322.398 228.012V242.395L326.227 243.215V248H310.586V243.215ZM364.672 223.227L361.91 223.637L351.027 252.43C350.171 254.562 349.022 256.349 347.582 257.789C346.16 259.229 344.009 259.949 341.129 259.949C340.454 259.949 339.816 259.895 339.215 259.785C338.632 259.676 337.939 259.521 337.137 259.32L338.066 253.496C338.322 253.533 338.586 253.569 338.859 253.605C339.133 253.642 339.37 253.66 339.57 253.66C340.901 253.66 341.922 253.332 342.633 252.676C343.344 252.038 343.891 251.236 344.273 250.27L345.176 248.027L335.797 223.664L333.035 223.227V218.414H347.527V223.227L344.219 223.773L348.266 235.586L348.676 237.719L348.84 237.746L353.516 223.773L350.18 223.227V218.414H364.672V223.227ZM146.605 274.551L146.441 274.523L135.777 304H130.418L119.809 274.633L119.645 274.66L120.41 292.133V298.395L124.676 299.215V304H108.188V299.215L112.426 298.395V269.82L108.188 269V264.188H112.426H122.844L132.988 293.527H133.152L143.379 264.188H158.09V269L153.824 269.82V298.395L158.09 299.215V304H141.602V299.215L145.84 298.395V292.133L146.605 274.551ZM179.992 304C179.773 303.508 179.582 303.007 179.418 302.496C179.254 301.967 179.126 301.439 179.035 300.91C178.087 302.004 176.93 302.888 175.562 303.562C174.214 304.237 172.664 304.574 170.914 304.574C168.016 304.574 165.71 303.79 163.996 302.223C162.301 300.637 161.453 298.486 161.453 295.77C161.453 292.999 162.565 290.857 164.789 289.344C167.013 287.831 170.276 287.074 174.578 287.074H178.652V284.176C178.652 282.754 178.242 281.651 177.422 280.867C176.602 280.083 175.389 279.691 173.785 279.691C172.874 279.691 172.062 279.801 171.352 280.02C170.641 280.22 170.066 280.466 169.629 280.758L169.109 283.93H163.094L163.121 277.367C164.579 276.383 166.247 275.553 168.125 274.879C170.021 274.204 172.081 273.867 174.305 273.867C177.969 273.867 180.94 274.77 183.219 276.574C185.516 278.361 186.664 280.913 186.664 284.23V296.453C186.664 296.909 186.664 297.337 186.664 297.738C186.682 298.139 186.719 298.522 186.773 298.887L189.207 299.215V304H179.992ZM173.074 298.668C174.277 298.668 175.371 298.413 176.355 297.902C177.34 297.374 178.105 296.717 178.652 295.934V291.422H174.578C172.883 291.422 171.598 291.823 170.723 292.625C169.848 293.409 169.41 294.357 169.41 295.469C169.41 296.471 169.729 297.255 170.367 297.82C171.023 298.385 171.926 298.668 173.074 298.668ZM191.34 279.227V274.414H202.934L203.316 277.859C204.191 276.583 205.24 275.599 206.461 274.906C207.682 274.214 209.104 273.867 210.727 273.867C214.391 273.867 217.234 275.298 219.258 278.16C221.281 281.022 222.293 284.786 222.293 289.453V290.027C222.293 294.402 221.281 297.921 219.258 300.582C217.234 303.243 214.409 304.574 210.781 304.574C209.232 304.574 207.855 304.292 206.652 303.727C205.449 303.143 204.419 302.296 203.562 301.184V309.742L207.418 310.562V315.375H191.75V310.562L195.605 309.742V280.047L191.34 279.227ZM214.309 289.453C214.309 286.664 213.844 284.404 212.914 282.672C211.984 280.94 210.562 280.074 208.648 280.074C207.445 280.074 206.415 280.32 205.559 280.812C204.72 281.305 204.055 282.007 203.562 282.918V295.879C204.055 296.717 204.72 297.355 205.559 297.793C206.415 298.23 207.464 298.449 208.703 298.449C210.635 298.449 212.048 297.693 212.941 296.18C213.853 294.667 214.309 292.616 214.309 290.027V289.453ZM225.246 279.227V274.414H236.84L237.223 277.859C238.098 276.583 239.146 275.599 240.367 274.906C241.589 274.214 243.01 273.867 244.633 273.867C248.297 273.867 251.141 275.298 253.164 278.16C255.188 281.022 256.199 284.786 256.199 289.453V290.027C256.199 294.402 255.188 297.921 253.164 300.582C251.141 303.243 248.315 304.574 244.688 304.574C243.138 304.574 241.762 304.292 240.559 303.727C239.355 303.143 238.326 302.296 237.469 301.184V309.742L241.324 310.562V315.375H225.656V310.562L229.512 309.742V280.047L225.246 279.227ZM248.215 289.453C248.215 286.664 247.75 284.404 246.82 282.672C245.891 280.94 244.469 280.074 242.555 280.074C241.352 280.074 240.322 280.32 239.465 280.812C238.626 281.305 237.961 282.007 237.469 282.918V295.879C237.961 296.717 238.626 297.355 239.465 297.793C240.322 298.23 241.37 298.449 242.609 298.449C244.542 298.449 245.954 297.693 246.848 296.18C247.759 294.667 248.215 292.616 248.215 290.027V289.453ZM259.508 299.215L263.363 298.395V280.047L259.098 279.227V274.414H271.348V298.395L275.176 299.215V304H259.508V299.215ZM271.348 267.332H263.363V261.344H271.348V267.332ZM277.363 299.215L281.191 298.395V280.047L276.953 279.227V274.414H288.629L288.984 278.652C289.969 277.139 291.181 275.964 292.621 275.125C294.061 274.286 295.674 273.867 297.461 273.867C300.451 273.867 302.784 274.806 304.461 276.684C306.138 278.561 306.977 281.505 306.977 285.516V298.395L310.805 299.215V304H295.547V299.215L298.965 298.395V285.543C298.965 283.556 298.564 282.152 297.762 281.332C296.96 280.493 295.747 280.074 294.125 280.074C293.068 280.074 292.12 280.293 291.281 280.73C290.443 281.15 289.741 281.751 289.176 282.535V298.395L292.402 299.215V304H277.363V299.215ZM313.566 289.453C313.566 284.786 314.578 281.022 316.602 278.16C318.643 275.298 321.496 273.867 325.16 273.867C326.819 273.867 328.277 274.241 329.535 274.988C330.793 275.717 331.868 276.766 332.762 278.133L333.336 274.414H340.281V303.125C340.281 307.026 339.051 310.134 336.59 312.449C334.147 314.783 330.784 315.949 326.5 315.949C325.005 315.949 323.419 315.74 321.742 315.32C320.065 314.919 318.516 314.363 317.094 313.652L318.57 308.047C319.846 308.594 321.122 309.022 322.398 309.332C323.674 309.66 325.023 309.824 326.445 309.824C328.396 309.824 329.854 309.232 330.82 308.047C331.786 306.862 332.27 305.212 332.27 303.098V301.156C331.395 302.268 330.365 303.116 329.18 303.699C327.995 304.283 326.637 304.574 325.105 304.574C321.478 304.574 318.643 303.243 316.602 300.582C314.578 297.902 313.566 294.384 313.566 290.027V289.453ZM321.551 290.027C321.551 292.616 321.988 294.658 322.863 296.152C323.738 297.629 325.16 298.367 327.129 298.367C328.35 298.367 329.38 298.148 330.219 297.711C331.076 297.255 331.759 296.599 332.27 295.742V282.891C331.759 281.997 331.076 281.305 330.219 280.812C329.38 280.32 328.368 280.074 327.184 280.074C325.233 280.074 323.802 280.94 322.891 282.672C321.997 284.404 321.551 286.664 321.551 289.453V290.027Z" fill="white"/>
<path d="M149.688 107V103.797L152.047 103.297V87.9688L149.688 87.4688V84.25H152.047H160.75C162.562 84.25 164.135 84.5677 165.469 85.2031C166.802 85.8385 167.828 86.724 168.547 87.8594C169.276 88.9844 169.641 90.2969 169.641 91.7969C169.641 93.2969 169.276 94.6094 168.547 95.7344C167.828 96.8594 166.802 97.7344 165.469 98.3594C164.135 98.9844 162.562 99.2969 160.75 99.2969H157.531V103.297L159.891 103.797V107H149.688ZM157.531 95.0938H160.75C161.865 95.0938 162.708 94.7917 163.281 94.1875C163.865 93.5729 164.156 92.7865 164.156 91.8281C164.156 90.8385 163.865 90.026 163.281 89.3906C162.708 88.7552 161.865 88.4375 160.75 88.4375H157.531V95.0938ZM170.656 107V103.797L173.016 103.297V87.9688L170.656 87.4688V84.2344H181.844C183.646 84.2344 185.208 84.5208 186.531 85.0938C187.854 85.6667 188.875 86.4844 189.594 87.5469C190.312 88.599 190.672 89.849 190.672 91.2969C190.672 92.6302 190.307 93.8698 189.578 95.0156C188.859 96.1615 187.87 97.0833 186.609 97.7812C185.349 98.4688 183.911 98.8073 182.297 98.7969L178.5 98.75V103.297L180.859 103.797V107H170.656ZM185.062 107L182 98.125L186.766 96.5L189.531 103.266L191.688 103.812V107H185.062ZM178.5 94.5469H181.906C182.969 94.5469 183.786 94.3021 184.359 93.8125C184.932 93.3125 185.219 92.5938 185.219 91.6562C185.219 90.6875 184.927 89.9115 184.344 89.3281C183.76 88.7344 182.927 88.4375 181.844 88.4375H178.5V94.5469ZM204.016 107.328C202.443 107.328 200.995 107.042 199.672 106.469C198.359 105.885 197.219 105.073 196.25 104.031C195.281 102.99 194.531 101.771 194 100.375C193.479 98.9688 193.219 97.4427 193.219 95.7969V95.4375C193.219 93.8021 193.479 92.2865 194 90.8906C194.531 89.4948 195.276 88.276 196.234 87.2344C197.203 86.1927 198.344 85.3802 199.656 84.7969C200.969 84.2135 202.411 83.9219 203.984 83.9219C205.526 83.9219 206.958 84.2135 208.281 84.7969C209.604 85.3802 210.76 86.1927 211.75 87.2344C212.75 88.276 213.526 89.4948 214.078 90.8906C214.63 92.2865 214.906 93.8021 214.906 95.4375V95.7969C214.906 97.4427 214.63 98.9688 214.078 100.375C213.526 101.771 212.755 102.99 211.766 104.031C210.776 105.073 209.62 105.885 208.297 106.469C206.974 107.042 205.547 107.328 204.016 107.328ZM204.016 103.172C205.161 103.172 206.141 102.865 206.953 102.25C207.766 101.635 208.385 100.776 208.812 99.6719C209.24 98.5677 209.453 97.276 209.453 95.7969V95.4062C209.453 93.9583 209.234 92.6875 208.797 91.5938C208.37 90.4896 207.75 89.6302 206.938 89.0156C206.125 88.401 205.141 88.0938 203.984 88.0938C202.766 88.0938 201.766 88.3958 200.984 89C200.214 89.6042 199.641 90.4531 199.266 91.5469C198.891 92.6406 198.703 93.9271 198.703 95.4062V95.7969C198.703 97.276 198.891 98.5729 199.266 99.6875C199.651 100.792 200.234 101.651 201.016 102.266C201.807 102.87 202.807 103.172 204.016 103.172ZM227.578 107.328C225.411 107.328 223.479 106.891 221.781 106.016C220.083 105.141 218.75 103.875 217.781 102.219C216.812 100.552 216.328 98.5312 216.328 96.1562V95.1094C216.328 92.9219 216.771 90.9896 217.656 89.3125C218.552 87.625 219.823 86.3073 221.469 85.3594C223.125 84.401 225.089 83.9219 227.359 83.9219C228.943 83.9219 230.448 84.1354 231.875 84.5625C233.312 84.9792 234.646 85.6979 235.875 86.7188V92.5781H231.891L231.344 89.2188C230.99 88.9792 230.615 88.7708 230.219 88.5938C229.833 88.4167 229.417 88.2812 228.969 88.1875C228.531 88.0938 228.057 88.0469 227.547 88.0469C226.391 88.0469 225.38 88.3229 224.516 88.875C223.651 89.4271 222.979 90.2292 222.5 91.2812C222.031 92.3229 221.797 93.5885 221.797 95.0781V96.1562C221.797 97.5521 222.042 98.7812 222.531 99.8438C223.021 100.896 223.703 101.719 224.578 102.312C225.464 102.906 226.484 103.203 227.641 103.203C228.255 103.203 228.88 103.141 229.516 103.016C230.151 102.88 230.766 102.703 231.359 102.484L231.906 99.2656H235.906V105C235 105.625 233.844 106.172 232.438 106.641C231.031 107.099 229.411 107.328 227.578 107.328ZM237.344 107V103.797L239.703 103.297V87.9688L237.344 87.4688V84.25H255.516V90.8125H251.375L251.25 88.4688H245.188V93.1406H252.453V97.3438H245.188V102.766H251.547L251.672 100.312H255.766V107H237.344ZM267.766 107.328C265.911 107.328 264.266 107.151 262.828 106.797C261.391 106.443 259.958 105.776 258.531 104.797V98.8906H262.766L263.234 101.922C263.568 102.297 264.156 102.615 265 102.875C265.844 103.125 266.766 103.25 267.766 103.25C268.464 103.25 269.047 103.167 269.516 103C269.984 102.823 270.339 102.568 270.578 102.234C270.818 101.901 270.938 101.5 270.938 101.031C270.938 100.583 270.823 100.182 270.594 99.8281C270.375 99.474 270.01 99.1406 269.5 98.8281C268.99 98.5052 268.302 98.1771 267.438 97.8438C265.49 97.2188 263.891 96.5833 262.641 95.9375C261.391 95.2917 260.458 94.526 259.844 93.6406C259.24 92.7552 258.938 91.6562 258.938 90.3438C258.938 89.0833 259.297 87.9844 260.016 87.0469C260.734 86.099 261.724 85.3542 262.984 84.8125C264.245 84.2708 265.688 83.9844 267.312 83.9531C269.167 83.9115 270.807 84.099 272.234 84.5156C273.661 84.9219 274.922 85.5417 276.016 86.375V91.8594H271.953L271.312 88.8125C270.958 88.6354 270.453 88.474 269.797 88.3281C269.141 88.1823 268.443 88.1094 267.703 88.1094C267.068 88.1094 266.5 88.1927 266 88.3594C265.51 88.526 265.12 88.776 264.828 89.1094C264.547 89.4427 264.406 89.8594 264.406 90.3594C264.406 90.7656 264.526 91.1302 264.766 91.4531C265.005 91.7656 265.427 92.0833 266.031 92.4062C266.635 92.7188 267.479 93.0833 268.562 93.5C271.146 94.2604 273.104 95.2135 274.438 96.3594C275.781 97.4948 276.453 99.0417 276.453 101C276.453 102.344 276.089 103.49 275.359 104.438C274.63 105.375 273.615 106.094 272.312 106.594C271.01 107.083 269.495 107.328 267.766 107.328ZM287.641 107.328C285.786 107.328 284.141 107.151 282.703 106.797C281.266 106.443 279.833 105.776 278.406 104.797V98.8906H282.641L283.109 101.922C283.443 102.297 284.031 102.615 284.875 102.875C285.719 103.125 286.641 103.25 287.641 103.25C288.339 103.25 288.922 103.167 289.391 103C289.859 102.823 290.214 102.568 290.453 102.234C290.693 101.901 290.812 101.5 290.812 101.031C290.812 100.583 290.698 100.182 290.469 99.8281C290.25 99.474 289.885 99.1406 289.375 98.8281C288.865 98.5052 288.177 98.1771 287.312 97.8438C285.365 97.2188 283.766 96.5833 282.516 95.9375C281.266 95.2917 280.333 94.526 279.719 93.6406C279.115 92.7552 278.812 91.6562 278.812 90.3438C278.812 89.0833 279.172 87.9844 279.891 87.0469C280.609 86.099 281.599 85.3542 282.859 84.8125C284.12 84.2708 285.562 83.9844 287.188 83.9531C289.042 83.9115 290.682 84.099 292.109 84.5156C293.536 84.9219 294.797 85.5417 295.891 86.375V91.8594H291.828L291.188 88.8125C290.833 88.6354 290.328 88.474 289.672 88.3281C289.016 88.1823 288.318 88.1094 287.578 88.1094C286.943 88.1094 286.375 88.1927 285.875 88.3594C285.385 88.526 284.995 88.776 284.703 89.1094C284.422 89.4427 284.281 89.8594 284.281 90.3594C284.281 90.7656 284.401 91.1302 284.641 91.4531C284.88 91.7656 285.302 92.0833 285.906 92.4062C286.51 92.7188 287.354 93.0833 288.438 93.5C291.021 94.2604 292.979 95.2135 294.312 96.3594C295.656 97.4948 296.328 99.0417 296.328 101C296.328 102.344 295.964 103.49 295.234 104.438C294.505 105.375 293.49 106.094 292.188 106.594C290.885 107.083 289.37 107.328 287.641 107.328Z" fill="black" fill-opacity="0.3"/>
</g>
<defs>
<clipPath id="clip0_1_443">
<rect width="450" height="512" fill="white"/>
</clipPath>
</defs>
</svg>
