<svg width="163" height="191" viewBox="0 0 163 191" fill="none" xmlns="http://www.w3.org/2000/svg">
<path d="M75.7602 6.52497C79.6508 4.27879 84.4476 4.29317 88.3247 6.56262L154.315 45.1898C158.146 47.4323 160.5 51.5384 160.5 55.9775V134.853C160.5 139.285 158.154 143.385 154.333 145.63L88.343 184.409C84.4566 186.693 79.6417 186.708 75.7417 184.447L8.73174 145.608C4.87452 143.372 2.5 139.251 2.5 134.793V56.0374C2.5 51.5715 4.88256 47.4448 8.75016 45.2119L75.7602 6.52497Z" fill="#C9C675" stroke="#444444" stroke-width="5"/>
<path d="M50.7603 141.154C49.8423 141.154 49.0415 141.007 48.3579 140.714C47.6792 140.417 47.1543 139.982 46.7832 139.411C46.4121 138.839 46.2266 138.141 46.2266 137.316V132.079L45.1279 131.845V130.336H49.9033V131.845L48.7974 132.079V137.316C48.7974 137.746 48.873 138.102 49.0244 138.385C49.1758 138.664 49.3955 138.871 49.6836 139.008C49.9766 139.145 50.3306 139.213 50.7456 139.213C51.1753 139.213 51.5342 139.145 51.8223 139.008C52.1152 138.871 52.335 138.664 52.4814 138.385C52.6328 138.102 52.7085 137.746 52.7085 137.316V132.079L51.6099 131.845V130.336H56.3853V131.845L55.2793 132.079V137.316C55.2793 138.126 55.0889 138.82 54.708 139.396C54.3271 139.967 53.7974 140.404 53.1187 140.707C52.4448 141.005 51.6587 141.154 50.7603 141.154ZM56.583 141V139.499L57.5278 139.308L60.3623 135.8L57.6523 132.042L56.832 131.845V130.336H61.439V131.845L60.4136 131.94L61.9224 134.057L63.4897 131.94L62.5156 131.845V130.336H67.0127V131.845L66.0898 132.042L63.4604 135.492L66.4341 139.301L67.4888 139.499V141H62.7427V139.499L63.5923 139.411L61.9517 137.169L60.2451 139.411L61.0874 139.499V141H56.583ZM67.2837 141.916L71.6489 130.336H74.0879L69.7153 141.916H67.2837ZM79.0317 141.154C78.1138 141.154 77.313 141.007 76.6294 140.714C75.9507 140.417 75.4258 139.982 75.0547 139.411C74.6836 138.839 74.498 138.141 74.498 137.316V132.079L73.3994 131.845V130.336H78.1748V131.845L77.0688 132.079V137.316C77.0688 137.746 77.1445 138.102 77.2959 138.385C77.4473 138.664 77.667 138.871 77.9551 139.008C78.248 139.145 78.6021 139.213 79.0171 139.213C79.4468 139.213 79.8057 139.145 80.0938 139.008C80.3867 138.871 80.6064 138.664 80.7529 138.385C80.9043 138.102 80.98 137.746 80.98 137.316V132.079L79.8813 131.845V130.336H84.6567V131.845L83.5508 132.079V137.316C83.5508 138.126 83.3604 138.82 82.9795 139.396C82.5986 139.967 82.0688 140.404 81.3901 140.707C80.7163 141.005 79.9302 141.154 79.0317 141.154ZM85.0889 141V139.499L86.1948 139.264V132.079L85.0889 131.845V130.336H89.8643V131.845L88.7583 132.079V139.264L89.8643 139.499V141H85.0889ZM89.8862 141.916L94.2515 130.336H96.6904L92.3179 141.916H89.8862ZM96.1484 141V139.499L97.269 139.228V132.123L96.1484 131.845V130.336H97.269H101.144C102.105 130.336 102.958 130.561 103.7 131.01C104.442 131.454 105.023 132.072 105.443 132.863C105.863 133.649 106.073 134.557 106.073 135.587V135.756C106.073 136.786 105.863 137.697 105.443 138.488C105.023 139.274 104.442 139.889 103.7 140.333C102.958 140.778 102.105 141 101.144 141H96.1484ZM99.8398 139.052H101.012C101.554 139.052 102.008 138.915 102.374 138.642C102.74 138.368 103.016 137.985 103.202 137.492C103.392 136.994 103.487 136.415 103.487 135.756V135.58C103.487 134.921 103.392 134.345 103.202 133.852C103.016 133.358 102.74 132.975 102.374 132.702C102.008 132.428 101.554 132.292 101.012 132.292H99.8398V139.052ZM111.112 141L107.772 131.962L106.761 131.845V130.336H111.544V131.845L110.592 131.991L112.503 137.982L112.606 138.4H112.65L112.745 138.004L114.598 131.991L113.456 131.845V130.336H117.923V131.845L116.883 131.962L113.895 141H111.112Z" fill="#444444"/>
<path d="M81.4972 31C71.3998 31 63.1504 38.5664 63.1504 47.8215C63.1504 51.9681 64.8156 55.7605 67.5525 58.6958C57.1377 63.4026 50 73.2144 50 84.5767V100.332C49.994 101.781 51.2711 102.961 52.8527 102.967H59.5985V112.365C59.5925 113.814 60.8696 114.994 62.4512 115H101.835C103.426 115.006 104.716 113.822 104.71 112.365V102.967H110.147C111.729 102.961 113.006 101.781 113 100.332V84.5767C113 73.2143 105.876 63.3897 95.4642 58.6804C98.192 55.7474 99.8496 51.9603 99.8496 47.8215C99.8496 38.5664 91.5946 31 81.4972 31ZM81.4972 36.25C88.499 36.25 94.1218 41.4037 94.1218 47.8215C94.1218 51.7442 92.0111 55.1717 88.78 57.2551C88.7054 57.2914 88.6326 57.3308 88.5618 57.3731C88.1751 57.6138 87.7641 57.8102 87.3536 58.0088C87.1752 58.0942 87.0057 58.1925 86.8222 58.2704C86.4681 58.4222 86.0987 58.5391 85.7315 58.66C85.3686 58.7776 85.0016 58.8852 84.624 58.9727C84.3223 59.0441 84.0193 59.1166 83.7122 59.1675C82.9916 59.283 82.2556 59.3674 81.4972 59.3674C80.7179 59.3674 79.9654 59.2841 79.2262 59.1624C78.9872 59.1227 78.7517 59.0661 78.5158 59.0137C77.9986 58.8997 77.4953 58.7579 77.0056 58.5881C76.7883 58.5127 76.5693 58.4438 76.3567 58.3575C75.7862 58.1257 75.2393 57.8559 74.7178 57.5525C74.6196 57.495 74.5124 57.4533 74.4158 57.3936C74.4028 57.3866 74.3897 57.3796 74.3766 57.3728C71.0509 55.3015 68.8782 51.8115 68.8782 47.8215C68.8782 41.4037 74.4953 36.25 81.4972 36.25ZM72.6706 62.5308C75.2947 63.8586 78.2997 64.6174 81.4972 64.6174C84.6947 64.6174 87.7053 63.8587 90.3294 62.5308C100.188 65.8327 107.272 74.3275 107.272 84.5767V97.717H104.71V79.5574C104.711 79.4701 104.708 79.3828 104.699 79.2958C104.547 77.9532 103.308 76.9354 101.835 76.9426H62.4512C62.3599 76.9385 62.2684 76.9385 62.1771 76.9426C61.0978 77.0432 60.1731 77.6943 59.7887 78.6242C59.7543 78.7066 59.7244 78.7903 59.6992 78.8754V78.8853C59.6744 78.9664 59.6538 79.0485 59.6376 79.1314C59.6217 79.218 59.6104 79.3053 59.604 79.3929C59.6003 79.4476 59.5984 79.5023 59.5984 79.557V97.7167H55.7278V84.5763C55.7278 74.3273 62.8117 65.8329 72.6706 62.5308ZM65.3263 82.1978H98.9826C98.9826 91.3818 98.9826 100.566 98.9826 109.75H65.3263V100.332V82.1978ZM67.6923 97.8708C52.9005 53.184 60.2964 75.5274 67.6923 97.8708V97.8708ZM91.3921 102.424C60.8005 54.7016 76.0963 78.5626 91.3921 102.424V102.424Z" fill="#515151"/>
<path d="M82.6936 97.7067C83.2282 97.8921 83.6153 98.3921 83.6153 98.9854C83.6153 99.7348 83.0008 100.345 82.2456 100.345C81.4904 100.345 80.8753 99.7348 80.8753 98.9854C80.8753 98.3921 81.2625 97.8921 81.7977 97.7067V94.9786L79.1394 100.012L80.2756 102.23H84.2157L85.3519 100.012L82.6942 94.9622V97.7067H82.6936Z" fill="#515151"/>
<path d="M84.2224 103.12H80.2676V105.585H84.2224V103.12Z" fill="#515151"/>
<path d="M72.9318 99.8936L71.4091 98.2625L69.7654 99.7735L71.2881 101.405L72.9318 99.8936Z" fill="#515151"/>
<path d="M82.245 99.4552C82.5062 99.4552 82.7188 99.2448 82.7188 98.985C82.7188 98.7259 82.5068 98.5149 82.245 98.5149C81.9839 98.5149 81.7712 98.7253 81.7712 98.985C81.7712 99.2448 81.9839 99.4552 82.245 99.4552Z" fill="#515151"/>
<path d="M82.245 89.7977L83.8887 88.2866L82.366 86.6555L80.7217 88.1665L82.245 89.7977Z" fill="#515151"/>
<path d="M71.4693 89.3828C72.0374 89.3828 72.498 88.9258 72.498 88.3621C72.498 87.7983 72.0374 87.3413 71.4693 87.3413C70.9012 87.3413 70.4407 87.7983 70.4407 88.3621C70.4407 88.9258 70.9012 89.3828 71.4693 89.3828Z" fill="#515151"/>
<path d="M93.2009 98.2626L91.5566 99.7734L93.0792 101.405L94.7235 99.8942L93.2009 98.2626Z" fill="#515151"/>
<path d="M92.5679 88.3621C92.5679 88.3627 92.5679 88.3627 92.5679 88.3633C92.5685 88.9255 93.0294 89.3828 93.5959 89.3828C94.1631 89.3828 94.6246 88.9249 94.6246 88.3621C94.6246 87.7992 94.1631 87.3413 93.5959 87.3413C93.0294 87.3413 92.5685 87.7986 92.5679 88.3608C92.5679 88.3615 92.5679 88.3621 92.5679 88.3621Z" fill="#515151"/>
<path d="M95.6869 99.6147L93.5552 97.3311C93.5429 97.3183 93.5269 97.3128 93.5134 97.3013C92.8479 93.4469 90.2597 90.2767 86.7258 88.8066H91.729C91.9324 89.645 92.6894 90.2718 93.5958 90.2718C94.657 90.2718 95.5203 89.4151 95.5203 88.3621C95.5203 87.309 94.657 86.4523 93.5958 86.4523C92.6894 86.4523 91.9324 87.0791 91.729 87.9175H84.7656L82.7187 85.7242C82.6382 85.6376 82.5264 85.5864 82.4072 85.5821C82.2867 85.5681 82.1724 85.6199 82.0858 85.7004L79.7839 87.8163C79.7526 87.845 79.7317 87.8816 79.7102 87.9175H73.3355C73.1321 87.0791 72.375 86.4523 71.4687 86.4523C70.4075 86.4523 69.5441 87.309 69.5441 88.3621C69.5441 89.4151 70.4075 90.2718 71.4687 90.2718C72.375 90.2718 73.1321 89.645 73.3355 88.8066H77.8538C74.2996 90.2792 71.7089 93.4689 71.0693 97.3616L68.827 99.4226C68.6451 99.5891 68.6347 99.8708 68.803 100.051L70.9347 102.336C71.0152 102.422 71.127 102.473 71.2462 102.478C71.2518 102.478 71.2579 102.478 71.2634 102.478C71.3765 102.478 71.4847 102.436 71.5682 102.36L73.8701 100.244C73.9574 100.164 74.009 100.053 74.0133 99.9348C74.0182 99.8172 73.9752 99.7019 73.8941 99.6159L71.9486 97.533C72.6473 93.2109 75.9594 89.8285 80.2872 89.0108L81.8922 90.7292C81.9807 90.8237 82.1005 90.8719 82.221 90.8719C82.3298 90.8719 82.4391 90.8328 82.5258 90.7536L84.4043 89.0267C88.6725 89.8834 91.941 93.2591 92.6501 97.5592L90.6204 99.4233C90.4385 99.5897 90.4281 99.8714 90.5965 100.052L92.7281 102.336C92.8086 102.423 92.9204 102.474 93.0397 102.478C93.0452 102.479 93.0513 102.479 93.0569 102.479C93.1699 102.479 93.2781 102.437 93.3616 102.361L95.6629 100.245C95.8442 100.076 95.8552 99.7952 95.6869 99.6147ZM71.288 101.404L69.7653 99.7727L71.4091 98.2616L72.9324 99.8928L71.288 101.404ZM93.5958 87.3419C94.1629 87.3419 94.6244 87.7998 94.6244 88.3627C94.6244 88.9255 94.1629 89.3834 93.5958 89.3834C93.0292 89.3834 92.5683 88.9261 92.5677 88.3639C92.5677 88.3633 92.5677 88.3633 92.5677 88.3627C92.5677 88.3621 92.5677 88.3621 92.5677 88.3614C92.5683 87.7986 93.0292 87.3419 93.5958 87.3419ZM71.4693 89.3828C70.9021 89.3828 70.4406 88.9249 70.4406 88.3621C70.4406 87.7992 70.9021 87.3413 71.4693 87.3413C72.0365 87.3413 72.4979 87.7992 72.4979 88.3621C72.4973 88.9249 72.0365 89.3828 71.4693 89.3828ZM82.245 89.7974L80.7216 88.1663L82.366 86.6547L83.8887 88.2864L82.245 89.7974ZM93.0808 101.404L91.5581 99.7727L93.2019 98.2616L94.7246 99.8928L93.0808 101.404Z" fill="#515151"/>
<path d="M82.6488 92.9555C82.6384 92.9353 82.6168 92.9256 82.6033 92.9079C82.5787 92.8738 82.5511 92.8439 82.5179 92.8177C82.4952 92.8006 82.4749 92.7847 82.4497 92.7719C82.3944 92.7433 82.3348 92.7256 82.269 92.7219C82.2629 92.7219 82.258 92.717 82.2518 92.717C82.2512 92.717 82.2512 92.717 82.2512 92.717C82.25 92.717 82.2494 92.7177 82.2488 92.7177C82.2475 92.7177 82.2463 92.717 82.2451 92.717C82.1664 92.717 82.0964 92.7427 82.0325 92.7774C82.0233 92.7829 82.0153 92.789 82.0067 92.7945C81.9434 92.8353 81.8918 92.8878 81.8561 92.9536C81.8561 92.9542 81.8549 92.9542 81.8549 92.9549L81.8537 92.9573C81.8457 92.9725 81.8358 92.9859 81.8297 93.0024L78.238 99.8038C78.1704 99.9312 78.1698 100.083 78.2355 100.212L79.408 102.501C79.3846 102.554 79.3717 102.614 79.3717 102.676V106.03C79.3717 106.275 79.5721 106.474 79.8197 106.474H84.6711C84.9187 106.474 85.119 106.275 85.119 106.03V102.676C85.119 102.614 85.1061 102.554 85.0828 102.501L86.2552 100.212C86.321 100.084 86.3197 99.9318 86.2528 99.8044L82.6488 92.9555ZM82.2451 98.5153C82.5062 98.5153 82.7189 98.7257 82.7189 98.9855C82.7189 99.2446 82.5069 99.4556 82.2451 99.4556C81.9839 99.4556 81.7713 99.2452 81.7713 98.9855C81.7713 98.7257 81.9839 98.5153 82.2451 98.5153ZM84.2225 105.584H80.2677V103.12H84.2225V105.584ZM84.2151 102.23H80.275L79.1388 100.012L81.7971 94.9787V97.7068C81.2625 97.8921 80.8748 98.3922 80.8748 98.9855C80.8748 99.7349 81.4899 100.345 82.2451 100.345C83.0003 100.345 83.6148 99.7349 83.6148 98.9855C83.6148 98.3922 83.2276 97.8921 82.693 97.7068V94.9622L85.3507 100.012L84.2151 102.23Z" fill="#515151"/>
</svg>
