<svg width="450" height="512" viewBox="0 0 450 512" fill="none" xmlns="http://www.w3.org/2000/svg">
<g clip-path="url(#clip0_5_539)">
<path d="M212.66 3.35209C220.296 -1.11736 229.704 -1.11737 237.34 3.35209L434.66 118.842C442.296 123.311 447 131.571 447 140.51V371.49C447 380.429 442.296 388.689 434.66 393.158L237.34 508.648C229.704 513.117 220.296 513.117 212.66 508.648L15.3404 393.158C7.70413 388.689 3 380.429 3 371.49V140.51C3 131.571 7.70413 123.311 15.3404 118.842L212.66 3.35209Z" fill="black"/>
<path d="M214.68 6.80426C221.068 3.06525 228.932 3.06525 235.32 6.80426L432.639 122.294C439.034 126.037 443 132.974 443 140.51V371.49C443 379.026 439.034 385.963 432.639 389.706L235.32 505.196C228.932 508.935 221.068 508.935 214.68 505.196L17.3609 389.706C10.9662 385.963 7 379.026 7 371.49V140.51C7 132.974 10.9662 126.037 17.3609 122.294L214.68 6.80426Z" stroke="black" stroke-opacity="0.5" stroke-width="8"/>
<path d="M407 146C407 141.582 410.582 138 415 138C419.418 138 423 141.582 423 146V174.8H407V146Z" fill="black" fill-opacity="0.15"/>
<rect x="407" y="176.8" width="16" height="36.8" fill="black" fill-opacity="0.15"/>
<rect x="407" y="215.6" width="16" height="36.8" fill="black" fill-opacity="0.15"/>
<rect x="407" y="254.4" width="16" height="36.8" fill="black" fill-opacity="0.15"/>
<path d="M407 293.2H423V322C423 326.418 419.418 330 415 330C410.582 330 407 326.418 407 322V293.2Z" fill="white" fill-opacity="0.75"/>
<path d="M28 146C28 141.582 31.5817 138 36 138C40.4183 138 44 141.582 44 146V174.8H28V146Z" fill="black" fill-opacity="0.15"/>
<rect x="28" y="176.8" width="16" height="36.8" fill="black" fill-opacity="0.15"/>
<rect x="28" y="215.6" width="16" height="36.8" fill="black" fill-opacity="0.15"/>
<rect x="28" y="254.4" width="16" height="36.8" fill="black" fill-opacity="0.15"/>
<path d="M28 293.2H44V322C44 326.418 40.4183 330 36 330C31.5817 330 28 326.418 28 322V293.2Z" fill="white" fill-opacity="0.75"/>
<path d="M40.588 363.76L38 362.008V359.992L40.588 358.24C42.716 356.801 44 354.325 44 351.665V349H28V351.665C28 354.325 29.284 356.801 31.412 358.24L34 359.992V362.008L31.412 363.76C29.284 365.199 28 367.675 28 370.335V373H44V370.335C44 367.675 42.716 365.199 40.588 363.76Z" fill="white" fill-opacity="0.75"/>
<path fill-rule="evenodd" clip-rule="evenodd" d="M423.788 358.193L426.539 357.7L427 360.356L424.266 360.845C424.268 360.892 424.274 360.936 424.281 360.981C424.288 361.032 424.295 361.083 424.295 361.135C424.292 362.334 424.062 363.521 423.619 364.631L426.014 366.035L424.686 368.371L422.268 366.953C421.481 367.965 420.498 368.802 419.38 369.412L420.335 372.078L417.84 373L416.899 370.374C415.646 370.641 414.354 370.641 413.101 370.374L412.16 373L409.665 372.078L410.62 369.412C409.502 368.802 408.519 367.965 407.732 366.953L405.314 368.371L403.986 366.035L406.381 364.631C405.938 363.521 405.708 362.334 405.705 361.135C405.705 361.083 405.712 361.032 405.719 360.982C405.726 360.937 405.732 360.892 405.734 360.846L403 360.356L403.461 357.7L406.212 358.193C406.607 356.967 407.247 355.837 408.092 354.874L406.301 352.706L408.335 350.973L410.121 353.134C411.204 352.455 412.413 352.012 413.672 351.833V349H416.328V351.833C417.588 352.012 418.797 352.455 419.879 353.134L421.665 350.972L423.699 352.706L421.908 354.874C422.753 355.837 423.393 356.967 423.788 358.193ZM415.185 363C416.289 363 417.185 362.105 417.185 361C417.185 359.895 416.289 359 415.185 359C414.08 359 413.185 359.895 413.185 361C413.185 362.105 414.08 363 415.185 363Z" fill="white" fill-opacity="0.75"/>
<rect x="82" y="128" width="286" height="4" rx="2" fill="white" fill-opacity="0.3"/>
<rect x="82" y="380" width="286" height="4" rx="2" fill="white" fill-opacity="0.3"/>
<path d="M140.891 180.188C145.448 180.188 149.039 181.363 151.664 183.715C154.307 186.048 155.629 189.111 155.629 192.902C155.629 196.712 154.307 199.775 151.664 202.09C149.039 204.405 145.448 205.562 140.891 205.562H134.164V214.395L138.43 215.215V220H121.941V215.215L126.18 214.395V185.82L121.941 185V180.188H126.18H140.891ZM134.164 199.41H140.891C143.115 199.41 144.792 198.809 145.922 197.605C147.07 196.384 147.645 194.835 147.645 192.957C147.645 191.043 147.07 189.466 145.922 188.227C144.792 186.969 143.115 186.34 140.891 186.34H134.164V199.41ZM158.992 215.215L162.82 214.395V196.047L158.582 195.227V190.414H170.258L170.613 194.734C171.306 193.203 172.199 192.009 173.293 191.152C174.387 190.296 175.654 189.867 177.094 189.867C177.513 189.867 177.951 189.904 178.406 189.977C178.88 190.031 179.272 190.104 179.582 190.195L178.734 197.469L175.453 197.387C174.286 197.387 173.32 197.615 172.555 198.07C171.789 198.526 171.206 199.173 170.805 200.012V214.395L174.633 215.215V220H158.992V215.215ZM181.414 204.934C181.414 200.522 182.645 196.913 185.105 194.105C187.585 191.28 191.003 189.867 195.359 189.867C199.734 189.867 203.152 191.271 205.613 194.078C208.092 196.885 209.332 200.504 209.332 204.934V205.508C209.332 209.956 208.092 213.583 205.613 216.391C203.152 219.18 199.753 220.574 195.414 220.574C191.021 220.574 187.585 219.18 185.105 216.391C182.645 213.583 181.414 209.956 181.414 205.508V204.934ZM189.398 205.508C189.398 208.206 189.872 210.375 190.82 212.016C191.768 213.638 193.299 214.449 195.414 214.449C197.474 214.449 198.978 213.629 199.926 211.988C200.892 210.348 201.375 208.188 201.375 205.508V204.934C201.375 202.309 200.892 200.167 199.926 198.508C198.96 196.849 197.438 196.02 195.359 196.02C193.281 196.02 191.768 196.849 190.82 198.508C189.872 200.167 189.398 202.309 189.398 204.934V205.508ZM232.055 216.391C231.125 217.758 230.022 218.797 228.746 219.508C227.488 220.219 226.048 220.574 224.426 220.574C220.78 220.574 217.945 219.243 215.922 216.582C213.917 213.921 212.914 210.402 212.914 206.027V205.453C212.914 200.786 213.926 197.022 215.949 194.16C217.973 191.298 220.816 189.867 224.48 189.867C225.957 189.867 227.288 190.195 228.473 190.852C229.658 191.49 230.697 192.401 231.59 193.586V182.977L227.324 182.156V177.344H231.59H239.574V214.395L243.402 215.215V220H232.656L232.055 216.391ZM220.898 206.027C220.898 208.616 221.327 210.658 222.184 212.152C223.059 213.629 224.48 214.367 226.449 214.367C227.616 214.367 228.628 214.13 229.484 213.656C230.341 213.182 231.043 212.499 231.59 211.605V199.055C231.043 198.107 230.341 197.378 229.484 196.867C228.646 196.339 227.652 196.074 226.504 196.074C224.553 196.074 223.132 196.94 222.238 198.672C221.345 200.404 220.898 202.664 220.898 205.453V206.027ZM266.645 216.254C265.697 217.639 264.521 218.706 263.117 219.453C261.732 220.201 260.146 220.574 258.359 220.574C255.242 220.574 252.799 219.581 251.031 217.594C249.263 215.589 248.379 212.48 248.379 208.27V196.047L245.125 195.227V190.414H248.379H256.363V208.324C256.363 210.475 256.719 212.025 257.43 212.973C258.159 213.902 259.234 214.367 260.656 214.367C261.914 214.367 262.999 214.167 263.91 213.766C264.84 213.346 265.596 212.754 266.18 211.988V196.047L262.68 195.227V190.414H266.18H274.164V214.395L277.746 215.215V220H267.164L266.645 216.254ZM294.781 214.449C296.203 214.449 297.342 214.039 298.199 213.219C299.056 212.38 299.484 211.268 299.484 209.883H306.703L306.785 210.047C306.858 213.036 305.737 215.543 303.422 217.566C301.107 219.572 298.227 220.574 294.781 220.574C290.37 220.574 286.97 219.18 284.582 216.391C282.194 213.602 281 210.02 281 205.645V204.824C281 200.467 282.221 196.885 284.664 194.078C287.125 191.271 290.625 189.867 295.164 189.867C297.552 189.867 299.694 190.223 301.59 190.934C303.486 191.645 305.062 192.647 306.32 193.941L306.43 201.844H299.949L298.637 197.223C298.236 196.876 297.743 196.594 297.16 196.375C296.577 196.138 295.911 196.02 295.164 196.02C292.904 196.02 291.309 196.84 290.379 198.48C289.449 200.121 288.984 202.236 288.984 204.824V205.645C288.984 208.288 289.413 210.421 290.27 212.043C291.126 213.647 292.63 214.449 294.781 214.449ZM322.207 183.168V190.414H327.402V196.02H322.207V211.086C322.207 212.234 322.444 213.055 322.918 213.547C323.392 214.039 324.03 214.285 324.832 214.285C325.379 214.285 325.853 214.267 326.254 214.23C326.673 214.176 327.138 214.094 327.648 213.984L328.332 219.754C327.439 220.027 326.555 220.228 325.68 220.355C324.805 220.501 323.857 220.574 322.836 220.574C320.083 220.574 317.96 219.818 316.465 218.305C314.988 216.792 314.25 214.395 314.25 211.113V196.02H309.902V190.414H314.25V183.168H322.207ZM145.594 248.902H139.605L138.566 243.434C137.874 242.996 136.862 242.613 135.531 242.285C134.201 241.957 132.788 241.793 131.293 241.793C129.105 241.793 127.41 242.258 126.207 243.188C125.022 244.099 124.43 245.284 124.43 246.742C124.43 248.091 125.049 249.203 126.289 250.078C127.547 250.935 129.707 251.846 132.77 252.812C137.163 254.034 140.49 255.647 142.75 257.652C145.029 259.658 146.168 262.292 146.168 265.555C146.168 268.964 144.819 271.652 142.121 273.621C139.423 275.59 135.868 276.574 131.457 276.574C128.303 276.574 125.451 276.073 122.898 275.07C120.365 274.068 118.25 272.682 116.555 270.914V262.602H122.734L123.582 268.262C124.384 268.918 125.469 269.465 126.836 269.902C128.221 270.322 129.762 270.531 131.457 270.531C133.645 270.531 135.303 270.085 136.434 269.191C137.582 268.298 138.156 267.104 138.156 265.609C138.156 264.078 137.609 262.848 136.516 261.918C135.44 260.988 133.544 260.113 130.828 259.293C126.107 257.926 122.534 256.303 120.109 254.426C117.685 252.548 116.473 249.978 116.473 246.715C116.473 243.488 117.84 240.854 120.574 238.812C123.309 236.753 126.745 235.695 130.883 235.641C133.945 235.641 136.734 236.105 139.25 237.035C141.766 237.965 143.88 239.204 145.594 240.754V248.902ZM161.289 239.168V246.414H166.484V252.02H161.289V267.086C161.289 268.234 161.526 269.055 162 269.547C162.474 270.039 163.112 270.285 163.914 270.285C164.461 270.285 164.935 270.267 165.336 270.23C165.755 270.176 166.22 270.094 166.73 269.984L167.414 275.754C166.521 276.027 165.637 276.228 164.762 276.355C163.887 276.501 162.939 276.574 161.918 276.574C159.165 276.574 157.042 275.818 155.547 274.305C154.07 272.792 153.332 270.395 153.332 267.113V252.02H148.984V246.414H153.332V239.168H161.289ZM170.996 271.215L174.824 270.395V252.047L170.586 251.227V246.414H182.262L182.617 250.734C183.31 249.203 184.203 248.009 185.297 247.152C186.391 246.296 187.658 245.867 189.098 245.867C189.517 245.867 189.954 245.904 190.41 245.977C190.884 246.031 191.276 246.104 191.586 246.195L190.738 253.469L187.457 253.387C186.29 253.387 185.324 253.615 184.559 254.07C183.793 254.526 183.21 255.173 182.809 256.012V270.395L186.637 271.215V276H170.996V271.215ZM212.258 276C212.039 275.508 211.848 275.007 211.684 274.496C211.52 273.967 211.392 273.439 211.301 272.91C210.353 274.004 209.195 274.888 207.828 275.562C206.479 276.237 204.93 276.574 203.18 276.574C200.281 276.574 197.975 275.79 196.262 274.223C194.566 272.637 193.719 270.486 193.719 267.77C193.719 264.999 194.831 262.857 197.055 261.344C199.279 259.831 202.542 259.074 206.844 259.074H210.918V256.176C210.918 254.754 210.508 253.651 209.688 252.867C208.867 252.083 207.655 251.691 206.051 251.691C205.139 251.691 204.328 251.801 203.617 252.02C202.906 252.22 202.332 252.466 201.895 252.758L201.375 255.93H195.359L195.387 249.367C196.845 248.383 198.513 247.553 200.391 246.879C202.286 246.204 204.346 245.867 206.57 245.867C210.234 245.867 213.206 246.77 215.484 248.574C217.781 250.361 218.93 252.913 218.93 256.23V268.453C218.93 268.909 218.93 269.337 218.93 269.738C218.948 270.139 218.984 270.522 219.039 270.887L221.473 271.215V276H212.258ZM205.34 270.668C206.543 270.668 207.637 270.413 208.621 269.902C209.605 269.374 210.371 268.717 210.918 267.934V263.422H206.844C205.148 263.422 203.863 263.823 202.988 264.625C202.113 265.409 201.676 266.357 201.676 267.469C201.676 268.471 201.995 269.255 202.633 269.82C203.289 270.385 204.191 270.668 205.34 270.668ZM233.805 239.168V246.414H239V252.02H233.805V267.086C233.805 268.234 234.042 269.055 234.516 269.547C234.99 270.039 235.628 270.285 236.43 270.285C236.977 270.285 237.451 270.267 237.852 270.23C238.271 270.176 238.736 270.094 239.246 269.984L239.93 275.754C239.036 276.027 238.152 276.228 237.277 276.355C236.402 276.501 235.454 276.574 234.434 276.574C231.681 276.574 229.557 275.818 228.062 274.305C226.586 272.792 225.848 270.395 225.848 267.113V252.02H221.5V246.414H225.848V239.168H233.805ZM257.074 276.574C252.809 276.574 249.4 275.207 246.848 272.473C244.296 269.738 243.02 266.266 243.02 262.055V260.961C243.02 256.568 244.223 252.949 246.629 250.105C249.053 247.262 252.298 245.849 256.363 245.867C260.355 245.867 263.454 247.07 265.66 249.477C267.866 251.883 268.969 255.137 268.969 259.238V263.586H251.305L251.25 263.75C251.396 265.701 252.043 267.305 253.191 268.562C254.358 269.82 255.935 270.449 257.922 270.449C259.69 270.449 261.158 270.276 262.324 269.93C263.491 269.565 264.767 269 266.152 268.234L268.312 273.156C267.091 274.122 265.505 274.934 263.555 275.59C261.622 276.246 259.462 276.574 257.074 276.574ZM256.363 252.02C254.887 252.02 253.72 252.585 252.863 253.715C252.007 254.845 251.478 256.331 251.277 258.172L251.359 258.309H261.148V257.598C261.148 255.902 260.747 254.553 259.945 253.551C259.161 252.53 257.967 252.02 256.363 252.02ZM273.262 261.453C273.262 256.786 274.273 253.022 276.297 250.16C278.339 247.298 281.191 245.867 284.855 245.867C286.514 245.867 287.973 246.241 289.23 246.988C290.488 247.717 291.564 248.766 292.457 250.133L293.031 246.414H299.977V275.125C299.977 279.026 298.746 282.134 296.285 284.449C293.842 286.783 290.479 287.949 286.195 287.949C284.701 287.949 283.115 287.74 281.438 287.32C279.76 286.919 278.211 286.363 276.789 285.652L278.266 280.047C279.542 280.594 280.818 281.022 282.094 281.332C283.37 281.66 284.719 281.824 286.141 281.824C288.091 281.824 289.549 281.232 290.516 280.047C291.482 278.862 291.965 277.212 291.965 275.098V273.156C291.09 274.268 290.06 275.116 288.875 275.699C287.69 276.283 286.332 276.574 284.801 276.574C281.173 276.574 278.339 275.243 276.297 272.582C274.273 269.902 273.262 266.384 273.262 262.027V261.453ZM281.246 262.027C281.246 264.616 281.684 266.658 282.559 268.152C283.434 269.629 284.855 270.367 286.824 270.367C288.046 270.367 289.076 270.148 289.914 269.711C290.771 269.255 291.454 268.599 291.965 267.742V254.891C291.454 253.997 290.771 253.305 289.914 252.812C289.076 252.32 288.064 252.074 286.879 252.074C284.928 252.074 283.497 252.94 282.586 254.672C281.693 256.404 281.246 258.664 281.246 261.453V262.027ZM335.387 251.227L332.625 251.637L321.742 280.43C320.885 282.562 319.737 284.349 318.297 285.789C316.875 287.229 314.724 287.949 311.844 287.949C311.169 287.949 310.531 287.895 309.93 287.785C309.346 287.676 308.654 287.521 307.852 287.32L308.781 281.496C309.036 281.533 309.301 281.569 309.574 281.605C309.848 281.642 310.085 281.66 310.285 281.66C311.616 281.66 312.637 281.332 313.348 280.676C314.059 280.038 314.605 279.236 314.988 278.27L315.891 276.027L306.512 251.664L303.75 251.227V246.414H318.242V251.227L314.934 251.773L318.98 263.586L319.391 265.719L319.555 265.746L324.23 251.773L320.895 251.227V246.414H335.387V251.227ZM162.273 305.613H156.34L155.52 300.309C154.736 299.525 153.742 298.905 152.539 298.449C151.354 297.993 149.951 297.766 148.328 297.766C144.865 297.766 142.194 299.023 140.316 301.539C138.457 304.055 137.527 307.336 137.527 311.383V312.777C137.527 316.824 138.457 320.115 140.316 322.648C142.176 325.182 144.801 326.449 148.191 326.449C149.759 326.449 151.19 326.221 152.484 325.766C153.797 325.31 154.809 324.69 155.52 323.906L156.34 318.602H162.273V326.477C160.669 328.336 158.618 329.822 156.121 330.934C153.642 332.027 150.862 332.574 147.781 332.574C142.44 332.574 138.065 330.724 134.656 327.023C131.247 323.323 129.543 318.574 129.543 312.777V311.438C129.543 305.659 131.238 300.91 134.629 297.191C138.02 293.473 142.404 291.613 147.781 291.613C150.862 291.613 153.642 292.178 156.121 293.309C158.6 294.421 160.651 295.897 162.273 297.738V305.613ZM184.996 332C184.777 331.508 184.586 331.007 184.422 330.496C184.258 329.967 184.13 329.439 184.039 328.91C183.091 330.004 181.934 330.888 180.566 331.562C179.217 332.237 177.668 332.574 175.918 332.574C173.02 332.574 170.714 331.79 169 330.223C167.305 328.637 166.457 326.486 166.457 323.77C166.457 320.999 167.569 318.857 169.793 317.344C172.017 315.831 175.28 315.074 179.582 315.074H183.656V312.176C183.656 310.754 183.246 309.651 182.426 308.867C181.605 308.083 180.393 307.691 178.789 307.691C177.878 307.691 177.066 307.801 176.355 308.02C175.645 308.22 175.07 308.466 174.633 308.758L174.113 311.93H168.098L168.125 305.367C169.583 304.383 171.251 303.553 173.129 302.879C175.025 302.204 177.085 301.867 179.309 301.867C182.973 301.867 185.944 302.77 188.223 304.574C190.52 306.361 191.668 308.913 191.668 312.23V324.453C191.668 324.909 191.668 325.337 191.668 325.738C191.686 326.139 191.723 326.522 191.777 326.887L194.211 327.215V332H184.996ZM178.078 326.668C179.281 326.668 180.375 326.413 181.359 325.902C182.344 325.374 183.109 324.717 183.656 323.934V319.422H179.582C177.887 319.422 176.602 319.823 175.727 320.625C174.852 321.409 174.414 322.357 174.414 323.469C174.414 324.471 174.733 325.255 175.371 325.82C176.027 326.385 176.93 326.668 178.078 326.668ZM196.508 327.215L200.336 326.395V308.047L196.098 307.227V302.414H207.773L208.129 306.652C209.113 305.139 210.326 303.964 211.766 303.125C213.206 302.286 214.819 301.867 216.605 301.867C219.595 301.867 221.928 302.806 223.605 304.684C225.283 306.561 226.121 309.505 226.121 313.516V326.395L229.949 327.215V332H214.691V327.215L218.109 326.395V313.543C218.109 311.556 217.708 310.152 216.906 309.332C216.104 308.493 214.892 308.074 213.27 308.074C212.212 308.074 211.264 308.293 210.426 308.73C209.587 309.15 208.885 309.751 208.32 310.535V326.395L211.547 327.215V332H196.508V327.215ZM245.043 307.227L242.254 307.746L246.164 320.98L246.684 323.77H246.848L247.422 320.98L251.277 307.773L248.434 307.227V302.414H261.859V307.227L259.289 307.637L250.566 332H242.938L234.188 307.637L231.617 307.227V302.414H245.043V307.227ZM282.832 332C282.613 331.508 282.422 331.007 282.258 330.496C282.094 329.967 281.966 329.439 281.875 328.91C280.927 330.004 279.77 330.888 278.402 331.562C277.053 332.237 275.504 332.574 273.754 332.574C270.855 332.574 268.549 331.79 266.836 330.223C265.141 328.637 264.293 326.486 264.293 323.77C264.293 320.999 265.405 318.857 267.629 317.344C269.853 315.831 273.116 315.074 277.418 315.074H281.492V312.176C281.492 310.754 281.082 309.651 280.262 308.867C279.441 308.083 278.229 307.691 276.625 307.691C275.714 307.691 274.902 307.801 274.191 308.02C273.48 308.22 272.906 308.466 272.469 308.758L271.949 311.93H265.934L265.961 305.367C267.419 304.383 269.087 303.553 270.965 302.879C272.861 302.204 274.921 301.867 277.145 301.867C280.809 301.867 283.78 302.77 286.059 304.574C288.355 306.361 289.504 308.913 289.504 312.23V324.453C289.504 324.909 289.504 325.337 289.504 325.738C289.522 326.139 289.559 326.522 289.613 326.887L292.047 327.215V332H282.832ZM275.914 326.668C277.117 326.668 278.211 326.413 279.195 325.902C280.18 325.374 280.945 324.717 281.492 323.934V319.422H277.418C275.723 319.422 274.438 319.823 273.562 320.625C272.688 321.409 272.25 322.357 272.25 323.469C272.25 324.471 272.569 325.255 273.207 325.82C273.863 326.385 274.766 326.668 275.914 326.668ZM318.926 312.586H313.566L312.719 308.895C312.172 308.457 311.479 308.092 310.641 307.801C309.82 307.509 308.909 307.363 307.906 307.363C306.503 307.363 305.391 307.682 304.57 308.32C303.75 308.94 303.34 309.724 303.34 310.672C303.34 311.565 303.732 312.312 304.516 312.914C305.299 313.497 306.867 314.017 309.219 314.473C312.883 315.202 315.599 316.277 317.367 317.699C319.135 319.103 320.02 321.044 320.02 323.523C320.02 326.185 318.871 328.363 316.574 330.059C314.296 331.736 311.288 332.574 307.551 332.574C305.272 332.574 303.176 332.246 301.262 331.59C299.366 330.915 297.68 329.958 296.203 328.719L296.121 322.074H301.699L302.793 325.93C303.267 326.331 303.914 326.632 304.734 326.832C305.555 327.014 306.411 327.105 307.305 327.105C308.927 327.105 310.158 326.814 310.996 326.23C311.853 325.647 312.281 324.854 312.281 323.852C312.281 322.977 311.853 322.22 310.996 321.582C310.139 320.944 308.562 320.379 306.266 319.887C302.784 319.176 300.15 318.128 298.363 316.742C296.595 315.339 295.711 313.434 295.711 311.027C295.711 308.548 296.732 306.415 298.773 304.629C300.815 302.824 303.723 301.922 307.496 301.922C309.793 301.922 311.962 302.232 314.004 302.852C316.064 303.471 317.677 304.264 318.844 305.23L318.926 312.586Z" fill="white"/>
<path d="M145.75 97V93.7969L148.094 93.2969V77.9688L145.75 77.4688V74.25H148.094H156.484L161.984 89.2344H162.078L167.422 74.25H178.031V77.4688L175.672 77.9688V93.2969L178.031 93.7969V97H167.844V93.7969L170.297 93.2969V90.3281L170.422 79.625L170.328 79.6094L163.891 97H159.578L153.047 79.8125L152.938 79.8281L153.312 89.5781V93.2969L155.953 93.7969V97H145.75ZM176.266 97V93.7969L177.859 93.5625L184.641 74.25H190.578L197.375 93.5625L198.969 93.7969V97H190.469V93.7969L191.953 93.5156L191.266 91.0469H183.953L183.297 93.5156L184.781 93.7969V97H176.266ZM185.109 87.2031H190.094L187.875 80.3125L187.625 79.5156H187.531L187.266 80.3906L185.109 87.2031ZM210.297 97.3281C208.13 97.3281 206.198 96.8906 204.5 96.0156C202.802 95.1406 201.469 93.875 200.5 92.2188C199.531 90.5521 199.047 88.5312 199.047 86.1562V85.1094C199.047 82.9219 199.49 80.9896 200.375 79.3125C201.271 77.625 202.542 76.3073 204.188 75.3594C205.844 74.401 207.807 73.9219 210.078 73.9219C211.661 73.9219 213.167 74.1354 214.594 74.5625C216.031 74.9792 217.365 75.6979 218.594 76.7188V82.5781H214.609L214.062 79.2188C213.708 78.9792 213.333 78.7708 212.938 78.5938C212.552 78.4167 212.135 78.2812 211.688 78.1875C211.25 78.0938 210.776 78.0469 210.266 78.0469C209.109 78.0469 208.099 78.3229 207.234 78.875C206.37 79.4271 205.698 80.2292 205.219 81.2812C204.75 82.3229 204.516 83.5885 204.516 85.0781V86.1562C204.516 87.5521 204.76 88.7812 205.25 89.8438C205.74 90.8958 206.422 91.7188 207.297 92.3125C208.182 92.9062 209.203 93.2031 210.359 93.2031C210.974 93.2031 211.599 93.1406 212.234 93.0156C212.87 92.8802 213.484 92.7031 214.078 92.4844L214.625 89.2656H218.625V95C217.719 95.625 216.562 96.1719 215.156 96.6406C213.75 97.099 212.13 97.3281 210.297 97.3281ZM220.062 97V93.7969L222.422 93.2969V77.9688L220.062 77.4688V74.25H230.266V77.4688L227.906 77.9688V83.7188H236.188V77.9688L233.828 77.4688V74.25H236.188H241.656H244.016V77.4688L241.656 77.9688V93.2969L244.016 93.7969V97H233.828V93.7969L236.188 93.2969V87.9219H227.906V93.2969L230.266 93.7969V97H220.062ZM245.281 97V93.7969L247.641 93.2969V77.9688L245.281 77.4688V74.25H255.469V77.4688L253.109 77.9688V93.2969L255.469 93.7969V97H245.281ZM256.703 97V93.7969L259.047 93.2969V77.9688L256.703 77.4688V74.25H259.047H264.625L273.75 88.8125H273.844V77.9688L270.859 77.4688V74.25H278.703H281.062V77.4688L278.703 77.9688V97H273.297L264 82.75H263.906V93.2969L266.906 93.7969V97H256.703ZM281.906 97V93.7969L284.266 93.2969V77.9688L281.906 77.4688V74.25H300.078V80.8125H295.938L295.812 78.4688H289.75V83.1406H297.016V87.3438H289.75V92.7656H296.109L296.234 90.3125H300.328V97H281.906Z" fill="white" fill-opacity="0.5"/>
</g>
<defs>
<clipPath id="clip0_5_539">
<rect width="450" height="512" fill="white"/>
</clipPath>
</defs>
</svg>
