<svg width="450" height="512" viewBox="0 0 450 512" fill="none" xmlns="http://www.w3.org/2000/svg">
<path d="M212.66 3.35209C220.296 -1.11736 229.704 -1.11737 237.34 3.35209L434.66 118.842C442.296 123.311 447 131.571 447 140.51V371.49C447 380.429 442.296 388.689 434.66 393.158L237.34 508.648C229.704 513.117 220.296 513.117 212.66 508.648L15.3404 393.158C7.70413 388.689 3 380.429 3 371.49V140.51C3 131.571 7.70413 123.311 15.3404 118.842L212.66 3.35209Z" fill="white"/>
<path d="M214.68 6.80426C221.068 3.06525 228.932 3.06525 235.32 6.80426L432.639 122.294C439.034 126.037 443 132.974 443 140.51V371.49C443 379.026 439.034 385.963 432.639 389.706L235.32 505.196C228.932 508.935 221.068 508.935 214.68 505.196L17.3609 389.706C10.9662 385.963 7 379.026 7 371.49V140.51C7 132.974 10.9662 126.037 17.3609 122.294L214.68 6.80426Z" stroke="black" stroke-opacity="0.5" stroke-width="8"/>
<rect x="82" y="128" width="286" height="4" rx="2" fill="black" fill-opacity="0.3"/>
<rect x="82" y="380" width="286" height="4" rx="2" fill="black" fill-opacity="0.3"/>
<path d="M102.09 236.188V241L97.8242 241.82V262.602C97.8242 265.227 98.526 267.195 99.9297 268.508C101.352 269.802 103.293 270.449 105.754 270.449C108.251 270.449 110.211 269.802 111.633 268.508C113.055 267.214 113.766 265.245 113.766 262.602V241.82L109.527 241V236.188H126.016V241L121.75 241.82V262.602C121.75 267.068 120.273 270.513 117.32 272.938C114.385 275.362 110.53 276.574 105.754 276.574C100.996 276.574 97.1497 275.362 94.2148 272.938C91.2982 270.513 89.8398 267.068 89.8398 262.602V241.82L85.6016 241V236.188H89.8398H97.8242H102.09ZM152.73 256.586H147.371L146.523 252.895C145.977 252.457 145.284 252.092 144.445 251.801C143.625 251.509 142.714 251.363 141.711 251.363C140.307 251.363 139.195 251.682 138.375 252.32C137.555 252.94 137.145 253.724 137.145 254.672C137.145 255.565 137.536 256.312 138.32 256.914C139.104 257.497 140.672 258.017 143.023 258.473C146.688 259.202 149.404 260.277 151.172 261.699C152.94 263.103 153.824 265.044 153.824 267.523C153.824 270.185 152.676 272.363 150.379 274.059C148.1 275.736 145.092 276.574 141.355 276.574C139.077 276.574 136.98 276.246 135.066 275.59C133.171 274.915 131.484 273.958 130.008 272.719L129.926 266.074H135.504L136.598 269.93C137.072 270.331 137.719 270.632 138.539 270.832C139.359 271.014 140.216 271.105 141.109 271.105C142.732 271.105 143.962 270.814 144.801 270.23C145.658 269.647 146.086 268.854 146.086 267.852C146.086 266.977 145.658 266.22 144.801 265.582C143.944 264.944 142.367 264.379 140.07 263.887C136.589 263.176 133.954 262.128 132.168 260.742C130.4 259.339 129.516 257.434 129.516 255.027C129.516 252.548 130.536 250.415 132.578 248.629C134.62 246.824 137.527 245.922 141.301 245.922C143.598 245.922 145.767 246.232 147.809 246.852C149.868 247.471 151.482 248.264 152.648 249.23L152.73 256.586ZM171.57 276.574C167.305 276.574 163.896 275.207 161.344 272.473C158.792 269.738 157.516 266.266 157.516 262.055V260.961C157.516 256.568 158.719 252.949 161.125 250.105C163.549 247.262 166.794 245.849 170.859 245.867C174.852 245.867 177.951 247.07 180.156 249.477C182.362 251.883 183.465 255.137 183.465 259.238V263.586H165.801L165.746 263.75C165.892 265.701 166.539 267.305 167.688 268.562C168.854 269.82 170.431 270.449 172.418 270.449C174.186 270.449 175.654 270.276 176.82 269.93C177.987 269.565 179.263 269 180.648 268.234L182.809 273.156C181.587 274.122 180.001 274.934 178.051 275.59C176.118 276.246 173.958 276.574 171.57 276.574ZM170.859 252.02C169.383 252.02 168.216 252.585 167.359 253.715C166.503 254.845 165.974 256.331 165.773 258.172L165.855 258.309H175.645V257.598C175.645 255.902 175.243 254.553 174.441 253.551C173.658 252.53 172.464 252.02 170.859 252.02ZM187.867 271.215L191.695 270.395V252.047L187.457 251.227V246.414H199.133L199.488 250.734C200.181 249.203 201.074 248.009 202.168 247.152C203.262 246.296 204.529 245.867 205.969 245.867C206.388 245.867 206.826 245.904 207.281 245.977C207.755 246.031 208.147 246.104 208.457 246.195L207.609 253.469L204.328 253.387C203.161 253.387 202.195 253.615 201.43 254.07C200.664 254.526 200.081 255.173 199.68 256.012V270.395L203.508 271.215V276H187.867V271.215ZM254.613 248.902H248.625L247.586 243.434C246.893 242.996 245.882 242.613 244.551 242.285C243.22 241.957 241.807 241.793 240.312 241.793C238.125 241.793 236.43 242.258 235.227 243.188C234.042 244.099 233.449 245.284 233.449 246.742C233.449 248.091 234.069 249.203 235.309 250.078C236.566 250.935 238.727 251.846 241.789 252.812C246.182 254.034 249.509 255.647 251.77 257.652C254.048 259.658 255.188 262.292 255.188 265.555C255.188 268.964 253.839 271.652 251.141 273.621C248.443 275.59 244.888 276.574 240.477 276.574C237.323 276.574 234.47 276.073 231.918 275.07C229.384 274.068 227.27 272.682 225.574 270.914V262.602H231.754L232.602 268.262C233.404 268.918 234.488 269.465 235.855 269.902C237.241 270.322 238.781 270.531 240.477 270.531C242.664 270.531 244.323 270.085 245.453 269.191C246.602 268.298 247.176 267.104 247.176 265.609C247.176 264.078 246.629 262.848 245.535 261.918C244.46 260.988 242.564 260.113 239.848 259.293C235.126 257.926 231.553 256.303 229.129 254.426C226.704 252.548 225.492 249.978 225.492 246.715C225.492 243.488 226.859 240.854 229.594 238.812C232.328 236.753 235.764 235.695 239.902 235.641C242.965 235.641 245.754 236.105 248.27 237.035C250.785 237.965 252.9 239.204 254.613 240.754V248.902ZM270.309 239.168V246.414H275.504V252.02H270.309V267.086C270.309 268.234 270.546 269.055 271.02 269.547C271.493 270.039 272.132 270.285 272.934 270.285C273.48 270.285 273.954 270.267 274.355 270.23C274.775 270.176 275.24 270.094 275.75 269.984L276.434 275.754C275.54 276.027 274.656 276.228 273.781 276.355C272.906 276.501 271.958 276.574 270.938 276.574C268.185 276.574 266.061 275.818 264.566 274.305C263.09 272.792 262.352 270.395 262.352 267.113V252.02H258.004V246.414H262.352V239.168H270.309ZM278.594 260.934C278.594 256.522 279.824 252.913 282.285 250.105C284.764 247.28 288.182 245.867 292.539 245.867C296.914 245.867 300.332 247.271 302.793 250.078C305.272 252.885 306.512 256.504 306.512 260.934V261.508C306.512 265.956 305.272 269.583 302.793 272.391C300.332 275.18 296.932 276.574 292.594 276.574C288.201 276.574 284.764 275.18 282.285 272.391C279.824 269.583 278.594 265.956 278.594 261.508V260.934ZM286.578 261.508C286.578 264.206 287.052 266.375 288 268.016C288.948 269.638 290.479 270.449 292.594 270.449C294.654 270.449 296.158 269.629 297.105 267.988C298.072 266.348 298.555 264.188 298.555 261.508V260.934C298.555 258.309 298.072 256.167 297.105 254.508C296.139 252.849 294.617 252.02 292.539 252.02C290.461 252.02 288.948 252.849 288 254.508C287.052 256.167 286.578 258.309 286.578 260.934V261.508ZM310.586 271.215L314.414 270.395V252.047L310.176 251.227V246.414H321.852L322.207 250.734C322.9 249.203 323.793 248.009 324.887 247.152C325.98 246.296 327.247 245.867 328.688 245.867C329.107 245.867 329.544 245.904 330 245.977C330.474 246.031 330.866 246.104 331.176 246.195L330.328 253.469L327.047 253.387C325.88 253.387 324.914 253.615 324.148 254.07C323.383 254.526 322.799 255.173 322.398 256.012V270.395L326.227 271.215V276H310.586V271.215ZM364.672 251.227L361.91 251.637L351.027 280.43C350.171 282.562 349.022 284.349 347.582 285.789C346.16 287.229 344.009 287.949 341.129 287.949C340.454 287.949 339.816 287.895 339.215 287.785C338.632 287.676 337.939 287.521 337.137 287.32L338.066 281.496C338.322 281.533 338.586 281.569 338.859 281.605C339.133 281.642 339.37 281.66 339.57 281.66C340.901 281.66 341.922 281.332 342.633 280.676C343.344 280.038 343.891 279.236 344.273 278.27L345.176 276.027L335.797 251.664L333.035 251.227V246.414H347.527V251.227L344.219 251.773L348.266 263.586L348.676 265.719L348.84 265.746L353.516 251.773L350.18 251.227V246.414H364.672V251.227Z" fill="black"/>
<path d="M145.844 97V93.7969L147.438 93.5625L154.219 74.25H160.156L166.953 93.5625L168.547 93.7969V97H160.047V93.7969L161.531 93.5156L160.844 91.0469H153.531L152.875 93.5156L154.359 93.7969V97H145.844ZM154.688 87.2031H159.672L157.453 80.3125L157.203 79.5156H157.109L156.844 80.3906L154.688 87.2031ZM169.547 97V93.7969L171.906 93.2969V77.9688L169.547 77.4688V74.2344H180.734C182.536 74.2344 184.099 74.5208 185.422 75.0938C186.745 75.6667 187.766 76.4844 188.484 77.5469C189.203 78.599 189.562 79.849 189.562 81.2969C189.562 82.6302 189.198 83.8698 188.469 85.0156C187.75 86.1615 186.76 87.0833 185.5 87.7812C184.24 88.4688 182.802 88.8073 181.188 88.7969L177.391 88.75V93.2969L179.75 93.7969V97H169.547ZM183.953 97L180.891 88.125L185.656 86.5L188.422 93.2656L190.578 93.8125V97H183.953ZM177.391 84.5469H180.797C181.859 84.5469 182.677 84.3021 183.25 83.8125C183.823 83.3125 184.109 82.5938 184.109 81.6562C184.109 80.6875 183.818 79.9115 183.234 79.3281C182.651 78.7344 181.818 78.4375 180.734 78.4375H177.391V84.5469ZM196.312 97V93.7969L198.688 93.2969V78.5H195.172L195.031 80.9531H190.891V74.25H212.031V80.9531H207.844L207.719 78.5H204.172V93.2969L206.547 93.7969V97H196.312ZM212.859 97V93.7969L215.219 93.2969V77.9688L212.859 77.4688V74.25H223.047V77.4688L220.688 77.9688V93.2969L223.047 93.7969V97H212.859ZM224.297 97V93.7969L226.656 93.2969V77.9688L224.297 77.4688V74.25H243.031V80.9531H238.891L238.781 78.4688H232.141V83.7344H239.875V87.9219H232.141V93.2969L234.5 93.7969V97H224.297ZM240.25 97V93.7969L241.844 93.5625L248.625 74.25H254.562L261.359 93.5625L262.953 93.7969V97H254.453V93.7969L255.938 93.5156L255.25 91.0469H247.938L247.281 93.5156L248.766 93.7969V97H240.25ZM249.094 87.2031H254.078L251.859 80.3125L251.609 79.5156H251.516L251.25 80.3906L249.094 87.2031ZM274.281 97.3281C272.115 97.3281 270.182 96.8906 268.484 96.0156C266.786 95.1406 265.453 93.875 264.484 92.2188C263.516 90.5521 263.031 88.5312 263.031 86.1562V85.1094C263.031 82.9219 263.474 80.9896 264.359 79.3125C265.255 77.625 266.526 76.3073 268.172 75.3594C269.828 74.401 271.792 73.9219 274.062 73.9219C275.646 73.9219 277.151 74.1354 278.578 74.5625C280.016 74.9792 281.349 75.6979 282.578 76.7188V82.5781H278.594L278.047 79.2188C277.693 78.9792 277.318 78.7708 276.922 78.5938C276.536 78.4167 276.12 78.2812 275.672 78.1875C275.234 78.0938 274.76 78.0469 274.25 78.0469C273.094 78.0469 272.083 78.3229 271.219 78.875C270.354 79.4271 269.682 80.2292 269.203 81.2812C268.734 82.3229 268.5 83.5885 268.5 85.0781V86.1562C268.5 87.5521 268.745 88.7812 269.234 89.8438C269.724 90.8958 270.406 91.7188 271.281 92.3125C272.167 92.9062 273.188 93.2031 274.344 93.2031C274.958 93.2031 275.583 93.1406 276.219 93.0156C276.854 92.8802 277.469 92.7031 278.062 92.4844L278.609 89.2656H282.609V95C281.703 95.625 280.547 96.1719 279.141 96.6406C277.734 97.099 276.115 97.3281 274.281 97.3281ZM288.594 97V93.7969L290.969 93.2969V78.5H287.453L287.312 80.9531H283.172V74.25H304.312V80.9531H300.125L300 78.5H296.453V93.2969L298.828 93.7969V97H288.594Z" fill="black" fill-opacity="0.3"/>
<path d="M180.969 438.328C179.115 438.328 177.469 438.151 176.031 437.797C174.594 437.443 173.161 436.776 171.734 435.797V429.891H175.969L176.438 432.922C176.771 433.297 177.359 433.615 178.203 433.875C179.047 434.125 179.969 434.25 180.969 434.25C181.667 434.25 182.25 434.167 182.719 434C183.188 433.823 183.542 433.568 183.781 433.234C184.021 432.901 184.141 432.5 184.141 432.031C184.141 431.583 184.026 431.182 183.797 430.828C183.578 430.474 183.214 430.141 182.703 429.828C182.193 429.505 181.505 429.177 180.641 428.844C178.693 428.219 177.094 427.583 175.844 426.938C174.594 426.292 173.661 425.526 173.047 424.641C172.443 423.755 172.141 422.656 172.141 421.344C172.141 420.083 172.5 418.984 173.219 418.047C173.938 417.099 174.927 416.354 176.188 415.812C177.448 415.271 178.891 414.984 180.516 414.953C182.37 414.911 184.01 415.099 185.438 415.516C186.865 415.922 188.125 416.542 189.219 417.375V422.859H185.156L184.516 419.812C184.161 419.635 183.656 419.474 183 419.328C182.344 419.182 181.646 419.109 180.906 419.109C180.271 419.109 179.703 419.193 179.203 419.359C178.714 419.526 178.323 419.776 178.031 420.109C177.75 420.443 177.609 420.859 177.609 421.359C177.609 421.766 177.729 422.13 177.969 422.453C178.208 422.766 178.63 423.083 179.234 423.406C179.839 423.719 180.682 424.083 181.766 424.5C184.349 425.26 186.307 426.214 187.641 427.359C188.984 428.495 189.656 430.042 189.656 432C189.656 433.344 189.292 434.49 188.562 435.438C187.833 436.375 186.818 437.094 185.516 437.594C184.214 438.083 182.698 438.328 180.969 438.328ZM195.906 438V434.797L198.281 434.297V419.5H194.766L194.625 421.953H190.484V415.25H211.625V421.953H207.438L207.312 419.5H203.766V434.297L206.141 434.797V438H195.906ZM223.156 438.328C221.583 438.328 220.135 438.042 218.812 437.469C217.5 436.885 216.359 436.073 215.391 435.031C214.422 433.99 213.672 432.771 213.141 431.375C212.62 429.969 212.359 428.443 212.359 426.797V426.438C212.359 424.802 212.62 423.286 213.141 421.891C213.672 420.495 214.417 419.276 215.375 418.234C216.344 417.193 217.484 416.38 218.797 415.797C220.109 415.214 221.552 414.922 223.125 414.922C224.667 414.922 226.099 415.214 227.422 415.797C228.745 416.38 229.901 417.193 230.891 418.234C231.891 419.276 232.667 420.495 233.219 421.891C233.771 423.286 234.047 424.802 234.047 426.438V426.797C234.047 428.443 233.771 429.969 233.219 431.375C232.667 432.771 231.896 433.99 230.906 435.031C229.917 436.073 228.76 436.885 227.438 437.469C226.115 438.042 224.688 438.328 223.156 438.328ZM223.156 434.172C224.302 434.172 225.281 433.865 226.094 433.25C226.906 432.635 227.526 431.776 227.953 430.672C228.38 429.568 228.594 428.276 228.594 426.797V426.406C228.594 424.958 228.375 423.688 227.938 422.594C227.51 421.49 226.891 420.63 226.078 420.016C225.266 419.401 224.281 419.094 223.125 419.094C221.906 419.094 220.906 419.396 220.125 420C219.354 420.604 218.781 421.453 218.406 422.547C218.031 423.641 217.844 424.927 217.844 426.406V426.797C217.844 428.276 218.031 429.573 218.406 430.688C218.792 431.792 219.375 432.651 220.156 433.266C220.948 433.87 221.948 434.172 223.156 434.172ZM235.547 438V434.797L237.906 434.297V418.969L235.547 418.469V415.234H246.734C248.536 415.234 250.099 415.521 251.422 416.094C252.745 416.667 253.766 417.484 254.484 418.547C255.203 419.599 255.562 420.849 255.562 422.297C255.562 423.63 255.198 424.87 254.469 426.016C253.75 427.161 252.76 428.083 251.5 428.781C250.24 429.469 248.802 429.807 247.188 429.797L243.391 429.75V434.297L245.75 434.797V438H235.547ZM249.953 438L246.891 429.125L251.656 427.5L254.422 434.266L256.578 434.812V438H249.953ZM243.391 425.547H246.797C247.859 425.547 248.677 425.302 249.25 424.812C249.823 424.312 250.109 423.594 250.109 422.656C250.109 421.688 249.818 420.911 249.234 420.328C248.651 419.734 247.818 419.438 246.734 419.438H243.391V425.547ZM262.469 438V434.797L264.828 434.297V430.5L258.234 418.797L255.859 418.469V415.25H265.703V418.469L264.297 418.719L267.422 424.953L267.781 425.75H267.922L268.297 425L271.953 418.719L269.578 418.469V415.25H279.234V418.469L276.828 418.797L270.297 430.062V434.297L272.672 434.797V438H262.469Z" fill="black" fill-opacity="0.3"/>
</svg>
