<svg width="450" height="512" viewBox="0 0 450 512" fill="none" xmlns="http://www.w3.org/2000/svg">
<g clip-path="url(#clip0_5_560)">
<path d="M212.66 3.35209C220.296 -1.11736 229.704 -1.11737 237.34 3.35209L434.66 118.842C442.296 123.311 447 131.571 447 140.51V371.49C447 380.429 442.296 388.689 434.66 393.158L237.34 508.648C229.704 513.117 220.296 513.117 212.66 508.648L15.3404 393.158C7.70413 388.689 3 380.429 3 371.49V140.51C3 131.571 7.70413 123.311 15.3404 118.842L212.66 3.35209Z" fill="black"/>
<path d="M214.68 6.80426C221.068 3.06525 228.932 3.06525 235.32 6.80426L432.639 122.294C439.034 126.037 443 132.974 443 140.51V371.49C443 379.026 439.034 385.963 432.639 389.706L235.32 505.196C228.932 508.935 221.068 508.935 214.68 505.196L17.3609 389.706C10.9662 385.963 7 379.026 7 371.49V140.51C7 132.974 10.9662 126.037 17.3609 122.294L214.68 6.80426Z" stroke="black" stroke-opacity="0.5" stroke-width="8"/>
<path d="M407 146C407 141.582 410.582 138 415 138C419.418 138 423 141.582 423 146V174.8H407V146Z" fill="black" fill-opacity="0.15"/>
<rect x="407" y="176.8" width="16" height="36.8" fill="black" fill-opacity="0.15"/>
<rect x="407" y="215.6" width="16" height="36.8" fill="black" fill-opacity="0.15"/>
<rect x="407" y="254.4" width="16" height="36.8" fill="white" fill-opacity="0.75"/>
<path d="M407 293.2H423V322C423 326.418 419.418 330 415 330C410.582 330 407 326.418 407 322V293.2Z" fill="white" fill-opacity="0.75"/>
<path d="M28 146C28 141.582 31.5817 138 36 138C40.4183 138 44 141.582 44 146V174.8H28V146Z" fill="black" fill-opacity="0.15"/>
<rect x="28" y="176.8" width="16" height="36.8" fill="black" fill-opacity="0.15"/>
<rect x="28" y="215.6" width="16" height="36.8" fill="black" fill-opacity="0.15"/>
<rect x="28" y="254.4" width="16" height="36.8" fill="white" fill-opacity="0.75"/>
<path d="M28 293.2H44V322C44 326.418 40.4183 330 36 330C31.5817 330 28 326.418 28 322V293.2Z" fill="white" fill-opacity="0.75"/>
<path d="M40.588 363.76L38 362.008V359.992L40.588 358.24C42.716 356.801 44 354.325 44 351.665V349H28V351.665C28 354.325 29.284 356.801 31.412 358.24L34 359.992V362.008L31.412 363.76C29.284 365.199 28 367.675 28 370.335V373H44V370.335C44 367.675 42.716 365.199 40.588 363.76Z" fill="white" fill-opacity="0.75"/>
<path fill-rule="evenodd" clip-rule="evenodd" d="M423.788 358.193L426.539 357.7L427 360.356L424.266 360.845C424.268 360.892 424.274 360.936 424.281 360.981C424.288 361.032 424.295 361.083 424.295 361.135C424.292 362.334 424.062 363.521 423.619 364.631L426.014 366.035L424.686 368.371L422.268 366.953C421.481 367.965 420.498 368.802 419.38 369.412L420.335 372.078L417.84 373L416.899 370.374C415.646 370.641 414.354 370.641 413.101 370.374L412.16 373L409.665 372.078L410.62 369.412C409.502 368.802 408.519 367.965 407.732 366.953L405.314 368.371L403.986 366.035L406.381 364.631C405.938 363.521 405.708 362.334 405.705 361.135C405.705 361.083 405.712 361.032 405.719 360.982C405.726 360.937 405.732 360.892 405.734 360.846L403 360.356L403.461 357.7L406.212 358.193C406.607 356.967 407.247 355.837 408.092 354.874L406.301 352.706L408.335 350.973L410.121 353.134C411.204 352.455 412.413 352.012 413.672 351.833V349H416.328V351.833C417.588 352.012 418.797 352.455 419.879 353.134L421.665 350.972L423.699 352.706L421.908 354.874C422.753 355.837 423.393 356.967 423.788 358.193ZM415.185 363C416.289 363 417.185 362.105 417.185 361C417.185 359.895 416.289 359 415.185 359C414.08 359 413.185 359.895 413.185 361C413.185 362.105 414.08 363 415.185 363Z" fill="white" fill-opacity="0.75"/>
<rect x="82" y="128" width="286" height="4" rx="2" fill="white" fill-opacity="0.3"/>
<rect x="82" y="380" width="286" height="4" rx="2" fill="white" fill-opacity="0.3"/>
<path d="M164.297 185L161.262 185.547L168.316 209.418L168.809 211.605H168.973L169.438 209.473L176.52 185.547L173.512 185V180.188H188.059V185L184.723 185.438L172.992 220H164.789L153.031 185.438L149.75 185V180.188H164.297V185ZM208.266 220C208.047 219.508 207.855 219.007 207.691 218.496C207.527 217.967 207.4 217.439 207.309 216.91C206.361 218.004 205.203 218.888 203.836 219.562C202.487 220.237 200.938 220.574 199.188 220.574C196.289 220.574 193.983 219.79 192.27 218.223C190.574 216.637 189.727 214.486 189.727 211.77C189.727 208.999 190.839 206.857 193.062 205.344C195.286 203.831 198.549 203.074 202.852 203.074H206.926V200.176C206.926 198.754 206.516 197.651 205.695 196.867C204.875 196.083 203.663 195.691 202.059 195.691C201.147 195.691 200.336 195.801 199.625 196.02C198.914 196.22 198.34 196.466 197.902 196.758L197.383 199.93H191.367L191.395 193.367C192.853 192.383 194.521 191.553 196.398 190.879C198.294 190.204 200.354 189.867 202.578 189.867C206.242 189.867 209.214 190.77 211.492 192.574C213.789 194.361 214.938 196.913 214.938 200.23V212.453C214.938 212.909 214.938 213.337 214.938 213.738C214.956 214.139 214.992 214.522 215.047 214.887L217.48 215.215V220H208.266ZM201.348 214.668C202.551 214.668 203.645 214.413 204.629 213.902C205.613 213.374 206.379 212.717 206.926 211.934V207.422H202.852C201.156 207.422 199.871 207.823 198.996 208.625C198.121 209.409 197.684 210.357 197.684 211.469C197.684 212.471 198.003 213.255 198.641 213.82C199.297 214.385 200.199 214.668 201.348 214.668ZM219.367 182.156V177.344H231.617V214.395L235.473 215.215V220H219.777V215.215L223.633 214.395V182.977L219.367 182.156ZM258.797 216.254C257.849 217.639 256.673 218.706 255.27 219.453C253.884 220.201 252.298 220.574 250.512 220.574C247.395 220.574 244.952 219.581 243.184 217.594C241.415 215.589 240.531 212.48 240.531 208.27V196.047L237.277 195.227V190.414H240.531H248.516V208.324C248.516 210.475 248.871 212.025 249.582 212.973C250.311 213.902 251.387 214.367 252.809 214.367C254.066 214.367 255.151 214.167 256.062 213.766C256.992 213.346 257.749 212.754 258.332 211.988V196.047L254.832 195.227V190.414H258.332H266.316V214.395L269.898 215.215V220H259.316L258.797 216.254ZM287.207 220.574C282.941 220.574 279.533 219.207 276.98 216.473C274.428 213.738 273.152 210.266 273.152 206.055V204.961C273.152 200.568 274.355 196.949 276.762 194.105C279.186 191.262 282.431 189.849 286.496 189.867C290.488 189.867 293.587 191.07 295.793 193.477C297.999 195.883 299.102 199.137 299.102 203.238V207.586H281.438L281.383 207.75C281.529 209.701 282.176 211.305 283.324 212.562C284.491 213.82 286.068 214.449 288.055 214.449C289.823 214.449 291.29 214.276 292.457 213.93C293.624 213.565 294.9 213 296.285 212.234L298.445 217.156C297.224 218.122 295.638 218.934 293.688 219.59C291.755 220.246 289.595 220.574 287.207 220.574ZM286.496 196.02C285.02 196.02 283.853 196.585 282.996 197.715C282.139 198.845 281.611 200.331 281.41 202.172L281.492 202.309H291.281V201.598C291.281 199.902 290.88 198.553 290.078 197.551C289.294 196.53 288.1 196.02 286.496 196.02ZM91.125 236.188C95.6823 236.188 99.2734 237.363 101.898 239.715C104.542 242.048 105.863 245.111 105.863 248.902C105.863 252.712 104.542 255.775 101.898 258.09C99.2734 260.405 95.6823 261.562 91.125 261.562H84.3984V270.395L88.6641 271.215V276H72.1758V271.215L76.4141 270.395V241.82L72.1758 241V236.188H76.4141H91.125ZM84.3984 255.41H91.125C93.349 255.41 95.026 254.809 96.1562 253.605C97.3047 252.384 97.8789 250.835 97.8789 248.957C97.8789 247.043 97.3047 245.466 96.1562 244.227C95.026 242.969 93.349 242.34 91.125 242.34H84.3984V255.41ZM109.227 271.215L113.055 270.395V252.047L108.816 251.227V246.414H120.492L120.848 250.734C121.54 249.203 122.434 248.009 123.527 247.152C124.621 246.296 125.888 245.867 127.328 245.867C127.747 245.867 128.185 245.904 128.641 245.977C129.115 246.031 129.507 246.104 129.816 246.195L128.969 253.469L125.688 253.387C124.521 253.387 123.555 253.615 122.789 254.07C122.023 254.526 121.44 255.173 121.039 256.012V270.395L124.867 271.215V276H109.227V271.215ZM131.648 260.934C131.648 256.522 132.879 252.913 135.34 250.105C137.819 247.28 141.237 245.867 145.594 245.867C149.969 245.867 153.387 247.271 155.848 250.078C158.327 252.885 159.566 256.504 159.566 260.934V261.508C159.566 265.956 158.327 269.583 155.848 272.391C153.387 275.18 149.987 276.574 145.648 276.574C141.255 276.574 137.819 275.18 135.34 272.391C132.879 269.583 131.648 265.956 131.648 261.508V260.934ZM139.633 261.508C139.633 264.206 140.107 266.375 141.055 268.016C142.003 269.638 143.534 270.449 145.648 270.449C147.708 270.449 149.212 269.629 150.16 267.988C151.126 266.348 151.609 264.188 151.609 261.508V260.934C151.609 258.309 151.126 256.167 150.16 254.508C149.194 252.849 147.672 252.02 145.594 252.02C143.516 252.02 142.003 252.849 141.055 254.508C140.107 256.167 139.633 258.309 139.633 260.934V261.508ZM162.438 251.227V246.414H174.031L174.414 249.859C175.289 248.583 176.337 247.599 177.559 246.906C178.78 246.214 180.202 245.867 181.824 245.867C185.488 245.867 188.332 247.298 190.355 250.16C192.379 253.022 193.391 256.786 193.391 261.453V262.027C193.391 266.402 192.379 269.921 190.355 272.582C188.332 275.243 185.507 276.574 181.879 276.574C180.329 276.574 178.953 276.292 177.75 275.727C176.547 275.143 175.517 274.296 174.66 273.184V281.742L178.516 282.562V287.375H162.848V282.562L166.703 281.742V252.047L162.438 251.227ZM185.406 261.453C185.406 258.664 184.941 256.404 184.012 254.672C183.082 252.94 181.66 252.074 179.746 252.074C178.543 252.074 177.513 252.32 176.656 252.812C175.818 253.305 175.152 254.007 174.66 254.918V267.879C175.152 268.717 175.818 269.355 176.656 269.793C177.513 270.23 178.561 270.449 179.801 270.449C181.733 270.449 183.146 269.693 184.039 268.18C184.951 266.667 185.406 264.616 185.406 262.027V261.453ZM196.945 260.934C196.945 256.522 198.176 252.913 200.637 250.105C203.116 247.28 206.534 245.867 210.891 245.867C215.266 245.867 218.684 247.271 221.145 250.078C223.624 252.885 224.863 256.504 224.863 260.934V261.508C224.863 265.956 223.624 269.583 221.145 272.391C218.684 275.18 215.284 276.574 210.945 276.574C206.552 276.574 203.116 275.18 200.637 272.391C198.176 269.583 196.945 265.956 196.945 261.508V260.934ZM204.93 261.508C204.93 264.206 205.404 266.375 206.352 268.016C207.299 269.638 208.831 270.449 210.945 270.449C213.005 270.449 214.509 269.629 215.457 267.988C216.423 266.348 216.906 264.188 216.906 261.508V260.934C216.906 258.309 216.423 256.167 215.457 254.508C214.491 252.849 212.969 252.02 210.891 252.02C208.812 252.02 207.299 252.849 206.352 254.508C205.404 256.167 204.93 258.309 204.93 260.934V261.508ZM252.48 256.586H247.121L246.273 252.895C245.727 252.457 245.034 252.092 244.195 251.801C243.375 251.509 242.464 251.363 241.461 251.363C240.057 251.363 238.945 251.682 238.125 252.32C237.305 252.94 236.895 253.724 236.895 254.672C236.895 255.565 237.286 256.312 238.07 256.914C238.854 257.497 240.422 258.017 242.773 258.473C246.438 259.202 249.154 260.277 250.922 261.699C252.69 263.103 253.574 265.044 253.574 267.523C253.574 270.185 252.426 272.363 250.129 274.059C247.85 275.736 244.842 276.574 241.105 276.574C238.827 276.574 236.73 276.246 234.816 275.59C232.921 274.915 231.234 273.958 229.758 272.719L229.676 266.074H235.254L236.348 269.93C236.822 270.331 237.469 270.632 238.289 270.832C239.109 271.014 239.966 271.105 240.859 271.105C242.482 271.105 243.712 270.814 244.551 270.23C245.408 269.647 245.836 268.854 245.836 267.852C245.836 266.977 245.408 266.22 244.551 265.582C243.694 264.944 242.117 264.379 239.82 263.887C236.339 263.176 233.704 262.128 231.918 260.742C230.15 259.339 229.266 257.434 229.266 255.027C229.266 252.548 230.286 250.415 232.328 248.629C234.37 246.824 237.277 245.922 241.051 245.922C243.348 245.922 245.517 246.232 247.559 246.852C249.618 247.471 251.232 248.264 252.398 249.23L252.48 256.586ZM256.91 271.215L260.766 270.395V252.047L256.5 251.227V246.414H268.75V270.395L272.578 271.215V276H256.91V271.215ZM268.75 239.332H260.766V233.344H268.75V239.332ZM286.988 239.168V246.414H292.184V252.02H286.988V267.086C286.988 268.234 287.225 269.055 287.699 269.547C288.173 270.039 288.811 270.285 289.613 270.285C290.16 270.285 290.634 270.267 291.035 270.23C291.454 270.176 291.919 270.094 292.43 269.984L293.113 275.754C292.22 276.027 291.336 276.228 290.461 276.355C289.586 276.501 288.638 276.574 287.617 276.574C284.865 276.574 282.741 275.818 281.246 274.305C279.77 272.792 279.031 270.395 279.031 267.113V252.02H274.684V246.414H279.031V239.168H286.988ZM295.848 271.215L299.703 270.395V252.047L295.438 251.227V246.414H307.688V270.395L311.516 271.215V276H295.848V271.215ZM307.688 239.332H299.703V233.344H307.688V239.332ZM314.141 260.934C314.141 256.522 315.371 252.913 317.832 250.105C320.311 247.28 323.729 245.867 328.086 245.867C332.461 245.867 335.879 247.271 338.34 250.078C340.819 252.885 342.059 256.504 342.059 260.934V261.508C342.059 265.956 340.819 269.583 338.34 272.391C335.879 275.18 332.479 276.574 328.141 276.574C323.747 276.574 320.311 275.18 317.832 272.391C315.371 269.583 314.141 265.956 314.141 261.508V260.934ZM322.125 261.508C322.125 264.206 322.599 266.375 323.547 268.016C324.495 269.638 326.026 270.449 328.141 270.449C330.201 270.449 331.704 269.629 332.652 267.988C333.618 266.348 334.102 264.188 334.102 261.508V260.934C334.102 258.309 333.618 256.167 332.652 254.508C331.686 252.849 330.164 252.02 328.086 252.02C326.008 252.02 324.495 252.849 323.547 254.508C322.599 256.167 322.125 258.309 322.125 260.934V261.508ZM345.094 271.215L348.922 270.395V252.047L344.684 251.227V246.414H356.359L356.715 250.652C357.699 249.139 358.911 247.964 360.352 247.125C361.792 246.286 363.405 245.867 365.191 245.867C368.181 245.867 370.514 246.806 372.191 248.684C373.868 250.561 374.707 253.505 374.707 257.516V270.395L378.535 271.215V276H363.277V271.215L366.695 270.395V257.543C366.695 255.556 366.294 254.152 365.492 253.332C364.69 252.493 363.478 252.074 361.855 252.074C360.798 252.074 359.85 252.293 359.012 252.73C358.173 253.15 357.471 253.751 356.906 254.535V270.395L360.133 271.215V276H345.094V271.215ZM162.273 305.613H156.34L155.52 300.309C154.736 299.525 153.742 298.905 152.539 298.449C151.354 297.993 149.951 297.766 148.328 297.766C144.865 297.766 142.194 299.023 140.316 301.539C138.457 304.055 137.527 307.336 137.527 311.383V312.777C137.527 316.824 138.457 320.115 140.316 322.648C142.176 325.182 144.801 326.449 148.191 326.449C149.759 326.449 151.19 326.221 152.484 325.766C153.797 325.31 154.809 324.69 155.52 323.906L156.34 318.602H162.273V326.477C160.669 328.336 158.618 329.822 156.121 330.934C153.642 332.027 150.862 332.574 147.781 332.574C142.44 332.574 138.065 330.724 134.656 327.023C131.247 323.323 129.543 318.574 129.543 312.777V311.438C129.543 305.659 131.238 300.91 134.629 297.191C138.02 293.473 142.404 291.613 147.781 291.613C150.862 291.613 153.642 292.178 156.121 293.309C158.6 294.421 160.651 295.897 162.273 297.738V305.613ZM184.996 332C184.777 331.508 184.586 331.007 184.422 330.496C184.258 329.967 184.13 329.439 184.039 328.91C183.091 330.004 181.934 330.888 180.566 331.562C179.217 332.237 177.668 332.574 175.918 332.574C173.02 332.574 170.714 331.79 169 330.223C167.305 328.637 166.457 326.486 166.457 323.77C166.457 320.999 167.569 318.857 169.793 317.344C172.017 315.831 175.28 315.074 179.582 315.074H183.656V312.176C183.656 310.754 183.246 309.651 182.426 308.867C181.605 308.083 180.393 307.691 178.789 307.691C177.878 307.691 177.066 307.801 176.355 308.02C175.645 308.22 175.07 308.466 174.633 308.758L174.113 311.93H168.098L168.125 305.367C169.583 304.383 171.251 303.553 173.129 302.879C175.025 302.204 177.085 301.867 179.309 301.867C182.973 301.867 185.944 302.77 188.223 304.574C190.52 306.361 191.668 308.913 191.668 312.23V324.453C191.668 324.909 191.668 325.337 191.668 325.738C191.686 326.139 191.723 326.522 191.777 326.887L194.211 327.215V332H184.996ZM178.078 326.668C179.281 326.668 180.375 326.413 181.359 325.902C182.344 325.374 183.109 324.717 183.656 323.934V319.422H179.582C177.887 319.422 176.602 319.823 175.727 320.625C174.852 321.409 174.414 322.357 174.414 323.469C174.414 324.471 174.733 325.255 175.371 325.82C176.027 326.385 176.93 326.668 178.078 326.668ZM196.508 327.215L200.336 326.395V308.047L196.098 307.227V302.414H207.773L208.129 306.652C209.113 305.139 210.326 303.964 211.766 303.125C213.206 302.286 214.819 301.867 216.605 301.867C219.595 301.867 221.928 302.806 223.605 304.684C225.283 306.561 226.121 309.505 226.121 313.516V326.395L229.949 327.215V332H214.691V327.215L218.109 326.395V313.543C218.109 311.556 217.708 310.152 216.906 309.332C216.104 308.493 214.892 308.074 213.27 308.074C212.212 308.074 211.264 308.293 210.426 308.73C209.587 309.15 208.885 309.751 208.32 310.535V326.395L211.547 327.215V332H196.508V327.215ZM245.043 307.227L242.254 307.746L246.164 320.98L246.684 323.77H246.848L247.422 320.98L251.277 307.773L248.434 307.227V302.414H261.859V307.227L259.289 307.637L250.566 332H242.938L234.188 307.637L231.617 307.227V302.414H245.043V307.227ZM282.832 332C282.613 331.508 282.422 331.007 282.258 330.496C282.094 329.967 281.966 329.439 281.875 328.91C280.927 330.004 279.77 330.888 278.402 331.562C277.053 332.237 275.504 332.574 273.754 332.574C270.855 332.574 268.549 331.79 266.836 330.223C265.141 328.637 264.293 326.486 264.293 323.77C264.293 320.999 265.405 318.857 267.629 317.344C269.853 315.831 273.116 315.074 277.418 315.074H281.492V312.176C281.492 310.754 281.082 309.651 280.262 308.867C279.441 308.083 278.229 307.691 276.625 307.691C275.714 307.691 274.902 307.801 274.191 308.02C273.48 308.22 272.906 308.466 272.469 308.758L271.949 311.93H265.934L265.961 305.367C267.419 304.383 269.087 303.553 270.965 302.879C272.861 302.204 274.921 301.867 277.145 301.867C280.809 301.867 283.78 302.77 286.059 304.574C288.355 306.361 289.504 308.913 289.504 312.23V324.453C289.504 324.909 289.504 325.337 289.504 325.738C289.522 326.139 289.559 326.522 289.613 326.887L292.047 327.215V332H282.832ZM275.914 326.668C277.117 326.668 278.211 326.413 279.195 325.902C280.18 325.374 280.945 324.717 281.492 323.934V319.422H277.418C275.723 319.422 274.438 319.823 273.562 320.625C272.688 321.409 272.25 322.357 272.25 323.469C272.25 324.471 272.569 325.255 273.207 325.82C273.863 326.385 274.766 326.668 275.914 326.668ZM318.926 312.586H313.566L312.719 308.895C312.172 308.457 311.479 308.092 310.641 307.801C309.82 307.509 308.909 307.363 307.906 307.363C306.503 307.363 305.391 307.682 304.57 308.32C303.75 308.94 303.34 309.724 303.34 310.672C303.34 311.565 303.732 312.312 304.516 312.914C305.299 313.497 306.867 314.017 309.219 314.473C312.883 315.202 315.599 316.277 317.367 317.699C319.135 319.103 320.02 321.044 320.02 323.523C320.02 326.185 318.871 328.363 316.574 330.059C314.296 331.736 311.288 332.574 307.551 332.574C305.272 332.574 303.176 332.246 301.262 331.59C299.366 330.915 297.68 329.958 296.203 328.719L296.121 322.074H301.699L302.793 325.93C303.267 326.331 303.914 326.632 304.734 326.832C305.555 327.014 306.411 327.105 307.305 327.105C308.927 327.105 310.158 326.814 310.996 326.23C311.853 325.647 312.281 324.854 312.281 323.852C312.281 322.977 311.853 322.22 310.996 321.582C310.139 320.944 308.562 320.379 306.266 319.887C302.784 319.176 300.15 318.128 298.363 316.742C296.595 315.339 295.711 313.434 295.711 311.027C295.711 308.548 296.732 306.415 298.773 304.629C300.815 302.824 303.723 301.922 307.496 301.922C309.793 301.922 311.962 302.232 314.004 302.852C316.064 303.471 317.677 304.264 318.844 305.23L318.926 312.586Z" fill="white"/>
<path d="M145.75 97V93.7969L148.094 93.2969V77.9688L145.75 77.4688V74.25H148.094H156.484L161.984 89.2344H162.078L167.422 74.25H178.031V77.4688L175.672 77.9688V93.2969L178.031 93.7969V97H167.844V93.7969L170.297 93.2969V90.3281L170.422 79.625L170.328 79.6094L163.891 97H159.578L153.047 79.8125L152.938 79.8281L153.312 89.5781V93.2969L155.953 93.7969V97H145.75ZM176.266 97V93.7969L177.859 93.5625L184.641 74.25H190.578L197.375 93.5625L198.969 93.7969V97H190.469V93.7969L191.953 93.5156L191.266 91.0469H183.953L183.297 93.5156L184.781 93.7969V97H176.266ZM185.109 87.2031H190.094L187.875 80.3125L187.625 79.5156H187.531L187.266 80.3906L185.109 87.2031ZM210.297 97.3281C208.13 97.3281 206.198 96.8906 204.5 96.0156C202.802 95.1406 201.469 93.875 200.5 92.2188C199.531 90.5521 199.047 88.5312 199.047 86.1562V85.1094C199.047 82.9219 199.49 80.9896 200.375 79.3125C201.271 77.625 202.542 76.3073 204.188 75.3594C205.844 74.401 207.807 73.9219 210.078 73.9219C211.661 73.9219 213.167 74.1354 214.594 74.5625C216.031 74.9792 217.365 75.6979 218.594 76.7188V82.5781H214.609L214.062 79.2188C213.708 78.9792 213.333 78.7708 212.938 78.5938C212.552 78.4167 212.135 78.2812 211.688 78.1875C211.25 78.0938 210.776 78.0469 210.266 78.0469C209.109 78.0469 208.099 78.3229 207.234 78.875C206.37 79.4271 205.698 80.2292 205.219 81.2812C204.75 82.3229 204.516 83.5885 204.516 85.0781V86.1562C204.516 87.5521 204.76 88.7812 205.25 89.8438C205.74 90.8958 206.422 91.7188 207.297 92.3125C208.182 92.9062 209.203 93.2031 210.359 93.2031C210.974 93.2031 211.599 93.1406 212.234 93.0156C212.87 92.8802 213.484 92.7031 214.078 92.4844L214.625 89.2656H218.625V95C217.719 95.625 216.562 96.1719 215.156 96.6406C213.75 97.099 212.13 97.3281 210.297 97.3281ZM220.062 97V93.7969L222.422 93.2969V77.9688L220.062 77.4688V74.25H230.266V77.4688L227.906 77.9688V83.7188H236.188V77.9688L233.828 77.4688V74.25H236.188H241.656H244.016V77.4688L241.656 77.9688V93.2969L244.016 93.7969V97H233.828V93.7969L236.188 93.2969V87.9219H227.906V93.2969L230.266 93.7969V97H220.062ZM245.281 97V93.7969L247.641 93.2969V77.9688L245.281 77.4688V74.25H255.469V77.4688L253.109 77.9688V93.2969L255.469 93.7969V97H245.281ZM256.703 97V93.7969L259.047 93.2969V77.9688L256.703 77.4688V74.25H259.047H264.625L273.75 88.8125H273.844V77.9688L270.859 77.4688V74.25H278.703H281.062V77.4688L278.703 77.9688V97H273.297L264 82.75H263.906V93.2969L266.906 93.7969V97H256.703ZM281.906 97V93.7969L284.266 93.2969V77.9688L281.906 77.4688V74.25H300.078V80.8125H295.938L295.812 78.4688H289.75V83.1406H297.016V87.3438H289.75V92.7656H296.109L296.234 90.3125H300.328V97H281.906Z" fill="white" fill-opacity="0.5"/>
</g>
<defs>
<clipPath id="clip0_5_560">
<rect width="450" height="512" fill="white"/>
</clipPath>
</defs>
</svg>
