<svg width="450" height="512" viewBox="0 0 450 512" fill="none" xmlns="http://www.w3.org/2000/svg">
<path d="M212.66 3.35209C220.296 -1.11736 229.704 -1.11737 237.34 3.35209L434.66 118.842C442.296 123.311 447 131.571 447 140.51V371.49C447 380.429 442.296 388.689 434.66 393.158L237.34 508.648C229.704 513.117 220.296 513.117 212.66 508.648L15.3404 393.158C7.70413 388.689 3 380.429 3 371.49V140.51C3 131.571 7.70413 123.311 15.3404 118.842L212.66 3.35209Z" fill="white"/>
<path d="M214.68 6.80426C221.068 3.06525 228.932 3.06525 235.32 6.80426L432.639 122.294C439.034 126.037 443 132.974 443 140.51V371.49C443 379.026 439.034 385.963 432.639 389.706L235.32 505.196C228.932 508.935 221.068 508.935 214.68 505.196L17.3609 389.706C10.9662 385.963 7 379.026 7 371.49V140.51C7 132.974 10.9662 126.037 17.3609 122.294L214.68 6.80426Z" stroke="black" stroke-opacity="0.5" stroke-width="8"/>
<rect x="82" y="128" width="286" height="4" rx="2" fill="black" fill-opacity="0.3"/>
<rect x="82" y="380" width="286" height="4" rx="2" fill="black" fill-opacity="0.3"/>
<path d="M153.797 241L150.762 241.547L157.816 265.418L158.309 267.605H158.473L158.938 265.473L166.02 241.547L163.012 241V236.188H177.559V241L174.223 241.438L162.492 276H154.289L142.531 241.438L139.25 241V236.188H153.797V241ZM193.145 276.574C188.879 276.574 185.47 275.207 182.918 272.473C180.366 269.738 179.09 266.266 179.09 262.055V260.961C179.09 256.568 180.293 252.949 182.699 250.105C185.124 247.262 188.368 245.849 192.434 245.867C196.426 245.867 199.525 247.07 201.73 249.477C203.936 251.883 205.039 255.137 205.039 259.238V263.586H187.375L187.32 263.75C187.466 265.701 188.113 267.305 189.262 268.562C190.428 269.82 192.005 270.449 193.992 270.449C195.76 270.449 197.228 270.276 198.395 269.93C199.561 269.565 200.837 269 202.223 268.234L204.383 273.156C203.161 274.122 201.576 274.934 199.625 275.59C197.693 276.246 195.533 276.574 193.145 276.574ZM192.434 252.02C190.957 252.02 189.79 252.585 188.934 253.715C188.077 254.845 187.548 256.331 187.348 258.172L187.43 258.309H197.219V257.598C197.219 255.902 196.818 254.553 196.016 253.551C195.232 252.53 194.038 252.02 192.434 252.02ZM222.73 270.449C224.152 270.449 225.292 270.039 226.148 269.219C227.005 268.38 227.434 267.268 227.434 265.883H234.652L234.734 266.047C234.807 269.036 233.686 271.543 231.371 273.566C229.056 275.572 226.176 276.574 222.73 276.574C218.319 276.574 214.919 275.18 212.531 272.391C210.143 269.602 208.949 266.02 208.949 261.645V260.824C208.949 256.467 210.171 252.885 212.613 250.078C215.074 247.271 218.574 245.867 223.113 245.867C225.501 245.867 227.643 246.223 229.539 246.934C231.435 247.645 233.012 248.647 234.27 249.941L234.379 257.844H227.898L226.586 253.223C226.185 252.876 225.693 252.594 225.109 252.375C224.526 252.138 223.861 252.02 223.113 252.02C220.853 252.02 219.258 252.84 218.328 254.48C217.398 256.121 216.934 258.236 216.934 260.824V261.645C216.934 264.288 217.362 266.421 218.219 268.043C219.076 269.647 220.579 270.449 222.73 270.449ZM250.156 239.168V246.414H255.352V252.02H250.156V267.086C250.156 268.234 250.393 269.055 250.867 269.547C251.341 270.039 251.979 270.285 252.781 270.285C253.328 270.285 253.802 270.267 254.203 270.23C254.622 270.176 255.087 270.094 255.598 269.984L256.281 275.754C255.388 276.027 254.504 276.228 253.629 276.355C252.754 276.501 251.806 276.574 250.785 276.574C248.033 276.574 245.909 275.818 244.414 274.305C242.938 272.792 242.199 270.395 242.199 267.113V252.02H237.852V246.414H242.199V239.168H250.156ZM258.441 260.934C258.441 256.522 259.672 252.913 262.133 250.105C264.612 247.28 268.03 245.867 272.387 245.867C276.762 245.867 280.18 247.271 282.641 250.078C285.12 252.885 286.359 256.504 286.359 260.934V261.508C286.359 265.956 285.12 269.583 282.641 272.391C280.18 275.18 276.78 276.574 272.441 276.574C268.048 276.574 264.612 275.18 262.133 272.391C259.672 269.583 258.441 265.956 258.441 261.508V260.934ZM266.426 261.508C266.426 264.206 266.9 266.375 267.848 268.016C268.796 269.638 270.327 270.449 272.441 270.449C274.501 270.449 276.005 269.629 276.953 267.988C277.919 266.348 278.402 264.188 278.402 261.508V260.934C278.402 258.309 277.919 256.167 276.953 254.508C275.987 252.849 274.465 252.02 272.387 252.02C270.309 252.02 268.796 252.849 267.848 254.508C266.9 256.167 266.426 258.309 266.426 260.934V261.508ZM290.434 271.215L294.262 270.395V252.047L290.023 251.227V246.414H301.699L302.055 250.734C302.747 249.203 303.641 248.009 304.734 247.152C305.828 246.296 307.095 245.867 308.535 245.867C308.954 245.867 309.392 245.904 309.848 245.977C310.322 246.031 310.714 246.104 311.023 246.195L310.176 253.469L306.895 253.387C305.728 253.387 304.762 253.615 303.996 254.07C303.23 254.526 302.647 255.173 302.246 256.012V270.395L306.074 271.215V276H290.434V271.215Z" fill="black"/>
<path d="M145.844 97V93.7969L147.438 93.5625L154.219 74.25H160.156L166.953 93.5625L168.547 93.7969V97H160.047V93.7969L161.531 93.5156L160.844 91.0469H153.531L152.875 93.5156L154.359 93.7969V97H145.844ZM154.688 87.2031H159.672L157.453 80.3125L157.203 79.5156H157.109L156.844 80.3906L154.688 87.2031ZM169.547 97V93.7969L171.906 93.2969V77.9688L169.547 77.4688V74.2344H180.734C182.536 74.2344 184.099 74.5208 185.422 75.0938C186.745 75.6667 187.766 76.4844 188.484 77.5469C189.203 78.599 189.562 79.849 189.562 81.2969C189.562 82.6302 189.198 83.8698 188.469 85.0156C187.75 86.1615 186.76 87.0833 185.5 87.7812C184.24 88.4688 182.802 88.8073 181.188 88.7969L177.391 88.75V93.2969L179.75 93.7969V97H169.547ZM183.953 97L180.891 88.125L185.656 86.5L188.422 93.2656L190.578 93.8125V97H183.953ZM177.391 84.5469H180.797C181.859 84.5469 182.677 84.3021 183.25 83.8125C183.823 83.3125 184.109 82.5938 184.109 81.6562C184.109 80.6875 183.818 79.9115 183.234 79.3281C182.651 78.7344 181.818 78.4375 180.734 78.4375H177.391V84.5469ZM196.312 97V93.7969L198.688 93.2969V78.5H195.172L195.031 80.9531H190.891V74.25H212.031V80.9531H207.844L207.719 78.5H204.172V93.2969L206.547 93.7969V97H196.312ZM212.859 97V93.7969L215.219 93.2969V77.9688L212.859 77.4688V74.25H223.047V77.4688L220.688 77.9688V93.2969L223.047 93.7969V97H212.859ZM224.297 97V93.7969L226.656 93.2969V77.9688L224.297 77.4688V74.25H243.031V80.9531H238.891L238.781 78.4688H232.141V83.7344H239.875V87.9219H232.141V93.2969L234.5 93.7969V97H224.297ZM240.25 97V93.7969L241.844 93.5625L248.625 74.25H254.562L261.359 93.5625L262.953 93.7969V97H254.453V93.7969L255.938 93.5156L255.25 91.0469H247.938L247.281 93.5156L248.766 93.7969V97H240.25ZM249.094 87.2031H254.078L251.859 80.3125L251.609 79.5156H251.516L251.25 80.3906L249.094 87.2031ZM274.281 97.3281C272.115 97.3281 270.182 96.8906 268.484 96.0156C266.786 95.1406 265.453 93.875 264.484 92.2188C263.516 90.5521 263.031 88.5312 263.031 86.1562V85.1094C263.031 82.9219 263.474 80.9896 264.359 79.3125C265.255 77.625 266.526 76.3073 268.172 75.3594C269.828 74.401 271.792 73.9219 274.062 73.9219C275.646 73.9219 277.151 74.1354 278.578 74.5625C280.016 74.9792 281.349 75.6979 282.578 76.7188V82.5781H278.594L278.047 79.2188C277.693 78.9792 277.318 78.7708 276.922 78.5938C276.536 78.4167 276.12 78.2812 275.672 78.1875C275.234 78.0938 274.76 78.0469 274.25 78.0469C273.094 78.0469 272.083 78.3229 271.219 78.875C270.354 79.4271 269.682 80.2292 269.203 81.2812C268.734 82.3229 268.5 83.5885 268.5 85.0781V86.1562C268.5 87.5521 268.745 88.7812 269.234 89.8438C269.724 90.8958 270.406 91.7188 271.281 92.3125C272.167 92.9062 273.188 93.2031 274.344 93.2031C274.958 93.2031 275.583 93.1406 276.219 93.0156C276.854 92.8802 277.469 92.7031 278.062 92.4844L278.609 89.2656H282.609V95C281.703 95.625 280.547 96.1719 279.141 96.6406C277.734 97.099 276.115 97.3281 274.281 97.3281ZM288.594 97V93.7969L290.969 93.2969V78.5H287.453L287.312 80.9531H283.172V74.25H304.312V80.9531H300.125L300 78.5H296.453V93.2969L298.828 93.7969V97H288.594Z" fill="black" fill-opacity="0.3"/>
<path d="M193.781 438.328C191.427 438.328 189.432 437.87 187.797 436.953C186.172 436.036 184.932 434.766 184.078 433.141C183.224 431.505 182.797 429.615 182.797 427.469V426.438C182.797 424.177 183.219 422.182 184.062 420.453C184.906 418.724 186.13 417.37 187.734 416.391C189.339 415.411 191.276 414.922 193.547 414.922C195.099 414.922 196.656 415.161 198.219 415.641C199.781 416.109 201.156 416.854 202.344 417.875V423.203H198.438L197.609 420.312C197.255 419.948 196.75 419.646 196.094 419.406C195.448 419.167 194.719 419.047 193.906 419.047C192.656 419.047 191.609 419.359 190.766 419.984C189.922 420.599 189.286 421.458 188.859 422.562C188.443 423.667 188.234 424.948 188.234 426.406V427.469C188.234 428.844 188.453 430.036 188.891 431.047C189.339 432.057 189.99 432.839 190.844 433.391C191.698 433.943 192.75 434.219 194 434.219C194.656 434.219 195.307 434.151 195.953 434.016C196.599 433.88 197.104 433.729 197.469 433.562V430.625L194.906 430.312V426.531H202.969V435.969C201.74 436.76 200.349 437.354 198.797 437.75C197.255 438.135 195.583 438.328 193.781 438.328ZM215.609 438.328C214.036 438.328 212.589 438.042 211.266 437.469C209.953 436.885 208.812 436.073 207.844 435.031C206.875 433.99 206.125 432.771 205.594 431.375C205.073 429.969 204.812 428.443 204.812 426.797V426.438C204.812 424.802 205.073 423.286 205.594 421.891C206.125 420.495 206.87 419.276 207.828 418.234C208.797 417.193 209.938 416.38 211.25 415.797C212.562 415.214 214.005 414.922 215.578 414.922C217.12 414.922 218.552 415.214 219.875 415.797C221.198 416.38 222.354 417.193 223.344 418.234C224.344 419.276 225.12 420.495 225.672 421.891C226.224 423.286 226.5 424.802 226.5 426.438V426.797C226.5 428.443 226.224 429.969 225.672 431.375C225.12 432.771 224.349 433.99 223.359 435.031C222.37 436.073 221.214 436.885 219.891 437.469C218.568 438.042 217.141 438.328 215.609 438.328ZM215.609 434.172C216.755 434.172 217.734 433.865 218.547 433.25C219.359 432.635 219.979 431.776 220.406 430.672C220.833 429.568 221.047 428.276 221.047 426.797V426.406C221.047 424.958 220.828 423.688 220.391 422.594C219.964 421.49 219.344 420.63 218.531 420.016C217.719 419.401 216.734 419.094 215.578 419.094C214.359 419.094 213.359 419.396 212.578 420C211.807 420.604 211.234 421.453 210.859 422.547C210.484 423.641 210.297 424.927 210.297 426.406V426.797C210.297 428.276 210.484 429.573 210.859 430.688C211.245 431.792 211.828 432.651 212.609 433.266C213.401 433.87 214.401 434.172 215.609 434.172ZM226.891 438V434.797L228.484 434.562L235.266 415.25H241.203L248 434.562L249.594 434.797V438H241.094V434.797L242.578 434.516L241.891 432.047H234.578L233.922 434.516L235.406 434.797V438H226.891ZM235.734 428.203H240.719L238.5 421.312L238.25 420.516H238.156L237.891 421.391L235.734 428.203ZM250.594 438V434.797L252.953 434.297V418.969L250.594 418.469V415.25H252.953H258.438H261.312V418.469L258.438 418.969V433.797H263.844L263.969 430.625H268.156V438H250.594Z" fill="black" fill-opacity="0.3"/>
</svg>
